<svg xmlns="http://www.w3.org/2000/svg" width="473.616" height="354.216" viewBox="0 0 473.616 354.216">
  <g id="banner-princiapal" transform="translate(2277.691 422.006)">
    <g id="Group_54827" data-name="Group 54827" transform="translate(-2256.438 -422.006)">
      <circle id="Ellipse_4176" data-name="Ellipse 4176" cx="2.669" cy="2.669" r="2.669" transform="translate(50.032 27.516)" fill="#263b4d"/>
      <path id="Path_103159" data-name="Path 103159" d="M-2227.874-279.98a1.241,1.241,0,0,0-1.241-1.241,1.241,1.241,0,0,0-1.241,1.241,1.241,1.241,0,0,0,1.241,1.242A1.241,1.241,0,0,0-2227.874-279.98Z" transform="translate(2248.334 397.902)" fill="#263b4d"/>
      <path id="Path_103160" data-name="Path 103160" d="M-2232.212-369.534a2.374,2.374,0,0,1,1.448.491,2.363,2.363,0,0,1,.913,1.579,2.364,2.364,0,0,1-.471,1.762h0a2.365,2.365,0,0,1-1.579.913,2.379,2.379,0,0,1-1.761-.472,2.385,2.385,0,0,1-.442-3.341A2.382,2.382,0,0,1-2232.212-369.534Zm0,3.937a1.717,1.717,0,0,0,.206-.012,1.555,1.555,0,0,0,1.031-.6h0a1.549,1.549,0,0,0,.307-1.15,1.544,1.544,0,0,0-.6-1.03,1.558,1.558,0,0,0-2.18.288,1.556,1.556,0,0,0,.289,2.179A1.542,1.542,0,0,0-2232.217-365.6Zm1.565-.356h0Z" transform="translate(2249.059 413.022)" fill="#fff"/>
      <path id="Path_103161" data-name="Path 103161" d="M-2250.222-321.875a.912.912,0,0,0-.912-.913.913.913,0,0,0-.913.913.913.913,0,0,0,.913.913A.912.912,0,0,0-2250.222-321.875Z" transform="translate(2252.047 405.019)" fill="#ffc94a"/>
      <path id="Path_103162" data-name="Path 103162" d="M-2167.579-229.891a.913.913,0,0,0-.913-.913.913.913,0,0,0-.913.913.913.913,0,0,0,.913.913A.913.913,0,0,0-2167.579-229.891Z" transform="translate(2237.898 389.271)" fill="#fff"/>
      <path id="Path_103163" data-name="Path 103163" d="M-2217.451-412.049a.913.913,0,0,0-.913-.913.913.913,0,0,0-.913.913.913.913,0,0,0,.913.912A.913.913,0,0,0-2217.451-412.049Z" transform="translate(2246.437 420.457)" fill="#ffc94a"/>
      <circle id="Ellipse_4177" data-name="Ellipse 4177" cx="2.513" cy="2.513" r="2.513" transform="translate(69.406)" fill="#ffc94a"/>
    </g>
    <g id="Group_54828" data-name="Group 54828" transform="translate(-1878.508 -281.111)">
      <circle id="Ellipse_4178" data-name="Ellipse 4178" cx="2.669" cy="2.669" r="2.669" transform="translate(19.063 127.438)" fill="#263b4d"/>
      <path id="Path_103164" data-name="Path 103164" d="M-1730.925-201.14a1.241,1.241,0,0,0,1.242,1.242,1.241,1.241,0,0,0,1.242-1.242,1.241,1.241,0,0,0-1.242-1.241A1.241,1.241,0,0,0-1730.925-201.14Z" transform="translate(1784.898 243.51)" fill="#263b4d"/>
      <path id="Path_103165" data-name="Path 103165" d="M-1727.059-112.058a2.37,2.37,0,0,1-1.447-.491,2.365,2.365,0,0,1-.913-1.579,2.366,2.366,0,0,1,.472-1.762h0a2.364,2.364,0,0,1,1.58-.913,2.38,2.38,0,0,1,1.761.472,2.387,2.387,0,0,1,.442,3.342A2.383,2.383,0,0,1-1727.059-112.058Zm.006-3.937a1.567,1.567,0,0,0-.206.012,1.554,1.554,0,0,0-1.031.6h0a1.55,1.55,0,0,0-.307,1.15,1.547,1.547,0,0,0,.6,1.03,1.558,1.558,0,0,0,2.181-.288,1.556,1.556,0,0,0-.289-2.18A1.541,1.541,0,0,0-1727.053-115.994Zm-1.565.356h0Z" transform="translate(1784.644 228.862)" fill="#fff"/>
      <path id="Path_103166" data-name="Path 103166" d="M-1708.441-159.109a.913.913,0,0,0,.913.912.913.913,0,0,0,.913-.912.913.913,0,0,0-.913-.913A.913.913,0,0,0-1708.441-159.109Z" transform="translate(1781.048 236.258)" fill="#ffc94a"/>
      <path id="Path_103167" data-name="Path 103167" d="M-1791.084-251.093a.913.913,0,0,0,.913.913.913.913,0,0,0,.913-.913.913.913,0,0,0-.913-.913A.913.913,0,0,0-1791.084-251.093Z" transform="translate(1795.198 252.006)" fill="#fff"/>
      <path id="Path_103168" data-name="Path 103168" d="M-1741.212-68.934a.913.913,0,0,0,.913.912.912.912,0,0,0,.912-.912.912.912,0,0,0-.912-.913A.913.913,0,0,0-1741.212-68.934Z" transform="translate(1786.659 220.819)" fill="#ffc94a"/>
      <circle id="Ellipse_4179" data-name="Ellipse 4179" cx="2.513" cy="2.513" r="2.513" transform="translate(0 155.266)" fill="#ffc94a"/>
    </g>
    <g id="Group_54942" data-name="Group 54942" transform="translate(-2277.691 -397.605)">
      <g id="Group_54869" data-name="Group 54869" transform="translate(294.095 209.323)">
        <g id="Group_54868" data-name="Group 54868">
          <g id="Group_54867" data-name="Group 54867">
            <g id="Group_54866" data-name="Group 54866">
              <g id="Group_54835" data-name="Group 54835" transform="translate(6.141)">
                <g id="Group_54834" data-name="Group 54834">
                  <g id="Group_54833" data-name="Group 54833">
                    <g id="Group_54832" data-name="Group 54832">
                      <g id="Group_54831" data-name="Group 54831">
                        <g id="Group_54830" data-name="Group 54830">
                          <g id="Group_54829" data-name="Group 54829">
                            <path id="Path_103169" data-name="Path 103169" d="M-1915.433-137.053v2.831c0,1.629.891,2.949,1.99,2.949h138.389c1.1,0,1.989-1.319,1.989-2.949v-2.831c0-1.628-.891-2.947-1.989-2.947h-138.389C-1914.542-140-1915.433-138.681-1915.433-137.053Z" transform="translate(1915.433 140)" fill="#56a168"/>
                          </g>
                        </g>
                      </g>
                    </g>
                  </g>
                </g>
              </g>
              <g id="Group_54842" data-name="Group 54842" transform="translate(6.142 3.844)">
                <g id="Group_54841" data-name="Group 54841">
                  <g id="Group_54840" data-name="Group 54840">
                    <g id="Group_54839" data-name="Group 54839">
                      <g id="Group_54838" data-name="Group 54838">
                        <g id="Group_54837" data-name="Group 54837">
                          <g id="Group_54836" data-name="Group 54836">
                            <rect id="Rectangle_6242" data-name="Rectangle 6242" width="142.368" height="1.295" fill="#80ed99"/>
                          </g>
                        </g>
                      </g>
                    </g>
                  </g>
                </g>
              </g>
              <g id="Group_54844" data-name="Group 54844" transform="translate(9.246 8.693)">
                <g id="Group_54843" data-name="Group 54843">
                  <path id="Path_103170" data-name="Path 103170" d="M-1910.633-122.2h130.086a1.114,1.114,0,0,0,1.054-1.165v-6.145h-132.194v6.145A1.114,1.114,0,0,0-1910.633-122.2Z" transform="translate(1911.687 129.511)" fill="#d69e1e"/>
                </g>
              </g>
              <g id="Group_54851" data-name="Group 54851" transform="translate(16.143 52.092)">
                <g id="Group_54850" data-name="Group 54850">
                  <g id="Group_54849" data-name="Group 54849">
                    <g id="Group_54848" data-name="Group 54848">
                      <g id="Group_54847" data-name="Group 54847">
                        <g id="Group_54846" data-name="Group 54846">
                          <g id="Group_54845" data-name="Group 54845">
                            <rect id="Rectangle_6243" data-name="Rectangle 6243" width="116.333" height="5.012" fill="#d69e1e"/>
                          </g>
                        </g>
                      </g>
                    </g>
                  </g>
                </g>
              </g>
              <g id="Group_54858" data-name="Group 54858" transform="translate(118.342 16.003)">
                <g id="Group_54857" data-name="Group 54857">
                  <g id="Group_54856" data-name="Group 54856">
                    <g id="Group_54855" data-name="Group 54855">
                      <g id="Group_54854" data-name="Group 54854">
                        <g id="Group_54853" data-name="Group 54853">
                          <g id="Group_54852" data-name="Group 54852">
                            <path id="Path_103171" data-name="Path 103171" d="M-1757.532-17.462l-22.523-103.229h7.91l22.523,103.229Z" transform="translate(1780.054 120.691)" fill="#ffc94a"/>
                          </g>
                        </g>
                      </g>
                    </g>
                  </g>
                </g>
              </g>
              <g id="Group_54865" data-name="Group 54865" transform="translate(0 16.003)">
                <g id="Group_54864" data-name="Group 54864">
                  <g id="Group_54863" data-name="Group 54863">
                    <g id="Group_54862" data-name="Group 54862">
                      <g id="Group_54861" data-name="Group 54861">
                        <g id="Group_54860" data-name="Group 54860">
                          <g id="Group_54859" data-name="Group 54859">
                            <path id="Path_103172" data-name="Path 103172" d="M-1914.933-17.462l22.523-103.229h-7.91l-22.523,103.229Z" transform="translate(1922.843 120.691)" fill="#ffc94a"/>
                          </g>
                        </g>
                      </g>
                    </g>
                  </g>
                </g>
              </g>
            </g>
          </g>
        </g>
      </g>
      <g id="Group_54905" data-name="Group 54905">
        <g id="Group_54875" data-name="Group 54875" transform="translate(128.014)">
          <g id="Group_54874" data-name="Group 54874">
            <path id="Path_103173" data-name="Path 103173" d="M-2119.626-388.717h129.883v92.8h-129.883Zm129.054.829H-2118.8v91.141h128.225Z" transform="translate(2122.615 391.905)" fill="#fff"/>
            <g id="Group_54870" data-name="Group 54870" transform="translate(128.854)">
              <rect id="Rectangle_6244" data-name="Rectangle 6244" width="6.377" height="6.377" transform="translate(0.414 0.414)" fill="#263b4d"/>
              <path id="Path_103174" data-name="Path 103174" d="M-1967.76-392.564h7.2v7.206h-7.2Zm6.376.829h-5.547v5.548h5.547Z" transform="translate(1967.76 392.564)" fill="#fff"/>
            </g>
            <g id="Group_54871" data-name="Group 54871" transform="translate(0 0.236)">
              <rect id="Rectangle_6245" data-name="Rectangle 6245" width="6.377" height="6.377" transform="translate(0.415 0.415)" fill="#263b4d"/>
              <path id="Path_103175" data-name="Path 103175" d="M-2123.232-392.279h7.206v7.206h-7.206Zm6.377.829h-5.549v5.548h5.549Z" transform="translate(2123.232 392.279)" fill="#fff"/>
            </g>
            <g id="Group_54872" data-name="Group 54872" transform="translate(128.854 91.971)">
              <rect id="Rectangle_6246" data-name="Rectangle 6246" width="6.377" height="6.377" transform="translate(0.414 0.414)" fill="#263b4d"/>
              <path id="Path_103176" data-name="Path 103176" d="M-1967.76-281.594h7.2v7.2h-7.2Zm6.376.829h-5.547v5.547h5.547Z" transform="translate(1967.76 281.594)" fill="#fff"/>
            </g>
            <g id="Group_54873" data-name="Group 54873" transform="translate(0 91.971)">
              <rect id="Rectangle_6247" data-name="Rectangle 6247" width="6.377" height="6.377" transform="translate(0.415 0.414)" fill="#263b4d"/>
              <path id="Path_103177" data-name="Path 103177" d="M-2123.232-281.594h7.206v7.206h-7.206Zm6.377.829h-5.549v5.548h5.549Z" transform="translate(2123.232 281.594)" fill="#fff"/>
            </g>
          </g>
        </g>
        <g id="Group_54881" data-name="Group 54881" transform="translate(0 142.08)">
          <g id="Group_54880" data-name="Group 54880">
            <path id="Path_103178" data-name="Path 103178" d="M-2274.142-217.347h127.872v91.366h-127.872Zm127.043.829h-126.215v89.708H-2147.1Z" transform="translate(2277.083 220.486)" fill="#fff"/>
            <g id="Group_54876" data-name="Group 54876" transform="translate(126.846)">
              <rect id="Rectangle_6248" data-name="Rectangle 6248" width="6.277" height="6.277" transform="translate(0.415 0.414)" fill="#263b4d"/>
              <path id="Path_103179" data-name="Path 103179" d="M-2124.642-221.134h7.106v7.106h-7.106Zm6.277.829h-5.448v5.448h5.448Z" transform="translate(2124.642 221.134)" fill="#fff"/>
            </g>
            <g id="Group_54877" data-name="Group 54877" transform="translate(0 0.232)">
              <rect id="Rectangle_6249" data-name="Rectangle 6249" width="6.277" height="6.277" transform="translate(0.414 0.415)" fill="#263b4d"/>
              <path id="Path_103180" data-name="Path 103180" d="M-2277.691-220.854h7.106v7.107h-7.106Zm6.277.829h-5.448v5.449h5.448Z" transform="translate(2277.691 220.854)" fill="#fff"/>
            </g>
            <g id="Group_54878" data-name="Group 54878" transform="translate(126.846 90.537)">
              <rect id="Rectangle_6250" data-name="Rectangle 6250" width="6.277" height="6.277" transform="translate(0.415 0.415)" fill="#263b4d"/>
              <path id="Path_103181" data-name="Path 103181" d="M-2124.642-111.894h7.106v7.107h-7.106Zm6.277.829h-5.448v5.449h5.448Z" transform="translate(2124.642 111.894)" fill="#fff"/>
            </g>
            <g id="Group_54879" data-name="Group 54879" transform="translate(0 90.537)">
              <rect id="Rectangle_6251" data-name="Rectangle 6251" width="6.277" height="6.277" transform="translate(0.414 0.415)" fill="#263b4d"/>
              <path id="Path_103182" data-name="Path 103182" d="M-2277.691-111.894h7.106v7.107h-7.106Zm6.277.829h-5.448v5.449h5.448Z" transform="translate(2277.691 111.894)" fill="#fff"/>
            </g>
          </g>
        </g>
        <g id="Group_54886" data-name="Group 54886" transform="translate(63.844 16.612)">
          <g id="Group_54883" data-name="Group 54883">
            <g id="Group_54882" data-name="Group 54882">
              <path id="Path_103183" data-name="Path 103183" d="M-2200.506-80.373l-.152-272.679a18.28,18.28,0,0,1,6.388-13.738,23.046,23.046,0,0,1,15.375-5.672l127.842-.057h.011c12,0,21.767,8.7,21.773,19.39l.152,272.68a18.273,18.273,0,0,1-6.387,13.737,23.041,23.041,0,0,1-15.375,5.673l-127.842.057h-.01C-2190.733-60.982-2200.5-69.678-2200.506-80.373Zm149.625,18.505a22.217,22.217,0,0,0,14.825-5.463,17.457,17.457,0,0,0,6.109-13.118l-.152-272.679c-.006-10.237-9.4-18.562-20.944-18.562h-.011l-127.842.057a22.216,22.216,0,0,0-14.824,5.463,17.459,17.459,0,0,0-6.11,13.117l.152,272.68c.006,10.238,9.4,18.562,20.945,18.562h.009Z" transform="translate(2200.658 372.52)" fill="#ffc94a"/>
            </g>
            <path id="Path_103184" data-name="Path 103184" d="M-2172.387-65.16l117.845-.052c10.874,0,19.684-8.227,19.678-18.365l-.147-263.631c-.005-10.138-8.824-18.352-19.7-18.347l-117.845.053c-10.874,0-19.684,8.227-19.678,18.364l.146,263.632C-2192.08-73.369-2183.26-65.155-2172.387-65.16Z" transform="translate(2199.215 371.328)" fill="#263b4d"/>
          </g>
          <g id="Group_54885" data-name="Group 54885" transform="translate(70.023 21.341)">
            <g id="Group_54884" data-name="Group 54884">
              <path id="Path_103185" data-name="Path 103185" d="M-2073.674-344.721h0a1.956,1.956,0,0,1,.669-1.465,2.329,2.329,0,0,1,1.563-.585h0a2.328,2.328,0,0,1,1.562.584,1.953,1.953,0,0,1,.671,1.464,1.957,1.957,0,0,1-.67,1.464,2.334,2.334,0,0,1-1.563.586h0A2.15,2.15,0,0,1-2073.674-344.721Zm2.232-1.222a1.5,1.5,0,0,0-1.009.373,1.137,1.137,0,0,0-.395.848,1.324,1.324,0,0,0,1.4,1.22h0a1.5,1.5,0,0,0,1.008-.373,1.138,1.138,0,0,0,.4-.849,1.135,1.135,0,0,0-.4-.847,1.5,1.5,0,0,0-1.009-.372Z" transform="translate(2108.894 346.771)" fill="#fff" opacity="0.89"/>
              <path id="Path_103186" data-name="Path 103186" d="M-2062.644-344.512h0a1.076,1.076,0,0,1,1.107-1.038h0a1.078,1.078,0,0,1,1.108,1.038,1.076,1.076,0,0,1-1.108,1.039A1.078,1.078,0,0,1-2062.644-344.512Zm1.108-.211c-.152,0-.279.1-.279.209,0,.227.559.226.559,0,0-.114-.127-.21-.28-.21Z" transform="translate(2107.006 346.562)" fill="#fff" opacity="0.89"/>
              <path id="Path_103187" data-name="Path 103187" d="M-2116.17-344.6a1.437,1.437,0,0,1,.491-1.079,1.692,1.692,0,0,1,1.135-.426l27.888-.012h0a1.688,1.688,0,0,1,1.134.425,1.436,1.436,0,0,1,.493,1.078,1.572,1.572,0,0,1-1.626,1.505l-27.889.012A1.571,1.571,0,0,1-2116.17-344.6Zm29.514-.689-27.888.012a.868.868,0,0,0-.581.213.624.624,0,0,0-.216.462.744.744,0,0,0,.8.675l27.889-.012a.746.746,0,0,0,.8-.676.622.622,0,0,0-.218-.462.861.861,0,0,0-.581-.213Z" transform="translate(2116.17 346.66)" fill="#fff" opacity="0.89"/>
            </g>
          </g>
          <path id="Path_103188" data-name="Path 103188" d="M-2121.519-21.208v-.216a5.007,5.007,0,0,1,1.473-3.563,5.007,5.007,0,0,1,3.561-1.477l30.233-.014h0a5.044,5.044,0,0,1,5.038,5.035v.215a5.006,5.006,0,0,1-1.473,3.563,5.005,5.005,0,0,1-3.562,1.477l-30.233.014h0A5.043,5.043,0,0,1-2121.519-21.208Zm35.268-4.441-30.233.014a4.176,4.176,0,0,0-2.974,1.234,4.179,4.179,0,0,0-1.231,2.977v.216A4.212,4.212,0,0,0-2116.481-17h0l30.233-.014a4.177,4.177,0,0,0,2.975-1.234,4.178,4.178,0,0,0,1.231-2.977v-.215a4.214,4.214,0,0,0-4.209-4.206Z" transform="translate(2187.109 313.275)" fill="#fff"/>
        </g>
        <rect id="Rectangle_6252" data-name="Rectangle 6252" width="147.324" height="234.296" transform="translate(75.537 56.893)" fill="#fff"/>
        <g id="Group_54887" data-name="Group 54887" transform="translate(70.835 56.89)">
          <rect id="Rectangle_6253" data-name="Rectangle 6253" width="157.28" height="234.296" fill="#fff" opacity="0.81"/>
        </g>
        <g id="Group_54892" data-name="Group 54892" transform="translate(86.636 156.28)">
          <path id="Path_103189" data-name="Path 103189" d="M-2172.744-171.2h0l64.413-.08a.379.379,0,0,0,.414-.332.379.379,0,0,0-.414-.33h0l-64.413.079a.38.38,0,0,0-.413.332A.38.38,0,0,0-2172.744-171.2Z" transform="translate(2173.158 198.512)" fill="#263b4d"/>
          <path id="Path_103190" data-name="Path 103190" d="M-2133.83-143.947h0l32.208-.04a.379.379,0,0,0,.414-.332.38.38,0,0,0-.414-.331h0l-32.207.04a.381.381,0,0,0-.414.332A.38.38,0,0,0-2133.83-143.947Z" transform="translate(2166.496 193.839)" fill="#263b4d"/>
          <path id="Path_103191" data-name="Path 103191" d="M-2117.583-163.065h0l18.72-.03a.38.38,0,0,0,.414-.332.381.381,0,0,0-.414-.331h0l-18.721.03a.379.379,0,0,0-.414.332A.38.38,0,0,0-2117.583-163.065Z" transform="translate(2163.714 197.11)" fill="#263b4d"/>
          <path id="Path_103192" data-name="Path 103192" d="M-2172.716-163h0l41.183-.03a.38.38,0,0,0,.415-.331.379.379,0,0,0-.415-.331h0l-41.183.029a.38.38,0,0,0-.414.332A.379.379,0,0,0-2172.716-163Z" transform="translate(2173.153 197.1)" fill="#263b4d"/>
          <path id="Path_103193" data-name="Path 103193" d="M-2138.931-153.378h0l36.412-.03a.381.381,0,0,0,.415-.332.38.38,0,0,0-.415-.331h0l-36.413.03a.38.38,0,0,0-.413.331A.38.38,0,0,0-2138.931-153.378Z" transform="translate(2167.369 195.452)" fill="#263b4d"/>
          <path id="Path_103194" data-name="Path 103194" d="M-2172.716-153.318h0l24.048-.03a.38.38,0,0,0,.414-.332.38.38,0,0,0-.415-.33h0l-24.048.03a.379.379,0,0,0-.413.332A.38.38,0,0,0-2172.716-153.318Z" transform="translate(2173.153 195.441)" fill="#263b4d"/>
          <path id="Path_103195" data-name="Path 103195" d="M-2172.744-198.142h0l64.413-.08a.379.379,0,0,0,.414-.332.379.379,0,0,0-.414-.331h0l-64.413.08a.379.379,0,0,0-.413.332A.38.38,0,0,0-2172.744-198.142Z" transform="translate(2173.158 203.124)" fill="#263b4d"/>
          <path id="Path_103196" data-name="Path 103196" d="M-2117.583-190h0l18.72-.03a.381.381,0,0,0,.414-.332.381.381,0,0,0-.414-.331h0l-18.721.03a.378.378,0,0,0-.414.332A.381.381,0,0,0-2117.583-190Z" transform="translate(2163.714 201.722)" fill="#263b4d"/>
          <path id="Path_103197" data-name="Path 103197" d="M-2172.716-189.944h0l41.183-.03a.38.38,0,0,0,.415-.332.38.38,0,0,0-.415-.331h0l-41.183.03a.379.379,0,0,0-.414.332A.379.379,0,0,0-2172.716-189.944Z" transform="translate(2173.153 201.712)" fill="#263b4d"/>
          <path id="Path_103198" data-name="Path 103198" d="M-2138.931-180.318h0l36.412-.03a.38.38,0,0,0,.415-.331.38.38,0,0,0-.415-.331h0l-36.413.03a.38.38,0,0,0-.413.332A.38.38,0,0,0-2138.931-180.318Z" transform="translate(2167.369 200.064)" fill="#263b4d"/>
          <path id="Path_103199" data-name="Path 103199" d="M-2172.716-180.258h0l24.048-.03a.379.379,0,0,0,.414-.332.38.38,0,0,0-.415-.331h0l-24.048.03a.38.38,0,0,0-.413.332A.379.379,0,0,0-2172.716-180.258Z" transform="translate(2173.153 200.054)" fill="#263b4d"/>
          <g id="Group_54890" data-name="Group 54890" transform="translate(74.977)">
            <g id="Group_54889" data-name="Group 54889">
              <g id="Group_54888" data-name="Group 54888">
                <rect id="Rectangle_6254" data-name="Rectangle 6254" width="47.18" height="36.784" fill="#80ed99"/>
              </g>
            </g>
          </g>
          <g id="Group_54891" data-name="Group 54891" transform="translate(74.977 41.422)">
            <rect id="Rectangle_6255" data-name="Rectangle 6255" width="47.18" height="12.767" fill="#22577a"/>
          </g>
        </g>
        <g id="Group_54903" data-name="Group 54903" transform="translate(18.829 219.674)">
          <g id="Group_54895" data-name="Group 54895" transform="translate(108.533 0)">
            <g id="Group_54893" data-name="Group 54893" transform="translate(0)">
              <path id="Path_103200" data-name="Path 103200" d="M-2122.3-125.525h80.267v60.242H-2122.3Zm79.438.829h-78.609v58.585h78.609Z" transform="translate(2123.725 127.171)" fill="#263b4d"/>
              <rect id="Rectangle_6256" data-name="Rectangle 6256" width="3.925" height="4.119" transform="translate(83.24 4.119) rotate(180)" fill="#263b4d"/>
              <rect id="Rectangle_6257" data-name="Rectangle 6257" width="3.925" height="4.119" transform="translate(3.925 4.272) rotate(180)" fill="#263b4d"/>
              <rect id="Rectangle_6258" data-name="Rectangle 6258" width="3.925" height="4.119" transform="translate(83.24 63.533) rotate(180)" fill="#263b4d"/>
              <rect id="Rectangle_6259" data-name="Rectangle 6259" width="3.925" height="4.119" transform="translate(3.925 63.533) rotate(180)" fill="#263b4d"/>
            </g>
            <g id="Group_54894" data-name="Group 54894" transform="translate(19.89 13.178)">
              <path id="Path_103201" data-name="Path 103201" d="M-2074.163-106.573h31.43a2.519,2.519,0,0,0,2.52-2.519h0a2.519,2.519,0,0,0-2.52-2.52h-31.43a2.519,2.519,0,0,0-2.519,2.52h0A2.519,2.519,0,0,0-2074.163-106.573Z" transform="translate(2096.024 111.611)" fill="#80ed99"/>
              <path id="Path_103202" data-name="Path 103202" d="M-2074.163-81.7h31.43a2.519,2.519,0,0,0,2.52-2.519h0a2.519,2.519,0,0,0-2.52-2.52h-31.43a2.519,2.519,0,0,0-2.519,2.52h0A2.519,2.519,0,0,0-2074.163-81.7Z" transform="translate(2096.024 107.352)" fill="#fb6459"/>
              <path id="Path_103203" data-name="Path 103203" d="M-2083.521-94.575h19.487a2.519,2.519,0,0,0,2.52-2.52h0a2.519,2.519,0,0,0-2.52-2.52h-19.487a2.52,2.52,0,0,0-2.52,2.52h0A2.52,2.52,0,0,0-2083.521-94.575Z" transform="translate(2097.627 109.557)" fill="#80ed99"/>
              <path id="Path_103204" data-name="Path 103204" d="M-2097.5-106.573h10.121a2.519,2.519,0,0,0,2.52-2.519h0a2.519,2.519,0,0,0-2.52-2.52H-2097.5a2.519,2.519,0,0,0-2.519,2.52h0A2.519,2.519,0,0,0-2097.5-106.573Z" transform="translate(2100.02 111.611)" fill="#fb6459"/>
              <path id="Path_103205" data-name="Path 103205" d="M-2070.843-68h28.678a2.519,2.519,0,0,0,2.52-2.519h0a2.519,2.519,0,0,0-2.52-2.52h-28.678a2.519,2.519,0,0,0-2.52,2.52h0A2.519,2.519,0,0,0-2070.843-68Z" transform="translate(2095.456 105.008)" fill="#80ed99"/>
              <path id="Path_103206" data-name="Path 103206" d="M-2092.419-68h8.978a2.519,2.519,0,0,0,2.519-2.519h0a2.519,2.519,0,0,0-2.519-2.52h-8.978a2.52,2.52,0,0,0-2.52,2.52h0A2.519,2.519,0,0,0-2092.419-68Z" transform="translate(2099.15 105.008)" fill="#fb6459"/>
              <path id="Path_103207" data-name="Path 103207" d="M-2048.452-94.572h10.121a2.519,2.519,0,0,0,2.52-2.519h0a2.519,2.519,0,0,0-2.52-2.52h-10.121a2.519,2.519,0,0,0-2.52,2.52h0A2.519,2.519,0,0,0-2048.452-94.572Z" transform="translate(2091.623 109.556)" fill="#fb6459"/>
            </g>
          </g>
          <g id="Group_54902" data-name="Group 54902" transform="translate(0 7.404)">
            <rect id="Rectangle_6260" data-name="Rectangle 6260" width="122.816" height="48.74" rx="1.431" transform="translate(122.816 48.74) rotate(180)" fill="#80ed99"/>
            <g id="Group_54897" data-name="Group 54897" transform="translate(113.815 3.327)">
              <g id="Group_54896" data-name="Group 54896">
                <path id="Path_103208" data-name="Path 103208" d="M-2117.232-109.913a.416.416,0,0,0,.293-.121l3.822-3.822a.415.415,0,0,0,0-.586.415.415,0,0,0-.586,0l-3.822,3.822a.413.413,0,0,0,0,.586A.413.413,0,0,0-2117.232-109.913Z" transform="translate(2117.646 114.563)" fill="#22577a"/>
                <path id="Path_103209" data-name="Path 103209" d="M-2113.41-109.913a.416.416,0,0,0,.293-.121.415.415,0,0,0,0-.586l-3.822-3.822a.415.415,0,0,0-.586,0,.413.413,0,0,0,0,.586l3.822,3.822A.415.415,0,0,0-2113.41-109.913Z" transform="translate(2117.646 114.563)" fill="#22577a"/>
              </g>
            </g>
            <g id="Group_54899" data-name="Group 54899" transform="translate(51.216 17.088)">
              <g id="Group_54898" data-name="Group 54898">
                <path id="Path_103210" data-name="Path 103210" d="M-2154.779-97.13h27.343a.415.415,0,0,0,.414-.414.415.415,0,0,0-.414-.414h-27.343a.415.415,0,0,0-.414.414A.415.415,0,0,0-2154.779-97.13Z" transform="translate(2186.673 97.959)" fill="#22577a"/>
                <path id="Path_103211" data-name="Path 103211" d="M-2192.762-97.13h24.372a.415.415,0,0,0,.415-.414.415.415,0,0,0-.415-.414h-24.372a.415.415,0,0,0-.414.414A.415.415,0,0,0-2192.762-97.13Z" transform="translate(2193.176 97.959)" fill="#22577a"/>
                <path id="Path_103212" data-name="Path 103212" d="M-2151.194-78.557h24.372a.414.414,0,0,0,.414-.414.415.415,0,0,0-.414-.414h-24.372a.415.415,0,0,0-.414.414A.414.414,0,0,0-2151.194-78.557Z" transform="translate(2186.059 94.779)" fill="#22577a"/>
                <path id="Path_103213" data-name="Path 103213" d="M-2179.023-88.366h24.371a.414.414,0,0,0,.415-.414.414.414,0,0,0-.415-.414h-24.371a.414.414,0,0,0-.415.414A.415.415,0,0,0-2179.023-88.366Z" transform="translate(2190.824 96.459)" fill="#22577a"/>
                <path id="Path_103214" data-name="Path 103214" d="M-2141.091-88.366h16a.415.415,0,0,0,.414-.414.414.414,0,0,0-.414-.414h-16a.413.413,0,0,0-.414.414A.414.414,0,0,0-2141.091-88.366Z" transform="translate(2184.33 96.459)" fill="#22577a"/>
                <path id="Path_103215" data-name="Path 103215" d="M-2172.1-78.557h9.835a.413.413,0,0,0,.414-.414.414.414,0,0,0-.414-.414h-9.835a.415.415,0,0,0-.414.414A.414.414,0,0,0-2172.1-78.557Z" transform="translate(2189.639 94.779)" fill="#22577a"/>
              </g>
            </g>
            <g id="Group_54901" data-name="Group 54901" transform="translate(9.957 17.088)">
              <g id="Group_54900" data-name="Group 54900">
                <path id="Path_103216" data-name="Path 103216" d="M-2218.3-97.13h27.342a.414.414,0,0,0,.414-.414.414.414,0,0,0-.414-.414H-2218.3a.414.414,0,0,0-.415.414A.414.414,0,0,0-2218.3-97.13Z" transform="translate(2238.807 97.959)" fill="#22577a"/>
                <path id="Path_103217" data-name="Path 103217" d="M-2235.191-97.13h21.663a.414.414,0,0,0,.414-.414.414.414,0,0,0-.414-.414h-21.663a.415.415,0,0,0-.414.414A.415.415,0,0,0-2235.191-97.13Z" transform="translate(2241.699 97.959)" fill="#22577a"/>
                <path id="Path_103218" data-name="Path 103218" d="M-2214.713-78.557h24.371a.414.414,0,0,0,.414-.414.414.414,0,0,0-.414-.414h-24.371a.414.414,0,0,0-.415.414A.414.414,0,0,0-2214.713-78.557Z" transform="translate(2238.193 94.779)" fill="#22577a"/>
                <path id="Path_103219" data-name="Path 103219" d="M-2242.543-88.366h24.371a.415.415,0,0,0,.415-.414.414.414,0,0,0-.415-.414h-24.371a.414.414,0,0,0-.415.414A.414.414,0,0,0-2242.543-88.366Z" transform="translate(2242.958 96.459)" fill="#22577a"/>
                <path id="Path_103220" data-name="Path 103220" d="M-2204.612-88.366h16a.415.415,0,0,0,.415-.414.414.414,0,0,0-.415-.414h-16a.414.414,0,0,0-.414.414A.414.414,0,0,0-2204.612-88.366Z" transform="translate(2236.464 96.459)" fill="#22577a"/>
                <path id="Path_103221" data-name="Path 103221" d="M-2235.623-78.557h9.836a.414.414,0,0,0,.414-.414.415.415,0,0,0-.414-.414h-9.836a.414.414,0,0,0-.414.414A.414.414,0,0,0-2235.623-78.557Z" transform="translate(2241.773 94.779)" fill="#22577a"/>
              </g>
            </g>
          </g>
        </g>
        <g id="Group_54904" data-name="Group 54904" transform="translate(87.58 67.161)">
          <rect id="Rectangle_6261" data-name="Rectangle 6261" width="121.733" height="80.181" fill="#57cc99"/>
          <path id="Path_103222" data-name="Path 103222" d="M-2068.139-288.4a6.561,6.561,0,0,1,3.033.718,6.846,6.846,0,0,1,5.841-2.868,7.138,7.138,0,0,1,5.343,2.2,6.738,6.738,0,0,1,2.416-.443c3.054,0,5.531,1.954,5.531,4.365,0,.065-.008.129-.012.193h.008a2.417,2.417,0,0,1,2.648,2.087,2.416,2.416,0,0,1-2.644,2.085h-22.783v-.029c-2.694-.237-4.788-2-4.788-4.14C-2073.546-286.534-2071.125-288.4-2068.139-288.4Z" transform="translate(2155.16 307.937)" fill="#fff"/>
          <path id="Path_103223" data-name="Path 103223" d="M-2153.144-297.076a6.589,6.589,0,0,1,3.05.723,6.879,6.879,0,0,1,5.872-2.883,7.181,7.181,0,0,1,5.373,2.214,6.757,6.757,0,0,1,2.428-.446c3.071,0,5.56,1.965,5.56,4.389,0,.065-.009.129-.012.194h.012a2.427,2.427,0,0,1,2.657,2.1,2.427,2.427,0,0,1-2.657,2.1h-22.907v-.029c-2.708-.239-4.813-2.01-4.813-4.163C-2158.58-295.2-2156.146-297.076-2153.144-297.076Z" transform="translate(2169.718 309.424)" fill="#fff"/>
          <path id="Path_103224" data-name="Path 103224" d="M-2128.517-275.8a4.712,4.712,0,0,1,2.176.514,4.909,4.909,0,0,1,4.19-2.056,5.122,5.122,0,0,1,3.833,1.579,4.834,4.834,0,0,1,1.733-.317c2.19,0,3.967,1.4,3.967,3.131,0,.046-.007.093-.008.139h.008a1.732,1.732,0,0,1,1.9,1.5,1.732,1.732,0,0,1-1.9,1.5h-16.343v-.021c-1.933-.171-3.435-1.435-3.435-2.97C-2132.4-274.462-2130.658-275.8-2128.517-275.8Z" transform="translate(2165.235 305.676)" fill="#fff"/>
          <path id="Path_103225" data-name="Path 103225" d="M-2045.3-228.467h-51.544l.817-63.74Z" transform="translate(2159.148 308.221)" fill="#1b4561"/>
          <path id="Path_103226" data-name="Path 103226" d="M-2107.2-228.467h-50.162l50.979-63.74Z" transform="translate(2169.51 308.221)" fill="#22577a"/>
          <path id="Path_103227" data-name="Path 103227" d="M-2088.248-275.81l1.008,5.076-5.222-4.479-3.394,10.451v-27.595l15.217,19.347Z" transform="translate(2158.979 308.247)" fill="#d1d1d1"/>
          <path id="Path_103228" data-name="Path 103228" d="M-2099-292.357v27.595l-3.395-10.451-5.222,4.479,1.007-5.076-7.608,2.8Z" transform="translate(2162.123 308.247)" fill="#fff"/>
          <path id="Path_103229" data-name="Path 103229" d="M-2043.275-219.525v-20.453l15.96,20.453Z" transform="translate(2149.977 299.279)" fill="#1b4561"/>
          <path id="Path_103230" data-name="Path 103230" d="M-2046.627-219.525h-16.226l16.226-20.453Z" transform="translate(2153.329 299.279)" fill="#22577a"/>
          <path id="Path_103231" data-name="Path 103231" d="M-2135-222.887v-36.729l29.3,36.729Z" transform="translate(2165.682 302.641)" fill="#1b4561"/>
          <path id="Path_103232" data-name="Path 103232" d="M-2141.277-222.887h-30.37l30.37-36.729Z" transform="translate(2171.956 302.641)" fill="#22577a"/>
        </g>
      </g>
      <g id="Group_54909" data-name="Group 54909" transform="translate(333.295 160.036)">
        <g id="Group_54908" data-name="Group 54908">
          <g id="Group_54906" data-name="Group 54906" transform="translate(32.202)">
            <path id="Path_103233" data-name="Path 103233" d="M-1834.532-149.536h61.689a1.658,1.658,0,0,0,1.482-.914l23.145-46.118a1.657,1.657,0,0,0-1.481-2.4h-62.072a1.657,1.657,0,0,0-1.486.924l-22.763,46.118A1.658,1.658,0,0,0-1834.532-149.536Z" transform="translate(1836.606 199.383)" fill="#fff"/>
            <path id="Path_103234" data-name="Path 103234" d="M-1836.378-150.186a2.06,2.06,0,0,1-.1-2.011l22.763-46.117a2.058,2.058,0,0,1,1.857-1.155h62.072a2.058,2.058,0,0,1,1.764.985,2.058,2.058,0,0,1,.088,2.016l-23.146,46.119a2.063,2.063,0,0,1-1.851,1.142h-61.69A2.06,2.06,0,0,1-1836.378-150.186Zm24.522-48.454a1.235,1.235,0,0,0-1.115.693l-22.763,46.119a1.236,1.236,0,0,0,.06,1.206,1.236,1.236,0,0,0,1.055.587h61.69a1.238,1.238,0,0,0,1.111-.686l23.144-46.118a1.233,1.233,0,0,0-.052-1.21,1.233,1.233,0,0,0-1.057-.59Z" transform="translate(1836.691 199.469)" fill="#263b4d"/>
          </g>
          <path id="Path_103235" data-name="Path 103235" d="M-1875.545-149.186a3.059,3.059,0,0,1,3.059-3.059h33l21.572-43.213a.827.827,0,0,1,.742-.459h61.043a.829.829,0,0,1,.742,1.2l-22.906,45.977a.831.831,0,0,1-.746.46l-60.956-.267c-.015,0-.028,0-.043-.006h-35.508Z" transform="translate(1875.545 198.861)" fill="#263b4d"/>
          <path id="Rectangle_6262" data-name="Rectangle 6262" d="M.134,0H3.942a.134.134,0,0,1,.134.134v.75a.135.135,0,0,1-.135.135H.134A.134.134,0,0,1,0,.885V.134A.134.134,0,0,1,.134,0Z" transform="translate(32.302 49.107) rotate(180)" fill="#fff"/>
          <path id="Rectangle_6263" data-name="Rectangle 6263" d="M.134,0H3.942a.134.134,0,0,1,.134.134v.75a.135.135,0,0,1-.135.135H.135A.135.135,0,0,1,0,.884V.134A.134.134,0,0,1,.134,0Z" transform="translate(25.276 49.107) rotate(180)" fill="#fff"/>
          <g id="Group_54907" data-name="Group 54907" transform="translate(75.313 20.667)">
            <path id="Path_103236" data-name="Path 103236" d="M-1783.082-164.533c1.785,1.785,5.114,1.351,7.436-.971s2.757-5.651.971-7.436-5.114-1.351-7.436.971S-1784.867-166.318-1783.082-164.533Z" transform="translate(1784.59 174.448)" fill="#fff"/>
            <path id="Path_103237" data-name="Path 103237" d="M-1783.459-164.324c-1.944-1.944-1.509-5.544.971-8.023s6.078-2.914,8.022-.971,1.509,5.543-.97,8.022a7.1,7.1,0,0,1-4.894,2.186A4.339,4.339,0,0,1-1783.459-164.324Zm1.557-7.437c-2.156,2.157-2.592,5.23-.97,6.851s4.694,1.184,6.85-.971,2.592-5.229.971-6.85a3.528,3.528,0,0,0-2.546-.98A6.281,6.281,0,0,0-1781.9-171.761Z" transform="translate(1784.675 174.532)" fill="#263b4d"/>
          </g>
          <path id="Path_103238" data-name="Path 103238" d="M-1785.093-163.458c-2.419-2.42-1.848-6.928,1.275-10.051s7.632-3.693,10.05-1.274,1.849,6.93-1.273,10.051a8.983,8.983,0,0,1-6.183,2.773A5.361,5.361,0,0,1-1785.093-163.458Zm6.591-12.356a8.854,8.854,0,0,0-5.023,2.6,8.856,8.856,0,0,0-2.6,5.022,5.166,5.166,0,0,0,1.325,4.442,5.16,5.16,0,0,0,4.442,1.324,8.852,8.852,0,0,0,5.024-2.6c2.96-2.961,3.531-7.207,1.273-9.465a4.935,4.935,0,0,0-3.57-1.382A6.7,6.7,0,0,0-1778.5-175.814Z" transform="translate(1860.315 195.499)" fill="#fff"/>
        </g>
      </g>
      <g id="Group_54941" data-name="Group 54941" transform="translate(206.85 26.874)">
        <g id="Group_54911" data-name="Group 54911" transform="translate(108.224)">
          <path id="Path_103239" data-name="Path 103239" d="M-1893.294-294.76h80.825a3.482,3.482,0,0,0,3.734-3.156v-59.066a3.482,3.482,0,0,0-3.734-3.156h-80.825a3.482,3.482,0,0,0-3.735,3.156v59.066A3.482,3.482,0,0,0-1893.294-294.76Z" transform="translate(1897.444 360.138)" fill="#fff"/>
          <path id="Path_103240" data-name="Path 103240" d="M-1897.53-295.515v-51.31l89.125.389v50.921c0,1.9-1.862,3.449-4.15,3.449h-80.825C-1895.668-292.066-1897.53-293.613-1897.53-295.515Zm.829-50.478v50.478c0,1.445,1.49,2.621,3.321,2.621h80.825c1.831,0,3.321-1.176,3.321-2.621v-50.1Z" transform="translate(1897.53 357.859)" fill="#263b4d"/>
          <path id="Path_103241" data-name="Path 103241" d="M-1808.329-347.912v-9.125c0-1.713-1.687-3.1-3.769-3.1h-81.58c-2.082,0-3.769,1.388-3.769,3.1v8.726" transform="translate(1897.516 360.138)" fill="#80ed99"/>
          <path id="Path_103242" data-name="Path 103242" d="M-1800.359-353a1.838,1.838,0,0,1,1.8-1.868,1.838,1.838,0,0,1,1.8,1.868,1.837,1.837,0,0,1-1.8,1.866A1.837,1.837,0,0,1-1800.359-353Zm.829,0a1.009,1.009,0,0,0,.974,1.038,1.008,1.008,0,0,0,.974-1.038,1.009,1.009,0,0,0-.974-1.039A1.01,1.01,0,0,0-1799.53-353Z" transform="translate(1880.894 359.236)" fill="#fff"/>
          <path id="Path_103243" data-name="Path 103243" d="M-1806.643-353a1.838,1.838,0,0,1,1.8-1.868,1.838,1.838,0,0,1,1.8,1.868,1.837,1.837,0,0,1-1.8,1.866A1.837,1.837,0,0,1-1806.643-353Zm.829,0a1.009,1.009,0,0,0,.974,1.038,1.009,1.009,0,0,0,.974-1.038,1.01,1.01,0,0,0-.974-1.039A1.01,1.01,0,0,0-1805.814-353Z" transform="translate(1881.969 359.236)" fill="#fff"/>
          <path id="Path_103244" data-name="Path 103244" d="M-1812.808-353a1.838,1.838,0,0,1,1.8-1.868,1.838,1.838,0,0,1,1.8,1.868,1.837,1.837,0,0,1-1.8,1.866A1.838,1.838,0,0,1-1812.808-353Zm.829,0a1.009,1.009,0,0,0,.974,1.038,1.009,1.009,0,0,0,.974-1.038,1.01,1.01,0,0,0-.974-1.039A1.009,1.009,0,0,0-1811.979-353Z" transform="translate(1883.025 359.236)" fill="#fff"/>
          <g id="Group_54910" data-name="Group 54910" transform="translate(3.987 13.711)" opacity="0.31">
            <path id="Path_103245" data-name="Path 103245" d="M-1892.719-298.9v-41.78a2.922,2.922,0,0,1,2.919-2.919h75.312a2.922,2.922,0,0,1,2.919,2.919v41.78a2.922,2.922,0,0,1-2.919,2.919H-1889.8A2.922,2.922,0,0,1-1892.719-298.9Zm2.919-43.87a2.093,2.093,0,0,0-2.09,2.09v41.78a2.093,2.093,0,0,0,2.09,2.09h75.312a2.093,2.093,0,0,0,2.09-2.09v-41.78a2.093,2.093,0,0,0-2.09-2.09Z" transform="translate(1892.719 343.595)" fill="#263b4d"/>
            <path id="Path_103246" data-name="Path 103246" d="M-1830.809-323.035h20.744v23.723h-20.744Zm19.915.829h-19.086v22.065h19.086Z" transform="translate(1882.12 340.075)" fill="#263b4d"/>
            <path id="Path_103247" data-name="Path 103247" d="M-1830.309-327.089h19.915v-8.079h-19.915Z" transform="translate(1882.034 342.152)" fill="#80ed99"/>
            <path id="Path_103248" data-name="Path 103248" d="M-1849.554-316.664v-18.5h-31.869v18.5Z" transform="translate(1890.785 342.152)" fill="#80ed99"/>
            <path id="Path_103249" data-name="Path 103249" d="M-1830.193-327.089h19.916v-8.079h-19.916Z" transform="translate(1882.014 342.152)" fill="#f9cad0"/>
            <path id="Path_103250" data-name="Path 103250" d="M-1849.438-316.664v-18.5h-31.869v18.5Z" transform="translate(1890.765 342.152)" fill="#f9cad0"/>
            <path id="Path_103251" data-name="Path 103251" d="M-1881.923-306.723h32.7v11.253h-32.7Zm31.87.829h-31.041v9.6h31.041Z" transform="translate(1890.87 337.282)" fill="#263b4d"/>
          </g>
          <path id="Path_103252" data-name="Path 103252" d="M-1830.193-327.089h19.916v-8.079h-19.916Z" transform="translate(1886.001 355.863)" fill="#fb6459"/>
          <path id="Path_103253" data-name="Path 103253" d="M-1849.438-316.664v-18.5h-31.869v18.5Z" transform="translate(1894.752 355.863)" fill="#fb6459"/>
          <path id="Path_103254" data-name="Path 103254" d="M-1853.8-325.068a2.614,2.614,0,0,1,2.611-2.611,2.614,2.614,0,0,1,2.612,2.611,2.614,2.614,0,0,1-2.612,2.611A2.614,2.614,0,0,1-1853.8-325.068Zm.622,0a1.992,1.992,0,0,0,1.99,1.99,1.992,1.992,0,0,0,1.99-1.99,1.992,1.992,0,0,0-1.99-1.989A1.992,1.992,0,0,0-1853.181-325.068Z" transform="translate(1890.044 354.581)" fill="#fff"/>
          <path id="Path_103255" data-name="Path 103255" d="M-1865.391-325.068a2.614,2.614,0,0,1,2.611-2.611,2.614,2.614,0,0,1,2.611,2.611,2.614,2.614,0,0,1-2.611,2.611A2.614,2.614,0,0,1-1865.391-325.068Zm.622,0a1.992,1.992,0,0,0,1.989,1.99,1.992,1.992,0,0,0,1.99-1.99,1.992,1.992,0,0,0-1.99-1.989A1.992,1.992,0,0,0-1864.769-325.068Z" transform="translate(1892.027 354.581)" fill="#fff"/>
          <path id="Path_103256" data-name="Path 103256" d="M-1876.66-325.068a2.614,2.614,0,0,1,2.611-2.611,2.613,2.613,0,0,1,2.611,2.611,2.614,2.614,0,0,1-2.611,2.611A2.614,2.614,0,0,1-1876.66-325.068Zm.622,0a1.993,1.993,0,0,0,1.99,1.99,1.992,1.992,0,0,0,1.989-1.99,1.992,1.992,0,0,0-1.989-1.989A1.992,1.992,0,0,0-1876.038-325.068Z" transform="translate(1893.957 354.581)" fill="#fff"/>
        </g>
        <g id="Group_54940" data-name="Group 54940" transform="translate(0 5.589)">
          <g id="Group_54916" data-name="Group 54916" transform="translate(9.429 124.082)">
            <g id="Group_54912" data-name="Group 54912" transform="translate(69.961 90.807)">
              <path id="Path_103257" data-name="Path 103257" d="M-1925.371-72.662l2.694,3.009,15.263,17.572a1.671,1.671,0,0,0,2.932-1.086l.229-38.674a1.845,1.845,0,0,0-1.87-1.856l-18.11-.306Z" transform="translate(1931.13 94.096)" fill="#fb6459"/>
              <path id="Path_103258" data-name="Path 103258" d="M-1907.013-91.841a1.845,1.845,0,0,0-1.871-1.856L-1924-93.951l0-.051,18.11.306a1.846,1.846,0,0,1,1.87,1.856l-.23,38.674a1.671,1.671,0,0,1-2.932,1.086l-.274-.314a1.624,1.624,0,0,0,.21-.772Z" transform="translate(1930.896 94.096)" fill="#263b4d"/>
              <path id="Path_103259" data-name="Path 103259" d="M-1903.995-57.3a.414.414,0,0,0,.414-.41l.4-35.986a.414.414,0,0,0-.409-.419h0a.415.415,0,0,0-.415.409l-.4,35.986a.416.416,0,0,0,.41.419Z" transform="translate(1927.542 94.115)" fill="#fff"/>
              <path id="Path_103260" data-name="Path 103260" d="M-1918.5-84.1a3.61,3.61,0,0,1,2.953-4.157,3.587,3.587,0,0,1,2.69.615,3.584,3.584,0,0,1,1.466,2.336,3.61,3.61,0,0,1-2.951,4.158,3.665,3.665,0,0,1-.6.051A3.611,3.611,0,0,1-1918.5-84.1Zm3.092-3.34a2.765,2.765,0,0,0-1.8,1.13,2.758,2.758,0,0,0-.473,2.071,2.781,2.781,0,0,0,3.2,2.274,2.78,2.78,0,0,0,2.273-3.2,2.758,2.758,0,0,0-1.129-1.8,2.755,2.755,0,0,0-1.6-.513A2.8,2.8,0,0,0-1915.406-87.443Z" transform="translate(1929.963 93.121)" fill="#fff"/>
              <path id="Path_103261" data-name="Path 103261" d="M-1922.2-64.949a.412.412,0,0,0,.274-.1l3.6-3.168a.413.413,0,0,0,.037-.584.414.414,0,0,0-.584-.037l-3.6,3.168a.413.413,0,0,0-.036.584A.412.412,0,0,0-1922.2-64.949Z" transform="translate(1930.66 89.806)" fill="#fff"/>
              <path id="Path_103262" data-name="Path 103262" d="M-1919.245-61.683a.412.412,0,0,0,.274-.1l3.6-3.167a.413.413,0,0,0,.037-.584.414.414,0,0,0-.584-.037l-3.6,3.167a.414.414,0,0,0-.037.584A.412.412,0,0,0-1919.245-61.683Z" transform="translate(1930.153 89.246)" fill="#fff"/>
              <path id="Path_103263" data-name="Path 103263" d="M-1916.331-58.607a.412.412,0,0,0,.273-.1l3.6-3.168a.413.413,0,0,0,.037-.584.414.414,0,0,0-.584-.037l-3.6,3.168a.413.413,0,0,0-.036.584A.412.412,0,0,0-1916.331-58.607Z" transform="translate(1929.654 88.72)" fill="#fff"/>
              <path id="Path_103264" data-name="Path 103264" d="M-1930.667-68.2a2.073,2.073,0,0,1-1.61-2.444,2.059,2.059,0,0,1,.889-1.312,2.06,2.06,0,0,1,1.557-.3c.69.142,5.13,2.106,5.523,2.943a.51.51,0,0,1,0,.46c-.346.649-2.018.813-3.561.813A22.761,22.761,0,0,1-1930.667-68.2Zm.668-3.244a1.234,1.234,0,0,0-.933.18,1.23,1.23,0,0,0-.533.787,1.244,1.244,0,0,0,.966,1.467,16.71,16.71,0,0,0,5.254-.112A23.52,23.52,0,0,0-1930-71.444Z" transform="translate(1932.32 90.38)" fill="#fff"/>
              <path id="Path_103265" data-name="Path 103265" d="M-1928.025-62.029a2.064,2.064,0,0,1-.93-1.284,2.059,2.059,0,0,1,.251-1.565h0c.425-.691,2.912-3.633,4.161-3.92a.8.8,0,0,1,.634.086c.835.533-1.037,5.625-1.269,6a2.061,2.061,0,0,1-1.283.93,2.093,2.093,0,0,1-.484.057A2.061,2.061,0,0,1-1928.025-62.029Zm.027-2.414h0a1.243,1.243,0,0,0,.407,1.708,1.23,1.23,0,0,0,.939.15,1.235,1.235,0,0,0,.768-.558,20.922,20.922,0,0,0,1.4-4.817A14.162,14.162,0,0,0-1928-64.443Z" transform="translate(1931.754 89.785)" fill="#fff"/>
            </g>
            <g id="Group_54914" data-name="Group 54914">
              <path id="Path_103266" data-name="Path 103266" d="M-2007.208-132.814l31.646,25.38-9.921,49.035a2.289,2.289,0,0,0,1.753,2.69l28.923,6.364a1.147,1.147,0,0,0,1.351-.809l9.105-32.247.676.541a2.068,2.068,0,0,0,3.31-1.155l7.4-32.568a2.07,2.07,0,0,0-.83-2.152l-.483-.333,15.845-56.118a40.658,40.658,0,0,0,0-22.111l-2.087-7.382-36.016,7.839a2.039,2.039,0,0,0-.7.007s-18.04.953-18.265,1.1l-29.576,20.695A25.443,25.443,0,0,0-2007.208-132.814Zm28.8-15.749,11.983-4.062-2.191,10.83Z" transform="translate(2016.734 203.68)" fill="#263b4d"/>
              <g id="Group_54913" data-name="Group 54913" transform="translate(29.884 29.835)">
                <path id="Path_103267" data-name="Path 103267" d="M-1968.083-97.007a.414.414,0,0,0,.406-.336l13.467-69.846a.415.415,0,0,0-.329-.486.417.417,0,0,0-.486.328L-1968.491-97.5a.416.416,0,0,0,.329.486A.425.425,0,0,0-1968.083-97.007Z" transform="translate(1978.591 167.682)" fill="#fff"/>
                <path id="Path_103268" data-name="Path 103268" d="M-1980.262-134.873a.4.4,0,0,0,.134-.023l19.516-6.673a.412.412,0,0,0,.257-.525.412.412,0,0,0-.525-.258l-19.515,6.673a.414.414,0,0,0-.258.526A.415.415,0,0,0-1980.262-134.873Z" transform="translate(1980.676 163.349)" fill="#fff"/>
              </g>
            </g>
            <g id="Group_54915" data-name="Group 54915" transform="translate(14.277 143.72)">
              <path id="Path_103269" data-name="Path 103269" d="M-1975.412-23.642l-3.417,2.155-19.876,12.112a1.671,1.671,0,0,0,.581,3.072l38.092,6.688a1.844,1.844,0,0,0,2.142-1.533l3.328-17.8Z" transform="translate(1999.507 29.136)" fill="#fb6459"/>
              <path id="Path_103270" data-name="Path 103270" d="M-1998.7-6.515l.691-.422a1.613,1.613,0,0,0,1.03.641l38.092,6.688a1.832,1.832,0,0,0,1.3-.26l-.3,1.58a1.844,1.844,0,0,1-2.142,1.533l-38.092-6.688A1.671,1.671,0,0,1-1998.7-6.515Z" transform="translate(1999.508 26.276)" fill="#263b4d"/>
              <path id="Path_103271" data-name="Path 103271" d="M-1956.5,1.234a.415.415,0,0,0,.407-.341.415.415,0,0,0-.334-.482l-35.414-6.4a.421.421,0,0,0-.482.334.415.415,0,0,0,.335.482l35.413,6.4A.567.567,0,0,0-1956.5,1.234Z" transform="translate(1998.278 26.115)" fill="#fff"/>
              <path id="Path_103272" data-name="Path 103272" d="M-1961.165-10.746a3.609,3.609,0,0,1,3.6-3.605,3.61,3.61,0,0,1,3.606,3.605,3.61,3.61,0,0,1-3.606,3.605A3.609,3.609,0,0,1-1961.165-10.746Zm.829,0a2.78,2.78,0,0,0,2.776,2.776,2.78,2.78,0,0,0,2.777-2.776,2.78,2.78,0,0,0-2.777-2.776A2.78,2.78,0,0,0-1960.336-10.746Z" transform="translate(1992.943 27.546)" fill="#fff"/>
              <path id="Path_103273" data-name="Path 103273" d="M-1972.122-16.637a.42.42,0,0,0,.218-.062.414.414,0,0,0,.134-.57l-2.522-4.076a.413.413,0,0,0-.57-.134.414.414,0,0,0-.134.57l2.522,4.075A.412.412,0,0,0-1972.122-16.637Z" transform="translate(1995.322 28.777)" fill="#fff"/>
              <path id="Path_103274" data-name="Path 103274" d="M-1975.836-14.264a.417.417,0,0,0,.218-.062.414.414,0,0,0,.134-.57l-2.522-4.076a.413.413,0,0,0-.569-.134.413.413,0,0,0-.135.57l2.522,4.076A.413.413,0,0,0-1975.836-14.264Z" transform="translate(1995.958 28.37)" fill="#fff"/>
              <path id="Path_103275" data-name="Path 103275" d="M-1979.354-11.905a.411.411,0,0,0,.217-.062.412.412,0,0,0,.134-.569l-2.522-4.076a.412.412,0,0,0-.569-.135.414.414,0,0,0-.134.57l2.522,4.076A.413.413,0,0,0-1979.354-11.905Z" transform="translate(1996.56 27.967)" fill="#fff"/>
              <path id="Path_103276" data-name="Path 103276" d="M-1971.087-22.577c-1.1-.849.292-6.049.419-6.373a2.057,2.057,0,0,1,1.095-1.145,2.056,2.056,0,0,1,1.584-.035,2.073,2.073,0,0,1,1.179,2.681h0c-.256.657-2.932,4.7-3.824,4.952a.538.538,0,0,1-.151.022A.486.486,0,0,1-1971.087-22.577Zm.2-.711h0Zm.988-5.361a16.652,16.652,0,0,0-.768,5.2,23.416,23.416,0,0,0,3.082-4.3h0a1.243,1.243,0,0,0-.706-1.607,1.24,1.24,0,0,0-.448-.085A1.245,1.245,0,0,0-1969.9-28.649Z" transform="translate(1994.714 30.271)" fill="#fff"/>
              <path id="Path_103277" data-name="Path 103277" d="M-1977.459-24.556a2.072,2.072,0,0,1-.194-2.921,2.072,2.072,0,0,1,2.921-.194h0c.612.535,3.1,3.479,3.17,4.758a.808.808,0,0,1-.19.611.522.522,0,0,1-.4.126C-1973.477-22.177-1977.165-24.3-1977.459-24.556Zm5.061,1.737h0Zm-4.631-4.112a1.232,1.232,0,0,0-.3.9,1.234,1.234,0,0,0,.42.852A20.9,20.9,0,0,0-1972.4-23a14.216,14.216,0,0,0-2.881-4.05h0a1.239,1.239,0,0,0-.817-.307A1.241,1.241,0,0,0-1977.029-26.931Zm2.016-.428h0Z" transform="translate(1995.854 29.914)" fill="#fff"/>
            </g>
          </g>
          <g id="Group_54935" data-name="Group 54935" transform="translate(47.4)">
            <path id="Path_103278" data-name="Path 103278" d="M-1967.791-318.849c.495-.838.972-1.6,1.418-2.278,1.547-2.356,3.5-4.846,3.357-7.5-.9-16.767,16.761-21.822,29.78-18.507a10.754,10.754,0,0,1,.606-1.358c2.13-3.989,6.27-5.933,9.247-4.344a5.488,5.488,0,0,1,2.7,4.282c3.071.082,5.719,1.482,6.809,3.943,1.479,3.337-.4,7.489-4.242,9.917a35.677,35.677,0,0,0,7.061,4.69l.673.354c9.148,4.81,11.116,16,6.406,22.183l-1.354,1.8q-.314.418-.657.809a3.2,3.2,0,0,0-.7,3.251,15.462,15.462,0,0,1,.912,6.628c-.707,8.75-8.745,16.242-19,17.626a23.875,23.875,0,0,1-18.393-4.863,121.683,121.683,0,0,0-18.283-12c-5.271-2.949-8.905-7.856-9.408-13.673A16.559,16.559,0,0,1-1967.791-318.849Z" transform="translate(1970.919 353.394)" fill="#263b4d"/>
            <g id="Group_54934" data-name="Group 54934" transform="translate(7.362 16.75)">
              <g id="Group_54920" data-name="Group 54920" transform="translate(0.844)">
                <g id="Group_54919" data-name="Group 54919">
                  <g id="Group_54918" data-name="Group 54918">
                    <g id="Group_54917" data-name="Group 54917">
                      <path id="Path_103279" data-name="Path 103279" d="M-1960.951-308.909l1.349-13.065c2.3-3.531,8.3-4.45,10.526-7.012,1.781-2.046,2.491-2.447,2.589-4.2h0c.857,8.714,7.155,15.229,14.085,14.6l-.01.1,2.264.079a5.568,5.568,0,0,1,5.356,5.741l0,.127a5.568,5.568,0,0,1-5.741,5.356l-1.713-.06,2.641,16.964c.59,5.122-20.695,6.285-21.285,1.163l-.741-6.437A12.465,12.465,0,0,1-1960.951-308.909Z" transform="translate(1961.018 333.184)" fill="#ffaa89"/>
                    </g>
                  </g>
                </g>
              </g>
              <g id="Group_54933" data-name="Group 54933" transform="translate(0 10.447)">
                <path id="Path_103280" data-name="Path 103280" d="M-1923.768-307.105a.414.414,0,0,0,.347-.188.415.415,0,0,0-.121-.574l-1.406-.917,1.614-1.794a.414.414,0,0,0-.032-.585.414.414,0,0,0-.585.031l-1.937,2.155a.419.419,0,0,0-.1.331.418.418,0,0,0,.185.293l1.813,1.182A.42.42,0,0,0-1923.768-307.105Z" transform="translate(1955.865 318.985)" fill="#ff6a48"/>
                <path id="Path_103281" data-name="Path 103281" d="M-1960.433-312.837a1.075,1.075,0,0,0,.827,1.276,1.076,1.076,0,0,0,1.276-.828,1.076,1.076,0,0,0-.828-1.276A1.075,1.075,0,0,0-1960.433-312.837Z" transform="translate(1961.765 319.399)" fill="#263b4d"/>
                <path id="Path_103282" data-name="Path 103282" d="M-1949.856-312.169a1.176,1.176,0,0,0,1.227,1.123,1.176,1.176,0,0,0,1.124-1.227,1.178,1.178,0,0,0-1.227-1.124A1.177,1.177,0,0,0-1949.856-312.169Z" transform="translate(1959.951 319.349)" fill="#263b4d"/>
                <path id="Path_103283" data-name="Path 103283" d="M-1953.48-302.378a5.472,5.472,0,0,0,4.192-1.472,3.935,3.935,0,0,0,1.013-2.786.418.418,0,0,0-.446-.38.416.416,0,0,0-.38.445,3.145,3.145,0,0,1-.8,2.166,4.708,4.708,0,0,1-3.575,1.2h-.019a.414.414,0,0,0-.414.414A.422.422,0,0,0-1953.48-302.378Z" transform="translate(1960.645 318.257)" fill="#ff6a48"/>
                <g id="Group_54922" data-name="Group 54922" transform="translate(9.234 21.174)">
                  <g id="Group_54921" data-name="Group 54921">
                    <path id="Path_103284" data-name="Path 103284" d="M-1950.734-294.442a.218.218,0,0,0,.15-.007,1.906,1.906,0,0,1,2.1.453.224.224,0,0,0,.316.018.223.223,0,0,0,.019-.316,2.391,2.391,0,0,0-2.608-.569.224.224,0,0,0-.119.293A.22.22,0,0,0-1950.734-294.442Z" transform="translate(1950.894 295.03)" fill="#ff6a48"/>
                  </g>
                </g>
                <g id="Group_54930" data-name="Group 54930">
                  <g id="Group_54929" data-name="Group 54929">
                    <g id="Group_54925" data-name="Group 54925" transform="translate(9.637 0.085)">
                      <g id="Group_54924" data-name="Group 54924">
                        <g id="Group_54923" data-name="Group 54923">
                          <path id="Path_103285" data-name="Path 103285" d="M-1944.5-317.557a3.415,3.415,0,0,1-1.413-.162c-.491-.123-.986-.236-1.421-.318s-.938-.16-1.441-.225a3.4,3.4,0,0,1-1.371-.366c-.343-.229-.41-.71.138-1.183a3.921,3.921,0,0,1,3.156-.575,3.8,3.8,0,0,1,2.691,1.685C-1943.837-318.064-1944.088-317.643-1944.5-317.557Z" transform="translate(1950.407 320.475)" fill="#263b4d"/>
                        </g>
                      </g>
                    </g>
                    <g id="Group_54928" data-name="Group 54928">
                      <g id="Group_54927" data-name="Group 54927">
                        <g id="Group_54926" data-name="Group 54926">
                          <path id="Path_103286" data-name="Path 103286" d="M-1961.714-318.445a2.074,2.074,0,0,0,.98-.058c.341-.073.687-.136.989-.179s.651-.08,1-.106a2.07,2.07,0,0,0,.955-.219c.243-.162.3-.536-.071-.934a2.54,2.54,0,0,0-2.169-.607,2.491,2.491,0,0,0-1.894,1.189C-1962.158-318.874-1961.994-318.532-1961.714-318.445Z" transform="translate(1962.036 320.578)" fill="#263b4d"/>
                        </g>
                      </g>
                    </g>
                  </g>
                </g>
                <g id="Group_54931" data-name="Group 54931" transform="translate(9.957 7.659)">
                  <path id="Path_103287" data-name="Path 103287" d="M-1947.447-310.513a1.676,1.676,0,0,0-2.074.081" transform="translate(1949.936 311.252)" fill="#ff6a48"/>
                  <path id="Path_103288" data-name="Path 103288" d="M-1949.608-310.1a.414.414,0,0,0,.265-.1,1.241,1.241,0,0,1,1.557-.071.416.416,0,0,0,.582-.076.414.414,0,0,0-.076-.581,2.08,2.08,0,0,0-2.592.09.415.415,0,0,0-.055.583A.412.412,0,0,0-1949.608-310.1Z" transform="translate(1950.022 311.337)" fill="#ff6a48"/>
                </g>
                <g id="Group_54932" data-name="Group 54932" transform="translate(1.319 7.114)">
                  <path id="Path_103289" data-name="Path 103289" d="M-1958.718-311.327a.945.945,0,0,0-1.225.138" transform="translate(1960.358 311.909)" fill="#ff6a48"/>
                  <path id="Path_103290" data-name="Path 103290" d="M-1960.03-310.859a.413.413,0,0,0,.3-.123.52.52,0,0,1,.694-.09.415.415,0,0,0,.574-.105.411.411,0,0,0-.1-.571,1.347,1.347,0,0,0-1.761.183.413.413,0,0,0,0,.586A.408.408,0,0,0-1960.03-310.859Z" transform="translate(1960.444 311.995)" fill="#ff6a48"/>
                </g>
                <path id="Path_103291" data-name="Path 103291" d="M-1949.695-288.756s10.127.776,12.134-3.076h0s.221,6.44-11.475,8.8Z" transform="translate(1959.923 315.95)" fill="#ff6a48"/>
                <path id="Path_103292" data-name="Path 103292" d="M-1954.589-308.118c.048,0,.1,0,.143,0l1.012-.045a.414.414,0,0,0,.4-.432.406.406,0,0,0-.433-.4l-1.012.045a2.372,2.372,0,0,1-1.712-.622,2.362,2.362,0,0,1-.768-1.65.447.447,0,0,1,.117-.323.444.444,0,0,1,.311-.145,2.126,2.126,0,0,0,1.486-.693,2.123,2.123,0,0,0,.56-1.541l-.109-2.5a.407.407,0,0,0-.432-.4.416.416,0,0,0-.4.433l.109,2.5a1.3,1.3,0,0,1-.343.944,1.307,1.307,0,0,1-.911.425,1.267,1.267,0,0,0-.886.413,1.268,1.268,0,0,0-.334.92,3.183,3.183,0,0,0,1.037,2.224A3.184,3.184,0,0,0-1954.589-308.118Z" transform="translate(1961.309 319.935)" fill="#ff6a48"/>
                <path id="Path_103293" data-name="Path 103293" d="M-1926.071-302.356a2.481,2.481,0,0,1,.622-1.807,2.488,2.488,0,0,1,1.72-.839,2.515,2.515,0,0,1,2.646,2.339h0a2.484,2.484,0,0,1-.622,1.808,2.48,2.48,0,0,1-1.717.838c-.053,0-.1,0-.156,0A2.5,2.5,0,0,1-1926.071-302.356Zm4.16-.255a1.657,1.657,0,0,0-1.769-1.563,1.663,1.663,0,0,0-1.149.56,1.658,1.658,0,0,0-.416,1.208,1.684,1.684,0,0,0,1.769,1.562,1.658,1.658,0,0,0,1.148-.56,1.657,1.657,0,0,0,.416-1.207Z" transform="translate(1955.879 317.912)" fill="#fff"/>
                <path id="Path_103294" data-name="Path 103294" d="M-1923.056-308.923" transform="translate(1955.362 318.583)" fill="none" stroke="#ff6969" stroke-linecap="round" stroke-linejoin="round" stroke-width="5"/>
              </g>
            </g>
          </g>
          <g id="Group_54939" data-name="Group 54939" transform="translate(0 50.376)">
            <g id="Group_54936" data-name="Group 54936">
              <path id="Path_103295" data-name="Path 103295" d="M-2023.635-276.082l5.283-4.065-3.425-9.253a2.5,2.5,0,0,1,1.035-3l.113-.069a.974.974,0,0,1,1.331.3l8.271,15.24.164-.168,1.835-4.239a2.2,2.2,0,0,1,2.182-1.319l.367.027a1.028,1.028,0,0,1,.914,1.3l-1.641,5.964-.669,4.349a3.169,3.169,0,0,1-.691,1.546l.045.065,14.6,21.018,11.912-15.382,14.109,25.173-12.085,16.781a16.688,16.688,0,0,1-29.4-4.565l-9.954-30.437-5.989-11.755A6.029,6.029,0,0,1-2023.635-276.082Z" transform="translate(2027.747 292.611)" fill="#ffaa89"/>
              <line id="Line_300" data-name="Line 300" x2="4.753" y2="7.071" transform="translate(33.429 43.656)" fill="#ff9c9c"/>
              <path id="Path_103296" data-name="Path 103296" d="M-1983.108-232.537a.418.418,0,0,0,.231-.07.416.416,0,0,0,.113-.575l-4.754-7.071a.416.416,0,0,0-.575-.114.415.415,0,0,0-.113.575l4.754,7.071A.412.412,0,0,0-1983.108-232.537Z" transform="translate(2021.29 283.679)" fill="#ff6a48"/>
              <path id="Path_103297" data-name="Path 103297" d="M-2015.717-265.248a.415.415,0,0,0,.414-.4,8.1,8.1,0,0,1,6.059-7.714.414.414,0,0,0,.307-.5.415.415,0,0,0-.5-.308,9.073,9.073,0,0,0-6.7,8.5.414.414,0,0,0,.4.427Z" transform="translate(2026.059 289.456)" fill="#ff6a48"/>
              <path id="Path_103298" data-name="Path 103298" d="M-2018.235-278.6l.042.172,2.663,9.691a1.986,1.986,0,0,1-1.062,2.32l-.581.276a.633.633,0,0,1-.872-.367l-3.125-9.161a1.625,1.625,0,0,1,.86-1.958Z" transform="translate(2026.935 290.213)" fill="#ffaa89"/>
              <path id="Path_103299" data-name="Path 103299" d="M-2017.938-265.872a1.05,1.05,0,0,1-.584-.627l-3.127-9.17a2.043,2.043,0,0,1,1.079-2.457l2.532-1.187,2.823,10.342a2.4,2.4,0,0,1-1.284,2.8l-.582.276a1.048,1.048,0,0,1-.449.1A1.056,1.056,0,0,1-2017.938-265.872Zm-2.282-11.5a1.21,1.21,0,0,0-.642,1.449l3.125,9.161a.22.22,0,0,0,.122.131.225.225,0,0,0,.179,0l.581-.276a1.571,1.571,0,0,0,.841-1.837l-2.579-9.386Z" transform="translate(2027.02 290.335)" fill="#ff6a48"/>
              <path id="Path_103300" data-name="Path 103300" d="M-2022.058-276.2l.038.154,2.391,8.7a1.784,1.784,0,0,1-.954,2.084l-.522.248a.569.569,0,0,1-.782-.33l-2.807-8.228a1.458,1.458,0,0,1,.772-1.759Z" transform="translate(2027.537 289.801)" fill="#ffaa89"/>
              <path id="Path_103301" data-name="Path 103301" d="M-2021.816-264.734a.989.989,0,0,1-.55-.589l-2.809-8.237a1.878,1.878,0,0,1,.992-2.259l2.32-1.087,2.548,9.338A2.2,2.2,0,0,1-2020.49-265l-.522.249a.985.985,0,0,1-.422.094A.985.985,0,0,1-2021.816-264.734Zm-2.015-10.335a1.044,1.044,0,0,0-.555,1.251l2.8,8.227a.157.157,0,0,0,.088.093.148.148,0,0,0,.125,0l.522-.248a1.367,1.367,0,0,0,.733-1.6l-2.3-8.382Z" transform="translate(2027.622 289.923)" fill="#ff6a48"/>
              <path id="Path_103302" data-name="Path 103302" d="M-2025.162-274.372l.035.139,2.167,7.887a1.618,1.618,0,0,1-.865,1.889l-.472.225a.516.516,0,0,1-.709-.3l-2.543-7.455a1.322,1.322,0,0,1,.7-1.594Z" transform="translate(2028.025 289.489)" fill="#ffaa89"/>
              <path id="Path_103303" data-name="Path 103303" d="M-2024.966-263.963a.933.933,0,0,1-.52-.556l-2.545-7.465a1.741,1.741,0,0,1,.919-2.094l2.144-1.005,2.321,8.506a2.029,2.029,0,0,1-1.087,2.372l-.473.225a.916.916,0,0,1-.4.09A.945.945,0,0,1-2024.966-263.963Zm-1.794-9.365a.907.907,0,0,0-.483,1.085l2.544,7.455c.011.036.036.053.138.059l.472-.225a1.2,1.2,0,0,0,.643-1.4l-2.074-7.551Z" transform="translate(2028.11 289.61)" fill="#ff6a48"/>
            </g>
            <g id="Group_54937" data-name="Group 54937" transform="translate(42.093 9.742)">
              <path id="Path_103304" data-name="Path 103304" d="M-1975.553-263.921l13.3-11.7a17.29,17.29,0,0,1,10.763-4.341l16.824-.694.642-.073c.56-.064,1.116-.1,1.668-.112l.005-.015.3.006c.446-.007.889,0,1.329.025l11.244.214a18.645,18.645,0,0,1,16.587,14.386l2.942,14.78a2.12,2.12,0,0,1-1.779,2.512l-10.407,1.485.173,36.525-57.772,3.026a2.618,2.618,0,0,1-2.5-3.74l11.652-24.46-15.692-20.774A5.209,5.209,0,0,1-1975.553-263.921Z" transform="translate(1977.321 280.857)" fill="#80ed99"/>
              <path id="Path_103305" data-name="Path 103305" d="M-1894.187-162.463a7.932,7.932,0,0,1-.409-1.233l-24.473-74.339,23.646-3.672,16.453,74.139,5.5-.615a6.1,6.1,0,0,1,6.775,6.06v8.073a1.007,1.007,0,0,1-1.008,1.008,3.161,3.161,0,0,1-3.16-3.161v2.153a1.007,1.007,0,0,1-1.008,1.008,3.161,3.161,0,0,1-3.16-3.161v2.153a1.008,1.008,0,0,1-1.008,1.008,3.157,3.157,0,0,1-3.152-3.071,3.131,3.131,0,0,1-1.915.661h-2.717a4.15,4.15,0,0,1-3.607-2.116,8.066,8.066,0,0,1-6.747-4.859h0Z" transform="translate(1967.348 274.154)" fill="#ffaa89"/>
              <path id="Path_103306" data-name="Path 103306" d="M-1860.965-138.935a.311.311,0,0,0,.311-.311v-6.5a.311.311,0,0,0-.311-.311.311.311,0,0,0-.311.311v6.5A.311.311,0,0,0-1860.965-138.935Z" transform="translate(1957.453 257.779)" fill="#ff6a48"/>
              <path id="Path_103307" data-name="Path 103307" d="M-1865.993-138.935a.311.311,0,0,0,.311-.311v-6.5a.311.311,0,0,0-.311-.311.311.311,0,0,0-.311.311v6.5A.311.311,0,0,0-1865.993-138.935Z" transform="translate(1958.314 257.779)" fill="#ff6a48"/>
            </g>
            <g id="Group_54938" data-name="Group 54938" transform="translate(54.226 9.327)">
              <path id="Path_103308" data-name="Path 103308" d="M-1923.793-240.133a2.785,2.785,0,0,0,.459-.038l6.257-1.04a.414.414,0,0,0,.341-.477.416.416,0,0,0-.477-.341l-6.256,1.04a2,2,0,0,1-2.29-1.608l-2.963-16.1a.411.411,0,0,0-.483-.332.413.413,0,0,0-.332.482l2.963,16.1A2.842,2.842,0,0,0-1923.793-240.133Z" transform="translate(1957.009 277.537)" fill="#366642"/>
              <path id="Path_103309" data-name="Path 103309" d="M-1958.072-232.355a.412.412,0,0,0,.167-.035.415.415,0,0,0,.213-.546l-2.641-6.015a17.834,17.834,0,0,1-.347-13.571l3.159-8.329a.416.416,0,0,0-.24-.535.414.414,0,0,0-.535.24l-3.159,8.329a18.664,18.664,0,0,0,.364,14.2l2.64,6.015A.414.414,0,0,0-1958.072-232.355Z" transform="translate(1962.683 277.943)" fill="#366642"/>
              <path id="Path_103310" data-name="Path 103310" d="M-1948.817-279.414h.022l21.274-1.116a.414.414,0,0,0,.392-.436.416.416,0,0,0-.435-.392l-21.275,1.116a.414.414,0,0,0-.392.435A.415.415,0,0,0-1948.817-279.414Z" transform="translate(1960.38 281.358)" fill="#366642"/>
            </g>
          </g>
        </g>
      </g>
    </g>
    <g id="Group_54953" data-name="Group 54953" transform="translate(-1885.107 -294.374)">
      <g id="Group_54945" data-name="Group 54945">
        <g id="Group_54944" data-name="Group 54944">
          <g id="Group_54943" data-name="Group 54943">
            <rect id="Rectangle_6264" data-name="Rectangle 6264" width="43.227" height="28.612" rx="2.288" fill="#fb6459"/>
          </g>
        </g>
      </g>
      <g id="Group_54948" data-name="Group 54948" transform="translate(28.799 24.327)">
        <g id="Group_54947" data-name="Group 54947">
          <g id="Group_54946" data-name="Group 54946">
            <path id="Path_103311" data-name="Path 103311" d="M-1759.762-238.656l-3.459,13.052-6.041-12.269Z" transform="translate(1769.261 238.656)" fill="#fb6459"/>
          </g>
        </g>
      </g>
      <g id="Group_54952" data-name="Group 54952" transform="translate(11.968 7.022)">
        <g id="Group_54951" data-name="Group 54951">
          <g id="Group_54950" data-name="Group 54950">
            <g id="Group_54949" data-name="Group 54949">
              <path id="Path_103312" data-name="Path 103312" d="M-1770.351-254.366c-.773,4.891-9.9,11.011-9.9,11.011s-8.786-6.131-9.285-11.024c-.541-5.3,5.738-6.925,9.675-2.925C-1775.7-261.3-1769.511-259.669-1770.351-254.366Z" transform="translate(1789.57 259.535)" fill="#fff"/>
            </g>
          </g>
        </g>
      </g>
    </g>
    <g id="freepik--Tool--inject-69" transform="translate(-1926.109 -256.158)">
      <g id="Group_54954" data-name="Group 54954" transform="translate(5.059 31.147)">
        <path id="Path_103313" data-name="Path 103313" d="M-1847.1-169.634a.275.275,0,0,0,.273-.246,58.569,58.569,0,0,1,3.276-14.067.274.274,0,0,0-.162-.352.275.275,0,0,0-.352.162,59.079,59.079,0,0,0-3.307,14.2.273.273,0,0,0,.244.3Z" transform="translate(1847.377 184.316)" fill="#ffc94a"/>
      </g>
      <g id="Group_54955" data-name="Group 54955" transform="translate(21.87 9.909)">
        <path id="Path_103314" data-name="Path 103314" d="M-1826.819-209.323a.272.272,0,0,0,.22-.111.3.3,0,0,0,.046-.4.259.259,0,0,0-.372-.047.755.755,0,0,0-.114.122.276.276,0,0,0,.056.385A.272.272,0,0,0-1826.819-209.323Z" transform="translate(1827.093 209.942)" fill="#ffc94a"/>
      </g>
      <g id="Group_54956" data-name="Group 54956" transform="translate(23.489 1.124)">
        <path id="Path_103315" data-name="Path 103315" d="M-1824.866-212.664a.274.274,0,0,0,.185-.071c.244-.222.488-.434.733-.641,5.913-5.08,10.524-6.328,12.747-6.62a.274.274,0,0,0,.236-.307.273.273,0,0,0-.307-.236c-2.283.3-7.012,1.576-13.031,6.746-.248.21-.5.426-.747.653a.273.273,0,0,0-.018.387A.272.272,0,0,0-1824.866-212.664Z" transform="translate(1825.14 220.542)" fill="#ffc94a"/>
      </g>
      <g id="Group_54957" data-name="Group 54957" transform="translate(37.068)">
        <path id="Path_103316" data-name="Path 103316" d="M-1807.368-219.543l-1.233-.6a.268.268,0,0,1-.139-.157.271.271,0,0,1,.013-.21l.6-1.232a.276.276,0,0,1,.367-.126l1.232.6a.273.273,0,0,1,.125.366l-.6,1.232a.269.269,0,0,1-.157.139.273.273,0,0,1-.089.015A.274.274,0,0,1-1807.368-219.543Zm-.385-1.715-.361.74.74.361.36-.74Z" transform="translate(1808.755 221.898)" fill="#ffc94a"/>
      </g>
      <g id="Group_54958" data-name="Group 54958" transform="translate(4.085 45.103)">
        <path id="Path_103317" data-name="Path 103317" d="M-1847.166-165.124l-1.232-.6a.275.275,0,0,1-.139-.157.275.275,0,0,1,.013-.21l.6-1.232a.274.274,0,0,1,.366-.126l1.232.6a.274.274,0,0,1,.126.367l-.6,1.232a.273.273,0,0,1-.246.154A.278.278,0,0,1-1847.166-165.124Zm-.384-1.714-.361.739.74.361.36-.739Z" transform="translate(1848.553 167.479)" fill="#ffc94a"/>
      </g>
      <g id="Group_54959" data-name="Group 54959" transform="translate(14.666 9.848)">
        <path id="Path_103318" data-name="Path 103318" d="M-1828.233-209.685l.373.384-6.479,6.458-.741.747a.509.509,0,0,1-.23-.143.492.492,0,0,1-.143-.241l.729-.735Z" transform="translate(1835.729 209.959)" fill="#ffc94a"/>
        <path id="Path_103319" data-name="Path 103319" d="M-1835.138-201.879a.277.277,0,0,0,.195-.081l.74-.747,6.479-6.456a.274.274,0,0,0,0-.385l-.373-.385a.274.274,0,0,0-.195-.083.265.265,0,0,0-.2.08l-6.49,6.469h0l-.729.735a.274.274,0,0,0-.071.261.773.773,0,0,0,.221.374.756.756,0,0,0,.341.206A.27.27,0,0,0-1835.138-201.879Z" transform="translate(1835.785 210.016)" fill="#ffc94a"/>
      </g>
      <g id="Group_54960" data-name="Group 54960" transform="translate(14.293 16.23)">
        <path id="Path_103320" data-name="Path 103320" d="M-1834.884-201.947a.7.7,0,0,1,.323.191.774.774,0,0,1,.192.313.8.8,0,0,1-.192.811.793.793,0,0,1-.806.186.831.831,0,0,1-.313-.186.709.709,0,0,1-.186-.329.773.773,0,0,1,.192-.79A.778.778,0,0,1-1834.884-201.947Z" transform="translate(1836.179 202.259)" fill="#ffc94a"/>
        <path id="Path_103321" data-name="Path 103321" d="M-1835.509-200.24a1.126,1.126,0,0,1-.422-.254.962.962,0,0,1-.253-.438,1.042,1.042,0,0,1,.259-1.069,1.044,1.044,0,0,1,1.056-.269.964.964,0,0,1,.446.263,1.058,1.058,0,0,1,.259.422,1.074,1.074,0,0,1-.261,1.093,1.07,1.07,0,0,1-.747.306A1.084,1.084,0,0,1-1835.509-200.24Zm-.026-1.374,0,0a.507.507,0,0,0-.118.529.428.428,0,0,0,.109.2.554.554,0,0,0,.211.125.517.517,0,0,0,.525-.118.527.527,0,0,0,.126-.535.516.516,0,0,0-.129-.207.429.429,0,0,0-.208-.12.5.5,0,0,0-.153-.023A.5.5,0,0,0-1835.535-201.614Z" transform="translate(1836.236 202.316)" fill="#ffc94a"/>
      </g>
      <g id="Group_54961" data-name="Group 54961" transform="translate(23.577 2.15)">
        <path id="Path_103322" data-name="Path 103322" d="M-1824.76-212.452a.271.271,0,0,0,.192-.08l6.359-6.3a.275.275,0,0,0,0-.388.274.274,0,0,0-.388,0l-6.36,6.3a.275.275,0,0,0,0,.388A.272.272,0,0,0-1824.76-212.452Z" transform="translate(1825.034 219.304)" fill="#ffc94a"/>
      </g>
      <g id="Group_54962" data-name="Group 54962" transform="translate(29.758 1.096)">
        <path id="Path_103323" data-name="Path 103323" d="M-1817.06-218.879a.891.891,0,0,1-.433-1.18l.005-.011a.89.89,0,0,1,1.186-.418.893.893,0,0,1,.423,1.175.891.891,0,0,1-.808.516A.888.888,0,0,1-1817.06-218.879Zm.07-.961,0,.007,0,0a.337.337,0,0,0-.011.26.34.34,0,0,0,.177.191.337.337,0,0,0,.26.011.339.339,0,0,0,.192-.177.342.342,0,0,0-.162-.45.347.347,0,0,0-.147-.033A.335.335,0,0,0-1816.991-219.84Z" transform="translate(1817.576 220.575)" fill="#ffc94a"/>
      </g>
      <g id="Group_54963" data-name="Group 54963" transform="translate(21.86 8.454)">
        <path id="Path_103324" data-name="Path 103324" d="M-1826.572-209.4l-.449-.466a.268.268,0,0,1-.074-.185l-.011-1.372a.271.271,0,0,1,.08-.2.277.277,0,0,1,.195-.081h1.827a.275.275,0,0,1,.274.274l.006,1.822a.274.274,0,0,1-.273.275l-1.377.012h0A.274.274,0,0,1-1826.572-209.4Zm1.294-1.75h-1.277l.008.989.286.3.988-.008Z" transform="translate(1827.106 211.698)" fill="#ffc94a"/>
      </g>
      <g id="Group_54964" data-name="Group 54964" transform="translate(21.87 9.404)">
        <path id="Path_103325" data-name="Path 103325" d="M-1827.094-209.12h1.373l-1.373-1.431Z" transform="translate(1827.094 210.551)" fill="#ffc94a"/>
      </g>
      <g id="Group_54965" data-name="Group 54965" transform="translate(7.144 9.041)">
        <path id="Path_103326" data-name="Path 103326" d="M-1839.426-194.835l-5.356-5.366a.274.274,0,0,1-.062-.291l2.3-6.068a.272.272,0,0,1,.163-.16l11.632-4.253a.276.276,0,0,1,.289.064l1.778,1.789a.272.272,0,0,1,.063.288l-4.291,11.615a.27.27,0,0,1-.161.162l-6.068,2.283a.257.257,0,0,1-.1.018A.271.271,0,0,1-1839.426-194.835Zm10.235-14.022-1.53-1.54-11.349,4.149-2.2,5.786,5.1,5.115,5.786-2.176Z" transform="translate(1844.861 210.989)" fill="#ffc94a"/>
      </g>
      <g id="Group_54966" data-name="Group 54966" transform="translate(0 19.362)">
        <path id="Path_103327" data-name="Path 103327" d="M-1845.226-186.026l-8.175-8.192a.273.273,0,0,1-.078-.233.278.278,0,0,1,.142-.2l7.143-3.851a.274.274,0,0,1,.325.048l5.356,5.371a.275.275,0,0,1,.036.343l-4.324,6.671a.274.274,0,0,1-.2.123.161.161,0,0,1-.028,0A.271.271,0,0,1-1845.226-186.026Zm-.888-11.9-6.639,3.58,7.675,7.691,4.018-6.2Z" transform="translate(1853.481 198.537)" fill="#ffc94a"/>
      </g>
      <g id="Group_54967" data-name="Group 54967" transform="translate(3.462 20.81)">
        <path id="Path_103328" data-name="Path 103328" d="M-1842.66-192.932a.273.273,0,0,0,.194-.08.274.274,0,0,0,0-.388l-3.3-3.309a.273.273,0,0,0-.323-.048l-3.073,1.641a.274.274,0,0,0-.113.37.274.274,0,0,0,.371.113l2.893-1.545,3.154,3.165A.272.272,0,0,0-1842.66-192.932Z" transform="translate(1849.304 196.79)" fill="#ffc94a"/>
      </g>
      <g id="Group_54968" data-name="Group 54968" transform="translate(10.529 24.816)">
        <path id="Path_103329" data-name="Path 103329" d="M-1840.174-191.073a.271.271,0,0,0,.192-.08.274.274,0,0,0,0-.388l-.329-.335a.275.275,0,0,0-.388,0,.274.274,0,0,0,0,.388l.329.335A.274.274,0,0,0-1840.174-191.073Z" transform="translate(1840.777 191.956)" fill="#ffc94a"/>
      </g>
    </g>
  </g>
</svg>
