<?xml version="1.0" encoding="utf-8"?>
<!-- Generator: Adobe Illustrator 25.3.1, SVG Export Plug-In . SVG Version: 6.00 Build 0)  -->
<svg version="1.1" id="Layer_1" xmlns="http://www.w3.org/2000/svg" xmlns:xlink="http://www.w3.org/1999/xlink" x="0px" y="0px"
	 viewBox="0 0 100 100" style="enable-background:new 0 0 100 100;" xml:space="preserve">
<style type="text/css">
	.st0{fill:none;stroke:#57CC99;stroke-width:3.84;}
</style>
<g transform="translate(1 1)">
	<path class="st0" d="M33,97c8.8,0,16-7.2,16-16V65H33c-8.8,0-16,7.2-16,16S24.2,97,33,97L33,97z"/>
	<path class="st0" d="M17,49c0-8.8,7.2-16,16-16h16v32H33C24.2,65,17,57.8,17,49z"/>
	<path class="st0" d="M17,17c0-8.8,7.2-16,16-16h16v32H33C24.2,33,17,25.8,17,17z"/>
	<path class="st0" d="M49,1h16c8.8,0,16,7.2,16,16s-7.2,16-16,16H49V1z"/>
	<path class="st0" d="M81,49c0,8.8-7.2,16-16,16s-16-7.2-16-16c0-8.8,7.2-16,16-16C73.8,33,81,40.2,81,49z"/>
</g>
</svg>
