<?xml version="1.0" encoding="utf-8"?>
<!-- Generator: Adobe Illustrator 25.3.1, SVG Export Plug-In . SVG Version: 6.00 Build 0)  -->
<svg version="1.1" id="Layer_1" xmlns="http://www.w3.org/2000/svg" xmlns:xlink="http://www.w3.org/1999/xlink" x="0px" y="0px"
	 viewBox="0 0 100 100" style="enable-background:new 0 0 100 100;" xml:space="preserve">
<style type="text/css">
	.st0{fill:#57CC99;}
	.st1{fill:#80ED99;}
</style>
<g transform="translate(-3408.042 1142.077)">
	<path class="st0" d="M3440.4-1104.1c-0.9-0.4-1.9-0.5-2.9-0.4c1.5,0.3,2.5,1.6,2.5,3c0,1.7-1.4,3.1-3.1,3.1c0,0,0,0,0,0
		c-1.7,0-3.1-1.4-3.1-3.1c0-0.3,0.1-0.7,0.2-1c-0.3,0.3-0.5,0.7-0.7,1.1c-1.2,2.7,0.1,5.9,2.8,7l0,0c2.7,1.2,5.9-0.1,7-2.8
		c0,0,0,0,0,0C3444.4-1099.8,3443.2-1102.9,3440.4-1104.1z"/>
	<path class="st1" d="M3440.1-1101.7c0,0.1,0,0.2,0,0.3c0,1.7-1.4,3.1-3.1,3.1c-0.6,0-1.2-0.2-1.7-0.5c0.1,1.6,1.5,2.8,3.1,2.8
		c1.7,0,3.1-1.4,3.1-3.1c0,0,0,0,0,0C3441.4-1100.2,3440.9-1101.1,3440.1-1101.7z"/>
	<path class="st0" d="M3457.1-1104.2c-0.6,0-1.3,0.1-1.9,0.3c1.9,0,3.4,1.6,3.4,3.5l0,0c0,1.9-1.6,3.5-3.5,3.5c0,0,0,0,0,0
		c-1.9,0-3.5-1.6-3.5-3.5c0-0.2,0-0.4,0.1-0.6c-0.5,0.9-0.8,1.9-0.8,3c0,3.4,2.8,6.2,6.2,6.2s6.2-2.8,6.2-6.2
		C3463.3-1101.4,3460.5-1104.2,3457.1-1104.2C3457.1-1104.2,3457.1-1104.2,3457.1-1104.2z"/>
	<path class="st0" d="M3505.3-1063.3c-0.4-2.4-3.4-7.6-7.3-6.9c-0.9,0.1-1.7,0.5-2.5,1c-2.3-1.6-4.6-3.1-7.1-4.5
		c-0.1-0.6-0.2-1.2-0.4-1.8c-0.4,0.3-0.8,0.5-1.1,0.9c-1.6-1.1-3.3-2.1-5-2.8c3.8-4.4,7.1-10.8,8.2-20.5c2.6-21.8-0.7-30.3-0.8-30.7
		c-0.2-0.5-0.6-0.8-1.1-0.8c-0.5,0-1,0.3-1.2,0.7c-5.4,11.9-16,17.8-25.9,19.9c-1.9-1.4-4.2-2.1-6.6-2.1c-2.5,0-5,0.9-7,2.4
		c-7.1-1.2-13.4-5.4-17.3-11.5l-2.7-4.8l0.3,5.5c0.3,4.6,0.3,9.2,0,13.8c-0.8,1.5-1.3,3.1-1.3,4.8c0,0.1,0,0.3,0,0.4
		c-4.8-4.8-11.3-6.3-15.4-3.2c-4.6,3.5-4.4,11.5,0.4,17.9c3.7,4.9,9.2,7.4,13.6,6.7c9.2,7.3,20.5,11.2,32.2,11.4
		c4.7,0.1,9.4-0.6,13.8-2.2c1.6-0.7,3.1-1.6,4.5-2.5c2.7,1.4,5.4,2.8,8.2,3.9c0,0.4,0.1,0.8,0.2,1.2c0.5-0.2,1-0.4,1.4-0.8
		c2.5,1.1,5.1,2,7.8,2.7c0,0.2,0,0.5,0,0.7c0,0.2,0,0.3,0.1,0.5c0.5,2.6,2.1,4.1,7.7,6c2.4,0.6,4.7,1.6,6.8,3
		C3507-1057.6,3506.1-1060.4,3505.3-1063.3z M3419.7-1096.4c-0.5,2.2-2.6,3.5-4.8,3l0,0c-2.2-0.5-3.5-2.6-3-4.8
		c0.4-1.9,2.2-3.2,4.1-3.1C3418.4-1100.9,3420-1098.7,3419.7-1096.4L3419.7-1096.4z M3454.6-1108.9c5.2,0,9.4,4.2,9.4,9.4
		c0,5.2-4.2,9.4-9.4,9.4c-5.2,0-9.4-4.2-9.4-9.4C3445.2-1104.7,3449.4-1108.9,3454.6-1108.9
		C3454.6-1108.9,3454.6-1108.9,3454.6-1108.9L3454.6-1108.9z M3445.5-1106.3c-0.1,0.1-0.2,0.3-0.3,0.4c-0.1-0.2-0.3-0.4-0.4-0.6
		C3445-1106.4,3445.3-1106.3,3445.5-1106.3L3445.5-1106.3z M3430.7-1115.3c1.6,1.8,3.4,3.4,5.4,4.7c-2,0.1-3.8,0.8-5.4,2
		C3430.8-1110.6,3430.8-1112.9,3430.7-1115.3L3430.7-1115.3z M3436.7-1108.6c4.4,0,8,3.6,8,8l0,0c0,4.4-3.6,8-8,8l0,0
		c-4.4,0-8-3.6-8-8l0,0C3428.7-1105,3432.3-1108.6,3436.7-1108.6L3436.7-1108.6z M3473-1081.3l-0.7-0.3c-0.3-4.4-7.8-6.4-7.8-6.4
		c1.1,0.9,2.1,1.9,2.8,3.1c-8.1,6.1-22.2,3.5-22.2,3.5c9,4.5,15.7,3.4,19.8,1.8c0.1,0.4,0.3,0.9,0.6,1.2c2.5,1.8,5.1,3.3,7.8,4.7
		l0.2,0.1c-1,0.6-2.1,1.1-3.1,1.6c-4.1,1.4-8.4,2.1-12.7,2c-10.6-0.1-20.9-3.6-29.4-9.9c0.3-0.1,0.5-0.3,0.7-0.5
		c3.2-2.4,4.1-7,2.7-11.7c1.5,0.9,3.3,1.4,5.1,1.4c3,0,5.9-1.4,7.8-3.8c1.9,3.8,5.8,6.2,10.1,6.2c6.3,0,11.3-5.1,11.3-11.3v0
		c0-2.6-0.9-5.1-2.6-7.2c10.3-2.3,19.1-8.8,24.5-17.9c0.7,4.1,1.5,12.5-0.1,26.4l0,0c-1.1,9.6-4.3,15.6-8.1,19.7
		C3477.9-1079.3,3475.7-1080.2,3473-1081.3L3473-1081.3z"/>
	<path class="st1" d="M3458.5-1101.4c0.1,0.3,0.2,0.7,0.2,1l0,0c0,1.9-1.6,3.5-3.5,3.5c-0.5,0-1-0.1-1.4-0.3
		c0.4,1.6,1.8,2.8,3.5,2.8c2,0,3.6-1.6,3.6-3.6C3460.8-1099.5,3459.9-1100.9,3458.5-1101.4z"/>
</g>
</svg>
