<svg xmlns="http://www.w3.org/2000/svg" width="505" height="417.819" viewBox="0 0 505 417.819"><defs><style>.a{fill:#f5f5f5;}.b{fill:#c7ffd3;}.c{opacity:0.1;}.c,.d,.e,.g,.h,.q,.r,.t{isolation:isolate;}.d,.h{opacity:0.2;}.e,.g,.h,.i,.q,.r,.t{fill:#fff;}.e{opacity:0.4;}.f{fill:#ffc94a;}.g{opacity:0.6;}.j{fill:#133347;}.k{fill:#d6ffdf;}.l{fill:#407bff;}.m{fill:#57cc99;}.n{fill:#80ed99;}.o{fill:#22577a;}.p{fill:#ffde91;}.q,.s{opacity:0.8;}.r{opacity:0.7;}.t{opacity:0.9;}.u{fill:#e4897b;}.v{fill:#263238;}.w{fill:#ebb376;}.x{fill:#de5753;}</style></defs><g transform="translate(-548.672 -805.229)"><g transform="translate(548.672 805.229)"><g transform="translate(0 387.484)"><ellipse class="a" cx="232.577" cy="13.579" rx="232.577" ry="13.579"/></g><g transform="translate(139.542 54.973)"><path class="b" d="M3829.548-1993.9v200.8a8.457,8.457,0,0,1-8.457,8.457H3536.8a8.469,8.469,0,0,1-8.469-8.457v-200.8a8.469,8.469,0,0,1,8.469-8.469h284.29A8.47,8.47,0,0,1,3829.548-1993.9Z" transform="translate(-3528.333 2002.368)"/><path class="c" d="M3829.544-1993.9v15.594H3528.353V-1993.9a8.469,8.469,0,0,1,8.469-8.469h284.289A8.47,8.47,0,0,1,3829.544-1993.9Z" transform="translate(-3528.329 2002.368)"/><path class="d" d="M3772.6-1990.888a4.462,4.462,0,0,1-4.45,4.475,4.46,4.46,0,0,1-4.474-4.45,4.462,4.462,0,0,1,4.45-4.474h.024A4.451,4.451,0,0,1,3772.6-1990.888Z" transform="translate(-3481.375 2003.771)"/><path class="d" d="M3759.1-1990.888a4.463,4.463,0,0,1-4.451,4.475,4.461,4.461,0,0,1-4.474-4.45,4.462,4.462,0,0,1,4.45-4.474h.024A4.451,4.451,0,0,1,3759.1-1990.888Z" transform="translate(-3484.069 2003.771)"/><path class="d" d="M3745.6-1990.888a4.462,4.462,0,0,1-4.45,4.475,4.461,4.461,0,0,1-4.475-4.45,4.463,4.463,0,0,1,4.451-4.474h.024A4.45,4.45,0,0,1,3745.6-1990.888Z" transform="translate(-3486.762 2003.771)"/><rect class="e" width="290.263" height="16.446" transform="translate(5.434 34.367)"/><rect class="e" width="290.155" height="142.337" transform="translate(5.542 55.97)"/></g><g transform="translate(171.569 169.469)"><rect class="d" width="105.911" height="115.43" transform="translate(0 2.538)"/><rect class="f" width="105.911" height="115.43" transform="translate(3.807 0)"/><path class="g" d="M3558.206-1906.918v115.431h105.911v-115.431Zm102.467,84.054h-99.024v-80.61h99.024Z" transform="translate(-3554.4 1906.918)"/><path class="h" d="M3561.091-1861.1l20.1-20.323,16.9,18.891,10.86-5.729,9.156,9.548,7.246-3.819,9.258,8.371H3660.1v26.2h-99.006Z" transform="translate(-3553.824 1912.006)"/><path class="h" d="M3627.059-1827.9h-65.981v-33.2l20.119-20.322,16.9,18.89,10.877-5.728,9.138,9.531,7.247-3.8,9.257,8.372s-30.178,5.115-29.887,14.186S3627.059-1827.9,3627.059-1827.9Z" transform="translate(-3553.827 1912.006)"/><circle class="g" cx="8.248" cy="8.248" r="8.248" transform="translate(79.264 15.757)"/><circle class="i" cx="9.517" cy="9.517" r="9.517" transform="translate(6.937 90.622)"/><circle class="f" cx="3.063" cy="3.063" r="3.063" transform="translate(13.391 94.691)"/><path class="f" d="M3569.911-1814.5a9.16,9.16,0,0,0,6.979-3.221,7.958,7.958,0,0,0-6.979-4.13,7.956,7.956,0,0,0-6.979,4.13A9.159,9.159,0,0,0,3569.911-1814.5Z" transform="translate(-3553.457 1923.892)"/><g transform="translate(30.733 93.515)"><rect class="j" width="7.966" height="0.91" transform="translate(1.52)"/><rect class="j" width="17.251" height="0.91" transform="translate(13.391)"/><rect class="j" width="18.901" height="0.91" transform="translate(35.267)"/><rect class="j" width="19.891" height="0.91" transform="translate(0 6.882)"/><rect class="j" width="28.178" height="0.91" transform="translate(25.973 6.882)"/><rect class="j" width="7.055" height="0.91" transform="translate(0 13.765)"/><rect class="j" width="22.34" height="0.91" transform="translate(10.906 13.765)"/></g></g><g transform="translate(10.533 70.869)"><rect class="d" width="148.871" height="98.034" transform="translate(6.58 7.664)"/><rect class="k" width="148.871" height="98.034"/><rect class="i" width="71.377" height="60.926" rx="3.786" transform="translate(9.264 7.393)"/><rect class="l" width="65.92" height="55.468" rx="1.42" transform="translate(11.987 10.129)"/><rect class="m" width="65.92" height="55.468" rx="1.42" transform="translate(11.987 10.129)"/><path class="n" d="M3447.989-1958.955l-17.211,26.515v1.226a1.7,1.7,0,0,0,1.7,1.69h34.644Z" transform="translate(-3418.79 1995.135)"/><path class="l" d="M3492.32-1935.256l-17.754-30.863-21.857,38h37.908a1.7,1.7,0,0,0,1.7-1.69Z" transform="translate(-3414.414 1993.705)"/><path class="b" d="M3492.32-1935.256l-17.754-30.863-21.857,38h37.908a1.7,1.7,0,0,0,1.7-1.69Z" transform="translate(-3414.414 1993.705)"/><path class="b" d="M3463.441-1969.078a4.45,4.45,0,0,1-4.451,4.45,4.451,4.451,0,0,1-4.452-4.45,4.451,4.451,0,0,1,4.452-4.451H3459a4.438,4.438,0,0,1,4.439,4.438Z" transform="translate(-3414.049 1992.226)"/><rect class="o" width="8.296" height="1.29" transform="translate(95.325 8.348)"/><rect class="o" width="17.986" height="1.29" transform="translate(107.698 8.348)"/><rect class="o" width="7.058" height="1.29" transform="translate(130.51 8.348)"/><rect class="o" width="27.767" height="1.29" transform="translate(86.706 19.896)"/><rect class="o" width="14.825" height="1.29" transform="translate(120.821 19.896)"/><rect class="o" width="12.128" height="1.29" transform="translate(88.951 31.444)"/><rect class="o" width="23.302" height="1.29" transform="translate(105.118 31.444)"/><rect class="o" width="4.89" height="1.29" transform="translate(132.691 31.444)"/><rect class="o" width="27.767" height="1.29" transform="translate(86.706 42.979)"/><rect class="o" width="15.935" height="1.29" transform="translate(119.698 42.979)"/><rect class="o" width="8.296" height="1.29" transform="translate(95.325 54.527)"/><rect class="o" width="17.986" height="1.29" transform="translate(107.698 54.527)"/><rect class="o" width="7.058" height="1.29" transform="translate(130.51 54.527)"/><rect class="o" width="27.767" height="1.29" transform="translate(86.706 66.074)"/><rect class="o" width="14.309" height="1.29" transform="translate(120.821 66.074)"/><rect class="o" width="41.817" height="1.29" transform="translate(11.316 76.539)"/><rect class="o" width="44.488" height="1.29" transform="translate(63.223 76.539)"/><rect class="o" width="17.457" height="1.29" transform="translate(119.621 76.539)"/><rect class="o" width="11.651" height="1.29" transform="translate(11.316 88.074)"/><rect class="o" width="31.224" height="1.29" transform="translate(31.457 88.074)"/><rect class="o" width="17.238" height="1.29" transform="translate(69.468 88.074)"/><rect class="o" width="18.838" height="1.29" transform="translate(95.647 88.074)"/><rect class="o" width="14.709" height="1.29" transform="translate(122.369 88.074)"/></g><g transform="translate(304.678 233.929)"><path class="d" d="M3720.44-1822.7l.1,56.02a1.311,1.311,0,0,1-1.3,1.311l-51.8.093a1.3,1.3,0,0,1-1.3-1.3h0l-.139-72.869a1.3,1.3,0,0,1,1.3-1.3h0l34.9-.064Z" transform="translate(-3666 1855.647)"/><path class="p" d="M3723.573-1825.914l.1,56.019a1.3,1.3,0,0,1-1.3,1.3h0l-51.8.092a1.313,1.313,0,0,1-1.312-1.3l-.129-72.86a1.312,1.312,0,0,1,1.3-1.312l34.9-.065Z" transform="translate(-3665.374 1855.004)"/><path class="l" d="M3699.339-1844.069v16.9a1.3,1.3,0,0,0,1.3,1.3l.066,0h16.85Z" transform="translate(-3659.348 1854.998)"/><path class="q" d="M3699.339-1844.069v16.9a1.3,1.3,0,0,0,1.3,1.3l.066,0h16.85Z" transform="translate(-3659.348 1854.998)"/><path class="d" d="M3724.346-1838.329v63.816l-46.477.083a1.3,1.3,0,0,1-1.3-1.3h0l-.138-72.869a1.294,1.294,0,0,1,1.284-1.3h.02l34.938-.065Z" transform="translate(-3663.919 1853.821)"/><path class="p" d="M3733.97-1835.046l.1,56.02a1.312,1.312,0,0,1-1.3,1.311l-51.8.092a1.312,1.312,0,0,1-1.312-1.3l-.129-72.869a1.3,1.3,0,0,1,1.3-1.3h0l34.911-.083Z" transform="translate(-3663.301 1853.18)"/><path class="f" d="M3709.721-1853.18v16.9a1.3,1.3,0,0,0,1.3,1.3h16.851Z" transform="translate(-3657.276 1853.18)"/><rect class="j" width="8.083" height="0.924" transform="translate(24.61 28.416)"/><rect class="j" width="17.506" height="0.924" transform="translate(36.656 28.416)"/><rect class="j" width="5.016" height="0.924" transform="translate(58.855 28.416)"/><rect class="j" width="20.185" height="0.924" transform="translate(23.067 35.4)"/><rect class="j" width="14.43" height="0.924" transform="translate(49.423 35.4)"/><rect class="j" width="7.159" height="0.924" transform="translate(23.067 42.384)"/><rect class="j" width="22.67" height="0.924" transform="translate(34.135 42.384)"/><rect class="j" width="2.901" height="0.924" transform="translate(60.971 42.384)"/><rect class="j" width="20.185" height="0.924" transform="translate(23.067 49.368)"/><rect class="j" width="15.511" height="0.924" transform="translate(48.342 49.368)"/><rect class="j" width="8.083" height="0.924" transform="translate(24.61 56.352)"/><rect class="j" width="17.506" height="0.924" transform="translate(36.656 56.352)"/><rect class="j" width="5.016" height="0.924" transform="translate(58.855 56.352)"/><rect class="j" width="20.185" height="0.924" transform="translate(23.067 63.336)"/><rect class="j" width="13.931" height="0.924" transform="translate(49.423 63.345)"/></g><g transform="translate(184.724)"><rect class="d" width="167.276" height="138.219" transform="translate(0 4.093)"/><rect class="m" width="167.276" height="138.219" transform="translate(5.457)"/><path class="r" d="M3570.549-2048.2v138.218h167.276V-2048.2Zm161.819,132.762H3576.006v-127.305h156.362Z" transform="translate(-3565.092 2048.197)"/><path class="f" d="M3575.1-1963.168l47.951-34.841,35.619,34.841,35.619-20.381,37.173,22.9v35.2H3575.1Z" transform="translate(-3564.185 2058.211)"/><path class="f" d="M3673.075-2015.562a11.459,11.459,0,0,1-11.459,11.459,11.459,11.459,0,0,1-11.459-11.459,11.459,11.459,0,0,1,11.459-11.459h0A11.459,11.459,0,0,1,3673.075-2015.562Z" transform="translate(-3549.209 2052.423)"/></g><g transform="translate(317.936 84.903)"><rect class="d" width="180.574" height="128.252" rx="4.748" transform="translate(0 8.995)"/><rect class="n" width="180.574" height="128.252" rx="4.748" transform="translate(6.49)"/><rect class="l" width="171.983" height="119.677" rx="1.181" transform="translate(10.785 4.295)"/><rect class="j" width="171.983" height="119.677" rx="1.181" transform="translate(10.785 4.295)"/><path class="n" d="M3783.62-1920.284a22.146,22.146,0,0,1-22.13,22.161,22.146,22.146,0,0,1-22.162-22.13,22.148,22.148,0,0,1,22.131-22.161h.016A22.146,22.146,0,0,1,3783.62-1920.284Z" transform="translate(-3664.627 1984.402)"/><path class="j" d="M3770.293-1922.088l-17.446,11.3v-22.581Z" transform="translate(-3661.93 1986.206)"/><rect class="q" width="141.776" height="1.198" transform="translate(19.173 105.484)"/><path class="f" d="M3747.879-1888.728a1.556,1.556,0,0,1-1.556,1.557h-54.065a1.557,1.557,0,0,1-1.556-1.557h0a1.557,1.557,0,0,1,1.556-1.556h54.019a1.556,1.556,0,0,1,1.556,1.556Z" transform="translate(-3674.33 1994.803)"/><g class="s" transform="translate(93.392 112.051)"><path class="t" d="M3754.91-1877.266l5.213-3.362-5.213-3.377Z" transform="translate(-3754.91 1884.005)"/><path class="t" d="M3759.256-1883.706v6.023h1.4v-6.023Z" transform="translate(-3754.043 1884.064)"/></g><g class="s" transform="translate(105.39 112.409)"><rect class="t" width="1.821" height="6.023"/><rect class="t" width="1.821" height="6.023" transform="translate(3.237)"/></g><path class="q" d="M3751.535-1880.628l-5.214,3.362v-6.739Z" transform="translate(-3663.232 1996.056)"/></g><g transform="translate(25.701 163.845)"><path class="u" d="M3542.018-1869.894l8.972-6.968s.479-3.962,2.438-5.144,10-4.351,11.961-4.2,2.528,7.657,1.975,8.883-12.246,4.649-12.246,4.649L3544.305-1862Z" transform="translate(-3411.761 1916.673)"/><path class="l" d="M3486.274-1847.638c13.458-3.349,34.511-6.967,42.733-11.215s21.458-14.234,24-14.8c0,0,4.935,3.423,6.52,6.3,0,0-11.693,15.221-28.8,23.325s-39.7,14.475-39.7,14.475Z" transform="translate(-3422.884 1919.178)"/><path class="b" d="M3559.526-1867.378s-11.693,15.237-28.8,23.341c-5.8,2.737-12.246,5.309-18.227,7.477-11.618,4.232-21.471,7.012-21.471,7.012l-2.512-9.54-2.243-8.537c13.458-3.365,34.511-6.968,42.719-11.214s21.472-14.235,24.013-14.8C3553.006-1873.657,3557.956-1870.234,3559.526-1867.378Z" transform="translate(-3422.884 1919.181)"/><path class="n" d="M3541.906-1873.145l3.8-2.99,6.235,5.338-3.514,3.932Z" transform="translate(-3411.785 1918.683)"/><path class="d" d="M3512.128-1842.314c-11.619,4.231-21.472,7.012-21.472,7.012l-2.512-9.54A89.613,89.613,0,0,1,3512.128-1842.314Z" transform="translate(-3422.511 1924.92)"/><path class="v" d="M3500.592-1783.27l7.191,21.876c22.175-5.159,79.787-16,88.519,8.388,10.841,30.293-67.54,54.457-110.931,55.937s-66.284-22.623-38.877-85.857Z" transform="translate(-3433.195 1937.213)"/><path class="o" d="M3500.592-1783.27l7.191,21.876c22.175-5.159,79.787-16,88.519,8.388,10.841,30.293-67.54,54.457-110.931,55.937s-66.284-22.623-38.877-85.857Z" transform="translate(-3433.195 1937.213)"/><path class="j" d="M3559-1721.443a.273.273,0,0,1-.331,0,.227.227,0,0,1,0-.284c.15-.479,1.586-4.649,2.991-5.083a.894.894,0,0,1,.867.254,1.493,1.493,0,0,1,.509,1.39,3.694,3.694,0,0,1-1.376,1.945A14.882,14.882,0,0,1,3559-1721.443Zm.373-.793a6.207,6.207,0,0,0,3.081-2.991.928.928,0,0,0-.359-.956.313.313,0,0,0-.344-.105.915.915,0,0,0-.329.194A11.966,11.966,0,0,0,3559.37-1722.235Z" transform="translate(-3408.449 1948.473)"/><path class="j" d="M3559.211-1721.337a.268.268,0,0,1-.27-.074c-.135-.12-2.138-2.647-1.81-4.352a1.6,1.6,0,0,1,.7-1.046.927.927,0,0,1,1.151-.105c1.046.733.928,4.112.4,5.4v.134A.246.246,0,0,1,3559.211-1721.337Zm-1.137-4.949a1.015,1.015,0,0,0-.343.6,5.82,5.82,0,0,0,1.346,3.484c.329-1.5.225-3.828-.39-4.246a.475.475,0,0,0-.507.074l-.105.09Z" transform="translate(-3408.753 1948.428)"/><path class="j" d="M3495.648-1716.321a.251.251,0,0,1,.283-.134.224.224,0,0,1,.21.194c.1.493.867,4.829-.194,5.981a.869.869,0,0,1-.882.194,1.5,1.5,0,0,1-1.122-.972,3.838,3.838,0,0,1,.24-2.377A15.783,15.783,0,0,1,3495.648-1716.321Zm0,.882a6.131,6.131,0,0,0-1.257,4.1.928.928,0,0,0,.778.657.312.312,0,0,0,.343-.074.955.955,0,0,0,.209-.328,12.151,12.151,0,0,0-.016-4.426Z" transform="translate(-3421.372 1950.544)"/><path class="w" d="M3523.415-1734.706l-17.838,6.355-8.583,3.05,2.2,9.375,8.313-1.764,20.275-4.321Z" transform="translate(-3420.745 1946.903)"/><path class="f" d="M3504.018-1716.675l-1.495-11.064a1.091,1.091,0,0,0-1.216-.95l-.055.007-5.458.913s-7.476.688-8.972,2.6c-4.307,5.562-1.614,30.129,1.256,31,1.062.314,2.169-1.136,2.632-2.123,1.5-3.17,4.007-11.453,5.249-14.071,1.495-3.065,5.457-4.575,7.251-5.114A1.09,1.09,0,0,0,3504.018-1716.675Z" transform="translate(-3423.224 1948.102)"/><path class="j" d="M3495.4-1716.474a.239.239,0,0,1,.269,0c.18,0,3.155,1.286,3.693,2.991a1.6,1.6,0,0,1-.1,1.256.928.928,0,0,1-.958.657c-1.27-.149-2.8-3.169-2.99-4.485v-.12A.24.24,0,0,1,3495.4-1716.474Zm3.394,3.782a.986.986,0,0,0,0-.687c-.343-1.047-2-1.989-2.855-2.392.4,1.42,1.645,3.439,2.393,3.513a.5.5,0,0,0,.4-.314v-.12Z" transform="translate(-3421.085 1950.533)"/><path class="d" d="M3521.988-1734.706l-17.838,6.355,1.929,10.661,20.275-4.321Z" transform="translate(-3419.318 1946.903)"/><path class="l" d="M3509.074-1716.311l5.128.374-3.424-17.659-5.832,3.215Z" transform="translate(-3419.159 1947.125)"/><path class="g" d="M3509.074-1716.311l5.128.374-3.424-17.659-5.832,3.215Z" transform="translate(-3419.159 1947.125)"/><path class="d" d="M3446.323-1776.389l26.72,29.636s29.562-.659,65.446,16.9c0,0,38.519-15.91,42.062-29.128s-80.847-3.872-80.847-3.872Z" transform="translate(-3430.856 1938.586)"/><path class="l" d="M3442.083-1834.093c4.769,14.323,4.993,46.7,3.3,64.579l54.083-.344c9.3-35.677,6.159-60.707,5.368-69.065-.987-10.167-2.557-10.556-2.557-10.556s-11.035-1.078-20.634-1a157.465,157.465,0,0,0-22.159,2.408,147.949,147.949,0,0,0-16.149,3.633,4.29,4.29,0,0,0-2.953,5.3c.02.072.043.144.067.215C3441.021-1837.324,3441.574-1835.679,3442.083-1834.093Z" transform="translate(-3432.073 1923.802)"/><path class="m" d="M3499.471-1769.871l-32.612.21-21.472.134a269.426,269.426,0,0,0-.434-50.046,76.87,76.87,0,0,0-2.87-14.533c-.509-1.586-1.062-3.23-1.631-4.905a4.292,4.292,0,0,1,2.67-5.449c.072-.025.144-.047.216-.068a148.169,148.169,0,0,1,16.149-3.558,157.364,157.364,0,0,1,22.159-2.333c9.6-.074,20.634,1,20.634,1s1.57.388,2.557,10.557C3505.63-1830.578,3508.771-1805.547,3499.471-1769.871Z" transform="translate(-3432.073 1923.814)"/><path class="f" d="M3479-1826.635c22.429-7.028,22.832,32.73-.449,38.248S3457.691-1819.937,3479-1826.635Z" transform="translate(-3427.72 1928.395)"/><path class="o" d="M3492.03-1824.572c4.052-.09-14.684,32.252-31.833,35.212,0,0,12.141,1.84,26.42-14.4s12.874-21.217,11.782-22.428S3492.03-1824.572,3492.03-1824.572Z" transform="translate(-3428.088 1928.59)"/><path class="o" d="M3470.554-1818.821l1.794,1.555,2.288-.613-.912,2.2,1.286,1.989-2.362-.194-1.51,1.839-.539-2.318-2.213-.852,2.033-1.226Z" transform="translate(-3426.454 1930.12)"/><path class="d" d="M3444.6-1774.659a269.424,269.424,0,0,0-.434-50.045c6.654,9.45,18.363,28.514,21.906,49.911Z" transform="translate(-3431.286 1928.946)"/><path class="u" d="M3473.9-1765.968s13.458,8.793,15.042,9.48,11.558,3.14,14.43,2.99-.972-9.121-3.439-10.287-11.289.434-11.289.434l-10.467-7.865Z" transform="translate(-3425.354 1939.618)"/><path class="v" d="M3566.277-1758.938v4.4c0,1.122-1.33,1.585-2.452,1.585h-87.771c-1.136,0-2.482-.463-2.482-1.585v-4.4Z" transform="translate(-3425.419 1942.068)"/><path class="e" d="M3566.277-1758.938v4.4c0,1.122-1.33,1.585-2.452,1.585h-87.771c-1.136,0-2.482-.463-2.482-1.585v-4.4Z" transform="translate(-3425.419 1942.068)"/><path class="d" d="M3561.3-1758.938v4.4c0,1.122-1.33,1.585-2.452,1.585h-57.9c-1.122,0-2.454-.463-2.454-1.585v-4.4Z" transform="translate(-3420.444 1942.068)"/><path class="v" d="M3575.27-1796.58l-10.467,47.4a3.559,3.559,0,0,1-3.394,2.692H3504.35a2.3,2.3,0,0,1-2.257-2.346,2.319,2.319,0,0,1,.1-.644l10.467-47.041a3.274,3.274,0,0,1,3.4-2.318h57.087C3574.641-1798.822,3575.614-1798.134,3575.27-1796.58Z" transform="translate(-3419.728 1934.105)"/><path class="e" d="M3574.949-1796.58l-10.467,47.4a3.559,3.559,0,0,1-3.394,2.692h-55.13a2.3,2.3,0,0,1-2.258-2.346,2.32,2.32,0,0,1,.1-.644l10.466-47.041a3.26,3.26,0,0,1,3.4-2.318h55.144C3574.321-1798.822,3575.293-1798.134,3574.949-1796.58Z" transform="translate(-3419.407 1934.105)"/><path class="d" d="M3541.625-1775.654h0c0,4.052-4.351,7.357-7.551,7.357s-5.068-3.3-4.171-7.357,4.082-7.222,7.207-7.342c-.912,4.052,1.046,7.342,4.216,7.342Z" transform="translate(-3414.224 1937.268)"/><path class="w" d="M3529.354-1715.579l18.69,3.08,8.987,1.48,2.616-9.286-8.119-2.467L3531.7-1728.8Z" transform="translate(-3414.289 1948.082)"/><path class="f" d="M3553.762-1720.944l-4.037,10.467a1.1,1.1,0,0,0,.564,1.459.739.739,0,0,0,.094.036l5.218,1.854s6.848,2.991,9.062,2.033c6.459-2.78,16-25.583,13.906-27.737-.778-.777-2.453,0-3.334.6-2.8,2.063-8.971,8.074-11.409,9.764-2.752,1.973-6.968,1.36-8.807.957A1.121,1.121,0,0,0,3553.762-1720.944Z" transform="translate(-3410.243 1947.212)"/><path class="d" d="M3529.354-1715.579l18.69,3.08,3.484-10.272L3531.7-1728.8Z" transform="translate(-3414.289 1948.082)"/><path class="j" d="M3566.357-1718.452s-76.256-42.855-102.528-41.629-30.084,24.4-19.244,38.877,30.891,18.077,30.891,18.077-13.636-19.273-11.663-24.7,9.689,2.153,9.689,2.153,47.952,15.475,89.893,19.034Z" transform="translate(-3432.333 1941.835)"/><path class="l" d="M3547.821-1725.884l-4.321-2.9-5.532,17.031h6.654Z" transform="translate(-3412.57 1948.085)"/><path class="g" d="M3547.821-1725.884l-4.321-2.9-5.532,17.031h6.654Z" transform="translate(-3412.57 1948.085)"/><path class="u" d="M3452.333-1846.067c-2.75,3.932,31.071,10.257,31.071,10.257s19.8-12.845-3.319-14.848C3475.375-1851.076,3456.685-1852.242,3452.333-1846.067Z" transform="translate(-3429.689 1923.694)"/><path class="n" d="M3486.036-1827.047s18.227-15.042,8.792-24.043-53.829-13.023-50.076,7.477c0,0,5.712-1.69,11.484,3.814C3468.392-1828.169,3486.036-1827.047,3486.036-1827.047Z" transform="translate(-3431.214 1922.212)"/><path class="d" d="M3483.484-1831.7s10.317-8.014,6.683-15.236-25.1-15.132-40.491-5.173a47.807,47.807,0,0,1,10.2,7.028C3465.974-1839.862,3483.484-1831.7,3483.484-1831.7Z" transform="translate(-3430.187 1922.542)"/><path class="u" d="M3458.177-1842.577s4.949,7.073,23.61,13.382c0,0,8.313-10.572-4.322-15.4,0,0-2.632-.823-3.2-5.009a20.287,20.287,0,0,1,1.121-8.717c.135-.449.3-.927.463-1.406l-15.371-9.614S3465.892-1849.859,3458.177-1842.577Z" transform="translate(-3428.49 1920.039)"/><path class="d" d="M3462.976-1864.68s.823,10.99,10.333,14.159a20.288,20.288,0,0,1,1.121-8.717C3468.822-1862.213,3462.976-1864.68,3462.976-1864.68Z" transform="translate(-3427.532 1920.969)"/><path class="j" d="M3455.351-1860.624a8.974,8.974,0,0,1-7.477-2.99.376.376,0,0,1,0-.524.36.36,0,0,1,.508-.016l.015.016c4.2,5.473,16.1.823,16.224.778a.373.373,0,0,1,.489.2l0,.01a.359.359,0,0,1-.189.471l-.019.007A29.389,29.389,0,0,1,3455.351-1860.624Z" transform="translate(-3430.568 1921.055)"/><path class="j" d="M3482.4-1887.586a.39.39,0,0,1-.238-.089.373.373,0,0,1,0-.524,9.227,9.227,0,0,0-.733-12.23c-5.683-6.056-14.161-.913-14.251-.867a.373.373,0,0,1-.526-.04.376.376,0,0,1,.039-.528.435.435,0,0,1,.1-.061c.09,0,9.091-5.517,15.192.987a10.093,10.093,0,0,1,.763,13.2A.42.42,0,0,1,3482.4-1887.586Z" transform="translate(-3426.817 1913.102)"/><path class="j" d="M3479.318-1887.888a.39.39,0,0,1-.314-.165.374.374,0,0,1,.1-.509s3.9-2.66,4.337-6.205a6.132,6.132,0,0,0-1.824-4.934.375.375,0,0,1-.011-.529l.011-.01a.389.389,0,0,1,.538,0,6.878,6.878,0,0,1,2.019,5.532c-.479,3.888-4.485,6.609-4.665,6.729A.344.344,0,0,1,3479.318-1887.888Z" transform="translate(-3424.347 1913.853)"/><path class="j" d="M3486.319-1888.56a15.672,15.672,0,0,0-11.828-17c-13.711-4.142-27.857,9.48-27.857,9.48s-10.646,43.9,18.826,41.539S3486.319-1888.56,3486.319-1888.56Z" transform="translate(-3431.167 1912.656)"/><path class="u" d="M3468.834-1895.334c12.678-1.181,17.4,5.218,19.557,18.213,2.691,16.238.164,28.186-16.029,26.181C3450.292-1853.661,3447.676-1893.361,3468.834-1895.334Z" transform="translate(-3429.263 1914.825)"/><path class="x" d="M3475.766-1880.125a27.214,27.214,0,0,0,4.187,4.92,3.517,3.517,0,0,1-3.215,1.749Z" transform="translate(-3424.981 1917.887)"/><path class="j" d="M3469.633-1880.1c.12,1.046-.344,1.959-1.031,2.033s-1.36-.687-1.5-1.734.344-1.945,1.032-2.033S3469.513-1881.128,3469.633-1880.1Z" transform="translate(-3426.713 1917.546)"/><path class="j" d="M3467.751-1881.567l2.153-1.15S3468.992-1880.684,3467.751-1881.567Z" transform="translate(-3426.581 1917.37)"/><path class="j" d="M3480.391-1881.528c.12,1.032-.329,1.945-1.032,2.019s-1.346-.687-1.495-1.735.344-1.943,1.046-2.033S3480.272-1882.574,3480.391-1881.528Z" transform="translate(-3424.568 1917.257)"/><path class="j" d="M3478.508-1883.011l2.153-1.152S3479.764-1882.13,3478.508-1883.011Z" transform="translate(-3424.434 1917.082)"/><path class="j" d="M3464.077-1884.613a.538.538,0,0,1-.3-.09.524.524,0,0,1-.168-.721l.019-.026a7.129,7.129,0,0,1,5.786-2.676.537.537,0,0,1,.523.553h0a.582.582,0,0,1-.553.523,6.163,6.163,0,0,0-4.859,2.2A.522.522,0,0,1,3464.077-1884.613Z" transform="translate(-3427.423 1916.29)"/><path class="j" d="M3481.312-1887.593a.707.707,0,0,1-.254,0,5.439,5.439,0,0,0-4.666-.569.538.538,0,0,1-.717-.254.538.538,0,0,1,.254-.718,6.441,6.441,0,0,1,5.637.583.523.523,0,0,1,.243.7l-.019.034A.542.542,0,0,1,3481.312-1887.593Z" transform="translate(-3425.01 1916.011)"/><path class="j" d="M3457.527-1871.858s4.964-10.976,3.3-18.946c0,0,24.193-12.619,27.827,12.785,0,0,.329-22.892-21.532-21.352s-18.78,33.434-6.623,41.866C3460.518-1857.475,3454.537-1864.98,3457.527-1871.858Z" transform="translate(-3429.918 1914.032)"/><path class="u" d="M3459.949-1873.606a5.609,5.609,0,0,0-6.476-4.485c-3.888.792-5.009,9.046,4.949,10.063C3459.858-1867.968,3460.591-1869.358,3459.949-1873.606Z" transform="translate(-3429.992 1918.277)"/><path class="j" d="M3479.614-1870.127a32.174,32.174,0,0,0-1.376,4.335h-.808c-3.633-.313-5.2-1.659-5.861-2.99a4.613,4.613,0,0,1-.39-2.183,4.735,4.735,0,0,1,.21-1.256,16.975,16.975,0,0,0,7,2.079C3479.135-1870.157,3479.614-1870.127,3479.614-1870.127Z" transform="translate(-3425.898 1919.464)"/><path class="i" d="M3478.386-1870.243l-.448,1.271c-3.41-.3-5.787-.971-6.76-2.093a4.718,4.718,0,0,1,.21-1.256A17,17,0,0,0,3478.386-1870.243Z" transform="translate(-3425.897 1919.445)"/><path class="x" d="M3477.364-1866.414c-3.633-.314-5.2-1.66-5.861-2.99a11.565,11.565,0,0,1,3.962,1.15A4.375,4.375,0,0,1,3477.364-1866.414Z" transform="translate(-3425.832 1920.027)"/><path class="j" d="M3454.434-1897.077s6.1-9.7-4.261-13.562-20.4,9.5-14.191,18.721a14.252,14.252,0,0,0,16.12,5.846Z" transform="translate(-3433.3 1911.663)"/><path class="j" d="M3451.667-1897.961a.331.331,0,0,1-.239-.074.359.359,0,0,1-.017-.507l.017-.017c.269-.313,6.28-7.76.732-12.411a.375.375,0,0,1,0-.523.36.36,0,0,1,.507-.016l.017.016c6.129,5.114-.568,13.367-.629,13.458A.372.372,0,0,1,3451.667-1897.961Z" transform="translate(-3429.86 1911.606)"/><path class="j" d="M3444.125-1885.037a11.141,11.141,0,0,1-10.688-11.574,11.237,11.237,0,0,1,.222-1.809c.643-3.275,2.662-5.413,5.413-5.712a.361.361,0,0,1,.415.294l0,.036a.373.373,0,0,1-.329.4c-2.422.27-4.2,2.183-4.77,5.129a10.466,10.466,0,0,0,4.9,11.05c6.8,3.648,9.3-.733,9.39-.913a.374.374,0,0,1,.507-.15h0a.357.357,0,0,1,.155.482l0,.011A5.984,5.984,0,0,1,3444.125-1885.037Z" transform="translate(-3433.428 1913.096)"/><path class="d" d="M3474.937-1834.856a1.032,1.032,0,0,1-1.017,1.046,1.032,1.032,0,0,1-1.046-1.017,1.032,1.032,0,0,1,1.017-1.046h.029A1.033,1.033,0,0,1,3474.937-1834.856Z" transform="translate(-3425.558 1926.717)"/><path class="d" d="M3483.531-1837.324a1.015,1.015,0,0,1-1,1.032h-.016a1.032,1.032,0,0,1-1.148-.9,1.032,1.032,0,0,1,.9-1.148,1.045,1.045,0,0,1,.247,0A1.016,1.016,0,0,1,3483.531-1837.324Z" transform="translate(-3423.865 1926.224)"/><path class="j" d="M3491.5-1828.724a1.031,1.031,0,0,1-1.015,1.047,1.032,1.032,0,0,1-1.047-1.017,1.031,1.031,0,0,1,1.017-1.046h.014A1.031,1.031,0,0,1,3491.5-1828.724Z" transform="translate(-3422.253 1927.941)"/><path class="j" d="M3472.987-1824.336a1.017,1.017,0,0,1-1.016,1.017,1.018,1.018,0,0,1-1.017-1.017,1.017,1.017,0,0,1,1.017-1.016h0A1.016,1.016,0,0,1,3472.987-1824.336Z" transform="translate(-3425.941 1928.816)"/><path class="j" d="M3491.705-1826.735h0s-3.993-.539-4.68-5.636a4.561,4.561,0,0,0-4.575-4.412.37.37,0,0,1-.389-.359.359.359,0,0,1,.328-.387h.031a5.367,5.367,0,0,1,5.353,5.054c.6,4.486,3.993,4.995,4.022,5.009a.375.375,0,0,1,.33.4A.389.389,0,0,1,3491.705-1826.735Z" transform="translate(-3423.725 1926.386)"/><path class="j" d="M3471.865-1822.333a.374.374,0,0,1-.374-.359,9.914,9.914,0,0,1,2.676-7.087,3.4,3.4,0,0,0,1.152-2.437,4.057,4.057,0,0,0-1.136-2.5.376.376,0,0,1-.089-.522.375.375,0,0,1,.522-.088.425.425,0,0,1,.076.071,4.62,4.62,0,0,1,1.375,2.99,4.15,4.15,0,0,1-1.36,2.99,9.264,9.264,0,0,0-2.467,6.5.387.387,0,0,1-.344.4Z" transform="translate(-3425.835 1926.813)"/><path class="l" d="M3441.917-1843.943c10.721-8.613,6.654,39.849,11.708,50.839s35.2,37.126,35.2,37.126l-6.474,7.267s-36.782-20.29-41.866-33.9C3433.858-1799.833,3433.992-1837.6,3441.917-1843.943Z" transform="translate(-3432.97 1924.903)"/><path class="b" d="M3441.917-1843.943c10.721-8.613,6.654,39.849,11.708,50.839s35.2,37.126,35.2,37.126l-6.474,7.267s-36.782-20.29-41.866-33.9C3433.858-1799.833,3433.992-1837.6,3441.917-1843.943Z" transform="translate(-3432.97 1924.903)"/><path class="n" d="M3481.068-1770.73l4.127,3.484-5.667,6.908-4.934-3.125Z" transform="translate(-3425.215 1939.715)"/></g></g></g></svg>