<?xml version="1.0" encoding="utf-8"?>
<!-- Generator: Adobe Illustrator 25.3.1, SVG Export Plug-In . SVG Version: 6.00 Build 0)  -->
<svg version="1.1" id="Layer_1" xmlns="http://www.w3.org/2000/svg" xmlns:xlink="http://www.w3.org/1999/xlink" x="0px" y="0px"
	 viewBox="0 0 100 100" style="enable-background:new 0 0 100 100;" xml:space="preserve">
<style type="text/css">
	.st0{fill:#57CC99;}
</style>
<path class="st0" d="M95.1,28.3c-4.4-9-11.4-16.6-20-21.6c-8.6-5-18.6-7.3-28.5-6.6c0.6,1.4,1.4,2.7,2.5,3.7
	c2.4,0.4,4.9,0.2,7.4,0.6c10,1.4,19.3,6.1,26.3,13.4c-1.1,1.9-2.2,3.9-3.3,5.8c-6.9-7.5-16.4-12.1-26.6-12.7
	c0.9,1.5,1.4,3.8,3.4,4.3c2.9,0.6,5.7,1.5,8.4,2.7c4.8,2.2,9.1,5.5,12.6,9.5c-3.6,6.4-7.2,12.8-11,19c-8.9-15-17.5-30.1-26.2-45.2
	C23.4,4.5,9.7,15.9,3.5,31.5c-5.1,12.8-4.7,27.2,1.2,39.7c3.4,7.3,8.6,13.6,14.9,18.6c9.1,7,20.5,10.6,32,10.1
	c-0.8-1.3-1.5-2.6-2.3-3.9c-12.2-0.3-23.8-5.3-32.4-14.1c1-2,2.1-4,3.4-5.8c6.4,7.2,15.3,11.9,24.9,13c-0.7-1.5-1.6-3-2.7-4.2
	c-1.4-0.6-2.8-1.1-4.3-1.5c-6.2-2.2-11.7-6-15.8-11.1c3.3-5.8,6.6-11.7,10.1-17.4c8.7,14.7,17.2,29.6,25.8,44.5
	c18-3.1,32.9-15.7,39-32.9C101.6,53.9,100.8,40.2,95.1,28.3z M37.8,5.7c5.5,9.4,11,18.8,16.3,28.3C38.4,34.1,22.7,34.1,7,34
	C12.2,20.2,23.6,9.7,37.8,5.7L37.8,5.7z M14,78.6C7.5,70.4,4,60.2,4,49.7c0.1-3.9,0.6-7.8,1.5-11.6c10.6-0.2,21.2-0.2,31.8,0
	c-1.1,2.2-2.3,4.3-3.6,6.4C27.1,55.8,20.7,67.2,14,78.6z M38.4,56.6c-1.2-1.9-2.3-3.9-3.2-5.9c0.5-1.6,1.2-3.1,2.1-4.4
	c1.7-2.6,2.9-5.5,4.8-8c1.6-0.4,3.3-0.5,4.9-0.4c3.1,0.1,6.1-0.2,9.1,0.2c0.8,0.8,1.5,1.7,2,2.8c1.4,2.6,3,5.2,4.5,7.7
	c0.4,0.9,1.2,1.9,0.6,2.8c-1.2,2.5-2.9,4.8-4.2,7.3c-0.7,1.6-1.7,3-2.8,4.2c-3.2,0.4-6.5,0.1-9.7,0.2c-1.5,0.1-3,0-4.4-0.4
	C40.7,60.8,39.5,58.8,38.4,56.6L38.4,56.6z M60.5,94.8c-3.9-6.6-7.7-13.2-11.5-19.8c-1.5-2.5-3-5.1-4.3-7.7c16-0.1,32,0,48-0.1
	C87,81,75,91.3,60.5,94.8L60.5,94.8z M95.9,53c-0.3,3.4-0.9,6.7-1.7,10c-4.2,0.3-8.3,0.1-12.5,0.2c-6.8,0-13.6,0.1-20.3-0.1
	c5.4-10,11.3-19.7,16.9-29.5c2.5-4.1,4.6-8.5,7.4-12.5C93,30,96.7,41.4,95.9,53L95.9,53z"/>
</svg>
