<svg xmlns="http://www.w3.org/2000/svg" width="505" height="380" viewBox="0 0 505 380">
  <g id="t0-i1" transform="translate(-2067 -807)">
    <rect id="Rectángulo_5694" data-name="Rectángulo 5694" width="505" height="380" transform="translate(2067 807)" fill="#22577a"/>
    <circle id="Ellipse_4062" data-name="Ellipse 4062" cx="160.421" cy="160.421" r="160.421" transform="translate(2164.849 845.451)" fill="gray" opacity="0.21" style="mix-blend-mode: color-burn;isolation: isolate"/>
    <g id="Group_54322" data-name="Group 54322">
      <g id="Group_54212" data-name="Group 54212">
        <path id="Path_101314" data-name="Path 101314" d="M2492.449,1012.242a1.565,1.565,0,0,0-1.637,1.518,1.613,1.613,0,0,0,1.508,1.665,1.58,1.58,0,0,0,1.682-1.516A1.623,1.623,0,0,0,2492.449,1012.242Z" fill="#fff"/>
      </g>
      <g id="Group_54213" data-name="Group 54213">
        <path id="Path_101315" data-name="Path 101315" d="M2491.837,1021.779a1.591,1.591,0,0,0-1.73,1.421,1.565,1.565,0,0,0,1.389,1.746,1.626,1.626,0,0,0,1.788-1.415A1.6,1.6,0,0,0,2491.837,1021.779Z" fill="#fff"/>
      </g>
      <g id="Group_54214" data-name="Group 54214">
        <path id="Path_101316" data-name="Path 101316" d="M2490.693,1031.268a1.64,1.64,0,0,0-1.854,1.313,1.578,1.578,0,0,0,1.3,1.824,1.614,1.614,0,0,0,1.855-1.313A1.551,1.551,0,0,0,2490.693,1031.268Z" fill="#fff"/>
      </g>
      <g id="Group_54215" data-name="Group 54215">
        <path id="Path_101317" data-name="Path 101317" d="M2488.963,1040.667a1.626,1.626,0,0,0-1.919,1.207,1.6,1.6,0,0,0,3.118.691A1.566,1.566,0,0,0,2488.963,1040.667Z" fill="#fff"/>
      </g>
      <g id="Group_54216" data-name="Group 54216">
        <path id="Path_101318" data-name="Path 101318" d="M2486.7,1049.952a1.593,1.593,0,1,0-.87,3.065,1.593,1.593,0,1,0,.87-3.065Z" fill="#fff"/>
      </g>
      <g id="Group_54217" data-name="Group 54217">
        <path id="Path_101319" data-name="Path 101319" d="M2483.916,1059.093a1.6,1.6,0,0,0-2.022.987,1.623,1.623,0,0,0,1,2.032,1.571,1.571,0,0,0,2.018-.988A1.6,1.6,0,0,0,2483.916,1059.093Z" fill="#fff"/>
      </g>
      <g id="Group_54218" data-name="Group 54218">
        <path id="Path_101320" data-name="Path 101320" d="M2480.62,1068.063a1.579,1.579,0,0,0-2.062.874,1.638,1.638,0,0,0,.893,2.09,1.554,1.554,0,0,0,2.06-.874A1.611,1.611,0,0,0,2480.62,1068.063Z" fill="#fff"/>
      </g>
      <g id="Group_54219" data-name="Group 54219">
        <path id="Path_101321" data-name="Path 101321" d="M2476.825,1076.834a1.593,1.593,0,0,0-1.376,2.872,1.593,1.593,0,1,0,1.376-2.872Z" fill="#fff"/>
      </g>
      <g id="Group_54220" data-name="Group 54220">
        <path id="Path_101322" data-name="Path 101322" d="M2472.545,1085.378a1.639,1.639,0,0,0-2.181.614,1.577,1.577,0,0,0,.6,2.155,1.614,1.614,0,0,0,2.19-.608A1.556,1.556,0,0,0,2472.545,1085.378Z" fill="#fff"/>
      </g>
      <g id="Group_54221" data-name="Group 54221">
        <path id="Path_101323" data-name="Path 101323" d="M2467.743,1093.642a1.623,1.623,0,0,0-2.212.488,1.6,1.6,0,0,0,2.7,1.7A1.568,1.568,0,0,0,2467.743,1093.642Z" fill="#fff"/>
      </g>
      <g id="Group_54222" data-name="Group 54222">
        <path id="Path_101324" data-name="Path 101324" d="M2460.253,1101.987a1.612,1.612,0,0,0,.378,2.227,1.593,1.593,0,1,0,1.847-2.6A1.606,1.606,0,0,0,2460.253,1101.987Z" fill="#fff"/>
      </g>
      <g id="Group_54223" data-name="Group 54223">
        <path id="Path_101325" data-name="Path 101325" d="M2454.546,1109.538a1.63,1.63,0,0,0,.263,2.254,1.562,1.562,0,0,0,2.228-.254,1.6,1.6,0,0,0-2.491-2Z" fill="#fff"/>
      </g>
      <g id="Group_54224" data-name="Group 54224">
        <path id="Path_101326" data-name="Path 101326" d="M2448.43,1116.763a1.617,1.617,0,0,0,.114,2.247,1.576,1.576,0,0,0,2.259-.109,1.62,1.62,0,0,0-.142-2.272A1.571,1.571,0,0,0,2448.43,1116.763Z" fill="#fff"/>
      </g>
      <g id="Group_54225" data-name="Group 54225">
        <path id="Path_101327" data-name="Path 101327" d="M2441.9,1123.612a1.572,1.572,0,0,0-.028,2.236,1.619,1.619,0,0,0,2.275.034,1.573,1.573,0,0,0,0-2.26A1.619,1.619,0,0,0,2441.9,1123.612Z" fill="#fff"/>
      </g>
      <g id="Group_54226" data-name="Group 54226">
        <path id="Path_101328" data-name="Path 101328" d="M2434.969,1130.064a1.6,1.6,0,0,0,2.115,2.394,1.565,1.565,0,0,0,.148-2.239A1.629,1.629,0,0,0,2434.969,1130.064Z" fill="#fff"/>
      </g>
      <g id="Group_54227" data-name="Group 54227">
        <path id="Path_101329" data-name="Path 101329" d="M2427.7,1136.123a1.607,1.607,0,0,0-.263,2.24,1.593,1.593,0,1,0,2.5-1.969A1.611,1.611,0,0,0,2427.7,1136.123Z" fill="#fff"/>
      </g>
      <g id="Group_54228" data-name="Group 54228">
        <path id="Path_101330" data-name="Path 101330" d="M2420.1,1141.769a1.624,1.624,0,0,0-.383,2.233,1.569,1.569,0,0,0,2.213.385,1.6,1.6,0,0,0-1.83-2.618Z" fill="#fff"/>
      </g>
      <g id="Group_54229" data-name="Group 54229">
        <path id="Path_101331" data-name="Path 101331" d="M2412.2,1146.984a1.639,1.639,0,0,0-.512,2.2,1.556,1.556,0,0,0,2.19.514,1.615,1.615,0,0,0,.5-2.217A1.576,1.576,0,0,0,2412.2,1146.984Z" fill="#fff"/>
      </g>
      <g id="Group_54230" data-name="Group 54230">
        <path id="Path_101332" data-name="Path 101332" d="M2404.016,1151.74a1.565,1.565,0,0,0-.657,2.132,1.626,1.626,0,0,0,2.177.677,1.606,1.606,0,0,0,.629-2.185A1.585,1.585,0,0,0,2404.016,1151.74Z" fill="#fff"/>
      </g>
      <g id="Group_54231" data-name="Group 54231">
        <path id="Path_101333" data-name="Path 101333" d="M2395.553,1155.98a1.58,1.58,0,0,0-.772,2.1,1.608,1.608,0,0,0,2.129.788,1.556,1.556,0,0,0,.774-2.1A1.636,1.636,0,0,0,2395.553,1155.98Z" fill="#fff"/>
      </g>
      <g id="Group_54232" data-name="Group 54232">
        <path id="Path_101334" data-name="Path 101334" d="M2386.867,1159.738a1.6,1.6,0,0,0,1.188,2.965,1.573,1.573,0,0,0,.889-2.066A1.619,1.619,0,0,0,2386.867,1159.738Z" fill="#fff"/>
      </g>
      <g id="Group_54233" data-name="Group 54233">
        <path id="Path_101335" data-name="Path 101335" d="M2377.984,1163a1.613,1.613,0,0,0-1,2.026,1.593,1.593,0,1,0,3.018-1.022A1.6,1.6,0,0,0,2377.984,1163Z" fill="#fff"/>
      </g>
      <g id="Group_54234" data-name="Group 54234">
        <path id="Path_101336" data-name="Path 101336" d="M2368.931,1165.759a1.63,1.63,0,0,0-1.113,1.977,1.562,1.562,0,0,0,1.952,1.1,1.6,1.6,0,0,0,1.113-1.975A1.587,1.587,0,0,0,2368.931,1165.759Z" fill="#fff"/>
      </g>
      <g id="Group_54235" data-name="Group 54235">
        <path id="Path_101337" data-name="Path 101337" d="M2359.735,1168a1.638,1.638,0,0,0-1.227,1.9,1.557,1.557,0,0,0,1.888,1.227,1.617,1.617,0,0,0,1.222-1.919A1.572,1.572,0,0,0,2359.735,1168Z" fill="#fff"/>
      </g>
      <g id="Group_54236" data-name="Group 54236">
        <path id="Path_101338" data-name="Path 101338" d="M2350.425,1169.714a1.561,1.561,0,0,0-1.339,1.781,1.593,1.593,0,1,0,3.149-.476A1.567,1.567,0,0,0,2350.425,1169.714Z" fill="#fff"/>
      </g>
      <g id="Group_54237" data-name="Group 54237">
        <path id="Path_101339" data-name="Path 101339" d="M2341.027,1170.847a1.573,1.573,0,0,0-1.438,1.712,1.618,1.618,0,0,0,1.738,1.468,1.554,1.554,0,0,0,1.437-1.729A1.64,1.64,0,0,0,2341.027,1170.847Z" fill="#fff"/>
      </g>
      <g id="Group_54238" data-name="Group 54238">
        <path id="Path_101340" data-name="Path 101340" d="M2331.581,1171.453a1.585,1.585,0,0,0-1.533,1.637,1.607,1.607,0,0,0,1.652,1.555,1.56,1.56,0,0,0,1.533-1.635A1.633,1.633,0,0,0,2331.581,1171.453Z" fill="#fff"/>
      </g>
      <g id="Group_54239" data-name="Group 54239">
        <path id="Path_101341" data-name="Path 101341" d="M2322.115,1171.532a1.6,1.6,0,0,0-.06,3.194,1.57,1.57,0,0,0,1.622-1.555A1.621,1.621,0,0,0,2322.115,1171.532Z" fill="#fff"/>
      </g>
      <g id="Group_54240" data-name="Group 54240">
        <path id="Path_101342" data-name="Path 101342" d="M2312.66,1171.086a1.608,1.608,0,0,0-1.709,1.473,1.593,1.593,0,1,0,3.177.242A1.61,1.61,0,0,0,2312.66,1171.086Z" fill="#fff"/>
      </g>
      <g id="Group_54241" data-name="Group 54241">
        <path id="Path_101343" data-name="Path 101343" d="M2303.245,1170.111a1.62,1.62,0,0,0-1.791,1.384,1.573,1.573,0,0,0,1.371,1.783,1.6,1.6,0,0,0,.42-3.167Z" fill="#fff"/>
      </g>
      <g id="Group_54242" data-name="Group 54242">
        <path id="Path_101344" data-name="Path 101344" d="M2293.9,1168.608a1.635,1.635,0,0,0-1.87,1.29,1.559,1.559,0,0,0,1.269,1.847,1.606,1.606,0,0,0,1.868-1.286A1.585,1.585,0,0,0,2293.9,1168.608Z" fill="#fff"/>
      </g>
      <g id="Group_54243" data-name="Group 54243">
        <path id="Path_101345" data-name="Path 101345" d="M2284.655,1166.581a1.623,1.623,0,0,0-1.933,1.155,1.57,1.57,0,0,0,1.153,1.942,1.62,1.62,0,0,0,1.942-1.189A1.57,1.57,0,0,0,2284.655,1166.581Z" fill="#fff"/>
      </g>
      <g id="Group_54244" data-name="Group 54244">
        <path id="Path_101346" data-name="Path 101346" d="M2275.545,1164.013a1.567,1.567,0,0,0-1.988,1.015,1.625,1.625,0,0,0,1.031,2.033,1.6,1.6,0,0,0,.957-3.048Z" fill="#fff"/>
      </g>
      <g id="Group_54245" data-name="Group 54245">
        <path id="Path_101347" data-name="Path 101347" d="M2266.608,1160.9a1.583,1.583,0,0,0-2.048.911,1.61,1.61,0,0,0,.917,2.077,1.559,1.559,0,0,0,2.048-.908A1.637,1.637,0,0,0,2266.608,1160.9Z" fill="#fff"/>
      </g>
      <g id="Group_54246" data-name="Group 54246">
        <path id="Path_101348" data-name="Path 101348" d="M2257.862,1157.279a1.6,1.6,0,0,0-1.3,2.918,1.574,1.574,0,0,0,2.1-.8A1.62,1.62,0,0,0,2257.862,1157.279Z" fill="#fff"/>
      </g>
      <g id="Group_54247" data-name="Group 54247">
        <path id="Path_101349" data-name="Path 101349" d="M2249.333,1153.178a1.616,1.616,0,0,0-2.152.694,1.593,1.593,0,1,0,2.836,1.453A1.6,1.6,0,0,0,2249.333,1153.178Z" fill="#fff"/>
      </g>
      <g id="Group_54248" data-name="Group 54248">
        <path id="Path_101350" data-name="Path 101350" d="M2241.046,1148.606a1.632,1.632,0,0,0-2.195.582,1.559,1.559,0,0,0,.569,2.167,1.606,1.606,0,0,0,2.193-.579A1.584,1.584,0,0,0,2241.046,1148.606Z" fill="#fff"/>
      </g>
      <g id="Group_54249" data-name="Group 54249">
        <path id="Path_101351" data-name="Path 101351" d="M2233.025,1143.578a1.6,1.6,0,0,0-1.779,2.652,1.623,1.623,0,0,0,2.23-.465A1.568,1.568,0,0,0,2233.025,1143.578Z" fill="#fff"/>
      </g>
      <g id="Group_54250" data-name="Group 54250">
        <path id="Path_101352" data-name="Path 101352" d="M2223.107,1138.363a1.618,1.618,0,0,0,.29,2.256,1.563,1.563,0,0,0,2.233-.31,1.631,1.631,0,0,0-.3-2.236A1.575,1.575,0,0,0,2223.107,1138.363Z" fill="#fff"/>
      </g>
      <g id="Group_54251" data-name="Group 54251">
        <path id="Path_101353" data-name="Path 101353" d="M2215.717,1132.305a1.6,1.6,0,0,0,.17,2.258,1.566,1.566,0,0,0,2.238-.172,1.626,1.626,0,0,0-.168-2.26A1.592,1.592,0,0,0,2215.717,1132.305Z" fill="#fff"/>
      </g>
      <g id="Group_54252" data-name="Group 54252">
        <path id="Path_101354" data-name="Path 101354" d="M2208.672,1125.848a1.593,1.593,0,1,0,2.307,2.2,1.593,1.593,0,1,0-2.307-2.2Z" fill="#fff"/>
      </g>
      <g id="Group_54253" data-name="Group 54253">
        <path id="Path_101355" data-name="Path 101355" d="M2202,1119.01a1.566,1.566,0,0,0-.066,2.243,1.6,1.6,0,0,0,2.332-2.183A1.627,1.627,0,0,0,2202,1119.01Z" fill="#fff"/>
      </g>
      <g id="Group_54254" data-name="Group 54254">
        <path id="Path_101356" data-name="Path 101356" d="M2195.731,1111.792a1.567,1.567,0,0,0-.206,2.247,1.619,1.619,0,0,0,2.268.182,1.573,1.573,0,0,0,.184-2.229A1.626,1.626,0,0,0,2195.731,1111.792Z" fill="#fff"/>
      </g>
      <g id="Group_54255" data-name="Group 54255">
        <path id="Path_101357" data-name="Path 101357" d="M2189.909,1104.214a1.622,1.622,0,0,0-.358,2.249,1.584,1.584,0,0,0,2.243.319,1.609,1.609,0,0,0,.322-2.223A1.57,1.57,0,0,0,2189.909,1104.214Z" fill="#fff"/>
      </g>
      <g id="Group_54256" data-name="Group 54256">
        <path id="Path_101358" data-name="Path 101358" d="M2184.516,1096.324a1.606,1.606,0,0,0-.473,2.218,1.561,1.561,0,0,0,2.193.465,1.632,1.632,0,0,0,.476-2.22A1.587,1.587,0,0,0,2184.516,1096.324Z" fill="#fff"/>
      </g>
      <g id="Group_54257" data-name="Group 54257">
        <path id="Path_101359" data-name="Path 101359" d="M2179.572,1088.147a1.593,1.593,0,1,0,1.588,2.763,1.593,1.593,0,1,0-1.588-2.763Z" fill="#fff"/>
      </g>
      <g id="Group_54258" data-name="Group 54258">
        <path id="Path_101360" data-name="Path 101360" d="M2175.091,1079.706a1.572,1.572,0,0,0-.7,2.137,1.6,1.6,0,0,0,2.852-1.439A1.621,1.621,0,0,0,2175.091,1079.706Z" fill="#fff"/>
      </g>
      <g id="Group_54259" data-name="Group 54259">
        <path id="Path_101361" data-name="Path 101361" d="M2171.089,1071.027a1.556,1.556,0,0,0-.807,2.087,1.611,1.611,0,0,0,2.12.816,1.579,1.579,0,0,0,.81-2.088A1.639,1.639,0,0,0,2171.089,1071.027Z" fill="#fff"/>
      </g>
      <g id="Group_54260" data-name="Group 54260">
        <path id="Path_101362" data-name="Path 101362" d="M2167.646,1062.112a1.593,1.593,0,1,0,1.1,2.987,1.593,1.593,0,0,0-1.1-2.987Z" fill="#fff"/>
      </g>
      <g id="Group_54261" data-name="Group 54261">
        <path id="Path_101363" data-name="Path 101363" d="M2164.711,1053.017a1.618,1.618,0,0,0-1.092,2,1.555,1.555,0,0,0,1.984,1.062,1.637,1.637,0,0,0,1.072-1.99A1.573,1.573,0,0,0,2164.711,1053.017Z" fill="#fff"/>
      </g>
      <g id="Group_54262" data-name="Group 54262">
        <path id="Path_101364" data-name="Path 101364" d="M2162.294,1043.772a1.6,1.6,0,0,0-1.193,1.927,1.562,1.562,0,0,0,1.909,1.177,1.628,1.628,0,0,0,1.2-1.927A1.588,1.588,0,0,0,2162.294,1043.772Z" fill="#fff"/>
      </g>
      <g id="Group_54263" data-name="Group 54263">
        <path id="Path_101365" data-name="Path 101365" d="M2160.4,1034.405a1.593,1.593,0,1,0,.56,3.137,1.593,1.593,0,1,0-.56-3.137Z" fill="#fff"/>
      </g>
      <g id="Group_54264" data-name="Group 54264">
        <path id="Path_101366" data-name="Path 101366" d="M2159.044,1024.946a1.593,1.593,0,1,0,.4,3.161,1.593,1.593,0,1,0-.4-3.161Z" fill="#fff"/>
      </g>
      <g id="Group_54265" data-name="Group 54265">
        <path id="Path_101367" data-name="Path 101367" d="M2158.22,1015.425a1.564,1.564,0,0,0-1.472,1.693,1.6,1.6,0,0,0,3.187-.21A1.628,1.628,0,0,0,2158.22,1015.425Z" fill="#fff"/>
      </g>
      <g id="Group_54266" data-name="Group 54266">
        <path id="Path_101368" data-name="Path 101368" d="M2157.93,1005.872a1.552,1.552,0,0,0-1.555,1.607,1.614,1.614,0,0,0,1.636,1.578,1.578,1.578,0,0,0,1.558-1.608A1.64,1.64,0,0,0,2157.93,1005.872Z" fill="#fff"/>
      </g>
      <g id="Group_54267" data-name="Group 54267">
        <path id="Path_101369" data-name="Path 101369" d="M2158.22,996.318a1.58,1.58,0,0,0-1.682,1.516,1.623,1.623,0,0,0,1.553,1.667,1.566,1.566,0,0,0,1.637-1.518A1.613,1.613,0,0,0,2158.22,996.318Z" fill="#fff"/>
      </g>
      <g id="Group_54268" data-name="Group 54268">
        <path id="Path_101370" data-name="Path 101370" d="M2159.044,986.8a1.626,1.626,0,0,0-1.788,1.415,1.6,1.6,0,0,0,3.177.331A1.565,1.565,0,0,0,2159.044,986.8Z" fill="#fff"/>
      </g>
      <g id="Group_54269" data-name="Group 54269">
        <path id="Path_101371" data-name="Path 101371" d="M2160.4,977.338a1.613,1.613,0,0,0-1.855,1.313,1.552,1.552,0,0,0,1.3,1.824,1.64,1.64,0,0,0,1.854-1.313A1.578,1.578,0,0,0,2160.4,977.338Z" fill="#fff"/>
      </g>
      <g id="Group_54270" data-name="Group 54270">
        <path id="Path_101372" data-name="Path 101372" d="M2162.294,967.971a1.6,1.6,0,0,0-1.916,1.207,1.566,1.566,0,0,0,1.2,1.9,1.626,1.626,0,0,0,1.919-1.207A1.592,1.592,0,0,0,2162.294,967.971Z" fill="#fff"/>
      </g>
      <g id="Group_54271" data-name="Group 54271">
        <path id="Path_101373" data-name="Path 101373" d="M2164.711,958.726a1.593,1.593,0,1,0-.871,3.065,1.593,1.593,0,1,0,.871-3.065Z" fill="#fff"/>
      </g>
      <g id="Group_54272" data-name="Group 54272">
        <path id="Path_101374" data-name="Path 101374" d="M2167.646,949.631a1.571,1.571,0,0,0-2.019.987,1.6,1.6,0,0,0,3.019,1.045A1.623,1.623,0,0,0,2167.646,949.631Z" fill="#fff"/>
      </g>
      <g id="Group_54273" data-name="Group 54273">
        <path id="Path_101375" data-name="Path 101375" d="M2171.089,940.716a1.554,1.554,0,0,0-2.06.874,1.611,1.611,0,0,0,.891,2.09,1.579,1.579,0,0,0,2.062-.874A1.638,1.638,0,0,0,2171.089,940.716Z" fill="#fff"/>
      </g>
      <g id="Group_54274" data-name="Group 54274">
        <path id="Path_101376" data-name="Path 101376" d="M2175.091,932.036a1.593,1.593,0,1,0-1.376,2.873,1.593,1.593,0,0,0,1.376-2.873Z" fill="#fff"/>
      </g>
      <g id="Group_54275" data-name="Group 54275">
        <path id="Path_101377" data-name="Path 101377" d="M2179.572,923.595a1.615,1.615,0,0,0-2.191.609,1.555,1.555,0,0,0,.615,2.16,1.637,1.637,0,0,0,2.18-.613A1.579,1.579,0,0,0,2179.572,923.595Z" fill="#fff"/>
      </g>
      <g id="Group_54276" data-name="Group 54276">
        <path id="Path_101378" data-name="Path 101378" d="M2184.516,915.418a1.6,1.6,0,0,0-2.209.491,1.568,1.568,0,0,0,.49,2.192,1.624,1.624,0,0,0,2.212-.489A1.6,1.6,0,0,0,2184.516,915.418Z" fill="#fff"/>
      </g>
      <g id="Group_54277" data-name="Group 54277">
        <path id="Path_101379" data-name="Path 101379" d="M2187.687,907.9a1.586,1.586,0,0,0,.375,2.225,1.593,1.593,0,1,0,1.847-2.6A1.58,1.58,0,0,0,2187.687,907.9Z" fill="#fff"/>
      </g>
      <g id="Group_54278" data-name="Group 54278">
        <path id="Path_101380" data-name="Path 101380" d="M2193.5,900.2a1.6,1.6,0,0,0,2.491,2,1.628,1.628,0,0,0-.263-2.253A1.563,1.563,0,0,0,2193.5,900.2Z" fill="#fff"/>
      </g>
      <g id="Group_54279" data-name="Group 54279">
        <path id="Path_101381" data-name="Path 101381" d="M2199.737,892.842a1.621,1.621,0,0,0,.142,2.272,1.572,1.572,0,0,0,2.231-.134,1.617,1.617,0,0,0-.114-2.247A1.576,1.576,0,0,0,2199.737,892.842Z" fill="#fff"/>
      </g>
      <g id="Group_54280" data-name="Group 54280">
        <path id="Path_101382" data-name="Path 101382" d="M2206.4,885.861a1.573,1.573,0,0,0,0,2.26,1.619,1.619,0,0,0,2.251.009,1.571,1.571,0,0,0,.028-2.235A1.62,1.62,0,0,0,2206.4,885.861Z" fill="#fff"/>
      </g>
      <g id="Group_54281" data-name="Group 54281">
        <path id="Path_101383" data-name="Path 101383" d="M2213.456,879.285a1.565,1.565,0,0,0-.148,2.239,1.629,1.629,0,0,0,2.263.155,1.6,1.6,0,0,0-2.115-2.394Z" fill="#fff"/>
      </g>
      <g id="Group_54282" data-name="Group 54282">
        <path id="Path_101384" data-name="Path 101384" d="M2220.868,873.111a1.58,1.58,0,0,0-.266,2.237,1.593,1.593,0,1,0,2.5-1.968A1.583,1.583,0,0,0,2220.868,873.111Z" fill="#fff"/>
      </g>
      <g id="Group_54283" data-name="Group 54283">
        <path id="Path_101385" data-name="Path 101385" d="M2228.61,867.356a1.6,1.6,0,0,0,1.83,2.618,1.624,1.624,0,0,0,.383-2.233A1.568,1.568,0,0,0,2228.61,867.356Z" fill="#fff"/>
      </g>
      <g id="Group_54284" data-name="Group 54284">
        <path id="Path_101386" data-name="Path 101386" d="M2236.661,862.041a1.615,1.615,0,0,0-.5,2.217,1.575,1.575,0,0,0,2.181.5,1.638,1.638,0,0,0,.512-2.2A1.557,1.557,0,0,0,2236.661,862.041Z" fill="#fff"/>
      </g>
      <g id="Group_54285" data-name="Group 54285">
        <path id="Path_101387" data-name="Path 101387" d="M2245,857.194a1.607,1.607,0,0,0-.629,2.185,1.585,1.585,0,0,0,2.149.624,1.565,1.565,0,0,0,.657-2.132A1.626,1.626,0,0,0,2245,857.194Z" fill="#fff"/>
      </g>
      <g id="Group_54286" data-name="Group 54286">
        <path id="Path_101388" data-name="Path 101388" d="M2253.63,852.871a1.558,1.558,0,0,0-.774,2.1,1.636,1.636,0,0,0,2.131.791,1.582,1.582,0,0,0,.773-2.1A1.611,1.611,0,0,0,2253.63,852.871Z" fill="#fff"/>
      </g>
      <g id="Group_54287" data-name="Group 54287">
        <path id="Path_101389" data-name="Path 101389" d="M2262.485,849.04a1.572,1.572,0,0,0-.889,2.065,1.621,1.621,0,0,0,2.077.9,1.6,1.6,0,0,0-1.188-2.965Z" fill="#fff"/>
      </g>
      <g id="Group_54288" data-name="Group 54288">
        <path id="Path_101390" data-name="Path 101390" d="M2271.541,845.713a1.6,1.6,0,0,0,1.015,3.028,1.613,1.613,0,0,0,1-2.026A1.578,1.578,0,0,0,2271.541,845.713Z" fill="#fff"/>
      </g>
      <g id="Group_54289" data-name="Group 54289">
        <path id="Path_101391" data-name="Path 101391" d="M2280.77,842.9a1.6,1.6,0,0,0,.84,3.082,1.63,1.63,0,0,0,1.112-1.977A1.563,1.563,0,0,0,2280.77,842.9Z" fill="#fff"/>
      </g>
      <g id="Group_54290" data-name="Group 54290">
        <path id="Path_101392" data-name="Path 101392" d="M2290.144,840.618a1.617,1.617,0,0,0-1.222,1.919,1.571,1.571,0,0,0,1.883,1.205,1.635,1.635,0,0,0,1.226-1.9A1.555,1.555,0,0,0,2290.144,840.618Z" fill="#fff"/>
      </g>
      <g id="Group_54291" data-name="Group 54291">
        <path id="Path_101393" data-name="Path 101393" d="M2299.634,838.871a1.623,1.623,0,0,0-1.329,1.853,1.593,1.593,0,0,0,3.149-.476A1.631,1.631,0,0,0,2299.634,838.871Z" fill="#fff"/>
      </g>
      <g id="Group_54292" data-name="Group 54292">
        <path id="Path_101394" data-name="Path 101394" d="M2309.213,837.716a1.553,1.553,0,0,0-1.437,1.728,1.64,1.64,0,0,0,1.737,1.452,1.574,1.574,0,0,0,1.438-1.713A1.618,1.618,0,0,0,2309.213,837.716Z" fill="#fff"/>
      </g>
      <g id="Group_54293" data-name="Group 54293">
        <path id="Path_101395" data-name="Path 101395" d="M2318.84,837.1a1.56,1.56,0,0,0-1.533,1.635,1.633,1.633,0,0,0,1.652,1.557,1.585,1.585,0,0,0,1.533-1.638A1.606,1.606,0,0,0,2318.84,837.1Z" fill="#fff"/>
      </g>
      <g id="Group_54294" data-name="Group 54294">
        <path id="Path_101396" data-name="Path 101396" d="M2328.485,837.017a1.569,1.569,0,0,0-1.622,1.555,1.622,1.622,0,0,0,1.562,1.639,1.6,1.6,0,0,0,.06-3.194Z" fill="#fff"/>
      </g>
      <g id="Group_54295" data-name="Group 54295">
        <path id="Path_101397" data-name="Path 101397" d="M2338.12,837.472a1.58,1.58,0,0,0-1.708,1.47,1.593,1.593,0,1,0,3.177.241A1.584,1.584,0,0,0,2338.12,837.472Z" fill="#fff"/>
      </g>
      <g id="Group_54296" data-name="Group 54296">
        <path id="Path_101398" data-name="Path 101398" d="M2347.715,838.465a1.6,1.6,0,0,0-.42,3.167,1.621,1.621,0,0,0,1.791-1.384A1.573,1.573,0,0,0,2347.715,838.465Z" fill="#fff"/>
      </g>
      <g id="Group_54297" data-name="Group 54297">
        <path id="Path_101399" data-name="Path 101399" d="M2357.241,840a1.608,1.608,0,0,0-1.869,1.287,1.585,1.585,0,0,0,1.267,1.851,1.634,1.634,0,0,0,1.869-1.29A1.559,1.559,0,0,0,2357.241,840Z" fill="#fff"/>
      </g>
      <g id="Group_54298" data-name="Group 54298">
        <path id="Path_101400" data-name="Path 101400" d="M2366.665,842.064a1.622,1.622,0,0,0-1.942,1.189,1.57,1.57,0,0,0,1.162,1.909,1.623,1.623,0,0,0,1.933-1.155A1.572,1.572,0,0,0,2366.665,842.064Z" fill="#fff"/>
      </g>
      <g id="Group_54299" data-name="Group 54299">
        <path id="Path_101401" data-name="Path 101401" d="M2375.952,844.682a1.6,1.6,0,0,0-.957,3.048,1.566,1.566,0,0,0,1.988-1.015A1.624,1.624,0,0,0,2375.952,844.682Z" fill="#fff"/>
      </g>
      <g id="Group_54300" data-name="Group 54300">
        <path id="Path_101402" data-name="Path 101402" d="M2385.063,847.86a1.559,1.559,0,0,0-2.048.908,1.637,1.637,0,0,0,.917,2.079,1.582,1.582,0,0,0,2.048-.91A1.61,1.61,0,0,0,2385.063,847.86Z" fill="#fff"/>
      </g>
      <g id="Group_54301" data-name="Group 54301">
        <path id="Path_101403" data-name="Path 101403" d="M2393.979,851.546a1.573,1.573,0,0,0-2.1.8,1.619,1.619,0,0,0,.8,2.116,1.6,1.6,0,0,0,1.3-2.917Z" fill="#fff"/>
      </g>
      <g id="Group_54302" data-name="Group 54302">
        <path id="Path_101404" data-name="Path 101404" d="M2402.673,855.727a1.6,1.6,0,0,0-1.466,2.838,1.616,1.616,0,0,0,2.152-.694A1.576,1.576,0,0,0,2402.673,855.727Z" fill="#fff"/>
      </g>
      <g id="Group_54303" data-name="Group 54303">
        <path id="Path_101405" data-name="Path 101405" d="M2411.12,860.388a1.606,1.606,0,0,0-2.193.579,1.584,1.584,0,0,0,.567,2.17,1.633,1.633,0,0,0,2.2-.582A1.559,1.559,0,0,0,2411.12,860.388Z" fill="#fff"/>
      </g>
      <g id="Group_54304" data-name="Group 54304">
        <path id="Path_101406" data-name="Path 101406" d="M2419.294,865.513a1.623,1.623,0,0,0-2.23.465,1.568,1.568,0,0,0,.45,2.187,1.6,1.6,0,0,0,1.78-2.652Z" fill="#fff"/>
      </g>
      <g id="Group_54305" data-name="Group 54305">
        <path id="Path_101407" data-name="Path 101407" d="M2424.911,871.434a1.629,1.629,0,0,0,.3,2.236,1.575,1.575,0,0,0,2.218-.29,1.619,1.619,0,0,0-.29-2.257A1.563,1.563,0,0,0,2424.911,871.434Z" fill="#fff"/>
      </g>
      <g id="Group_54306" data-name="Group 54306">
        <path id="Path_101408" data-name="Path 101408" d="M2432.415,877.351a1.627,1.627,0,0,0,.168,2.261,1.6,1.6,0,0,0,2.07-2.433A1.567,1.567,0,0,0,2432.415,877.351Z" fill="#fff"/>
      </g>
      <g id="Group_54307" data-name="Group 54307">
        <path id="Path_101409" data-name="Path 101409" d="M2439.561,883.7a1.593,1.593,0,1,0,2.307,2.2,1.593,1.593,0,1,0-2.307-2.2Z" fill="#fff"/>
      </g>
      <g id="Group_54308" data-name="Group 54308">
        <path id="Path_101410" data-name="Path 101410" d="M2446.346,890.427a1.589,1.589,0,0,0-.068,2.245,1.626,1.626,0,0,0,2.266.061,1.566,1.566,0,0,0,.066-2.243A1.6,1.6,0,0,0,2446.346,890.427Z" fill="#fff"/>
      </g>
      <g id="Group_54309" data-name="Group 54309">
        <path id="Path_101411" data-name="Path 101411" d="M2452.747,897.522a1.573,1.573,0,0,0-.184,2.229,1.627,1.627,0,0,0,2.246.2,1.567,1.567,0,0,0,.206-2.247A1.619,1.619,0,0,0,2452.747,897.522Z" fill="#fff"/>
      </g>
      <g id="Group_54310" data-name="Group 54310">
        <path id="Path_101412" data-name="Path 101412" d="M2458.746,904.961a1.609,1.609,0,0,0-.322,2.223,1.57,1.57,0,0,0,2.207.345,1.622,1.622,0,0,0,.358-2.249A1.583,1.583,0,0,0,2458.746,904.961Z" fill="#fff"/>
      </g>
      <g id="Group_54311" data-name="Group 54311">
        <path id="Path_101413" data-name="Path 101413" d="M2464.3,912.736a1.631,1.631,0,0,0-.476,2.219,1.585,1.585,0,0,0,2.2.463,1.6,1.6,0,0,0,.473-2.217A1.561,1.561,0,0,0,2464.3,912.736Z" fill="#fff"/>
      </g>
      <g id="Group_54312" data-name="Group 54312">
        <path id="Path_101414" data-name="Path 101414" d="M2469.38,920.833a1.593,1.593,0,1,0,1.589,2.762,1.593,1.593,0,1,0-1.589-2.762Z" fill="#fff"/>
      </g>
      <g id="Group_54313" data-name="Group 54313">
        <path id="Path_101415" data-name="Path 101415" d="M2474,929.2a1.6,1.6,0,0,0-.7,2.139,1.621,1.621,0,0,0,2.153.7,1.571,1.571,0,0,0,.7-2.136A1.6,1.6,0,0,0,2474,929.2Z" fill="#fff"/>
      </g>
      <g id="Group_54314" data-name="Group 54314">
        <path id="Path_101416" data-name="Path 101416" d="M2478.138,937.813a1.579,1.579,0,0,0-.81,2.088,1.64,1.64,0,0,0,2.123.815,1.556,1.556,0,0,0,.807-2.088A1.611,1.611,0,0,0,2478.138,937.813Z" fill="#fff"/>
      </g>
      <g id="Group_54315" data-name="Group 54315">
        <path id="Path_101417" data-name="Path 101417" d="M2481.789,946.644a1.593,1.593,0,0,0,1.106,2.987,1.593,1.593,0,1,0-1.106-2.987Z" fill="#fff"/>
      </g>
      <g id="Group_54316" data-name="Group 54316">
        <path id="Path_101418" data-name="Path 101418" d="M2484.937,955.668a1.637,1.637,0,0,0-1.072,1.99,1.575,1.575,0,0,0,1.965,1.068,1.618,1.618,0,0,0,1.091-2A1.554,1.554,0,0,0,2484.937,955.668Z" fill="#fff"/>
      </g>
      <g id="Group_54317" data-name="Group 54317">
        <path id="Path_101419" data-name="Path 101419" d="M2487.53,964.866a1.63,1.63,0,0,0-1.2,1.928,1.6,1.6,0,0,0,3.1-.75A1.564,1.564,0,0,0,2487.53,964.866Z" fill="#fff"/>
      </g>
      <g id="Group_54318" data-name="Group 54318">
        <path id="Path_101420" data-name="Path 101420" d="M2489.577,974.2a1.593,1.593,0,1,0,.56,3.137,1.593,1.593,0,1,0-.56-3.137Z" fill="#fff"/>
      </g>
      <g id="Group_54319" data-name="Group 54319">
        <path id="Path_101421" data-name="Path 101421" d="M2491.095,983.636a1.593,1.593,0,1,0,.4,3.161,1.593,1.593,0,1,0-.4-3.161Z" fill="#fff"/>
      </g>
      <g id="Group_54320" data-name="Group 54320">
        <path id="Path_101422" data-name="Path 101422" d="M2492.079,993.141a1.588,1.588,0,0,0-1.474,1.693,1.628,1.628,0,0,0,1.715,1.484,1.564,1.564,0,0,0,1.472-1.693A1.6,1.6,0,0,0,2492.079,993.141Z" fill="#fff"/>
      </g>
      <g id="Group_54321" data-name="Group 54321">
        <path id="Path_101423" data-name="Path 101423" d="M2492.529,1002.686a1.578,1.578,0,0,0-1.558,1.608,1.641,1.641,0,0,0,1.639,1.578,1.554,1.554,0,0,0,1.555-1.608A1.614,1.614,0,0,0,2492.529,1002.686Z" fill="#fff"/>
      </g>
    </g>
    <path id="Path_101424" data-name="Path 101424" d="M2275.874,826.076a11.291,11.291,0,0,0-6.767,2.272c-2.378-5.372-7.312-9.074-13.031-9.074a14.148,14.148,0,0,0-11.923,6.966,11.216,11.216,0,0,0-5.39-1.4c-6.814,0-12.339,6.183-12.339,13.811,0,.207.02.408.027.612-.009,0-.017,0-.027,0-3.257,0-5.9,2.955-5.9,6.6s2.64,6.6,5.9,6.6h50.832v-.093c6.01-.75,10.681-6.325,10.681-13.1C2287.937,831.982,2282.536,826.076,2275.874,826.076Z" fill="#57cc99"/>
    <path id="Path_101425" data-name="Path 101425" d="M2149.515,1062.648a11.583,11.583,0,0,0-6.937,2.329c-2.437-5.506-7.5-9.3-13.359-9.3a14.5,14.5,0,0,0-12.222,7.142,11.5,11.5,0,0,0-5.526-1.436c-6.986,0-12.649,6.338-12.649,14.157,0,.212.02.419.028.629-.009,0-.018,0-.028,0-3.339,0-6.046,3.03-6.046,6.766s2.707,6.767,6.046,6.767h52.11v-.1c6.161-.77,10.95-6.484,10.95-13.429C2161.882,1068.7,2156.345,1062.648,2149.515,1062.648Z" fill="#57cc99"/>
    <g id="Group_54326" data-name="Group 54326">
      <path id="Path_101426" data-name="Path 101426" d="M2198.965,890.6a7.713,7.713,0,0,0-7.69,7.69v80.561h15.38V898.291A7.713,7.713,0,0,0,2198.965,890.6Z" fill="#878f94"/>
      <path id="Path_101427" data-name="Path 101427" d="M2110.3,898.709v89.355h80.978V898.709a7.931,7.931,0,0,1,7.69-8.108h-80.978A7.93,7.93,0,0,0,2110.3,898.709Z" fill="#e2e3e5"/>
      <g id="Group_54325" data-name="Group 54325">
        <rect id="Rectangle_5695" data-name="Rectangle 5695" width="52.484" height="2.633" transform="translate(2119.652 900.743)" fill="#a2a8ac"/>
        <rect id="Rectangle_5696" data-name="Rectangle 5696" width="24.048" height="1.207" transform="translate(2119.652 904.978)" fill="#a2a8ac"/>
        <rect id="Rectangle_5697" data-name="Rectangle 5697" width="13.203" height="12.332" transform="translate(2170.088 913.495)" fill="#ffc94a"/>
        <rect id="Rectangle_5698" data-name="Rectangle 5698" width="13.203" height="12.332" transform="translate(2170.088 929.244)" fill="#55a0cf"/>
        <rect id="Rectangle_5699" data-name="Rectangle 5699" width="13.203" height="12.333" transform="translate(2170.088 944.993)" fill="#fb6459"/>
        <g id="Group_54323" data-name="Group 54323">
          <rect id="Rectangle_5700" data-name="Rectangle 5700" width="46.727" height="43.646" transform="translate(2119.652 913.679)" fill="#57cc99"/>
          <path id="Path_101428" data-name="Path 101428" d="M2132.976,924.314a1.942,1.942,0,0,0-1.165.391,2.492,2.492,0,0,0-2.241-1.561,2.433,2.433,0,0,0-2.051,1.2,1.932,1.932,0,0,0-.928-.242,2.261,2.261,0,0,0-2.123,2.376c0,.036,0,.071,0,.106h0a1.143,1.143,0,0,0,0,2.271h8.745v-.016a2.205,2.205,0,0,0,1.838-2.253A2.179,2.179,0,0,0,2132.976,924.314Z" fill="#fff"/>
          <path id="Path_101429" data-name="Path 101429" d="M2160.017,920.4a1.955,1.955,0,0,0-1.171.393,2.505,2.505,0,0,0-2.254-1.569,2.45,2.45,0,0,0-2.063,1.205,1.932,1.932,0,0,0-.932-.243,2.273,2.273,0,0,0-2.134,2.389c0,.036,0,.071.005.106h-.005a1.149,1.149,0,0,0,0,2.283h8.793v-.016a2.219,2.219,0,0,0,1.847-2.266A2.191,2.191,0,0,0,2160.017,920.4Z" fill="#fff"/>
          <path id="Path_101430" data-name="Path 101430" d="M2152.284,929.942a1.392,1.392,0,0,0-.835.28,1.788,1.788,0,0,0-1.608-1.12,1.746,1.746,0,0,0-1.472.86,1.377,1.377,0,0,0-.665-.173,1.621,1.621,0,0,0-1.523,1.7c0,.026,0,.051,0,.076h0a.82.82,0,0,0,0,1.629h6.274v-.012a1.582,1.582,0,0,0,1.318-1.616A1.563,1.563,0,0,0,2152.284,929.942Z" fill="#fff"/>
          <path id="Path_101431" data-name="Path 101431" d="M2122.678,957.093h19.785l-.313-34.7Z" fill="#1b4561"/>
          <path id="Path_101432" data-name="Path 101432" d="M2142.462,957.093h19.255l-19.568-34.7Z" fill="#22577a"/>
          <path id="Path_101433" data-name="Path 101433" d="M2139.229,931.336l-.387,2.763,2-2.438,1.3,5.689V922.329l-5.841,10.531Z" fill="#d1d1d1"/>
          <path id="Path_101434" data-name="Path 101434" d="M2142.149,922.329V937.35l1.3-5.689,2,2.438-.387-2.763,2.92,1.524Z" fill="#fff"/>
          <path id="Path_101435" data-name="Path 101435" d="M2125.421,957.093V945.96l-6.126,11.133Z" fill="#1b4561"/>
          <path id="Path_101436" data-name="Path 101436" d="M2125.421,957.093h6.228l-6.228-11.133Z" fill="#22577a"/>
          <path id="Path_101437" data-name="Path 101437" d="M2154.6,957.093V937.1l-11.247,19.993Z" fill="#1b4561"/>
          <path id="Path_101438" data-name="Path 101438" d="M2154.6,957.093h11.657L2154.6,937.1Z" fill="#22577a"/>
        </g>
        <g id="Group_54324" data-name="Group 54324">
          <rect id="Rectangle_5701" data-name="Rectangle 5701" width="65.14" height="0.973" transform="translate(2118.86 961)" fill="#bbbfc2"/>
          <rect id="Rectangle_5702" data-name="Rectangle 5702" width="65.14" height="0.973" transform="translate(2118.86 963.755)" fill="#bbbfc2"/>
          <rect id="Rectangle_5703" data-name="Rectangle 5703" width="65.14" height="0.973" transform="translate(2118.86 966.511)" fill="#bbbfc2"/>
          <rect id="Rectangle_5704" data-name="Rectangle 5704" width="65.14" height="0.972" transform="translate(2118.86 969.266)" fill="#bbbfc2"/>
          <rect id="Rectangle_5705" data-name="Rectangle 5705" width="65.14" height="0.973" transform="translate(2118.86 972.021)" fill="#bbbfc2"/>
          <rect id="Rectangle_5706" data-name="Rectangle 5706" width="65.14" height="0.973" transform="translate(2118.86 974.777)" fill="#bbbfc2"/>
          <rect id="Rectangle_5707" data-name="Rectangle 5707" width="65.14" height="0.972" transform="translate(2118.86 977.532)" fill="#bbbfc2"/>
          <rect id="Rectangle_5708" data-name="Rectangle 5708" width="65.14" height="0.973" transform="translate(2118.86 980.287)" fill="#bbbfc2"/>
          <rect id="Rectangle_5709" data-name="Rectangle 5709" width="65.14" height="0.973" transform="translate(2118.86 983.042)" fill="#bbbfc2"/>
        </g>
      </g>
    </g>
    <g id="Group_54327" data-name="Group 54327">
      <path id="Path_101439" data-name="Path 101439" d="M2387.622,863.751h-41.508l-5.843,14.067a2.334,2.334,0,0,0,2.156,3.229h48.882a2.333,2.333,0,0,0,2.155-3.229Z" fill="#8b9398"/>
      <path id="Path_101440" data-name="Path 101440" d="M2366.868,823.668a25.76,25.76,0,1,0,25.76,25.76A25.76,25.76,0,0,0,2366.868,823.668Z" fill="#a2a8ac"/>
      <circle id="Ellipse_4063" data-name="Ellipse 4063" cx="21.045" cy="21.045" r="21.045" transform="translate(2347.145 825.397)" fill="#bbbfc2"/>
      <path id="Path_101441" data-name="Path 101441" d="M2366.868,836.822a12.743,12.743,0,1,0,12.743,12.743A12.743,12.743,0,0,0,2366.868,836.822Z" fill="#a2a8ac"/>
      <path id="Path_101442" data-name="Path 101442" d="M2366.868,838.652a10.776,10.776,0,1,0,10.776,10.776A10.776,10.776,0,0,0,2366.868,838.652Z" fill="#bbbfc2"/>
      <path id="Path_101443" data-name="Path 101443" d="M2366.868,841.542a7.986,7.986,0,1,0,7.986,7.986A7.985,7.985,0,0,0,2366.868,841.542Z" fill="#2b2b2b"/>
      <path id="Path_101444" data-name="Path 101444" d="M2367.4,843.625c-1.027,1.081-.531,3.219,1.108,4.774s3.8,1.941,4.825.859.53-3.218-1.108-4.774S2368.429,842.544,2367.4,843.625Z" fill="#555e66"/>
      <path id="Path_101445" data-name="Path 101445" d="M2366.868,828.667a2.395,2.395,0,1,0,2.4,2.4A2.395,2.395,0,0,0,2366.868,828.667Z" fill="#e73901"/>
    </g>
    <path id="Path_101446" data-name="Path 101446" d="M2527.886,1020.5c-.017,0-.032.005-.048.005.014-.351.048-.7.048-1.051,0-13.081-9.475-23.686-21.163-23.686a19.227,19.227,0,0,0-9.244,2.4c-4.511-7.217-11.981-11.948-20.448-11.948-9.809,0-18.272,6.35-22.35,15.562a19.373,19.373,0,0,0-11.606-3.9c-11.427,0-20.69,10.13-20.69,22.625,0,11.619,8.011,21.18,18.32,22.467v.16h87.181c5.586,0,10.114-5.069,10.114-11.321S2533.472,1020.5,2527.886,1020.5Z" fill="#57cc99"/>
    <g id="Group_54334" data-name="Group 54334">
      <path id="Path_101447" data-name="Path 101447" d="M2418.072,888.528a15.625,15.625,0,0,0-15.579,15.579v151.828h31.157V904.107A15.624,15.624,0,0,0,2418.072,888.528Z" fill="#878f94"/>
      <g id="Group_54328" data-name="Group 54328">
        <rect id="Rectangle_5710" data-name="Rectangle 5710" width="251.522" height="175.609" rx="10.42" transform="translate(2197.153 919.014)" fill="#cdd0d2"/>
        <rect id="Rectangle_5711" data-name="Rectangle 5711" width="84.053" height="28.495" transform="translate(2280.887 1094.623)" fill="#a2a8ac"/>
        <path id="Path_101448" data-name="Path 101448" d="M2371.236,1123.118h-96.645a13.415,13.415,0,0,0-11.343,6.251l-3.692,5.847h126.716l-3.693-5.847A13.415,13.415,0,0,0,2371.236,1123.118Z" fill="#cdd0d2"/>
        <path id="Path_101449" data-name="Path 101449" d="M2437.578,919.651H2208.106a10.42,10.42,0,0,0-10.42,10.42v135.565H2448V930.071A10.42,10.42,0,0,0,2437.578,919.651Z" fill="#112c3d"/>
        <rect id="Rectangle_5712" data-name="Rectangle 5712" width="232.866" height="127.923" transform="translate(2206.409 927.539)" fill="#475059"/>
        <path id="Path_101450" data-name="Path 101450" d="M2439.275,1055.462V927.539l-232.866,127.923Z" fill="#555e66"/>
        <path id="Path_101451" data-name="Path 101451" d="M2280.887,1123.118l84.052-19.142v-9.353h-84.052Z" fill="#8b9398"/>
        <rect id="Rectangle_5713" data-name="Rectangle 5713" width="251.478" height="3.278" transform="translate(2197.153 1065.636)" fill="#fff"/>
      </g>
      <path id="Path_101452" data-name="Path 101452" d="M2238.448,904.953v150.692h164.045V904.953c0-9.034,7.01-16.425,15.579-16.425H2254.026C2245.458,888.528,2238.448,895.919,2238.448,904.953Z" fill="#e2e3e5"/>
      <g id="Group_54329" data-name="Group 54329">
        <rect id="Rectangle_5714" data-name="Rectangle 5714" width="134.768" height="2.309" transform="translate(2256.13 980.813)" fill="#bbbfc2"/>
        <rect id="Rectangle_5715" data-name="Rectangle 5715" width="134.768" height="2.309" transform="translate(2256.13 987.355)" fill="#bbbfc2"/>
        <rect id="Rectangle_5716" data-name="Rectangle 5716" width="134.768" height="2.309" transform="translate(2256.13 993.897)" fill="#bbbfc2"/>
        <rect id="Rectangle_5717" data-name="Rectangle 5717" width="134.768" height="2.309" transform="translate(2256.13 1000.439)" fill="#bbbfc2"/>
        <rect id="Rectangle_5718" data-name="Rectangle 5718" width="134.768" height="2.309" transform="translate(2256.13 1006.981)" fill="#bbbfc2"/>
        <rect id="Rectangle_5719" data-name="Rectangle 5719" width="134.768" height="2.309" transform="translate(2256.13 1013.524)" fill="#bbbfc2"/>
        <rect id="Rectangle_5720" data-name="Rectangle 5720" width="134.768" height="2.309" transform="translate(2256.13 1020.065)" fill="#bbbfc2"/>
        <rect id="Rectangle_5721" data-name="Rectangle 5721" width="134.768" height="2.309" transform="translate(2256.13 1026.607)" fill="#bbbfc2"/>
        <rect id="Rectangle_5722" data-name="Rectangle 5722" width="134.768" height="2.309" transform="translate(2256.13 1033.15)" fill="#bbbfc2"/>
        <rect id="Rectangle_5723" data-name="Rectangle 5723" width="134.768" height="2.309" transform="translate(2256.13 1039.691)" fill="#bbbfc2"/>
        <rect id="Rectangle_5724" data-name="Rectangle 5724" width="134.768" height="2.309" transform="translate(2256.13 1046.233)" fill="#bbbfc2"/>
      </g>
      <g id="Group_54331" data-name="Group 54331">
        <rect id="Rectangle_5725" data-name="Rectangle 5725" width="163.301" height="128.113" transform="translate(2231.584 879.615)" fill="#ffc94a"/>
        <g id="Group_54330" data-name="Group 54330">
          <rect id="Rectangle_5726" data-name="Rectangle 5726" width="140.802" height="3.144" transform="translate(2244.621 898.251)" fill="#fff"/>
          <rect id="Rectangle_5727" data-name="Rectangle 5727" width="140.802" height="3.144" transform="translate(2244.621 907.16)" fill="#fff"/>
          <rect id="Rectangle_5728" data-name="Rectangle 5728" width="140.802" height="3.144" transform="translate(2244.621 916.068)" fill="#fff"/>
          <rect id="Rectangle_5729" data-name="Rectangle 5729" width="140.802" height="3.144" transform="translate(2244.621 924.977)" fill="#fff"/>
          <rect id="Rectangle_5730" data-name="Rectangle 5730" width="140.802" height="3.144" transform="translate(2244.621 933.886)" fill="#fff"/>
          <rect id="Rectangle_5731" data-name="Rectangle 5731" width="140.802" height="3.144" transform="translate(2244.621 942.795)" fill="#fff"/>
          <rect id="Rectangle_5732" data-name="Rectangle 5732" width="140.802" height="3.144" transform="translate(2244.621 951.703)" fill="#fff"/>
          <rect id="Rectangle_5733" data-name="Rectangle 5733" width="90.738" height="3.144" transform="translate(2244.621 960.612)" fill="#fff"/>
          <rect id="Rectangle_5734" data-name="Rectangle 5734" width="78.893" height="3.144" transform="translate(2244.621 969.521)" fill="#fff"/>
          <rect id="Rectangle_5735" data-name="Rectangle 5735" width="78.893" height="3.144" transform="translate(2244.621 978.43)" fill="#fff"/>
          <rect id="Rectangle_5736" data-name="Rectangle 5736" width="22.275" height="3.144" transform="translate(2244.621 987.339)" fill="#fff"/>
        </g>
      </g>
      <g id="Group_54333" data-name="Group 54333">
        <path id="Path_101453" data-name="Path 101453" d="M2255.763,870.9a29.018,29.018,0,1,0,29.018,29.018A29.019,29.019,0,0,0,2255.763,870.9Z" fill="#55a0cf"/>
        <g id="Group_54332" data-name="Group 54332">
          <path id="Path_101454" data-name="Path 101454" d="M2252.144,887.619l1.081,15.764h4.946l1.083-15.764.257-6.852h-7.624Z" fill="#fff"/>
          <path id="Path_101455" data-name="Path 101455" d="M2255.7,906.37a4.769,4.769,0,1,0,4.585,4.79A4.581,4.581,0,0,0,2255.7,906.37Z" fill="#fff"/>
        </g>
      </g>
      <path id="Path_101456" data-name="Path 101456" d="M2411.879,965.743H2358.34a15.065,15.065,0,1,0,0,30.13h40.114a10.01,10.01,0,1,0,0-20.021h-27.007a2.272,2.272,0,1,0,0,4.545h27.007a5.465,5.465,0,0,1,0,10.93H2358.34a10.52,10.52,0,0,1,0-21.039h53.539a12.272,12.272,0,0,1,12.254,12.26v2.605a12.27,12.27,0,0,1-12.254,12.256h-9.386v4.546h9.386a16.821,16.821,0,0,0,16.8-16.8v-2.605A16.821,16.821,0,0,0,2411.879,965.743Z" fill="#55a0cf"/>
    </g>
    <g id="Group_54343" data-name="Group 54343">
      <path id="Path_101457" data-name="Path 101457" d="M2213.606,1145.8a15.463,15.463,0,1,0,30.926,0v-21.393h-30.926Z" fill="#878f94"/>
      <g id="Group_54335" data-name="Group 54335">
        <path id="Path_101458" data-name="Path 101458" d="M2257.227,1096.472s-6.894-.107-10.574,4.776c-2.986,3.962-3,9.969-3,9.969a18.576,18.576,0,0,1-3.545-9.384c-.512-6.835,4.165-10.363.562-16.592-2.289-3.957-7.858-4.923-7.858-4.923s1.828,3.562,1.188,5.094c-1.877,4.5-3.066,5.578-8.018,10.715s-5.04,16.112-5.04,16.112-1.617-5.849-4.576-9.126a6.926,6.926,0,0,0-7.008-2.028,19.287,19.287,0,0,1,2.142,8.676c-.086,4.663-4.854,12.959.321,24.289s16.074,13.967,23.276,14.078c6.129.094,18.886-2.179,22.956-15.041,3.269-10.331-1.513-18.516-2.422-24.841A23.258,23.258,0,0,1,2257.227,1096.472Z" fill="#dd5d00"/>
        <path id="Path_101459" data-name="Path 101459" d="M2250.671,1079.941a7.256,7.256,0,0,1-1.736,4.974c-.848.917-2.478,1.344-2.9,2.178-.843,1.683.465,7.6.465,7.6s1.424-2.108,5.608-3.71c1.571-.6,1.706-3.4.64-6.566A36.874,36.874,0,0,0,2250.671,1079.941Z" fill="#dd5d00"/>
        <path id="Path_101460" data-name="Path 101460" d="M2219.778,1086.632a27.113,27.113,0,0,0-2.687,2.66c-1.6,2-2.235,4.078-1.247,4.974a9.972,9.972,0,0,1,3.12,4.335s2.5-3.935,2.324-5.408c-.087-.729-1.164-1.514-1.543-2.429A5.727,5.727,0,0,1,2219.778,1086.632Z" fill="#dd5d00"/>
        <path id="Path_101461" data-name="Path 101461" d="M2229.224,1075.732a17.539,17.539,0,0,0-1.739,1.722c-1.039,1.294-1.448,2.641-.808,3.221a6.458,6.458,0,0,1,2.02,2.807s1.619-2.548,1.5-3.5c-.056-.473-.754-.981-1-1.573A3.712,3.712,0,0,1,2229.224,1075.732Z" fill="#dd5d00"/>
        <path id="Path_101462" data-name="Path 101462" d="M2250.724,1112.993a10.187,10.187,0,0,0-5.511,5.266,19.506,19.506,0,0,0-1.413,5.226s-2.971-.56-5.365-5.378c-1.546-3.111-1.084-6-1.476-9.545-.35-3.162-3.97-8.91-3.97-8.91s.041,2.985-3.258,6.33a17.779,17.779,0,0,0-4.588,7.235,38.011,38.011,0,0,0-.858,9.142,7.032,7.032,0,0,1-3.508-1.539c-1.4-1.079-4.805-5.686-4.805-5.686s-1.756,6.62-1.812,9.644-.3,6.282,3.341,13.634,12.415,9.636,17.465,9.714c4.3.066,14.72-1.969,17.562-10.307,2.282-6.7,1.311-10.64-.126-14.5C2250.9,1119.273,2250.724,1112.993,2250.724,1112.993Z" fill="#ff7c00"/>
        <path id="Path_101463" data-name="Path 101463" d="M2243.4,1128.059a5.813,5.813,0,0,0-3.147,3.006,11.12,11.12,0,0,0-.807,2.984s-1.7-.32-3.063-3.071c-.883-1.776-.619-3.426-.843-5.449-.2-1.806-2.266-5.087-2.266-5.087a5.577,5.577,0,0,1-1.86,3.613,10.163,10.163,0,0,0-2.62,4.131,21.664,21.664,0,0,0-.489,5.22,4.021,4.021,0,0,1-2-.879,27.263,27.263,0,0,1-2.742-3.246,34.549,34.549,0,0,0-1.035,5.506c-.033,1.726-.171,3.587,1.907,7.784s7.088,5.5,9.971,5.546c2.454.038,8.4-1.124,10.027-5.884a10.88,10.88,0,0,0-.072-8.279A22.7,22.7,0,0,1,2243.4,1128.059Z" fill="#ffc94a"/>
      </g>
      <path id="Path_101464" data-name="Path 101464" d="M2213.606,1143.484v-79.167h-.209l-4.176-3.6-4.177,3.6-4.177-3.6-4.177,3.6-4.176-3.6-4.177,3.6-4.177-3.6-4.177,3.6-4.176-3.6-4.177,3.6-4.177-3.6-4.176,3.6-4.177-3.6-4.177,3.6-4.177-3.6-4.176,3.6-4.177-3.6-4.177,3.6v79.167c0,9.78,6.958,17.781,15.463,17.781h75.39C2220.565,1161.265,2213.606,1153.264,2213.606,1143.484Z" fill="#e2e3e5"/>
      <g id="Group_54342" data-name="Group 54342">
        <g id="Group_54336" data-name="Group 54336">
          <rect id="Rectangle_5737" data-name="Rectangle 5737" width="23.031" height="1.463" transform="translate(2144.423 1107.054)" fill="#bbbfc2"/>
          <rect id="Rectangle_5738" data-name="Rectangle 5738" width="23.031" height="1.463" transform="translate(2144.423 1111.2)" fill="#bbbfc2"/>
          <rect id="Rectangle_5739" data-name="Rectangle 5739" width="23.031" height="1.463" transform="translate(2144.423 1115.345)" fill="#bbbfc2"/>
          <rect id="Rectangle_5740" data-name="Rectangle 5740" width="23.031" height="1.463" transform="translate(2144.423 1119.491)" fill="#bbbfc2"/>
          <rect id="Rectangle_5741" data-name="Rectangle 5741" width="23.031" height="1.463" transform="translate(2144.423 1123.637)" fill="#bbbfc2"/>
          <rect id="Rectangle_5742" data-name="Rectangle 5742" width="23.031" height="1.463" transform="translate(2144.423 1127.783)" fill="#bbbfc2"/>
          <rect id="Rectangle_5743" data-name="Rectangle 5743" width="23.031" height="1.463" transform="translate(2144.423 1131.929)" fill="#bbbfc2"/>
          <rect id="Rectangle_5744" data-name="Rectangle 5744" width="23.031" height="1.463" transform="translate(2144.423 1136.074)" fill="#bbbfc2"/>
          <rect id="Rectangle_5745" data-name="Rectangle 5745" width="23.031" height="1.463" transform="translate(2144.423 1140.22)" fill="#bbbfc2"/>
          <rect id="Rectangle_5746" data-name="Rectangle 5746" width="23.031" height="1.463" transform="translate(2144.423 1144.366)" fill="#bbbfc2"/>
          <rect id="Rectangle_5747" data-name="Rectangle 5747" width="23.031" height="1.463" transform="translate(2144.423 1148.512)" fill="#bbbfc2"/>
        </g>
        <rect id="Rectangle_5748" data-name="Rectangle 5748" width="64.805" height="3.914" transform="translate(2143.369 1074.549)" fill="#fb6459"/>
        <rect id="Rectangle_5749" data-name="Rectangle 5749" width="64.805" height="20.74" transform="translate(2143.369 1082.224)" fill="#55a0cf"/>
        <g id="Group_54341" data-name="Group 54341">
          <rect id="Rectangle_5750" data-name="Rectangle 5750" width="8.693" height="8.132" transform="translate(2174.11 1106.865)" fill="#55a0cf"/>
          <rect id="Rectangle_5751" data-name="Rectangle 5751" width="8.693" height="8.132" transform="translate(2174.11 1118.525)" fill="#ffc94a"/>
          <rect id="Rectangle_5752" data-name="Rectangle 5752" width="8.693" height="8.132" transform="translate(2174.11 1130.184)" fill="#55a0cf"/>
          <rect id="Rectangle_5753" data-name="Rectangle 5753" width="8.693" height="8.132" transform="translate(2174.11 1141.844)" fill="#ffc94a"/>
          <g id="Group_54337" data-name="Group 54337">
            <rect id="Rectangle_5754" data-name="Rectangle 5754" width="23.031" height="1.463" transform="translate(2184.884 1106.967)" fill="#bbbfc2"/>
            <rect id="Rectangle_5755" data-name="Rectangle 5755" width="23.031" height="1.463" transform="translate(2184.884 1111.113)" fill="#bbbfc2"/>
          </g>
          <g id="Group_54338" data-name="Group 54338">
            <rect id="Rectangle_5756" data-name="Rectangle 5756" width="23.03" height="1.463" transform="translate(2185.175 1118.505)" fill="#bbbfc2"/>
            <rect id="Rectangle_5757" data-name="Rectangle 5757" width="23.03" height="1.463" transform="translate(2185.175 1122.651)" fill="#bbbfc2"/>
          </g>
          <g id="Group_54339" data-name="Group 54339">
            <rect id="Rectangle_5758" data-name="Rectangle 5758" width="23.031" height="1.463" transform="translate(2185.466 1130.042)" fill="#bbbfc2"/>
            <rect id="Rectangle_5759" data-name="Rectangle 5759" width="23.031" height="1.463" transform="translate(2185.466 1134.188)" fill="#bbbfc2"/>
          </g>
          <g id="Group_54340" data-name="Group 54340">
            <rect id="Rectangle_5760" data-name="Rectangle 5760" width="23.03" height="1.463" transform="translate(2185.757 1141.58)" fill="#bbbfc2"/>
            <rect id="Rectangle_5761" data-name="Rectangle 5761" width="23.03" height="1.463" transform="translate(2185.757 1145.726)" fill="#bbbfc2"/>
          </g>
        </g>
      </g>
    </g>
    <g id="Group_54350" data-name="Group 54350">
      <path id="Path_101465" data-name="Path 101465" d="M2512.932,894.475a5.979,5.979,0,0,0-5.962,5.962v58.106H2518.9V900.437A5.98,5.98,0,0,0,2512.932,894.475Z" fill="#878f94"/>
      <g id="Group_54344" data-name="Group 54344">
        <path id="Path_101466" data-name="Path 101466" d="M2521.23,910.9h-87.822a3.988,3.988,0,0,0-3.988,3.987v49.9a4.89,4.89,0,0,0,4.89,4.89h86.019a4.889,4.889,0,0,0,4.889-4.89V914.892A3.987,3.987,0,0,0,2521.23,910.9Z" fill="#fb6459"/>
        <path id="Path_101467" data-name="Path 101467" d="M2437.66,982.121l26.111-12.446H2437.66Z" fill="#fb6459"/>
      </g>
      <path id="Path_101468" data-name="Path 101468" d="M2444.188,900.76v64.925h62.782V900.76a6.148,6.148,0,0,1,5.962-6.285H2450.15A6.148,6.148,0,0,0,2444.188,900.76Z" fill="#e2e3e5"/>
      <g id="Group_54346" data-name="Group 54346">
        <g id="Group_54345" data-name="Group 54345">
          <rect id="Rectangle_5762" data-name="Rectangle 5762" width="32.662" height="0.849" transform="translate(2463.077 937.996)" fill="#a2a8ac"/>
          <rect id="Rectangle_5763" data-name="Rectangle 5763" width="32.662" height="0.849" transform="translate(2463.077 940.402)" fill="#a2a8ac"/>
          <rect id="Rectangle_5764" data-name="Rectangle 5764" width="32.662" height="0.849" transform="translate(2463.077 942.807)" fill="#a2a8ac"/>
          <rect id="Rectangle_5765" data-name="Rectangle 5765" width="32.662" height="0.849" transform="translate(2463.077 945.213)" fill="#a2a8ac"/>
          <rect id="Rectangle_5766" data-name="Rectangle 5766" width="32.662" height="0.849" transform="translate(2463.077 947.618)" fill="#a2a8ac"/>
          <rect id="Rectangle_5767" data-name="Rectangle 5767" width="32.662" height="0.849" transform="translate(2463.077 950.024)" fill="#a2a8ac"/>
          <rect id="Rectangle_5768" data-name="Rectangle 5768" width="32.662" height="0.849" transform="translate(2463.077 952.429)" fill="#a2a8ac"/>
          <rect id="Rectangle_5769" data-name="Rectangle 5769" width="32.662" height="0.849" transform="translate(2463.077 954.835)" fill="#a2a8ac"/>
          <rect id="Rectangle_5770" data-name="Rectangle 5770" width="32.662" height="0.849" transform="translate(2463.077 957.24)" fill="#a2a8ac"/>
          <rect id="Rectangle_5771" data-name="Rectangle 5771" width="32.662" height="0.849" transform="translate(2463.077 959.646)" fill="#a2a8ac"/>
          <rect id="Rectangle_5772" data-name="Rectangle 5772" width="32.662" height="0.849" transform="translate(2463.077 962.052)" fill="#a2a8ac"/>
        </g>
        <rect id="Rectangle_5773" data-name="Rectangle 5773" width="9.287" height="6.823" transform="translate(2451.441 937.996)" fill="#cfd2d4"/>
        <rect id="Rectangle_5774" data-name="Rectangle 5774" width="9.287" height="6.823" transform="translate(2451.441 947.008)" fill="#cfd2d4"/>
        <rect id="Rectangle_5775" data-name="Rectangle 5775" width="9.287" height="6.823" transform="translate(2451.441 956.02)" fill="#cfd2d4"/>
      </g>
      <g id="Group_54349" data-name="Group 54349">
        <rect id="Rectangle_5776" data-name="Rectangle 5776" width="44.706" height="28.337" transform="translate(2451.441 906.559)" fill="#1b4561"/>
        <rect id="Rectangle_5777" data-name="Rectangle 5777" width="44.638" height="4.385" transform="translate(2451.441 930.511)" fill="#22577a"/>
        <path id="Path_101469" data-name="Path 101469" d="M2471.739,923.317l7.24-4.257-7.24-4.257Z" fill="#e2e3e5"/>
        <g id="Group_54348" data-name="Group 54348">
          <rect id="Rectangle_5778" data-name="Rectangle 5778" width="41.643" height="0.763" transform="translate(2452.972 931.549)" fill="#fb6459"/>
          <g id="Group_54347" data-name="Group 54347">
            <path id="Path_101470" data-name="Path 101470" d="M2453.964,933.129a.544.544,0,1,0,.545.545A.545.545,0,0,0,2453.964,933.129Z" fill="#e2e3e5"/>
            <path id="Path_101471" data-name="Path 101471" d="M2456.365,933.129a.545.545,0,1,0,.529.545A.537.537,0,0,0,2456.365,933.129Z" fill="#e2e3e5"/>
            <path id="Path_101472" data-name="Path 101472" d="M2494.066,933.129a.545.545,0,1,0,.529.545A.537.537,0,0,0,2494.066,933.129Z" fill="#e2e3e5"/>
            <path id="Path_101473" data-name="Path 101473" d="M2492.615,933.129a.545.545,0,1,0,.529.545A.537.537,0,0,0,2492.615,933.129Z" fill="#e2e3e5"/>
            <rect id="Rectangle_5779" data-name="Rectangle 5779" width="4.654" height="0.484" transform="translate(2457.226 933.432)" fill="#e2e3e5"/>
          </g>
        </g>
      </g>
    </g>
    <g id="Group_54351" data-name="Group 54351">
      <path id="Path_101474" data-name="Path 101474" d="M2510.255,1084.222h-3.592c-3.591,0-23.891-7.774-35.915-7.652-15.3.156-42.318,7.652-42.318,7.652h-20.145a7.517,7.517,0,0,0-7.495,7.495v54.5a7.517,7.517,0,0,0,7.495,7.5h101.97a7.517,7.517,0,0,0,7.5-7.5v-54.5A7.517,7.517,0,0,0,2510.255,1084.222Z" fill="#112c3d"/>
      <path id="Path_101475" data-name="Path 101475" d="M2454.82,1073.916l-14.318,22.219,61.984,4.925-13.625-27.144Z" fill="#112c3d"/>
      <path id="Path_101476" data-name="Path 101476" d="M2483.37,1067.773h-22.881a6.143,6.143,0,1,0,0,12.285h22.881a6.143,6.143,0,1,0,0-12.285Z" fill="#0b1d29"/>
      <circle id="Ellipse_4064" data-name="Ellipse 4064" cx="36.453" cy="36.453" r="36.453" transform="translate(2417.605 1128.407) rotate(-45)" fill="#0b1d29"/>
      <path id="Path_101477" data-name="Path 101477" d="M2414.786,1085.565c-3.536,0-6.4,2.167-6.4,4.841s2.866,4.841,6.4,4.841,6.4-2.167,6.4-4.841S2418.322,1085.565,2414.786,1085.565Z" fill="#0b1d29"/>
      <path id="Path_101478" data-name="Path 101478" d="M2445.858,1074.073l-16.6,3.773a2.967,2.967,0,1,0,1.315,5.786l16.6-3.772a2.967,2.967,0,0,0-1.315-5.787Z" fill="#1f1f1f"/>
      <circle id="Ellipse_4065" data-name="Ellipse 4065" cx="34.476" cy="34.476" r="34.476" transform="translate(2434.682 1093.932)" fill="#a2a8ac"/>
      <circle id="Ellipse_4066" data-name="Ellipse 4066" cx="30.197" cy="30.197" r="30.197" transform="translate(2436.902 1156.396) rotate(-85.949)" fill="#2b2b2b"/>
      <path id="Path_101479" data-name="Path 101479" d="M2483.887,1070.346h-23.715a2.737,2.737,0,1,0,0,5.474h23.715a2.737,2.737,0,1,0,0-5.474Z" fill="#f0f0f0"/>
      <path id="Path_101480" data-name="Path 101480" d="M2415.188,1086.157c-2.752,0-4.983,1.415-4.983,3.161s2.231,3.16,4.983,3.16,4.984-1.415,4.984-3.16S2417.941,1086.157,2415.188,1086.157Z" fill="#797778"/>
      <path id="Path_101481" data-name="Path 101481" d="M2475.948,1104.966c-3.624,3.05-2.457,10.4,2.608,16.417s12.107,8.422,15.731,5.371,2.456-10.4-2.608-16.417S2479.572,1101.916,2475.948,1104.966Z" fill="#d3c9e0" style="mix-blend-mode: soft-light;isolation: isolate"/>
      <path id="Path_101482" data-name="Path 101482" d="M2446.467,1139.762c-1.88,2.027-.246,6.6,3.649,10.211s8.576,4.9,10.456,2.872.247-6.6-3.648-10.212S2448.347,1137.734,2446.467,1139.762Z" fill="#d3c9e0" style="mix-blend-mode: soft-light;isolation: isolate"/>
    </g>
  </g>
</svg>
