<svg xmlns="http://www.w3.org/2000/svg" width="100" height="100" viewBox="0 0 100 100">
  <g id="t1-i4" transform="translate(-1059 -2242)">
    <rect id="Rectangle_5572" data-name="Rectangle 5572" width="100" height="100" transform="translate(1159 2342) rotate(180)" fill="none"/>
    <g id="Page-1" transform="translate(-2845.357 2926.893)">
      <g id="_047---Layout" data-name="047---Layout" transform="translate(3904.357 -684.893)">
        <rect id="Rectangle-path" width="46.667" height="96.667" rx="8.533" transform="translate(1.667 1.667)" fill="#c7f9cc"/>
        <path id="Shape" d="M4122.69-676.36h-5a1.667,1.667,0,0,1,1.667,1.667v93.333a1.667,1.667,0,0,1-1.667,1.667h5a1.667,1.667,0,0,0,1.667-1.667v-93.333A1.667,1.667,0,0,0,4122.69-676.36Z" transform="translate(-4076.023 678.027)" fill="#80ed99"/>
        <rect id="Rectangle-path-2" data-name="Rectangle-path" width="43.333" height="53.333" rx="8.533" transform="translate(55 45)" fill="#80ed99"/>
        <path id="Shape-2" data-name="Shape" d="M4378.69-454.493h-5a1.667,1.667,0,0,1,1.667,1.667v50a1.667,1.667,0,0,1-1.667,1.667h5a1.667,1.667,0,0,0,1.667-1.667v-50A1.667,1.667,0,0,0,4378.69-454.493Z" transform="translate(-4282.023 499.493)" fill="#66bd7a"/>
        <path id="Shape-3" data-name="Shape" d="M4310.111-589.76v3.333a1.667,1.667,0,0,1-1.667,1.667h-11.667l-10.383-12.683,8.717-10.65Z" transform="translate(-4211.777 623.093)" fill="#57cc99"/>
        <path id="Shape-4" data-name="Shape" d="M4320.724-608.093l-2.5,3.055,12.5,15.278v3.333a1.667,1.667,0,0,1-1.667,1.667h5a1.667,1.667,0,0,0,1.667-1.667v-3.333Z" transform="translate(-4237.391 623.093)" fill="#46a37a"/>
        <path id="Shape-5" data-name="Shape" d="M4217.742-564.16h-28.333a1.686,1.686,0,0,1-1.233-.533l14.566-17.8,4.617,5.65Z" transform="translate(-4132.742 602.493)" fill="#80ed99"/>
        <path id="Shape-6" data-name="Shape" d="M4229.291-674.693v30l-15-18.333-8.717,10.65-4.617-5.65-14.567,17.8a1.708,1.708,0,0,1-.433-1.133v-33.333a1.667,1.667,0,0,1,1.667-1.667h40a1.667,1.667,0,0,1,1.667,1.667Z" transform="translate(-4130.957 678.027)" fill="#c7f9cc"/>
        <path id="Shape-7" data-name="Shape" d="M4378.69-676.36h-5a1.667,1.667,0,0,1,1.667,1.667V-650.8l5,6.112v-30A1.667,1.667,0,0,0,4378.69-676.36Z" transform="translate(-4282.023 678.027)" fill="#80ed99"/>
        <circle id="Oval" cx="3.333" cy="3.333" r="3.333" transform="translate(61.667 8.333)" fill="#ffc94a"/>
        <circle id="Oval-2" data-name="Oval" cx="10" cy="10" r="10" transform="translate(66.667 71.667)" fill="#ffc94a"/>
        <path id="Shape-8" data-name="Shape" d="M4286.59-317.96a9.979,9.979,0,0,0-2.5.333,9.986,9.986,0,0,1,7.5,9.672,9.986,9.986,0,0,1-7.5,9.672,10,10,0,0,0,10.217-3.289,10,10,0,0,0,1.353-10.647,10,10,0,0,0-9.069-5.74Z" transform="translate(-4209.923 389.627)" fill="#d9ab3e"/>
        <g id="Group_54354" data-name="Group 54354">
          <path id="Shape-9" data-name="Shape" d="M3951.023-684.893H3907.69a3.333,3.333,0,0,0-3.333,3.333v93.333a3.333,3.333,0,0,0,3.333,3.333h43.333a3.333,3.333,0,0,0,3.333-3.333V-681.56A3.333,3.333,0,0,0,3951.023-684.893Zm-43.333,96.667V-681.56h43.333v93.333Z" transform="translate(-3904.357 684.893)"/>
          <path id="Shape-10" data-name="Shape" d="M4220.757-463.026h-40a3.333,3.333,0,0,0-3.333,3.333v50a3.333,3.333,0,0,0,3.333,3.333h40a3.333,3.333,0,0,0,3.333-3.333v-50A3.333,3.333,0,0,0,4220.757-463.026Zm0,53.333h-40v-50h40Z" transform="translate(-4124.09 506.359)"/>
          <path id="Shape-11" data-name="Shape" d="M4220.757-684.893h-40a3.333,3.333,0,0,0-3.333,3.333v33.333a3.333,3.333,0,0,0,3.333,3.333h40a3.333,3.333,0,0,0,3.333-3.333V-681.56A3.333,3.333,0,0,0,4220.757-684.893Zm0,3.333v25.333l-12.043-14.721a1.666,1.666,0,0,0-1.289-.61,1.666,1.666,0,0,0-1.289.61l-7.425,9.07-3.333-4.068a1.668,1.668,0,0,0-1.29-.61,1.666,1.666,0,0,0-1.289.61l-12.042,14.72V-681.56Zm-15.183,33.333H4182.6l11.487-14.033Zm4.307,0-9.017-11.021,6.56-8.013,13.333,16.3v2.738Z" transform="translate(-4124.09 684.893)"/>
          <path id="Shape-12" data-name="Shape" d="M3974.291-644.093a1.667,1.667,0,0,0,1.667-1.667v-1.667h6.667v16.667h-1.667a1.667,1.667,0,0,0-1.667,1.667,1.666,1.666,0,0,0,1.667,1.667h6.667a1.666,1.666,0,0,0,1.667-1.667,1.667,1.667,0,0,0-1.667-1.667h-1.667v-16.667h6.667v1.667a1.667,1.667,0,0,0,1.667,1.667,1.667,1.667,0,0,0,1.667-1.667v-3.333a1.667,1.667,0,0,0-1.667-1.667h-20a1.667,1.667,0,0,0-1.667,1.667v3.333A1.667,1.667,0,0,0,3974.291-644.093Z" transform="translate(-3959.291 657.427)"/>
          <path id="Shape-13" data-name="Shape" d="M3973.49-505.693h-33.333a1.667,1.667,0,0,0-1.667,1.667,1.667,1.667,0,0,0,1.667,1.667h33.333a1.667,1.667,0,0,0,1.667-1.667A1.667,1.667,0,0,0,3973.49-505.693Z" transform="translate(-3931.823 540.693)"/>
          <path id="Shape-14" data-name="Shape" d="M3940.157-459.693h11.667a1.666,1.666,0,0,0,1.667-1.667,1.666,1.666,0,0,0-1.667-1.667h-11.667a1.667,1.667,0,0,0-1.667,1.667A1.667,1.667,0,0,0,3940.157-459.693Z" transform="translate(-3931.823 506.359)"/>
          <path id="Shape-15" data-name="Shape" d="M4039.023-459.693a1.667,1.667,0,0,0,1.667-1.667,1.667,1.667,0,0,0-1.667-1.667h-5a1.666,1.666,0,0,0-1.667,1.667,1.666,1.666,0,0,0,1.667,1.667Z" transform="translate(-4007.357 506.359)"/>
          <path id="Shape-16" data-name="Shape" d="M3973.49-420.36h-33.333a1.667,1.667,0,0,0-1.667,1.667,1.667,1.667,0,0,0,1.667,1.667h33.333a1.667,1.667,0,0,0,1.667-1.667A1.667,1.667,0,0,0,3973.49-420.36Z" transform="translate(-3931.823 472.027)"/>
          <path id="Shape-17" data-name="Shape" d="M3940.157-374.36h15a1.666,1.666,0,0,0,1.667-1.667,1.666,1.666,0,0,0-1.667-1.667h-15a1.667,1.667,0,0,0-1.667,1.667A1.667,1.667,0,0,0,3940.157-374.36Z" transform="translate(-3931.823 437.693)"/>
          <path id="Shape-18" data-name="Shape" d="M3973.49-300.893h-33.333a1.667,1.667,0,0,0-1.667,1.667,1.667,1.667,0,0,0,1.667,1.667h33.333a1.667,1.667,0,0,0,1.667-1.667A1.667,1.667,0,0,0,3973.49-300.893Z" transform="translate(-3931.823 375.893)"/>
          <path id="Shape-19" data-name="Shape" d="M3948.49-258.226h-8.333a1.667,1.667,0,0,0-1.667,1.667,1.667,1.667,0,0,0,1.667,1.667h8.333a1.667,1.667,0,0,0,1.667-1.667A1.667,1.667,0,0,0,3948.49-258.226Z" transform="translate(-3931.823 341.559)"/>
          <path id="Shape-20" data-name="Shape" d="M4025.29-258.226h-8.333a1.667,1.667,0,0,0-1.667,1.667,1.667,1.667,0,0,0,1.667,1.667h8.333a1.667,1.667,0,0,0,1.667-1.667A1.667,1.667,0,0,0,4025.29-258.226Z" transform="translate(-3993.624 341.559)"/>
          <path id="Shape-21" data-name="Shape" d="M4279.624-289.027h-1.667v-1.667a1.667,1.667,0,0,0-1.667-1.667,1.667,1.667,0,0,0-1.667,1.667v1.667h-1.667a1.667,1.667,0,0,0-1.667,1.667,1.667,1.667,0,0,0,1.667,1.667h1.667v1.667a1.666,1.666,0,0,0,1.667,1.667,1.667,1.667,0,0,0,1.667-1.667v-1.667h1.667a1.667,1.667,0,0,0,1.667-1.667A1.667,1.667,0,0,0,4279.624-289.027Z" transform="translate(-4199.624 369.027)"/>
          <path id="Shape-22" data-name="Shape" d="M4216.557-640.76a5,5,0,0,0,5-5,5,5,0,0,0-5-5,5,5,0,0,0-5,5A5,5,0,0,0,4216.557-640.76Zm0-6.667a1.667,1.667,0,0,1,1.667,1.667,1.667,1.667,0,0,1-1.667,1.667,1.667,1.667,0,0,1-1.667-1.667A1.667,1.667,0,0,1,4216.557-647.427Z" transform="translate(-4151.557 657.427)"/>
          <path id="Shape-23" data-name="Shape" d="M4248.824-326.493a11.667,11.667,0,0,0-11.667,11.667,11.667,11.667,0,0,0,11.667,11.667,11.667,11.667,0,0,0,11.667-11.667A11.682,11.682,0,0,0,4248.824-326.493Zm0,20a8.333,8.333,0,0,1-8.333-8.333,8.333,8.333,0,0,1,8.333-8.333,8.333,8.333,0,0,1,8.333,8.333A8.344,8.344,0,0,1,4248.824-306.493Z" transform="translate(-4172.157 396.493)"/>
          <path id="Shape-24" data-name="Shape" d="M4213.224-417.027h30a1.667,1.667,0,0,0,1.667-1.667,1.667,1.667,0,0,0-1.667-1.667h-30a1.667,1.667,0,0,0-1.667,1.667A1.666,1.666,0,0,0,4213.224-417.027Z" transform="translate(-4151.557 472.027)"/>
          <path id="Shape-25" data-name="Shape" d="M4213.224-374.36h6.667a1.667,1.667,0,0,0,1.667-1.667,1.667,1.667,0,0,0-1.667-1.667h-6.667a1.667,1.667,0,0,0-1.667,1.667A1.667,1.667,0,0,0,4213.224-374.36Z" transform="translate(-4151.557 437.693)"/>
          <path id="Shape-26" data-name="Shape" d="M4286.491-374.36a1.667,1.667,0,0,0,1.667-1.667,1.667,1.667,0,0,0-1.667-1.667h-5a1.667,1.667,0,0,0-1.667,1.667,1.667,1.667,0,0,0,1.667,1.667Z" transform="translate(-4206.491 437.693)"/>
        </g>
      </g>
    </g>
  </g>
</svg>
