<svg xmlns="http://www.w3.org/2000/svg" width="100" height="100" viewBox="0 0 100 100">
  <g id="t1-i5" transform="translate(-4491.143 701.23)">
    <g id="_021---Web-Layout" data-name="021---Web-Layout" transform="translate(4491.143 -701.23)">
      <path id="Shape" d="M4596.343-686.03v6.667h-96.667v-6.667a6.667,6.667,0,0,1,6.667-6.667h83.333A6.667,6.667,0,0,1,4596.343-686.03Z" transform="translate(-4498.009 694.364)" fill="#80ed99"/>
      <path id="Shape-2" data-name="Shape" d="M4939.876-692.7h-5a6.666,6.666,0,0,1,6.667,6.667v6.667h5v-6.667A6.667,6.667,0,0,0,4939.876-692.7Z" transform="translate(-4848.209 694.364)" fill="#66bd7a"/>
      <path id="Shape-3" data-name="Shape" d="M4596.343-624.43v76.667a6.667,6.667,0,0,1-6.667,6.667h-83.333a6.667,6.667,0,0,1-6.667-6.667V-624.43Z" transform="translate(-4498.009 639.43)" fill="#f5f5f5"/>
      <path id="Shape-4" data-name="Shape" d="M4941.542-624.43v76.667a6.666,6.666,0,0,1-6.667,6.667h5a6.667,6.667,0,0,0,6.667-6.667V-624.43Z" transform="translate(-4848.209 639.43)" fill="#cfd8dc"/>
      <path id="Shape-5" data-name="Shape" d="M4573.81-586.964v25l-12.15-12.15a1.68,1.68,0,0,0-2.367,0l-7.983,7.983-2.983-2.983a1.68,1.68,0,0,0-2.367,0l-12.15,12.15v-30a3.344,3.344,0,0,1,3.333-3.333h33.333A3.344,3.344,0,0,1,4573.81-586.964Z" transform="translate(-4525.476 611.964)" fill="#c7f9cc"/>
      <path id="Shape-6" data-name="Shape" d="M4700.943-590.3h-5a3.344,3.344,0,0,1,3.333,3.333v20l5,5v-25A3.344,3.344,0,0,0,4700.943-590.3Z" transform="translate(-4655.943 611.964)" fill="#80ed99"/>
      <path id="Shape-7" data-name="Shape" d="M4573.81-497.3v8.333a3.343,3.343,0,0,1-3.333,3.333h-33.333a3.343,3.343,0,0,1-3.333-3.333V-492.3l12.15-12.15a1.68,1.68,0,0,1,2.367,0l2.983,2.983,7.983-7.983a1.68,1.68,0,0,1,2.367,0Z" transform="translate(-4525.477 547.296)" fill="#57cc99"/>
      <path id="Shape-8" data-name="Shape" d="M4661.227-509.446a1.68,1.68,0,0,0-2.367,0l-1.317,1.317,10.833,10.833v8.333a3.343,3.343,0,0,1-3.333,3.333h5a3.343,3.343,0,0,0,3.333-3.333V-497.3Z" transform="translate(-4625.043 547.296)" fill="#46a37a"/>
      <circle id="Oval" cx="3.333" cy="3.333" r="3.333" transform="translate(15 28.333)" fill="#ffc94a"/>
      <rect id="Rectangle-path" width="41.667" height="16.667" rx="8.333" transform="translate(50 75)" fill="#fb6459"/>
      <path id="Shape-9" data-name="Shape" d="M4922.81-317.23h-5a3.333,3.333,0,0,1,3.333,3.333v10a3.333,3.333,0,0,1-3.333,3.333h5a3.333,3.333,0,0,0,3.333-3.333v-10A3.333,3.333,0,0,0,4922.81-317.23Z" transform="translate(-4834.477 392.23)" fill="#cf5249"/>
      <g id="Group_54353" data-name="Group 54353">
        <path id="Shape-10" data-name="Shape" d="M4582.81-701.23h-83.333a8.343,8.343,0,0,0-8.333,8.333v83.333a8.343,8.343,0,0,0,8.333,8.333h83.333a8.343,8.343,0,0,0,8.333-8.333V-692.9A8.343,8.343,0,0,0,4582.81-701.23Zm-83.333,3.333h83.333a5,5,0,0,1,5,5v5h-93.333v-5A5,5,0,0,1,4499.477-697.9Zm83.333,93.333h-83.333a5,5,0,0,1-5-5v-75h93.333v75A5,5,0,0,1,4582.81-604.563Z" transform="translate(-4491.143 701.23)"/>
        <circle id="Oval-2" data-name="Oval" cx="1.667" cy="1.667" r="1.667" transform="translate(6.667 6.667)"/>
        <circle id="Oval-3" data-name="Oval" cx="1.667" cy="1.667" r="1.667" transform="translate(13.333 6.667)"/>
        <circle id="Oval-4" data-name="Oval" cx="1.667" cy="1.667" r="1.667" transform="translate(20 6.667)"/>
        <path id="Shape-11" data-name="Shape" d="M4868.276-663.764h16.667a1.667,1.667,0,0,0,1.667-1.667,1.667,1.667,0,0,0-1.667-1.667h-16.667a1.667,1.667,0,0,0-1.667,1.667A1.667,1.667,0,0,0,4868.276-663.764Z" transform="translate(-4793.276 673.764)"/>
        <path id="Shape-12" data-name="Shape" d="M4568.609-560.5V-593.83a5,5,0,0,0-5-5h-33.333a5,5,0,0,0-5,5V-560.5a5,5,0,0,0,5,5h33.333A5,5,0,0,0,4568.609-560.5Zm-38.333-35h33.333a1.666,1.666,0,0,1,1.667,1.667v20.977l-9.305-9.31a3.345,3.345,0,0,0-4.723,0l-6.805,6.81-1.81-1.81a3.334,3.334,0,0,0-4.713,0l-9.31,9.31V-593.83A1.666,1.666,0,0,1,4530.276-595.5Zm33.333,36.667h-33.333a1.667,1.667,0,0,1-1.667-1.667v-2.643l11.667-11.667,12.155,12.155a1.667,1.667,0,0,0,2.336-.02,1.667,1.667,0,0,0,.021-2.336L4546.8-573l6.81-6.805,11.667,11.667v7.638a1.666,1.666,0,0,1-1.667,1.667Z" transform="translate(-4518.609 618.83)"/>
        <path id="Shape-13" data-name="Shape" d="M4564.41-554.7a5,5,0,0,0,5-5,5,5,0,0,0-5-5,5,5,0,0,0-5,5A5,5,0,0,0,4564.41-554.7Zm0-6.667a1.666,1.666,0,0,1,1.667,1.667,1.667,1.667,0,0,1-1.667,1.667,1.667,1.667,0,0,1-1.667-1.667A1.667,1.667,0,0,1,4564.41-561.364Z" transform="translate(-4546.077 591.364)"/>
        <path id="Shape-14" data-name="Shape" d="M4778.61-325.763h-35a5,5,0,0,0-5,5v10a5,5,0,0,0,5,5h35a5,5,0,0,0,5-5v-10A5,5,0,0,0,4778.61-325.763Zm1.667,15a1.667,1.667,0,0,1-1.667,1.667h-35a1.667,1.667,0,0,1-1.667-1.667v-10a1.667,1.667,0,0,1,1.667-1.667h35a1.667,1.667,0,0,1,1.667,1.667Z" transform="translate(-4690.276 399.096)"/>
        <path id="Shape-15" data-name="Shape" d="M4802.543-581.763h-36.667a1.666,1.666,0,0,0-1.667,1.667,1.666,1.666,0,0,0,1.667,1.667h36.667a1.667,1.667,0,0,0,1.667-1.667A1.667,1.667,0,0,0,4802.543-581.763Z" transform="translate(-4710.876 605.096)"/>
        <path id="Shape-16" data-name="Shape" d="M4765.876-527.23h13.333a1.666,1.666,0,0,0,1.667-1.667,1.666,1.666,0,0,0-1.667-1.667h-13.333a1.666,1.666,0,0,0-1.667,1.667A1.666,1.666,0,0,0,4765.876-527.23Z" transform="translate(-4710.876 563.896)"/>
        <path id="Shape-17" data-name="Shape" d="M4884.943-530.563h-16.667a1.666,1.666,0,0,0-1.667,1.667,1.666,1.666,0,0,0,1.667,1.667h16.667a1.667,1.667,0,0,0,1.667-1.667A1.667,1.667,0,0,0,4884.943-530.563Z" transform="translate(-4793.276 563.896)"/>
        <path id="Shape-18" data-name="Shape" d="M4802.543-479.363h-36.667a1.666,1.666,0,0,0-1.667,1.667,1.666,1.666,0,0,0,1.667,1.667h36.667a1.667,1.667,0,0,0,1.667-1.667A1.667,1.667,0,0,0,4802.543-479.363Z" transform="translate(-4710.876 522.696)"/>
        <path id="Shape-19" data-name="Shape" d="M4765.876-424.83h13.333a1.666,1.666,0,0,0,1.667-1.667,1.666,1.666,0,0,0-1.667-1.667h-13.333a1.666,1.666,0,0,0-1.667,1.667A1.666,1.666,0,0,0,4765.876-424.83Z" transform="translate(-4710.876 481.496)"/>
        <path id="Shape-20" data-name="Shape" d="M4884.943-428.163h-16.667a1.666,1.666,0,0,0-1.667,1.667,1.666,1.666,0,0,0,1.667,1.667h16.667a1.667,1.667,0,0,0,1.667-1.667A1.667,1.667,0,0,0,4884.943-428.163Z" transform="translate(-4793.276 481.496)"/>
        <path id="Shape-21" data-name="Shape" d="M4765.876-373.63h26.667a1.667,1.667,0,0,0,1.667-1.667,1.667,1.667,0,0,0-1.667-1.667h-26.667a1.666,1.666,0,0,0-1.667,1.667A1.666,1.666,0,0,0,4765.876-373.63Z" transform="translate(-4710.876 440.296)"/>
        <path id="Shape-22" data-name="Shape" d="M4561.942-351.363h-35a1.666,1.666,0,0,0-1.667,1.667,1.666,1.666,0,0,0,1.667,1.667h35a1.667,1.667,0,0,0,1.667-1.667A1.667,1.667,0,0,0,4561.942-351.363Z" transform="translate(-4518.609 419.696)"/>
        <path id="Shape-23" data-name="Shape" d="M4526.942-296.83h15a1.667,1.667,0,0,0,1.667-1.667,1.667,1.667,0,0,0-1.667-1.667h-15a1.666,1.666,0,0,0-1.667,1.667A1.666,1.666,0,0,0,4526.942-296.83Z" transform="translate(-4518.609 378.496)"/>
        <path id="Shape-24" data-name="Shape" d="M4651.21-300.163h-13.333a1.666,1.666,0,0,0-1.667,1.667,1.666,1.666,0,0,0,1.667,1.667h13.333a1.666,1.666,0,0,0,1.667-1.667A1.666,1.666,0,0,0,4651.21-300.163Z" transform="translate(-4607.876 378.496)"/>
        <path id="Shape-25" data-name="Shape" d="M4561.942-248.963h-35a1.666,1.666,0,0,0-1.667,1.667,1.666,1.666,0,0,0,1.667,1.667h35a1.667,1.667,0,0,0,1.667-1.667A1.667,1.667,0,0,0,4561.942-248.963Z" transform="translate(-4518.609 337.296)"/>
      </g>
    </g>
  </g>
</svg>
