<svg id="t2-ic1" xmlns="http://www.w3.org/2000/svg" width="24.733" height="37.101" viewBox="0 0 24.733 37.101">
  <path id="Path_101222" data-name="Path 101222" d="M6.183,212.367a6.186,6.186,0,0,0,6.183-6.183V200H6.183a6.183,6.183,0,0,0,0,12.367Z" transform="translate(0 -175.267)" fill="#0acf83"/>
  <path id="Path_101223" data-name="Path 101223" d="M0,106.183A6.186,6.186,0,0,1,6.183,100h6.183v12.367H6.183A6.186,6.186,0,0,1,0,106.183Z" transform="translate(0 -87.633)" fill="#a259ff"/>
  <path id="Path_101224" data-name="Path 101224" d="M0,6.183A6.186,6.186,0,0,1,6.183,0h6.183V12.367H6.183A6.186,6.186,0,0,1,0,6.183Z" fill="#f24e1e"/>
  <path id="Path_101225" data-name="Path 101225" d="M100,0h6.183a6.183,6.183,0,0,1,0,12.367H100Z" transform="translate(-87.633)" fill="#ff7262"/>
  <path id="Path_101226" data-name="Path 101226" d="M112.367,106.183A6.183,6.183,0,1,1,106.183,100,6.186,6.186,0,0,1,112.367,106.183Z" transform="translate(-87.633 -87.633)" fill="#1abcfe"/>
</svg>
