<svg id="t2-ic2" xmlns="http://www.w3.org/2000/svg" width="37.099" height="37.101" viewBox="0 0 37.099 37.101">
  <path id="Path_101257" data-name="Path 101257" d="M308.348,12.168a18.536,18.536,0,0,1,16.665,8.065,18.6,18.6,0,0,1,1.043,19.16,18.556,18.556,0,1,1-17.708-27.225" transform="translate(-291.126 -12.124)" fill="#23bfc8"/>
  <path id="Path_101258" data-name="Path 101258" d="M404.085,242.582a1.879,1.879,0,0,0,.5,1.244,2.181,2.181,0,0,0,.1-1.391c-.056-.154-.185-.354-.374-.311a.521.521,0,0,0-.219.458m-17.639-4.544A3.982,3.982,0,0,1,388.87,237a2.233,2.233,0,0,1,1.876.832,2.087,2.087,0,0,1-.1,2.7,2.693,2.693,0,0,1-1.351.736c-.179.053-.365-.147-.242-.311a6.252,6.252,0,0,0,.621-.658,1.892,1.892,0,0,0,.355-1.231,1.736,1.736,0,0,0-.42-1.325.943.943,0,0,0-.936-.14,3.6,3.6,0,0,0-1.478,1.017,9.057,9.057,0,0,0-1.677,2.637,7.648,7.648,0,0,0-.654,3.028,3.677,3.677,0,0,0,.768,2.274,2.087,2.087,0,0,0,1.477.767,3.581,3.581,0,0,0,2-.548,4.763,4.763,0,0,0,1.414-1.11,3.088,3.088,0,0,1,2.493-3.148,2.133,2.133,0,0,1,1.577.3.928.928,0,0,1,.232,1.2.96.96,0,0,1-1.16.258c-.081-.043-.179-.128-.149-.231.086-.1.227-.125.324-.212a.417.417,0,0,0-.048-.586.891.891,0,0,0-.664-.154,1.387,1.387,0,0,0-.941.575,2.929,2.929,0,0,0-.575,1.682,1.492,1.492,0,0,0,.271.918.51.51,0,0,0,.625.171,1.544,1.544,0,0,0,.651-.736,3.685,3.685,0,0,1,.316-.752.9.9,0,0,1,.815-.389.268.268,0,0,1,.209.3c-.035.4-.174.777-.208,1.175a.294.294,0,0,0,.267.3.8.8,0,0,0,.306-.1,5.069,5.069,0,0,0,.988-.669.243.243,0,0,0,.1-.16c.137-.715.278-1.43.415-2.145a.8.8,0,0,1,.341-.563,1.171,1.171,0,0,1,.719-.129c.191.047.23.271.193.436q-.1.5-.227,1a5.043,5.043,0,0,1,1.518-1.278,1.711,1.711,0,0,1,.922-.241.451.451,0,0,1,.407.4,2.588,2.588,0,0,1-.227,1.023,19.6,19.6,0,0,0-.535,2.014.342.342,0,0,0,.134.38.584.584,0,0,0,.468-.014,3.259,3.259,0,0,0,1.393-1.072,7.058,7.058,0,0,1,.123-1.8,1.293,1.293,0,0,1,.793-.894c.158-.062.389-.088.5.077.087.134.018.3-.025.433a5.393,5.393,0,0,0-.269,2.726,1.4,1.4,0,0,0,.16.569,6.277,6.277,0,0,0,1.385-1.606,1.637,1.637,0,0,1-.614-.8,2.335,2.335,0,0,1,0-1.495,1.387,1.387,0,0,1,.9-.9,1,1,0,0,1,.964.214,1.136,1.136,0,0,1,.325.825,3.489,3.489,0,0,1-.45,1.57,1.2,1.2,0,0,0,.974-.318c.138-.146.295-.274.43-.424a2.816,2.816,0,0,1,2.049-.922,1.8,1.8,0,0,1,1.241.395.881.881,0,0,1-.016,1.3,1.014,1.014,0,0,1-1.01.094c-.081-.04-.181-.136-.139-.233.12-.117.326-.133.4-.3a.462.462,0,0,0-.271-.585,1.185,1.185,0,0,0-1.165.211,2.455,2.455,0,0,0-.817,1.455,2.044,2.044,0,0,0,.151,1.349.542.542,0,0,0,.609.3,1.427,1.427,0,0,0,.72-.724c.14-.249.152-.555.336-.781a.9.9,0,0,1,.805-.4.284.284,0,0,1,.225.309,13.869,13.869,0,0,0-.277,1.6,1.537,1.537,0,0,0,.489,1.118.221.221,0,0,1,.028.347c-.163.138-.372.013-.53-.065a1.826,1.826,0,0,1-1.031-1.29,1.531,1.531,0,0,1-1.135.6,1.62,1.62,0,0,1-1.479-1.191,2.272,2.272,0,0,1,.06-1.288,1.75,1.75,0,0,1-1.145.259,7.854,7.854,0,0,1-1.752,1.87,1.732,1.732,0,0,1-.848.349.366.366,0,0,1-.368-.181,2.99,2.99,0,0,1-.268-1.031,4.188,4.188,0,0,1-1.976,1.173,1.023,1.023,0,0,1-.948-.2,1.215,1.215,0,0,1-.29-.948,7.868,7.868,0,0,1,.555-2.082c.03-.121.137-.291-.005-.38a1.418,1.418,0,0,0-.628.394,5.1,5.1,0,0,0-1.03,1.318,4.441,4.441,0,0,0-.318,1.121,1.049,1.049,0,0,1-.847.813.3.3,0,0,1-.359-.231,2.6,2.6,0,0,1,.088-.609,5.372,5.372,0,0,1-1.479.8.9.9,0,0,1-.876-.163.98.98,0,0,1-.234-.4,1.482,1.482,0,0,1-1.134.616,1.579,1.579,0,0,1-1.376-.912A6.342,6.342,0,0,1,388.22,248a3.61,3.61,0,0,1-2.328.159,3.414,3.414,0,0,1-1.745-1.238,4.486,4.486,0,0,1-.739-2.738,8.438,8.438,0,0,1,1.138-3.847,8.263,8.263,0,0,1,1.9-2.3" transform="translate(-378.491 -225.019)" fill="#fff"/>
</svg>
