<svg xmlns="http://www.w3.org/2000/svg" xmlns:xlink="http://www.w3.org/1999/xlink" width="505" height="141" viewBox="0 0 505 141">
  <defs>
    <clipPath id="clip-path">
      <rect id="Rectangle_5592" data-name="Rectangle 5592" width="505" height="141" transform="translate(285 2775)" fill="#7f7f7f"/>
    </clipPath>
  </defs>
  <g id="t2-i8" transform="translate(-285 -2290.999)">
    <g id="Mask_Group_46" data-name="Mask Group 46" transform="translate(0 -484.001)" clip-path="url(#clip-path)">
      <rect id="Rectangle_5591" data-name="Rectangle 5591" width="535" height="163" transform="translate(276 2763)" fill="#1273eb"/>
    </g>
    <g id="freepik" transform="translate(371 2128.982)">
      <path id="XMLID_3728_" d="M14.461,220.963a37.594,37.594,0,0,0-5.785,7.693l-2.445-1.262a3.2,3.2,0,0,0-3.459-2.465,3.179,3.179,0,0,0,.776,6.311,2.531,2.531,0,0,0,.954-.3L6.888,232.2a38.117,38.117,0,0,0-2.8,9.2l3.936.721a35.108,35.108,0,0,1,9.363-18.331Z" transform="translate(0 -11.801)" fill="#fff"/>
      <path id="XMLID_3727_" d="M56.953,197.021c-.894,0-1.789.06-2.684.06l-.358-3.305a3.8,3.8,0,0,0,1.372-3.426,3.754,3.754,0,1,0-5.307,3.847l.358,3.305a38.323,38.323,0,0,0-10.794,3.426l1.729,3.606a36.1,36.1,0,0,1,15.685-3.546,37.359,37.359,0,0,1,7.753.842l.835-3.907A41.252,41.252,0,0,0,56.953,197.021Z" transform="translate(-13.746)" fill="#fff"/>
      <path id="XMLID_3726_" d="M111.12,219.054a3.179,3.179,0,0,0-.776-6.311,3.226,3.226,0,0,0-2.8,3.185l-2.207,1.923a40.053,40.053,0,0,0-7.395-6.01l-2.087,3.366a35.665,35.665,0,0,1,13.419,15.447l3.638-1.623a39.186,39.186,0,0,0-4.95-8.174l2.087-1.863a2.186,2.186,0,0,0,1.074.059Z" transform="translate(-33.324 -8.63)" fill="#fff"/>
      <path id="XMLID_3725_" d="M48.114,279.747q-3.041.18-6.083.18a80.121,80.121,0,0,1-13-.962,44.163,44.163,0,0,1-6.679-1.563,32.362,32.362,0,0,0,59.4-7.332,53.56,53.56,0,0,1-12.882,5.95,81.219,81.219,0,0,1-20.753,3.727Z" transform="translate(-7.771 -28.874)" fill="#fff"/>
      <path id="XMLID_3702_" d="M49.261,214.6c-17.534,0-31.847,14.064-31.847,31.374a31.319,31.319,0,0,0,.716,6.671c3.519,2.525,14.194,4.688,28.03,3.847,15.088-.9,27.732-5.048,34.947-11.42a26.5,26.5,0,0,0-.239-3.065A31.731,31.731,0,0,0,49.261,214.6Zm-11.331,34.38a9.737,9.737,0,1,1,9.661-9.737A9.7,9.7,0,0,1,37.929,248.985Zm24.809-4.808a7.152,7.152,0,1,1,7.1-7.152A7.066,7.066,0,0,1,62.738,244.176Z" transform="translate(-6.054 -9.591)" fill="#fff"/>
      <path id="XMLID_3699_" d="M179.327,224.014a14.973,14.973,0,0,0-7.216-1.262c-2.862.361-4.413,1.8-4.413,5.289v4.568h11.689v9.075H167.7v28.79H157.559v-28.79h-7.037v-9.015h7.037V227.98c0-8.9,4.711-14.665,13.478-14.665a21.075,21.075,0,0,1,8.349,1.623Z" transform="translate(-52.331 -9.143)" fill="#fff"/>
      <path id="XMLID_3697_" d="M221.435,251.393a14.542,14.542,0,0,0-2.743-.241c-4.711,0-7.932,2.885-7.932,8.535V280.3H200.621V242.437H210.4v4.147c2.386-3.546,5.964-5.169,10.555-5.169a9.183,9.183,0,0,1,5.725,1.8Z" transform="translate(-69.748 -18.912)" fill="#fff"/>
      <path id="XMLID_3694_" d="M274.188,261.343a29,29,0,0,1-.179,3.426H247.352c1.074,5.469,4.89,7.874,9.661,7.874a15.055,15.055,0,0,0,9.482-3.606l5.9,6.551c-4.294,3.967-9.721,5.77-15.983,5.77-11.51,0-19.5-7.874-19.5-19.834,0-11.9,7.753-20.014,19.024-20.014,10.795-.061,18.19,7.993,18.249,19.833ZM247.411,257.8H264.05c-.954-4.868-3.817-7.573-8.171-7.573-4.83,0-7.573,2.885-8.468,7.573Z" transform="translate(-82.366 -18.945)" fill="#fff"/>
      <path id="XMLID_3682_" d="M335.623,261.343a29,29,0,0,1-.179,3.426H308.787c1.074,5.469,4.89,7.874,9.661,7.874a15.055,15.055,0,0,0,9.482-3.606l5.9,6.551c-4.294,3.967-9.721,5.77-15.983,5.77-11.51,0-19.5-7.874-19.5-19.834,0-11.9,7.753-20.014,19.024-20.014C328.168,241.449,335.564,249.5,335.623,261.343ZM308.846,257.8h16.639c-.954-4.868-3.817-7.573-8.171-7.573-4.771,0-7.574,2.885-8.468,7.573Z" transform="translate(-103.725 -18.945)" fill="#fff"/>
      <path id="XMLID_3679_" d="M401.554,261.342c0,11.359-7.812,19.954-18.189,19.954a13.587,13.587,0,0,1-11.033-4.928v19.594H362.253V242.47h9.9v4.207a13.6,13.6,0,0,1,11.212-5.169c10.377-.059,18.189,8.475,18.189,19.834Zm-29.759,0c0,5.95,3.936,10.458,9.661,10.458,5.964,0,9.721-4.628,9.721-10.458s-3.7-10.458-9.721-10.458C375.731,250.945,371.795,255.392,371.795,261.342Z" transform="translate(-125.941 -18.944)" fill="#fff"/>
      <path id="XMLID_3648_" d="M440.56,220.419a6.471,6.471,0,1,1-6.5-6.551A6.466,6.466,0,0,1,440.56,220.419Zm-1.372,50.246H429.05V232.8h10.139Z" transform="translate(-148.667 -9.335)" fill="#fff"/>
      <path id="XMLID_3583_" d="M465.759,246.612l14.134-13.463h12.4L474.049,250.94l18.309,20.014H479.894l-14.253-15.327v15.327H455.5V214.7h10.139v31.914Z" transform="translate(-158.36 -9.623)" fill="#fff"/>
    </g>
  </g>
</svg>
