<svg xmlns="http://www.w3.org/2000/svg" xmlns:xlink="http://www.w3.org/1999/xlink" width="505" height="141" viewBox="0 0 505 141">
  <defs>
    <clipPath id="clip-path">
      <rect id="Rectangle_5601" data-name="Rectangle 5601" width="505" height="141" transform="translate(285 2775)" fill="#7f7f7f"/>
    </clipPath>
  </defs>
  <g id="t2-i10" transform="translate(-285 -2637)">
    <g id="Mask_Group_48" data-name="Mask Group 48" transform="translate(0 -138)" clip-path="url(#clip-path)">
      <rect id="Rectangle_5600" data-name="Rectangle 5600" width="542" height="173" transform="translate(269 2753)" fill="#fff"/>
    </g>
    <g id="Group_54167" data-name="Group 54167" transform="translate(175.49 2421.05)">
      <path id="Path_101240" data-name="Path 101240" d="M166.06,257.254a10.383,10.383,0,1,1-7.931,8.438,10.367,10.367,0,0,1,7.931-8.438" transform="translate(-1.332 -0.023)" fill="#ea4335"/>
      <path id="Path_101241" data-name="Path 101241" d="M248.755,256.95a11.576,11.576,0,0,1,10.288,16.775,11.823,11.823,0,0,1-9.158,6.311h-1.13V256.95m-20.765.014c6.21.055,12.424-.065,18.629.06a12.726,12.726,0,0,0-7.451,5.07,11.576,11.576,0,0,0,1.2,14.325c1.693,1.915,4.124,2.851,6.454,3.728a15.032,15.032,0,0,0,.254,29.836c-6.362.106-12.719.018-19.081.046,0-4.258,0-8.517,0-12.775q.007-20.124,0-40.244v-.046" transform="translate(-39.041)" fill="#1a73e8"/>
      <path id="Path_101242" data-name="Path 101242" d="M257.413,257.024c.71-.069,1.421-.06,2.136-.074v23.086l-1.933.111c-2.33-.877-4.761-1.813-6.454-3.728a11.576,11.576,0,0,1-1.2-14.325,12.726,12.726,0,0,1,7.451-5.07" transform="translate(-49.835)" fill="#174ea6"/>
      <path id="Path_101243" data-name="Path 101243" d="M155.51,310.085q16.74-26.491,33.439-53,.014,20.117,0,40.244c-2.676,4.226-5.389,8.434-7.981,12.715-8.484.134-16.973.037-25.457.046" transform="translate(0 -0.07)" fill="#fbbc04"/>
      <path id="Path_101244" data-name="Path 101244" d="M670.328,284.356c5.448-3.825,14.689-2.593,17.531,3.908-1.444.6-2.888,1.2-4.337,1.785-1.8-3.571-7.031-4.6-10.136-2.173a2.345,2.345,0,0,0-.475,3.4c1.167,1.269,2.957,1.559,4.549,1.993,3.059.8,6.427,1.361,8.784,3.659a6.99,6.99,0,0,1,.226,9.568c-3.294,3.6-8.932,4.267-13.347,2.584a11.718,11.718,0,0,1-6.5-6.556c1.449-.614,2.893-1.25,4.355-1.85a8.879,8.879,0,0,0,2.8,3.608,7.382,7.382,0,0,0,7.368.6,3.255,3.255,0,0,0,2.131-2.856c-.065-1.813-1.85-2.9-3.4-3.391-3.612-1.126-7.788-1.352-10.653-4.106-2.906-2.759-2.191-8.014,1.093-10.173m-43.261,2.533c3-4.872,10.2-6.1,14.782-2.8,2.662,2.011,3.626,5.5,3.552,8.72-.065,5.435.115,10.879-.092,16.313-1.6-.065-3.188-.037-4.78-.041-.014-5.269,0-10.533,0-15.8.009-2.122-.614-4.558-2.565-5.7a7.483,7.483,0,0,0-6.671-.254,8.15,8.15,0,0,0-4.023,7.331c-.009,4.8,0,9.591,0,14.389q-2.457.007-4.9,0-.007-12.968,0-25.942c1.564-.009,3.128-.014,4.7,0q-.007,1.882.009,3.774m-24.687.189a8.893,8.893,0,0,0-5.938,8.1c-.364,3.571,1.14,7.455,4.369,9.259a8.435,8.435,0,0,0,8.609-.254c5.379-3.525,5.361-12.733-.083-16.184a8.276,8.276,0,0,0-6.957-.923m-.388-4.554a13.593,13.593,0,0,1,11.488,2.759c6.2,5.1,6.454,15.769.507,21.162-4.641,4.517-12.729,4.669-17.66.535-6.477-5.287-6.459-16.613.088-21.845a12.519,12.519,0,0,1,5.578-2.611M531.42,295.678c4.152-1.712,8.323-3.386,12.443-5.163a5.786,5.786,0,0,0-6.261-2.782,7.7,7.7,0,0,0-6.182,7.944m-1.509-10.131a12.573,12.573,0,0,1,15.28-1.209,15.8,15.8,0,0,1,5.772,8.346c-6.205,2.51-12.383,5.1-18.579,7.64a7.49,7.49,0,0,0,9.144,3.838,8.716,8.716,0,0,0,4.48-3.469c1.573,1.047,3.165,2.067,4.729,3.133a14.175,14.175,0,0,1-7.566,5.541,13.882,13.882,0,0,1-13.711-3.354c-5.393-5.416-5.195-15.3.452-20.466m-33.577,2.51c-4.226,1.246-6.39,6.219-5.287,10.32a7.884,7.884,0,0,0,5.961,5.97,7.157,7.157,0,0,0,6.879-2.307,9.545,9.545,0,0,0,1.056-10.237,7.193,7.193,0,0,0-8.609-3.746m-11.621,7.5a13.947,13.947,0,0,1,11.4-13.148,10.365,10.365,0,0,1,9.4,3.068c-.023-.812.009-1.61.06-2.413,1.91.028,3.825.009,5.739.018q.014,12.249.009,24.5c.083,4.272-1.01,8.936-4.392,11.811-5.024,4.124-13.181,3.949-17.891-.6a14.34,14.34,0,0,1-3.262-4.623c1.758-.72,3.52-1.449,5.282-2.168a8.419,8.419,0,0,0,4.766,4.53c2.957.909,6.722.12,8.424-2.653,1.389-2.136,1.319-4.789,1.259-7.234-2.7,3.169-7.372,3.986-11.215,2.7a13.922,13.922,0,0,1-9.582-13.785m-18.9-7.589a7.672,7.672,0,0,0-4.969,4.212,8.98,8.98,0,0,0,2.237,10.666,7.39,7.39,0,0,0,9.31-.051,8.987,8.987,0,0,0,.448-13.015,7.476,7.476,0,0,0-7.026-1.813m-.844-5.421a13.845,13.845,0,0,1,12.166,3.409c5.319,4.858,5.7,13.942.937,19.312a13.916,13.916,0,0,1-18.532,2c-4.733-3.386-6.588-9.919-4.886-15.4a13.45,13.45,0,0,1,10.316-9.319M434.9,288.024a7.983,7.983,0,0,0-5.5,6.607,8.636,8.636,0,0,0,3.645,8.687,7.405,7.405,0,0,0,8.793-.651,8.981,8.981,0,0,0,.185-13,7.459,7.459,0,0,0-7.123-1.647m-.406-5.527a13.889,13.889,0,0,1,12.078,3.575c5.31,5.006,5.509,14.265.484,19.538a13.906,13.906,0,0,1-18.329,1.564,14.079,14.079,0,0,1-4.83-15.109,13.5,13.5,0,0,1,10.6-9.568m218.551-7.349c1.633,0,3.262,0,4.9,0,0,2.648,0,5.3,0,7.949,2.122.018,4.244-.028,6.371.032,0,1.481,0,2.957,0,4.438-2.122,0-4.244,0-6.362,0q-.021,6.547,0,13.1c.014,1.329.189,2.93,1.435,3.709,1.172.89,2.736.572,4.023.134.567,1.435,1.075,2.893,1.559,4.364-2.81.752-6.048,1.13-8.646-.452a6.932,6.932,0,0,1-3.253-5.91c-.06-4.978,0-9.961-.028-14.943q-2.277-.007-4.554,0v-4.443c1.513-.032,3.031-.028,4.554-.028.009-2.648,0-5.3,0-7.954m-85.894-4.037q11.079-.007,22.163,0,.007,2.325,0,4.664c-5.762.009-11.529-.009-17.291,0q-.014,6.242,0,12.48,7.792.007,15.589,0,.007,2.27,0,4.549c-5.19.014-10.38,0-15.571.009-.046,5.425.088,10.86-.065,16.286-1.61-.042-3.22-.028-4.83-.028q-.014-18.989,0-37.974m-51.275-2.653q3.052-.007,6.108,0,.014,20.325,0,40.654-3.059.007-6.108,0-.014-20.325,0-40.654m-131.716,5.149a22.138,22.138,0,0,1,17.854-6.528,20.674,20.674,0,0,1,12.655,5.822c-1.352,1.366-2.75,2.69-4.069,4.088a15.906,15.906,0,0,0-15.409-3.428,15.687,15.687,0,0,0-.018,29.8c5.112,1.564,11.169.646,15.123-3.109a12.246,12.246,0,0,0,3.7-7.824c-4.71-.06-9.425.083-14.136-.074.037-1.938.014-3.875.023-5.808q9.937-.014,19.87,0c.872,5.67-.18,11.912-3.908,16.424-6.1,7.432-17.508,8.89-25.845,4.6a21.7,21.7,0,0,1-11.9-17.005,21.064,21.064,0,0,1,6.062-16.959" transform="translate(-119.833 -5.4)" fill="#5f6368"/>
      <path id="Path_101245" data-name="Path 101245" d="M253.54,307.1l1.933-.111c0,10.007-.009,20.013.009,30.02-.567-.009-1.13-.037-1.689-.074a15.032,15.032,0,0,1-.254-29.836" transform="translate(-45.759 -26.954)" fill="#0d652d"/>
      <path id="Path_101246" data-name="Path 101246" d="M273,306.99h1.13a15.242,15.242,0,0,1,11.446,6.837,15.017,15.017,0,0,1-12.567,23.183C272.99,327,273,317,273,306.99" transform="translate(-63.285 -26.954)" fill="#34a853"/>
    </g>
  </g>
</svg>
