<svg xmlns="http://www.w3.org/2000/svg" xmlns:xlink="http://www.w3.org/1999/xlink" width="505" height="141" viewBox="0 0 505 141">
  <defs>
    <clipPath id="clip-path">
      <rect id="Rectangle_5603" data-name="Rectangle 5603" width="505" height="141" transform="translate(285 2775)" fill="#7f7f7f"/>
    </clipPath>
  </defs>
  <g id="t2-i11" transform="translate(-810 -2637)">
    <g id="Mask_Group_49" data-name="Mask Group 49" transform="translate(525 -138)" clip-path="url(#clip-path)">
      <rect id="Rectangle_5602" data-name="Rectangle 5602" width="545" height="173" transform="translate(265 2753)" fill="#eef3fa"/>
    </g>
    <g id="Group_54173" data-name="Group 54173" transform="translate(419.462 2845.102)">
      <g id="Group_54172" data-name="Group 54172" transform="translate(505.538 -182.102)">
        <g id="Group_54169" data-name="Group 54169" transform="translate(100.376 20.693)">
          <g id="Group_54168" data-name="Group 54168">
            <path id="Path_101247" data-name="Path 101247" d="M592.1-154.365h6.119v9.4H592.1v24.1h-12.87v-24.1h-4.794v-9.4h4.794v-1.514a25.688,25.688,0,0,1,.441-4.51,9.04,9.04,0,0,1,1.656-4.022,8.543,8.543,0,0,1,3.406-2.523,16.63,16.63,0,0,1,6.419-.963,87.376,87.376,0,0,1,9.81.79l-1.419,7.759a24.1,24.1,0,0,0-3.722-.379,4.142,4.142,0,0,0-2.493.584,3.221,3.221,0,0,0-1.072,1.844A16.818,16.818,0,0,0,592.1-154.365Z" transform="translate(-574.437 167.898)" fill="#2f486e"/>
            <path id="Path_101248" data-name="Path 101248" d="M592.17-141.527a16.759,16.759,0,0,1,5.172-12.632q5.175-4.969,13.974-4.969,10.063,0,15.2,5.836a16.909,16.909,0,0,1,4.133,11.576,16.809,16.809,0,0,1-5.127,12.664q-5.125,4.937-14.178,4.937-8.075,0-13.059-4.1A16.462,16.462,0,0,1,592.17-141.527Zm12.868-.032q0,4.48,1.814,6.624a5.721,5.721,0,0,0,4.558,2.146,5.7,5.7,0,0,0,4.558-2.114q1.781-2.113,1.782-6.782,0-4.353-1.8-6.483a5.6,5.6,0,0,0-4.448-2.128,5.812,5.812,0,0,0-4.637,2.16Q605.039-145.974,605.038-141.559Z" transform="translate(-566.336 171.904)" fill="#2f486e"/>
            <path id="Path_101249" data-name="Path 101249" d="M622.829-158.371h11.955v5.457a17.779,17.779,0,0,1,5.425-4.779,14.279,14.279,0,0,1,6.687-1.436q5.33,0,8.343,3.17t3.013,9.794v21.292h-12.9v-18.42q0-3.156-1.167-4.464a4.168,4.168,0,0,0-3.281-1.31,4.667,4.667,0,0,0-3.785,1.767q-1.451,1.766-1.451,6.34v16.087H622.829Z" transform="translate(-552.329 171.904)" fill="#2f486e"/>
            <path id="Path_101250" data-name="Path 101250" d="M668.556-167.356v12.743h7.066v9.4h-7.066v11.869a6.4,6.4,0,0,0,.409,2.834,2.351,2.351,0,0,0,2.209,1.069,14.107,14.107,0,0,0,3.974-.817l.947,8.861a41.746,41.746,0,0,1-8.9,1.042q-4.794,0-7.066-1.228a7.494,7.494,0,0,1-3.359-3.735q-1.088-2.5-1.088-8.112v-11.782h-4.732v-9.4h4.732v-6.151Z" transform="translate(-539.48 168.146)" fill="#2f486e"/>
            <path id="Path_101251" data-name="Path 101251" d="M670.528-134.177l12.743-1.2a6.283,6.283,0,0,0,2.207,3.249,6.558,6.558,0,0,0,3.786.979,6.411,6.411,0,0,0,4-1.1,2.463,2.463,0,0,0,1.1-2.048,2.34,2.34,0,0,0-1.451-2.142,26.4,26.4,0,0,0-5.52-1.323,58.071,58.071,0,0,1-9.289-2.158,9.823,9.823,0,0,1-4.385-3.358,8.713,8.713,0,0,1-1.782-5.387,8.829,8.829,0,0,1,1.924-5.705,11.452,11.452,0,0,1,5.3-3.575,28.148,28.148,0,0,1,9.053-1.183,31.369,31.369,0,0,1,8.849.915,11.534,11.534,0,0,1,4.763,2.839,14.851,14.851,0,0,1,3.17,5.205l-12.176,1.2a4.163,4.163,0,0,0-1.576-2.366,6.456,6.456,0,0,0-3.66-1.008,5.183,5.183,0,0,0-3.17.772,2.3,2.3,0,0,0-.994,1.872,1.994,1.994,0,0,0,1.262,1.858,20.342,20.342,0,0,0,5.489,1.136,37.566,37.566,0,0,1,9.525,2.016,10.5,10.5,0,0,1,4.78,3.687,9.044,9.044,0,0,1,1.655,5.261,10.347,10.347,0,0,1-1.75,5.641,11.849,11.849,0,0,1-5.52,4.366,26.569,26.569,0,0,1-10.268,1.621q-9.178,0-13.075-2.618A11.771,11.771,0,0,1,670.528-134.177Z" transform="translate(-530.538 171.904)" fill="#2f486e"/>
          </g>
        </g>
        <g id="Group_54171" data-name="Group 54171">
          <g id="Group_54170" data-name="Group 54170">
            <path id="Path_101252" data-name="Path 101252" d="M534.336-148.866h-7.255v9.369h7.287q3.691,0,5.2-1.31a4.412,4.412,0,0,0,1.515-3.517,4.072,4.072,0,0,0-1.5-3.3Q538.089-148.867,534.336-148.866Z" transform="translate(-495.696 197.286)" fill="#cf2027"/>
            <path id="Path_101253" data-name="Path 101253" d="M537.948-153.308a4.2,4.2,0,0,0,1.31-3.327,3.953,3.953,0,0,0-1.31-3.154q-1.309-1.136-4.557-1.136h-6.31v8.77H533.3Q536.639-152.156,537.948-153.308Z" transform="translate(-495.696 191.776)" fill="#cf2027"/>
            <path id="Path_101254" data-name="Path 101254" d="M561.464-153.229h8.075a44.68,44.68,0,0,0-1.664-7.35h-6.412Z" transform="translate(-479.988 191.935)" fill="#cf2027"/>
            <path id="Path_101255" data-name="Path 101255" d="M561.464-139.944h6.821a44.815,44.815,0,0,0,1.581-9.116h-8.4Z" transform="translate(-479.988 197.197)" fill="#cf2027"/>
            <path id="Path_101256" data-name="Path 101256" d="M572.693-160.619h16.212A44.968,44.968,0,0,0,550.537-182.1a45,45,0,0,0-45,45,45,45,0,0,0,45,45,44.971,44.971,0,0,0,38.835-22.275h-16.68Zm-9.115,39.555A12.309,12.309,0,0,1,559-116.522a15.085,15.085,0,0,1-5.425,1.514,62.412,62.412,0,0,1-6.4.631H522.507v-46.242h26.749q6.687,0,10.268,3.311a10.726,10.726,0,0,1,3.58,8.2,10.343,10.343,0,0,1-2.555,7.034,11.372,11.372,0,0,1-4.984,3.091q4.984,1.2,7.334,4.116a11.317,11.317,0,0,1,2.35,7.334A12.607,12.607,0,0,1,563.578-121.064Z" transform="translate(-505.538 182.102)" fill="#cf2027"/>
          </g>
        </g>
      </g>
    </g>
  </g>
</svg>
