<svg xmlns="http://www.w3.org/2000/svg" xmlns:xlink="http://www.w3.org/1999/xlink" width="505" height="141" viewBox="0 0 505 141">
  <defs>
    <clipPath id="clip-path">
      <rect id="Rectangle_5594" data-name="Rectangle 5594" width="505" height="141" transform="translate(285 2775)" fill="#7f7f7f"/>
    </clipPath>
  </defs>
  <g id="t2-i9" transform="translate(-810 -2290.999)">
    <g id="Mask_Group_47" data-name="Mask Group 47" transform="translate(525 -484.001)" clip-path="url(#clip-path)">
      <rect id="Rectangle_5593" data-name="Rectangle 5593" width="545" height="173" transform="translate(265 2753)" fill="#0e2a47"/>
    </g>
    <g id="Group_54166" data-name="Group 54166" transform="translate(868.95 2117.7)">
      <g id="Group_54165" data-name="Group 54165" transform="translate(105.648 212.041)">
        <path id="Path_101231" data-name="Path 101231" d="M199.716,276.773H188.6V215.6h11.116Z" transform="translate(-151.624 -214.308)" fill="#fff"/>
        <path id="Path_101232" data-name="Path 101232" d="M253.777,282.843H242.964v-4.537a15.059,15.059,0,0,1-12.4,5.6c-11.418,0-19.963-9.3-19.963-21.7s8.62-21.7,19.963-21.7a15.445,15.445,0,0,1,12.4,5.671v-4.537h10.813ZM222.018,262.2c0,6.276,4.159,11.418,10.586,11.418,6.5,0,10.586-4.839,10.586-11.418s-4.31-11.418-10.586-11.418-10.511,5.142-10.511,11.418Z" transform="translate(-156.988 -220.377)" fill="#fff"/>
        <path id="Path_101233" data-name="Path 101233" d="M336.34,221.808a7.07,7.07,0,1,1-7.108-7.108A7.2,7.2,0,0,1,336.34,221.808Zm-1.512,54.746H323.637V235.343h11.191Z" transform="translate(-184.201 -214.089)" fill="#fff"/>
        <path id="_Trazado_" data-name=" Trazado " d="M171.156,225.694a15.646,15.646,0,0,0-7.864-1.361c-3.176.378-4.839,1.966-4.839,5.822v4.991h12.779v9.83H158.453v31.456H147.337V244.976H139.7v-9.83h7.637v-5.217c0-9.754,5.142-16.031,14.745-16.031a22.4,22.4,0,0,1,9.15,1.739Z" transform="translate(-139.7 -213.892)" fill="#fff"/>
        <path id="Path_101234" data-name="Path 101234" d="M297.912,270.06c-3.4,0-6.2-1.89-6.2-6.957V247.98h14.9v-9.83h-14.9V225.9H280.6v12.25H275v9.83h5.6v15.879c0,10.737,5.218,16.484,15.426,16.484a22.216,22.216,0,0,0,10.586-2.42L302.373,269a12.846,12.846,0,0,1-4.461,1.059Z" transform="translate(-172.691 -216.82)" fill="#fff"/>
        <path id="Path_101235" data-name="Path 101235" d="M438.613,262.2c0,12.4-9.528,21.7-22.307,21.7S394,274.678,394,262.2s9.452-21.7,22.307-21.7C429.237,240.5,438.613,249.8,438.613,262.2Zm-33.271,0c0,6.654,4.688,11.418,10.889,11.418S427.2,268.932,427.2,262.2s-4.688-11.418-10.964-11.418-10.813,4.688-10.813,11.418Z" transform="translate(-201.708 -220.38)" fill="#fff"/>
        <path id="Path_101236" data-name="Path 101236" d="M499.442,256.606v26.239H488.251V260.16c0-5.974-2.949-9.225-8.015-9.225-5.142,0-8.771,3.176-8.771,9.3v22.609H460.5V241.634h10.813v4.839c2.949-4.386,7.486-5.974,12.1-5.974C492.788,240.5,499.442,247.079,499.442,256.606Z" transform="translate(-217.924 -220.38)" fill="#fff"/>
        <path id="Path_101237" data-name="Path 101237" d="M377.2,269.434a12.25,12.25,0,0,1-8.015,4.159h-.907l-1.739-.227a9.733,9.733,0,0,1-7.259-5.52,13.423,13.423,0,0,1-1.21-5.671,12.851,12.851,0,0,1,1.285-5.822,9.8,9.8,0,0,1,7.335-5.369h2.344a11.514,11.514,0,0,1,8.167,4.159l5.369-9.452a18.829,18.829,0,0,0-7.94-4.234,22.706,22.706,0,0,0-5.974-.756,26.464,26.464,0,0,0-7.335,1.059,20.055,20.055,0,0,0-7.864,4.537,22.82,22.82,0,0,0-.076,32.137,21.023,21.023,0,0,0,7.864,4.537,25.513,25.513,0,0,0,7.562,1.21,24.266,24.266,0,0,0,6.125-.756,19.861,19.861,0,0,0,7.94-4.31Z" transform="translate(-190.197 -220.429)" fill="#fff"/>
      </g>
      <path id="Path_101238" data-name="Path 101238" d="M45.457,232.388H26.4l-5.974-10.359h31L60.505,206.3H9.237A9.225,9.225,0,0,0,1.3,220.138l32.666,56.636a9.232,9.232,0,0,0,12.628,3.251,8.938,8.938,0,0,0,3.251-3.251l1.059-1.89L35.854,248.8Z" transform="translate(0)" fill="#4ad295"/>
      <path id="Path_101239" data-name="Path 101239" d="M98.083,210.913a9.178,9.178,0,0,0-7.94-4.613H87.875L63.3,248.8l9,15.728,25.709-44.462a8.838,8.838,0,0,0,.076-9.15Z" transform="translate(-15.423)" fill="#4ad295"/>
    </g>
  </g>
</svg>
