<svg xmlns="http://www.w3.org/2000/svg" xmlns:xlink="http://www.w3.org/1999/xlink" width="505" height="141" viewBox="0 0 505 141">
  <defs>
    <clipPath id="clip-path">
      <rect id="Rectangle_5377" data-name="Rectangle 5377" width="505" height="141" transform="translate(285 2775)" fill="#7f7f7f"/>
    </clipPath>
  </defs>
  <g id="t2-i6" transform="translate(-285 -1944)">
    <g id="Mask_Group_43" data-name="Mask Group 43" transform="translate(0 -831)" clip-path="url(#clip-path)">
      <rect id="Rectangle_5382" data-name="Rectangle 5382" width="539" height="159" transform="translate(272 2767)" fill="#232a34"/>
    </g>
    <g id="Group_54164" data-name="Group 54164" transform="translate(403 1967)">
      <path id="Path_101227" data-name="Path 101227" d="M5.177,0H89.685a6.211,6.211,0,0,1,4.584,3.121c.936,1.644.7,3.6.736,5.415q-.028,40.171-.014,80.351A6.121,6.121,0,0,1,89.823,95H5.315A6.275,6.275,0,0,1,0,89.818V5.32A6.264,6.264,0,0,1,5.177,0" fill="#05a081"/>
      <path id="Path_101228" data-name="Path 101228" d="M390.014,68.868a22.051,22.051,0,0,1,14.573,1.52c-.712,1.824-1.482,3.619-2.252,5.42-2.674-1.007-5.443-2.218-8.369-1.9-.741.143-1.7.252-2.057,1.012-.551.86.166,1.872.917,2.318,3.107,1.909,6.911,2.555,9.709,4.988a7.34,7.34,0,0,1,2.356,5.025v1.035a7.79,7.79,0,0,1-5.714,7.3,23.48,23.48,0,0,1-14.92-.822c.043-2.062.019-4.123.047-6.185,3.563,1.373,7.457,2.831,11.319,2.052a2.03,2.03,0,0,0,1.13-3.51c-3.149-2.46-7.438-2.993-10.393-5.752-2.133-1.971-2.489-5.258-1.71-7.933.755-2.4,3.045-3.909,5.363-4.56M352.441,73.96c-2.118.779-2.964,3.121-3.211,5.177,3.4.014,6.807.009,10.208,0a6.014,6.014,0,0,0-1.444-4.109,5.42,5.42,0,0,0-5.553-1.073m-10,2.342a11.28,11.28,0,0,1,8.75-7.757c4.707-.922,10.422.147,13.233,4.389,2.347,3.263,2.066,7.438,2.052,11.248-5.781.009-11.557,0-17.338.009-.024,2.717,1.582,5.657,4.4,6.251,3.871.874,7.885-.3,11.448-1.815-.009,1.948,0,3.89,0,5.838a21.883,21.883,0,0,1-14.364,1.292,11.721,11.721,0,0,1-8.341-7.79,20.574,20.574,0,0,1,.161-11.666M313.116,68.75c2.817-.081,5.643-.024,8.465-.033q2.658,4.247,5.216,8.564c1.791-2.831,3.515-5.7,5.282-8.555,2.822-.019,5.643-.043,8.469.019-2.845,4.493-5.871,8.864-8.792,13.3,3.068,4.617,6.265,9.158,9.172,13.875-2.817.033-5.629.024-8.441.009-1.914-3.064-3.767-6.161-5.686-9.22-1.862,3.088-3.762,6.156-5.671,9.22-2.822,0-5.648.048-8.469-.028,3-4.655,6.1-9.248,9.168-13.856-2.888-4.441-5.847-8.84-8.712-13.3M298.177,73.96c-2.114.75-3.03,3.106-3.154,5.182q5.1.007,10.194,0a6.255,6.255,0,0,0-1.691-4.294,5.48,5.48,0,0,0-5.349-.888M288.06,76.644a11.291,11.291,0,0,1,8.45-8.018c4.731-1.031,10.507-.1,13.48,4.08,2.446,3.3,2.332,7.576,2.247,11.476-5.8.014-11.614,0-17.418.009.071,2.622,1.477,5.448,4.17,6.18,3.957,1.021,8.08-.218,11.742-1.738.057,1.933.028,3.862.033,5.795a21.809,21.809,0,0,1-13.894,1.463,11.812,11.812,0,0,1-8.46-6.835,19.189,19.189,0,0,1-.351-12.412m-21.285-9.97q-.007,5.194,0,10.393c2.888.057,6.546.257,8.45-2.37,1.33-2.342,1.045-6.189-1.705-7.391-2.152-.8-4.493-.632-6.745-.632m-7.633-6.208c4.261-.014,8.526-.043,12.787.014,3.729.171,7.856,1.33,10.037,4.607a13.014,13.014,0,0,1,.964,11.072,10.519,10.519,0,0,1-7.671,6.527c-2.76.788-5.657.541-8.488.6-.009,4.218.033,8.436-.024,12.654-2.532,0-5.063.024-7.59-.024-.052-11.818-.024-23.636-.014-35.454m112.5-2.332c2.489,0,4.978-.028,7.462.024q.05,18.881,0,37.763c-2.484.052-4.968.014-7.453.024q-.021-18.9,0-37.81" transform="translate(-136.041 -30.517)" fill="#fff"/>
      <path id="Path_101229" data-name="Path 101229" d="M74.63,62.18V91.858q5.736.014,11.466,0c.033-3.719-.043-7.438.038-11.158,2.57.029,5.32.247,7.662-1.031a9.252,9.252,0,0,0-4.1-17.475c-5.021-.057-10.042-.01-15.062-.019M68.645,56.3c7.134-.138,14.274-.052,21.408-.043A15.3,15.3,0,0,1,104.759,71.3c.223,7.3-5.562,14.017-12.72,15.181-.01,3.771,0,7.548,0,11.319-7.8-.048-15.6.1-23.394-.076q.143-20.705,0-41.42" transform="translate(-36.036 -29.519)" fill="#fff"/>
    </g>
  </g>
</svg>
