<svg xmlns="http://www.w3.org/2000/svg" xmlns:xlink="http://www.w3.org/1999/xlink" width="400" height="141" viewBox="0 0 400 141">
  <defs>
    <clipPath id="clip-path">
      <rect id="Rectangle_5625" data-name="Rectangle 5625" width="400" height="141" transform="translate(285 2775)" fill="#3abeff"/>
    </clipPath>
  </defs>
  <g id="t3-i6" transform="translate(-810 -1550)">
    <g id="Mask_Group_55" data-name="Mask Group 55" transform="translate(525 -1225)" clip-path="url(#clip-path)">
      <rect id="Rectangle_5624" data-name="Rectangle 5624" width="426.931" height="159" transform="translate(274.703 2767)" fill="#3abeff"/>
    </g>
    <g id="Group_54204" data-name="Group 54204" transform="translate(773.608 1718.68)">
      <path id="Path_101293" data-name="Path 101293" d="M111.546-130.5a70.264,70.264,0,0,1,12.343.223,89.341,89.341,0,0,1,28.376,7.532c5.583,2.622,10.978,5.909,15.182,10.481,2.909,3.2,5.2,7.255,5.287,11.675.155,3.339-1.407,6.49-3.416,9.062a43.323,43.323,0,0,1-10.8,9.28,112.157,112.157,0,0,1-26.854,11.9,122,122,0,0,1-19.732,4.361c-8.089.892-16.584-.093-23.848-3.929a25.226,25.226,0,0,1-11.474-11.9C74.1-87.376,73.961-93.733,75-99.666a36.571,36.571,0,0,1,14.559-22.751,43.415,43.415,0,0,1,21.984-8.08" fill="#fff"/>
      <path id="Path_101294" data-name="Path 101294" d="M114.367-107.726a13.8,13.8,0,0,1,8.582-1.206,14.765,14.765,0,0,1,7.159,3.3q-1.307,1.977-2.631,3.944a12.961,12.961,0,0,0-6.145-2.463,5.923,5.923,0,0,0-4.082.871,2.453,2.453,0,0,0-.051,3.8,11.434,11.434,0,0,0,3.785,1.584c2.609.664,5.324,1.464,7.351,3.326a8.029,8.029,0,0,1-.25,11.489c-2.49,2.194-5.957,2.894-9.195,2.778a14.915,14.915,0,0,1-10.036-4.04c1.091-1.244,2.167-2.5,3.258-3.742a11.647,11.647,0,0,0,6.809,2.77,6.862,6.862,0,0,0,4.414-.981,3.169,3.169,0,0,0,.6-4.316c-1.08-1.179-2.718-1.563-4.188-2.036-2.658-.7-5.456-1.505-7.469-3.486a7.231,7.231,0,0,1-1.7-7.2,7.674,7.674,0,0,1,3.788-4.395" transform="translate(-2.584 -1.616)" fill="#3abeff"/>
      <path id="Path_101295" data-name="Path 101295" d="M239.074-111.1c1.887,0,3.774,0,5.661,0q.012,13.189,0,26.378-2.831.006-5.661,0-.006-13.183,0-26.373m154.23,2.634c3.077-3.51,9.01-4.495,12.7-1.411a8.094,8.094,0,0,1,2.461,6.08q.011,9.539,0,19.074c-1.868,0-3.732,0-5.6,0-.039-6.1,0-12.2-.015-18.3-.047-1.182-.155-2.554-1.117-3.383a4.082,4.082,0,0,0-3.139-.566c-2.154.364-3.786,2.112-4.809,3.942-.1,6.095-.007,12.2-.046,18.306-1.892-.008-3.786.031-5.677-.028.03-8.785,0-17.565.011-26.347q2.488-.012,4.972,0c.092.88.17,1.755.264,2.634M367.872-96.4c-2.643,1.12-3.062,5.259-.981,7.069,2.74,1.763,6.622.015,7.727-2.883.1-1.635,0-3.278.035-4.914-2.267.031-4.662-.256-6.781.728m-6.53-13.342c4.317-1.659,9.2-2.712,13.738-1.34a7.585,7.585,0,0,1,5.138,6.9c.193,4.626-.1,9.272.143,13.9.043,1.205,1.181,1.775,2.162,2.147-.418,1.368-.875,2.724-1.333,4.08a6.4,6.4,0,0,1-5.534-3.127,10.285,10.285,0,0,1-11.044,2.418c-5.429-1.83-6.542-9.781-2.577-13.567,3.36-3.174,8.32-3.011,12.625-2.956.1-1.919.008-4.572-2.2-5.266-3.216-.883-6.553.182-9.618,1.162q-.749-2.178-1.5-4.351m-19.833,4.487a10.356,10.356,0,0,0-1.573,5q5.284.024,10.571,0a9.982,9.982,0,0,0-1.1-4.576,4.947,4.947,0,0,0-7.9-.426m-3.942-3.213c4.174-4.747,12.9-4.274,16.334,1.113,2.193,3.4,2.356,7.642,2.03,11.555-5.332.016-10.661-.008-15.993.007.318,2.488,1.213,5.39,3.755,6.418,3.116,1.158,6.557-.067,9.084-2,.88,1.2,1.771,2.4,2.616,3.627a15.409,15.409,0,0,1-7.542,3.484c-3.514.515-7.417-.205-10.056-2.717-2.763-2.608-3.77-6.553-3.794-10.242-.092-3.979.825-8.219,3.565-11.242m-50.531,2.98a9.675,9.675,0,0,0-1.759,5.239q5.273,0,10.548,0c-.089-1.98-.384-4.2-1.942-5.607a5.035,5.035,0,0,0-6.847.372M282.9-108.46c4.17-4.756,12.92-4.282,16.342,1.116,2.186,3.387,2.325,7.6,2.062,11.5-5.34.128-10.688,0-16.032.062.333,2.475,1.2,5.39,3.747,6.4,3.115,1.166,6.568-.05,9.091-2,.883,1.2,1.763,2.4,2.623,3.619a15.324,15.324,0,0,1-7.742,3.519c-3.535.469-7.452-.317-10.041-2.91-2.634-2.62-3.569-6.459-3.631-10.072-.066-3.976.837-8.219,3.581-11.237m-76.348-2.756a14.68,14.68,0,0,1,13.083,2.821c-.818,1.278-1.682,2.523-2.531,3.782a13.115,13.115,0,0,0-5.882-2.357,5.568,5.568,0,0,0-4.135.981,2.354,2.354,0,0,0,.3,3.658c1.93,1.232,4.277,1.437,6.39,2.22,2.1.756,4.239,1.88,5.394,3.876a7.736,7.736,0,0,1-1.441,9.4c-2.7,2.391-6.545,2.965-10.025,2.628a14.508,14.508,0,0,1-8.541-3.751c1.035-1.209,2.089-2.4,3.139-3.6a11.477,11.477,0,0,0,6.224,2.616,6.932,6.932,0,0,0,4.616-.931,2.952,2.952,0,0,0-.474-4.944c-3.169-1.577-7.045-1.667-9.8-4.1a6.85,6.85,0,0,1-1.2-8.975,8.766,8.766,0,0,1,4.882-3.321m106.528,7.8c-.105,3.868-.008,7.746-.047,11.617a7.618,7.618,0,0,0,3.042,2.55,4.815,4.815,0,0,0,5.967-1.759c1.733-2.9,1.655-6.464,1.391-9.723-.26-2.3-.972-5.154-3.422-6.011-2.779-1.015-5.684.88-6.932,3.325m-5.643-17.807c1.868-.205,3.732-.434,5.6-.662,0,4.271.012,8.541,0,12.812a9.289,9.289,0,0,1,12.85-.113c2.953,3.038,3.693,7.51,3.673,11.591-.066,4.084-1.136,8.541-4.363,11.3a9.393,9.393,0,0,1-12.439-.368c-.105.643-.2,1.29-.3,1.937q-2.517.012-5.034,0c.019-12.164-.027-24.332.023-36.5M258.7-105.167c-1.484,2.062-1.689,4.713-1.751,7.17a14.75,14.75,0,0,0,1.287,6.851,4.131,4.131,0,0,0,3.728,2.278,6.2,6.2,0,0,0,5.654-3.41c.093-3.937-.012-7.878.046-11.819a7.86,7.86,0,0,0-3.507-2.639,4.828,4.828,0,0,0-5.457,1.569m8.948-16.721c1.887.237,3.786.423,5.669.7q0,18.229,0,36.457c-1.685.008-3.375.008-5.061,0-.1-.806-.194-1.611-.287-2.418a9.291,9.291,0,0,1-6.762,3.03A8.971,8.971,0,0,1,253.555-88c-2.216-3.225-2.7-7.3-2.535-11.126.214-3.987,1.554-8.258,4.852-10.757a9.649,9.649,0,0,1,11.789.388c-.023-4.131,0-8.261-.012-12.393m-42.8.667c1.887-.205,3.77-.45,5.657-.66-.031,10.417,0,20.833-.016,31.249.039.55-.066,1.279.5,1.616a5.892,5.892,0,0,0,2.461-.4,43.028,43.028,0,0,1,1.476,4.186c-2.3,1.24-5.281,1.639-7.587.209-1.883-1.159-2.561-3.5-2.507-5.592.007-10.2-.031-20.406.019-30.605m15.551-1.764a3.912,3.912,0,0,1,4.41,1.07,3.686,3.686,0,0,1-.721,5.247,3.926,3.926,0,0,1-5.425-1.058,3.7,3.7,0,0,1,1.736-5.259" transform="translate(-9.354 -0.557)" fill="#fff"/>
    </g>
  </g>
</svg>
