<?xml version="1.0" encoding="utf-8"?>
<!-- Generator: Adobe Illustrator 25.3.1, SVG Export Plug-In . SVG Version: 6.00 Build 0)  -->
<svg version="1.1" id="Layer_1" xmlns="http://www.w3.org/2000/svg" xmlns:xlink="http://www.w3.org/1999/xlink" x="0px" y="0px"
	 viewBox="0 0 544 544" style="enable-background:new 0 0 544 544;" xml:space="preserve">
<style type="text/css">
	.st0{fill:none;}
	.st1{fill:#80ED99;}
	.st2{opacity:0.7;fill:#FFFFFF;enable-background:new    ;}
	.st3{fill:#FFFFFF;}
	.st4{fill:#263238;}
	.st5{fill:#143145;}
</style>
<g id="t3-i1" transform="translate(-3800.5 -1466)">
	<rect id="Rectángulo_5605" x="3872.5" y="1466" class="st0" width="400" height="544"/>
	<g id="Group_54372">
		<g id="freepik--background-simple--inject-2">
			<path id="Path_101603" class="st1" d="M4251.2,1709.4c-0.3-0.8-0.6-1.6-0.9-2.4c-10.1-31.1,0.2-63.3,2.6-94.7
				c7.6-101.2-92.6-153.1-165.8-137.5c-20.2,4.4-39.1,14.4-55.3,29.2c-15.3,14.1-27.9,32.2-45.7,42.2
				c-40.4,22.6-96.9,24.2-102.8,89.1c-3.2,35.4,17.7,65.9,14.3,100.6c-3.9,40.2-28.4,75.3-24.9,117.3c3.3,39,32.6,73.2,62.1,87.4
				c21.7,10.4,46.2,13.7,69.8,9.4c24.1-4.2,43.5-19.1,63.5-34.6c21.5-16.8,41.6-27.4,67.4-30c18.3-1.8,36.7-1.4,55-3.1
				c24-2.1,50.4-9.8,65.6-33.5c18.1-28.4,20-73.6,10.9-106.6C4263.7,1729.9,4255.6,1720.8,4251.2,1709.4z"/>
			<path id="Path_101604" class="st2" d="M4251.2,1709.4c-0.3-0.8-0.6-1.6-0.9-2.4c-10.1-31.1,0.2-63.3,2.6-94.7
				c7.6-101.2-92.6-153.1-165.8-137.5c-20.2,4.4-39.1,14.4-55.3,29.2c-15.3,14.1-27.9,32.2-45.7,42.2
				c-40.4,22.6-96.9,24.2-102.8,89.1c-3.2,35.4,17.7,65.9,14.3,100.6c-3.9,40.2-28.4,75.3-24.9,117.3c3.3,39,32.6,73.2,62.1,87.4
				c21.7,10.4,46.2,13.7,69.8,9.4c24.1-4.2,43.5-19.1,63.5-34.6c21.5-16.8,41.6-27.4,67.4-30c18.3-1.8,36.7-1.4,55-3.1
				c24-2.1,50.4-9.8,65.6-33.5c18.1-28.4,20-73.6,10.9-106.6C4263.7,1729.9,4255.6,1720.8,4251.2,1709.4z"/>
		</g>
		<g id="freepik--Window--inject-2">
			<rect id="Rectangle_5780" x="3942.7" y="1497.5" class="st3" width="266.7" height="185.5"/>
			<path id="Rectangle_5780_-_Outline" class="st4" d="M3942.7,1497h266.7c0.3,0,0.5,0.2,0.5,0.5V1683c0,0.3-0.2,0.5-0.5,0.5h-266.7
				c-0.3,0-0.5-0.2-0.5-0.5v-185.5C3942.2,1497.2,3942.5,1497,3942.7,1497z M4208.9,1498h-265.7v184.5h265.7V1498z"/>
			<rect id="Rectangle_5781" x="3942.7" y="1497.5" class="st1" width="266.7" height="11.4"/>
			<path id="Rectangle_5781_-_Outline" class="st4" d="M3942.7,1497h266.7c0.3,0,0.5,0.2,0.5,0.5v11.4c0,0.3-0.2,0.5-0.5,0.5h-266.7
				c-0.3,0-0.5-0.2-0.5-0.5v-11.4C3942.2,1497.2,3942.5,1497,3942.7,1497z M4208.9,1498h-265.7v10.4h265.7V1498z"/>
			<path id="Path_101605" class="st3" d="M4180.3,1502.8c0.1-1.6-1.1-3-2.7-3c-1.6-0.1-3,1.1-3,2.7c-0.1,1.6,1.1,3,2.7,3
				c0.1,0,0.1,0,0.2,0C4178.9,1505.6,4180.2,1504.4,4180.3,1502.8z"/>
			<path id="Path_101605_-_Outline" class="st4" d="M4177.4,1499.6c1.8,0.1,3.2,1.6,3.1,3.4c-0.1,1.8-1.6,3.2-3.4,3.1
				c-1.7-0.1-3.1-1.5-3.1-3.2C4174,1501,4175.6,1499.6,4177.4,1499.6z M4177.4,1505.1c1.2-0.1,2.2-1.1,2.1-2.4
				c-0.1-1.2-1.1-2.2-2.4-2.1c-1.2,0.1-2.1,1.1-2.1,2.2C4175,1504.1,4176.1,1505.1,4177.4,1505.1z"/>
			<path id="Path_101606" class="st3" d="M4190.3,1502.8c0.1-1.6-1.1-3-2.7-3c-1.6-0.1-3,1.1-3,2.7c-0.1,1.6,1.1,3,2.7,3
				c0.1,0,0.1,0,0.2,0C4189,1505.6,4190.2,1504.4,4190.3,1502.8z"/>
			<path id="Path_101606_-_Outline" class="st4" d="M4187.4,1499.6c1.8,0.1,3.2,1.6,3.1,3.4c-0.1,1.8-1.6,3.2-3.4,3.1
				c-1.7-0.1-3.1-1.5-3.1-3.2C4184.1,1501,4185.6,1499.6,4187.4,1499.6z M4187.4,1505.1c1.2-0.1,2.2-1.1,2.1-2.4s-1.1-2.2-2.4-2.1
				c-1.2,0.1-2.1,1.1-2.1,2.2C4185.1,1504.1,4186.1,1505.1,4187.4,1505.1z"/>
			<ellipse id="Ellipse_4137" class="st3" cx="4197.4" cy="1502.8" rx="2.9" ry="2.7"/>
			<path id="Ellipse_4137_-_Outline" class="st4" d="M4197.4,1499.6c1.8,0,3.3,1.4,3.4,3.2c0,1.8-1.6,3.3-3.4,3.2
				c-1.8,0-3.3-1.4-3.4-3.2C4194,1501,4195.6,1499.6,4197.4,1499.6z M4197.4,1505.1c1.3,0,2.3-1,2.4-2.2c0-1.3-1.1-2.3-2.4-2.2
				c-1.3,0-2.3,1-2.4,2.2C4195,1504.1,4196.1,1505.1,4197.4,1505.1z"/>
			<path id="Rectangle_5782" class="st5" d="M4086.2,1521.5h3c0.3,0,0.5,0.2,0.5,0.5s-0.2,0.5-0.5,0.5h-2.5v1.2
				c0,0.3-0.2,0.5-0.5,0.5s-0.5-0.2-0.5-0.5v-1.7C4085.7,1521.7,4085.9,1521.5,4086.2,1521.5z M4092.2,1521.5h3
				c0.3,0,0.5,0.2,0.5,0.5s-0.2,0.5-0.5,0.5h-3c-0.3,0-0.5-0.2-0.5-0.5S4091.9,1521.5,4092.2,1521.5z M4098.2,1521.5h3
				c0.3,0,0.5,0.2,0.5,0.5s-0.2,0.5-0.5,0.5h-3c-0.3,0-0.5-0.2-0.5-0.5S4097.9,1521.5,4098.2,1521.5z M4104.2,1521.5h3
				c0.3,0,0.5,0.2,0.5,0.5s-0.2,0.5-0.5,0.5h-3c-0.3,0-0.5-0.2-0.5-0.5S4103.9,1521.5,4104.2,1521.5z M4110.2,1521.5h3
				c0.3,0,0.5,0.2,0.5,0.5s-0.2,0.5-0.5,0.5h-3c-0.3,0-0.5-0.2-0.5-0.5S4109.9,1521.5,4110.2,1521.5z M4116.2,1521.5h3
				c0.3,0,0.5,0.2,0.5,0.5s-0.2,0.5-0.5,0.5h-3c-0.3,0-0.5-0.2-0.5-0.5S4115.9,1521.5,4116.2,1521.5z M4122.2,1521.5h3
				c0.3,0,0.5,0.2,0.5,0.5s-0.2,0.5-0.5,0.5h-3c-0.3,0-0.5-0.2-0.5-0.5S4121.9,1521.5,4122.2,1521.5z M4128.2,1521.5h3
				c0.3,0,0.5,0.2,0.5,0.5s-0.2,0.5-0.5,0.5h-3c-0.3,0-0.5-0.2-0.5-0.5S4127.9,1521.5,4128.2,1521.5z M4134.2,1521.5h3
				c0.3,0,0.5,0.2,0.5,0.5s-0.2,0.5-0.5,0.5h-3c-0.3,0-0.5-0.2-0.5-0.5S4133.9,1521.5,4134.2,1521.5z M4140.2,1521.5h3
				c0.3,0,0.5,0.2,0.5,0.5s-0.2,0.5-0.5,0.5h-3c-0.3,0-0.5-0.2-0.5-0.5S4139.9,1521.5,4140.2,1521.5z M4146.2,1521.5h3
				c0.3,0,0.5,0.2,0.5,0.5s-0.2,0.5-0.5,0.5h-3c-0.3,0-0.5-0.2-0.5-0.5S4145.9,1521.5,4146.2,1521.5z M4152.2,1521.5h3
				c0.3,0,0.5,0.2,0.5,0.5s-0.2,0.5-0.5,0.5h-3c-0.3,0-0.5-0.2-0.5-0.5S4151.9,1521.5,4152.2,1521.5z M4158.2,1521.5h3
				c0.3,0,0.5,0.2,0.5,0.5s-0.2,0.5-0.5,0.5h-3c-0.3,0-0.5-0.2-0.5-0.5S4157.9,1521.5,4158.2,1521.5z M4164.2,1521.5h3
				c0.3,0,0.5,0.2,0.5,0.5s-0.2,0.5-0.5,0.5h-3c-0.3,0-0.5-0.2-0.5-0.5S4163.9,1521.5,4164.2,1521.5z M4170.2,1521.5h3
				c0.3,0,0.5,0.2,0.5,0.5s-0.2,0.5-0.5,0.5h-3c-0.3,0-0.5-0.2-0.5-0.5S4169.9,1521.5,4170.2,1521.5z M4176.2,1521.5h3
				c0.3,0,0.5,0.2,0.5,0.5s-0.2,0.5-0.5,0.5h-3c-0.3,0-0.5-0.2-0.5-0.5S4175.9,1521.5,4176.2,1521.5z M4182.2,1521.5h3
				c0.3,0,0.5,0.2,0.5,0.5s-0.2,0.5-0.5,0.5h-3c-0.3,0-0.5-0.2-0.5-0.5S4181.9,1521.5,4182.2,1521.5z M4188.2,1521.5h3
				c0.3,0,0.5,0.2,0.5,0.5s-0.2,0.5-0.5,0.5h-3c-0.3,0-0.5-0.2-0.5-0.5S4187.9,1521.5,4188.2,1521.5z M4193.6,1522.2
				c0.3,0,0.5,0.2,0.5,0.5v3c0,0.3-0.2,0.5-0.5,0.5c-0.3,0-0.5-0.2-0.5-0.5v-3C4193.1,1522.4,4193.3,1522.2,4193.6,1522.2
				C4193.6,1522.2,4193.6,1522.2,4193.6,1522.2z M4086.2,1526.2c0.3,0,0.5,0.2,0.5,0.5v3c0,0.3-0.2,0.5-0.5,0.5c0,0,0,0,0,0
				c-0.3,0-0.5-0.2-0.5-0.5v-3C4085.7,1526.5,4085.9,1526.2,4086.2,1526.2C4086.2,1526.2,4086.2,1526.2,4086.2,1526.2z
				 M4193.6,1528.2c0.3,0,0.5,0.2,0.5,0.5v3c0,0.3-0.2,0.5-0.5,0.5c-0.3,0-0.5-0.2-0.5-0.5v-3
				C4193.1,1528.4,4193.3,1528.2,4193.6,1528.2z M4086.2,1532.2c0.3,0,0.5,0.2,0.5,0.5v3c0,0.3-0.2,0.5-0.5,0.5s-0.5-0.2-0.5-0.5v-3
				C4085.7,1532.5,4085.9,1532.2,4086.2,1532.2z M4193.6,1534.2c0.3,0,0.5,0.2,0.5,0.5v3c0,0.3-0.2,0.5-0.5,0.5
				c-0.3,0-0.5-0.2-0.5-0.5v-3C4193.1,1534.4,4193.3,1534.2,4193.6,1534.2z M4086.2,1538.2c0.3,0,0.5,0.2,0.5,0.5v3
				c0,0.3-0.2,0.5-0.5,0.5s-0.5-0.2-0.5-0.5v-3C4085.7,1538.5,4085.9,1538.2,4086.2,1538.2z M4193.6,1540.2c0.3,0,0.5,0.2,0.5,0.5v3
				c0,0.3-0.2,0.5-0.5,0.5c-0.3,0-0.5-0.2-0.5-0.5v-3C4193.1,1540.4,4193.3,1540.2,4193.6,1540.2z M4086.2,1544.2
				c0.3,0,0.5,0.2,0.5,0.5v3c0,0.3-0.2,0.5-0.5,0.5s-0.5-0.2-0.5-0.5v-3C4085.7,1544.5,4085.9,1544.2,4086.2,1544.2z M4193.6,1546.2
				c0.3,0,0.5,0.2,0.5,0.5v3c0,0.3-0.2,0.5-0.5,0.5c-0.3,0-0.5-0.2-0.5-0.5v-3C4193.1,1546.4,4193.3,1546.2,4193.6,1546.2z
				 M4086.2,1550.2c0.3,0,0.5,0.2,0.5,0.5v3c0,0.3-0.2,0.5-0.5,0.5s-0.5-0.2-0.5-0.5v-3C4085.7,1550.5,4085.9,1550.2,4086.2,1550.2z
				 M4193.6,1552.2c0.3,0,0.5,0.2,0.5,0.5v3c0,0.3-0.2,0.5-0.5,0.5c-0.3,0-0.5-0.2-0.5-0.5v-3
				C4193.1,1552.4,4193.3,1552.2,4193.6,1552.2L4193.6,1552.2z M4086.2,1556.2c0.3,0,0.5,0.2,0.5,0.5v3c0,0.3-0.2,0.5-0.5,0.5
				s-0.5-0.2-0.5-0.5v-3C4085.7,1556.5,4085.9,1556.2,4086.2,1556.2z M4193.6,1558.2c0.3,0,0.5,0.2,0.5,0.5v3c0,0.3-0.2,0.5-0.5,0.5
				c-0.3,0-0.5-0.2-0.5-0.5v-3C4193.1,1558.4,4193.3,1558.2,4193.6,1558.2z M4086.2,1562.2c0.3,0,0.5,0.2,0.5,0.5v3
				c0,0.3-0.2,0.5-0.5,0.5s-0.5-0.2-0.5-0.5v-3C4085.7,1562.5,4085.9,1562.2,4086.2,1562.2z M4193.6,1564.2c0.3,0,0.5,0.2,0.5,0.5v3
				c0,0.3-0.2,0.5-0.5,0.5c-0.3,0-0.5-0.2-0.5-0.5v-3C4193.1,1564.4,4193.3,1564.2,4193.6,1564.2z M4086.2,1568.2
				c0.3,0,0.5,0.2,0.5,0.5v3c0,0.3-0.2,0.5-0.5,0.5s-0.5-0.2-0.5-0.5v-3C4085.7,1568.5,4085.9,1568.2,4086.2,1568.2z M4193.6,1570.2
				c0.3,0,0.5,0.2,0.5,0.5v3c0,0.3-0.2,0.5-0.5,0.5c-0.3,0-0.5-0.2-0.5-0.5v-3C4193.1,1570.4,4193.3,1570.2,4193.6,1570.2z
				 M4086.2,1574.2c0.3,0,0.5,0.2,0.5,0.5v3c0,0.3-0.2,0.5-0.5,0.5s-0.5-0.2-0.5-0.5v-3C4085.7,1574.5,4085.9,1574.2,4086.2,1574.2z
				 M4193.6,1576.2c0.3,0,0.5,0.2,0.5,0.5v3c0,0.3-0.2,0.5-0.5,0.5c-0.3,0-0.5-0.2-0.5-0.5v-3
				C4193.1,1576.4,4193.3,1576.2,4193.6,1576.2z M4086.2,1580.2c0.3,0,0.5,0.2,0.5,0.5v3c0,0.3-0.2,0.5-0.5,0.5s-0.5-0.2-0.5-0.5v-3
				C4085.7,1580.5,4085.9,1580.2,4086.2,1580.2z M4193.6,1582.2c0.3,0,0.5,0.2,0.5,0.5v3c0,0.3-0.2,0.5-0.5,0.5
				c-0.3,0-0.5-0.2-0.5-0.5v-3C4193.1,1582.4,4193.3,1582.2,4193.6,1582.2z M4086.2,1586.2c0.3,0,0.5,0.2,0.5,0.5v3
				c0,0.3-0.2,0.5-0.5,0.5s-0.5-0.2-0.5-0.5v-3C4085.7,1586.5,4085.9,1586.2,4086.2,1586.2z M4193.6,1588.2c0.3,0,0.5,0.2,0.5,0.5v3
				c0,0.3-0.2,0.5-0.5,0.5c-0.3,0-0.5-0.2-0.5-0.5v-3C4193.1,1588.4,4193.3,1588.2,4193.6,1588.2z M4086.2,1592.2
				c0.3,0,0.5,0.2,0.5,0.5v3c0,0.3-0.2,0.5-0.5,0.5s-0.5-0.2-0.5-0.5v-3C4085.7,1592.5,4085.9,1592.2,4086.2,1592.2z M4193.6,1594.2
				c0.3,0,0.5,0.2,0.5,0.5v3c0,0.3-0.2,0.5-0.5,0.5c-0.3,0-0.5-0.2-0.5-0.5v-3C4193.1,1594.4,4193.3,1594.2,4193.6,1594.2z
				 M4086.2,1598.2c0.3,0,0.5,0.2,0.5,0.5v3c0,0.3-0.2,0.5-0.5,0.5s-0.5-0.2-0.5-0.5v-3C4085.7,1598.5,4085.9,1598.2,4086.2,1598.2z
				 M4193.6,1600.2c0.3,0,0.5,0.2,0.5,0.5v3c0,0.3-0.2,0.5-0.5,0.5c-0.3,0-0.5-0.2-0.5-0.5v-3
				C4193.1,1600.4,4193.3,1600.2,4193.6,1600.2z M4086.2,1604.2c0.3,0,0.5,0.2,0.5,0.5v3c0,0.3-0.2,0.5-0.5,0.5s-0.5-0.2-0.5-0.5v-3
				C4085.7,1604.5,4085.9,1604.2,4086.2,1604.2z M4193.6,1606.2c0.3,0,0.5,0.2,0.5,0.5v3c0,0.3-0.2,0.5-0.5,0.5
				c-0.3,0-0.5-0.2-0.5-0.5v-3C4193.1,1606.4,4193.3,1606.2,4193.6,1606.2z M4086.2,1610.2c0.3,0,0.5,0.2,0.5,0.5v3
				c0,0.3-0.2,0.5-0.5,0.5s-0.5-0.2-0.5-0.5v-3C4085.7,1610.5,4085.9,1610.2,4086.2,1610.2z M4193.6,1612.2c0.3,0,0.5,0.2,0.5,0.5v3
				c0,0.3-0.2,0.5-0.5,0.5c-0.3,0-0.5-0.2-0.5-0.5v-3C4193.1,1612.4,4193.3,1612.2,4193.6,1612.2z M4086.2,1616.2
				c0.3,0,0.5,0.2,0.5,0.5v3c0,0.3-0.2,0.5-0.5,0.5s-0.5-0.2-0.5-0.5v-3C4085.7,1616.5,4085.9,1616.2,4086.2,1616.2z M4193.6,1618.2
				c0.3,0,0.5,0.2,0.5,0.5v3c0,0.3-0.2,0.5-0.5,0.5c-0.3,0-0.5-0.2-0.5-0.5v-3C4193.1,1618.4,4193.3,1618.2,4193.6,1618.2z
				 M4086.2,1622.2c0.3,0,0.5,0.2,0.5,0.5v3c0,0.3-0.2,0.5-0.5,0.5s-0.5-0.2-0.5-0.5v-3C4085.7,1622.5,4085.9,1622.2,4086.2,1622.2z
				 M4193.6,1624.2c0.3,0,0.5,0.2,0.5,0.5v3c0,0.3-0.2,0.5-0.5,0.5c-0.3,0-0.5-0.2-0.5-0.5v-3
				C4193.1,1624.4,4193.3,1624.2,4193.6,1624.2z M4086.2,1628.2c0.3,0,0.5,0.2,0.5,0.5v3c0,0.3-0.2,0.5-0.5,0.5s-0.5-0.2-0.5-0.5v-3
				C4085.7,1628.5,4085.9,1628.2,4086.2,1628.2z M4193.6,1630.2c0.3,0,0.5,0.2,0.5,0.5v3c0,0.3-0.2,0.5-0.5,0.5
				c-0.3,0-0.5-0.2-0.5-0.5v-3C4193.1,1630.4,4193.3,1630.2,4193.6,1630.2z M4086.2,1634.2c0.3,0,0.5,0.2,0.5,0.5v3
				c0,0.3-0.2,0.5-0.5,0.5s-0.5-0.2-0.5-0.5v-3C4085.7,1634.5,4085.9,1634.2,4086.2,1634.2z M4193.6,1636.2c0.3,0,0.5,0.2,0.5,0.5v3
				c0,0.3-0.2,0.5-0.5,0.5c-0.3,0-0.5-0.2-0.5-0.5v-3C4193.1,1636.4,4193.3,1636.2,4193.6,1636.2z M4086.2,1640.2
				c0.3,0,0.5,0.2,0.5,0.5v3c0,0.3-0.2,0.5-0.5,0.5s-0.5-0.2-0.5-0.5v-3C4085.7,1640.5,4085.9,1640.2,4086.2,1640.2z M4193.6,1642.2
				c0.3,0,0.5,0.2,0.5,0.5v3c0,0.3-0.2,0.5-0.5,0.5c-0.3,0-0.5-0.2-0.5-0.5v-3C4193.1,1642.4,4193.3,1642.2,4193.6,1642.2z
				 M4086.2,1646.2c0.3,0,0.5,0.2,0.5,0.5v3c0,0.3-0.2,0.5-0.5,0.5s-0.5-0.2-0.5-0.5v-3C4085.7,1646.5,4085.9,1646.2,4086.2,1646.2z
				 M4193.6,1648.2c0.3,0,0.5,0.2,0.5,0.5v3c0,0.3-0.2,0.5-0.5,0.5c-0.3,0-0.5-0.2-0.5-0.5v-3
				C4193.1,1648.4,4193.3,1648.2,4193.6,1648.2z M4086.2,1652.2c0.3,0,0.5,0.2,0.5,0.5v3c0,0.3-0.2,0.5-0.5,0.5s-0.5-0.2-0.5-0.5v-3
				C4085.7,1652.5,4085.9,1652.2,4086.2,1652.2z M4193.6,1654.2c0.3,0,0.5,0.2,0.5,0.5v3c0,0.3-0.2,0.5-0.5,0.5
				c-0.3,0-0.5-0.2-0.5-0.5v-3C4193.1,1654.4,4193.3,1654.2,4193.6,1654.2C4193.6,1654.2,4193.6,1654.2,4193.6,1654.2L4193.6,1654.2
				z M4086.2,1658.2c0.3,0,0.5,0.2,0.5,0.5v3c0,0.3-0.2,0.5-0.5,0.5s-0.5-0.2-0.5-0.5v-3C4085.7,1658.5,4085.9,1658.2,4086.2,1658.2
				z M4193.6,1660.2c0.3,0,0.5,0.2,0.5,0.5v3c0,0.3-0.2,0.5-0.5,0.5c-0.3,0-0.5-0.2-0.5-0.5v-3
				C4193.1,1660.4,4193.3,1660.2,4193.6,1660.2C4193.6,1660.2,4193.6,1660.2,4193.6,1660.2L4193.6,1660.2z M4086.2,1664.2
				c0.3,0,0.5,0.2,0.5,0.5v3c0,0.3-0.2,0.5-0.5,0.5s-0.5-0.2-0.5-0.5v-3C4085.7,1664.5,4085.9,1664.2,4086.2,1664.2z M4193.6,1666.2
				c0.3,0,0.5,0.2,0.5,0.5v3c0,0.3-0.2,0.5-0.5,0.5c-0.3,0-0.5-0.2-0.5-0.5v-3C4193.1,1666.4,4193.3,1666.2,4193.6,1666.2
				C4193.6,1666.2,4193.6,1666.2,4193.6,1666.2L4193.6,1666.2z M4086.2,1670.2c0.3,0,0.5,0.2,0.5,0.5v3c0,0.3-0.2,0.5-0.5,0.5
				s-0.5-0.2-0.5-0.5v-3C4085.7,1670.5,4085.9,1670.2,4086.2,1670.2z M4193.6,1672.2c0.3,0,0.5,0.2,0.5,0.5v3c0,0.3-0.2,0.5-0.5,0.5
				c-0.3,0-0.5-0.2-0.5-0.5v-3C4193.1,1672.4,4193.3,1672.2,4193.6,1672.2C4193.6,1672.2,4193.6,1672.2,4193.6,1672.2L4193.6,1672.2
				z M4086.4,1676h3c0.3,0,0.5,0.2,0.5,0.5s-0.2,0.5-0.5,0.5h-3c-0.3,0-0.5-0.2-0.5-0.5S4086.1,1676,4086.4,1676z M4092.4,1676h3
				c0.3,0,0.5,0.2,0.5,0.5s-0.2,0.5-0.5,0.5h-3c-0.3,0-0.5-0.2-0.5-0.5S4092.1,1676,4092.4,1676z M4098.4,1676h3
				c0.3,0,0.5,0.2,0.5,0.5s-0.2,0.5-0.5,0.5h-3c-0.3,0-0.5-0.2-0.5-0.5S4098.1,1676,4098.4,1676z M4104.4,1676h3
				c0.3,0,0.5,0.2,0.5,0.5s-0.2,0.5-0.5,0.5h-3c-0.3,0-0.5-0.2-0.5-0.5S4104.1,1676,4104.4,1676z M4110.4,1676h3
				c0.3,0,0.5,0.2,0.5,0.5s-0.2,0.5-0.5,0.5h-3c-0.3,0-0.5-0.2-0.5-0.5S4110.1,1676,4110.4,1676z M4116.4,1676h3
				c0.3,0,0.5,0.2,0.5,0.5s-0.2,0.5-0.5,0.5h-3c-0.3,0-0.5-0.2-0.5-0.5S4116.1,1676,4116.4,1676z M4122.4,1676h3
				c0.3,0,0.5,0.2,0.5,0.5s-0.2,0.5-0.5,0.5h-3c-0.3,0-0.5-0.2-0.5-0.5S4122.1,1676,4122.4,1676z M4128.4,1676h3
				c0.3,0,0.5,0.2,0.5,0.5s-0.2,0.5-0.5,0.5h-3c-0.3,0-0.5-0.2-0.5-0.5S4128.1,1676,4128.4,1676z M4134.4,1676h3
				c0.3,0,0.5,0.2,0.5,0.5s-0.2,0.5-0.5,0.5h-3c-0.3,0-0.5-0.2-0.5-0.5S4134.1,1676,4134.4,1676z M4140.4,1676h3
				c0.3,0,0.5,0.2,0.5,0.5s-0.2,0.5-0.5,0.5h-3c-0.3,0-0.5-0.2-0.5-0.5S4140.1,1676,4140.4,1676z M4146.4,1676h3
				c0.3,0,0.5,0.2,0.5,0.5s-0.2,0.5-0.5,0.5h-3c-0.3,0-0.5-0.2-0.5-0.5S4146.1,1676,4146.4,1676z M4152.4,1676h3
				c0.3,0,0.5,0.2,0.5,0.5s-0.2,0.5-0.5,0.5h-3c-0.3,0-0.5-0.2-0.5-0.5S4152.1,1676,4152.4,1676z M4158.4,1676h3
				c0.3,0,0.5,0.2,0.5,0.5s-0.2,0.5-0.5,0.5h-3c-0.3,0-0.5-0.2-0.5-0.5S4158.1,1676,4158.4,1676z M4164.4,1676h3
				c0.3,0,0.5,0.2,0.5,0.5s-0.2,0.5-0.5,0.5h-3c-0.3,0-0.5-0.2-0.5-0.5S4164.1,1676,4164.4,1676z M4170.4,1676h3
				c0.3,0,0.5,0.2,0.5,0.5s-0.2,0.5-0.5,0.5h-3c-0.3,0-0.5-0.2-0.5-0.5S4170.1,1676,4170.4,1676z M4176.4,1676h3
				c0.3,0,0.5,0.2,0.5,0.5s-0.2,0.5-0.5,0.5h-3c-0.3,0-0.5-0.2-0.5-0.5S4176.1,1676,4176.4,1676z M4182.4,1676h3
				c0.3,0,0.5,0.2,0.5,0.5s-0.2,0.5-0.5,0.5h-3c-0.3,0-0.5-0.2-0.5-0.5S4182.1,1676,4182.4,1676z M4188.4,1676h3
				c0.3,0,0.5,0.2,0.5,0.5s-0.2,0.5-0.5,0.5h-3c-0.3,0-0.5-0.2-0.5-0.5S4188.1,1676,4188.4,1676z"/>
			<path id="Rectangle_5783" class="st5" d="M3959.1,1521.5h3c0.3,0,0.5,0.2,0.5,0.5s-0.2,0.5-0.5,0.5h-2.5v1.2
				c0,0.3-0.2,0.5-0.5,0.5s-0.5-0.2-0.5-0.5v-1.7C3958.6,1521.7,3958.9,1521.5,3959.1,1521.5z M3965.1,1521.5h3
				c0.3,0,0.5,0.2,0.5,0.5s-0.2,0.5-0.5,0.5h-3c-0.3,0-0.5-0.2-0.5-0.5S3964.9,1521.5,3965.1,1521.5z M3971.1,1521.5h3
				c0.3,0,0.5,0.2,0.5,0.5s-0.2,0.5-0.5,0.5h-3c-0.3,0-0.5-0.2-0.5-0.5S3970.9,1521.5,3971.1,1521.5z M3977.1,1521.5h3
				c0.3,0,0.5,0.2,0.5,0.5s-0.2,0.5-0.5,0.5h-3c-0.3,0-0.5-0.2-0.5-0.5S3976.9,1521.5,3977.1,1521.5z M3983.1,1521.5h3
				c0.3,0,0.5,0.2,0.5,0.5s-0.2,0.5-0.5,0.5h-3c-0.3,0-0.5-0.2-0.5-0.5S3982.9,1521.5,3983.1,1521.5z M3989.1,1521.5h3
				c0.3,0,0.5,0.2,0.5,0.5s-0.2,0.5-0.5,0.5h-3c-0.3,0-0.5-0.2-0.5-0.5S3988.9,1521.5,3989.1,1521.5z M3995.1,1521.5h3
				c0.3,0,0.5,0.2,0.5,0.5s-0.2,0.5-0.5,0.5h-3c-0.3,0-0.5-0.2-0.5-0.5S3994.9,1521.5,3995.1,1521.5z M4001.1,1521.5h3
				c0.3,0,0.5,0.2,0.5,0.5s-0.2,0.5-0.5,0.5h-3c-0.3,0-0.5-0.2-0.5-0.5S4000.9,1521.5,4001.1,1521.5z M4007.1,1521.5h3
				c0.3,0,0.5,0.2,0.5,0.5s-0.2,0.5-0.5,0.5h-3c-0.3,0-0.5-0.2-0.5-0.5S4006.9,1521.5,4007.1,1521.5z M4013.1,1521.5h3
				c0.3,0,0.5,0.2,0.5,0.5s-0.2,0.5-0.5,0.5h-3c-0.3,0-0.5-0.2-0.5-0.5S4012.9,1521.5,4013.1,1521.5z M4019.1,1521.5h3
				c0.3,0,0.5,0.2,0.5,0.5s-0.2,0.5-0.5,0.5h-3c-0.3,0-0.5-0.2-0.5-0.5S4018.9,1521.5,4019.1,1521.5z M4025.1,1521.5h3
				c0.3,0,0.5,0.2,0.5,0.5s-0.2,0.5-0.5,0.5h-3c-0.3,0-0.5-0.2-0.5-0.5S4024.9,1521.5,4025.1,1521.5z M4031.1,1521.5h3
				c0.3,0,0.5,0.2,0.5,0.5s-0.2,0.5-0.5,0.5h-3c-0.3,0-0.5-0.2-0.5-0.5S4030.9,1521.5,4031.1,1521.5z M4037.1,1521.5h3
				c0.3,0,0.5,0.2,0.5,0.5s-0.2,0.5-0.5,0.5h-3c-0.3,0-0.5-0.2-0.5-0.5S4036.9,1521.5,4037.1,1521.5z M4043.1,1521.5h3
				c0.3,0,0.5,0.2,0.5,0.5s-0.2,0.5-0.5,0.5h-3c-0.3,0-0.5-0.2-0.5-0.5S4042.9,1521.5,4043.1,1521.5z M4049.1,1521.5h3
				c0.3,0,0.5,0.2,0.5,0.5s-0.2,0.5-0.5,0.5h-3c-0.3,0-0.5-0.2-0.5-0.5S4048.9,1521.5,4049.1,1521.5z M4055.1,1521.5h3
				c0.3,0,0.5,0.2,0.5,0.5s-0.2,0.5-0.5,0.5h-3c-0.3,0-0.5-0.2-0.5-0.5S4054.9,1521.5,4055.1,1521.5z M4061.1,1521.5h3
				c0.3,0,0.5,0.2,0.5,0.5s-0.2,0.5-0.5,0.5h-3c-0.3,0-0.5-0.2-0.5-0.5S4060.9,1521.5,4061.1,1521.5z M4066.5,1522.2
				c0.3,0,0.5,0.2,0.5,0.5v3c0,0.3-0.2,0.5-0.5,0.5c-0.3,0-0.5-0.2-0.5-0.5v-3C4066,1522.4,4066.2,1522.2,4066.5,1522.2
				C4066.5,1522.2,4066.5,1522.2,4066.5,1522.2z M3959.1,1526.2c0.3,0,0.5,0.2,0.5,0.5v3c0,0.3-0.2,0.5-0.5,0.5c0,0,0,0,0,0
				c-0.3,0-0.5-0.2-0.5-0.5v-3C3958.6,1526.5,3958.9,1526.2,3959.1,1526.2C3959.1,1526.2,3959.1,1526.2,3959.1,1526.2z
				 M4066.5,1528.2c0.3,0,0.5,0.2,0.5,0.5v3c0,0.3-0.2,0.5-0.5,0.5c-0.3,0-0.5-0.2-0.5-0.5v-3
				C4066,1528.4,4066.2,1528.2,4066.5,1528.2z M3959.1,1532.2c0.3,0,0.5,0.2,0.5,0.5v3c0,0.3-0.2,0.5-0.5,0.5s-0.5-0.2-0.5-0.5v-3
				C3958.6,1532.5,3958.9,1532.2,3959.1,1532.2z M4066.5,1534.2c0.3,0,0.5,0.2,0.5,0.5v3c0,0.3-0.2,0.5-0.5,0.5
				c-0.3,0-0.5-0.2-0.5-0.5v-3C4066,1534.4,4066.2,1534.2,4066.5,1534.2z M3959.1,1538.2c0.3,0,0.5,0.2,0.5,0.5v3
				c0,0.3-0.2,0.5-0.5,0.5s-0.5-0.2-0.5-0.5v-3C3958.6,1538.5,3958.9,1538.2,3959.1,1538.2z M4066.5,1540.2c0.3,0,0.5,0.2,0.5,0.5v3
				c0,0.3-0.2,0.5-0.5,0.5c-0.3,0-0.5-0.2-0.5-0.5v-3C4066,1540.4,4066.2,1540.2,4066.5,1540.2z M3959.1,1544.2
				c0.3,0,0.5,0.2,0.5,0.5v3c0,0.3-0.2,0.5-0.5,0.5s-0.5-0.2-0.5-0.5v-3C3958.6,1544.5,3958.9,1544.2,3959.1,1544.2z M4066.5,1546.2
				c0.3,0,0.5,0.2,0.5,0.5v3c0,0.3-0.2,0.5-0.5,0.5c-0.3,0-0.5-0.2-0.5-0.5v-3C4066,1546.4,4066.2,1546.2,4066.5,1546.2z
				 M3959.1,1550.2c0.3,0,0.5,0.2,0.5,0.5v3c0,0.3-0.2,0.5-0.5,0.5s-0.5-0.2-0.5-0.5v-3C3958.6,1550.5,3958.9,1550.2,3959.1,1550.2z
				 M4066.5,1552.2c0.3,0,0.5,0.2,0.5,0.5v3c0,0.3-0.2,0.5-0.5,0.5c-0.3,0-0.5-0.2-0.5-0.5v-3
				C4066,1552.4,4066.2,1552.2,4066.5,1552.2L4066.5,1552.2z M3959.1,1556.2c0.3,0,0.5,0.2,0.5,0.5v3c0,0.3-0.2,0.5-0.5,0.5
				s-0.5-0.2-0.5-0.5v-3C3958.6,1556.5,3958.9,1556.2,3959.1,1556.2z M4066.5,1558.2c0.3,0,0.5,0.2,0.5,0.5v3c0,0.3-0.2,0.5-0.5,0.5
				c-0.3,0-0.5-0.2-0.5-0.5v-3C4066,1558.4,4066.2,1558.2,4066.5,1558.2z M3959.1,1562.2c0.3,0,0.5,0.2,0.5,0.5v3
				c0,0.3-0.2,0.5-0.5,0.5s-0.5-0.2-0.5-0.5v-3C3958.6,1562.5,3958.9,1562.2,3959.1,1562.2z M4066.5,1564.2c0.3,0,0.5,0.2,0.5,0.5v3
				c0,0.3-0.2,0.5-0.5,0.5c-0.3,0-0.5-0.2-0.5-0.5v-3C4066,1564.4,4066.2,1564.2,4066.5,1564.2z M3959.1,1568.2
				c0.3,0,0.5,0.2,0.5,0.5v3c0,0.3-0.2,0.5-0.5,0.5s-0.5-0.2-0.5-0.5v-3C3958.6,1568.5,3958.9,1568.2,3959.1,1568.2z M4066.5,1570.2
				c0.3,0,0.5,0.2,0.5,0.5v3c0,0.3-0.2,0.5-0.5,0.5c-0.3,0-0.5-0.2-0.5-0.5v-3C4066,1570.4,4066.2,1570.2,4066.5,1570.2z
				 M3959.1,1574.2c0.3,0,0.5,0.2,0.5,0.5v3c0,0.3-0.2,0.5-0.5,0.5s-0.5-0.2-0.5-0.5v-3C3958.6,1574.5,3958.9,1574.2,3959.1,1574.2z
				 M4066.5,1576.2c0.3,0,0.5,0.2,0.5,0.5v3c0,0.3-0.2,0.5-0.5,0.5c-0.3,0-0.5-0.2-0.5-0.5v-3
				C4066,1576.4,4066.2,1576.2,4066.5,1576.2z M3959.1,1580.2c0.3,0,0.5,0.2,0.5,0.5v3c0,0.3-0.2,0.5-0.5,0.5s-0.5-0.2-0.5-0.5v-3
				C3958.6,1580.5,3958.9,1580.2,3959.1,1580.2z M4066.5,1582.2c0.3,0,0.5,0.2,0.5,0.5v3c0,0.3-0.2,0.5-0.5,0.5
				c-0.3,0-0.5-0.2-0.5-0.5v-3C4066,1582.4,4066.2,1582.2,4066.5,1582.2z M3959.1,1586.2c0.3,0,0.5,0.2,0.5,0.5v3
				c0,0.3-0.2,0.5-0.5,0.5s-0.5-0.2-0.5-0.5v-3C3958.6,1586.5,3958.9,1586.2,3959.1,1586.2z M4066.5,1588.2c0.3,0,0.5,0.2,0.5,0.5v3
				c0,0.3-0.2,0.5-0.5,0.5c-0.3,0-0.5-0.2-0.5-0.5v-3C4066,1588.4,4066.2,1588.2,4066.5,1588.2z M3959.1,1592.2
				c0.3,0,0.5,0.2,0.5,0.5v3c0,0.3-0.2,0.5-0.5,0.5s-0.5-0.2-0.5-0.5v-3C3958.6,1592.5,3958.9,1592.2,3959.1,1592.2z M4066.5,1594.2
				c0.3,0,0.5,0.2,0.5,0.5v3c0,0.3-0.2,0.5-0.5,0.5c-0.3,0-0.5-0.2-0.5-0.5v-3C4066,1594.4,4066.2,1594.2,4066.5,1594.2z
				 M3959.1,1598.2c0.3,0,0.5,0.2,0.5,0.5v3c0,0.3-0.2,0.5-0.5,0.5s-0.5-0.2-0.5-0.5v-3C3958.6,1598.5,3958.9,1598.2,3959.1,1598.2z
				 M4066.5,1600.2c0.3,0,0.5,0.2,0.5,0.5v3c0,0.3-0.2,0.5-0.5,0.5c-0.3,0-0.5-0.2-0.5-0.5v-3
				C4066,1600.4,4066.2,1600.2,4066.5,1600.2z M3959.1,1604.2c0.3,0,0.5,0.2,0.5,0.5v3c0,0.3-0.2,0.5-0.5,0.5s-0.5-0.2-0.5-0.5v-3
				C3958.6,1604.5,3958.9,1604.2,3959.1,1604.2z M4066.5,1606.2c0.3,0,0.5,0.2,0.5,0.5v3c0,0.3-0.2,0.5-0.5,0.5
				c-0.3,0-0.5-0.2-0.5-0.5v-3C4066,1606.4,4066.2,1606.2,4066.5,1606.2z M3959.1,1610.2c0.3,0,0.5,0.2,0.5,0.5v3
				c0,0.3-0.2,0.5-0.5,0.5s-0.5-0.2-0.5-0.5v-3C3958.6,1610.5,3958.9,1610.2,3959.1,1610.2z M4066.5,1612.2c0.3,0,0.5,0.2,0.5,0.5v3
				c0,0.3-0.2,0.5-0.5,0.5c-0.3,0-0.5-0.2-0.5-0.5v-3C4066,1612.4,4066.2,1612.2,4066.5,1612.2z M3959.1,1616.2
				c0.3,0,0.5,0.2,0.5,0.5v3c0,0.3-0.2,0.5-0.5,0.5s-0.5-0.2-0.5-0.5v-3C3958.6,1616.5,3958.9,1616.2,3959.1,1616.2z M4066.5,1618.2
				c0.3,0,0.5,0.2,0.5,0.5v3c0,0.3-0.2,0.5-0.5,0.5c-0.3,0-0.5-0.2-0.5-0.5v-3C4066,1618.4,4066.2,1618.2,4066.5,1618.2z
				 M3959.1,1622.2c0.3,0,0.5,0.2,0.5,0.5v3c0,0.3-0.2,0.5-0.5,0.5s-0.5-0.2-0.5-0.5v-3C3958.6,1622.5,3958.9,1622.2,3959.1,1622.2z
				 M4066.5,1624.2c0.3,0,0.5,0.2,0.5,0.5v3c0,0.3-0.2,0.5-0.5,0.5c-0.3,0-0.5-0.2-0.5-0.5v-3
				C4066,1624.4,4066.2,1624.2,4066.5,1624.2z M3959.1,1628.2c0.3,0,0.5,0.2,0.5,0.5v3c0,0.3-0.2,0.5-0.5,0.5s-0.5-0.2-0.5-0.5v-3
				C3958.6,1628.5,3958.9,1628.2,3959.1,1628.2z M4066.5,1630.2c0.3,0,0.5,0.2,0.5,0.5v3c0,0.3-0.2,0.5-0.5,0.5
				c-0.3,0-0.5-0.2-0.5-0.5v-3C4066,1630.4,4066.2,1630.2,4066.5,1630.2z M3959.1,1634.2c0.3,0,0.5,0.2,0.5,0.5v3
				c0,0.3-0.2,0.5-0.5,0.5s-0.5-0.2-0.5-0.5v-3C3958.6,1634.5,3958.9,1634.2,3959.1,1634.2z M4066.5,1636.2c0.3,0,0.5,0.2,0.5,0.5v3
				c0,0.3-0.2,0.5-0.5,0.5c-0.3,0-0.5-0.2-0.5-0.5v-3C4066,1636.4,4066.2,1636.2,4066.5,1636.2z M3959.1,1640.2
				c0.3,0,0.5,0.2,0.5,0.5v3c0,0.3-0.2,0.5-0.5,0.5s-0.5-0.2-0.5-0.5v-3C3958.6,1640.5,3958.9,1640.2,3959.1,1640.2z M4066.5,1642.2
				c0.3,0,0.5,0.2,0.5,0.5v3c0,0.3-0.2,0.5-0.5,0.5c-0.3,0-0.5-0.2-0.5-0.5v-3C4066,1642.4,4066.2,1642.2,4066.5,1642.2z
				 M3959.1,1646.2c0.3,0,0.5,0.2,0.5,0.5v3c0,0.3-0.2,0.5-0.5,0.5s-0.5-0.2-0.5-0.5v-3C3958.6,1646.5,3958.9,1646.2,3959.1,1646.2z
				 M4066.5,1648.2c0.3,0,0.5,0.2,0.5,0.5v3c0,0.3-0.2,0.5-0.5,0.5c-0.3,0-0.5-0.2-0.5-0.5v-3
				C4066,1648.4,4066.2,1648.2,4066.5,1648.2z M3959.1,1652.2c0.3,0,0.5,0.2,0.5,0.5v3c0,0.3-0.2,0.5-0.5,0.5s-0.5-0.2-0.5-0.5v-3
				C3958.6,1652.5,3958.9,1652.2,3959.1,1652.2z M4066.5,1654.2c0.3,0,0.5,0.2,0.5,0.5v3c0,0.3-0.2,0.5-0.5,0.5
				c-0.3,0-0.5-0.2-0.5-0.5v-3C4066,1654.4,4066.2,1654.2,4066.5,1654.2C4066.5,1654.2,4066.5,1654.2,4066.5,1654.2L4066.5,1654.2z
				 M3959.1,1658.2c0.3,0,0.5,0.2,0.5,0.5v3c0,0.3-0.2,0.5-0.5,0.5s-0.5-0.2-0.5-0.5v-3C3958.6,1658.5,3958.9,1658.2,3959.1,1658.2z
				 M4066.5,1660.2c0.3,0,0.5,0.2,0.5,0.5v3c0,0.3-0.2,0.5-0.5,0.5c-0.3,0-0.5-0.2-0.5-0.5v-3
				C4066,1660.4,4066.2,1660.2,4066.5,1660.2C4066.5,1660.2,4066.5,1660.2,4066.5,1660.2L4066.5,1660.2z M3959.1,1664.2
				c0.3,0,0.5,0.2,0.5,0.5v3c0,0.3-0.2,0.5-0.5,0.5s-0.5-0.2-0.5-0.5v-3C3958.6,1664.5,3958.9,1664.2,3959.1,1664.2z M4066.5,1666.2
				c0.3,0,0.5,0.2,0.5,0.5v3c0,0.3-0.2,0.5-0.5,0.5c-0.3,0-0.5-0.2-0.5-0.5v-3C4066,1666.4,4066.2,1666.2,4066.5,1666.2
				C4066.5,1666.2,4066.5,1666.2,4066.5,1666.2L4066.5,1666.2z M3959.1,1670.2c0.3,0,0.5,0.2,0.5,0.5v3c0,0.3-0.2,0.5-0.5,0.5
				s-0.5-0.2-0.5-0.5v-3C3958.6,1670.5,3958.9,1670.2,3959.1,1670.2z M4066.5,1672.2c0.3,0,0.5,0.2,0.5,0.5v3c0,0.3-0.2,0.5-0.5,0.5
				c-0.3,0-0.5-0.2-0.5-0.5v-3C4066,1672.4,4066.2,1672.2,4066.5,1672.2C4066.5,1672.2,4066.5,1672.2,4066.5,1672.2L4066.5,1672.2z
				 M3959.4,1676h3c0.3,0,0.5,0.2,0.5,0.5s-0.2,0.5-0.5,0.5h-3c-0.3,0-0.5-0.2-0.5-0.5S3959.1,1676,3959.4,1676z M3965.4,1676h3
				c0.3,0,0.5,0.2,0.5,0.5s-0.2,0.5-0.5,0.5h-3c-0.3,0-0.5-0.2-0.5-0.5S3965.1,1676,3965.4,1676z M3971.4,1676h3
				c0.3,0,0.5,0.2,0.5,0.5s-0.2,0.5-0.5,0.5h-3c-0.3,0-0.5-0.2-0.5-0.5S3971.1,1676,3971.4,1676z M3977.4,1676h3
				c0.3,0,0.5,0.2,0.5,0.5s-0.2,0.5-0.5,0.5h-3c-0.3,0-0.5-0.2-0.5-0.5S3977.1,1676,3977.4,1676z M3983.4,1676h3
				c0.3,0,0.5,0.2,0.5,0.5s-0.2,0.5-0.5,0.5h-3c-0.3,0-0.5-0.2-0.5-0.5S3983.1,1676,3983.4,1676z M3989.4,1676h3
				c0.3,0,0.5,0.2,0.5,0.5s-0.2,0.5-0.5,0.5h-3c-0.3,0-0.5-0.2-0.5-0.5S3989.1,1676,3989.4,1676z M3995.4,1676h3
				c0.3,0,0.5,0.2,0.5,0.5s-0.2,0.5-0.5,0.5h-3c-0.3,0-0.5-0.2-0.5-0.5S3995.1,1676,3995.4,1676z M4001.4,1676h3
				c0.3,0,0.5,0.2,0.5,0.5s-0.2,0.5-0.5,0.5h-3c-0.3,0-0.5-0.2-0.5-0.5S4001.1,1676,4001.4,1676z M4007.4,1676h3
				c0.3,0,0.5,0.2,0.5,0.5s-0.2,0.5-0.5,0.5h-3c-0.3,0-0.5-0.2-0.5-0.5S4007.1,1676,4007.4,1676z M4013.4,1676h3
				c0.3,0,0.5,0.2,0.5,0.5s-0.2,0.5-0.5,0.5h-3c-0.3,0-0.5-0.2-0.5-0.5S4013.1,1676,4013.4,1676z M4019.4,1676h3
				c0.3,0,0.5,0.2,0.5,0.5s-0.2,0.5-0.5,0.5h-3c-0.3,0-0.5-0.2-0.5-0.5S4019.1,1676,4019.4,1676z M4025.4,1676h3
				c0.3,0,0.5,0.2,0.5,0.5s-0.2,0.5-0.5,0.5h-3c-0.3,0-0.5-0.2-0.5-0.5S4025.1,1676,4025.4,1676z M4031.4,1676h3
				c0.3,0,0.5,0.2,0.5,0.5s-0.2,0.5-0.5,0.5h-3c-0.3,0-0.5-0.2-0.5-0.5S4031.1,1676,4031.4,1676z M4037.4,1676h3
				c0.3,0,0.5,0.2,0.5,0.5s-0.2,0.5-0.5,0.5h-3c-0.3,0-0.5-0.2-0.5-0.5S4037.1,1676,4037.4,1676z M4043.4,1676h3
				c0.3,0,0.5,0.2,0.5,0.5s-0.2,0.5-0.5,0.5h-3c-0.3,0-0.5-0.2-0.5-0.5S4043.1,1676,4043.4,1676z M4049.4,1676h3
				c0.3,0,0.5,0.2,0.5,0.5s-0.2,0.5-0.5,0.5h-3c-0.3,0-0.5-0.2-0.5-0.5S4049.1,1676,4049.4,1676z M4055.4,1676h3
				c0.3,0,0.5,0.2,0.5,0.5s-0.2,0.5-0.5,0.5h-3c-0.3,0-0.5-0.2-0.5-0.5S4055.1,1676,4055.4,1676z M4061.4,1676h3
				c0.3,0,0.5,0.2,0.5,0.5s-0.2,0.5-0.5,0.5h-3c-0.3,0-0.5-0.2-0.5-0.5S4061.1,1676,4061.4,1676z"/>
		</g>
		<g id="freepik--Window--inject-2-2">
			<rect id="Rectangle_5784" x="3942.7" y="1700.5" class="st3" width="266.7" height="185.5"/>
			<path id="Rectangle_5784_-_Outline" class="st4" d="M3942.7,1700h266.7c0.3,0,0.5,0.2,0.5,0.5V1886c0,0.3-0.2,0.5-0.5,0.5h-266.7
				c-0.3,0-0.5-0.2-0.5-0.5v-185.5C3942.2,1700.2,3942.5,1700,3942.7,1700z M4208.9,1701h-265.7v184.5h265.7V1701z"/>
			<rect id="Rectangle_5785" x="3942.7" y="1700.5" class="st1" width="266.7" height="11.4"/>
			<path id="Rectangle_5785_-_Outline" class="st4" d="M3942.7,1700h266.7c0.3,0,0.5,0.2,0.5,0.5v11.4c0,0.3-0.2,0.5-0.5,0.5h-266.7
				c-0.3,0-0.5-0.2-0.5-0.5v-11.4C3942.2,1700.2,3942.5,1700,3942.7,1700z M4208.9,1701h-265.7v10.4h265.7V1701z"/>
			<path id="Path_101607" class="st3" d="M4180.3,1705.8c0.1-1.6-1.1-3-2.7-3c-1.6-0.1-3,1.1-3,2.7c-0.1,1.6,1.1,3,2.7,3
				c0.1,0,0.1,0,0.2,0C4178.9,1708.6,4180.2,1707.4,4180.3,1705.8z"/>
			<path id="Path_101607_-_Outline" class="st4" d="M4177.4,1702.6c1.8,0.1,3.2,1.6,3.1,3.4c-0.1,1.8-1.6,3.2-3.4,3.1
				c-1.7-0.1-3.1-1.5-3.1-3.2C4174,1704,4175.6,1702.6,4177.4,1702.6z M4177.4,1708.1c1.2-0.1,2.2-1.1,2.1-2.4
				c-0.1-1.2-1.1-2.2-2.4-2.1c-1.2,0.1-2.1,1.1-2.1,2.2C4175,1707.1,4176.1,1708.1,4177.4,1708.1z"/>
			<path id="Path_101608" class="st3" d="M4190.3,1705.8c0.1-1.6-1.1-3-2.7-3c-1.6-0.1-3,1.1-3,2.7c-0.1,1.6,1.1,3,2.7,3
				c0.1,0,0.1,0,0.2,0C4189,1708.6,4190.2,1707.4,4190.3,1705.8z"/>
			<path id="Path_101608_-_Outline" class="st4" d="M4187.4,1702.6c1.8,0.1,3.2,1.6,3.1,3.4c-0.1,1.8-1.6,3.2-3.4,3.1
				c-1.7-0.1-3.1-1.5-3.1-3.2C4184.1,1704,4185.6,1702.6,4187.4,1702.6z M4187.4,1708.1c1.2-0.1,2.2-1.1,2.1-2.4s-1.1-2.2-2.4-2.1
				c-1.2,0.1-2.1,1.1-2.1,2.2C4185.1,1707.1,4186.1,1708.1,4187.4,1708.1z"/>
			<ellipse id="Ellipse_4138" class="st3" cx="4197.4" cy="1705.8" rx="2.9" ry="2.7"/>
			<path id="Ellipse_4138_-_Outline" class="st4" d="M4197.4,1702.6c1.8,0,3.3,1.4,3.4,3.2c0,1.8-1.6,3.3-3.4,3.2
				c-1.8,0-3.3-1.4-3.4-3.2C4194,1704,4195.6,1702.6,4197.4,1702.6z M4197.4,1708.1c1.3,0,2.3-1,2.4-2.2c0-1.3-1.1-2.3-2.4-2.2
				c-1.3,0-2.3,1-2.4,2.2C4195,1707.1,4196.1,1708.1,4197.4,1708.1z"/>
			<path id="Rectangle_5786" class="st5" d="M4086.2,1724.5h3c0.3,0,0.5,0.2,0.5,0.5s-0.2,0.5-0.5,0.5h-2.5v1.2
				c0,0.3-0.2,0.5-0.5,0.5s-0.5-0.2-0.5-0.5v-1.7C4085.7,1724.7,4085.9,1724.5,4086.2,1724.5z M4092.2,1724.5h3
				c0.3,0,0.5,0.2,0.5,0.5s-0.2,0.5-0.5,0.5h-3c-0.3,0-0.5-0.2-0.5-0.5S4091.9,1724.5,4092.2,1724.5z M4098.2,1724.5h3
				c0.3,0,0.5,0.2,0.5,0.5s-0.2,0.5-0.5,0.5h-3c-0.3,0-0.5-0.2-0.5-0.5S4097.9,1724.5,4098.2,1724.5z M4104.2,1724.5h3
				c0.3,0,0.5,0.2,0.5,0.5s-0.2,0.5-0.5,0.5h-3c-0.3,0-0.5-0.2-0.5-0.5S4103.9,1724.5,4104.2,1724.5z M4110.2,1724.5h3
				c0.3,0,0.5,0.2,0.5,0.5s-0.2,0.5-0.5,0.5h-3c-0.3,0-0.5-0.2-0.5-0.5S4109.9,1724.5,4110.2,1724.5z M4116.2,1724.5h3
				c0.3,0,0.5,0.2,0.5,0.5s-0.2,0.5-0.5,0.5h-3c-0.3,0-0.5-0.2-0.5-0.5S4115.9,1724.5,4116.2,1724.5z M4122.2,1724.5h3
				c0.3,0,0.5,0.2,0.5,0.5s-0.2,0.5-0.5,0.5h-3c-0.3,0-0.5-0.2-0.5-0.5S4121.9,1724.5,4122.2,1724.5z M4128.2,1724.5h3
				c0.3,0,0.5,0.2,0.5,0.5s-0.2,0.5-0.5,0.5h-3c-0.3,0-0.5-0.2-0.5-0.5S4127.9,1724.5,4128.2,1724.5z M4134.2,1724.5h3
				c0.3,0,0.5,0.2,0.5,0.5s-0.2,0.5-0.5,0.5h-3c-0.3,0-0.5-0.2-0.5-0.5S4133.9,1724.5,4134.2,1724.5z M4140.2,1724.5h3
				c0.3,0,0.5,0.2,0.5,0.5s-0.2,0.5-0.5,0.5h-3c-0.3,0-0.5-0.2-0.5-0.5S4139.9,1724.5,4140.2,1724.5z M4146.2,1724.5h3
				c0.3,0,0.5,0.2,0.5,0.5s-0.2,0.5-0.5,0.5h-3c-0.3,0-0.5-0.2-0.5-0.5S4145.9,1724.5,4146.2,1724.5z M4152.2,1724.5h3
				c0.3,0,0.5,0.2,0.5,0.5s-0.2,0.5-0.5,0.5h-3c-0.3,0-0.5-0.2-0.5-0.5S4151.9,1724.5,4152.2,1724.5z M4158.2,1724.5h3
				c0.3,0,0.5,0.2,0.5,0.5s-0.2,0.5-0.5,0.5h-3c-0.3,0-0.5-0.2-0.5-0.5S4157.9,1724.5,4158.2,1724.5z M4164.2,1724.5h3
				c0.3,0,0.5,0.2,0.5,0.5s-0.2,0.5-0.5,0.5h-3c-0.3,0-0.5-0.2-0.5-0.5S4163.9,1724.5,4164.2,1724.5z M4170.2,1724.5h3
				c0.3,0,0.5,0.2,0.5,0.5s-0.2,0.5-0.5,0.5h-3c-0.3,0-0.5-0.2-0.5-0.5S4169.9,1724.5,4170.2,1724.5z M4176.2,1724.5h3
				c0.3,0,0.5,0.2,0.5,0.5s-0.2,0.5-0.5,0.5h-3c-0.3,0-0.5-0.2-0.5-0.5S4175.9,1724.5,4176.2,1724.5z M4182.2,1724.5h3
				c0.3,0,0.5,0.2,0.5,0.5s-0.2,0.5-0.5,0.5h-3c-0.3,0-0.5-0.2-0.5-0.5S4181.9,1724.5,4182.2,1724.5z M4188.2,1724.5h3
				c0.3,0,0.5,0.2,0.5,0.5s-0.2,0.5-0.5,0.5h-3c-0.3,0-0.5-0.2-0.5-0.5S4187.9,1724.5,4188.2,1724.5z M4193.6,1725.2
				c0.3,0,0.5,0.2,0.5,0.5v3c0,0.3-0.2,0.5-0.5,0.5c-0.3,0-0.5-0.2-0.5-0.5v-3C4193.1,1725.4,4193.3,1725.2,4193.6,1725.2
				C4193.6,1725.2,4193.6,1725.2,4193.6,1725.2z M4086.2,1729.2c0.3,0,0.5,0.2,0.5,0.5v3c0,0.3-0.2,0.5-0.5,0.5c0,0,0,0,0,0
				c-0.3,0-0.5-0.2-0.5-0.5v-3C4085.7,1729.5,4085.9,1729.2,4086.2,1729.2C4086.2,1729.2,4086.2,1729.2,4086.2,1729.2z
				 M4193.6,1731.2c0.3,0,0.5,0.2,0.5,0.5v3c0,0.3-0.2,0.5-0.5,0.5c-0.3,0-0.5-0.2-0.5-0.5v-3
				C4193.1,1731.4,4193.3,1731.2,4193.6,1731.2z M4086.2,1735.2c0.3,0,0.5,0.2,0.5,0.5v3c0,0.3-0.2,0.5-0.5,0.5s-0.5-0.2-0.5-0.5v-3
				C4085.7,1735.5,4085.9,1735.2,4086.2,1735.2z M4193.6,1737.2c0.3,0,0.5,0.2,0.5,0.5v3c0,0.3-0.2,0.5-0.5,0.5
				c-0.3,0-0.5-0.2-0.5-0.5v-3C4193.1,1737.4,4193.3,1737.2,4193.6,1737.2z M4086.2,1741.2c0.3,0,0.5,0.2,0.5,0.5v3
				c0,0.3-0.2,0.5-0.5,0.5s-0.5-0.2-0.5-0.5v-3C4085.7,1741.5,4085.9,1741.2,4086.2,1741.2z M4193.6,1743.2c0.3,0,0.5,0.2,0.5,0.5v3
				c0,0.3-0.2,0.5-0.5,0.5c-0.3,0-0.5-0.2-0.5-0.5v-3C4193.1,1743.4,4193.3,1743.2,4193.6,1743.2z M4086.2,1747.2
				c0.3,0,0.5,0.2,0.5,0.5v3c0,0.3-0.2,0.5-0.5,0.5s-0.5-0.2-0.5-0.5v-3C4085.7,1747.5,4085.9,1747.2,4086.2,1747.2z M4193.6,1749.2
				c0.3,0,0.5,0.2,0.5,0.5v3c0,0.3-0.2,0.5-0.5,0.5c-0.3,0-0.5-0.2-0.5-0.5v-3C4193.1,1749.4,4193.3,1749.2,4193.6,1749.2z
				 M4086.2,1753.2c0.3,0,0.5,0.2,0.5,0.5v3c0,0.3-0.2,0.5-0.5,0.5s-0.5-0.2-0.5-0.5v-3C4085.7,1753.5,4085.9,1753.2,4086.2,1753.2z
				 M4193.6,1755.2c0.3,0,0.5,0.2,0.5,0.5v3c0,0.3-0.2,0.5-0.5,0.5c-0.3,0-0.5-0.2-0.5-0.5v-3
				C4193.1,1755.4,4193.3,1755.2,4193.6,1755.2L4193.6,1755.2z M4086.2,1759.2c0.3,0,0.5,0.2,0.5,0.5v3c0,0.3-0.2,0.5-0.5,0.5
				s-0.5-0.2-0.5-0.5v-3C4085.7,1759.5,4085.9,1759.2,4086.2,1759.2z M4193.6,1761.2c0.3,0,0.5,0.2,0.5,0.5v3c0,0.3-0.2,0.5-0.5,0.5
				c-0.3,0-0.5-0.2-0.5-0.5v-3C4193.1,1761.4,4193.3,1761.2,4193.6,1761.2z M4086.2,1765.2c0.3,0,0.5,0.2,0.5,0.5v3
				c0,0.3-0.2,0.5-0.5,0.5s-0.5-0.2-0.5-0.5v-3C4085.7,1765.5,4085.9,1765.2,4086.2,1765.2z M4193.6,1767.2c0.3,0,0.5,0.2,0.5,0.5v3
				c0,0.3-0.2,0.5-0.5,0.5c-0.3,0-0.5-0.2-0.5-0.5v-3C4193.1,1767.4,4193.3,1767.2,4193.6,1767.2z M4086.2,1771.2
				c0.3,0,0.5,0.2,0.5,0.5v3c0,0.3-0.2,0.5-0.5,0.5s-0.5-0.2-0.5-0.5v-3C4085.7,1771.5,4085.9,1771.2,4086.2,1771.2z M4193.6,1773.2
				c0.3,0,0.5,0.2,0.5,0.5v3c0,0.3-0.2,0.5-0.5,0.5c-0.3,0-0.5-0.2-0.5-0.5v-3C4193.1,1773.4,4193.3,1773.2,4193.6,1773.2z
				 M4086.2,1777.2c0.3,0,0.5,0.2,0.5,0.5v3c0,0.3-0.2,0.5-0.5,0.5s-0.5-0.2-0.5-0.5v-3C4085.7,1777.5,4085.9,1777.2,4086.2,1777.2z
				 M4193.6,1779.2c0.3,0,0.5,0.2,0.5,0.5v3c0,0.3-0.2,0.5-0.5,0.5c-0.3,0-0.5-0.2-0.5-0.5v-3
				C4193.1,1779.4,4193.3,1779.2,4193.6,1779.2z M4086.2,1783.2c0.3,0,0.5,0.2,0.5,0.5v3c0,0.3-0.2,0.5-0.5,0.5s-0.5-0.2-0.5-0.5v-3
				C4085.7,1783.5,4085.9,1783.2,4086.2,1783.2z M4193.6,1785.2c0.3,0,0.5,0.2,0.5,0.5v3c0,0.3-0.2,0.5-0.5,0.5
				c-0.3,0-0.5-0.2-0.5-0.5v-3C4193.1,1785.4,4193.3,1785.2,4193.6,1785.2z M4086.2,1789.2c0.3,0,0.5,0.2,0.5,0.5v3
				c0,0.3-0.2,0.5-0.5,0.5s-0.5-0.2-0.5-0.5v-3C4085.7,1789.5,4085.9,1789.2,4086.2,1789.2z M4193.6,1791.2c0.3,0,0.5,0.2,0.5,0.5v3
				c0,0.3-0.2,0.5-0.5,0.5c-0.3,0-0.5-0.2-0.5-0.5v-3C4193.1,1791.4,4193.3,1791.2,4193.6,1791.2z M4086.2,1795.2
				c0.3,0,0.5,0.2,0.5,0.5v3c0,0.3-0.2,0.5-0.5,0.5s-0.5-0.2-0.5-0.5v-3C4085.7,1795.5,4085.9,1795.2,4086.2,1795.2z M4193.6,1797.2
				c0.3,0,0.5,0.2,0.5,0.5v3c0,0.3-0.2,0.5-0.5,0.5c-0.3,0-0.5-0.2-0.5-0.5v-3C4193.1,1797.4,4193.3,1797.2,4193.6,1797.2z
				 M4086.2,1801.2c0.3,0,0.5,0.2,0.5,0.5v3c0,0.3-0.2,0.5-0.5,0.5s-0.5-0.2-0.5-0.5v-3C4085.7,1801.5,4085.9,1801.2,4086.2,1801.2z
				 M4193.6,1803.2c0.3,0,0.5,0.2,0.5,0.5v3c0,0.3-0.2,0.5-0.5,0.5c-0.3,0-0.5-0.2-0.5-0.5v-3
				C4193.1,1803.4,4193.3,1803.2,4193.6,1803.2z M4086.2,1807.2c0.3,0,0.5,0.2,0.5,0.5v3c0,0.3-0.2,0.5-0.5,0.5s-0.5-0.2-0.5-0.5v-3
				C4085.7,1807.5,4085.9,1807.2,4086.2,1807.2z M4193.6,1809.2c0.3,0,0.5,0.2,0.5,0.5v3c0,0.3-0.2,0.5-0.5,0.5
				c-0.3,0-0.5-0.2-0.5-0.5v-3C4193.1,1809.4,4193.3,1809.2,4193.6,1809.2z M4086.2,1813.2c0.3,0,0.5,0.2,0.5,0.5v3
				c0,0.3-0.2,0.5-0.5,0.5s-0.5-0.2-0.5-0.5v-3C4085.7,1813.5,4085.9,1813.2,4086.2,1813.2z M4193.6,1815.2c0.3,0,0.5,0.2,0.5,0.5v3
				c0,0.3-0.2,0.5-0.5,0.5c-0.3,0-0.5-0.2-0.5-0.5v-3C4193.1,1815.4,4193.3,1815.2,4193.6,1815.2z M4086.2,1819.2
				c0.3,0,0.5,0.2,0.5,0.5v3c0,0.3-0.2,0.5-0.5,0.5s-0.5-0.2-0.5-0.5v-3C4085.7,1819.5,4085.9,1819.2,4086.2,1819.2z M4193.6,1821.2
				c0.3,0,0.5,0.2,0.5,0.5v3c0,0.3-0.2,0.5-0.5,0.5c-0.3,0-0.5-0.2-0.5-0.5v-3C4193.1,1821.4,4193.3,1821.2,4193.6,1821.2z
				 M4086.2,1825.2c0.3,0,0.5,0.2,0.5,0.5v3c0,0.3-0.2,0.5-0.5,0.5s-0.5-0.2-0.5-0.5v-3C4085.7,1825.5,4085.9,1825.2,4086.2,1825.2z
				 M4193.6,1827.2c0.3,0,0.5,0.2,0.5,0.5v3c0,0.3-0.2,0.5-0.5,0.5c-0.3,0-0.5-0.2-0.5-0.5v-3
				C4193.1,1827.4,4193.3,1827.2,4193.6,1827.2z M4086.2,1831.2c0.3,0,0.5,0.2,0.5,0.5v3c0,0.3-0.2,0.5-0.5,0.5s-0.5-0.2-0.5-0.5v-3
				C4085.7,1831.5,4085.9,1831.2,4086.2,1831.2z M4193.6,1833.2c0.3,0,0.5,0.2,0.5,0.5v3c0,0.3-0.2,0.5-0.5,0.5
				c-0.3,0-0.5-0.2-0.5-0.5v-3C4193.1,1833.4,4193.3,1833.2,4193.6,1833.2z M4086.2,1837.2c0.3,0,0.5,0.2,0.5,0.5v3
				c0,0.3-0.2,0.5-0.5,0.5s-0.5-0.2-0.5-0.5v-3C4085.7,1837.5,4085.9,1837.2,4086.2,1837.2z M4193.6,1839.2c0.3,0,0.5,0.2,0.5,0.5v3
				c0,0.3-0.2,0.5-0.5,0.5c-0.3,0-0.5-0.2-0.5-0.5v-3C4193.1,1839.4,4193.3,1839.2,4193.6,1839.2z M4086.2,1843.2
				c0.3,0,0.5,0.2,0.5,0.5v3c0,0.3-0.2,0.5-0.5,0.5s-0.5-0.2-0.5-0.5v-3C4085.7,1843.5,4085.9,1843.2,4086.2,1843.2z M4193.6,1845.2
				c0.3,0,0.5,0.2,0.5,0.5v3c0,0.3-0.2,0.5-0.5,0.5c-0.3,0-0.5-0.2-0.5-0.5v-3C4193.1,1845.4,4193.3,1845.2,4193.6,1845.2z
				 M4086.2,1849.2c0.3,0,0.5,0.2,0.5,0.5v3c0,0.3-0.2,0.5-0.5,0.5s-0.5-0.2-0.5-0.5v-3C4085.7,1849.5,4085.9,1849.2,4086.2,1849.2z
				 M4193.6,1851.2c0.3,0,0.5,0.2,0.5,0.5v3c0,0.3-0.2,0.5-0.5,0.5c-0.3,0-0.5-0.2-0.5-0.5v-3
				C4193.1,1851.4,4193.3,1851.2,4193.6,1851.2z M4086.2,1855.2c0.3,0,0.5,0.2,0.5,0.5v3c0,0.3-0.2,0.5-0.5,0.5s-0.5-0.2-0.5-0.5v-3
				C4085.7,1855.5,4085.9,1855.2,4086.2,1855.2z M4193.6,1857.2c0.3,0,0.5,0.2,0.5,0.5v3c0,0.3-0.2,0.5-0.5,0.5
				c-0.3,0-0.5-0.2-0.5-0.5v-3C4193.1,1857.4,4193.3,1857.2,4193.6,1857.2C4193.6,1857.2,4193.6,1857.2,4193.6,1857.2L4193.6,1857.2
				z M4086.2,1861.2c0.3,0,0.5,0.2,0.5,0.5v3c0,0.3-0.2,0.5-0.5,0.5s-0.5-0.2-0.5-0.5v-3C4085.7,1861.5,4085.9,1861.2,4086.2,1861.2
				z M4193.6,1863.2c0.3,0,0.5,0.2,0.5,0.5v3c0,0.3-0.2,0.5-0.5,0.5c-0.3,0-0.5-0.2-0.5-0.5v-3
				C4193.1,1863.4,4193.3,1863.2,4193.6,1863.2C4193.6,1863.2,4193.6,1863.2,4193.6,1863.2L4193.6,1863.2z M4086.2,1867.2
				c0.3,0,0.5,0.2,0.5,0.5v3c0,0.3-0.2,0.5-0.5,0.5s-0.5-0.2-0.5-0.5v-3C4085.7,1867.5,4085.9,1867.2,4086.2,1867.2z M4193.6,1869.2
				c0.3,0,0.5,0.2,0.5,0.5v3c0,0.3-0.2,0.5-0.5,0.5c-0.3,0-0.5-0.2-0.5-0.5v-3C4193.1,1869.4,4193.3,1869.2,4193.6,1869.2
				C4193.6,1869.2,4193.6,1869.2,4193.6,1869.2L4193.6,1869.2z M4086.2,1873.2c0.3,0,0.5,0.2,0.5,0.5v3c0,0.3-0.2,0.5-0.5,0.5
				s-0.5-0.2-0.5-0.5v-3C4085.7,1873.5,4085.9,1873.2,4086.2,1873.2z M4193.6,1875.2c0.3,0,0.5,0.2,0.5,0.5v3c0,0.3-0.2,0.5-0.5,0.5
				c-0.3,0-0.5-0.2-0.5-0.5v-3C4193.1,1875.4,4193.3,1875.2,4193.6,1875.2C4193.6,1875.2,4193.6,1875.2,4193.6,1875.2L4193.6,1875.2
				z M4086.4,1879h3c0.3,0,0.5,0.2,0.5,0.5s-0.2,0.5-0.5,0.5h-3c-0.3,0-0.5-0.2-0.5-0.5S4086.1,1879,4086.4,1879z M4092.4,1879h3
				c0.3,0,0.5,0.2,0.5,0.5s-0.2,0.5-0.5,0.5h-3c-0.3,0-0.5-0.2-0.5-0.5S4092.1,1879,4092.4,1879z M4098.4,1879h3
				c0.3,0,0.5,0.2,0.5,0.5s-0.2,0.5-0.5,0.5h-3c-0.3,0-0.5-0.2-0.5-0.5S4098.1,1879,4098.4,1879z M4104.4,1879h3
				c0.3,0,0.5,0.2,0.5,0.5s-0.2,0.5-0.5,0.5h-3c-0.3,0-0.5-0.2-0.5-0.5S4104.1,1879,4104.4,1879z M4110.4,1879h3
				c0.3,0,0.5,0.2,0.5,0.5s-0.2,0.5-0.5,0.5h-3c-0.3,0-0.5-0.2-0.5-0.5S4110.1,1879,4110.4,1879z M4116.4,1879h3
				c0.3,0,0.5,0.2,0.5,0.5s-0.2,0.5-0.5,0.5h-3c-0.3,0-0.5-0.2-0.5-0.5S4116.1,1879,4116.4,1879z M4122.4,1879h3
				c0.3,0,0.5,0.2,0.5,0.5s-0.2,0.5-0.5,0.5h-3c-0.3,0-0.5-0.2-0.5-0.5S4122.1,1879,4122.4,1879z M4128.4,1879h3
				c0.3,0,0.5,0.2,0.5,0.5s-0.2,0.5-0.5,0.5h-3c-0.3,0-0.5-0.2-0.5-0.5S4128.1,1879,4128.4,1879z M4134.4,1879h3
				c0.3,0,0.5,0.2,0.5,0.5s-0.2,0.5-0.5,0.5h-3c-0.3,0-0.5-0.2-0.5-0.5S4134.1,1879,4134.4,1879z M4140.4,1879h3
				c0.3,0,0.5,0.2,0.5,0.5s-0.2,0.5-0.5,0.5h-3c-0.3,0-0.5-0.2-0.5-0.5S4140.1,1879,4140.4,1879z M4146.4,1879h3
				c0.3,0,0.5,0.2,0.5,0.5s-0.2,0.5-0.5,0.5h-3c-0.3,0-0.5-0.2-0.5-0.5S4146.1,1879,4146.4,1879z M4152.4,1879h3
				c0.3,0,0.5,0.2,0.5,0.5s-0.2,0.5-0.5,0.5h-3c-0.3,0-0.5-0.2-0.5-0.5S4152.1,1879,4152.4,1879z M4158.4,1879h3
				c0.3,0,0.5,0.2,0.5,0.5s-0.2,0.5-0.5,0.5h-3c-0.3,0-0.5-0.2-0.5-0.5S4158.1,1879,4158.4,1879z M4164.4,1879h3
				c0.3,0,0.5,0.2,0.5,0.5s-0.2,0.5-0.5,0.5h-3c-0.3,0-0.5-0.2-0.5-0.5S4164.1,1879,4164.4,1879z M4170.4,1879h3
				c0.3,0,0.5,0.2,0.5,0.5s-0.2,0.5-0.5,0.5h-3c-0.3,0-0.5-0.2-0.5-0.5S4170.1,1879,4170.4,1879z M4176.4,1879h3
				c0.3,0,0.5,0.2,0.5,0.5s-0.2,0.5-0.5,0.5h-3c-0.3,0-0.5-0.2-0.5-0.5S4176.1,1879,4176.4,1879z M4182.4,1879h3
				c0.3,0,0.5,0.2,0.5,0.5s-0.2,0.5-0.5,0.5h-3c-0.3,0-0.5-0.2-0.5-0.5S4182.1,1879,4182.4,1879z M4188.4,1879h3
				c0.3,0,0.5,0.2,0.5,0.5s-0.2,0.5-0.5,0.5h-3c-0.3,0-0.5-0.2-0.5-0.5S4188.1,1879,4188.4,1879z"/>
			<path id="Rectangle_5787" class="st5" d="M3959.1,1724.5h3c0.3,0,0.5,0.2,0.5,0.5s-0.2,0.5-0.5,0.5h-2.5v1.2
				c0,0.3-0.2,0.5-0.5,0.5s-0.5-0.2-0.5-0.5v-1.7C3958.6,1724.7,3958.9,1724.5,3959.1,1724.5z M3965.1,1724.5h3
				c0.3,0,0.5,0.2,0.5,0.5s-0.2,0.5-0.5,0.5h-3c-0.3,0-0.5-0.2-0.5-0.5S3964.9,1724.5,3965.1,1724.5z M3971.1,1724.5h3
				c0.3,0,0.5,0.2,0.5,0.5s-0.2,0.5-0.5,0.5h-3c-0.3,0-0.5-0.2-0.5-0.5S3970.9,1724.5,3971.1,1724.5z M3977.1,1724.5h3
				c0.3,0,0.5,0.2,0.5,0.5s-0.2,0.5-0.5,0.5h-3c-0.3,0-0.5-0.2-0.5-0.5S3976.9,1724.5,3977.1,1724.5z M3983.1,1724.5h3
				c0.3,0,0.5,0.2,0.5,0.5s-0.2,0.5-0.5,0.5h-3c-0.3,0-0.5-0.2-0.5-0.5S3982.9,1724.5,3983.1,1724.5z M3989.1,1724.5h3
				c0.3,0,0.5,0.2,0.5,0.5s-0.2,0.5-0.5,0.5h-3c-0.3,0-0.5-0.2-0.5-0.5S3988.9,1724.5,3989.1,1724.5z M3995.1,1724.5h3
				c0.3,0,0.5,0.2,0.5,0.5s-0.2,0.5-0.5,0.5h-3c-0.3,0-0.5-0.2-0.5-0.5S3994.9,1724.5,3995.1,1724.5z M4001.1,1724.5h3
				c0.3,0,0.5,0.2,0.5,0.5s-0.2,0.5-0.5,0.5h-3c-0.3,0-0.5-0.2-0.5-0.5S4000.9,1724.5,4001.1,1724.5z M4007.1,1724.5h3
				c0.3,0,0.5,0.2,0.5,0.5s-0.2,0.5-0.5,0.5h-3c-0.3,0-0.5-0.2-0.5-0.5S4006.9,1724.5,4007.1,1724.5z M4013.1,1724.5h3
				c0.3,0,0.5,0.2,0.5,0.5s-0.2,0.5-0.5,0.5h-3c-0.3,0-0.5-0.2-0.5-0.5S4012.9,1724.5,4013.1,1724.5z M4019.1,1724.5h3
				c0.3,0,0.5,0.2,0.5,0.5s-0.2,0.5-0.5,0.5h-3c-0.3,0-0.5-0.2-0.5-0.5S4018.9,1724.5,4019.1,1724.5z M4025.1,1724.5h3
				c0.3,0,0.5,0.2,0.5,0.5s-0.2,0.5-0.5,0.5h-3c-0.3,0-0.5-0.2-0.5-0.5S4024.9,1724.5,4025.1,1724.5z M4031.1,1724.5h3
				c0.3,0,0.5,0.2,0.5,0.5s-0.2,0.5-0.5,0.5h-3c-0.3,0-0.5-0.2-0.5-0.5S4030.9,1724.5,4031.1,1724.5z M4037.1,1724.5h3
				c0.3,0,0.5,0.2,0.5,0.5s-0.2,0.5-0.5,0.5h-3c-0.3,0-0.5-0.2-0.5-0.5S4036.9,1724.5,4037.1,1724.5z M4043.1,1724.5h3
				c0.3,0,0.5,0.2,0.5,0.5s-0.2,0.5-0.5,0.5h-3c-0.3,0-0.5-0.2-0.5-0.5S4042.9,1724.5,4043.1,1724.5z M4049.1,1724.5h3
				c0.3,0,0.5,0.2,0.5,0.5s-0.2,0.5-0.5,0.5h-3c-0.3,0-0.5-0.2-0.5-0.5S4048.9,1724.5,4049.1,1724.5z M4055.1,1724.5h3
				c0.3,0,0.5,0.2,0.5,0.5s-0.2,0.5-0.5,0.5h-3c-0.3,0-0.5-0.2-0.5-0.5S4054.9,1724.5,4055.1,1724.5z M4061.1,1724.5h3
				c0.3,0,0.5,0.2,0.5,0.5s-0.2,0.5-0.5,0.5h-3c-0.3,0-0.5-0.2-0.5-0.5S4060.9,1724.5,4061.1,1724.5z M4066.5,1725.2
				c0.3,0,0.5,0.2,0.5,0.5v3c0,0.3-0.2,0.5-0.5,0.5c-0.3,0-0.5-0.2-0.5-0.5v-3C4066,1725.4,4066.2,1725.2,4066.5,1725.2
				C4066.5,1725.2,4066.5,1725.2,4066.5,1725.2z M3959.1,1729.2c0.3,0,0.5,0.2,0.5,0.5v3c0,0.3-0.2,0.5-0.5,0.5c0,0,0,0,0,0
				c-0.3,0-0.5-0.2-0.5-0.5v-3C3958.6,1729.5,3958.9,1729.2,3959.1,1729.2C3959.1,1729.2,3959.1,1729.2,3959.1,1729.2z
				 M4066.5,1731.2c0.3,0,0.5,0.2,0.5,0.5v3c0,0.3-0.2,0.5-0.5,0.5c-0.3,0-0.5-0.2-0.5-0.5v-3
				C4066,1731.4,4066.2,1731.2,4066.5,1731.2z M3959.1,1735.2c0.3,0,0.5,0.2,0.5,0.5v3c0,0.3-0.2,0.5-0.5,0.5s-0.5-0.2-0.5-0.5v-3
				C3958.6,1735.5,3958.9,1735.2,3959.1,1735.2z M4066.5,1737.2c0.3,0,0.5,0.2,0.5,0.5v3c0,0.3-0.2,0.5-0.5,0.5
				c-0.3,0-0.5-0.2-0.5-0.5v-3C4066,1737.4,4066.2,1737.2,4066.5,1737.2z M3959.1,1741.2c0.3,0,0.5,0.2,0.5,0.5v3
				c0,0.3-0.2,0.5-0.5,0.5s-0.5-0.2-0.5-0.5v-3C3958.6,1741.5,3958.9,1741.2,3959.1,1741.2z M4066.5,1743.2c0.3,0,0.5,0.2,0.5,0.5v3
				c0,0.3-0.2,0.5-0.5,0.5c-0.3,0-0.5-0.2-0.5-0.5v-3C4066,1743.4,4066.2,1743.2,4066.5,1743.2z M3959.1,1747.2
				c0.3,0,0.5,0.2,0.5,0.5v3c0,0.3-0.2,0.5-0.5,0.5s-0.5-0.2-0.5-0.5v-3C3958.6,1747.5,3958.9,1747.2,3959.1,1747.2z M4066.5,1749.2
				c0.3,0,0.5,0.2,0.5,0.5v3c0,0.3-0.2,0.5-0.5,0.5c-0.3,0-0.5-0.2-0.5-0.5v-3C4066,1749.4,4066.2,1749.2,4066.5,1749.2z
				 M3959.1,1753.2c0.3,0,0.5,0.2,0.5,0.5v3c0,0.3-0.2,0.5-0.5,0.5s-0.5-0.2-0.5-0.5v-3C3958.6,1753.5,3958.9,1753.2,3959.1,1753.2z
				 M4066.5,1755.2c0.3,0,0.5,0.2,0.5,0.5v3c0,0.3-0.2,0.5-0.5,0.5c-0.3,0-0.5-0.2-0.5-0.5v-3
				C4066,1755.4,4066.2,1755.2,4066.5,1755.2L4066.5,1755.2z M3959.1,1759.2c0.3,0,0.5,0.2,0.5,0.5v3c0,0.3-0.2,0.5-0.5,0.5
				s-0.5-0.2-0.5-0.5v-3C3958.6,1759.5,3958.9,1759.2,3959.1,1759.2z M4066.5,1761.2c0.3,0,0.5,0.2,0.5,0.5v3c0,0.3-0.2,0.5-0.5,0.5
				c-0.3,0-0.5-0.2-0.5-0.5v-3C4066,1761.4,4066.2,1761.2,4066.5,1761.2z M3959.1,1765.2c0.3,0,0.5,0.2,0.5,0.5v3
				c0,0.3-0.2,0.5-0.5,0.5s-0.5-0.2-0.5-0.5v-3C3958.6,1765.5,3958.9,1765.2,3959.1,1765.2z M4066.5,1767.2c0.3,0,0.5,0.2,0.5,0.5v3
				c0,0.3-0.2,0.5-0.5,0.5c-0.3,0-0.5-0.2-0.5-0.5v-3C4066,1767.4,4066.2,1767.2,4066.5,1767.2z M3959.1,1771.2
				c0.3,0,0.5,0.2,0.5,0.5v3c0,0.3-0.2,0.5-0.5,0.5s-0.5-0.2-0.5-0.5v-3C3958.6,1771.5,3958.9,1771.2,3959.1,1771.2z M4066.5,1773.2
				c0.3,0,0.5,0.2,0.5,0.5v3c0,0.3-0.2,0.5-0.5,0.5c-0.3,0-0.5-0.2-0.5-0.5v-3C4066,1773.4,4066.2,1773.2,4066.5,1773.2z
				 M3959.1,1777.2c0.3,0,0.5,0.2,0.5,0.5v3c0,0.3-0.2,0.5-0.5,0.5s-0.5-0.2-0.5-0.5v-3C3958.6,1777.5,3958.9,1777.2,3959.1,1777.2z
				 M4066.5,1779.2c0.3,0,0.5,0.2,0.5,0.5v3c0,0.3-0.2,0.5-0.5,0.5c-0.3,0-0.5-0.2-0.5-0.5v-3
				C4066,1779.4,4066.2,1779.2,4066.5,1779.2z M3959.1,1783.2c0.3,0,0.5,0.2,0.5,0.5v3c0,0.3-0.2,0.5-0.5,0.5s-0.5-0.2-0.5-0.5v-3
				C3958.6,1783.5,3958.9,1783.2,3959.1,1783.2z M4066.5,1785.2c0.3,0,0.5,0.2,0.5,0.5v3c0,0.3-0.2,0.5-0.5,0.5
				c-0.3,0-0.5-0.2-0.5-0.5v-3C4066,1785.4,4066.2,1785.2,4066.5,1785.2z M3959.1,1789.2c0.3,0,0.5,0.2,0.5,0.5v3
				c0,0.3-0.2,0.5-0.5,0.5s-0.5-0.2-0.5-0.5v-3C3958.6,1789.5,3958.9,1789.2,3959.1,1789.2z M4066.5,1791.2c0.3,0,0.5,0.2,0.5,0.5v3
				c0,0.3-0.2,0.5-0.5,0.5c-0.3,0-0.5-0.2-0.5-0.5v-3C4066,1791.4,4066.2,1791.2,4066.5,1791.2z M3959.1,1795.2
				c0.3,0,0.5,0.2,0.5,0.5v3c0,0.3-0.2,0.5-0.5,0.5s-0.5-0.2-0.5-0.5v-3C3958.6,1795.5,3958.9,1795.2,3959.1,1795.2z M4066.5,1797.2
				c0.3,0,0.5,0.2,0.5,0.5v3c0,0.3-0.2,0.5-0.5,0.5c-0.3,0-0.5-0.2-0.5-0.5v-3C4066,1797.4,4066.2,1797.2,4066.5,1797.2z
				 M3959.1,1801.2c0.3,0,0.5,0.2,0.5,0.5v3c0,0.3-0.2,0.5-0.5,0.5s-0.5-0.2-0.5-0.5v-3C3958.6,1801.5,3958.9,1801.2,3959.1,1801.2z
				 M4066.5,1803.2c0.3,0,0.5,0.2,0.5,0.5v3c0,0.3-0.2,0.5-0.5,0.5c-0.3,0-0.5-0.2-0.5-0.5v-3
				C4066,1803.4,4066.2,1803.2,4066.5,1803.2z M3959.1,1807.2c0.3,0,0.5,0.2,0.5,0.5v3c0,0.3-0.2,0.5-0.5,0.5s-0.5-0.2-0.5-0.5v-3
				C3958.6,1807.5,3958.9,1807.2,3959.1,1807.2z M4066.5,1809.2c0.3,0,0.5,0.2,0.5,0.5v3c0,0.3-0.2,0.5-0.5,0.5
				c-0.3,0-0.5-0.2-0.5-0.5v-3C4066,1809.4,4066.2,1809.2,4066.5,1809.2z M3959.1,1813.2c0.3,0,0.5,0.2,0.5,0.5v3
				c0,0.3-0.2,0.5-0.5,0.5s-0.5-0.2-0.5-0.5v-3C3958.6,1813.5,3958.9,1813.2,3959.1,1813.2z M4066.5,1815.2c0.3,0,0.5,0.2,0.5,0.5v3
				c0,0.3-0.2,0.5-0.5,0.5c-0.3,0-0.5-0.2-0.5-0.5v-3C4066,1815.4,4066.2,1815.2,4066.5,1815.2z M3959.1,1819.2
				c0.3,0,0.5,0.2,0.5,0.5v3c0,0.3-0.2,0.5-0.5,0.5s-0.5-0.2-0.5-0.5v-3C3958.6,1819.5,3958.9,1819.2,3959.1,1819.2z M4066.5,1821.2
				c0.3,0,0.5,0.2,0.5,0.5v3c0,0.3-0.2,0.5-0.5,0.5c-0.3,0-0.5-0.2-0.5-0.5v-3C4066,1821.4,4066.2,1821.2,4066.5,1821.2z
				 M3959.1,1825.2c0.3,0,0.5,0.2,0.5,0.5v3c0,0.3-0.2,0.5-0.5,0.5s-0.5-0.2-0.5-0.5v-3C3958.6,1825.5,3958.9,1825.2,3959.1,1825.2z
				 M4066.5,1827.2c0.3,0,0.5,0.2,0.5,0.5v3c0,0.3-0.2,0.5-0.5,0.5c-0.3,0-0.5-0.2-0.5-0.5v-3
				C4066,1827.4,4066.2,1827.2,4066.5,1827.2z M3959.1,1831.2c0.3,0,0.5,0.2,0.5,0.5v3c0,0.3-0.2,0.5-0.5,0.5s-0.5-0.2-0.5-0.5v-3
				C3958.6,1831.5,3958.9,1831.2,3959.1,1831.2z M4066.5,1833.2c0.3,0,0.5,0.2,0.5,0.5v3c0,0.3-0.2,0.5-0.5,0.5
				c-0.3,0-0.5-0.2-0.5-0.5v-3C4066,1833.4,4066.2,1833.2,4066.5,1833.2z M3959.1,1837.2c0.3,0,0.5,0.2,0.5,0.5v3
				c0,0.3-0.2,0.5-0.5,0.5s-0.5-0.2-0.5-0.5v-3C3958.6,1837.5,3958.9,1837.2,3959.1,1837.2z M4066.5,1839.2c0.3,0,0.5,0.2,0.5,0.5v3
				c0,0.3-0.2,0.5-0.5,0.5c-0.3,0-0.5-0.2-0.5-0.5v-3C4066,1839.4,4066.2,1839.2,4066.5,1839.2z M3959.1,1843.2
				c0.3,0,0.5,0.2,0.5,0.5v3c0,0.3-0.2,0.5-0.5,0.5s-0.5-0.2-0.5-0.5v-3C3958.6,1843.5,3958.9,1843.2,3959.1,1843.2z M4066.5,1845.2
				c0.3,0,0.5,0.2,0.5,0.5v3c0,0.3-0.2,0.5-0.5,0.5c-0.3,0-0.5-0.2-0.5-0.5v-3C4066,1845.4,4066.2,1845.2,4066.5,1845.2z
				 M3959.1,1849.2c0.3,0,0.5,0.2,0.5,0.5v3c0,0.3-0.2,0.5-0.5,0.5s-0.5-0.2-0.5-0.5v-3C3958.6,1849.5,3958.9,1849.2,3959.1,1849.2z
				 M4066.5,1851.2c0.3,0,0.5,0.2,0.5,0.5v3c0,0.3-0.2,0.5-0.5,0.5c-0.3,0-0.5-0.2-0.5-0.5v-3
				C4066,1851.4,4066.2,1851.2,4066.5,1851.2z M3959.1,1855.2c0.3,0,0.5,0.2,0.5,0.5v3c0,0.3-0.2,0.5-0.5,0.5s-0.5-0.2-0.5-0.5v-3
				C3958.6,1855.5,3958.9,1855.2,3959.1,1855.2z M4066.5,1857.2c0.3,0,0.5,0.2,0.5,0.5v3c0,0.3-0.2,0.5-0.5,0.5
				c-0.3,0-0.5-0.2-0.5-0.5v-3C4066,1857.4,4066.2,1857.2,4066.5,1857.2C4066.5,1857.2,4066.5,1857.2,4066.5,1857.2L4066.5,1857.2z
				 M3959.1,1861.2c0.3,0,0.5,0.2,0.5,0.5v3c0,0.3-0.2,0.5-0.5,0.5s-0.5-0.2-0.5-0.5v-3C3958.6,1861.5,3958.9,1861.2,3959.1,1861.2z
				 M4066.5,1863.2c0.3,0,0.5,0.2,0.5,0.5v3c0,0.3-0.2,0.5-0.5,0.5c-0.3,0-0.5-0.2-0.5-0.5v-3
				C4066,1863.4,4066.2,1863.2,4066.5,1863.2C4066.5,1863.2,4066.5,1863.2,4066.5,1863.2L4066.5,1863.2z M3959.1,1867.2
				c0.3,0,0.5,0.2,0.5,0.5v3c0,0.3-0.2,0.5-0.5,0.5s-0.5-0.2-0.5-0.5v-3C3958.6,1867.5,3958.9,1867.2,3959.1,1867.2z M4066.5,1869.2
				c0.3,0,0.5,0.2,0.5,0.5v3c0,0.3-0.2,0.5-0.5,0.5c-0.3,0-0.5-0.2-0.5-0.5v-3C4066,1869.4,4066.2,1869.2,4066.5,1869.2
				C4066.5,1869.2,4066.5,1869.2,4066.5,1869.2L4066.5,1869.2z M3959.1,1873.2c0.3,0,0.5,0.2,0.5,0.5v3c0,0.3-0.2,0.5-0.5,0.5
				s-0.5-0.2-0.5-0.5v-3C3958.6,1873.5,3958.9,1873.2,3959.1,1873.2z M4066.5,1875.2c0.3,0,0.5,0.2,0.5,0.5v3c0,0.3-0.2,0.5-0.5,0.5
				c-0.3,0-0.5-0.2-0.5-0.5v-3C4066,1875.4,4066.2,1875.2,4066.5,1875.2C4066.5,1875.2,4066.5,1875.2,4066.5,1875.2L4066.5,1875.2z
				 M3959.4,1879h3c0.3,0,0.5,0.2,0.5,0.5s-0.2,0.5-0.5,0.5h-3c-0.3,0-0.5-0.2-0.5-0.5S3959.1,1879,3959.4,1879z M3965.4,1879h3
				c0.3,0,0.5,0.2,0.5,0.5s-0.2,0.5-0.5,0.5h-3c-0.3,0-0.5-0.2-0.5-0.5S3965.1,1879,3965.4,1879z M3971.4,1879h3
				c0.3,0,0.5,0.2,0.5,0.5s-0.2,0.5-0.5,0.5h-3c-0.3,0-0.5-0.2-0.5-0.5S3971.1,1879,3971.4,1879z M3977.4,1879h3
				c0.3,0,0.5,0.2,0.5,0.5s-0.2,0.5-0.5,0.5h-3c-0.3,0-0.5-0.2-0.5-0.5S3977.1,1879,3977.4,1879z M3983.4,1879h3
				c0.3,0,0.5,0.2,0.5,0.5s-0.2,0.5-0.5,0.5h-3c-0.3,0-0.5-0.2-0.5-0.5S3983.1,1879,3983.4,1879z M3989.4,1879h3
				c0.3,0,0.5,0.2,0.5,0.5s-0.2,0.5-0.5,0.5h-3c-0.3,0-0.5-0.2-0.5-0.5S3989.1,1879,3989.4,1879z M3995.4,1879h3
				c0.3,0,0.5,0.2,0.5,0.5s-0.2,0.5-0.5,0.5h-3c-0.3,0-0.5-0.2-0.5-0.5S3995.1,1879,3995.4,1879z M4001.4,1879h3
				c0.3,0,0.5,0.2,0.5,0.5s-0.2,0.5-0.5,0.5h-3c-0.3,0-0.5-0.2-0.5-0.5S4001.1,1879,4001.4,1879z M4007.4,1879h3
				c0.3,0,0.5,0.2,0.5,0.5s-0.2,0.5-0.5,0.5h-3c-0.3,0-0.5-0.2-0.5-0.5S4007.1,1879,4007.4,1879z M4013.4,1879h3
				c0.3,0,0.5,0.2,0.5,0.5s-0.2,0.5-0.5,0.5h-3c-0.3,0-0.5-0.2-0.5-0.5S4013.1,1879,4013.4,1879z M4019.4,1879h3
				c0.3,0,0.5,0.2,0.5,0.5s-0.2,0.5-0.5,0.5h-3c-0.3,0-0.5-0.2-0.5-0.5S4019.1,1879,4019.4,1879z M4025.4,1879h3
				c0.3,0,0.5,0.2,0.5,0.5s-0.2,0.5-0.5,0.5h-3c-0.3,0-0.5-0.2-0.5-0.5S4025.1,1879,4025.4,1879z M4031.4,1879h3
				c0.3,0,0.5,0.2,0.5,0.5s-0.2,0.5-0.5,0.5h-3c-0.3,0-0.5-0.2-0.5-0.5S4031.1,1879,4031.4,1879z M4037.4,1879h3
				c0.3,0,0.5,0.2,0.5,0.5s-0.2,0.5-0.5,0.5h-3c-0.3,0-0.5-0.2-0.5-0.5S4037.1,1879,4037.4,1879z M4043.4,1879h3
				c0.3,0,0.5,0.2,0.5,0.5s-0.2,0.5-0.5,0.5h-3c-0.3,0-0.5-0.2-0.5-0.5S4043.1,1879,4043.4,1879z M4049.4,1879h3
				c0.3,0,0.5,0.2,0.5,0.5s-0.2,0.5-0.5,0.5h-3c-0.3,0-0.5-0.2-0.5-0.5S4049.1,1879,4049.4,1879z M4055.4,1879h3
				c0.3,0,0.5,0.2,0.5,0.5s-0.2,0.5-0.5,0.5h-3c-0.3,0-0.5-0.2-0.5-0.5S4055.1,1879,4055.4,1879z M4061.4,1879h3
				c0.3,0,0.5,0.2,0.5,0.5s-0.2,0.5-0.5,0.5h-3c-0.3,0-0.5-0.2-0.5-0.5S4061.1,1879,4061.4,1879z"/>
		</g>
		<g id="freepik--Floor--inject-2">
			<path id="Line_147" class="st5" d="M4272.5,2004.4h-162.1c-0.3,0-0.5-0.2-0.5-0.5s0.2-0.5,0.5-0.5h162.1c0.3,0,0.5,0.2,0.5,0.5
				S4272.8,2004.4,4272.5,2004.4z"/>
			<path id="Line_148" class="st5" d="M4105.5,2004.4h-233c-0.3,0-0.5-0.2-0.5-0.5s0.2-0.5,0.5-0.5h233c0.3,0,0.5,0.2,0.5,0.5
				S4105.7,2004.4,4105.5,2004.4z"/>
		</g>
		<g id="freepik--character-2--inject-2">
			<rect id="Rectangle_5788" x="4066.5" y="1845.5" class="st5" width="99" height="62.7"/>
			<circle id="Ellipse_4139" class="st1" cx="4084.3" cy="1862.4" r="8.8"/>
			<path id="Ellipse_4139_-_Outline" class="st4" d="M4084.3,1853.1c5.1,0,9.3,4.2,9.3,9.3s-4.2,9.3-9.3,9.3s-9.3-4.2-9.3-9.3
				C4075.1,1857.3,4079.2,1853.1,4084.3,1853.1z M4084.3,1870.7c4.6,0,8.3-3.7,8.3-8.3s-3.7-8.3-8.3-8.3s-8.3,3.7-8.3,8.3
				c0,0,0,0,0,0C4076,1867,4079.8,1870.7,4084.3,1870.7z"/>
			<path id="Path_101609" class="st1" d="M4165.6,1876.5l-19.5-17l-21.2,23.9l-22-13.4l-36.3,38.2h99V1876.5z"/>
			<path id="Path_101609_-_Outline" class="st4" d="M4146.1,1859c0.1,0,0.2,0,0.3,0.1l19.5,17c0.1,0.1,0.2,0.2,0.2,0.4v31.8
				c0,0.3-0.2,0.5-0.5,0.5h-99c-0.3,0-0.5-0.2-0.5-0.5c0-0.1,0-0.3,0.1-0.3l36.3-38.2c0.2-0.2,0.4-0.2,0.6-0.1l21.6,13.2l21-23.6
				C4145.8,1859,4146,1859,4146.1,1859z M4165.1,1876.7l-18.9-16.5l-20.9,23.5c-0.2,0.2-0.4,0.2-0.6,0.1l-21.7-13.2l-35.2,37.1h97.4
				L4165.1,1876.7z"/>
			<path id="Path_101610" class="st3" d="M4166,1857.6c0.7-0.2,1.4,0,1.8,0.5c0.4,0.6,0.7,1.3,0.7,2c0.7,0.9,1.3,1.8,1.6,2.9
				c0.2,1.1-1.8,6-1.8,6l5.1,12.8l-7.1-12.1c0,0-3.2-5.8-3.6-6.7c-0.3-1.6-0.4-3.3-0.4-4.9c0-0.9-0.2-2.9,0.9-1.8
				c0.6,0.6,1.1,1.2,1.4,2v0.7L4166,1857.6z"/>
			<path id="Path_101610_-_Outline" class="st4" d="M4162.7,1855.5c0.3,0,0.7,0.2,0.9,0.5c0.6,0.6,1.1,1.2,1.4,1.9l0.5-0.6
				c0.1-0.1,0.1-0.1,0.2-0.2c0.8-0.3,1.8,0,2.3,0.7l0,0c0.5,0.6,0.7,1.3,0.8,2.1c0.7,0.9,1.2,1.9,1.6,2.9c0,0,0,0.1,0,0.1
				c0.1,0.3,0,1.1-0.9,3.6c-0.4,1-0.8,2-0.9,2.4l5,12.7c0.1,0.3,0,0.5-0.3,0.7c-0.2,0.1-0.5,0-0.6-0.2l-7.1-12.1v0
				c-0.1-0.2-3.3-5.8-3.6-6.7c0,0,0-0.1,0-0.1c-0.3-1.6-0.4-3.3-0.4-5c0-0.1,0-0.2,0-0.3c0-1,0-1.7,0.4-2.1
				C4162.3,1855.6,4162.5,1855.5,4162.7,1855.5z M4164.2,1858.4c-0.3-0.7-0.8-1.2-1.3-1.7l0,0l0,0c0,0.4,0,0.7,0,1.1
				c0,0.1,0,0.2,0,0.4c0,0,0,0,0,0c-0.1,1.6,0.1,3.2,0.3,4.7c0.4,0.8,2.7,5,3.6,6.6l3.7,6.4l-2.6-6.7c0-0.1,0-0.3,0-0.4
				c0.8-1.8,1.4-3.7,1.8-5.7c-0.3-1-0.9-1.9-1.5-2.7c-0.1-0.1-0.1-0.2-0.1-0.3c0-0.6-0.2-1.2-0.6-1.7c-0.3-0.3-0.7-0.5-1.2-0.4
				l-1.2,1.3c-0.2,0.2-0.5,0.2-0.7,0c-0.1-0.1-0.2-0.2-0.2-0.4L4164.2,1858.4z"/>
			<path id="Path_101611" class="st3" d="M4104.7,1903.3l-3.4-0.4c-1.1-0.3-2.3-0.6-3.4-0.7c-1.5,0.4-2.8,1.2-4,2.2
				c-0.7,0.7-1.8,1.1-1.3,1.8s3.2-0.2,3.2-0.2l-2.4,3.1c0,0.8,0.5,1.4,1.3,1.6c0.9,0.2,1.9,0,2.7-0.5c0,0,2.9,0.5,3.4,0.7
				s6.9-3.6,6.9-3.6L4104.7,1903.3z"/>
			<path id="Path_101611_-_Outline" class="st4" d="M4097.8,1901.8C4097.8,1901.8,4097.8,1901.8,4097.8,1901.8
				c1.2,0.2,2.4,0.4,3.5,0.7l3.4,0.4c0.1,0,0.3,0.1,0.3,0.2l3.1,4c0.2,0.2,0.1,0.5-0.1,0.7c0,0,0,0,0,0c0,0-1.5,0.9-3.1,1.8
				c-3.3,1.9-3.7,1.9-4,1.9c-0.1,0-0.1,0-0.2,0c-0.4-0.1-2-0.4-3.2-0.7c-0.9,0.5-1.9,0.7-2.9,0.5l-0.1,0c-0.9-0.3-1.6-1.1-1.6-2.1
				c0-0.1,0-0.2,0.1-0.3l1.5-1.9c-0.4,0.1-0.7,0.1-1.1,0.1c-0.5,0.1-1-0.1-1.3-0.5c-0.3-0.4-0.3-0.9-0.1-1.2
				c0.2-0.3,0.5-0.5,0.8-0.7c0.2-0.2,0.4-0.3,0.6-0.5l0,0c1.2-1,2.6-1.8,4.2-2.3C4097.7,1901.8,4097.7,1901.8,4097.8,1901.8z
				 M4104.4,1903.8l-3.2-0.3c0,0-0.1,0-0.1,0c-1.1-0.3-2.2-0.5-3.3-0.7c-1.4,0.4-2.6,1.1-3.7,2c-0.2,0.2-0.5,0.4-0.7,0.6
				c-0.2,0.1-0.4,0.3-0.5,0.5c0,0,0,0.1,0.1,0.1l0,0c0,0,0.1,0.1,0.5,0.1c0.7-0.1,1.5-0.2,2.2-0.4c0.3-0.1,0.5,0,0.6,0.3
				c0.1,0.2,0,0.3-0.1,0.5l-2.2,2.9c0.1,0.5,0.4,0.8,0.9,1c0.8,0.1,1.6,0,2.3-0.5c0.1-0.1,0.2-0.1,0.4-0.1c0.3,0.1,2.7,0.5,3.4,0.7
				c2.1-0.9,4.1-2,6.1-3.3L4104.4,1903.8z"/>
			<path id="Path_101612" class="st5" d="M4123.3,1902.4l-1.8,43.2c0,0,0.5,28.8,1.6,34.2s2,10.1,2,10.1l-0.9,2v2.7
				c0,0-6.5,4.5-8,5.6s-2.4,1.6-1.4,2.2c0.9,0.5,13,1.3,15.2,1.3s3.6-0.2,3.8-1.1c0.2-0.9-0.2-7.4-0.2-7.4s0.5-4.3,0.7-5.6
				c0.2-1.3-0.5-6.5-0.5-9.6s0.9-23.9,1.1-27.7s3.2-25,3.2-25s6.7,48.3,7.1,50.5c0.4,2.2,3.4,12.7,3.4,12.7v2.2
				c0,0.5,1.1,4.3,1.1,4.3s0,6,0.9,6.5c0.9,0.5,4.3,0.7,5.4-0.5s-0.2-6.5-0.2-6.5s0.4-4.5,0.4-6.3s-1.3-6.7-1.3-8
				s-1.4-39.6-1.4-39.6l0.9-40l-30.9-2.7L4123.3,1902.4z"/>
			<path id="Path_101613" class="st3" d="M4138.3,1849.1c0,0-14.7,6.5-15.4,9.2c-0.7,2.7-0.4,42.9-0.2,44.3s8.9,3.4,15.2,4
				s15.4-1.8,16.5-4s2.7-19.5,2.7-19.5l1.1-3.8c0,0,7.8,8.9,11.4,10.5s5.4-1.3,5.1-4.2s-8.5-17.4-9.8-20.4s-1.8-8.7-3.3-10.5
				s-7.9-6.7-7.9-6.7S4143.9,1845.3,4138.3,1849.1z"/>
			<path id="Path_101613_-_Outline" class="st4" d="M4146.4,1846.5L4146.4,1846.5c2.5,0,5,0.3,7.4,0.9c0.1,0,0.1,0,0.2,0.1
				c0.3,0.2,6.6,4.9,8,6.8c0.9,1.1,1.4,3.5,2,5.9c0.3,1.6,0.8,3.2,1.3,4.7c0.4,1.1,1.7,3.5,3.2,6.4c3,5.7,6.4,12.2,6.6,14.2
				c0.2,1.4-0.2,2.9-1.1,4c-0.6,0.7-1.6,1.2-2.6,1.1c-0.7,0-1.5-0.2-2.2-0.5c-3.1-1.4-9-7.8-10.9-9.9l-0.8,2.9
				c-0.2,2-1.7,17.5-2.8,19.7c-0.7,1.5-3.8,2.5-5.6,3c-3,0.8-6.2,1.3-9.3,1.3c-0.7,0-1.4,0-2-0.1c-3.4-0.3-6.7-0.9-10-1.7
				c-1.3-0.3-2.6-0.7-3.8-1.2c-1.2-0.5-1.8-1-1.9-1.5c-0.1-0.8-0.2-12-0.3-21.7c0-9.5,0-21.2,0.4-22.8c0.2-0.8,1.3-2.3,8.2-5.9
				c3.5-1.8,7-3.4,7.4-3.6C4140.6,1847.1,4143.5,1846.4,4146.4,1846.5z M4153.4,1848.4c-2.3-0.6-4.7-0.9-7-0.9
				c-2.7-0.1-5.5,0.5-7.8,1.9c0,0-0.1,0-0.1,0c0,0-3.7,1.6-7.4,3.6c-6.6,3.5-7.6,4.9-7.7,5.3c-0.3,1.1-0.4,9.3-0.4,22.5
				c0,11,0.2,20.8,0.2,21.6c0,0,0.2,0.4,1.5,0.8c1.2,0.5,2.4,0.8,3.7,1.1c3.2,0.8,6.4,1.3,9.6,1.6c0.6,0.1,1.2,0.1,1.9,0.1
				c3.1,0,6.1-0.5,9-1.3c3.2-0.9,4.7-1.9,5-2.5c0.9-1.7,2.2-14.5,2.7-19.3c0,0,0-0.1,0-0.1l1.1-3.8c0.1-0.3,0.3-0.4,0.6-0.4
				c0.1,0,0.2,0.1,0.2,0.2c0.1,0.1,7.7,8.8,11.2,10.4c0.5,0.3,1.1,0.4,1.7,0.4c0.7,0,1.4-0.3,1.8-0.8c0.7-0.9,1-2.1,0.8-3.3
				c-0.2-1.8-3.8-8.8-6.5-13.8c-1.5-2.9-2.8-5.4-3.2-6.5c-0.6-1.6-1-3.2-1.4-4.9c-0.5-2.2-1.1-4.6-1.8-5.5
				C4159.9,1853.3,4154.2,1849,4153.4,1848.4L4153.4,1848.4z"/>
			<path id="Path_101614" class="st3" d="M4130.3,1853.4c0,0-9.8,3.6-10.3,6.3s-0.4,27.9-0.4,27.9l-15,15.8l2.4,5.3
				c0,0,25.5-15.4,25.9-18.3s0-26.6,0-26.6"/>
			<path id="Path_101614_-_Outline" class="st4" d="M4107,1909.1c-0.2,0-0.4-0.1-0.5-0.3l-2.4-5.3c-0.1-0.2,0-0.4,0.1-0.5l14.9-15.6
				c0-2.6-0.2-25.1,0.4-27.8c0.3-1.3,2.1-2.8,5.6-4.5c2.5-1.2,5-2.2,5-2.2c0.3-0.1,0.5,0,0.6,0.3c0.1,0.3,0,0.5-0.3,0.6
				c0,0-2.5,0.9-4.9,2.1c-4.3,2.1-5,3.4-5.1,3.8c-0.5,2.6-0.4,27.5-0.3,27.8c0,0.1,0,0.3-0.1,0.3l-14.8,15.5l2,4.4
				c1.6-1,7-4.3,12.3-7.7c3.7-2.4,6.7-4.5,8.8-6.1c3.7-2.8,4-3.6,4-3.7c0.3-2.8,0-26.3,0-26.5c0-0.3,0.2-0.5,0.5-0.5
				c0.3,0,0.5,0.2,0.5,0.5c0,1,0.4,23.8,0,26.7c-0.1,0.6-0.6,1.6-4.4,4.4c-2.2,1.6-5.2,3.7-8.9,6.2c-6.4,4.2-12.7,8-12.8,8.1
				C4107.2,1909.1,4107.1,1909.1,4107,1909.1z"/>
			<path id="Line_149" class="st5" d="M4158.2,1879.8c0,0-0.1,0-0.1,0c-0.3-0.1-0.4-0.3-0.4-0.6c0,0,0,0,0,0l2.9-14.1
				c0.1-0.3,0.3-0.4,0.6-0.4c0,0,0,0,0,0c0.3,0.1,0.4,0.3,0.4,0.6c0,0,0,0,0,0l-2.9,14.1C4158.6,1879.6,4158.4,1879.8,4158.2,1879.8
				z"/>
			<path id="Line_150" class="st5" d="M4158.7,1877.8c-0.1,0-0.2,0-0.3-0.1c-0.2-0.1-0.3-0.4-0.2-0.7l4-6.7c0.1-0.2,0.4-0.3,0.7-0.2
				c0.2,0.1,0.3,0.4,0.2,0.7l-4,6.7C4159.1,1877.7,4158.9,1877.8,4158.7,1877.8z"/>
			<path id="Path_101615" class="st3" d="M4149.3,1869.6c-2.8,5.3-6,10.4-9.6,15.1"/>
			<path id="Path_101615_-_Outline" class="st4" d="M4139.7,1885.2c-0.3,0-0.5-0.2-0.5-0.5c0-0.1,0-0.2,0.1-0.3
				c3.6-4.7,6.8-9.8,9.5-15.1c0.1-0.2,0.4-0.4,0.7-0.2c0.2,0.1,0.4,0.4,0.2,0.7c0,0,0,0,0,0c-2.8,5.3-6,10.4-9.6,15.2
				C4140,1885.2,4139.9,1885.2,4139.7,1885.2z"/>
			<path id="Path_101616" class="st3" d="M4152.2,1863.9c0,0-0.4,0.9-1.2,2.4"/>
			<path id="Path_101616_-_Outline" class="st4" d="M4151,1866.8c-0.3,0-0.5-0.2-0.5-0.5c0-0.1,0-0.2,0.1-0.2
				c0.8-1.5,1.2-2.4,1.2-2.4c0.1-0.2,0.4-0.3,0.7-0.2c0.2,0.1,0.3,0.4,0.2,0.6c0,0-0.5,1-1.2,2.5
				C4151.4,1866.7,4151.2,1866.8,4151,1866.8z"/>
			<path id="Path_101617" class="st5" d="M4130.7,1897.1c-0.3,0-0.5-0.2-0.5-0.5c0-0.2,0.1-0.4,0.3-0.5c1.7-0.8,5.1-3.1,9.9-6.9
				c0.2-0.2,0.5-0.1,0.7,0.1c0.2,0.2,0.1,0.5-0.1,0.7c0,0,0,0,0,0c-3.4,2.6-7.9,6-10.1,7C4130.8,1897.1,4130.8,1897.1,4130.7,1897.1
				z"/>
			<path id="Path_101618" class="st5" d="M4142.5,1888.8c-0.3,0-0.5-0.2-0.5-0.5c0-0.2,0.1-0.3,0.2-0.4l1.8-1.4
				c0.2-0.2,0.5-0.1,0.7,0.1c0.2,0.2,0.1,0.5-0.1,0.7l-1.8,1.4C4142.7,1888.7,4142.6,1888.8,4142.5,1888.8z"/>
			<path id="Path_101619" class="st3" d="M4150.9,1837.3l0.2,8.5l-12.1,2.9l2.4-10.3c0.6-2.1,2.5-3.7,4.7-3.8
				C4148.1,1834.3,4150.1,1835.4,4150.9,1837.3z"/>
			<path id="Path_101619_-_Outline" class="st4" d="M4146.6,1834.1c2,0,3.9,1.2,4.8,3c0,0.1,0,0.1,0,0.2l0.2,8.5
				c0,0.2-0.2,0.4-0.4,0.5l-12.1,2.9c-0.3,0.1-0.5-0.1-0.6-0.4c0-0.1,0-0.2,0-0.2l2.4-10.3c0,0,0,0,0,0c0.7-2.3,2.7-4,5.1-4.2
				C4146.2,1834.1,4146.4,1834.1,4146.6,1834.1z M4150.5,1837.4c-0.8-1.6-2.5-2.6-4.3-2.3h0c-2,0.1-3.7,1.5-4.2,3.4l-2.2,9.5
				l10.9-2.6L4150.5,1837.4z"/>
			<path id="Path_101620" class="st3" d="M4139.7,1823c0,0-2.9,2.7-2.9,3.8s-1.3,3.1-1.8,4s-2.9,1.1-2.7,2.5
				c0.1,0.9,0.8,1.6,1.6,1.8c0,0-2.2,10.3,1.1,11.4c3.2,1.1,8.7-4.7,8.7-4.7l1.3-4.3c1.8,0.5,3.7,0.8,5.6,1.1c1.3,0,5.3-3.6,7.4-6.9
				c2.1-3.3-2.7-10.5-9-12.8s-11.4,0.9-11.4,2.4S4139.7,1823,4139.7,1823z"/>
			<path id="Path_101620_-_Outline" class="st4" d="M4144.5,1817.5L4144.5,1817.5c1.6,0,3.1,0.3,4.6,0.8c4.3,1.6,7.7,5,9.5,9.3
				c0.6,1.4,0.5,3-0.2,4.3c-1.2,1.7-2.5,3.3-4.1,4.8c-1,0.9-2.7,2.3-3.7,2.3c0,0,0,0-0.1,0c-1.8-0.2-3.5-0.5-5.2-0.9l-1.1,3.9
				c0,0.1-0.1,0.1-0.1,0.2c-0.2,0.2-4.7,5-8.2,5c-0.4,0-0.7-0.1-1-0.2c-1.6-0.5-2.3-2.8-2.1-6.6c0.1-1.7,0.3-3.3,0.6-4.9
				c-0.8-0.4-1.4-1.2-1.5-2.1v0c-0.2-1.3,1-1.8,1.8-2.2c0.4-0.1,0.7-0.4,1-0.6l0.2-0.3c0.5-0.8,1.6-2.6,1.6-3.4
				c0-0.4,0.2-1.1,1.6-2.6c0.3-0.3,0.6-0.7,0.9-0.9c-1-0.3-1.7-1.1-1.8-2.1c0-0.8,0.8-1.7,2.2-2.4
				C4140.8,1817.9,4142.6,1817.5,4144.5,1817.5z M4150.6,1838c0.3,0,1.3-0.5,3-2.1c1.5-1.4,2.8-2.9,3.9-4.6c0.5-1.1,0.6-2.3,0.1-3.5
				c-1.6-4-4.8-7.1-8.9-8.6c-1.4-0.5-2.8-0.8-4.3-0.8c-1.7,0-3.3,0.4-4.8,1.1c-1.3,0.7-1.7,1.3-1.7,1.5c0,1,1.8,1.3,1.8,1.4
				c0.3,0,0.5,0.3,0.4,0.6c0,0.1-0.1,0.2-0.2,0.3c0,0-0.7,0.7-1.4,1.5c-1.3,1.4-1.3,1.9-1.3,2c0,1-0.8,2.5-1.7,3.9l-0.2,0.3
				c-0.4,0.5-0.9,0.8-1.4,1c-0.9,0.4-1.3,0.7-1.2,1.2c0.1,0.7,0.6,1.2,1.3,1.4c0.3,0.1,0.4,0.3,0.4,0.6c-0.3,1.7-0.6,3.5-0.7,5.2
				c-0.2,3.2,0.3,5.2,1.4,5.6c0.2,0.1,0.5,0.1,0.7,0.1c2.8,0,6.7-4,7.4-4.6l1.2-4.2c0.1-0.3,0.3-0.4,0.6-0.3
				C4146.9,1837.5,4148.7,1837.8,4150.6,1838L4150.6,1838z"/>
			<path id="Path_101621" class="st5" d="M4149,1818.9c-6.3-2.4-11.4,0.9-11.4,2.4s1.9,1.8,2.1,1.8l0,0c0,0,4.5,1.3,4.5,2.5
				s-1.1,1.1-1.3,1.6s-0.5,0.9,0.2,1.4l0.7,0.5c0,0-1.1,5.6-1.4,7.1c-0.2,1.1-1.2,1.9-2.3,1.8c-1.1,0-4.5-3.4-6.1-2.9
				c0,0-2.2,10.3,1.1,11.4s8.7-4.7,8.7-4.7l1.3-4.3c1.8,0.5,3.7,0.8,5.6,1.1c1.3,0,5.3-3.6,7.4-6.9S4155.3,1821.2,4149,1818.9z"/>
			<path id="Path_101622" class="st5" d="M4140.9,1829.8c-0.2,0-0.3-0.1-0.4-0.2c-0.5-0.8-1.6-1.2-2.5-0.9c-0.3,0.1-0.5,0-0.6-0.3
				c-0.1-0.3,0-0.5,0.3-0.6c0,0,0,0,0,0c1.4-0.5,2.9,0,3.7,1.3c0.1,0.2,0.1,0.5-0.2,0.7C4141,1829.8,4141,1829.8,4140.9,1829.8
				L4140.9,1829.8z"/>
			<path id="Path_101623" class="st5" d="M4140.5,1831.7c-0.1,0-0.2,0-0.3-0.1c-0.7-0.5-1.6-0.7-2.4-0.5c-0.3,0.1-0.5-0.1-0.6-0.3
				c-0.1-0.3,0.1-0.5,0.3-0.6c1.2-0.4,2.4-0.1,3.3,0.6c0.2,0.2,0.3,0.5,0.1,0.7C4140.8,1831.6,4140.6,1831.7,4140.5,1831.7
				L4140.5,1831.7z"/>
			<path id="Path_101624" class="st5" d="M4136,1839.6c-0.6,0-1.3-0.1-1.9-0.3c-0.3-0.1-0.4-0.4-0.3-0.6c0.1-0.3,0.4-0.4,0.6-0.3
				c1,0.4,2.1,0.4,3.1,0c0.3-0.1,0.5,0,0.6,0.3c0.1,0.3,0,0.5-0.3,0.6C4137.3,1839.4,4136.7,1839.6,4136,1839.6z"/>
			<path id="Path_101625" class="st3" d="M4144.3,1833c0,0,1.6-2.5,2.7-1.3s0.4,4.9-0.9,5.6c-0.6,0.5-1.5,0.4-2-0.2L4144.3,1833z"/>
			<path id="Path_101625_-_Outline" class="st4" d="M4146.3,1830.8c0.4,0,0.8,0.2,1.1,0.5c0.6,1,0.8,2.2,0.5,3.4
				c-0.1,1.2-0.7,2.2-1.6,3c-0.3,0.2-0.7,0.4-1.2,0.4c-0.6,0-1.1-0.2-1.5-0.6c-0.1-0.1-0.1-0.2-0.1-0.4l0.2-4.2c0-0.1,0-0.2,0.1-0.2
				c0.2-0.3,0.4-0.6,0.7-0.9C4145,1831.3,4145.6,1830.9,4146.3,1830.8z M4145.2,1837.1c0.2,0,0.4-0.1,0.6-0.2c0,0,0,0,0,0
				c0.6-0.6,1-1.4,1.1-2.3c0.2-0.9,0.1-1.8-0.3-2.6c-0.1-0.1-0.2-0.2-0.3-0.2c-0.4,0-1.1,0.7-1.5,1.3l-0.2,3.8
				C4144.8,1837,4145,1837.1,4145.2,1837.1L4145.2,1837.1z"/>
			<path id="Path_101626" class="st3" d="M4150.9,1843.6c0,0-8.3,1.3-10.1,1.8c-1.7,0.6-3.3,1.4-4.9,2.4l-0.7,2.7
				c0,0,12.6-2.7,15-2.7c1.1,0,2.3,0,3.4,0.2C4153.7,1848,4152.8,1843.5,4150.9,1843.6z"/>
			<path id="Path_101626_-_Outline" class="st4" d="M4151.1,1843.1L4151.1,1843.1c0.9,0,1.8,0.8,2.4,2.5c0.3,0.7,0.5,1.5,0.7,2.3
				c0.1,0.3-0.1,0.5-0.4,0.6c-0.1,0-0.1,0-0.2,0c-1.1-0.1-2.2-0.2-3.4-0.2h0c-2.3,0-14.8,2.7-14.9,2.7c-0.3,0.1-0.5-0.1-0.6-0.4
				c0-0.1,0-0.2,0-0.2l0.7-2.7c0-0.1,0.1-0.2,0.2-0.3c1.6-0.9,3.2-1.7,5-2.4l0,0c1.8-0.6,9.8-1.8,10.2-1.8h0
				C4151,1843.1,4151,1843.1,4151.1,1843.1z M4153,1847.4c-0.4-1.5-1.2-3.3-2-3.3l0,0h0c-0.4,0.1-8.3,1.3-10,1.8
				c-1.6,0.6-3.1,1.3-4.6,2.2l-0.5,1.7c2.8-0.6,12.2-2.5,14.3-2.6C4151.2,1847.3,4152.1,1847.3,4153,1847.4L4153,1847.4z"/>
		</g>
		<g id="freepik--character-1--inject-2">
			<rect id="Rectangle_5789" x="3960.7" y="1798.9" class="st5" width="60.9" height="35.5"/>
			<rect id="Rectangle_5790" x="3928.8" y="1794.2" class="st1" width="87.1" height="48.6"/>
			<path id="Rectangle_5790_-_Outline" class="st4" d="M3928.8,1793.7h87.1c0.3,0,0.5,0.2,0.5,0.5v48.6c0,0.3-0.2,0.5-0.5,0.5h-87.1
				c-0.3,0-0.5-0.2-0.5-0.5v-48.6C3928.3,1793.9,3928.6,1793.7,3928.8,1793.7z M4015.4,1794.7h-86.1v47.6h86.1V1794.7z"/>
			<path id="Path_101627" class="st5" d="M3982.6,1815.5l-16-9.2v18.5L3982.6,1815.5z"/>
			<rect id="Rectangle_5791" x="3928.8" y="1835" class="st5" width="87.1" height="7.8"/>
			<rect id="Rectangle_5792" x="3928.8" y="1837.5" class="st3" width="87.1" height="2.8"/>
			<path id="Rectangle_5792_-_Outline" class="st4" d="M3928.8,1837h87.1c0.3,0,0.5,0.2,0.5,0.5v2.8c0,0.3-0.2,0.5-0.5,0.5h-87.1
				c-0.3,0-0.5-0.2-0.5-0.5v-2.8C3928.3,1837.2,3928.6,1837,3928.8,1837z M4015.4,1838h-86.1v1.8h86.1V1838z"/>
			<path id="Path_101628" class="st3" d="M3909.2,1844.1l16.4-17.4c0,0,0.8-3.2,1-4.2c0.5-1.2,1.3-2.2,2.4-3c1-0.8,1.4-1.4,1.4,0
				c-0.1,0.9-0.6,1.8-1.4,2.2c0,0-0.2,3.9-0.2,4.3v1.9l-12,18L3909.2,1844.1z"/>
			<path id="Path_101628_-_Outline" class="st4" d="M3916.9,1846.6c0,0-0.1,0-0.1,0l-7.6-2c-0.3-0.1-0.4-0.3-0.4-0.6
				c0-0.1,0.1-0.2,0.1-0.2l16.3-17.3c0.1-0.6,0.8-3.2,1-4c0.5-1.3,1.4-2.5,2.6-3.3c0.2-0.1,0.3-0.2,0.4-0.3c0.4-0.3,0.7-0.6,1.1-0.6
				c0.3,0,0.6,0.2,0.7,0.5c0.1,0.3,0.1,0.5,0.1,0.8c0,0,0,0,0,0c-0.1,1-0.6,1.9-1.5,2.5c-0.1,1.4-0.1,3.7-0.1,4.1v1.9
				c0,0.1,0,0.2-0.1,0.3l-12,18C3917.2,1846.5,3917,1846.6,3916.9,1846.6z M3910.2,1843.8l6.5,1.7l11.7-17.6v-1.8
				c0-0.5,0.2-4.2,0.2-4.4c0-0.2,0.1-0.3,0.3-0.4c0.7-0.4,1.1-1.1,1.2-1.8c0,0,0-0.1,0-0.1l-0.2,0.2c-0.1,0.1-0.3,0.2-0.5,0.4
				c-1,0.7-1.7,1.6-2.2,2.7c-0.2,1-1,4.1-1,4.2c0,0.1-0.1,0.2-0.1,0.2L3910.2,1843.8z"/>
			<path id="Path_101629" class="st3" d="M3908.9,1849.5c-0.8-1.1-1.2-2.5-1.1-3.9c0.4-2.2,2.5-3.7,4.7-3.3c0,0,0,0,0,0
				c0.1,0,0.2,0,0.3,0.1c2.2,0.6,4.7,1.1,5,3.1s-2.9,1.6-5.5,1.9C3910.9,1847.5,3909.6,1848.3,3908.9,1849.5z"/>
			<path id="Path_101629_-_Outline" class="st4" d="M3908.9,1850c-0.2,0-0.3-0.1-0.4-0.2c-0.8-1.2-1.3-2.7-1.2-4.2c0,0,0,0,0-0.1
				c0.4-2.5,2.8-4.1,5.3-3.7c0,0,0,0,0,0c0.1,0,0.2,0,0.3,0.1h0c0.2,0.1,0.4,0.1,0.6,0.2c2.1,0.6,4.4,1.2,4.7,3.3
				c0.1,0.5,0,0.9-0.3,1.3c-0.7,0.9-2.2,1-3.9,1.1c-0.6,0-1.1,0.1-1.7,0.1h0c-1.3,0.1-2.4,0.8-3,1.8
				C3909.2,1849.9,3909.1,1850,3908.9,1850L3908.9,1850z M3908.3,1845.7c0,1,0.2,2,0.7,2.9c0.8-1,2-1.6,3.3-1.7
				c0.6-0.1,1.2-0.1,1.7-0.1c1.3-0.1,2.8-0.2,3.2-0.7c0.1-0.1,0.1-0.3,0.1-0.5c-0.3-1.4-2.1-1.9-4-2.5c-0.2-0.1-0.4-0.1-0.6-0.2
				c-0.1,0-0.2,0-0.3-0.1c-0.2,0-0.4-0.1-0.6-0.1C3910,1842.8,3908.6,1844,3908.3,1845.7L3908.3,1845.7z"/>
			<path id="Path_101630" class="st3" d="M3956,1861.3c0,0,14.9-19.6,15.8-20.7s1.3-0.8,2.9-0.8s4.3-0.7,4.7-0.2s0.5,1.3-0.2,1.3
				s-3.5,0.6-3.5,0.6l4.2,1.1c0,0,1.8,0,1.8,0.5s-0.3,0.3-1.9,1c-1.4,0.6-3,1-4.5,1.1h-3.4l-11.9,22.5L3956,1861.3z"/>
			<path id="Path_101630_-_Outline" class="st4" d="M3959.8,1868.2c-0.2,0-0.3-0.1-0.4-0.2l-3.9-6.5c-0.1-0.2-0.1-0.4,0-0.6
				c0.1-0.2,14.9-19.6,15.7-20.7c0.4-0.7,1.1-1.1,1.9-1.1c0.2,0,0.4,0,0.5,0c0.2,0,0.5,0,0.8,0c0.7,0,1.4-0.1,2.1-0.2
				c0.6-0.1,1.2-0.1,1.9-0.2c0.4-0.1,0.9,0.1,1.2,0.4c0.3,0.5,0.4,1.1,0.2,1.6c-0.2,0.3-0.5,0.5-0.8,0.5c-0.5,0-0.9,0.1-1.4,0.2
				l2.1,0.6c0.3,0,0.6,0,0.9,0.1c0.3,0,1.3,0.2,1.3,0.9c0,0.7-0.5,0.8-1,1c-0.3,0.1-0.7,0.2-1.2,0.5h0c-1.5,0.6-3,1-4.6,1.2h-0.1
				h-3.1l-11.8,22.2C3960.2,1868.1,3960,1868.2,3959.8,1868.2L3959.8,1868.2z M3956.6,1861.3l3.2,5.4l11.5-21.7
				c0.1-0.2,0.3-0.3,0.4-0.3h3.3c1.5-0.2,2.9-0.5,4.3-1.1c0.5-0.2,0.9-0.4,1.2-0.5c-0.3,0-0.6-0.1-0.9-0.1c0,0-0.1,0-0.1,0l-4.2-1.1
				c-0.3-0.1-0.4-0.3-0.4-0.6c0-0.2,0.2-0.3,0.4-0.4c0.3-0.1,2.8-0.6,3.6-0.7c0-0.2-0.1-0.3-0.2-0.4c-0.1,0-0.2,0-0.4,0
				c-0.6,0-1.2,0.1-1.8,0.2c-0.7,0.1-1.4,0.2-2.2,0.2c-0.3,0-0.6,0-0.9,0c-0.2,0-0.4,0-0.5,0c-0.5,0-0.7,0.1-1.1,0.6
				C3971.4,1841.9,3958.4,1858.9,3956.6,1861.3L3956.6,1861.3z"/>
			<path id="Path_101631" class="st3" d="M3920.3,1941.3l1.1,5.2c-3.9,0.4-7.9,0.7-11.9,0.6c-4.3,0-8.6-0.4-12.9-1
				c0,0-1.6-4.2-3.4-4.7s-7.2,4.3-9.6,5.9s-4.5,4.5-3.7,5.3s4.8-0.8,4.8-0.8s7.1-1.1,9.3-1.1s5.6,1.1,11.4,2.2
				c6.9,1.1,13.8,1.7,20.7,1.9c2.9,0,4.3,0.2,5.3-2.7s0-12.7,0-12.7l-11.9-1L3920.3,1941.3z"/>
			<path id="Path_101631_-_Outline" class="st4" d="M3919.7,1938L3919.7,1938l11.9,1c0.2,0,0.4,0.2,0.5,0.4c0,0.4,1,9.9,0,12.9
				c-0.2,1.1-0.9,2.1-1.9,2.6c-1,0.4-2,0.5-3,0.4h-0.8h0c-7-0.2-13.9-0.9-20.8-1.9h0c-2.3-0.4-4.1-0.9-5.8-1.3
				c-1.8-0.5-3.7-0.8-5.6-1c-2.1,0-8.5,1-9.2,1.1c-1.3,0.5-2.7,0.9-4.1,1c-0.4,0-0.8-0.1-1.2-0.4c-0.3-0.3-0.4-0.6-0.3-1
				c0.2-1,0.7-1.8,1.3-2.6c0.8-1,1.7-1.8,2.7-2.5c0.6-0.4,1.5-1.1,2.4-1.7c3.2-2.4,5.8-4.3,7.3-4.3c0.1,0,0.3,0,0.4,0.1
				c0.9,0.2,1.8,1.2,2.7,2.7c0.4,0.6,0.7,1.3,0.9,1.9c4.1,0.6,8.3,0.9,12.5,1h0.4c3.6,0,7.3-0.2,10.9-0.6l-1-4.6l-0.6-2.8
				c-0.1-0.3,0.1-0.5,0.4-0.6C3919.6,1938,3919.6,1938,3919.7,1938L3919.7,1938z M3931.1,1940l-10.8-0.9l0.5,2.1l1.1,5.2
				c0.1,0.3-0.1,0.5-0.4,0.6c0,0,0,0,0,0c-3.8,0.4-7.7,0.6-11.6,0.6h-0.4c-4.3,0-8.7-0.4-12.9-1c-0.2,0-0.3-0.1-0.4-0.3
				c-0.6-1.5-1.9-4.1-3-4.4c0,0-0.1,0-0.1,0c-1.3,0-4.5,2.5-6.7,4.1c-1,0.7-1.8,1.4-2.4,1.8c-1.9,1.3-3.6,3.4-3.6,4.3
				c0,0.1,0,0.1,0,0.2c0,0,0.1,0.1,0.5,0.1c1.3-0.2,2.6-0.5,3.8-1c0,0,0.1,0,0.1,0c0.3,0,7.1-1.1,9.4-1.1c2,0.1,3.9,0.5,5.8,1
				c1.6,0.4,3.5,0.8,5.7,1.2c6.8,1.1,13.7,1.7,20.7,1.9h0.8c2.3,0,3.2-0.1,4-2.4C3931.9,1949.6,3931.3,1941.8,3931.1,1940z"/>
			<path id="Path_101632" class="st5" d="M3887.2,1951.5l-0.6-0.9l10.1-4.5c0,0-1.6-4.2-3.4-4.7s-7.2,4.3-9.6,5.9s-4.5,4.5-3.7,5.3
				s4.8-0.8,4.8-0.8L3887.2,1951.5z"/>
			<path id="Path_101633" class="st3" d="M3929.1,1942.1l1.4,10c0,0-1.1,12.5-0.6,18s0.5,23.3,0.5,23.3s-2.6,4.5-2.2,5.5
				s4.2,3.7,5.9,4.5s4.8,0.8,5.3-0.2s-2.2-2.6-2.2-2.6l-2.6-6.4c0,0,7.2-41.1,7.2-44.2s0.6-10.4,0.6-10.4L3929.1,1942.1z"/>
			<path id="Path_101633_-_Outline" class="st4" d="M3942.5,1939.1c0.3,0,0.5,0.2,0.5,0.5c0,0,0,0,0,0c0,0.1-0.6,7.4-0.6,10.4
				s-6.7,41.1-7.2,44.1l2.5,6.1c0.4,0.3,0.8,0.6,1.2,0.9c1,0.9,1.4,1.6,1.1,2.3c-0.4,0.9-1.9,1-2.8,1c-1.1,0-2.2-0.2-3.2-0.6
				c-1.3-0.6-2.5-1.4-3.6-2.2c-1.5-1.1-2.4-2-2.6-2.6c-0.1-0.4-0.1-1.1,1-3.5c0.5-1,1-2,1.2-2.3c0-1.6,0-18-0.5-23.1
				c-0.5-5.3,0.5-17,0.6-18l-1.4-9.9c0-0.3,0.1-0.5,0.4-0.6L3942.5,1939.1C3942.4,1939.1,3942.4,1939.1,3942.5,1939.1z
				 M3937.1,2003.4c1.2,0,1.8-0.3,1.9-0.5c0-0.1,0-0.4-0.8-1c-0.4-0.3-0.8-0.6-1.2-0.9c-0.1-0.1-0.2-0.1-0.2-0.2l-2.6-6.4
				c0-0.1,0-0.2,0-0.3c0.1-0.4,7.2-41.1,7.2-44.1c0-2.5,0.4-7.9,0.6-9.8l-12.2,2.3l1.4,9.5c0,0,0,0.1,0,0.1c0,0.1-1.1,12.6-0.6,17.9
				c0.5,5.4,0.5,23.2,0.5,23.3c0,0.1,0,0.2-0.1,0.2c0,0-0.6,1.1-1.2,2.3c-1.1,2.2-1,2.7-1,2.8c0.6,0.8,1.4,1.5,2.3,2.1
				c1.1,0.8,2.2,1.5,3.4,2.1C3935.2,2003.3,3936.2,2003.5,3937.1,2003.4z"/>
			<path id="Path_101634" class="st5" d="M3932.7,1996.2c-0.9-0.7-2-1.1-3.2-1.2c-0.7,1.4-1.5,3.2-1.4,3.8c0.3,1,4.2,3.7,5.9,4.5
				s4.8,0.8,5.3-0.2s-2.2-2.6-2.2-2.6C3935.8,1999,3934.3,1997.6,3932.7,1996.2z"/>
			<path id="Path_101635" class="st5" d="M3916.9,1896c-2.6,5.7-4.1,11.8-4.7,18c-1,10.6,6.8,26.8,6.8,26.8s1,3.1,9.6,3.4
				c5.2,0.2,10.3-0.9,14.9-3.2c0,0,3.4-11.4,1.4-29.1c-0.4-4.3-1.8-8.4-3.9-12.2L3916.9,1896z"/>
			<path id="Path_101636" class="st3" d="M3934.6,1859.7l20.9,1.4l3.4,7.6c0,0-2.7,0.6-8,1.6s-8.8,1.9-8.8,1.9s0.3,4,0.3,7.7
				s-1.8,11.6-1.8,11.6l2.1,10.9c0,0-4.5-1.6-6.4-1.6s-3,2.1-8.7,3.4c-9.3,2.1-11.7-6.7-11.7-6.7s2.7-6.3,2.7-9s-4.2-18.3-4.2-18.3
				l-5.8-21.4c0,0-1.1-2.6,2.6-3.1c1.9-0.3,3.8-0.2,5.6,0.3l8.7,11.7c0,0,3,2.2,4.3,2.1S3934.6,1859.7,3934.6,1859.7z"/>
			<path id="Path_101636_-_Outline" class="st4" d="M3913.3,1845c1.2,0,2.4,0.2,3.6,0.5c0.1,0,0.2,0.1,0.3,0.2l8.6,11.7
				c1,0.8,3,2,3.8,2c0,0,0.1,0,0.1,0c1.3-0.2,4.7-0.2,4.9-0.2h0l20.9,1.4c0.2,0,0.3,0.1,0.4,0.3l3.4,7.6c0.1,0.3,0,0.5-0.3,0.7
				c0,0-0.1,0-0.1,0c0,0-2.8,0.7-8,1.6c-4.2,0.8-7.3,1.5-8.4,1.8c0.1,1.1,0.3,4.3,0.3,7.3c0,3.5-1.6,10.6-1.8,11.6l2.1,10.8
				c0.1,0.3-0.1,0.5-0.4,0.6c-0.1,0-0.2,0-0.3,0c0,0-4.4-1.6-6.3-1.6c-0.8,0.1-1.5,0.4-2.2,0.9c-2,1.2-4.1,2-6.4,2.5
				c-0.9,0.2-1.9,0.3-2.8,0.3c-3,0-5.8-1.3-7.6-3.7c-0.9-1.1-1.5-2.4-1.9-3.7c0-0.1,0-0.2,0-0.3c0-0.1,2.7-6.2,2.7-8.8
				c0-2.6-4.1-18-4.2-18.2l-5.8-21.3c-0.3-0.7-0.2-1.5,0.1-2.2c0.7-0.9,1.7-1.5,2.9-1.5C3911.8,1845.1,3912.6,1845,3913.3,1845z
				 M3916.5,1846.4c-1.7-0.5-3.5-0.6-5.2-0.3h0c-0.8,0-1.6,0.4-2.1,1c-0.2,0.4-0.2,0.9-0.1,1.3c0,0,0,0,0,0.1l5.8,21.4
				c0.2,0.6,4.2,15.7,4.2,18.5c0,2.6-2.3,8-2.7,9c0.4,1.2,1,2.3,1.7,3.2c1.6,2.1,4.1,3.4,6.7,3.3c0.9,0,1.8-0.1,2.6-0.3
				c2.2-0.5,4.2-1.3,6.1-2.4c0.8-0.6,1.7-0.9,2.7-1c2,0.2,3.9,0.7,5.8,1.4l-2-10.1c0-0.1,0-0.1,0-0.2c0-0.1,1.8-7.9,1.8-11.5
				c0-3.6-0.3-7.6-0.3-7.7c0-0.2,0.1-0.5,0.4-0.5c0,0,3.6-1,8.9-1.9c3.8-0.7,6.3-1.2,7.4-1.5l-3-6.7l-20.6-1.4c-0.3,0-3.5,0-4.7,0.2
				c-0.1,0-0.1,0-0.2,0c-1.5,0-4.2-2-4.5-2.2c0,0-0.1-0.1-0.1-0.1L3916.5,1846.4z"/>
			<path id="Path_101637" class="st3" d="M3935.9,1839.7c0,0,0.2,2.1,1.1,2.9s2.6,0.8,2.6,2.1c0,0.7,0,1.4,0.2,2.1
				c0,0,0,4.2-0.2,5.5s-4.2,2.6-4.2,2.6l-0.2,4.7l-5-2.4c-1.1-3-1.2-6.3-0.3-9.3C3931,1844.5,3933.1,1841.7,3935.9,1839.7z"/>
			<path id="Path_101637_-_Outline" class="st4" d="M3935.9,1839.2c0.3,0,0.5,0.2,0.5,0.5l0,0c-0.2,1.4,0.6,2.7,2,3.1
				c0.8,0.3,1.7,0.7,1.7,1.9v0c0,0.7,0,1.3,0.2,2c0,0,0,0.1,0,0.1c0,0.2,0,4.2-0.2,5.5c-0.1,0.7-0.9,1.4-2.4,2.2
				c-0.7,0.3-1.4,0.6-1.8,0.7l-0.1,4.3c0,0.3-0.2,0.5-0.5,0.5c-0.1,0-0.1,0-0.2,0l-5-2.4c-0.1-0.1-0.2-0.2-0.3-0.3
				c-1.1-3.1-1.2-6.5-0.3-9.6c0,0,0,0,0,0c1.1-3.3,3.3-6.2,6.1-8.3C3935.7,1839.3,3935.8,1839.2,3935.9,1839.2z M3939.1,1844.7
				c0-0.5-0.3-0.6-1.1-1c-0.5-0.2-0.9-0.4-1.3-0.7c-0.6-0.6-1.1-1.5-1.2-2.4c-2.4,1.9-4.1,4.4-5.1,7.3c-0.8,2.9-0.7,6,0.2,8.8l4.1,2
				l0.1-3.9c0-0.2,0.1-0.4,0.3-0.5c0.7-0.2,1.3-0.5,2-0.8c1.7-0.8,1.9-1.3,1.9-1.4c0.1-1.2,0.2-4.9,0.2-5.4
				C3939.1,1846.1,3939.1,1845.4,3939.1,1844.7L3939.1,1844.7z"/>
			<path id="Path_101638" class="st5" d="M3935.6,1835.6c0,0,1.3,5-0.2,7.9s-3.9,4.7-2.9,7.1s3.5,7.4,2.7,9s-7.7,5.3-12.7,3.1
				s-4.5-5.6-4.5-5.6s2.4,1,1.9-1.4s-2.9-3.1-3.7-8.8s3.5-10,8.5-11.9S3933.8,1833.2,3935.6,1835.6z"/>
			<path id="Path_101639" class="st3" d="M3953.9,1861c0,0,2.1,3.2,2.4,4.8s0.8,3.7,0.8,3.7c1.1,0.5,2.3,0.2,3.1-0.6
				c1.3-1.4,0.5-4-0.6-5.5c-1-1.2-2.1-2.2-3.2-3.2C3956.3,1860.1,3954.4,1860.1,3953.9,1861z"/>
			<path id="Path_101639_-_Outline" class="st4" d="M3956.3,1859.6c0.1,0,0.2,0,0.3,0.1c1.2,1,2.3,2.1,3.3,3.3l0,0
				c0.7,0.9,1.1,1.9,1.3,3c0.3,1.1,0,2.3-0.7,3.1l0,0c-0.6,0.7-1.5,1-2.4,1c-0.4,0-0.9-0.1-1.3-0.3c-0.1-0.1-0.3-0.2-0.3-0.3
				c0,0-0.5-2.1-0.8-3.7c-0.6-1.6-1.4-3.2-2.3-4.6c-0.1-0.2-0.1-0.4,0-0.5C3954.1,1859.7,3955.9,1859.6,3956.3,1859.6z
				 M3959.1,1863.7c-0.9-1.1-1.9-2.1-3-3c-0.6,0-1.1,0.1-1.6,0.4c1,1.4,1.7,3,2.3,4.7c0.2,1.2,0.6,2.8,0.7,3.4
				c0.8,0.2,1.7,0,2.3-0.6C3960.9,1867.2,3960,1864.9,3959.1,1863.7L3959.1,1863.7z"/>
		</g>
		<g id="freepik--Image--inject-2">
			<rect id="Rectangle_5793" x="4123.2" y="1521.7" class="st5" width="86.2" height="152"/>
			<rect id="Rectangle_5794" x="4116.8" y="1515.5" class="st3" width="107.3" height="152"/>
			<path id="Rectangle_5794_-_Outline" class="st4" d="M4116.8,1515h107.4c0.3,0,0.5,0.2,0.5,0.5v152c0,0.3-0.2,0.5-0.5,0.5h-107.4
				c-0.3,0-0.5-0.2-0.5-0.5v-152C4116.3,1515.2,4116.5,1515,4116.8,1515z M4223.6,1516h-106.4v151h106.4V1516z"/>
			<rect id="Rectangle_5795" x="4125.3" y="1527.6" class="st5" width="90.3" height="66.1"/>
			<path id="Path_101640" class="st1" d="M4215.6,1558.3l-12.8-10.8l-19.9,22.2l-20.6-10.5l-37,34.5h90.3V1558.3z"/>
			<path id="Path_101640_-_Outline" class="st4" d="M4202.8,1547c0.1,0,0.2,0,0.3,0.1l12.8,10.8c0.1,0.1,0.2,0.2,0.2,0.4v35.4
				c0,0.3-0.2,0.5-0.5,0.5h-90.3c-0.3,0-0.5-0.2-0.5-0.5c0-0.1,0.1-0.3,0.2-0.4l37-34.5c0.2-0.1,0.4-0.2,0.6-0.1l20.3,10.3
				l19.6-21.9C4202.5,1547.1,4202.7,1547,4202.8,1547z M4215.1,1558.5l-12.2-10.3l-19.6,21.8c-0.2,0.2-0.4,0.2-0.6,0.1l-20.3-10.3
				l-35.8,33.4h88.5L4215.1,1558.5z"/>
			<ellipse id="Ellipse_4140" class="st1" cx="4142" cy="1542.9" rx="9.6" ry="8.3"/>
			<path id="Ellipse_4140_-_Outline" class="st4" d="M4142,1534.1c2.6,0,5.1,0.9,7.1,2.6c1.9,1.5,3,3.8,3,6.3c0,2.4-1.1,4.7-3,6.3
				c-2,1.7-4.5,2.6-7.1,2.6c-2.6,0-5.1-0.9-7.1-2.6c-1.9-1.5-3-3.8-3-6.3c0-2.4,1.1-4.7,3-6.3
				C4136.9,1535,4139.4,1534.1,4142,1534.1z M4142,1550.7c5,0,9.1-3.5,9.1-7.8c0-4.3-4.1-7.8-9.1-7.8s-9.1,3.5-9.1,7.8
				C4132.9,1547.2,4137,1550.7,4142,1550.7z"/>
			<path id="Line_151" class="st5" d="M4213.5,1607.1h-5.1c-0.3,0-0.5-0.2-0.5-0.5s0.2-0.5,0.5-0.5h5.1c0.3,0,0.5,0.2,0.5,0.5
				S4213.7,1607.1,4213.5,1607.1z"/>
			<path id="Line_152" class="st5" d="M4203.3,1607.1h-30.2c-0.3,0-0.5-0.2-0.5-0.5s0.2-0.5,0.5-0.5h30.2c0.3,0,0.5,0.2,0.5,0.5
				S4203.6,1607.1,4203.3,1607.1z"/>
			<path id="Line_153" class="st5" d="M4167.8,1607.1h-22.5c-0.3,0-0.5-0.2-0.5-0.5s0.2-0.5,0.5-0.5h22.5c0.3,0,0.5,0.2,0.5,0.5
				S4168,1607.1,4167.8,1607.1z"/>
			<path id="Line_154" class="st5" d="M4139.4,1607.1H4126c-0.3,0-0.5-0.2-0.5-0.5s0.2-0.5,0.5-0.5h13.4c0.3,0,0.5,0.2,0.5,0.5
				S4139.7,1607.1,4139.4,1607.1z"/>
			<path id="Line_155" class="st5" d="M4213.5,1621.9h-9.9c-0.3,0-0.5-0.2-0.5-0.5s0.2-0.5,0.5-0.5h9.9c0.3,0,0.5,0.2,0.5,0.5
				S4213.7,1621.9,4213.5,1621.9z"/>
			<path id="Line_156" class="st5" d="M4200.7,1621.9h-31.3c-0.3,0-0.5-0.2-0.5-0.5s0.2-0.5,0.5-0.5h31.3c0.3,0,0.5,0.2,0.5,0.5
				S4201,1621.9,4200.7,1621.9z"/>
			<path id="Line_157" class="st5" d="M4166.2,1621.9H4126c-0.3,0-0.5-0.2-0.5-0.5s0.2-0.5,0.5-0.5h40.2c0.3,0,0.5,0.2,0.5,0.5
				S4166.5,1621.9,4166.2,1621.9z"/>
			<path id="Line_158" class="st5" d="M4213.5,1636.7h-57.6c-0.3,0-0.5-0.2-0.5-0.5s0.2-0.5,0.5-0.5h57.6c0.3,0,0.5,0.2,0.5,0.5
				S4213.7,1636.7,4213.5,1636.7z"/>
			<path id="Line_159" class="st5" d="M4151.3,1636.7H4126c-0.3,0-0.5-0.2-0.5-0.5s0.2-0.5,0.5-0.5h25.3c0.3,0,0.5,0.2,0.5,0.5
				S4151.6,1636.7,4151.3,1636.7z"/>
			<path id="Line_160" class="st5" d="M4213.5,1651.4h-9.1c-0.3,0-0.5-0.2-0.5-0.5s0.2-0.5,0.5-0.5h9.1c0.3,0,0.5,0.2,0.5,0.5
				S4213.7,1651.4,4213.5,1651.4z"/>
			<path id="Line_161" class="st5" d="M4200.4,1651.4h-57.1c-0.3,0-0.5-0.2-0.5-0.5s0.2-0.5,0.5-0.5h57.1c0.3,0,0.5,0.2,0.5,0.5
				S4200.7,1651.4,4200.4,1651.4z"/>
			<path id="Line_162" class="st5" d="M4139.7,1651.4H4126c-0.3,0-0.5-0.2-0.5-0.5s0.2-0.5,0.5-0.5h13.6c0.3,0,0.5,0.2,0.5,0.5
				S4139.9,1651.4,4139.7,1651.4z"/>
		</g>
		<g id="freepik--Image--inject-2-2">
			<rect id="Rectangle_5796" x="3943.2" y="1521.7" class="st5" width="86.2" height="152"/>
			<rect id="Rectangle_5797" x="3928.5" y="1515.5" class="st3" width="107.3" height="152"/>
			<path id="Rectangle_5797_-_Outline" class="st4" d="M3928.5,1515h107.4c0.3,0,0.5,0.2,0.5,0.5v152c0,0.3-0.2,0.5-0.5,0.5h-107.4
				c-0.3,0-0.5-0.2-0.5-0.5v-152C3928,1515.2,3928.2,1515,3928.5,1515z M4035.4,1516H3929v151h106.4V1516z"/>
			<rect id="Rectangle_5798" x="3937" y="1573" class="st1" width="90.3" height="20.7"/>
			<path id="Rectangle_5798_-_Outline" class="st4" d="M3937,1572.5h90.3c0.3,0,0.5,0.2,0.5,0.5v20.7c0,0.3-0.2,0.5-0.5,0.5H3937
				c-0.3,0-0.5-0.2-0.5-0.5V1573C3936.5,1572.7,3936.8,1572.5,3937,1572.5z M4026.8,1573.5h-89.3v19.7h89.3V1573.5z"/>
			<path id="Line_163" class="st5" d="M3944.3,1607.1h-5.1c-0.3,0-0.5-0.2-0.5-0.5s0.2-0.5,0.5-0.5h5.1c0.3,0,0.5,0.2,0.5,0.5
				S3944.5,1607.1,3944.3,1607.1z"/>
			<path id="Line_164" class="st5" d="M3979.6,1607.1h-30.2c-0.3,0-0.5-0.2-0.5-0.5s0.2-0.5,0.5-0.5h30.2c0.3,0,0.5,0.2,0.5,0.5
				S3979.8,1607.1,3979.6,1607.1z"/>
			<path id="Line_165" class="st5" d="M4007.4,1607.1h-22.5c-0.3,0-0.5-0.2-0.5-0.5s0.2-0.5,0.5-0.5h22.5c0.3,0,0.5,0.2,0.5,0.5
				S4007.7,1607.1,4007.4,1607.1z"/>
			<path id="Line_166" class="st5" d="M4026.6,1607.1h-13.4c-0.3,0-0.5-0.2-0.5-0.5s0.2-0.5,0.5-0.5h13.4c0.3,0,0.5,0.2,0.5,0.5
				S4026.9,1607.1,4026.6,1607.1z"/>
			<path id="Line_167" class="st5" d="M3949.1,1621.9h-9.9c-0.3,0-0.5-0.2-0.5-0.5s0.2-0.5,0.5-0.5h9.9c0.3,0,0.5,0.2,0.5,0.5
				S3949.3,1621.9,3949.1,1621.9z"/>
			<path id="Line_168" class="st5" d="M3983.3,1621.9H3952c-0.3,0-0.5-0.2-0.5-0.5s0.2-0.5,0.5-0.5h31.3c0.3,0,0.5,0.2,0.5,0.5
				S3983.6,1621.9,3983.3,1621.9z"/>
			<path id="Line_169" class="st5" d="M4026.6,1621.9h-40.2c-0.3,0-0.5-0.2-0.5-0.5s0.2-0.5,0.5-0.5h40.2c0.3,0,0.5,0.2,0.5,0.5
				S4026.9,1621.9,4026.6,1621.9z"/>
			<path id="Line_170" class="st5" d="M3996.8,1636.7h-57.6c-0.3,0-0.5-0.2-0.5-0.5s0.2-0.5,0.5-0.5h57.6c0.3,0,0.5,0.2,0.5,0.5
				S3997.1,1636.7,3996.8,1636.7z"/>
			<path id="Line_171" class="st5" d="M4026.6,1636.7h-25.3c-0.3,0-0.5-0.2-0.5-0.5s0.2-0.5,0.5-0.5h25.3c0.3,0,0.5,0.2,0.5,0.5
				S4026.9,1636.7,4026.6,1636.7z"/>
			<path id="Line_172" class="st5" d="M3948.3,1651.4h-9.1c-0.3,0-0.5-0.2-0.5-0.5s0.2-0.5,0.5-0.5h9.1c0.3,0,0.5,0.2,0.5,0.5
				S3948.5,1651.4,3948.3,1651.4z"/>
			<path id="Line_173" class="st5" d="M4009.3,1651.4h-57.1c-0.3,0-0.5-0.2-0.5-0.5s0.2-0.5,0.5-0.5h57.1c0.3,0,0.5,0.2,0.5,0.5
				S4009.6,1651.4,4009.3,1651.4z"/>
			<path id="Line_174" class="st5" d="M3949.1,1528.9h-9.9c-0.3,0-0.5-0.2-0.5-0.5s0.2-0.5,0.5-0.5h9.9c0.3,0,0.5,0.2,0.5,0.5
				S3949.3,1528.9,3949.1,1528.9z"/>
			<path id="Line_175" class="st5" d="M3983.3,1528.9H3952c-0.3,0-0.5-0.2-0.5-0.5s0.2-0.5,0.5-0.5h31.3c0.3,0,0.5,0.2,0.5,0.5
				S3983.6,1528.9,3983.3,1528.9z"/>
			<path id="Line_176" class="st5" d="M4026.6,1528.9h-40.2c-0.3,0-0.5-0.2-0.5-0.5s0.2-0.5,0.5-0.5h40.2c0.3,0,0.5,0.2,0.5,0.5
				S4026.9,1528.9,4026.6,1528.9z"/>
			<path id="Line_177" class="st5" d="M3996.8,1543.7h-57.6c-0.3,0-0.5-0.2-0.5-0.5s0.2-0.5,0.5-0.5h57.6c0.3,0,0.5,0.2,0.5,0.5
				S3997.1,1543.7,3996.8,1543.7z"/>
			<path id="Line_178" class="st5" d="M4026.6,1543.7h-25.3c-0.3,0-0.5-0.2-0.5-0.5s0.2-0.5,0.5-0.5h25.3c0.3,0,0.5,0.2,0.5,0.5
				S4026.9,1543.7,4026.6,1543.7z"/>
			<path id="Line_179" class="st5" d="M3948.3,1558.4h-9.1c-0.3,0-0.5-0.2-0.5-0.5s0.2-0.5,0.5-0.5h9.1c0.3,0,0.5,0.2,0.5,0.5
				S3948.5,1558.4,3948.3,1558.4z"/>
			<path id="Line_180" class="st5" d="M4009.3,1558.4h-57.1c-0.3,0-0.5-0.2-0.5-0.5s0.2-0.5,0.5-0.5h57.1c0.3,0,0.5,0.2,0.5,0.5
				S4009.6,1558.4,4009.3,1558.4z"/>
		</g>
		<g id="freepik--Documents--inject-2">
			<path id="Path_101641" class="st5" d="M4260.5,1771.6v72.2h-56.8v-13.4h-24.4v-79.9h34.8l8.1,7.7v5.6h30.2L4260.5,1771.6z"/>
			<path id="Path_101642" class="st3" d="M4218.6,1824.3h-56.8v-79.9h48.7l8.1,7.7L4218.6,1824.3z"/>
			<path id="Path_101642_-_Outline" class="st4" d="M4218.6,1824.8h-56.8c-0.3,0-0.5-0.2-0.5-0.5v-79.9c0-0.3,0.2-0.5,0.5-0.5h48.7
				c0.1,0,0.3,0,0.3,0.1l8.1,7.7c0.1,0.1,0.2,0.2,0.2,0.4v72.2C4219.1,1824.6,4218.9,1824.8,4218.6,1824.8
				C4218.6,1824.8,4218.6,1824.8,4218.6,1824.8z M4162.4,1823.8h55.8v-71.5l-7.8-7.5h-48L4162.4,1823.8z"/>
			<path id="Path_101643" class="st3" d="M4210.5,1744.4v8h8.1L4210.5,1744.4z"/>
			<path id="Path_101643_-_Outline" class="st4" d="M4210.5,1743.9c0.1,0,0.3,0.1,0.4,0.1l8.1,8c0.2,0.2,0.2,0.5,0,0.7
				c-0.1,0.1-0.2,0.1-0.4,0.1h-8.1c-0.3,0-0.5-0.2-0.5-0.5v-8C4210,1744.1,4210.3,1743.9,4210.5,1743.9z M4217.4,1751.9l-6.4-6.3
				v6.3H4217.4z"/>
			<path id="Line_181" class="st5" d="M4208.7,1762.4h-26.8c-0.3,0-0.5-0.2-0.5-0.5s0.2-0.5,0.5-0.5h26.8c0.3,0,0.5,0.2,0.5,0.5
				S4209,1762.4,4208.7,1762.4z"/>
			<path id="Line_182" class="st5" d="M4179,1762.4h-7c-0.3,0-0.5-0.2-0.5-0.5s0.2-0.5,0.5-0.5h7c0.3,0,0.5,0.2,0.5,0.5
				S4179.2,1762.4,4179,1762.4z"/>
			<path id="Line_183" class="st5" d="M4208.7,1773.4h-13.2c-0.3,0-0.5-0.2-0.5-0.5s0.2-0.5,0.5-0.5h13.2c0.3,0,0.5,0.2,0.5,0.5
				S4209,1773.4,4208.7,1773.4z"/>
			<path id="Line_184" class="st5" d="M4192.7,1773.4H4172c-0.3,0-0.5-0.2-0.5-0.5s0.2-0.5,0.5-0.5h20.7c0.3,0,0.5,0.2,0.5,0.5
				S4193,1773.4,4192.7,1773.4z"/>
			<path id="Line_185" class="st5" d="M4208.7,1784.5h-23.4c-0.3,0-0.5-0.2-0.5-0.5s0.2-0.5,0.5-0.5h23.4c0.3,0,0.5,0.2,0.5,0.5
				S4209,1784.5,4208.7,1784.5z"/>
			<path id="Line_186" class="st5" d="M4183.2,1784.5H4172c-0.3,0-0.5-0.2-0.5-0.5s0.2-0.5,0.5-0.5h11.2c0.3,0,0.5,0.2,0.5,0.5
				S4183.5,1784.5,4183.2,1784.5z"/>
			<path id="Line_187" class="st5" d="M4208.7,1795.5H4172c-0.3,0-0.5-0.2-0.5-0.5s0.2-0.5,0.5-0.5h36.7c0.3,0,0.5,0.2,0.5,0.5
				S4209,1795.5,4208.7,1795.5z"/>
			<path id="Line_188" class="st5" d="M4208.7,1806.6h-13.7c-0.3,0-0.5-0.2-0.5-0.5s0.2-0.5,0.5-0.5h13.7c0.3,0,0.5,0.2,0.5,0.5
				S4209,1806.6,4208.7,1806.6z"/>
			<path id="Line_189" class="st5" d="M4191.3,1806.6H4172c-0.3,0-0.5-0.2-0.5-0.5s0.2-0.5,0.5-0.5h19.3c0.3,0,0.5,0.2,0.5,0.5
				S4191.5,1806.6,4191.3,1806.6z"/>
			<path id="Path_101644" class="st3" d="M4256.9,1837.7h-56.8v-79.9h48.7l8.1,7.7L4256.9,1837.7z"/>
			<path id="Path_101644_-_Outline" class="st4" d="M4256.9,1838.2h-56.8c-0.3,0-0.5-0.2-0.5-0.5v-79.9c0-0.3,0.2-0.5,0.5-0.5h48.7
				c0.1,0,0.3,0,0.3,0.1l8.1,7.7c0.1,0.1,0.2,0.2,0.2,0.4v72.2C4257.4,1837.9,4257.2,1838.2,4256.9,1838.2z M4200.6,1837.2h55.8
				v-71.5l-7.8-7.5h-48V1837.2z"/>
			<path id="Path_101645" class="st3" d="M4248.8,1757.7v8h8.1L4248.8,1757.7z"/>
			<path id="Path_101645_-_Outline" class="st4" d="M4248.8,1757.2c0.1,0,0.3,0.1,0.4,0.1l8.1,8c0.2,0.2,0.2,0.5,0,0.7
				c-0.1,0.1-0.2,0.1-0.4,0.1h-8.1c-0.3,0-0.5-0.2-0.5-0.5v-8C4248.3,1757.5,4248.5,1757.2,4248.8,1757.2z M4255.7,1765.2l-6.4-6.3
				v6.3H4255.7z"/>
			<path id="Line_190" class="st5" d="M4247,1775.7h-20.8c-0.3,0-0.5-0.2-0.5-0.5s0.2-0.5,0.5-0.5h20.8c0.3,0,0.5,0.2,0.5,0.5
				S4247.3,1775.7,4247,1775.7C4247,1775.7,4247,1775.7,4247,1775.7z"/>
			<path id="Line_191" class="st5" d="M4223.6,1775.7h-13.4c-0.3,0-0.5-0.2-0.5-0.5s0.2-0.5,0.5-0.5h13.4c0.3,0,0.5,0.2,0.5,0.5
				S4223.9,1775.7,4223.6,1775.7z"/>
			<path id="Line_192" class="st5" d="M4247,1786.8h-6.2c-0.3,0-0.5-0.2-0.5-0.5s0.2-0.5,0.5-0.5h6.2c0.3,0,0.5,0.2,0.5,0.5
				S4247.3,1786.8,4247,1786.8z"/>
			<path id="Line_193" class="st5" d="M4238.5,1786.8h-28.2c-0.3,0-0.5-0.2-0.5-0.5s0.2-0.5,0.5-0.5h28.2c0.3,0,0.5,0.2,0.5,0.5
				S4238.8,1786.8,4238.5,1786.8z"/>
			<path id="Line_194" class="st5" d="M4247,1797.8h-4.3c-0.3,0-0.5-0.2-0.5-0.5s0.2-0.5,0.5-0.5h4.3c0.3,0,0.5,0.2,0.5,0.5
				S4247.3,1797.8,4247,1797.8z"/>
			<path id="Line_195" class="st5" d="M4240,1797.8h-21c-0.3,0-0.5-0.2-0.5-0.5s0.2-0.5,0.5-0.5h21c0.3,0,0.5,0.2,0.5,0.5
				S4240.2,1797.8,4240,1797.8z"/>
			<path id="Line_196" class="st5" d="M4215.4,1797.8h-5.1c-0.3,0-0.5-0.2-0.5-0.5s0.2-0.5,0.5-0.5h5.1c0.3,0,0.5,0.2,0.5,0.5
				S4215.7,1797.8,4215.4,1797.8z"/>
			<path id="Line_197" class="st5" d="M4247,1808.9h-17.6c-0.3,0-0.5-0.2-0.5-0.5s0.2-0.5,0.5-0.5h17.6c0.3,0,0.5,0.2,0.5,0.5
				S4247.3,1808.9,4247,1808.9z"/>
			<path id="Line_198" class="st5" d="M4226.6,1808.9h-16.3c-0.3,0-0.5-0.2-0.5-0.5s0.2-0.5,0.5-0.5h16.3c0.3,0,0.5,0.2,0.5,0.5
				S4226.9,1808.9,4226.6,1808.9z"/>
			<path id="Line_199" class="st5" d="M4247,1819.9h-18.5c-0.3,0-0.5-0.2-0.5-0.5s0.2-0.5,0.5-0.5h18.5c0.3,0,0.5,0.2,0.5,0.5
				S4247.3,1819.9,4247,1819.9z"/>
			<path id="Line_200" class="st5" d="M4225.6,1819.9h-15.3c-0.3,0-0.5-0.2-0.5-0.5s0.2-0.5,0.5-0.5h15.3c0.3,0,0.5,0.2,0.5,0.5
				S4225.8,1819.9,4225.6,1819.9z"/>
		</g>
	</g>
</g>
</svg>
