<svg xmlns="http://www.w3.org/2000/svg" width="401" height="544" viewBox="0 0 401 544">
  <g id="t3-i1" transform="translate(-3800.5 -1466)">
    <rect id="Rectángulo_5605" data-name="Rectángulo 5605" width="400" height="544" transform="translate(3801 1466)" fill="none"/>
    <g id="Group_54372" data-name="Group 54372">
      <g id="freepik--background-simple--inject-2">
        <path id="Path_101603" data-name="Path 101603" d="M4179.731,1709.424q-.451-1.192-.869-2.414c-10.138-31.08.243-63.26,2.608-94.736,7.608-101.215-92.58-153.106-165.762-137.52-20.164,4.4-39.129,14.418-55.289,29.215-15.268,14.088-27.9,32.19-45.734,42.2-40.36,22.645-96.928,24.2-102.8,89.052-3.2,35.4,17.711,65.857,14.32,100.593-3.922,40.187-28.449,75.259-24.85,117.31,3.339,38.964,32.588,73.181,62.08,87.442a114.871,114.871,0,0,0,69.844,9.4c24.127-4.238,43.473-19.07,63.47-34.635,21.528-16.839,41.595-27.443,67.418-30.02,18.259-1.824,36.709-1.426,55.02-3.056,23.988-2.149,50.429-9.789,65.557-33.545,18.137-28.4,20.05-73.649,10.886-106.583C4192.234,1729.909,4184.114,1720.792,4179.731,1709.424Z" fill="#80ed99"/>
        <path id="Path_101604" data-name="Path 101604" d="M4179.731,1709.424q-.451-1.192-.869-2.414c-10.138-31.08.243-63.26,2.608-94.736,7.608-101.215-92.58-153.106-165.762-137.52-20.164,4.4-39.129,14.418-55.289,29.215-15.268,14.088-27.9,32.19-45.734,42.2-40.36,22.645-96.928,24.2-102.8,89.052-3.2,35.4,17.711,65.857,14.32,100.593-3.922,40.187-28.449,75.259-24.85,117.31,3.339,38.964,32.588,73.181,62.08,87.442a114.871,114.871,0,0,0,69.844,9.4c24.127-4.238,43.473-19.07,63.47-34.635,21.528-16.839,41.595-27.443,67.418-30.02,18.259-1.824,36.709-1.426,55.02-3.056,23.988-2.149,50.429-9.789,65.557-33.545,18.137-28.4,20.05-73.649,10.886-106.583C4192.234,1729.909,4184.114,1720.792,4179.731,1709.424Z" fill="#fff" opacity="0.7" style="isolation: isolate"/>
      </g>
      <g id="freepik--Window--inject-2">
        <rect id="Rectangle_5780" data-name="Rectangle 5780" width="266.682" height="185.513" transform="translate(3871.243 1497.513)" fill="#fff"/>
        <path id="Rectangle_5780_-_Outline" data-name="Rectangle 5780 - Outline" d="M0-.5H266.682a.5.5,0,0,1,.5.5V185.513a.5.5,0,0,1-.5.5H0a.5.5,0,0,1-.5-.5V0A.5.5,0,0,1,0-.5ZM266.182.5H.5V185.013H266.182Z" transform="translate(3871.243 1497.513)" fill="#263238"/>
        <rect id="Rectangle_5781" data-name="Rectangle 5781" width="266.67" height="11.39" transform="translate(3871.243 1497.513)" fill="#80ed99"/>
        <path id="Rectangle_5781_-_Outline" data-name="Rectangle 5781 - Outline" d="M0-.5H266.67a.5.5,0,0,1,.5.5V11.39a.5.5,0,0,1-.5.5H0a.5.5,0,0,1-.5-.5V0A.5.5,0,0,1,0-.5ZM266.17.5H.5V10.89H266.17Z" transform="translate(3871.243 1497.513)" fill="#263238"/>
        <path id="Path_101605" data-name="Path 101605" d="M4108.765,1502.843a2.887,2.887,0,1,0-2.882,2.73,2.809,2.809,0,0,0,2.882-2.73Z" fill="#fff"/>
        <path id="Path_101605_-_Outline" data-name="Path 101605 - Outline" d="M4105.883,1499.613a3.233,3.233,0,1,1-3.383,3.23A3.312,3.312,0,0,1,4105.883,1499.613Zm0,5.46a2.235,2.235,0,1,0-2.383-2.23A2.313,2.313,0,0,0,4105.883,1505.073Z" fill="#263238"/>
        <path id="Path_101606" data-name="Path 101606" d="M4118.786,1502.843a2.887,2.887,0,1,0-2.883,2.73,2.81,2.81,0,0,0,2.883-2.73Z" fill="#fff"/>
        <path id="Path_101606_-_Outline" data-name="Path 101606 - Outline" d="M4115.9,1499.613a3.233,3.233,0,1,1-3.382,3.23A3.313,3.313,0,0,1,4115.9,1499.613Zm0,5.46a2.235,2.235,0,1,0-2.382-2.23A2.313,2.313,0,0,0,4115.9,1505.073Z" fill="#263238"/>
        <ellipse id="Ellipse_4137" data-name="Ellipse 4137" cx="2.883" cy="2.73" rx="2.883" ry="2.73" transform="translate(4122.999 1500.113)" fill="#fff"/>
        <path id="Ellipse_4137_-_Outline" data-name="Ellipse 4137 - Outline" d="M2.883-.5A3.313,3.313,0,0,1,6.265,2.73,3.313,3.313,0,0,1,2.883,5.96,3.313,3.313,0,0,1-.5,2.73,3.313,3.313,0,0,1,2.883-.5Zm0,5.46A2.313,2.313,0,0,0,5.265,2.73,2.313,2.313,0,0,0,2.883.5,2.313,2.313,0,0,0,.5,2.73,2.313,2.313,0,0,0,2.883,4.96Z" transform="translate(4122.999 1500.113)" fill="#263238"/>
        <path id="Rectangle_5782" data-name="Rectangle 5782" d="M0-.5H3a.5.5,0,0,1,.5.5A.5.5,0,0,1,3,.5H.5V1.714a.5.5,0,0,1-.5.5.5.5,0,0,1-.5-.5V0A.5.5,0,0,1,0-.5Zm6,0H9a.5.5,0,0,1,.5.5A.5.5,0,0,1,9,.5H6A.5.5,0,0,1,5.5,0,.5.5,0,0,1,6-.5Zm6,0h3a.5.5,0,0,1,.5.5.5.5,0,0,1-.5.5H12a.5.5,0,0,1-.5-.5A.5.5,0,0,1,12-.5Zm6,0h3a.5.5,0,0,1,.5.5.5.5,0,0,1-.5.5H18a.5.5,0,0,1-.5-.5A.5.5,0,0,1,18-.5Zm6,0h3a.5.5,0,0,1,.5.5.5.5,0,0,1-.5.5H24a.5.5,0,0,1-.5-.5A.5.5,0,0,1,24-.5Zm6,0h3a.5.5,0,0,1,.5.5.5.5,0,0,1-.5.5H30a.5.5,0,0,1-.5-.5A.5.5,0,0,1,30-.5Zm6,0h3a.5.5,0,0,1,.5.5.5.5,0,0,1-.5.5H36a.5.5,0,0,1-.5-.5A.5.5,0,0,1,36-.5Zm6,0h3a.5.5,0,0,1,.5.5.5.5,0,0,1-.5.5H42a.5.5,0,0,1-.5-.5A.5.5,0,0,1,42-.5Zm6,0h3a.5.5,0,0,1,.5.5.5.5,0,0,1-.5.5H48a.5.5,0,0,1-.5-.5A.5.5,0,0,1,48-.5Zm6,0h3a.5.5,0,0,1,.5.5.5.5,0,0,1-.5.5H54a.5.5,0,0,1-.5-.5A.5.5,0,0,1,54-.5Zm6,0h3a.5.5,0,0,1,.5.5.5.5,0,0,1-.5.5H60a.5.5,0,0,1-.5-.5A.5.5,0,0,1,60-.5Zm6,0h3a.5.5,0,0,1,.5.5.5.5,0,0,1-.5.5H66a.5.5,0,0,1-.5-.5A.5.5,0,0,1,66-.5Zm6,0h3a.5.5,0,0,1,.5.5.5.5,0,0,1-.5.5H72a.5.5,0,0,1-.5-.5A.5.5,0,0,1,72-.5Zm6,0h3a.5.5,0,0,1,.5.5.5.5,0,0,1-.5.5H78a.5.5,0,0,1-.5-.5A.5.5,0,0,1,78-.5Zm6,0h3a.5.5,0,0,1,.5.5.5.5,0,0,1-.5.5H84a.5.5,0,0,1-.5-.5A.5.5,0,0,1,84-.5Zm6,0h3a.5.5,0,0,1,.5.5.5.5,0,0,1-.5.5H90a.5.5,0,0,1-.5-.5A.5.5,0,0,1,90-.5Zm6,0h3a.5.5,0,0,1,.5.5.5.5,0,0,1-.5.5H96a.5.5,0,0,1-.5-.5A.5.5,0,0,1,96-.5Zm6,0h3a.5.5,0,0,1,.5.5.5.5,0,0,1-.5.5h-3a.5.5,0,0,1-.5-.5A.5.5,0,0,1,102-.5Zm5.35.65a.5.5,0,0,1,.5.5v3a.5.5,0,0,1-1,0v-3A.5.5,0,0,1,107.35.15ZM0,4.214a.5.5,0,0,1,.5.5v3a.5.5,0,0,1-.5.5.5.5,0,0,1-.5-.5v-3A.5.5,0,0,1,0,4.214ZM107.35,6.15a.5.5,0,0,1,.5.5v3a.5.5,0,0,1-1,0v-3A.5.5,0,0,1,107.35,6.15ZM0,10.214a.5.5,0,0,1,.5.5v3a.5.5,0,0,1-.5.5.5.5,0,0,1-.5-.5v-3A.5.5,0,0,1,0,10.214ZM107.35,12.15a.5.5,0,0,1,.5.5v3a.5.5,0,1,1-1,0v-3A.5.5,0,0,1,107.35,12.15ZM0,16.214a.5.5,0,0,1,.5.5v3a.5.5,0,0,1-.5.5.5.5,0,0,1-.5-.5v-3A.5.5,0,0,1,0,16.214ZM107.35,18.15a.5.5,0,0,1,.5.5v3a.5.5,0,0,1-1,0v-3A.5.5,0,0,1,107.35,18.15ZM0,22.214a.5.5,0,0,1,.5.5v3a.5.5,0,0,1-.5.5.5.5,0,0,1-.5-.5v-3A.5.5,0,0,1,0,22.214ZM107.35,24.15a.5.5,0,0,1,.5.5v3a.5.5,0,1,1-1,0v-3A.5.5,0,0,1,107.35,24.15ZM0,28.214a.5.5,0,0,1,.5.5v3a.5.5,0,0,1-.5.5.5.5,0,0,1-.5-.5v-3A.5.5,0,0,1,0,28.214ZM107.35,30.15a.5.5,0,0,1,.5.5v3a.5.5,0,1,1-1,0v-3A.5.5,0,0,1,107.35,30.15ZM0,34.214a.5.5,0,0,1,.5.5v3a.5.5,0,0,1-.5.5.5.5,0,0,1-.5-.5v-3A.5.5,0,0,1,0,34.214ZM107.35,36.15a.5.5,0,0,1,.5.5v3a.5.5,0,1,1-1,0v-3A.5.5,0,0,1,107.35,36.15ZM0,40.214a.5.5,0,0,1,.5.5v3a.5.5,0,0,1-.5.5.5.5,0,0,1-.5-.5v-3A.5.5,0,0,1,0,40.214ZM107.35,42.15a.5.5,0,0,1,.5.5v3a.5.5,0,1,1-1,0v-3A.5.5,0,0,1,107.35,42.15ZM0,46.214a.5.5,0,0,1,.5.5v3a.5.5,0,0,1-.5.5.5.5,0,0,1-.5-.5v-3A.5.5,0,0,1,0,46.214ZM107.35,48.15a.5.5,0,0,1,.5.5v3a.5.5,0,1,1-1,0v-3A.5.5,0,0,1,107.35,48.15ZM0,52.214a.5.5,0,0,1,.5.5v3a.5.5,0,0,1-.5.5.5.5,0,0,1-.5-.5v-3A.5.5,0,0,1,0,52.214ZM107.35,54.15a.5.5,0,0,1,.5.5v3a.5.5,0,1,1-1,0v-3A.5.5,0,0,1,107.35,54.15ZM0,58.214a.5.5,0,0,1,.5.5v3a.5.5,0,0,1-.5.5.5.5,0,0,1-.5-.5v-3A.5.5,0,0,1,0,58.214ZM107.35,60.15a.5.5,0,0,1,.5.5v3a.5.5,0,0,1-1,0v-3A.5.5,0,0,1,107.35,60.15ZM0,64.214a.5.5,0,0,1,.5.5v3a.5.5,0,0,1-.5.5.5.5,0,0,1-.5-.5v-3A.5.5,0,0,1,0,64.214ZM107.35,66.15a.5.5,0,0,1,.5.5v3a.5.5,0,0,1-1,0v-3A.5.5,0,0,1,107.35,66.15ZM0,70.214a.5.5,0,0,1,.5.5v3a.5.5,0,0,1-.5.5.5.5,0,0,1-.5-.5v-3A.5.5,0,0,1,0,70.214ZM107.35,72.15a.5.5,0,0,1,.5.5v3a.5.5,0,0,1-1,0v-3A.5.5,0,0,1,107.35,72.15ZM0,76.214a.5.5,0,0,1,.5.5v3a.5.5,0,0,1-.5.5.5.5,0,0,1-.5-.5v-3A.5.5,0,0,1,0,76.214ZM107.35,78.15a.5.5,0,0,1,.5.5v3a.5.5,0,0,1-1,0v-3A.5.5,0,0,1,107.35,78.15ZM0,82.214a.5.5,0,0,1,.5.5v3a.5.5,0,0,1-.5.5.5.5,0,0,1-.5-.5v-3A.5.5,0,0,1,0,82.214ZM107.35,84.15a.5.5,0,0,1,.5.5v3a.5.5,0,0,1-1,0v-3A.5.5,0,0,1,107.35,84.15ZM0,88.214a.5.5,0,0,1,.5.5v3a.5.5,0,0,1-.5.5.5.5,0,0,1-.5-.5v-3A.5.5,0,0,1,0,88.214ZM107.35,90.15a.5.5,0,0,1,.5.5v3a.5.5,0,0,1-1,0v-3A.5.5,0,0,1,107.35,90.15ZM0,94.214a.5.5,0,0,1,.5.5v3a.5.5,0,0,1-.5.5.5.5,0,0,1-.5-.5v-3A.5.5,0,0,1,0,94.214ZM107.35,96.15a.5.5,0,0,1,.5.5v3a.5.5,0,1,1-1,0v-3A.5.5,0,0,1,107.35,96.15ZM0,100.214a.5.5,0,0,1,.5.5v3a.5.5,0,0,1-.5.5.5.5,0,0,1-.5-.5v-3A.5.5,0,0,1,0,100.214Zm107.35,1.936a.5.5,0,0,1,.5.5v3a.5.5,0,0,1-1,0v-3A.5.5,0,0,1,107.35,102.15ZM0,106.214a.5.5,0,0,1,.5.5v3a.5.5,0,0,1-.5.5.5.5,0,0,1-.5-.5v-3A.5.5,0,0,1,0,106.214Zm107.35,1.936a.5.5,0,0,1,.5.5v3a.5.5,0,0,1-1,0v-3A.5.5,0,0,1,107.35,108.15ZM0,112.214a.5.5,0,0,1,.5.5v3a.5.5,0,0,1-.5.5.5.5,0,0,1-.5-.5v-3A.5.5,0,0,1,0,112.214Zm107.35,1.936a.5.5,0,0,1,.5.5v3a.5.5,0,0,1-1,0v-3A.5.5,0,0,1,107.35,114.15ZM0,118.214a.5.5,0,0,1,.5.5v3a.5.5,0,0,1-.5.5.5.5,0,0,1-.5-.5v-3A.5.5,0,0,1,0,118.214Zm107.35,1.936a.5.5,0,0,1,.5.5v3a.5.5,0,0,1-1,0v-3A.5.5,0,0,1,107.35,120.15ZM0,124.214a.5.5,0,0,1,.5.5v3a.5.5,0,0,1-.5.5.5.5,0,0,1-.5-.5v-3A.5.5,0,0,1,0,124.214Zm107.35,1.936a.5.5,0,0,1,.5.5v3a.5.5,0,0,1-1,0v-3A.5.5,0,0,1,107.35,126.15ZM0,130.214a.5.5,0,0,1,.5.5v3a.5.5,0,0,1-.5.5.5.5,0,0,1-.5-.5v-3A.5.5,0,0,1,0,130.214Zm107.35,1.936a.5.5,0,0,1,.5.5v3a.5.5,0,0,1-1,0v-3A.5.5,0,0,1,107.35,132.15ZM0,136.214a.5.5,0,0,1,.5.5v3a.5.5,0,0,1-.5.5.5.5,0,0,1-.5-.5v-3A.5.5,0,0,1,0,136.214Zm107.35,1.936a.5.5,0,0,1,.5.5v3a.5.5,0,0,1-1,0v-3A.5.5,0,0,1,107.35,138.15ZM0,142.214a.5.5,0,0,1,.5.5v3a.5.5,0,0,1-.5.5.5.5,0,0,1-.5-.5v-3A.5.5,0,0,1,0,142.214Zm107.35,1.936a.5.5,0,0,1,.5.5v3a.5.5,0,0,1-1,0v-3A.5.5,0,0,1,107.35,144.15ZM0,148.214a.5.5,0,0,1,.5.5v3a.5.5,0,0,1-.5.5.5.5,0,0,1-.5-.5v-3A.5.5,0,0,1,0,148.214Zm107.35,1.936a.5.5,0,0,1,.5.5v3a.5.5,0,0,1-1,0v-3A.5.5,0,0,1,107.35,150.15ZM.207,154.007h3a.5.5,0,0,1,0,1h-3a.5.5,0,0,1,0-1Zm6,0h3a.5.5,0,0,1,0,1h-3a.5.5,0,0,1,0-1Zm6,0h3a.5.5,0,0,1,0,1h-3a.5.5,0,0,1,0-1Zm6,0h3a.5.5,0,0,1,0,1h-3a.5.5,0,0,1,0-1Zm6,0h3a.5.5,0,0,1,0,1h-3a.5.5,0,0,1,0-1Zm6,0h3a.5.5,0,0,1,0,1h-3a.5.5,0,0,1,0-1Zm6,0h3a.5.5,0,0,1,0,1h-3a.5.5,0,0,1,0-1Zm6,0h3a.5.5,0,0,1,0,1h-3a.5.5,0,0,1,0-1Zm6,0h3a.5.5,0,0,1,0,1h-3a.5.5,0,0,1,0-1Zm6,0h3a.5.5,0,0,1,0,1h-3a.5.5,0,0,1,0-1Zm6,0h3a.5.5,0,0,1,0,1h-3a.5.5,0,0,1,0-1Zm6,0h3a.5.5,0,0,1,0,1h-3a.5.5,0,0,1,0-1Zm6,0h3a.5.5,0,0,1,0,1h-3a.5.5,0,0,1,0-1Zm6,0h3a.5.5,0,0,1,0,1h-3a.5.5,0,0,1,0-1Zm6,0h3a.5.5,0,0,1,0,1h-3a.5.5,0,0,1,0-1Zm6,0h3a.5.5,0,0,1,0,1h-3a.5.5,0,0,1,0-1Zm6,0h3a.5.5,0,0,1,0,1h-3a.5.5,0,0,1,0-1Zm6,0h3a.5.5,0,0,1,0,1h-3a.5.5,0,0,1,0-1Z" transform="translate(4014.715 1522.025)" fill="#143145"/>
        <path id="Rectangle_5783" data-name="Rectangle 5783" d="M0-.5H3a.5.5,0,0,1,.5.5A.5.5,0,0,1,3,.5H.5V1.714a.5.5,0,0,1-.5.5.5.5,0,0,1-.5-.5V0A.5.5,0,0,1,0-.5Zm6,0H9a.5.5,0,0,1,.5.5A.5.5,0,0,1,9,.5H6A.5.5,0,0,1,5.5,0,.5.5,0,0,1,6-.5Zm6,0h3a.5.5,0,0,1,.5.5.5.5,0,0,1-.5.5H12a.5.5,0,0,1-.5-.5A.5.5,0,0,1,12-.5Zm6,0h3a.5.5,0,0,1,.5.5.5.5,0,0,1-.5.5H18a.5.5,0,0,1-.5-.5A.5.5,0,0,1,18-.5Zm6,0h3a.5.5,0,0,1,.5.5.5.5,0,0,1-.5.5H24a.5.5,0,0,1-.5-.5A.5.5,0,0,1,24-.5Zm6,0h3a.5.5,0,0,1,.5.5.5.5,0,0,1-.5.5H30a.5.5,0,0,1-.5-.5A.5.5,0,0,1,30-.5Zm6,0h3a.5.5,0,0,1,.5.5.5.5,0,0,1-.5.5H36a.5.5,0,0,1-.5-.5A.5.5,0,0,1,36-.5Zm6,0h3a.5.5,0,0,1,.5.5.5.5,0,0,1-.5.5H42a.5.5,0,0,1-.5-.5A.5.5,0,0,1,42-.5Zm6,0h3a.5.5,0,0,1,.5.5.5.5,0,0,1-.5.5H48a.5.5,0,0,1-.5-.5A.5.5,0,0,1,48-.5Zm6,0h3a.5.5,0,0,1,.5.5.5.5,0,0,1-.5.5H54a.5.5,0,0,1-.5-.5A.5.5,0,0,1,54-.5Zm6,0h3a.5.5,0,0,1,.5.5.5.5,0,0,1-.5.5H60a.5.5,0,0,1-.5-.5A.5.5,0,0,1,60-.5Zm6,0h3a.5.5,0,0,1,.5.5.5.5,0,0,1-.5.5H66a.5.5,0,0,1-.5-.5A.5.5,0,0,1,66-.5Zm6,0h3a.5.5,0,0,1,.5.5.5.5,0,0,1-.5.5H72a.5.5,0,0,1-.5-.5A.5.5,0,0,1,72-.5Zm6,0h3a.5.5,0,0,1,.5.5.5.5,0,0,1-.5.5H78a.5.5,0,0,1-.5-.5A.5.5,0,0,1,78-.5Zm6,0h3a.5.5,0,0,1,.5.5.5.5,0,0,1-.5.5H84a.5.5,0,0,1-.5-.5A.5.5,0,0,1,84-.5Zm6,0h3a.5.5,0,0,1,.5.5.5.5,0,0,1-.5.5H90a.5.5,0,0,1-.5-.5A.5.5,0,0,1,90-.5Zm6,0h3a.5.5,0,0,1,.5.5.5.5,0,0,1-.5.5H96a.5.5,0,0,1-.5-.5A.5.5,0,0,1,96-.5Zm6,0h3a.5.5,0,0,1,.5.5.5.5,0,0,1-.5.5h-3a.5.5,0,0,1-.5-.5A.5.5,0,0,1,102-.5Zm5.35.65a.5.5,0,0,1,.5.5v3a.5.5,0,0,1-1,0v-3A.5.5,0,0,1,107.35.15ZM0,4.214a.5.5,0,0,1,.5.5v3a.5.5,0,0,1-.5.5.5.5,0,0,1-.5-.5v-3A.5.5,0,0,1,0,4.214ZM107.35,6.15a.5.5,0,0,1,.5.5v3a.5.5,0,0,1-1,0v-3A.5.5,0,0,1,107.35,6.15ZM0,10.214a.5.5,0,0,1,.5.5v3a.5.5,0,0,1-.5.5.5.5,0,0,1-.5-.5v-3A.5.5,0,0,1,0,10.214ZM107.35,12.15a.5.5,0,0,1,.5.5v3a.5.5,0,1,1-1,0v-3A.5.5,0,0,1,107.35,12.15ZM0,16.214a.5.5,0,0,1,.5.5v3a.5.5,0,0,1-.5.5.5.5,0,0,1-.5-.5v-3A.5.5,0,0,1,0,16.214ZM107.35,18.15a.5.5,0,0,1,.5.5v3a.5.5,0,0,1-1,0v-3A.5.5,0,0,1,107.35,18.15ZM0,22.214a.5.5,0,0,1,.5.5v3a.5.5,0,0,1-.5.5.5.5,0,0,1-.5-.5v-3A.5.5,0,0,1,0,22.214ZM107.35,24.15a.5.5,0,0,1,.5.5v3a.5.5,0,1,1-1,0v-3A.5.5,0,0,1,107.35,24.15ZM0,28.214a.5.5,0,0,1,.5.5v3a.5.5,0,0,1-.5.5.5.5,0,0,1-.5-.5v-3A.5.5,0,0,1,0,28.214ZM107.35,30.15a.5.5,0,0,1,.5.5v3a.5.5,0,1,1-1,0v-3A.5.5,0,0,1,107.35,30.15ZM0,34.214a.5.5,0,0,1,.5.5v3a.5.5,0,0,1-.5.5.5.5,0,0,1-.5-.5v-3A.5.5,0,0,1,0,34.214ZM107.35,36.15a.5.5,0,0,1,.5.5v3a.5.5,0,1,1-1,0v-3A.5.5,0,0,1,107.35,36.15ZM0,40.214a.5.5,0,0,1,.5.5v3a.5.5,0,0,1-.5.5.5.5,0,0,1-.5-.5v-3A.5.5,0,0,1,0,40.214ZM107.35,42.15a.5.5,0,0,1,.5.5v3a.5.5,0,1,1-1,0v-3A.5.5,0,0,1,107.35,42.15ZM0,46.214a.5.5,0,0,1,.5.5v3a.5.5,0,0,1-.5.5.5.5,0,0,1-.5-.5v-3A.5.5,0,0,1,0,46.214ZM107.35,48.15a.5.5,0,0,1,.5.5v3a.5.5,0,1,1-1,0v-3A.5.5,0,0,1,107.35,48.15ZM0,52.214a.5.5,0,0,1,.5.5v3a.5.5,0,0,1-.5.5.5.5,0,0,1-.5-.5v-3A.5.5,0,0,1,0,52.214ZM107.35,54.15a.5.5,0,0,1,.5.5v3a.5.5,0,1,1-1,0v-3A.5.5,0,0,1,107.35,54.15ZM0,58.214a.5.5,0,0,1,.5.5v3a.5.5,0,0,1-.5.5.5.5,0,0,1-.5-.5v-3A.5.5,0,0,1,0,58.214ZM107.35,60.15a.5.5,0,0,1,.5.5v3a.5.5,0,0,1-1,0v-3A.5.5,0,0,1,107.35,60.15ZM0,64.214a.5.5,0,0,1,.5.5v3a.5.5,0,0,1-.5.5.5.5,0,0,1-.5-.5v-3A.5.5,0,0,1,0,64.214ZM107.35,66.15a.5.5,0,0,1,.5.5v3a.5.5,0,0,1-1,0v-3A.5.5,0,0,1,107.35,66.15ZM0,70.214a.5.5,0,0,1,.5.5v3a.5.5,0,0,1-.5.5.5.5,0,0,1-.5-.5v-3A.5.5,0,0,1,0,70.214ZM107.35,72.15a.5.5,0,0,1,.5.5v3a.5.5,0,0,1-1,0v-3A.5.5,0,0,1,107.35,72.15ZM0,76.214a.5.5,0,0,1,.5.5v3a.5.5,0,0,1-.5.5.5.5,0,0,1-.5-.5v-3A.5.5,0,0,1,0,76.214ZM107.35,78.15a.5.5,0,0,1,.5.5v3a.5.5,0,0,1-1,0v-3A.5.5,0,0,1,107.35,78.15ZM0,82.214a.5.5,0,0,1,.5.5v3a.5.5,0,0,1-.5.5.5.5,0,0,1-.5-.5v-3A.5.5,0,0,1,0,82.214ZM107.35,84.15a.5.5,0,0,1,.5.5v3a.5.5,0,0,1-1,0v-3A.5.5,0,0,1,107.35,84.15ZM0,88.214a.5.5,0,0,1,.5.5v3a.5.5,0,0,1-.5.5.5.5,0,0,1-.5-.5v-3A.5.5,0,0,1,0,88.214ZM107.35,90.15a.5.5,0,0,1,.5.5v3a.5.5,0,0,1-1,0v-3A.5.5,0,0,1,107.35,90.15ZM0,94.214a.5.5,0,0,1,.5.5v3a.5.5,0,0,1-.5.5.5.5,0,0,1-.5-.5v-3A.5.5,0,0,1,0,94.214ZM107.35,96.15a.5.5,0,0,1,.5.5v3a.5.5,0,1,1-1,0v-3A.5.5,0,0,1,107.35,96.15ZM0,100.214a.5.5,0,0,1,.5.5v3a.5.5,0,0,1-.5.5.5.5,0,0,1-.5-.5v-3A.5.5,0,0,1,0,100.214Zm107.35,1.936a.5.5,0,0,1,.5.5v3a.5.5,0,0,1-1,0v-3A.5.5,0,0,1,107.35,102.15ZM0,106.214a.5.5,0,0,1,.5.5v3a.5.5,0,0,1-.5.5.5.5,0,0,1-.5-.5v-3A.5.5,0,0,1,0,106.214Zm107.35,1.936a.5.5,0,0,1,.5.5v3a.5.5,0,0,1-1,0v-3A.5.5,0,0,1,107.35,108.15ZM0,112.214a.5.5,0,0,1,.5.5v3a.5.5,0,0,1-.5.5.5.5,0,0,1-.5-.5v-3A.5.5,0,0,1,0,112.214Zm107.35,1.936a.5.5,0,0,1,.5.5v3a.5.5,0,0,1-1,0v-3A.5.5,0,0,1,107.35,114.15ZM0,118.214a.5.5,0,0,1,.5.5v3a.5.5,0,0,1-.5.5.5.5,0,0,1-.5-.5v-3A.5.5,0,0,1,0,118.214Zm107.35,1.936a.5.5,0,0,1,.5.5v3a.5.5,0,0,1-1,0v-3A.5.5,0,0,1,107.35,120.15ZM0,124.214a.5.5,0,0,1,.5.5v3a.5.5,0,0,1-.5.5.5.5,0,0,1-.5-.5v-3A.5.5,0,0,1,0,124.214Zm107.35,1.936a.5.5,0,0,1,.5.5v3a.5.5,0,0,1-1,0v-3A.5.5,0,0,1,107.35,126.15ZM0,130.214a.5.5,0,0,1,.5.5v3a.5.5,0,0,1-.5.5.5.5,0,0,1-.5-.5v-3A.5.5,0,0,1,0,130.214Zm107.35,1.936a.5.5,0,0,1,.5.5v3a.5.5,0,0,1-1,0v-3A.5.5,0,0,1,107.35,132.15ZM0,136.214a.5.5,0,0,1,.5.5v3a.5.5,0,0,1-.5.5.5.5,0,0,1-.5-.5v-3A.5.5,0,0,1,0,136.214Zm107.35,1.936a.5.5,0,0,1,.5.5v3a.5.5,0,0,1-1,0v-3A.5.5,0,0,1,107.35,138.15ZM0,142.214a.5.5,0,0,1,.5.5v3a.5.5,0,0,1-.5.5.5.5,0,0,1-.5-.5v-3A.5.5,0,0,1,0,142.214Zm107.35,1.936a.5.5,0,0,1,.5.5v3a.5.5,0,0,1-1,0v-3A.5.5,0,0,1,107.35,144.15ZM0,148.214a.5.5,0,0,1,.5.5v3a.5.5,0,0,1-.5.5.5.5,0,0,1-.5-.5v-3A.5.5,0,0,1,0,148.214Zm107.35,1.936a.5.5,0,0,1,.5.5v3a.5.5,0,0,1-1,0v-3A.5.5,0,0,1,107.35,150.15ZM.207,154.007h3a.5.5,0,0,1,0,1h-3a.5.5,0,0,1,0-1Zm6,0h3a.5.5,0,0,1,0,1h-3a.5.5,0,0,1,0-1Zm6,0h3a.5.5,0,0,1,0,1h-3a.5.5,0,0,1,0-1Zm6,0h3a.5.5,0,0,1,0,1h-3a.5.5,0,0,1,0-1Zm6,0h3a.5.5,0,0,1,0,1h-3a.5.5,0,0,1,0-1Zm6,0h3a.5.5,0,0,1,0,1h-3a.5.5,0,0,1,0-1Zm6,0h3a.5.5,0,0,1,0,1h-3a.5.5,0,0,1,0-1Zm6,0h3a.5.5,0,0,1,0,1h-3a.5.5,0,0,1,0-1Zm6,0h3a.5.5,0,0,1,0,1h-3a.5.5,0,0,1,0-1Zm6,0h3a.5.5,0,0,1,0,1h-3a.5.5,0,0,1,0-1Zm6,0h3a.5.5,0,0,1,0,1h-3a.5.5,0,0,1,0-1Zm6,0h3a.5.5,0,0,1,0,1h-3a.5.5,0,0,1,0-1Zm6,0h3a.5.5,0,0,1,0,1h-3a.5.5,0,0,1,0-1Zm6,0h3a.5.5,0,0,1,0,1h-3a.5.5,0,0,1,0-1Zm6,0h3a.5.5,0,0,1,0,1h-3a.5.5,0,0,1,0-1Zm6,0h3a.5.5,0,0,1,0,1h-3a.5.5,0,0,1,0-1Zm6,0h3a.5.5,0,0,1,0,1h-3a.5.5,0,0,1,0-1Zm6,0h3a.5.5,0,0,1,0,1h-3a.5.5,0,0,1,0-1Z" transform="translate(3887.646 1522.025)" fill="#143145"/>
      </g>
      <g id="freepik--Window--inject-2-2" data-name="freepik--Window--inject-2">
        <rect id="Rectangle_5784" data-name="Rectangle 5784" width="266.682" height="185.513" transform="translate(3871.243 1700.513)" fill="#fff"/>
        <path id="Rectangle_5784_-_Outline" data-name="Rectangle 5784 - Outline" d="M0-.5H266.682a.5.5,0,0,1,.5.5V185.513a.5.5,0,0,1-.5.5H0a.5.5,0,0,1-.5-.5V0A.5.5,0,0,1,0-.5ZM266.182.5H.5V185.013H266.182Z" transform="translate(3871.243 1700.513)" fill="#263238"/>
        <rect id="Rectangle_5785" data-name="Rectangle 5785" width="266.67" height="11.39" transform="translate(3871.243 1700.513)" fill="#80ed99"/>
        <path id="Rectangle_5785_-_Outline" data-name="Rectangle 5785 - Outline" d="M0-.5H266.67a.5.5,0,0,1,.5.5V11.39a.5.5,0,0,1-.5.5H0a.5.5,0,0,1-.5-.5V0A.5.5,0,0,1,0-.5ZM266.17.5H.5V10.89H266.17Z" transform="translate(3871.243 1700.513)" fill="#263238"/>
        <path id="Path_101607" data-name="Path 101607" d="M4108.765,1705.843a2.887,2.887,0,1,0-2.882,2.73,2.809,2.809,0,0,0,2.882-2.73Z" fill="#fff"/>
        <path id="Path_101607_-_Outline" data-name="Path 101607 - Outline" d="M4105.883,1702.613a3.233,3.233,0,1,1-3.383,3.23A3.312,3.312,0,0,1,4105.883,1702.613Zm0,5.46a2.235,2.235,0,1,0-2.383-2.23A2.313,2.313,0,0,0,4105.883,1708.073Z" fill="#263238"/>
        <path id="Path_101608" data-name="Path 101608" d="M4118.786,1705.843a2.887,2.887,0,1,0-2.883,2.73,2.81,2.81,0,0,0,2.883-2.73Z" fill="#fff"/>
        <path id="Path_101608_-_Outline" data-name="Path 101608 - Outline" d="M4115.9,1702.613a3.233,3.233,0,1,1-3.382,3.23A3.313,3.313,0,0,1,4115.9,1702.613Zm0,5.46a2.235,2.235,0,1,0-2.382-2.23A2.313,2.313,0,0,0,4115.9,1708.073Z" fill="#263238"/>
        <ellipse id="Ellipse_4138" data-name="Ellipse 4138" cx="2.883" cy="2.73" rx="2.883" ry="2.73" transform="translate(4122.999 1703.113)" fill="#fff"/>
        <path id="Ellipse_4138_-_Outline" data-name="Ellipse 4138 - Outline" d="M2.883-.5A3.313,3.313,0,0,1,6.265,2.73,3.313,3.313,0,0,1,2.883,5.96,3.313,3.313,0,0,1-.5,2.73,3.313,3.313,0,0,1,2.883-.5Zm0,5.46A2.313,2.313,0,0,0,5.265,2.73,2.313,2.313,0,0,0,2.883.5,2.313,2.313,0,0,0,.5,2.73,2.313,2.313,0,0,0,2.883,4.96Z" transform="translate(4122.999 1703.113)" fill="#263238"/>
        <path id="Rectangle_5786" data-name="Rectangle 5786" d="M0-.5H3a.5.5,0,0,1,.5.5A.5.5,0,0,1,3,.5H.5V1.714a.5.5,0,0,1-.5.5.5.5,0,0,1-.5-.5V0A.5.5,0,0,1,0-.5Zm6,0H9a.5.5,0,0,1,.5.5A.5.5,0,0,1,9,.5H6A.5.5,0,0,1,5.5,0,.5.5,0,0,1,6-.5Zm6,0h3a.5.5,0,0,1,.5.5.5.5,0,0,1-.5.5H12a.5.5,0,0,1-.5-.5A.5.5,0,0,1,12-.5Zm6,0h3a.5.5,0,0,1,.5.5.5.5,0,0,1-.5.5H18a.5.5,0,0,1-.5-.5A.5.5,0,0,1,18-.5Zm6,0h3a.5.5,0,0,1,.5.5.5.5,0,0,1-.5.5H24a.5.5,0,0,1-.5-.5A.5.5,0,0,1,24-.5Zm6,0h3a.5.5,0,0,1,.5.5.5.5,0,0,1-.5.5H30a.5.5,0,0,1-.5-.5A.5.5,0,0,1,30-.5Zm6,0h3a.5.5,0,0,1,.5.5.5.5,0,0,1-.5.5H36a.5.5,0,0,1-.5-.5A.5.5,0,0,1,36-.5Zm6,0h3a.5.5,0,0,1,.5.5.5.5,0,0,1-.5.5H42a.5.5,0,0,1-.5-.5A.5.5,0,0,1,42-.5Zm6,0h3a.5.5,0,0,1,.5.5.5.5,0,0,1-.5.5H48a.5.5,0,0,1-.5-.5A.5.5,0,0,1,48-.5Zm6,0h3a.5.5,0,0,1,.5.5.5.5,0,0,1-.5.5H54a.5.5,0,0,1-.5-.5A.5.5,0,0,1,54-.5Zm6,0h3a.5.5,0,0,1,.5.5.5.5,0,0,1-.5.5H60a.5.5,0,0,1-.5-.5A.5.5,0,0,1,60-.5Zm6,0h3a.5.5,0,0,1,.5.5.5.5,0,0,1-.5.5H66a.5.5,0,0,1-.5-.5A.5.5,0,0,1,66-.5Zm6,0h3a.5.5,0,0,1,.5.5.5.5,0,0,1-.5.5H72a.5.5,0,0,1-.5-.5A.5.5,0,0,1,72-.5Zm6,0h3a.5.5,0,0,1,.5.5.5.5,0,0,1-.5.5H78a.5.5,0,0,1-.5-.5A.5.5,0,0,1,78-.5Zm6,0h3a.5.5,0,0,1,.5.5.5.5,0,0,1-.5.5H84a.5.5,0,0,1-.5-.5A.5.5,0,0,1,84-.5Zm6,0h3a.5.5,0,0,1,.5.5.5.5,0,0,1-.5.5H90a.5.5,0,0,1-.5-.5A.5.5,0,0,1,90-.5Zm6,0h3a.5.5,0,0,1,.5.5.5.5,0,0,1-.5.5H96a.5.5,0,0,1-.5-.5A.5.5,0,0,1,96-.5Zm6,0h3a.5.5,0,0,1,.5.5.5.5,0,0,1-.5.5h-3a.5.5,0,0,1-.5-.5A.5.5,0,0,1,102-.5Zm5.35.65a.5.5,0,0,1,.5.5v3a.5.5,0,0,1-1,0v-3A.5.5,0,0,1,107.35.15ZM0,4.214a.5.5,0,0,1,.5.5v3a.5.5,0,0,1-.5.5.5.5,0,0,1-.5-.5v-3A.5.5,0,0,1,0,4.214ZM107.35,6.15a.5.5,0,0,1,.5.5v3a.5.5,0,0,1-1,0v-3A.5.5,0,0,1,107.35,6.15ZM0,10.214a.5.5,0,0,1,.5.5v3a.5.5,0,0,1-.5.5.5.5,0,0,1-.5-.5v-3A.5.5,0,0,1,0,10.214ZM107.35,12.15a.5.5,0,0,1,.5.5v3a.5.5,0,1,1-1,0v-3A.5.5,0,0,1,107.35,12.15ZM0,16.214a.5.5,0,0,1,.5.5v3a.5.5,0,0,1-.5.5.5.5,0,0,1-.5-.5v-3A.5.5,0,0,1,0,16.214ZM107.35,18.15a.5.5,0,0,1,.5.5v3a.5.5,0,0,1-1,0v-3A.5.5,0,0,1,107.35,18.15ZM0,22.214a.5.5,0,0,1,.5.5v3a.5.5,0,0,1-.5.5.5.5,0,0,1-.5-.5v-3A.5.5,0,0,1,0,22.214ZM107.35,24.15a.5.5,0,0,1,.5.5v3a.5.5,0,1,1-1,0v-3A.5.5,0,0,1,107.35,24.15ZM0,28.214a.5.5,0,0,1,.5.5v3a.5.5,0,0,1-.5.5.5.5,0,0,1-.5-.5v-3A.5.5,0,0,1,0,28.214ZM107.35,30.15a.5.5,0,0,1,.5.5v3a.5.5,0,1,1-1,0v-3A.5.5,0,0,1,107.35,30.15ZM0,34.214a.5.5,0,0,1,.5.5v3a.5.5,0,0,1-.5.5.5.5,0,0,1-.5-.5v-3A.5.5,0,0,1,0,34.214ZM107.35,36.15a.5.5,0,0,1,.5.5v3a.5.5,0,1,1-1,0v-3A.5.5,0,0,1,107.35,36.15ZM0,40.214a.5.5,0,0,1,.5.5v3a.5.5,0,0,1-.5.5.5.5,0,0,1-.5-.5v-3A.5.5,0,0,1,0,40.214ZM107.35,42.15a.5.5,0,0,1,.5.5v3a.5.5,0,1,1-1,0v-3A.5.5,0,0,1,107.35,42.15ZM0,46.214a.5.5,0,0,1,.5.5v3a.5.5,0,0,1-.5.5.5.5,0,0,1-.5-.5v-3A.5.5,0,0,1,0,46.214ZM107.35,48.15a.5.5,0,0,1,.5.5v3a.5.5,0,1,1-1,0v-3A.5.5,0,0,1,107.35,48.15ZM0,52.214a.5.5,0,0,1,.5.5v3a.5.5,0,0,1-.5.5.5.5,0,0,1-.5-.5v-3A.5.5,0,0,1,0,52.214ZM107.35,54.15a.5.5,0,0,1,.5.5v3a.5.5,0,1,1-1,0v-3A.5.5,0,0,1,107.35,54.15ZM0,58.214a.5.5,0,0,1,.5.5v3a.5.5,0,0,1-.5.5.5.5,0,0,1-.5-.5v-3A.5.5,0,0,1,0,58.214ZM107.35,60.15a.5.5,0,0,1,.5.5v3a.5.5,0,0,1-1,0v-3A.5.5,0,0,1,107.35,60.15ZM0,64.214a.5.5,0,0,1,.5.5v3a.5.5,0,0,1-.5.5.5.5,0,0,1-.5-.5v-3A.5.5,0,0,1,0,64.214ZM107.35,66.15a.5.5,0,0,1,.5.5v3a.5.5,0,0,1-1,0v-3A.5.5,0,0,1,107.35,66.15ZM0,70.214a.5.5,0,0,1,.5.5v3a.5.5,0,0,1-.5.5.5.5,0,0,1-.5-.5v-3A.5.5,0,0,1,0,70.214ZM107.35,72.15a.5.5,0,0,1,.5.5v3a.5.5,0,0,1-1,0v-3A.5.5,0,0,1,107.35,72.15ZM0,76.214a.5.5,0,0,1,.5.5v3a.5.5,0,0,1-.5.5.5.5,0,0,1-.5-.5v-3A.5.5,0,0,1,0,76.214ZM107.35,78.15a.5.5,0,0,1,.5.5v3a.5.5,0,0,1-1,0v-3A.5.5,0,0,1,107.35,78.15ZM0,82.214a.5.5,0,0,1,.5.5v3a.5.5,0,0,1-.5.5.5.5,0,0,1-.5-.5v-3A.5.5,0,0,1,0,82.214ZM107.35,84.15a.5.5,0,0,1,.5.5v3a.5.5,0,0,1-1,0v-3A.5.5,0,0,1,107.35,84.15ZM0,88.214a.5.5,0,0,1,.5.5v3a.5.5,0,0,1-.5.5.5.5,0,0,1-.5-.5v-3A.5.5,0,0,1,0,88.214ZM107.35,90.15a.5.5,0,0,1,.5.5v3a.5.5,0,0,1-1,0v-3A.5.5,0,0,1,107.35,90.15ZM0,94.214a.5.5,0,0,1,.5.5v3a.5.5,0,0,1-.5.5.5.5,0,0,1-.5-.5v-3A.5.5,0,0,1,0,94.214ZM107.35,96.15a.5.5,0,0,1,.5.5v3a.5.5,0,1,1-1,0v-3A.5.5,0,0,1,107.35,96.15ZM0,100.214a.5.5,0,0,1,.5.5v3a.5.5,0,0,1-.5.5.5.5,0,0,1-.5-.5v-3A.5.5,0,0,1,0,100.214Zm107.35,1.936a.5.5,0,0,1,.5.5v3a.5.5,0,0,1-1,0v-3A.5.5,0,0,1,107.35,102.15ZM0,106.214a.5.5,0,0,1,.5.5v3a.5.5,0,0,1-.5.5.5.5,0,0,1-.5-.5v-3A.5.5,0,0,1,0,106.214Zm107.35,1.936a.5.5,0,0,1,.5.5v3a.5.5,0,0,1-1,0v-3A.5.5,0,0,1,107.35,108.15ZM0,112.214a.5.5,0,0,1,.5.5v3a.5.5,0,0,1-.5.5.5.5,0,0,1-.5-.5v-3A.5.5,0,0,1,0,112.214Zm107.35,1.936a.5.5,0,0,1,.5.5v3a.5.5,0,0,1-1,0v-3A.5.5,0,0,1,107.35,114.15ZM0,118.214a.5.5,0,0,1,.5.5v3a.5.5,0,0,1-.5.5.5.5,0,0,1-.5-.5v-3A.5.5,0,0,1,0,118.214Zm107.35,1.936a.5.5,0,0,1,.5.5v3a.5.5,0,0,1-1,0v-3A.5.5,0,0,1,107.35,120.15ZM0,124.214a.5.5,0,0,1,.5.5v3a.5.5,0,0,1-.5.5.5.5,0,0,1-.5-.5v-3A.5.5,0,0,1,0,124.214Zm107.35,1.936a.5.5,0,0,1,.5.5v3a.5.5,0,0,1-1,0v-3A.5.5,0,0,1,107.35,126.15ZM0,130.214a.5.5,0,0,1,.5.5v3a.5.5,0,0,1-.5.5.5.5,0,0,1-.5-.5v-3A.5.5,0,0,1,0,130.214Zm107.35,1.936a.5.5,0,0,1,.5.5v3a.5.5,0,0,1-1,0v-3A.5.5,0,0,1,107.35,132.15ZM0,136.214a.5.5,0,0,1,.5.5v3a.5.5,0,0,1-.5.5.5.5,0,0,1-.5-.5v-3A.5.5,0,0,1,0,136.214Zm107.35,1.936a.5.5,0,0,1,.5.5v3a.5.5,0,0,1-1,0v-3A.5.5,0,0,1,107.35,138.15ZM0,142.214a.5.5,0,0,1,.5.5v3a.5.5,0,0,1-.5.5.5.5,0,0,1-.5-.5v-3A.5.5,0,0,1,0,142.214Zm107.35,1.936a.5.5,0,0,1,.5.5v3a.5.5,0,0,1-1,0v-3A.5.5,0,0,1,107.35,144.15ZM0,148.214a.5.5,0,0,1,.5.5v3a.5.5,0,0,1-.5.5.5.5,0,0,1-.5-.5v-3A.5.5,0,0,1,0,148.214Zm107.35,1.936a.5.5,0,0,1,.5.5v3a.5.5,0,0,1-1,0v-3A.5.5,0,0,1,107.35,150.15ZM.207,154.007h3a.5.5,0,0,1,0,1h-3a.5.5,0,0,1,0-1Zm6,0h3a.5.5,0,0,1,0,1h-3a.5.5,0,0,1,0-1Zm6,0h3a.5.5,0,0,1,0,1h-3a.5.5,0,0,1,0-1Zm6,0h3a.5.5,0,0,1,0,1h-3a.5.5,0,0,1,0-1Zm6,0h3a.5.5,0,0,1,0,1h-3a.5.5,0,0,1,0-1Zm6,0h3a.5.5,0,0,1,0,1h-3a.5.5,0,0,1,0-1Zm6,0h3a.5.5,0,0,1,0,1h-3a.5.5,0,0,1,0-1Zm6,0h3a.5.5,0,0,1,0,1h-3a.5.5,0,0,1,0-1Zm6,0h3a.5.5,0,0,1,0,1h-3a.5.5,0,0,1,0-1Zm6,0h3a.5.5,0,0,1,0,1h-3a.5.5,0,0,1,0-1Zm6,0h3a.5.5,0,0,1,0,1h-3a.5.5,0,0,1,0-1Zm6,0h3a.5.5,0,0,1,0,1h-3a.5.5,0,0,1,0-1Zm6,0h3a.5.5,0,0,1,0,1h-3a.5.5,0,0,1,0-1Zm6,0h3a.5.5,0,0,1,0,1h-3a.5.5,0,0,1,0-1Zm6,0h3a.5.5,0,0,1,0,1h-3a.5.5,0,0,1,0-1Zm6,0h3a.5.5,0,0,1,0,1h-3a.5.5,0,0,1,0-1Zm6,0h3a.5.5,0,0,1,0,1h-3a.5.5,0,0,1,0-1Zm6,0h3a.5.5,0,0,1,0,1h-3a.5.5,0,0,1,0-1Z" transform="translate(4014.715 1725.025)" fill="#143145"/>
        <path id="Rectangle_5787" data-name="Rectangle 5787" d="M0-.5H3a.5.5,0,0,1,.5.5A.5.5,0,0,1,3,.5H.5V1.714a.5.5,0,0,1-.5.5.5.5,0,0,1-.5-.5V0A.5.5,0,0,1,0-.5Zm6,0H9a.5.5,0,0,1,.5.5A.5.5,0,0,1,9,.5H6A.5.5,0,0,1,5.5,0,.5.5,0,0,1,6-.5Zm6,0h3a.5.5,0,0,1,.5.5.5.5,0,0,1-.5.5H12a.5.5,0,0,1-.5-.5A.5.5,0,0,1,12-.5Zm6,0h3a.5.5,0,0,1,.5.5.5.5,0,0,1-.5.5H18a.5.5,0,0,1-.5-.5A.5.5,0,0,1,18-.5Zm6,0h3a.5.5,0,0,1,.5.5.5.5,0,0,1-.5.5H24a.5.5,0,0,1-.5-.5A.5.5,0,0,1,24-.5Zm6,0h3a.5.5,0,0,1,.5.5.5.5,0,0,1-.5.5H30a.5.5,0,0,1-.5-.5A.5.5,0,0,1,30-.5Zm6,0h3a.5.5,0,0,1,.5.5.5.5,0,0,1-.5.5H36a.5.5,0,0,1-.5-.5A.5.5,0,0,1,36-.5Zm6,0h3a.5.5,0,0,1,.5.5.5.5,0,0,1-.5.5H42a.5.5,0,0,1-.5-.5A.5.5,0,0,1,42-.5Zm6,0h3a.5.5,0,0,1,.5.5.5.5,0,0,1-.5.5H48a.5.5,0,0,1-.5-.5A.5.5,0,0,1,48-.5Zm6,0h3a.5.5,0,0,1,.5.5.5.5,0,0,1-.5.5H54a.5.5,0,0,1-.5-.5A.5.5,0,0,1,54-.5Zm6,0h3a.5.5,0,0,1,.5.5.5.5,0,0,1-.5.5H60a.5.5,0,0,1-.5-.5A.5.5,0,0,1,60-.5Zm6,0h3a.5.5,0,0,1,.5.5.5.5,0,0,1-.5.5H66a.5.5,0,0,1-.5-.5A.5.5,0,0,1,66-.5Zm6,0h3a.5.5,0,0,1,.5.5.5.5,0,0,1-.5.5H72a.5.5,0,0,1-.5-.5A.5.5,0,0,1,72-.5Zm6,0h3a.5.5,0,0,1,.5.5.5.5,0,0,1-.5.5H78a.5.5,0,0,1-.5-.5A.5.5,0,0,1,78-.5Zm6,0h3a.5.5,0,0,1,.5.5.5.5,0,0,1-.5.5H84a.5.5,0,0,1-.5-.5A.5.5,0,0,1,84-.5Zm6,0h3a.5.5,0,0,1,.5.5.5.5,0,0,1-.5.5H90a.5.5,0,0,1-.5-.5A.5.5,0,0,1,90-.5Zm6,0h3a.5.5,0,0,1,.5.5.5.5,0,0,1-.5.5H96a.5.5,0,0,1-.5-.5A.5.5,0,0,1,96-.5Zm6,0h3a.5.5,0,0,1,.5.5.5.5,0,0,1-.5.5h-3a.5.5,0,0,1-.5-.5A.5.5,0,0,1,102-.5Zm5.35.65a.5.5,0,0,1,.5.5v3a.5.5,0,0,1-1,0v-3A.5.5,0,0,1,107.35.15ZM0,4.214a.5.5,0,0,1,.5.5v3a.5.5,0,0,1-.5.5.5.5,0,0,1-.5-.5v-3A.5.5,0,0,1,0,4.214ZM107.35,6.15a.5.5,0,0,1,.5.5v3a.5.5,0,0,1-1,0v-3A.5.5,0,0,1,107.35,6.15ZM0,10.214a.5.5,0,0,1,.5.5v3a.5.5,0,0,1-.5.5.5.5,0,0,1-.5-.5v-3A.5.5,0,0,1,0,10.214ZM107.35,12.15a.5.5,0,0,1,.5.5v3a.5.5,0,1,1-1,0v-3A.5.5,0,0,1,107.35,12.15ZM0,16.214a.5.5,0,0,1,.5.5v3a.5.5,0,0,1-.5.5.5.5,0,0,1-.5-.5v-3A.5.5,0,0,1,0,16.214ZM107.35,18.15a.5.5,0,0,1,.5.5v3a.5.5,0,0,1-1,0v-3A.5.5,0,0,1,107.35,18.15ZM0,22.214a.5.5,0,0,1,.5.5v3a.5.5,0,0,1-.5.5.5.5,0,0,1-.5-.5v-3A.5.5,0,0,1,0,22.214ZM107.35,24.15a.5.5,0,0,1,.5.5v3a.5.5,0,1,1-1,0v-3A.5.5,0,0,1,107.35,24.15ZM0,28.214a.5.5,0,0,1,.5.5v3a.5.5,0,0,1-.5.5.5.5,0,0,1-.5-.5v-3A.5.5,0,0,1,0,28.214ZM107.35,30.15a.5.5,0,0,1,.5.5v3a.5.5,0,1,1-1,0v-3A.5.5,0,0,1,107.35,30.15ZM0,34.214a.5.5,0,0,1,.5.5v3a.5.5,0,0,1-.5.5.5.5,0,0,1-.5-.5v-3A.5.5,0,0,1,0,34.214ZM107.35,36.15a.5.5,0,0,1,.5.5v3a.5.5,0,1,1-1,0v-3A.5.5,0,0,1,107.35,36.15ZM0,40.214a.5.5,0,0,1,.5.5v3a.5.5,0,0,1-.5.5.5.5,0,0,1-.5-.5v-3A.5.5,0,0,1,0,40.214ZM107.35,42.15a.5.5,0,0,1,.5.5v3a.5.5,0,1,1-1,0v-3A.5.5,0,0,1,107.35,42.15ZM0,46.214a.5.5,0,0,1,.5.5v3a.5.5,0,0,1-.5.5.5.5,0,0,1-.5-.5v-3A.5.5,0,0,1,0,46.214ZM107.35,48.15a.5.5,0,0,1,.5.5v3a.5.5,0,1,1-1,0v-3A.5.5,0,0,1,107.35,48.15ZM0,52.214a.5.5,0,0,1,.5.5v3a.5.5,0,0,1-.5.5.5.5,0,0,1-.5-.5v-3A.5.5,0,0,1,0,52.214ZM107.35,54.15a.5.5,0,0,1,.5.5v3a.5.5,0,1,1-1,0v-3A.5.5,0,0,1,107.35,54.15ZM0,58.214a.5.5,0,0,1,.5.5v3a.5.5,0,0,1-.5.5.5.5,0,0,1-.5-.5v-3A.5.5,0,0,1,0,58.214ZM107.35,60.15a.5.5,0,0,1,.5.5v3a.5.5,0,0,1-1,0v-3A.5.5,0,0,1,107.35,60.15ZM0,64.214a.5.5,0,0,1,.5.5v3a.5.5,0,0,1-.5.5.5.5,0,0,1-.5-.5v-3A.5.5,0,0,1,0,64.214ZM107.35,66.15a.5.5,0,0,1,.5.5v3a.5.5,0,0,1-1,0v-3A.5.5,0,0,1,107.35,66.15ZM0,70.214a.5.5,0,0,1,.5.5v3a.5.5,0,0,1-.5.5.5.5,0,0,1-.5-.5v-3A.5.5,0,0,1,0,70.214ZM107.35,72.15a.5.5,0,0,1,.5.5v3a.5.5,0,0,1-1,0v-3A.5.5,0,0,1,107.35,72.15ZM0,76.214a.5.5,0,0,1,.5.5v3a.5.5,0,0,1-.5.5.5.5,0,0,1-.5-.5v-3A.5.5,0,0,1,0,76.214ZM107.35,78.15a.5.5,0,0,1,.5.5v3a.5.5,0,0,1-1,0v-3A.5.5,0,0,1,107.35,78.15ZM0,82.214a.5.5,0,0,1,.5.5v3a.5.5,0,0,1-.5.5.5.5,0,0,1-.5-.5v-3A.5.5,0,0,1,0,82.214ZM107.35,84.15a.5.5,0,0,1,.5.5v3a.5.5,0,0,1-1,0v-3A.5.5,0,0,1,107.35,84.15ZM0,88.214a.5.5,0,0,1,.5.5v3a.5.5,0,0,1-.5.5.5.5,0,0,1-.5-.5v-3A.5.5,0,0,1,0,88.214ZM107.35,90.15a.5.5,0,0,1,.5.5v3a.5.5,0,0,1-1,0v-3A.5.5,0,0,1,107.35,90.15ZM0,94.214a.5.5,0,0,1,.5.5v3a.5.5,0,0,1-.5.5.5.5,0,0,1-.5-.5v-3A.5.5,0,0,1,0,94.214ZM107.35,96.15a.5.5,0,0,1,.5.5v3a.5.5,0,1,1-1,0v-3A.5.5,0,0,1,107.35,96.15ZM0,100.214a.5.5,0,0,1,.5.5v3a.5.5,0,0,1-.5.5.5.5,0,0,1-.5-.5v-3A.5.5,0,0,1,0,100.214Zm107.35,1.936a.5.5,0,0,1,.5.5v3a.5.5,0,0,1-1,0v-3A.5.5,0,0,1,107.35,102.15ZM0,106.214a.5.5,0,0,1,.5.5v3a.5.5,0,0,1-.5.5.5.5,0,0,1-.5-.5v-3A.5.5,0,0,1,0,106.214Zm107.35,1.936a.5.5,0,0,1,.5.5v3a.5.5,0,0,1-1,0v-3A.5.5,0,0,1,107.35,108.15ZM0,112.214a.5.5,0,0,1,.5.5v3a.5.5,0,0,1-.5.5.5.5,0,0,1-.5-.5v-3A.5.5,0,0,1,0,112.214Zm107.35,1.936a.5.5,0,0,1,.5.5v3a.5.5,0,0,1-1,0v-3A.5.5,0,0,1,107.35,114.15ZM0,118.214a.5.5,0,0,1,.5.5v3a.5.5,0,0,1-.5.5.5.5,0,0,1-.5-.5v-3A.5.5,0,0,1,0,118.214Zm107.35,1.936a.5.5,0,0,1,.5.5v3a.5.5,0,0,1-1,0v-3A.5.5,0,0,1,107.35,120.15ZM0,124.214a.5.5,0,0,1,.5.5v3a.5.5,0,0,1-.5.5.5.5,0,0,1-.5-.5v-3A.5.5,0,0,1,0,124.214Zm107.35,1.936a.5.5,0,0,1,.5.5v3a.5.5,0,0,1-1,0v-3A.5.5,0,0,1,107.35,126.15ZM0,130.214a.5.5,0,0,1,.5.5v3a.5.5,0,0,1-.5.5.5.5,0,0,1-.5-.5v-3A.5.5,0,0,1,0,130.214Zm107.35,1.936a.5.5,0,0,1,.5.5v3a.5.5,0,0,1-1,0v-3A.5.5,0,0,1,107.35,132.15ZM0,136.214a.5.5,0,0,1,.5.5v3a.5.5,0,0,1-.5.5.5.5,0,0,1-.5-.5v-3A.5.5,0,0,1,0,136.214Zm107.35,1.936a.5.5,0,0,1,.5.5v3a.5.5,0,0,1-1,0v-3A.5.5,0,0,1,107.35,138.15ZM0,142.214a.5.5,0,0,1,.5.5v3a.5.5,0,0,1-.5.5.5.5,0,0,1-.5-.5v-3A.5.5,0,0,1,0,142.214Zm107.35,1.936a.5.5,0,0,1,.5.5v3a.5.5,0,0,1-1,0v-3A.5.5,0,0,1,107.35,144.15ZM0,148.214a.5.5,0,0,1,.5.5v3a.5.5,0,0,1-.5.5.5.5,0,0,1-.5-.5v-3A.5.5,0,0,1,0,148.214Zm107.35,1.936a.5.5,0,0,1,.5.5v3a.5.5,0,0,1-1,0v-3A.5.5,0,0,1,107.35,150.15ZM.207,154.007h3a.5.5,0,0,1,0,1h-3a.5.5,0,0,1,0-1Zm6,0h3a.5.5,0,0,1,0,1h-3a.5.5,0,0,1,0-1Zm6,0h3a.5.5,0,0,1,0,1h-3a.5.5,0,0,1,0-1Zm6,0h3a.5.5,0,0,1,0,1h-3a.5.5,0,0,1,0-1Zm6,0h3a.5.5,0,0,1,0,1h-3a.5.5,0,0,1,0-1Zm6,0h3a.5.5,0,0,1,0,1h-3a.5.5,0,0,1,0-1Zm6,0h3a.5.5,0,0,1,0,1h-3a.5.5,0,0,1,0-1Zm6,0h3a.5.5,0,0,1,0,1h-3a.5.5,0,0,1,0-1Zm6,0h3a.5.5,0,0,1,0,1h-3a.5.5,0,0,1,0-1Zm6,0h3a.5.5,0,0,1,0,1h-3a.5.5,0,0,1,0-1Zm6,0h3a.5.5,0,0,1,0,1h-3a.5.5,0,0,1,0-1Zm6,0h3a.5.5,0,0,1,0,1h-3a.5.5,0,0,1,0-1Zm6,0h3a.5.5,0,0,1,0,1h-3a.5.5,0,0,1,0-1Zm6,0h3a.5.5,0,0,1,0,1h-3a.5.5,0,0,1,0-1Zm6,0h3a.5.5,0,0,1,0,1h-3a.5.5,0,0,1,0-1Zm6,0h3a.5.5,0,0,1,0,1h-3a.5.5,0,0,1,0-1Zm6,0h3a.5.5,0,0,1,0,1h-3a.5.5,0,0,1,0-1Zm6,0h3a.5.5,0,0,1,0,1h-3a.5.5,0,0,1,0-1Z" transform="translate(3887.646 1725.025)" fill="#143145"/>
      </g>
      <g id="freepik--Floor--inject-2">
        <path id="Line_147" data-name="Line 147" d="M162.051.5H0A.5.5,0,0,1-.5,0,.5.5,0,0,1,0-.5H162.051a.5.5,0,0,1,.5.5A.5.5,0,0,1,162.051.5Z" transform="translate(4038.949 2003.913)" fill="#143145"/>
        <path id="Line_148" data-name="Line 148" d="M232.966.5H0A.5.5,0,0,1-.5,0,.5.5,0,0,1,0-.5H232.966a.5.5,0,0,1,.5.5A.5.5,0,0,1,232.966.5Z" transform="translate(3801 2003.913)" fill="#143145"/>
      </g>
      <g id="freepik--character-2--inject-2">
        <rect id="Rectangle_5788" data-name="Rectangle 5788" width="99.038" height="62.701" transform="translate(3995.041 1845.532)" fill="#143145"/>
        <circle id="Ellipse_4139" data-name="Ellipse 4139" cx="8.781" cy="8.781" r="8.781" transform="translate(4004.044 1853.618)" fill="#80ed99"/>
        <path id="Ellipse_4139_-_Outline" data-name="Ellipse 4139 - Outline" d="M8.781-.5A9.281,9.281,0,1,1-.5,8.781,9.292,9.292,0,0,1,8.781-.5Zm0,17.562A8.281,8.281,0,1,0,.5,8.781,8.291,8.291,0,0,0,8.781,17.062Z" transform="translate(4004.044 1853.618)" fill="#263238"/>
        <path id="Path_101609" data-name="Path 101609" d="M4094.079,1876.482l-19.481-17.014-21.231,23.919-22-13.367-36.326,38.213h99.038Z" fill="#80ed99"/>
        <path id="Path_101609_-_Outline" data-name="Path 101609 - Outline" d="M4074.6,1858.968a.5.5,0,0,1,.329.123l19.481,17.014a.5.5,0,0,1,.171.377v31.751a.5.5,0,0,1-.5.5h-99.038a.5.5,0,0,1-.362-.844l36.326-38.213a.5.5,0,0,1,.622-.083l21.644,13.15,20.954-23.607A.5.5,0,0,1,4074.6,1858.968Zm18.98,17.741-18.936-16.538-20.9,23.548a.5.5,0,0,1-.634.1l-21.656-13.157-35.246,37.077h97.373Z" fill="#263238"/>
        <path id="Path_101610" data-name="Path 101610" d="M4094.459,1857.56a1.73,1.73,0,0,1,1.813.538,3.534,3.534,0,0,1,.717,1.992,9.347,9.347,0,0,1,1.634,2.9c.179,1.054-1.813,5.967-1.813,5.967l5.06,12.839-7.053-12.122s-3.247-5.788-3.615-6.684a22.469,22.469,0,0,1-.359-4.891c0-.9-.179-2.889.907-1.8a6.633,6.633,0,0,1,1.444,1.993V1859Z" fill="#fff"/>
        <path id="Path_101610_-_Outline" data-name="Path 101610 - Outline" d="M4091.229,1855.479a1.262,1.262,0,0,1,.869.457,7.111,7.111,0,0,1,1.439,1.917l.545-.623a.5.5,0,0,1,.233-.15,2.229,2.229,0,0,1,2.337.694l.017.021a4.007,4.007,0,0,1,.808,2.1,9.814,9.814,0,0,1,1.618,2.927.511.511,0,0,1,.021.081c.057.337.03,1.08-.86,3.627-.366,1.047-.75,2.027-.908,2.425l4.987,12.654a.5.5,0,0,1-.9.435l-7.053-12.122,0-.007c-.133-.237-3.266-5.825-3.641-6.739a.5.5,0,0,1-.029-.1,23.026,23.026,0,0,1-.368-4.99c0-.1,0-.209,0-.328-.02-.969,0-1.684.36-2.056A.74.74,0,0,1,4091.229,1855.479Zm1.465,2.923a6.116,6.116,0,0,0-1.288-1.744l-.01-.01-.03-.029a8.812,8.812,0,0,0-.029,1.122c0,.128,0,.249,0,.357,0,.006,0,.012,0,.018a22.035,22.035,0,0,0,.342,4.729c.365.832,2.684,5.006,3.567,6.58l3.739,6.426-2.646-6.712a.5.5,0,0,1,0-.371,25.479,25.479,0,0,0,1.788-5.662,8.818,8.818,0,0,0-1.53-2.7.5.5,0,0,1-.115-.3,3.016,3.016,0,0,0-.607-1.7,1.229,1.229,0,0,0-1.151-.4l-1.161,1.325a.5.5,0,0,1-.876-.329Z" fill="#263238"/>
        <path id="Path_101611" data-name="Path 101611" d="M4033.159,1903.342l-3.436-.358a26.475,26.475,0,0,0-3.437-.727,10.707,10.707,0,0,0-3.974,2.171c-.727.728-1.813,1.054-1.265,1.8s3.247-.179,3.247-.179l-2.351,3.078a1.739,1.739,0,0,0,1.265,1.623,3.909,3.909,0,0,0,2.72-.538s2.888.538,3.436.717,6.874-3.615,6.874-3.615Z" fill="#fff"/>
        <path id="Path_101611_-_Outline" data-name="Path 101611 - Outline" d="M4026.286,1901.757a.509.509,0,0,1,.071.005,27.072,27.072,0,0,1,3.46.729l3.394.354a.5.5,0,0,1,.344.191l3.079,3.975a.5.5,0,0,1-.138.735c-.015.009-1.533.919-3.129,1.817-3.33,1.875-3.737,1.875-3.955,1.875a.649.649,0,0,1-.2-.031c-.36-.117-2.037-.45-3.188-.666a4.409,4.409,0,0,1-2.9.505l-.053-.012a2.23,2.23,0,0,1-1.628-2.09.5.5,0,0,1,.1-.318l1.468-1.922a5.922,5.922,0,0,1-1.076.118,1.51,1.51,0,0,1-1.294-.5,1.036,1.036,0,0,1-.071-1.242,3,3,0,0,1,.767-.705,5.342,5.342,0,0,0,.619-.5l.027-.025a11.131,11.131,0,0,1,4.159-2.272A.5.5,0,0,1,4026.286,1901.757Zm6.609,2.06-3.223-.336a.5.5,0,0,1-.084-.016,26.093,26.093,0,0,0-3.263-.7,10.133,10.133,0,0,0-3.671,2.027,6.3,6.3,0,0,1-.72.589,2.4,2.4,0,0,0-.532.463.348.348,0,0,0,.051.088h0s.095.087.487.087a8.616,8.616,0,0,0,2.194-.443.5.5,0,0,1,.56.776l-2.233,2.924a1.234,1.234,0,0,0,.861.985,3.408,3.408,0,0,0,2.344-.474.5.5,0,0,1,.356-.067c.286.053,2.714.508,3.416.708a50.289,50.289,0,0,0,6.062-3.254Z" fill="#263238"/>
        <path id="Path_101612" data-name="Path 101612" d="M4051.786,1902.4l-1.813,43.221s.548,28.757,1.634,34.176,1.982,10.13,1.982,10.13l-.9,1.992v2.71s-6.515,4.522-7.959,5.608-2.351,1.623-1.444,2.161,13.019,1.275,15.18,1.275,3.626-.19,3.8-1.054-.179-7.379-.179-7.379.538-4.333.717-5.6-.538-6.514-.538-9.592.907-23.867,1.054-27.662,3.247-24.952,3.247-24.952,6.694,48.281,7.053,50.452,3.436,12.65,3.436,12.65v2.172c0,.548,1.054,4.343,1.054,4.343s0,5.967.907,6.5,4.343.728,5.429-.537-.179-6.515-.179-6.515.358-4.512.358-6.325-1.265-6.694-1.265-7.959-1.444-39.6-1.444-39.6l.9-39.963-30.919-2.709Z" fill="#143145"/>
        <path id="Path_101613" data-name="Path 101613" d="M4066.8,1849.064s-14.653,6.5-15.38,9.224-.359,42.851-.18,44.274,8.866,3.437,15.191,3.985,15.369-1.813,16.455-3.985,2.72-19.523,2.72-19.523l1.054-3.795s7.769,8.855,11.385,10.479,5.429-1.265,5.07-4.154-8.507-17.362-9.772-20.429-1.8-8.687-3.257-10.489-7.948-6.694-7.948-6.694S4072.4,1845.269,4066.8,1849.064Z" fill="#fff"/>
        <path id="Path_101613_-_Outline" data-name="Path 101613 - Outline" d="M4074.891,1846.533h0a30.724,30.724,0,0,1,7.378.942.5.5,0,0,1,.168.083c.267.2,6.559,4.949,8.036,6.779.912,1.13,1.449,3.454,2.017,5.914a32.947,32.947,0,0,0,1.313,4.7c.434,1.052,1.719,3.521,3.208,6.38,2.979,5.723,6.354,12.21,6.6,14.177a5.2,5.2,0,0,1-1.06,4.048,3.317,3.317,0,0,1-2.557,1.136,5.3,5.3,0,0,1-2.154-.512c-3.113-1.4-9.019-7.781-10.943-9.918l-.8,2.869c-.187,1.986-1.679,17.481-2.766,19.656-.726,1.453-3.848,2.518-5.644,3.024a35.856,35.856,0,0,1-9.3,1.318c-.7,0-1.372-.028-2-.082a68.412,68.412,0,0,1-9.979-1.678,27.445,27.445,0,0,1-3.8-1.2c-1.217-.516-1.791-.992-1.861-1.544-.1-.808-.232-11.968-.254-21.713-.021-9.538.039-21.229.447-22.753.219-.821,1.31-2.33,8.214-5.946,3.515-1.841,6.993-3.4,7.406-3.588A14.811,14.811,0,0,1,4074.891,1846.533Zm7.022,1.882a30.478,30.478,0,0,0-7.022-.882,13.81,13.81,0,0,0-7.812,1.944.492.492,0,0,1-.078.043c-.037.016-3.7,1.644-7.392,3.58-6.6,3.456-7.588,4.869-7.708,5.316-.292,1.091-.442,9.289-.413,22.493.025,10.956.165,20.817.245,21.575.025.044.238.355,1.47.849a29.029,29.029,0,0,0,3.672,1.12,66.768,66.768,0,0,0,9.6,1.6c.6.052,1.244.078,1.914.078a34.81,34.81,0,0,0,9.03-1.28c3.236-.911,4.727-1.921,5.021-2.508.856-1.712,2.217-14.546,2.669-19.346a.478.478,0,0,1,.016-.087l1.054-3.795a.5.5,0,0,1,.857-.2c.077.088,7.739,8.792,11.214,10.353a4.317,4.317,0,0,0,1.744.425,2.312,2.312,0,0,0,1.808-.8,4.2,4.2,0,0,0,.817-3.262c-.222-1.789-3.847-8.754-6.494-13.839-1.5-2.88-2.793-5.368-3.244-6.461a33.53,33.53,0,0,1-1.363-4.854c-.518-2.242-1.053-4.56-1.821-5.511C4088.379,1853.335,4082.651,1848.975,4081.913,1848.415Z" fill="#263238"/>
        <path id="Path_101614" data-name="Path 101614" d="M4058.839,1853.4s-9.772,3.627-10.31,6.325-.358,27.851-.358,27.851l-15.012,15.77,2.351,5.271s25.5-15.369,25.859-18.258,0-26.586,0-26.586" fill="#fff"/>
        <path id="Path_101614_-_Outline" data-name="Path 101614 - Outline" d="M4035.51,1909.113a.5.5,0,0,1-.457-.3l-2.351-5.271a.5.5,0,0,1,.094-.548l14.873-15.624c-.017-2.56-.152-25.131.369-27.75.259-1.3,2.1-2.777,5.625-4.525,2.5-1.241,4.977-2.162,5-2.172a.5.5,0,0,1,.348.938c-.024.009-2.454.914-4.912,2.133-4.327,2.145-5,3.386-5.082,3.821-.521,2.619-.35,27.5-.348,27.75a.5.5,0,0,1-.138.348l-14.781,15.527,1.984,4.447c1.607-.977,6.967-4.253,12.3-7.744,3.718-2.434,6.693-4.493,8.843-6.12,3.711-2.808,3.98-3.6,4-3.734.35-2.821,0-26.28,0-26.517a.5.5,0,0,1,1-.015c.015.969.354,23.766,0,26.655-.07.56-.631,1.567-4.386,4.409-2.169,1.641-5.163,3.714-8.9,6.16-6.354,4.16-12.747,8.017-12.811,8.056A.5.5,0,0,1,4035.51,1909.113Z" fill="#263238"/>
        <path id="Line_149" data-name="Line 149" d="M0,14.6a.5.5,0,0,1-.1-.01A.5.5,0,0,1-.49,14L2.4-.1a.5.5,0,0,1,.59-.39.5.5,0,0,1,.39.59L.49,14.2A.5.5,0,0,1,0,14.6Z" transform="translate(4086.69 1865.161)" fill="#143145"/>
        <path id="Line_150" data-name="Line 150" d="M0,7.194a.5.5,0,0,1-.255-.07A.5.5,0,0,1-.43,6.439L3.544-.255A.5.5,0,0,1,4.229-.43.5.5,0,0,1,4.4.255L.43,6.949A.5.5,0,0,1,0,7.194Z" transform="translate(4087.227 1870.579)" fill="#143145"/>
        <path id="Path_101615" data-name="Path 101615" d="M4077.814,1869.609a105.708,105.708,0,0,1-9.572,15.127" fill="#fff"/>
        <path id="Path_101615_-_Outline" data-name="Path 101615 - Outline" d="M4068.241,1885.236a.5.5,0,0,1-.4-.8,105.52,105.52,0,0,0,9.527-15.055.5.5,0,1,1,.887.461,106.515,106.515,0,0,1-9.617,15.2A.5.5,0,0,1,4068.241,1885.236Z" fill="#263238"/>
        <path id="Path_101616" data-name="Path 101616" d="M4080.713,1863.885s-.443.938-1.213,2.446" fill="#fff"/>
        <path id="Path_101616_-_Outline" data-name="Path 101616 - Outline" d="M4079.5,1866.831a.5.5,0,0,1-.445-.728c.757-1.482,1.2-2.423,1.206-2.432a.5.5,0,0,1,.9.427c0,.009-.455.962-1.22,2.46A.5.5,0,0,1,4079.5,1866.831Z" fill="#263238"/>
        <path id="Path_101617" data-name="Path 101617" d="M4059.2,1897.075a.5.5,0,0,1-.206-.956c1.679-.76,5.108-3.138,9.914-6.876a.5.5,0,1,1,.614.789c-3.394,2.64-7.9,6-10.116,7A.5.5,0,0,1,4059.2,1897.075Z" fill="#143145"/>
        <path id="Path_101618" data-name="Path 101618" d="M4070.993,1888.778a.5.5,0,0,1-.313-.89l1.771-1.423a.5.5,0,1,1,.626.78l-1.771,1.423A.5.5,0,0,1,4070.993,1888.778Z" fill="#143145"/>
        <path id="Path_101619" data-name="Path 101619" d="M4079.448,1837.31l.189,8.5-12.122,2.889,2.35-10.3a5.209,5.209,0,0,1,4.7-3.806A4.755,4.755,0,0,1,4079.448,1837.31Z" fill="#fff"/>
        <path id="Path_101619_-_Outline" data-name="Path 101619 - Outline" d="M4075.137,1834.056a5.271,5.271,0,0,1,4.765,3.044.5.5,0,0,1,.046.2l.189,8.5a.5.5,0,0,1-.384.5l-12.122,2.889a.5.5,0,0,1-.6-.6l2.35-10.3c0-.008,0-.015.006-.023a5.711,5.711,0,0,1,5.139-4.17A5.287,5.287,0,0,1,4075.137,1834.056Zm3.814,3.373a4.252,4.252,0,0,0-4.324-2.342l-.03,0a4.71,4.71,0,0,0-4.247,3.43l-2.169,9.5,10.947-2.609Z" fill="#263238"/>
        <path id="Path_101620" data-name="Path 101620" d="M4068.242,1823.026s-2.9,2.709-2.9,3.8-1.265,3.068-1.8,3.974-2.9,1.054-2.709,2.53a2.235,2.235,0,0,0,1.624,1.813s-2.172,10.31,1.054,11.4,8.675-4.7,8.675-4.7l1.265-4.343a44.107,44.107,0,0,0,5.609,1.054c1.265,0,5.27-3.616,7.379-6.873s-2.709-10.542-9.034-12.84-11.4.907-11.4,2.351S4068.242,1823.026,4068.242,1823.026Z" fill="#fff"/>
        <path id="Path_101620_-_Outline" data-name="Path 101620 - Outline" d="M4072.953,1817.525h0a13.51,13.51,0,0,1,4.621.835,16.517,16.517,0,0,1,9.475,9.265,4.933,4.933,0,0,1-.192,4.317,26.2,26.2,0,0,1-4.087,4.754c-.951.877-2.7,2.347-3.712,2.347a.5.5,0,0,1-.06,0,44.822,44.822,0,0,1-5.2-.948l-1.13,3.881a.5.5,0,0,1-.116.2c-.192.2-4.743,4.995-8.166,4.995a3.231,3.231,0,0,1-1.033-.162c-1.576-.531-2.275-2.753-2.077-6.6a39.069,39.069,0,0,1,.609-4.944,2.739,2.739,0,0,1-1.545-2.057l0-.013c-.162-1.255.961-1.8,1.781-2.2a2.67,2.67,0,0,0,.993-.645l.18-.3c.5-.837,1.553-2.579,1.553-3.419,0-.373.163-1.053,1.576-2.637.308-.345.614-.665.867-.921a2.4,2.4,0,0,1-1.779-2.081c0-.783.823-1.689,2.2-2.425A11.323,11.323,0,0,1,4072.953,1817.525Zm6.128,20.517c.3-.023,1.271-.478,3.011-2.082a25.549,25.549,0,0,0,3.925-4.562,4.128,4.128,0,0,0,.083-3.455,15.437,15.437,0,0,0-8.868-8.643,12.513,12.513,0,0,0-4.28-.775,10.2,10.2,0,0,0-4.773,1.113c-1.252.668-1.673,1.339-1.673,1.543,0,1,1.8,1.35,1.823,1.353a.5.5,0,0,1,.253.857c-.007.007-.721.675-1.422,1.463-1.281,1.438-1.318,1.917-1.318,1.967,0,1.032-.838,2.51-1.7,3.935l-.177.294a3.16,3.16,0,0,1-1.415,1.034c-.879.429-1.288.685-1.229,1.171a1.737,1.737,0,0,0,1.26,1.4.5.5,0,0,1,.358.586,38.733,38.733,0,0,0-.673,5.224c-.166,3.249.33,5.236,1.4,5.6a2.24,2.24,0,0,0,.714.109c2.77,0,6.739-3.962,7.356-4.6l1.23-4.225a.5.5,0,0,1,.6-.345A43.743,43.743,0,0,0,4079.081,1838.042Z" fill="#263238"/>
        <path id="Path_101621" data-name="Path 101621" d="M4077.466,1818.862c-6.325-2.351-11.4.907-11.4,2.351s1.9,1.76,2.109,1.8h0s4.522,1.265,4.522,2.53-1.054,1.055-1.265,1.624-.548.906.179,1.444l.717.548s-1.054,5.608-1.444,7.052a2.108,2.108,0,0,1-2.288,1.771c-1.054,0-4.522-3.436-6.145-2.888,0,0-2.172,10.31,1.054,11.4s8.676-4.7,8.676-4.7l1.265-4.343a44.082,44.082,0,0,0,5.608,1.054c1.265,0,5.27-3.616,7.379-6.873S4083.791,1821.213,4077.466,1818.862Z" fill="#143145"/>
        <path id="Path_101622" data-name="Path 101622" d="M4069.359,1829.819a.5.5,0,0,1-.424-.234,2.1,2.1,0,0,0-2.484-.851.5.5,0,1,1-.341-.94,3.11,3.11,0,0,1,3.672,1.257.5.5,0,0,1-.423.767Z" fill="#143145"/>
        <path id="Path_101623" data-name="Path 101623" d="M4068.959,1831.653a.5.5,0,0,1-.311-.108,2.665,2.665,0,0,0-2.432-.461.5.5,0,0,1-.292-.957,3.663,3.663,0,0,1,3.345.635.5.5,0,0,1-.311.892Z" fill="#143145"/>
        <path id="Path_101624" data-name="Path 101624" d="M4064.531,1839.556a5.536,5.536,0,0,1-1.889-.332.5.5,0,0,1,.341-.94,4.547,4.547,0,0,0,3.1,0,.5.5,0,0,1,.341.94A5.544,5.544,0,0,1,4064.531,1839.556Z" fill="#143145"/>
        <path id="Path_101625" data-name="Path 101625" d="M4072.764,1832.967s1.624-2.53,2.709-1.265.359,4.88-.906,5.608a1.5,1.5,0,0,1-1.982-.179Z" fill="#fff"/>
        <path id="Path_101625_-_Outline" data-name="Path 101625 - Outline" d="M4074.775,1830.848a1.393,1.393,0,0,1,1.078.529,4.256,4.256,0,0,1,.549,3.377,4.483,4.483,0,0,1-1.56,2.975,1.984,1.984,0,0,1-1.164.374,2.007,2.007,0,0,1-1.457-.63.5.5,0,0,1-.135-.364l.179-4.164a.5.5,0,0,1,.079-.249,6.759,6.759,0,0,1,.7-.882A2.526,2.526,0,0,1,4074.775,1830.848Zm-1.1,6.255a.992.992,0,0,0,.593-.2.443.443,0,0,1,.048-.031,3.578,3.578,0,0,0,1.1-2.292,3.43,3.43,0,0,0-.322-2.557.4.4,0,0,0-.319-.18c-.446,0-1.136.728-1.517,1.28l-.163,3.788A.989.989,0,0,0,4073.677,1837.1Z" fill="#263238"/>
        <path id="Path_101626" data-name="Path 101626" d="M4079.448,1843.635s-8.318,1.265-10.12,1.813a30.238,30.238,0,0,0-4.881,2.351l-.727,2.709s12.649-2.709,15.011-2.709a23.766,23.766,0,0,1,3.436.179S4081.261,1843.456,4079.448,1843.635Z" fill="#fff"/>
        <path id="Path_101626_-_Outline" data-name="Path 101626 - Outline" d="M4079.552,1843.13h0c.948,0,1.763.837,2.425,2.488a14.438,14.438,0,0,1,.68,2.262.5.5,0,0,1-.552.594,23.425,23.425,0,0,0-3.364-.175h-.01c-2.282,0-14.78,2.671-14.906,2.7a.5.5,0,0,1-.588-.619l.727-2.709a.5.5,0,0,1,.226-.3,30.822,30.822,0,0,1,4.962-2.39l.03-.01c1.816-.552,9.849-1.777,10.19-1.829l.026,0C4079.45,1843.132,4079.5,1843.13,4079.552,1843.13Zm1.966,4.274c-.4-1.507-1.18-3.274-1.966-3.274h0l-.044,0c-.4.061-8.278,1.267-10.02,1.79a29.8,29.8,0,0,0-4.611,2.2l-.463,1.724c2.841-.6,12.236-2.547,14.312-2.551A24.413,24.413,0,0,1,4081.519,1847.4Z" fill="#263238"/>
      </g>
      <g id="freepik--character-1--inject-2">
        <rect id="Rectangle_5789" data-name="Rectangle 5789" width="60.93" height="35.46" transform="translate(3889.176 1798.913)" fill="#143145"/>
        <rect id="Rectangle_5790" data-name="Rectangle 5790" width="87.1" height="48.6" transform="translate(3857.336 1794.193)" fill="#80ed99"/>
        <path id="Rectangle_5790_-_Outline" data-name="Rectangle 5790 - Outline" d="M0-.5H87.1a.5.5,0,0,1,.5.5V48.6a.5.5,0,0,1-.5.5H0a.5.5,0,0,1-.5-.5V0A.5.5,0,0,1,0-.5ZM86.6.5H.5V48.1H86.6Z" transform="translate(3857.336 1794.193)" fill="#263238"/>
        <path id="Path_101627" data-name="Path 101627" d="M3911.086,1815.533l-15.99-9.23v18.46Z" fill="#143145"/>
        <rect id="Rectangle_5791" data-name="Rectangle 5791" width="87.1" height="7.77" transform="translate(3857.336 1835.023)" fill="#143145"/>
        <rect id="Rectangle_5792" data-name="Rectangle 5792" width="87.1" height="2.8" transform="translate(3857.336 1837.503)" fill="#fff"/>
        <path id="Rectangle_5792_-_Outline" data-name="Rectangle 5792 - Outline" d="M0-.5H87.1a.5.5,0,0,1,.5.5V2.8a.5.5,0,0,1-.5.5H0a.5.5,0,0,1-.5-.5V0A.5.5,0,0,1,0-.5ZM86.6.5H.5V2.3H86.6Z" transform="translate(3857.336 1837.503)" fill="#263238"/>
        <path id="Path_101628" data-name="Path 101628" d="M3837.716,1844.083l16.39-17.36s.8-3.21,1-4.18a6.872,6.872,0,0,1,2.41-3c.96-.75,1.45-1.45,1.45,0a2.871,2.871,0,0,1-1.45,2.25s-.16,3.86-.16,4.34v1.93l-12,18Z" fill="#fff"/>
        <path id="Path_101628_-_Outline" data-name="Path 101628 - Outline" d="M3845.356,1846.563a.5.5,0,0,1-.125-.016l-7.64-1.98a.5.5,0,0,1-.238-.827l16.3-17.265c.15-.6.791-3.193.964-4.033a7.209,7.209,0,0,1,2.592-3.293c.152-.119.291-.235.424-.348.417-.35.717-.6,1.069-.6a.7.7,0,0,1,.673.534,2.669,2.669,0,0,1,.092.811c0,.015,0,.029,0,.044a3.371,3.371,0,0,1-1.459,2.491c-.057,1.386-.149,3.707-.149,4.055v1.93a.5.5,0,0,1-.084.277l-12,18A.5.5,0,0,1,3845.356,1846.563Zm-6.7-2.752,6.477,1.679,11.719-17.578v-1.779c0-.485.154-4.2.161-4.361a.5.5,0,0,1,.254-.415,2.371,2.371,0,0,0,1.2-1.837c0-.04,0-.077,0-.111l-.188.157c-.134.113-.286.241-.452.37a6.508,6.508,0,0,0-2.228,2.707c-.2.969-.972,4.068-1,4.2a.5.5,0,0,1-.122.222Z" fill="#263238"/>
        <path id="Path_101629" data-name="Path 101629" d="M3837.386,1849.513a6.513,6.513,0,0,1-1.12-3.86,4.05,4.05,0,0,1,4.7-3.276c.1.018.2.04.3.066,2.25.64,4.66,1.12,5,3.05s-2.89,1.61-5.46,1.93A4.207,4.207,0,0,0,3837.386,1849.513Z" fill="#fff"/>
        <path id="Path_101629_-_Outline" data-name="Path 101629 - Outline" d="M3837.386,1850.013a.5.5,0,0,1-.414-.219,6.969,6.969,0,0,1-1.206-4.156.476.476,0,0,1,.008-.072,4.545,4.545,0,0,1,5.278-3.68c.114.02.225.045.34.074l.011,0c.205.058.412.115.618.172,2.15.594,4.374,1.208,4.738,3.272a1.575,1.575,0,0,1-.282,1.3c-.668.853-2.177.954-3.925,1.072-.562.038-1.144.077-1.684.144l-.036,0a3.7,3.7,0,0,0-3.014,1.842.5.5,0,0,1-.415.249Zm-.621-4.307a5.966,5.966,0,0,0,.657,2.889,4.69,4.69,0,0,1,3.34-1.67c.563-.069,1.153-.109,1.723-.147,1.318-.089,2.811-.189,3.2-.691a.586.586,0,0,0,.085-.507c-.254-1.442-2.083-1.947-4.019-2.481-.207-.057-.414-.114-.62-.173-.087-.022-.172-.041-.258-.056a3.593,3.593,0,0,0-.629-.056A3.543,3.543,0,0,0,3836.765,1845.705Z" fill="#263238"/>
        <path id="Path_101630" data-name="Path 101630" d="M3884.476,1861.273s14.94-19.6,15.75-20.73,1.28-.8,2.89-.8,4.34-.65,4.66-.16.48,1.28-.16,1.28-3.54.64-3.54.64l4.18,1.13s1.77,0,1.77.48-.32.32-1.93,1a16.6,16.6,0,0,1-4.5,1.12h-3.37l-11.9,22.5Z" fill="#fff"/>
        <path id="Path_101630_-_Outline" data-name="Path 101630 - Outline" d="M3888.326,1868.233a.5.5,0,0,1-.429-.244l-3.85-6.46a.5.5,0,0,1,.032-.559c.149-.2,14.945-19.607,15.741-20.718a2.063,2.063,0,0,1,1.906-1.054c.169,0,.352.009.547.019.245.012.522.026.844.026a18.946,18.946,0,0,0,2.052-.178,17.375,17.375,0,0,1,1.876-.165,1.3,1.3,0,0,1,1.151.41,1.684,1.684,0,0,1,.244,1.6.9.9,0,0,1-.822.455,11.318,11.318,0,0,0-1.377.207l2.086.564a7.967,7.967,0,0,1,.883.064c.326.044,1.318.179,1.318.915,0,.67-.463.823-1,1-.287.1-.681.225-1.236.46l-.007,0a17.1,17.1,0,0,1-4.635,1.154l-.052,0h-3.069l-11.76,22.234a.5.5,0,0,1-.429.266Zm-3.247-6.926,3.221,5.406L3899.784,1845a.5.5,0,0,1,.442-.266h3.344a16.1,16.1,0,0,0,4.335-1.082c.53-.224.931-.361,1.215-.456a6.284,6.284,0,0,0-.864-.062.5.5,0,0,1-.13-.017l-4.18-1.13a.5.5,0,0,1,.023-.971c.294-.065,2.824-.619,3.586-.65a1.214,1.214,0,0,0-.154-.437,1.724,1.724,0,0,0-.356-.027,16.875,16.875,0,0,0-1.756.158,19.575,19.575,0,0,1-2.172.185c-.347,0-.637-.015-.893-.027-.189-.01-.353-.018-.5-.018-.453,0-.679.058-1.093.636C3899.87,1841.9,3886.949,1858.853,3885.079,1861.307Z" fill="#263238"/>
        <path id="Path_101631" data-name="Path 101631" d="M3848.8,1941.293l1.13,5.15a103.572,103.572,0,0,1-11.89.64,90.754,90.754,0,0,1-12.86-1s-1.6-4.18-3.37-4.66-7.23,4.33-9.64,5.94-4.5,4.5-3.7,5.3,4.82-.8,4.82-.8,7.07-1.12,9.32-1.12,5.63,1.12,11.41,2.25a168.821,168.821,0,0,0,20.73,1.92c2.89,0,4.34.16,5.3-2.73s0-12.69,0-12.69l-11.89-1Z" fill="#fff"/>
        <path id="Path_101631_-_Outline" data-name="Path 101631 - Outline" d="M3848.156,1937.993l.042,0,11.89,1a.5.5,0,0,1,.456.45c.04.4.959,9.94-.023,12.9a4.08,4.08,0,0,1-1.932,2.631,6.77,6.77,0,0,1-3.02.443l-.823,0h-.015a169.931,169.931,0,0,1-20.791-1.926l-.019,0c-2.262-.442-4.12-.874-5.759-1.255a28.511,28.511,0,0,0-5.555-.986c-2.083,0-8.531,1-9.188,1.105a14.954,14.954,0,0,1-4.143,1.039,1.573,1.573,0,0,1-1.162-.37,1.186,1.186,0,0,1-.312-1,5.78,5.78,0,0,1,1.344-2.562,12.936,12.936,0,0,1,2.743-2.5c.616-.411,1.465-1.059,2.364-1.745,3.2-2.444,5.775-4.313,7.28-4.313a1.549,1.549,0,0,1,.405.051c.868.235,1.761,1.16,2.654,2.748a19.031,19.031,0,0,1,.942,1.942,90.569,90.569,0,0,0,12.506.953h.387a103.5,103.5,0,0,0,10.892-.578l-1.011-4.606-.639-2.8a.5.5,0,0,1,.488-.611Zm11.43,1.963-10.791-.908.488,2.133,1.131,5.154a.5.5,0,0,1-.433.6,104.478,104.478,0,0,1-11.555.644h-.393a91.578,91.578,0,0,1-12.932-1.005.5.5,0,0,1-.393-.316c-.584-1.525-1.925-4.055-3.034-4.356a.559.559,0,0,0-.143-.016c-1.286,0-4.528,2.472-6.673,4.108-.951.725-1.773,1.352-2.415,1.781-1.942,1.3-3.555,3.394-3.648,4.332a.3.3,0,0,0,.023.2s.095.078.455.078a14.709,14.709,0,0,0,3.826-.989.5.5,0,0,1,.107-.029c.29-.046,7.135-1.126,9.4-1.126a28.884,28.884,0,0,1,5.782,1.012c1.628.379,3.474.808,5.715,1.246a168.964,168.964,0,0,0,20.651,1.912l.815,0c2.283,0,3.24-.092,4-2.389C3860.378,1949.6,3859.753,1941.84,3859.586,1939.956Z" fill="#263238"/>
        <path id="Path_101632" data-name="Path 101632" d="M3815.736,1951.513l-.62-.87,10.06-4.52s-1.6-4.18-3.37-4.66-7.23,4.33-9.64,5.94-4.5,4.5-3.7,5.3,4.82-.8,4.82-.8Z" fill="#143145"/>
        <path id="Path_101633" data-name="Path 101633" d="M3857.636,1942.1l1.45,10s-1.13,12.54-.64,18,.48,23.3.48,23.3-2.57,4.5-2.25,5.46,4.18,3.7,5.94,4.5,4.82.81,5.31-.16-2.25-2.57-2.25-2.57l-2.57-6.43s7.23-41.13,7.23-44.19.64-10.44.64-10.44Z" fill="#fff"/>
        <path id="Path_101633_-_Outline" data-name="Path 101633 - Outline" d="M3870.976,1939.073a.5.5,0,0,1,.5.543c-.006.074-.638,7.393-.638,10.4s-6.675,41.075-7.213,44.136l2.455,6.143a11.284,11.284,0,0,1,1.227.878c1.03.861,1.389,1.62,1.067,2.258-.448.887-1.921,1.019-2.759,1.019a8.159,8.159,0,0,1-3.2-.63,23.3,23.3,0,0,1-3.6-2.243c-1.546-1.142-2.423-2-2.607-2.554-.131-.392-.111-1.111,1.029-3.466.5-1.029,1.015-1.963,1.2-2.284,0-1.638-.018-17.994-.478-23.124-.476-5.308.542-16.983.635-18.031l-1.442-9.942a.5.5,0,0,1,.4-.563l13.34-2.53A.5.5,0,0,1,3870.976,1939.073Zm-5.363,64.375c1.187,0,1.775-.288,1.867-.47.025-.05-.04-.389-.808-1.033a10.467,10.467,0,0,0-1.248-.88.5.5,0,0,1-.212-.246l-2.57-6.43a.5.5,0,0,1-.028-.272c.072-.411,7.222-41.122,7.222-44.1,0-2.545.429-7.941.586-9.826l-12.223,2.318,1.381,9.526a.5.5,0,0,1,0,.117c-.011.125-1.12,12.558-.64,17.91.486,5.42.482,23.166.482,23.345a.5.5,0,0,1-.066.248c-.006.011-.626,1.1-1.207,2.294-1.067,2.2-1.014,2.7-1,2.763a8.125,8.125,0,0,0,2.252,2.063,22.625,22.625,0,0,0,3.42,2.137A7.224,7.224,0,0,0,3865.613,2003.448Z" fill="#263238"/>
        <path id="Path_101634" data-name="Path 101634" d="M3861.176,1996.183a5.054,5.054,0,0,0-3.16-1.15c-.71,1.39-1.54,3.22-1.35,3.79.32,1,4.18,3.7,5.94,4.5s4.82.81,5.31-.16-2.25-2.57-2.25-2.57A50.659,50.659,0,0,0,3861.176,1996.183Z" fill="#143145"/>
        <path id="Path_101635" data-name="Path 101635" d="M3845.426,1895.983a55.075,55.075,0,0,0-4.66,18c-1,10.6,6.75,26.83,6.75,26.83s1,3.06,9.64,3.38a30.731,30.731,0,0,0,14.94-3.22s3.35-11.38,1.45-29.08a31.7,31.7,0,0,0-3.86-12.21Z" fill="#143145"/>
        <path id="Path_101636" data-name="Path 101636" d="M3863.106,1859.663l20.89,1.45,3.37,7.55s-2.73.64-8,1.61-8.84,1.93-8.84,1.93.32,4,.32,7.71-1.8,11.6-1.8,11.6l2.13,10.9s-4.5-1.61-6.43-1.61-3,2.09-8.67,3.37c-9.32,2.09-11.74-6.74-11.74-6.74s2.74-6.27,2.74-9-4.18-18.32-4.18-18.32l-5.79-21.37s-1.12-2.58,2.57-3.06a11.927,11.927,0,0,1,5.63.32l8.68,11.73s3,2.25,4.33,2.09S3863.106,1859.663,3863.106,1859.663Z" fill="#fff"/>
        <path id="Path_101636_-_Outline" data-name="Path 101636 - Outline" d="M3841.833,1844.986a12.419,12.419,0,0,1,3.619.538.5.5,0,0,1,.256.181l8.636,11.671c1.045.774,2.956,1.955,3.829,1.955a.693.693,0,0,0,.083,0c1.344-.162,4.707-.164,4.85-.164h.035l20.89,1.45a.5.5,0,0,1,.422.3l3.37,7.55a.5.5,0,0,1-.343.691c-.027.006-2.8.654-8.023,1.615-4.189.771-7.329,1.544-8.4,1.817.081,1.127.291,4.339.291,7.331,0,3.536-1.568,10.624-1.789,11.608l2.11,10.8a.5.5,0,0,1-.659.567c-.044-.016-4.44-1.581-6.261-1.581a4.551,4.551,0,0,0-2.187.856,20.59,20.59,0,0,1-6.373,2.5,13.055,13.055,0,0,1-2.842.332,9.277,9.277,0,0,1-7.552-3.724,11.742,11.742,0,0,1-1.938-3.7.5.5,0,0,1,.024-.332c.027-.062,2.7-6.206,2.7-8.8,0-2.634-4.121-18.035-4.163-18.19l-5.782-21.341a2.669,2.669,0,0,1,.116-2.189,3.583,3.583,0,0,1,2.852-1.524A12.456,12.456,0,0,1,3841.833,1844.986Zm3.171,1.449a11.425,11.425,0,0,0-5.237-.26l-.026,0a2.736,2.736,0,0,0-2.124,1.027,1.679,1.679,0,0,0-.052,1.338.521.521,0,0,1,.024.068l5.79,21.37c.172.64,4.2,15.687,4.2,18.451,0,2.577-2.257,7.976-2.708,9.029a11.182,11.182,0,0,0,1.735,3.222,8.184,8.184,0,0,0,6.74,3.309,12.046,12.046,0,0,0,2.623-.308,19.694,19.694,0,0,0,6.095-2.393,5.36,5.36,0,0,1,2.685-.989,24.68,24.68,0,0,1,5.773,1.356l-1.964-10.05a.5.5,0,0,1,0-.207c.018-.078,1.788-7.878,1.788-11.489,0-3.646-.315-7.63-.319-7.67a.5.5,0,0,1,.369-.523c.036-.01,3.65-.976,8.879-1.939,3.818-.7,6.317-1.236,7.385-1.472l-3-6.718-20.573-1.428c-.265,0-3.475.007-4.713.156a1.723,1.723,0,0,1-.2.012c-1.512,0-4.187-1.973-4.487-2.2a.5.5,0,0,1-.1-.1Z" fill="#263238"/>
        <path id="Path_101637" data-name="Path 101637" d="M3864.386,1839.743s.16,2.09,1.13,2.89,2.57.8,2.57,2.09a11.894,11.894,0,0,0,.16,2.09s0,4.18-.16,5.46-4.18,2.57-4.18,2.57l-.16,4.66-5-2.41a15.5,15.5,0,0,1-.32-9.32A16.412,16.412,0,0,1,3864.386,1839.743Z" fill="#fff"/>
        <path id="Path_101637_-_Outline" data-name="Path 101637 - Outline" d="M3864.386,1839.243a.5.5,0,0,1,.5.461h0a2.811,2.811,0,0,0,1.989,3.107c.763.333,1.712.747,1.712,1.911v.006a11.434,11.434,0,0,0,.153,2,.486.486,0,0,1,.007.082c0,.172,0,4.226-.164,5.522-.091.732-.865,1.417-2.433,2.155-.691.325-1.366.578-1.755.715l-.148,4.315a.5.5,0,0,1-.717.433l-5-2.41a.5.5,0,0,1-.254-.284,15.917,15.917,0,0,1-.33-9.621c0-.009.005-.018.009-.027a16.817,16.817,0,0,1,6.142-8.275A.5.5,0,0,1,3864.386,1839.243Zm3.2,5.477c0-.464-.307-.641-1.112-.992a5.246,5.246,0,0,1-1.276-.709,4.255,4.255,0,0,1-1.183-2.368,15.812,15.812,0,0,0-5.112,7.27,14.917,14.917,0,0,0,.247,8.812l4.122,1.987.134-3.894a.5.5,0,0,1,.347-.459,18.792,18.792,0,0,0,1.978-.785c1.743-.822,1.852-1.317,1.859-1.371.146-1.168.156-4.923.156-5.357A12.439,12.439,0,0,1,3867.586,1844.72Z" fill="#263238"/>
        <path id="Path_101638" data-name="Path 101638" d="M3864.066,1835.563s1.29,5-.16,7.87-3.86,4.66-2.89,7.07,3.53,7.4,2.73,9-7.71,5.3-12.7,3.06-4.5-5.63-4.5-5.63,2.41,1,1.93-1.45-2.89-3.05-3.69-8.83,3.53-10,8.51-11.89S3862.3,1833.153,3864.066,1835.563Z" fill="#143145"/>
        <path id="Path_101639" data-name="Path 101639" d="M3882.386,1860.953s2.09,3.21,2.41,4.82.8,3.69.8,3.69a2.713,2.713,0,0,0,3.06-.64c1.28-1.44.48-4-.65-5.46a27.259,27.259,0,0,0-3.21-3.22S3882.866,1860.143,3882.386,1860.953Z" fill="#fff"/>
        <path id="Path_101639_-_Outline" data-name="Path 101639 - Outline" d="M3884.8,1859.643a.5.5,0,0,1,.323.119,27.842,27.842,0,0,1,3.269,3.279l.013.016a7.04,7.04,0,0,1,1.325,2.955,3.6,3.6,0,0,1-.7,3.144l-.008.009a3.223,3.223,0,0,1-2.35,1.022,3.189,3.189,0,0,1-1.274-.264.5.5,0,0,1-.289-.346c0-.021-.485-2.106-.8-3.7a19.952,19.952,0,0,0-2.338-4.645.5.5,0,0,1-.011-.528C3882.551,1859.694,3884.426,1859.643,3884.8,1859.643Zm2.821,4.034a26.867,26.867,0,0,0-3-3.03,3.842,3.842,0,0,0-1.6.37,19.1,19.1,0,0,1,2.267,4.658c.249,1.25.6,2.8.737,3.413a2.213,2.213,0,0,0,2.263-.6C3889.394,1867.233,3888.544,1864.88,3887.617,1863.677Z" fill="#263238"/>
      </g>
      <g id="freepik--Image--inject-2">
        <rect id="Rectangle_5793" data-name="Rectangle 5793" width="86.233" height="152.01" transform="translate(4051.68 1521.682)" fill="#143145"/>
        <rect id="Rectangle_5794" data-name="Rectangle 5794" width="107.35" height="152.01" transform="translate(4045.292 1515.523)" fill="#fff"/>
        <path id="Rectangle_5794_-_Outline" data-name="Rectangle 5794 - Outline" d="M0-.5H107.35a.5.5,0,0,1,.5.5V152.01a.5.5,0,0,1-.5.5H0a.5.5,0,0,1-.5-.5V0A.5.5,0,0,1,0-.5ZM106.85.5H.5V151.51H106.85Z" transform="translate(4045.292 1515.523)" fill="#263238"/>
        <rect id="Rectangle_5795" data-name="Rectangle 5795" width="90.288" height="66.08" transform="translate(4053.817 1527.603)" fill="#143145"/>
        <path id="Path_101640" data-name="Path 101640" d="M4144.1,1558.283l-12.8-10.76-19.9,22.16-20.62-10.46-36.965,34.46H4144.1Z" fill="#80ed99"/>
        <path id="Path_101640_-_Outline" data-name="Path 101640 - Outline" d="M4131.306,1547.023a.5.5,0,0,1,.322.117l12.8,10.76a.5.5,0,0,1,.178.383v35.4a.5.5,0,0,1-.5.5h-90.288a.5.5,0,0,1-.341-.866l36.965-34.46a.5.5,0,0,1,.567-.08l20.278,10.286,19.647-21.875A.5.5,0,0,1,4131.306,1547.023Zm12.3,11.493-12.25-10.3-19.58,21.8a.5.5,0,0,1-.6.112l-20.308-10.3-35.781,33.356H4143.6Z" fill="#263238"/>
        <ellipse id="Ellipse_4140" data-name="Ellipse 4140" cx="9.599" cy="8.31" rx="9.599" ry="8.31" transform="translate(4060.921 1534.603)" fill="#80ed99"/>
        <path id="Ellipse_4140_-_Outline" data-name="Ellipse 4140 - Outline" d="M9.6-.5a10.835,10.835,0,0,1,7.115,2.556A8.23,8.23,0,0,1,19.7,8.31a8.23,8.23,0,0,1-2.984,6.254A10.835,10.835,0,0,1,9.6,17.12a10.835,10.835,0,0,1-7.115-2.556A8.23,8.23,0,0,1-.5,8.31,8.23,8.23,0,0,1,2.484,2.056,10.835,10.835,0,0,1,9.6-.5Zm0,16.62c5.017,0,9.1-3.5,9.1-7.81S14.617.5,9.6.5.5,4,.5,8.31,4.582,16.12,9.6,16.12Z" transform="translate(4060.921 1534.603)" fill="#263238"/>
        <path id="Line_151" data-name="Line 151" d="M5.094.5H0A.5.5,0,0,1-.5,0,.5.5,0,0,1,0-.5H5.094a.5.5,0,0,1,.5.5A.5.5,0,0,1,5.094.5Z" transform="translate(4136.874 1606.603)" fill="#143145"/>
        <path id="Line_152" data-name="Line 152" d="M30.242.5H0A.5.5,0,0,1-.5,0,.5.5,0,0,1,0-.5H30.242a.5.5,0,0,1,.5.5A.5.5,0,0,1,30.242.5Z" transform="translate(4101.583 1606.603)" fill="#143145"/>
        <path id="Line_153" data-name="Line 153" d="M22.549.5H0A.5.5,0,0,1-.5,0,.5.5,0,0,1,0-.5H22.549a.5.5,0,0,1,.5.5A.5.5,0,0,1,22.549.5Z" transform="translate(4073.721 1606.603)" fill="#143145"/>
        <path id="Line_154" data-name="Line 154" d="M13.354.5H0A.5.5,0,0,1-.5,0,.5.5,0,0,1,0-.5H13.354a.5.5,0,0,1,.5.5A.5.5,0,0,1,13.354.5Z" transform="translate(4054.533 1606.603)" fill="#143145"/>
        <path id="Line_155" data-name="Line 155" d="M9.877.5H0A.5.5,0,0,1-.5,0,.5.5,0,0,1,0-.5H9.877a.5.5,0,0,1,.5.5A.5.5,0,0,1,9.877.5Z" transform="translate(4132.091 1621.373)" fill="#143145"/>
        <path id="Line_156" data-name="Line 156" d="M31.317.5H0A.5.5,0,0,1-.5,0,.5.5,0,0,1,0-.5H31.317a.5.5,0,0,1,.5.5A.5.5,0,0,1,31.317.5Z" transform="translate(4097.864 1621.373)" fill="#143145"/>
        <path id="Line_157" data-name="Line 157" d="M40.154.5H0A.5.5,0,0,1-.5,0,.5.5,0,0,1,0-.5H40.154a.5.5,0,0,1,.5.5A.5.5,0,0,1,40.154.5Z" transform="translate(4054.533 1621.373)" fill="#143145"/>
        <path id="Line_158" data-name="Line 158" d="M57.631.5H0A.5.5,0,0,1-.5,0,.5.5,0,0,1,0-.5H57.631a.5.5,0,0,1,.5.5A.5.5,0,0,1,57.631.5Z" transform="translate(4084.337 1636.153)" fill="#143145"/>
        <path id="Line_159" data-name="Line 159" d="M25.287.5H0A.5.5,0,0,1-.5,0,.5.5,0,0,1,0-.5H25.287a.5.5,0,0,1,.5.5A.5.5,0,0,1,25.287.5Z" transform="translate(4054.533 1636.153)" fill="#143145"/>
        <path id="Line_160" data-name="Line 160" d="M9.08.5H0A.5.5,0,0,1-.5,0,.5.5,0,0,1,0-.5H9.08a.5.5,0,0,1,.5.5A.5.5,0,0,1,9.08.5Z" transform="translate(4132.888 1650.923)" fill="#143145"/>
        <path id="Line_161" data-name="Line 161" d="M57.054.5H0A.5.5,0,0,1-.5,0,.5.5,0,0,1,0-.5H57.054a.5.5,0,0,1,.5.5A.5.5,0,0,1,57.054.5Z" transform="translate(4071.861 1650.923)" fill="#143145"/>
        <path id="Line_162" data-name="Line 162" d="M13.619.5H0A.5.5,0,0,1-.5,0,.5.5,0,0,1,0-.5H13.619a.5.5,0,0,1,.5.5A.5.5,0,0,1,13.619.5Z" transform="translate(4054.533 1650.923)" fill="#143145"/>
      </g>
      <g id="freepik--Image--inject-2-2" data-name="freepik--Image--inject-2">
        <rect id="Rectangle_5796" data-name="Rectangle 5796" width="86.233" height="152.01" transform="translate(3871.728 1521.682)" fill="#143145"/>
        <rect id="Rectangle_5797" data-name="Rectangle 5797" width="107.35" height="152.01" transform="translate(3857 1515.523)" fill="#fff"/>
        <path id="Rectangle_5797_-_Outline" data-name="Rectangle 5797 - Outline" d="M0-.5H107.35a.5.5,0,0,1,.5.5V152.01a.5.5,0,0,1-.5.5H0a.5.5,0,0,1-.5-.5V0A.5.5,0,0,1,0-.5ZM106.85.5H.5V151.51H106.85Z" transform="translate(3857 1515.523)" fill="#263238"/>
        <rect id="Rectangle_5798" data-name="Rectangle 5798" width="90.288" height="20.657" transform="translate(3865.536 1573.026)" fill="#80ed99"/>
        <path id="Rectangle_5798_-_Outline" data-name="Rectangle 5798 - Outline" d="M0-.5H90.288a.5.5,0,0,1,.5.5V20.657a.5.5,0,0,1-.5.5H0a.5.5,0,0,1-.5-.5V0A.5.5,0,0,1,0-.5ZM89.788.5H.5V20.157H89.788Z" transform="translate(3865.536 1573.026)" fill="#263238"/>
        <path id="Line_163" data-name="Line 163" d="M5.094.5H0A.5.5,0,0,1-.5,0,.5.5,0,0,1,0-.5H5.094a.5.5,0,0,1,.5.5A.5.5,0,0,1,5.094.5Z" transform="translate(3867.674 1606.603)" fill="#143145"/>
        <path id="Line_164" data-name="Line 164" d="M30.242.5H0A.5.5,0,0,1-.5,0,.5.5,0,0,1,0-.5H30.242a.5.5,0,0,1,.5.5A.5.5,0,0,1,30.242.5Z" transform="translate(3877.816 1606.603)" fill="#143145"/>
        <path id="Line_165" data-name="Line 165" d="M22.549.5H0A.5.5,0,0,1-.5,0,.5.5,0,0,1,0-.5H22.549a.5.5,0,0,1,.5.5A.5.5,0,0,1,22.549.5Z" transform="translate(3913.372 1606.603)" fill="#143145"/>
        <path id="Line_166" data-name="Line 166" d="M13.354.5H0A.5.5,0,0,1-.5,0,.5.5,0,0,1,0-.5H13.354a.5.5,0,0,1,.5.5A.5.5,0,0,1,13.354.5Z" transform="translate(3941.755 1606.603)" fill="#143145"/>
        <path id="Line_167" data-name="Line 167" d="M9.877.5H0A.5.5,0,0,1-.5,0,.5.5,0,0,1,0-.5H9.877a.5.5,0,0,1,.5.5A.5.5,0,0,1,9.877.5Z" transform="translate(3867.674 1621.373)" fill="#143145"/>
        <path id="Line_168" data-name="Line 168" d="M31.317.5H0A.5.5,0,0,1-.5,0,.5.5,0,0,1,0-.5H31.317a.5.5,0,0,1,.5.5A.5.5,0,0,1,31.317.5Z" transform="translate(3880.461 1621.373)" fill="#143145"/>
        <path id="Line_169" data-name="Line 169" d="M40.154.5H0A.5.5,0,0,1-.5,0,.5.5,0,0,1,0-.5H40.154a.5.5,0,0,1,.5.5A.5.5,0,0,1,40.154.5Z" transform="translate(3914.955 1621.373)" fill="#143145"/>
        <path id="Line_170" data-name="Line 170" d="M57.631.5H0A.5.5,0,0,1-.5,0,.5.5,0,0,1,0-.5H57.631a.5.5,0,0,1,.5.5A.5.5,0,0,1,57.631.5Z" transform="translate(3867.674 1636.153)" fill="#143145"/>
        <path id="Line_171" data-name="Line 171" d="M25.287.5H0A.5.5,0,0,1-.5,0,.5.5,0,0,1,0-.5H25.287a.5.5,0,0,1,.5.5A.5.5,0,0,1,25.287.5Z" transform="translate(3929.822 1636.153)" fill="#143145"/>
        <path id="Line_172" data-name="Line 172" d="M9.08.5H0A.5.5,0,0,1-.5,0,.5.5,0,0,1,0-.5H9.08a.5.5,0,0,1,.5.5A.5.5,0,0,1,9.08.5Z" transform="translate(3867.674 1650.923)" fill="#143145"/>
        <path id="Line_173" data-name="Line 173" d="M57.054.5H0A.5.5,0,0,1-.5,0,.5.5,0,0,1,0-.5H57.054a.5.5,0,0,1,.5.5A.5.5,0,0,1,57.054.5Z" transform="translate(3880.727 1650.923)" fill="#143145"/>
        <path id="Line_174" data-name="Line 174" d="M9.877.5H0A.5.5,0,0,1-.5,0,.5.5,0,0,1,0-.5H9.877a.5.5,0,0,1,.5.5A.5.5,0,0,1,9.877.5Z" transform="translate(3867.674 1528.373)" fill="#143145"/>
        <path id="Line_175" data-name="Line 175" d="M31.317.5H0A.5.5,0,0,1-.5,0,.5.5,0,0,1,0-.5H31.317a.5.5,0,0,1,.5.5A.5.5,0,0,1,31.317.5Z" transform="translate(3880.461 1528.373)" fill="#143145"/>
        <path id="Line_176" data-name="Line 176" d="M40.154.5H0A.5.5,0,0,1-.5,0,.5.5,0,0,1,0-.5H40.154a.5.5,0,0,1,.5.5A.5.5,0,0,1,40.154.5Z" transform="translate(3914.955 1528.373)" fill="#143145"/>
        <path id="Line_177" data-name="Line 177" d="M57.631.5H0A.5.5,0,0,1-.5,0,.5.5,0,0,1,0-.5H57.631a.5.5,0,0,1,.5.5A.5.5,0,0,1,57.631.5Z" transform="translate(3867.674 1543.153)" fill="#143145"/>
        <path id="Line_178" data-name="Line 178" d="M25.287.5H0A.5.5,0,0,1-.5,0,.5.5,0,0,1,0-.5H25.287a.5.5,0,0,1,.5.5A.5.5,0,0,1,25.287.5Z" transform="translate(3929.822 1543.153)" fill="#143145"/>
        <path id="Line_179" data-name="Line 179" d="M9.08.5H0A.5.5,0,0,1-.5,0,.5.5,0,0,1,0-.5H9.08a.5.5,0,0,1,.5.5A.5.5,0,0,1,9.08.5Z" transform="translate(3867.674 1557.923)" fill="#143145"/>
        <path id="Line_180" data-name="Line 180" d="M57.054.5H0A.5.5,0,0,1-.5,0,.5.5,0,0,1,0-.5H57.054a.5.5,0,0,1,.5.5A.5.5,0,0,1,57.054.5Z" transform="translate(3880.727 1557.923)" fill="#143145"/>
      </g>
      <g id="freepik--Documents--inject-2">
        <path id="Path_101641" data-name="Path 101641" d="M4189,1771.639v72.184h-56.771v-13.355h-24.4v-79.929h34.8l8.1,7.746v5.618h30.185Z" fill="#143145"/>
        <path id="Path_101642" data-name="Path 101642" d="M4147.126,1824.3h-56.771v-79.929h48.673l8.1,7.746Z" fill="#fff"/>
        <path id="Path_101642_-_Outline" data-name="Path 101642 - Outline" d="M4147.126,1824.8h-56.771a.5.5,0,0,1-.5-.5v-79.929a.5.5,0,0,1,.5-.5h48.673a.5.5,0,0,1,.346.139l8.1,7.746a.5.5,0,0,1,.154.361V1824.3A.5.5,0,0,1,4147.126,1824.8Zm-56.271-1h55.771v-71.47l-7.8-7.459h-47.972Z" fill="#263238"/>
        <path id="Path_101643" data-name="Path 101643" d="M4139.028,1744.372v8h8.1Z" fill="#fff"/>
        <path id="Path_101643_-_Outline" data-name="Path 101643 - Outline" d="M4139.028,1743.872a.5.5,0,0,1,.351.144l8.1,8a.5.5,0,0,1-.351.856h-8.1a.5.5,0,0,1-.5-.5v-8a.5.5,0,0,1,.5-.5Zm6.88,8-6.38-6.3v6.3Z" fill="#263238"/>
        <path id="Line_181" data-name="Line 181" d="M26.8.5H0A.5.5,0,0,1-.5,0,.5.5,0,0,1,0-.5H26.8a.5.5,0,0,1,.5.5A.5.5,0,0,1,26.8.5Z" transform="translate(4110.432 1761.875)" fill="#143145"/>
        <path id="Line_182" data-name="Line 182" d="M6.971.5H0A.5.5,0,0,1-.5,0,.5.5,0,0,1,0-.5H6.971a.5.5,0,0,1,.5.5A.5.5,0,0,1,6.971.5Z" transform="translate(4100.496 1761.875)" fill="#143145"/>
        <path id="Line_183" data-name="Line 183" d="M13.246.5H0A.5.5,0,0,1-.5,0,.5.5,0,0,1,0-.5H13.246a.5.5,0,0,1,.5.5A.5.5,0,0,1,13.246.5Z" transform="translate(4123.983 1772.922)" fill="#143145"/>
        <path id="Line_184" data-name="Line 184" d="M20.741.5H0A.5.5,0,0,1-.5,0,.5.5,0,0,1,0-.5H20.741a.5.5,0,0,1,.5.5A.5.5,0,0,1,20.741.5Z" transform="translate(4100.496 1772.922)" fill="#143145"/>
        <path id="Line_185" data-name="Line 185" d="M23.409.5H0A.5.5,0,0,1-.5,0,.5.5,0,0,1,0-.5H23.409a.5.5,0,0,1,.5.5A.5.5,0,0,1,23.409.5Z" transform="translate(4113.82 1783.969)" fill="#143145"/>
        <path id="Line_186" data-name="Line 186" d="M11.212.5H0A.5.5,0,0,1-.5,0,.5.5,0,0,1,0-.5H11.212a.5.5,0,0,1,.5.5A.5.5,0,0,1,11.212.5Z" transform="translate(4100.496 1783.969)" fill="#143145"/>
        <path id="Line_187" data-name="Line 187" d="M36.733.5H0A.5.5,0,0,1-.5,0,.5.5,0,0,1,0-.5H36.733a.5.5,0,0,1,.5.5A.5.5,0,0,1,36.733.5Z" transform="translate(4100.496 1795.017)" fill="#143145"/>
        <path id="Line_188" data-name="Line 188" d="M13.668.5H0A.5.5,0,0,1-.5,0,.5.5,0,0,1,0-.5H13.668a.5.5,0,0,1,.5.5A.5.5,0,0,1,13.668.5Z" transform="translate(4123.561 1806.064)" fill="#143145"/>
        <path id="Line_189" data-name="Line 189" d="M19.255.5H0A.5.5,0,0,1-.5,0,.5.5,0,0,1,0-.5H19.255a.5.5,0,0,1,.5.5A.5.5,0,0,1,19.255.5Z" transform="translate(4100.496 1806.064)" fill="#143145"/>
        <path id="Path_101644" data-name="Path 101644" d="M4185.4,1837.657h-56.763v-79.929h48.673l8.09,7.746Z" fill="#fff"/>
        <path id="Path_101644_-_Outline" data-name="Path 101644 - Outline" d="M4185.4,1838.157h-56.763a.5.5,0,0,1-.5-.5v-79.929a.5.5,0,0,1,.5-.5h48.673a.5.5,0,0,1,.346.139l8.09,7.746a.5.5,0,0,1,.154.361v72.184A.5.5,0,0,1,4185.4,1838.157Zm-56.263-1H4184.9v-71.47l-7.791-7.459h-47.972Z" fill="#263238"/>
        <path id="Path_101645" data-name="Path 101645" d="M4177.311,1757.728v8h8.09Z" fill="#fff"/>
        <path id="Path_101645_-_Outline" data-name="Path 101645 - Outline" d="M4177.311,1757.228a.5.5,0,0,1,.352.145l8.09,8a.5.5,0,0,1-.352.855h-8.09a.5.5,0,0,1-.5-.5v-8a.5.5,0,0,1,.5-.5Zm6.874,8-6.374-6.306v6.306Z" fill="#263238"/>
        <path id="Line_190" data-name="Line 190" d="M20.819.5H0A.5.5,0,0,1-.5,0,.5.5,0,0,1,0-.5h20.82a.5.5,0,0,1,.5.5A.5.5,0,0,1,20.819.5Z" transform="translate(4154.692 1775.238)" fill="#143145"/>
        <path id="Line_191" data-name="Line 191" d="M13.379.5H0A.5.5,0,0,1-.5,0,.5.5,0,0,1,0-.5H13.379a.5.5,0,0,1,.5.5A.5.5,0,0,1,13.379.5Z" transform="translate(4138.771 1775.238)" fill="#143145"/>
        <path id="Line_192" data-name="Line 192" d="M6.2.5H0A.5.5,0,0,1-.5,0,.5.5,0,0,1,0-.5H6.2a.5.5,0,0,1,.5.5A.5.5,0,0,1,6.2.5Z" transform="translate(4169.307 1786.285)" fill="#143145"/>
        <path id="Line_193" data-name="Line 193" d="M28.205.5H0A.5.5,0,0,1-.5,0,.5.5,0,0,1,0-.5H28.205a.5.5,0,0,1,.5.5A.5.5,0,0,1,28.205.5Z" transform="translate(4138.771 1786.285)" fill="#143145"/>
        <path id="Line_194" data-name="Line 194" d="M4.3.5H0A.5.5,0,0,1-.5,0,.5.5,0,0,1,0-.5H4.3a.5.5,0,0,1,.5.5A.5.5,0,0,1,4.3.5Z" transform="translate(4171.208 1797.333)" fill="#143145"/>
        <path id="Line_195" data-name="Line 195" d="M20.96.5H0A.5.5,0,0,1-.5,0,.5.5,0,0,1,0-.5H20.96a.5.5,0,0,1,.5.5A.5.5,0,0,1,20.96.5Z" transform="translate(4147.494 1797.333)" fill="#143145"/>
        <path id="Line_196" data-name="Line 196" d="M5.125.5H0A.5.5,0,0,1-.5,0,.5.5,0,0,1,0-.5H5.125a.5.5,0,0,1,.5.5A.5.5,0,0,1,5.125.5Z" transform="translate(4138.771 1797.333)" fill="#143145"/>
        <path id="Line_197" data-name="Line 197" d="M17.643.5H0A.5.5,0,0,1-.5,0,.5.5,0,0,1,0-.5H17.643a.5.5,0,0,1,.5.5A.5.5,0,0,1,17.643.5Z" transform="translate(4157.869 1808.38)" fill="#143145"/>
        <path id="Line_198" data-name="Line 198" d="M16.344.5H0A.5.5,0,0,1-.5,0,.5.5,0,0,1,0-.5H16.344a.5.5,0,0,1,.5.5A.5.5,0,0,1,16.344.5Z" transform="translate(4138.771 1808.38)" fill="#143145"/>
        <path id="Line_199" data-name="Line 199" d="M18.488.5H0A.5.5,0,0,1-.5,0,.5.5,0,0,1,0-.5H18.488a.5.5,0,0,1,.5.5A.5.5,0,0,1,18.488.5Z" transform="translate(4157.023 1819.427)" fill="#143145"/>
        <path id="Line_200" data-name="Line 200" d="M15.288.5H0A.5.5,0,0,1-.5,0,.5.5,0,0,1,0-.5H15.288a.5.5,0,0,1,.5.5A.5.5,0,0,1,15.288.5Z" transform="translate(4138.771 1819.427)" fill="#143145"/>
      </g>
    </g>
  </g>
</svg>
