<svg xmlns="http://www.w3.org/2000/svg" xmlns:xlink="http://www.w3.org/1999/xlink" width="400" height="141" viewBox="0 0 400 141">
  <defs>
    <clipPath id="clip-path">
      <rect id="Rectangle_5665" data-name="Rectangle 5665" width="400" height="141" transform="translate(285 2775)" fill="#7f7f7f"/>
    </clipPath>
  </defs>
  <g id="t3-i4" transform="translate(-1020 -1294)">
    <g id="Mask_Group_60" data-name="Mask Group 60" transform="translate(735 -1481)" clip-path="url(#clip-path)">
      <rect id="Rectangle_5664" data-name="Rectangle 5664" width="426.931" height="159" transform="translate(274.703 2767)" fill="#333"/>
    </g>
    <g id="Group_54203" data-name="Group 54203" transform="translate(3523 10484.11)">
      <g id="Group_54199" data-name="Group 54199" transform="translate(-2365.913 -9136.773)">
        <path id="Path_101283" data-name="Path 101283" d="M336.149,217.112c8.309-.078,16.624-.006,24.94-.06a79.3,79.3,0,0,0,8.946-.234,5.155,5.155,0,0,1-.643,1.75q-8.793,13.212-17.436,26.527a45.723,45.723,0,0,0-3.74,5.988c6.644,0,13.293.066,19.937-.036a51.154,51.154,0,0,1,.21,7.311c-11.3-.018-22.613.03-33.922-.036,7.51-11.261,14.839-22.643,22.33-33.916-6.86-.2-13.726-.048-20.587-.072-.024-2.4,0-4.816-.036-7.221m41.828,14.556q10.723.018,21.446-.012c-.649-5.075-5.405-9.572-10.666-8.959a13.738,13.738,0,0,0-10.78,8.971m-7.419-1.214c2.026-7.287,8.123-13.738,15.734-15.037,7.167-1.184,15.254,2,18.7,8.616a27.072,27.072,0,0,1,2.339,14.929c-9.945.144-19.9.054-29.846.048a12.847,12.847,0,0,0,6.2,11.237c3.62,2.375,8.195,2.086,12.307,1.629,3.181-.782,6.481-1.389,9.445-2.832-.024,1.984-.12,3.974-.174,5.958-8.021,5.652-20.148,6.271-27.88-.246-6.7-5.886-9.1-15.813-6.83-24.3m-174.769-2.128c-.373,1.064-.752,2.128-1.106,3.2,7.059.03,14.123-.09,21.182.054.132-.343.391-1.022.523-1.359a9.942,9.942,0,0,0-7.455-8.351c-5.255-1.683-10.846,1.738-13.143,6.457m-.752-10.9c7.972-6.307,20.905-3.95,26.455,4.455,3.132,5.093,3.048,11.321,2.856,17.093q-15.1-.036-30.194-.012c-.012,5.838,4.233,11.526,10.017,12.764,6.229,1.443,12.319-.926,18.3-2.357-.1,1.8-.018,3.613-.222,5.405-1.371,1.611-3.451,2.285-5.375,2.982a24.086,24.086,0,0,1-19.246-.667c-5.291-2.67-8.826-8-10.341-13.612-2.549-9.127.162-20.063,7.756-26.052" transform="translate(-186.35 -213.843)" fill="#fff"/>
        <path id="Path_101284" data-name="Path 101284" d="M264.9,219.275c2.351-1.154,4.75-2.381,7.407-2.573,5.405-.373,11.1,1.726,14.376,6.181,3.133-3.692,7.72-6.355,12.668-6.235,4.5.18,9.3,1.7,12.193,5.345,2.952,4.275,3.541,9.656,3.668,14.724-.012,7.642.018,15.29-.024,22.931-2.417-.012-4.84,0-7.257,0-.012-7.66,0-15.314-.012-22.961-.2-3.4-.517-6.974-2.351-9.939-1.287-2.074-3.92-2.832-6.229-2.784a10.931,10.931,0,0,0-9.728,10.305q.009,12.68-.006,25.366c-2.417.006-4.828.006-7.245-.018-.072-8.447.114-16.9-.09-25.342-.409-3.613-1.1-8.3-5.008-9.746-4.966-1.96-10.293,1.647-12.422,6.085.018,9.6.078,19.2,0,28.8-2.273.517-4.744.1-7.095.2q-.144-20.86-.03-41.726c2.351-.018,4.7-.006,7.047-.018.036.355.1,1.052.138,1.407" transform="translate(-214.786 -214.96)" fill="#fff"/>
        <path id="Path_101285" data-name="Path 101285" d="M370.858,232.149c-2.357,4.984-3.024,11.147-.313,16.131,1.563,2.682,4.046,5.381,7.365,5.507,3.686.451,7.119-1.623,9.554-4.215,2.489-2.7,3.259-6.493,3.295-10.053q0-6.953,0-13.907c-3.078-.156-6.157-.439-9.241-.433-4.551-.114-8.73,2.964-10.66,6.968m-.583-10.534A18.605,18.605,0,0,1,379.138,218c3.181-.613,6.391.066,9.59.138,3.138.048,6.241.607,9.379.782.006,13.666-.024,27.332.024,41-2.447,0-4.894,0-7.335-.036.018-.944.024-1.882.036-2.826-3.619,2.5-7.78,4.539-12.289,4.323a16.147,16.147,0,0,1-11.971-5.652c-8.478-9.716-6.517-26.37,3.7-34.114" transform="translate(-256.093 -215.4)" fill="#fff"/>
      </g>
      <g id="Group_54200" data-name="Group 54200" transform="translate(-2461 -9152.11)">
        <path id="Path_101286" data-name="Path 101286" d="M460.048,83.46a9.363,9.363,0,0,0-7.359-5.027,9.847,9.847,0,0,0-10.222,6.585c-.732,3.821.59,7.59,1.369,11.3,2.79,11.254,5.011,22.644,7.743,33.914.3-.863.6-1.732.821-2.621,2.458-11.775,5.2-23.5,7.932-35.214C460.964,89.487,461.57,86.192,460.048,83.46Zm-15.107,2.616a6.93,6.93,0,0,1,13.254-.321c1.726,4.237-2.1,9.3-6.59,9.127C447.216,95.082,443.515,90.25,444.942,86.076Z" transform="translate(-411.109 -78.359)" fill="#eb3635"/>
        <path id="Path_101287" data-name="Path 101287" d="M417.893,106.786a9.363,9.363,0,0,0-8.812-1.326,9.846,9.846,0,0,0-6.341,10.375c1,3.759,3.832,6.579,6.145,9.576,7.407,8.92,14.361,18.211,21.723,27.17-.105-.908-.213-1.821-.4-2.718-2.908-11.672-5.537-23.42-8.173-35.159C421.34,111.815,420.451,108.584,417.893,106.786Zm-12.465,8.926a6.93,6.93,0,0,1,11.795-6.054c3.4,3.065,2.154,9.288-1.964,11.085C411.393,122.833,405.959,120.091,405.428,115.712Z" transform="translate(-392.362 -90.922)" fill="#ef7f2b"/>
        <path id="Path_101288" data-name="Path 101288" d="M392.593,144.327a7.909,7.909,0,0,0-7.194,2.215,8.317,8.317,0,0,0-1.031,10.219c2.139,2.494,5.324,3.606,8.182,5.042,8.9,4.081,17.6,8.61,26.478,12.737-.413-.653-.828-1.308-1.3-1.922-6.484-7.822-12.784-15.8-19.086-23.776C397.057,146.894,395.2,144.76,392.593,144.327Zm-6.224,11.356a5.854,5.854,0,0,1,6.765-8.924c3.708,1.09,5.038,6.283,2.56,9.158A5.871,5.871,0,0,1,386.37,155.683Z" transform="translate(-383.084 -109.539)" fill="#f3c028"/>
        <path id="Path_101289" data-name="Path 101289" d="M472.254,114.706c-2.637,11.738-5.266,23.486-8.173,35.159-.188.9-.3,1.81-.4,2.718,7.362-8.96,14.316-18.25,21.723-27.17,2.313-3,5.142-5.817,6.145-9.576a9.847,9.847,0,0,0-6.341-10.375,9.363,9.363,0,0,0-8.812,1.326C473.836,108.584,472.948,111.815,472.254,114.706Zm6.775,6.037c-4.118-1.8-5.362-8.02-1.964-11.085a6.93,6.93,0,0,1,11.795,6.054C488.328,120.091,482.894,122.833,479.029,120.743Z" transform="translate(-421.257 -90.922)" fill="#c83b3d"/>
        <path id="Path_101290" data-name="Path 101290" d="M488.437,148.841c-6.3,7.972-12.6,15.954-19.086,23.776-.472.614-.887,1.27-1.3,1.922,8.882-4.127,17.576-8.656,26.478-12.737,2.858-1.436,6.043-2.547,8.182-5.042a8.317,8.317,0,0,0-1.031-10.219,7.91,7.91,0,0,0-7.194-2.215C491.882,144.76,490.024,146.894,488.437,148.841Zm2.949,7.076c-2.478-2.874-1.147-8.068,2.56-9.158a5.857,5.857,0,1,1-2.56,9.158Z" transform="translate(-423.328 -109.539)" fill="#903541"/>
      </g>
    </g>
  </g>
</svg>
