<svg xmlns="http://www.w3.org/2000/svg" xmlns:xlink="http://www.w3.org/1999/xlink" width="505" height="141" viewBox="0 0 505 141">
  <defs>
    <clipPath id="clip-path">
      <rect id="Rectangle_5633" data-name="Rectangle 5633" width="505" height="141" transform="translate(285 2775)" fill="#7f7f7f"/>
    </clipPath>
  </defs>
  <g id="t4-i3" transform="translate(-809 -1027)">
    <g id="Mask_Group_56" data-name="Mask Group 56" transform="translate(524 -1748)" clip-path="url(#clip-path)">
      <rect id="Rectangle_5632" data-name="Rectangle 5632" width="545" height="173" transform="translate(265 2753)" fill="#0c1824"/>
    </g>
    <g id="transistor_logos_final_horizontal-lockup" transform="translate(891 1053)">
      <path id="Path_101296" data-name="Path 101296" d="M200.512,49.175H191.7V43.8h23.688v5.375h-8.812V79.113H200.45V49.175Z" transform="translate(-71.887 -16.425)" fill="#fff"/>
      <path id="Path_101297" data-name="Path 101297" d="M245.337,64.863a16.306,16.306,0,0,0-2.875-.25c-3.937,0-6.25,2.563-6.25,7.75v12.5H230.4V60.112h5.688v3.5h.125A8.041,8.041,0,0,1,243.15,59.3a19.74,19.74,0,0,1,2.188.125Z" transform="translate(-86.4 -22.237)" fill="#fff"/>
      <path id="Path_101298" data-name="Path 101298" d="M283.125,84.9H277.5V81.775h-.125a10.43,10.43,0,0,1-8.5,4.063C263.312,85.837,257,81.4,257,72.525c0-7.875,5.562-13.125,12.313-13.125a9.916,9.916,0,0,1,8.125,4.125h.125V60.15h5.625V84.9Zm-12.75-4.187c3.813,0,7.375-3.312,7.375-8.062,0-5-3.25-8.312-7.312-8.312-5.125,0-7.563,4.125-7.563,8.188,0,4.125,2.375,8.188,7.5,8.188Z" transform="translate(-96.375 -22.275)" fill="#fff"/>
      <path id="Path_101299" data-name="Path 101299" d="M309.6,60.112h5.75v3.125h.125a8.962,8.962,0,0,1,7.563-3.937c5.125,0,9.625,3.375,9.625,11.313v14.25H326.85V70.925c0-4.25-2-6.5-5.312-6.5-3.625,0-6.125,2.562-6.125,7.375V84.925H309.6Z" transform="translate(-116.1 -22.237)" fill="#fff"/>
      <path id="Path_101300" data-name="Path 101300" d="M367.025,66.488a3.316,3.316,0,0,0-3.312-3c-2,0-3.125,1.25-3.125,2.625,0,1.5.75,2.562,5.063,4,5.313,1.687,7.188,4.438,7.188,7.937,0,4.563-3.437,7.75-9.125,7.75-5.937,0-8.875-3.25-9.312-7.875h5.375a3.782,3.782,0,0,0,4.063,3.625c2.188,0,3.438-1.375,3.438-3.062,0-1.875-1.062-3.062-5.187-4.437-4.625-1.5-7-3.812-7-7.687,0-4.063,3.188-7.063,8.438-7.063,5.313,0,8.125,3.125,8.75,7.188Z" transform="translate(-132.9 -22.237)" fill="#fff"/>
      <path id="Path_101301" data-name="Path 101301" d="M392,42.4h6.438v5.875H392Zm.313,11.375h5.813V78.588h-5.812Z" transform="translate(-147 -15.9)" fill="#fff"/>
      <path id="Path_101302" data-name="Path 101302" d="M422.925,66.488a3.316,3.316,0,0,0-3.312-3c-2,0-3.125,1.25-3.125,2.625,0,1.5.75,2.562,5.063,4,5.313,1.687,7.188,4.438,7.188,7.937,0,4.563-3.437,7.75-9.125,7.75-5.937,0-8.875-3.25-9.312-7.875h5.375a3.782,3.782,0,0,0,4.063,3.625c2.188,0,3.438-1.375,3.438-3.062,0-1.875-1.062-3.062-5.187-4.437-4.625-1.5-7-3.812-7-7.687,0-4.063,3.188-7.063,8.438-7.063,5.313,0,8.125,3.125,8.75,7.188Z" transform="translate(-153.862 -22.237)" fill="#fff"/>
      <path id="Path_101303" data-name="Path 101303" d="M443.8,55.838h3.125V47.9h5.813v7.938h6.187v4.875h-6.25V71.775c0,3.375,1.063,4.313,3.438,4.313a11.588,11.588,0,0,0,3-.437v4.688a16.791,16.791,0,0,1-4.375.563c-6.187,0-7.812-3.75-7.812-8.812V60.713H443.8Z" transform="translate(-166.425 -17.962)" fill="#fff"/>
      <path id="Path_101304" data-name="Path 101304" d="M485.35,59.3A12.825,12.825,0,0,1,498.6,72.488a13.25,13.25,0,1,1-26.5,0A12.86,12.86,0,0,1,485.35,59.3Zm0,21.312c4.375,0,7.375-3.5,7.375-8.125,0-4.375-2.812-8.062-7.375-8.062-4.437,0-7.375,3.438-7.375,8.063C477.975,77.237,481.35,80.612,485.35,80.612Z" transform="translate(-177.037 -22.237)" fill="#fff"/>
      <path id="Path_101305" data-name="Path 101305" d="M537.537,64.863a16.306,16.306,0,0,0-2.875-.25c-3.937,0-6.25,2.563-6.25,7.75v12.5H522.6V60.112h5.687v3.5h.125A8.041,8.041,0,0,1,535.35,59.3a19.74,19.74,0,0,1,2.188.125Z" transform="translate(-195.975 -22.237)" fill="#fff"/>
      <path id="Path_101306" data-name="Path 101306" d="M70.2,83.975a3,3,0,0,1-3-3V27.1a3,3,0,0,1,6,0V80.975A3.042,3.042,0,0,1,70.2,83.975Z" transform="translate(-25.2 -9.038)" fill="#fff"/>
      <path id="Path_101307" data-name="Path 101307" d="M41.575,73.2H27.2a3,3,0,0,1-3-3,2.962,2.962,0,0,1,3-3H41.575a3,3,0,0,1,0,6Z" transform="translate(-9.075 -25.2)" fill="#fff"/>
      <path id="Path_101308" data-name="Path 101308" d="M104.637,73.2H90.2a3,3,0,0,1-3-3,2.962,2.962,0,0,1,3-3h14.375a3,3,0,0,1,3,3A2.948,2.948,0,0,1,104.637,73.2Z" transform="translate(-32.7 -25.2)" fill="#fff"/>
      <path id="Path_101309" data-name="Path 101309" d="M45,90A45,45,0,1,1,90,45,45.052,45.052,0,0,1,45,90ZM45,6A39,39,0,1,0,84,45,39.05,39.05,0,0,0,45,6Z" fill="#fff"/>
    </g>
  </g>
</svg>
