<svg xmlns="http://www.w3.org/2000/svg" xmlns:xlink="http://www.w3.org/1999/xlink" width="505" height="141" viewBox="0 0 505 141">
  <defs>
    <clipPath id="clip-path">
      <rect id="Rectangle_5641" data-name="Rectangle 5641" width="505" height="141" transform="translate(285 2775)" fill="#7f7f7f"/>
    </clipPath>
  </defs>
  <g id="t4-i4" transform="translate(-284 -1283)">
    <g id="Mask_Group_59" data-name="Mask Group 59" transform="translate(-1 -1492)" clip-path="url(#clip-path)">
      <rect id="Rectangle_5640" data-name="Rectangle 5640" width="535" height="163" transform="translate(276 2763)" fill="#161f6f"/>
    </g>
    <path id="Path_101310" data-name="Path 101310" d="M29.525,38.469a1.9,1.9,0,0,1,3.79-.028c.021,1.644-.03,3.288.026,4.932a13.724,13.724,0,0,0,21.574,10.5,13.893,13.893,0,0,0,5.863-10.343c.1-1.748,0-3.5.055-5.247a1.9,1.9,0,0,1,3.782.37c-.057,2.521.187,5.075-.36,7.56A17.547,17.547,0,0,1,48.972,60.033c-.028,2.636.019,5.273-.023,7.909,2.01.066,4.025-.008,6.035.034a1.884,1.884,0,0,1-.183,3.761q-7.72,0-15.443,0a1.888,1.888,0,1,1,0-3.774c1.938,0,3.876,0,5.814,0,0-2.643,0-5.286,0-7.928A17.719,17.719,0,0,1,29.523,42.8c0-1.442-.006-2.886,0-4.329m222.284-4.495a15.042,15.042,0,0,1,6.037.219,8.422,8.422,0,0,1,4.659,3.026,9.376,9.376,0,0,1,1.778,5.2q-2.342.006-4.681,0a5.256,5.256,0,0,0-1.823-3.906,6.522,6.522,0,0,0-4.994-1.056,4.97,4.97,0,0,0-3.62,2.138,3.78,3.78,0,0,0,.143,4.225,6.036,6.036,0,0,0,2.255,1.5,30.6,30.6,0,0,0,5.205,1.367,16.6,16.6,0,0,1,4.3,1.384,6.638,6.638,0,0,1,3.194,3.576,7.216,7.216,0,0,1-.673,6.323,10.232,10.232,0,0,1-7.63,3.888c-3.175.285-6.672-.209-9.127-2.406a8.63,8.63,0,0,1-2.788-6.125c1.565.011,3.132-.03,4.7.023a4.987,4.987,0,0,0,1.88,3.84,6.86,6.86,0,0,0,4.774,1.1,5.679,5.679,0,0,0,3.965-1.744A3.717,3.717,0,0,0,259.6,52.2a5.839,5.839,0,0,0-3.454-2.093,56.771,56.771,0,0,1-8.772-2.5,6.04,6.04,0,0,1-3.067-3.68,7.313,7.313,0,0,1,1.022-6.112,9.808,9.808,0,0,1,6.478-3.835M224.39,37.656a8.677,8.677,0,0,0-6.717,5.911,15.14,15.14,0,0,0-.264,7.709,8.811,8.811,0,0,0,4.619,6.082,9.222,9.222,0,0,0,7.613.026,9.434,9.434,0,0,0,4.64-4.606,13.335,13.335,0,0,0,.773-7.332,9.253,9.253,0,0,0-3.207-5.856,9.084,9.084,0,0,0-7.457-1.934m-.185-3.771a14.96,14.96,0,0,1,8.452,1.344,13.2,13.2,0,0,1,6.222,6.755,16.759,16.759,0,0,1,.664,9.5,13.073,13.073,0,0,1-5.405,7.939,14.975,14.975,0,0,1-11.68,2.157,12.467,12.467,0,0,1-7.334-4.725A13.907,13.907,0,0,1,212.46,49.4a15.775,15.775,0,0,1,1.612-8.731,13.219,13.219,0,0,1,10.134-6.785m-45.523.025a13.713,13.713,0,0,1,6.981.756,8.147,8.147,0,0,1,4.593,5.106,11.755,11.755,0,0,1,.477,2.643c-1.563.011-3.124,0-4.687.006a5.27,5.27,0,0,0-1.787-3.876,6.165,6.165,0,0,0-4.464-1.146,5.4,5.4,0,0,0-3.837,1.723,3.739,3.739,0,0,0,.074,5,9.4,9.4,0,0,0,3.7,1.8c1.848.43,3.716.781,5.549,1.28a8.413,8.413,0,0,1,4.593,2.854,7.581,7.581,0,0,1,1.18,5.388c-.385,2.621-2.574,4.572-4.915,5.543a15.121,15.121,0,0,1-8.392.641,8.921,8.921,0,0,1-6.267-4.481,9.779,9.779,0,0,1-.988-3.816c1.555-.008,3.109.009,4.664-.009a5.379,5.379,0,0,0,1.431,3.443,6.126,6.126,0,0,0,4.727,1.563,6.042,6.042,0,0,0,4.417-1.691,3.688,3.688,0,0,0,.168-4.644,6.025,6.025,0,0,0-3.267-1.88,77.939,77.939,0,0,1-7.917-2.134,6.12,6.12,0,0,1-4-4.2,7.338,7.338,0,0,1,1-5.877,9.887,9.887,0,0,1,6.97-3.991m-29.336,3.912a9.063,9.063,0,0,0-7.513,7.326c-.605,3.322-.1,7.062,2.191,9.67a8.815,8.815,0,0,0,7.325,3.205,8.978,8.978,0,0,0,6.848-3.852,11.64,11.64,0,0,0,1.65-8.352,9.477,9.477,0,0,0-3.582-6.246,8.932,8.932,0,0,0-6.917-1.751m-6.627-1.948a13.1,13.1,0,0,1,8.793-2.017,10.914,10.914,0,0,1,8.48,5.747c.006-1.8-.038-3.6.021-5.4,1.523.028,3.049,0,4.572.017q-.006,13.631,0,27.26-2.3,0-4.593,0c0-1.823-.008-3.646,0-5.469a10.943,10.943,0,0,1-7.321,5.643,13.415,13.415,0,0,1-7.4-.56,13.07,13.07,0,0,1-7.1-7,17.477,17.477,0,0,1-.847-10.083,12.933,12.933,0,0,1,5.392-8.137m-23.075-2.053a14.148,14.148,0,0,1,9.146,2.127,12.067,12.067,0,0,1,4.5,6.635q-2.449.006-4.892,0a7.233,7.233,0,0,0-2.732-3.72,8.967,8.967,0,0,0-6.912-1.107,7.965,7.965,0,0,0-5.575,4.987,15.8,15.8,0,0,0-.654,7.76,9.11,9.11,0,0,0,3.656,6.322,9.273,9.273,0,0,0,7.994.85,6.877,6.877,0,0,0,4.223-4.551q2.446-.011,4.894,0a12.215,12.215,0,0,1-6.037,7.445,15.084,15.084,0,0,1-9.084,1.135,12.272,12.272,0,0,1-8.441-5.769,16.458,16.458,0,0,1-1.919-10.317,13.421,13.421,0,0,1,3.808-8.228,12.312,12.312,0,0,1,8.02-3.567m78.428-6.34q2.3-.006,4.593,0c.006,2.245,0,4.493,0,6.738,2.347,0,4.694,0,7.04,0,.017,1.224-.015,2.445.019,3.669-2.351.077-4.708.009-7.061.034q0,7.907,0,15.814a5.576,5.576,0,0,0,.5,3.011,2.818,2.818,0,0,0,2.27,1.024c1.439.041,2.879,0,4.321.019,0,1.231,0,2.464,0,3.7-1.685,0-3.371.013-5.055-.008a7,7,0,0,1-4.964-1.853,7.224,7.224,0,0,1-1.667-4.962c-.009-5.581,0-11.161,0-16.742-1.171,0-2.342,0-3.51,0,.021-1.239-.047-2.483.036-3.72,1.156.047,2.315.009,3.473.025.008-2.247,0-4.495,0-6.74M46.231,23.88a6.528,6.528,0,0,0-5.345,6.084c-.013,4.091,0,8.182-.006,12.275a6.307,6.307,0,0,0,.551,2.634,6.606,6.606,0,0,0,6.964,3.8,6.526,6.526,0,0,0,5.581-6.054c.021-4.091,0-8.182.011-12.274a6.324,6.324,0,0,0-.632-2.871,6.616,6.616,0,0,0-7.125-3.59m-.567-3.952a10.771,10.771,0,0,1,8.081,1.9,10.39,10.39,0,0,1,4.291,8.145q.008,6.216,0,12.434a10.3,10.3,0,0,1-3.126,7.277A10.7,10.7,0,0,1,37.726,46.51a10.346,10.346,0,0,1-.9-4.289q.006-4.793,0-9.587a18.061,18.061,0,0,1,.4-5.275,10.6,10.6,0,0,1,8.433-7.43m.143-15.7a40.543,40.543,0,0,0-19.344,5.53,40.81,40.81,0,0,0,4.212,72.614,40.736,40.736,0,0,0,38-2.868A40.779,40.779,0,0,0,45.807,4.229M45.448,0h3.069A45.02,45.02,0,1,1,3.63,56.962a45.024,45.024,0,0,1,18.5-49.481A44.921,44.921,0,0,1,45.448,0" transform="translate(402.976 1309)" fill="#fff"/>
  </g>
</svg>
