<svg xmlns="http://www.w3.org/2000/svg" width="189" height="130" viewBox="0 0 189 130">
  <g id="t5-i7" transform="translate(-1230 -1497)">
    <rect id="Rectangle_5660" data-name="Rectangle 5660" width="189" height="130" transform="translate(1230 1497)" fill="none"/>
    <g id="Image_Place_Holder" data-name="Image Place Holder" transform="translate(1230 1562)">
      <rect id="Image_Place_Holder-2" data-name="Image Place Holder" width="189" height="65" rx="10" fill="#e2fbe5"/>
    </g>
    <g id="Group_54970" data-name="Group 54970" transform="translate(-1758 1442.643)">
      <path id="Path_103330" data-name="Path 103330" d="M3141.617,63.641v65.167H3030.451V63.641a3.845,3.845,0,0,1,3.833-3.833h103.5A3.845,3.845,0,0,1,3141.617,63.641Z" transform="translate(-3.534 -3.534)" fill="#66bd7a"/>
      <path id="Path_103331" data-name="Path 103331" d="M3141.617,256.008v15.333a3.845,3.845,0,0,1-3.834,3.833h-103.5a3.845,3.845,0,0,1-3.833-3.833V256.008Z" transform="translate(-3.534 -130.734)" fill="#cfd8dc"/>
      <path id="Path_103332" data-name="Path 103332" d="M3304.15,343.807v1.917a1.916,1.916,0,0,1-1.916,1.916h-19.167a1.917,1.917,0,0,1-1.917-1.916v-1.917a11.5,11.5,0,0,1,8.625-11.116,10.968,10.968,0,0,1,2.875-.383A11.517,11.517,0,0,1,3304.15,343.807Z" transform="translate(-166.067 -180.2)" fill="#cfd8dc"/>
      <path id="Path_103333" data-name="Path 103333" d="M3095.85,234.208h88.167v7.667H3095.85Z" transform="translate(-45.933 -116.601)" fill="#d9ab3e"/>
      <path id="Path_103334" data-name="Path 103334" d="M3095.85,190.606h88.167v7.667H3095.85Z" transform="translate(-45.933 -88.333)" fill="#d9ab3e"/>
      <path id="Path_103335" data-name="Path 103335" d="M3095.85,212.406h88.167v7.667H3095.85Z" transform="translate(-45.933 -102.466)" fill="#cf5249"/>
      <path id="Path_103336" data-name="Path 103336" d="M3135.867,63.641v65.167H3030.451V63.641a3.845,3.845,0,0,1,3.833-3.833h97.75A3.844,3.844,0,0,1,3135.867,63.641Z" transform="translate(-3.534 -3.534)" fill="#80ed99"/>
      <path id="Path_103337" data-name="Path 103337" d="M3135.867,256.008v15.333a3.844,3.844,0,0,1-3.833,3.833h-97.75a3.845,3.845,0,0,1-3.833-3.833V256.008Z" transform="translate(-3.534 -130.734)" fill="#f5f5f5"/>
      <path id="Path_103338" data-name="Path 103338" d="M3298.4,344.513v1.917a1.916,1.916,0,0,1-1.917,1.916h-13.416a1.917,1.917,0,0,1-1.917-1.916v-1.917a11.5,11.5,0,0,1,8.625-11.116,11.081,11.081,0,0,1,5.252,2.99A11.4,11.4,0,0,1,3298.4,344.513Z" transform="translate(-166.067 -180.907)" fill="#cfd8dc"/>
      <path id="Path_103339" data-name="Path 103339" d="M3095.85,234.208h82.417v7.667H3095.85Z" transform="translate(-45.933 -116.601)" fill="#ffc94a"/>
      <path id="Path_103340" data-name="Path 103340" d="M3095.85,190.606h82.417v7.667H3095.85Z" transform="translate(-45.933 -88.333)" fill="#ffc94a"/>
      <path id="Path_103341" data-name="Path 103341" d="M3095.85,212.406h82.417v7.667H3095.85Z" transform="translate(-45.933 -102.466)" fill="#fb6459"/>
      <path id="Path_103342" data-name="Path 103342" d="M3150.349,305.058h26.834v15.333h-26.834Z" transform="translate(-81.266 -162.534)" fill="#80ed99"/>
      <path id="Path_103343" data-name="Path 103343" d="M3130.768,343.206h30.666a7.667,7.667,0,0,1,7.667,7.667v3.833h-46v-3.833A7.667,7.667,0,0,1,3130.768,343.206Z" transform="translate(-63.601 -187.266)" fill="#f5f5f5"/>
      <path id="Path_103344" data-name="Path 103344" d="M3184.966,81.608h46a1.917,1.917,0,0,1,1.917,1.916v26.834a1.917,1.917,0,0,1-1.917,1.916h-46a1.917,1.917,0,0,1-1.917-1.916V83.524A1.917,1.917,0,0,1,3184.966,81.608Z" transform="translate(-102.466 -17.667)" fill="#f5f5f5"/>
      <g id="Group_54969" data-name="Group 54969" transform="translate(3034.583 71.607)">
        <path id="Path_103345" data-name="Path 103345" d="M3054.167,103.408H3058a1.916,1.916,0,0,1,1.917,1.916v3.833a1.916,1.916,0,0,1-1.917,1.917h-3.833a1.917,1.917,0,0,1-1.916-1.917v-3.833A1.916,1.916,0,0,1,3054.167,103.408Z" transform="translate(-3052.251 -103.408)" fill="#cfd8dc"/>
        <path id="Path_103346" data-name="Path 103346" d="M3097.766,103.408h3.834a1.916,1.916,0,0,1,1.916,1.916v3.833a1.917,1.917,0,0,1-1.916,1.917h-3.834a1.917,1.917,0,0,1-1.917-1.917v-3.833A1.916,1.916,0,0,1,3097.766,103.408Z" transform="translate(-3080.517 -103.408)" fill="#cfd8dc"/>
        <path id="Path_103347" data-name="Path 103347" d="M3141.367,103.408h3.833a1.916,1.916,0,0,1,1.916,1.916v3.833a1.917,1.917,0,0,1-1.916,1.917h-3.833a1.916,1.916,0,0,1-1.917-1.917v-3.833A1.916,1.916,0,0,1,3141.367,103.408Z" transform="translate(-3108.784 -103.408)" fill="#cfd8dc"/>
        <path id="Path_103348" data-name="Path 103348" d="M3054.167,147.007H3058a1.916,1.916,0,0,1,1.917,1.917v3.833a1.916,1.916,0,0,1-1.917,1.916h-3.833a1.916,1.916,0,0,1-1.916-1.916v-3.833A1.917,1.917,0,0,1,3054.167,147.007Z" transform="translate(-3052.251 -131.674)" fill="#cfd8dc"/>
        <path id="Path_103349" data-name="Path 103349" d="M3097.766,147.007h3.834a1.917,1.917,0,0,1,1.916,1.917v3.833a1.917,1.917,0,0,1-1.916,1.916h-3.834a1.917,1.917,0,0,1-1.917-1.916v-3.833A1.917,1.917,0,0,1,3097.766,147.007Z" transform="translate(-3080.517 -131.674)" fill="#cfd8dc"/>
        <path id="Path_103350" data-name="Path 103350" d="M3141.367,147.007h3.833a1.917,1.917,0,0,1,1.916,1.917v3.833a1.917,1.917,0,0,1-1.916,1.916h-3.833a1.916,1.916,0,0,1-1.917-1.916v-3.833A1.916,1.916,0,0,1,3141.367,147.007Z" transform="translate(-3108.784 -131.674)" fill="#cfd8dc"/>
      </g>
      <path id="Path_103351" data-name="Path 103351" d="M3240.967,96.941a15.333,15.333,0,1,1-15.334-15.333A15.334,15.334,0,0,1,3240.967,96.941Z" transform="translate(-120.133 -17.667)" fill="#fb6459"/>
      <path id="Path_103352" data-name="Path 103352" d="M3243,106.452V118.4a.958.958,0,0,0,1.451.822l9.967-5.974a.959.959,0,0,0,0-1.644l-9.967-5.974a.959.959,0,0,0-1.451.822Z" transform="translate(-141.333 -33.153)" fill="#cfd8dc"/>
      <path id="Path_103353" data-name="Path 103353" d="M3030.451,234.208h23v7.667h-23Z" transform="translate(-3.534 -116.601)" fill="#d9ab3e"/>
      <path id="Path_103354" data-name="Path 103354" d="M3030.451,212.406h23v7.667h-23Z" transform="translate(-3.534 -102.466)" fill="#cf5249"/>
      <path id="Path_103355" data-name="Path 103355" d="M3030.451,190.606h23v7.667h-23Z" transform="translate(-3.534 -88.333)" fill="#d9ab3e"/>
      <path id="Path_103356" data-name="Path 103356" d="M3134.25,54.357h-103.5a5.75,5.75,0,0,0-5.751,5.75v80.5a5.751,5.751,0,0,0,5.751,5.75h36.416v7.667a9.594,9.594,0,0,0-9.584,9.583v3.833a1.917,1.917,0,0,0,1.917,1.917h46a1.917,1.917,0,0,0,1.917-1.917v-3.833a9.594,9.594,0,0,0-9.584-9.583v-7.667h36.416a5.751,5.751,0,0,0,5.75-5.75v-80.5A5.75,5.75,0,0,0,3134.25,54.357Zm-82.416,49.833h84.334v3.833h-84.334Zm84.334,11.5h-84.334v-3.833h84.334Zm-88.167,0h-19.166v-3.833H3048Zm0-7.667h-19.166V104.19H3048Zm-19.166,11.5H3048v3.833h-19.166Zm23,0h84.334v3.833h-84.334ZM3030.751,58.19h103.5a1.917,1.917,0,0,1,1.917,1.917v40.25H3028.833V60.107A1.917,1.917,0,0,1,3030.751,58.19Zm72.833,105.416v1.917h-42.166v-1.917a5.749,5.749,0,0,1,5.75-5.749h30.666A5.749,5.749,0,0,1,3103.583,163.607ZM3094,154.024h-23v-7.667h23Zm42.167-13.417a1.917,1.917,0,0,1-1.917,1.917h-103.5a1.917,1.917,0,0,1-1.917-1.917V127.19h107.333Z"/>
      <path id="Path_103357" data-name="Path 103357" d="M3181.433,110.657h46a3.833,3.833,0,0,0,3.833-3.833V79.99a3.833,3.833,0,0,0-3.833-3.833h-46a3.833,3.833,0,0,0-3.833,3.833v26.834A3.833,3.833,0,0,0,3181.433,110.657Zm9.584-17.25a13.417,13.417,0,1,1,13.416,13.417A13.417,13.417,0,0,1,3191.017,93.407Zm36.416-13.417v26.834h-12.182a17.208,17.208,0,0,0,0-26.834Zm-46,0h12.183a17.208,17.208,0,0,0,0,26.834h-12.183Z" transform="translate(-98.933 -14.133)"/>
      <path id="Path_103358" data-name="Path 103358" d="M3050.634,109.456h3.833a3.833,3.833,0,0,0,3.833-3.833v-3.833a3.833,3.833,0,0,0-3.833-3.833h-3.833a3.833,3.833,0,0,0-3.833,3.833v3.833A3.833,3.833,0,0,0,3050.634,109.456Zm0-7.667h3.833v3.833h-3.833Z" transform="translate(-14.134 -28.266)"/>
      <path id="Path_103359" data-name="Path 103359" d="M3090.4,105.623a3.833,3.833,0,0,0,3.833,3.833h3.834a3.833,3.833,0,0,0,3.833-3.833v-3.833a3.833,3.833,0,0,0-3.833-3.833h-3.834a3.833,3.833,0,0,0-3.833,3.833Zm3.833-3.833h3.834v3.833h-3.834Z" transform="translate(-42.4 -28.266)"/>
      <path id="Path_103360" data-name="Path 103360" d="M3134,101.789v3.833a3.834,3.834,0,0,0,3.833,3.833h3.833a3.833,3.833,0,0,0,3.833-3.833v-3.833a3.833,3.833,0,0,0-3.833-3.833h-3.833A3.834,3.834,0,0,0,3134,101.789Zm7.667,3.833h-3.833v-3.833h3.833Z" transform="translate(-70.667 -28.266)"/>
      <path id="Path_103361" data-name="Path 103361" d="M3050.634,153.058h3.833a3.833,3.833,0,0,0,3.833-3.833v-3.833a3.833,3.833,0,0,0-3.833-3.833h-3.833a3.833,3.833,0,0,0-3.833,3.833v3.833A3.833,3.833,0,0,0,3050.634,153.058Zm0-7.667h3.833v3.833h-3.833Z" transform="translate(-14.134 -56.534)"/>
      <path id="Path_103362" data-name="Path 103362" d="M3098.066,141.558h-3.834a3.833,3.833,0,0,0-3.833,3.833v3.833a3.833,3.833,0,0,0,3.833,3.833h3.834a3.833,3.833,0,0,0,3.833-3.833v-3.833A3.833,3.833,0,0,0,3098.066,141.558Zm-3.834,7.667v-3.833h3.834v3.833Z" transform="translate(-42.4 -56.534)"/>
      <path id="Path_103363" data-name="Path 103363" d="M3141.667,141.558h-3.833a3.834,3.834,0,0,0-3.833,3.833v3.833a3.834,3.834,0,0,0,3.833,3.833h3.833a3.833,3.833,0,0,0,3.833-3.833v-3.833A3.833,3.833,0,0,0,3141.667,141.558Zm-3.833,7.667v-3.833h3.833v3.833Z" transform="translate(-70.667 -56.534)"/>
      <path id="Path_103364" data-name="Path 103364" d="M3048.717,79.99h1.916a1.917,1.917,0,1,0,0-3.833h-1.916a1.917,1.917,0,1,0,0,3.833Z" transform="translate(-14.134 -14.133)"/>
      <path id="Path_103365" data-name="Path 103365" d="M3075.967,79.99h1.917a1.917,1.917,0,0,0,0-3.833h-1.917a1.917,1.917,0,0,0,0,3.833Z" transform="translate(-31.8 -14.133)"/>
      <path id="Path_103366" data-name="Path 103366" d="M3103.216,79.99h1.917a1.917,1.917,0,0,0,0-3.833h-1.917a1.917,1.917,0,1,0,0,3.833Z" transform="translate(-49.466 -14.133)"/>
      <path id="Path_103367" data-name="Path 103367" d="M3130.467,79.99h1.916a1.917,1.917,0,1,0,0-3.833h-1.916a1.917,1.917,0,1,0,0,3.833Z" transform="translate(-67.133 -14.133)"/>
      <path id="Path_103368" data-name="Path 103368" d="M3254.162,107.541a1.917,1.917,0,0,0-.929-1.642l-12.779-7.667a1.917,1.917,0,0,0-2.9,1.643v15.333a1.916,1.916,0,0,0,2.9,1.642l12.779-7.666A1.917,1.917,0,0,0,3254.162,107.541Zm-12.779,4.282v-8.563l7.138,4.281Z" transform="translate(-137.8 -28.267)"/>
      <path id="Path_103369" data-name="Path 103369" d="M3174.066,281.64h7.667a1.917,1.917,0,1,0,0-3.833h-7.667a1.917,1.917,0,1,0,0,3.833Z" transform="translate(-95.399 -144.867)"/>
      <path id="Path_103370" data-name="Path 103370" d="M3289.117,326.858a13.431,13.431,0,0,0-13.416,13.416v1.917a3.834,3.834,0,0,0,3.833,3.833H3298.7a3.833,3.833,0,0,0,3.833-3.833v-1.917A13.431,13.431,0,0,0,3289.117,326.858Zm9.583,15.333h-19.166v-1.917a9.6,9.6,0,0,1,7.667-9.391v3.642a1.917,1.917,0,0,0,3.833,0v-3.642a9.6,9.6,0,0,1,7.667,9.391Z" transform="translate(-162.534 -176.667)"/>
    </g>
  </g>
</svg>
