<svg xmlns="http://www.w3.org/2000/svg" width="142" height="140" viewBox="0 0 142 140">
  <g id="t5-i5" transform="translate(-543 -1133)">
    <rect id="Rectangle_5679" data-name="Rectangle 5679" width="142" height="140" transform="translate(543 1133)" fill="none"/>
    <g id="Group_54359" data-name="Group 54359" transform="translate(-2744.357 1848.893)">
      <path id="Path_101507" data-name="Path 101507" d="M3514.891-707.358h67.666a4.667,4.667,0,0,1,4.667,4.667v53.666a4.667,4.667,0,0,1-4.667,4.667h-67.666a4.667,4.667,0,0,1-4.667-4.667v-53.666A4.667,4.667,0,0,1,3514.891-707.358Z" transform="translate(-161.2 -6.201)" fill="#cf5249"/>
      <path id="Path_101508" data-name="Path 101508" d="M3587.224-702.691v4.667h-77v-4.667a4.681,4.681,0,0,1,4.667-4.667h67.666A4.68,4.68,0,0,1,3587.224-702.691Z" transform="translate(-161.2 -6.201)" fill="#66bd7a"/>
      <path id="Path_101509" data-name="Path 101509" d="M3587.224-511.092v4.667a4.68,4.68,0,0,1-4.667,4.667h-67.666a4.681,4.681,0,0,1-4.667-4.667v-4.667Z" transform="translate(-161.2 -148.801)" fill="#66bd7a"/>
      <path id="Path_101510" data-name="Path 101510" d="M3514.891-707.358h60.667a4.667,4.667,0,0,1,4.667,4.667v53.666a4.666,4.666,0,0,1-4.667,4.667h-60.667a4.667,4.667,0,0,1-4.667-4.667v-53.666A4.667,4.667,0,0,1,3514.891-707.358Z" transform="translate(-161.2 -6.201)" fill="#fb6459"/>
      <path id="Path_101511" data-name="Path 101511" d="M3580.224-702.691v4.667h-70v-4.667a4.681,4.681,0,0,1,4.667-4.667h60.667A4.68,4.68,0,0,1,3580.224-702.691Z" transform="translate(-161.2 -6.201)" fill="#80ed99"/>
      <path id="Path_101512" data-name="Path 101512" d="M3580.224-511.092v4.667a4.68,4.68,0,0,1-4.667,4.667h-60.667a4.681,4.681,0,0,1-4.667-4.667v-4.667Z" transform="translate(-161.2 -148.801)" fill="#80ed99"/>
      <path id="Path_101513" data-name="Path 101513" d="M3621.158-637.885v21.2a2.33,2.33,0,0,0,1.307,2.1,2.334,2.334,0,0,0,2.458-.253l14.679-11.417a2.338,2.338,0,0,0,.9-1.928,2.339,2.339,0,0,0-1.038-1.857l-14.679-9.786a2.333,2.333,0,0,0-2.4-.115A2.332,2.332,0,0,0,3621.158-637.885Z" transform="translate(-241.801 -54.98)" fill="#cfd8dc"/>
      <g id="Group_54358" data-name="Group 54358" transform="translate(3307.023 -708.892)">
        <path id="Path_101514" data-name="Path 101514" d="M3429.559-690.291a4.666,4.666,0,0,1,4.667,4.667v4.667a4.667,4.667,0,0,1-4.667,4.667,4.667,4.667,0,0,1-4.667-4.667v-4.667A4.667,4.667,0,0,1,3429.559-690.291Z" transform="translate(-3406.225 690.291)" fill="#ffc94a"/>
        <path id="Path_101515" data-name="Path 101515" d="M3361.29-622.026a4.667,4.667,0,0,1,4.667,4.667v4.667a4.667,4.667,0,0,1-4.667,4.667,4.666,4.666,0,0,1-4.667-4.667v-4.667A4.666,4.666,0,0,1,3361.29-622.026Z" transform="translate(-3356.623 640.692)" fill="#ffc94a"/>
        <path id="Path_101516" data-name="Path 101516" d="M3412.49-545.225a4.667,4.667,0,0,1,4.667,4.667v4.667a4.667,4.667,0,0,1-4.667,4.667,4.667,4.667,0,0,1-4.667-4.667v-4.667A4.668,4.668,0,0,1,3412.49-545.225Z" transform="translate(-3393.822 584.891)" fill="#ffc94a"/>
        <path id="Path_101517" data-name="Path 101517" d="M3525.225-378.426v37.333a4.68,4.68,0,0,1-4.667,4.666h-95.666v-46.666h95.666A4.68,4.68,0,0,1,3525.225-378.426Z" transform="translate(-3406.225 467.092)" fill="#80ed99"/>
      </g>
      <path id="Path_101518" data-name="Path 101518" d="M3518.225-378.426v37.333a4.68,4.68,0,0,1-4.667,4.666h-88.667v-46.666h88.667A4.68,4.68,0,0,1,3518.225-378.426Z" transform="translate(-99.201 -241.801)" fill="#c7f9cc"/>
      <path id="Path_101519" data-name="Path 101519" d="M3331.892-383.092v23.333h-35v-18.666a4.68,4.68,0,0,1,4.667-4.667Z" transform="translate(-6.201 -241.801)" fill="#c7f9cc"/>
      <path id="Path_101520" data-name="Path 101520" d="M3331.892-297.76v23.333h-30.333a4.68,4.68,0,0,1-4.667-4.667V-297.76Z" transform="translate(-6.201 -303.8)" fill="#c7f9cc"/>
      <path id="Path_101521" data-name="Path 101521" d="M3653.756-443.559a2.336,2.336,0,0,1-1.042-.234l-3.38-1.689a4.644,4.644,0,0,1-2.578-4.186v-5.558a4.666,4.666,0,0,1,4.667-4.667h4.667a4.667,4.667,0,0,1,4.667,4.667v5.558a4.645,4.645,0,0,1-2.567,4.174l-3.379,1.689A2.33,2.33,0,0,1,3653.756-443.559Z" transform="translate(-260.399 -186)" fill="#ffc94a"/>
      <path id="Path_101522" data-name="Path 101522" d="M3576.356-715.893h-67.666a7,7,0,0,0-7,7v53.666a7,7,0,0,0,7,7h67.666a7,7,0,0,0,7-7v-53.666A7,7,0,0,0,3576.356-715.893Zm-70,14h72.334v39.667h-72.334Zm2.334-9.333h67.666a2.334,2.334,0,0,1,2.334,2.334v2.333h-72.334v-2.333A2.333,2.333,0,0,1,3508.689-711.226Zm67.666,58.333h-67.666a2.333,2.333,0,0,1-2.334-2.333v-2.334h72.334v2.334A2.334,2.334,0,0,1,3576.356-652.893Z" transform="translate(-154.999)"/>
      <path id="Path_101523" data-name="Path 101523" d="M3634.557-638.173l-14.677-9.788a4.669,4.669,0,0,0-4.792-.233,4.668,4.668,0,0,0-2.465,4.116v21.2a4.667,4.667,0,0,0,2.618,4.193,4.666,4.666,0,0,0,4.916-.512l14.679-11.417a4.664,4.664,0,0,0,1.793-3.853A4.665,4.665,0,0,0,3634.557-638.173Zm-17.267,15.3v-21.2l14.679,9.784Z" transform="translate(-235.6 -48.786)"/>
      <path id="Path_101524" data-name="Path 101524" d="M3355.958-691.826a7,7,0,0,0-7-7,7,7,0,0,0-7,7h-25.667a2.333,2.333,0,0,0-2.333,2.333,2.333,2.333,0,0,0,2.333,2.334h25.667a7,7,0,0,0,7,7,7,7,0,0,0,7-7,2.334,2.334,0,0,0,2.334-2.334A2.333,2.333,0,0,0,3355.958-691.826Zm-4.666,4.667a2.333,2.333,0,0,1-2.333,2.333,2.333,2.333,0,0,1-2.334-2.333v-4.667a2.333,2.333,0,0,1,2.334-2.334,2.333,2.333,0,0,1,2.333,2.334Z" transform="translate(-18.601 -12.4)"/>
      <path id="Path_101525" data-name="Path 101525" d="M3355.958-623.56h-18.666a7,7,0,0,0-7-7,7,7,0,0,0-7,7h-7a2.333,2.333,0,0,0-2.333,2.333,2.333,2.333,0,0,0,2.333,2.334h7a7,7,0,0,0,7,7,7,7,0,0,0,7-7h18.666a2.334,2.334,0,0,0,2.334-2.334A2.333,2.333,0,0,0,3355.958-623.56Zm-23.333,4.666a2.334,2.334,0,0,1-2.334,2.334,2.334,2.334,0,0,1-2.333-2.334v-4.666a2.333,2.333,0,0,1,2.333-2.334,2.333,2.333,0,0,1,2.334,2.334Z" transform="translate(-18.601 -61.999)"/>
      <path id="Path_101526" data-name="Path 101526" d="M3358.292-544.427a2.333,2.333,0,0,0-2.334-2.333h-4.666a7,7,0,0,0-7-7,7,7,0,0,0-7,7h-21a2.333,2.333,0,0,0-2.333,2.333,2.333,2.333,0,0,0,2.333,2.334h21a7,7,0,0,0,7,7,7,7,0,0,0,7-7h4.666A2.334,2.334,0,0,0,3358.292-544.427Zm-11.667,2.334a2.333,2.333,0,0,1-2.333,2.333,2.333,2.333,0,0,1-2.334-2.333v-4.667a2.334,2.334,0,0,1,2.334-2.334,2.334,2.334,0,0,1,2.333,2.334Z" transform="translate(-18.601 -117.8)"/>
      <path id="Path_101527" data-name="Path 101527" d="M3421.357-441.227h-25.666v-3.225l2.1-1.043a4.646,4.646,0,0,0,2.567-4.174v-5.558a4.667,4.667,0,0,0-4.667-4.667h-4.667a4.666,4.666,0,0,0-4.667,4.667v5.558a4.645,4.645,0,0,0,2.566,4.174l2.1,1.043v3.225h-95.666a7,7,0,0,0-7,7v37.333a7,7,0,0,0,7,7h126a7,7,0,0,0,7-7v-37.333A7,7,0,0,0,3421.357-441.227Zm-30.333-14h4.667v5.558l-2.334,1.166-2.334-1.166Zm-98,21a2.333,2.333,0,0,1,2.334-2.334h28v18.668h-30.333Zm2.334,39.667a2.333,2.333,0,0,1-2.334-2.334v-16.333h30.333v18.666Zm128.333-2.334a2.334,2.334,0,0,1-2.334,2.334h-93.333v-42h63v14h-56a2.333,2.333,0,0,0-2.334,2.333,2.333,2.333,0,0,0,2.334,2.334h56v14h-56a2.333,2.333,0,0,0-2.334,2.333,2.333,2.333,0,0,0,2.334,2.334h56v2.333a2.334,2.334,0,0,0,2.334,2.334,2.334,2.334,0,0,0,2.334-2.334v-2.333h21a2.333,2.333,0,0,0,2.334-2.334,2.333,2.333,0,0,0-2.334-2.333h-21v-14h7a2.333,2.333,0,0,0,2.334-2.334,2.333,2.333,0,0,0-2.334-2.333h-7v-14h25.666a2.334,2.334,0,0,1,2.334,2.334Z" transform="translate(0 -186)"/>
      <path id="Path_101528" data-name="Path 101528" d="M3327.156-346.626a2.333,2.333,0,0,1-2.333,2.334,2.333,2.333,0,0,1-2.334-2.334,2.333,2.333,0,0,1,2.334-2.333A2.333,2.333,0,0,1,3327.156-346.626Z" transform="translate(-24.8 -266.6)"/>
      <path id="Path_101529" data-name="Path 101529" d="M3365.956-348.959h-7a2.333,2.333,0,0,0-2.334,2.333,2.333,2.333,0,0,0,2.334,2.334h7a2.334,2.334,0,0,0,2.334-2.334A2.333,2.333,0,0,0,3365.956-348.959Z" transform="translate(-49.6 -266.6)"/>
      <path id="Path_101530" data-name="Path 101530" d="M3327.156-261.293a2.333,2.333,0,0,1-2.333,2.333,2.333,2.333,0,0,1-2.334-2.333,2.333,2.333,0,0,1,2.334-2.334A2.333,2.333,0,0,1,3327.156-261.293Z" transform="translate(-24.8 -328.6)"/>
      <path id="Path_101531" data-name="Path 101531" d="M3365.956-263.627h-7a2.333,2.333,0,0,0-2.334,2.334,2.333,2.333,0,0,0,2.334,2.333h7a2.333,2.333,0,0,0,2.334-2.333A2.334,2.334,0,0,0,3365.956-263.627Z" transform="translate(-49.6 -328.6)"/>
      <path id="Path_101532" data-name="Path 101532" d="M3296.892-452.892v2.333a7,7,0,0,0,7,7,7,7,0,0,0,7-7v-2.333a7,7,0,0,0-7-7A7,7,0,0,0,3296.892-452.892Zm9.333,0v2.333a2.333,2.333,0,0,1-2.334,2.334,2.333,2.333,0,0,1-2.333-2.334v-2.333a2.333,2.333,0,0,1,2.333-2.334A2.333,2.333,0,0,1,3306.225-452.892Z" transform="translate(-6.201 -186)"/>
      <path id="Path_101533" data-name="Path 101533" d="M3363.623-459.893a7,7,0,0,0-7,7v2.333a7,7,0,0,0,7,7,7,7,0,0,0,7-7v-2.333A7,7,0,0,0,3363.623-459.893Zm2.333,9.333a2.333,2.333,0,0,1-2.333,2.334,2.333,2.333,0,0,1-2.334-2.334v-2.333a2.333,2.333,0,0,1,2.334-2.334,2.333,2.333,0,0,1,2.333,2.334Z" transform="translate(-49.6 -186)"/>
      <path id="Path_101534" data-name="Path 101534" d="M3491.623-443.559a7,7,0,0,0,7-7v-2.333a7,7,0,0,0-7-7,7,7,0,0,0-7,7v2.333A7,7,0,0,0,3491.623-443.559Zm-2.334-9.333a2.333,2.333,0,0,1,2.334-2.334,2.333,2.333,0,0,1,2.333,2.334v2.333a2.333,2.333,0,0,1-2.333,2.334,2.333,2.333,0,0,1-2.334-2.334Z" transform="translate(-142.6 -186)"/>
      <path id="Path_101535" data-name="Path 101535" d="M3421.024-449.025a2.333,2.333,0,0,1-2.333,2.334,2.333,2.333,0,0,1-2.334-2.334,2.333,2.333,0,0,1,2.334-2.333A2.333,2.333,0,0,1,3421.024-449.025Z" transform="translate(-93 -192.201)"/>
      <path id="Path_101536" data-name="Path 101536" d="M3421.024-423.426a2.333,2.333,0,0,1-2.333,2.333,2.333,2.333,0,0,1-2.334-2.333,2.333,2.333,0,0,1,2.334-2.334A2.333,2.333,0,0,1,3421.024-423.426Z" transform="translate(-93 -210.8)"/>
      <path id="Path_101537" data-name="Path 101537" d="M3446.625-443.558a2.333,2.333,0,0,0,2.333-2.334v-11.666a2.332,2.332,0,0,0-1.439-2.155,2.333,2.333,0,0,0-2.543.505l-2.333,2.334a2.332,2.332,0,0,0-.506,2.542,2.336,2.336,0,0,0,2.156,1.441v7A2.334,2.334,0,0,0,3446.625-443.558Z" transform="translate(-111.601 -186.001)"/>
      <path id="Path_101538" data-name="Path 101538" d="M3455.156-355.16a2.333,2.333,0,0,1-2.333,2.333,2.333,2.333,0,0,1-2.334-2.333,2.333,2.333,0,0,1,2.334-2.334A2.333,2.333,0,0,1,3455.156-355.16Z" transform="translate(-117.8 -260.399)"/>
      <path id="Path_101539" data-name="Path 101539" d="M3549.024-355.16a2.333,2.333,0,0,1-2.333,2.333,2.333,2.333,0,0,1-2.334-2.333,2.333,2.333,0,0,1,2.334-2.334A2.333,2.333,0,0,1,3549.024-355.16Z" transform="translate(-186 -260.399)"/>
      <path id="Path_101540" data-name="Path 101540" d="M3506.356-286.892a2.334,2.334,0,0,1-2.333,2.334,2.334,2.334,0,0,1-2.334-2.334,2.333,2.333,0,0,1,2.334-2.333A2.333,2.333,0,0,1,3506.356-286.892Z" transform="translate(-154.999 -310.001)"/>
      <path id="Path_101541" data-name="Path 101541" d="M3600.223-286.892a2.334,2.334,0,0,1-2.333,2.334,2.334,2.334,0,0,1-2.334-2.334,2.333,2.333,0,0,1,2.334-2.333A2.333,2.333,0,0,1,3600.223-286.892Z" transform="translate(-223.199 -310.001)"/>
      <path id="Path_101542" data-name="Path 101542" d="M3574.625-355.16a2.333,2.333,0,0,1-2.334,2.333,2.333,2.333,0,0,1-2.333-2.333,2.333,2.333,0,0,1,2.333-2.334A2.333,2.333,0,0,1,3574.625-355.16Z" transform="translate(-204.601 -260.399)"/>
      <path id="Path_101543" data-name="Path 101543" d="M3634.356-355.16a2.333,2.333,0,0,1-2.333,2.333,2.333,2.333,0,0,1-2.334-2.333,2.333,2.333,0,0,1,2.334-2.334A2.333,2.333,0,0,1,3634.356-355.16Z" transform="translate(-247.999 -260.399)"/>
      <path id="Path_101544" data-name="Path 101544" d="M3702.625-355.16a2.333,2.333,0,0,1-2.334,2.333,2.333,2.333,0,0,1-2.333-2.333,2.333,2.333,0,0,1,2.333-2.334A2.333,2.333,0,0,1,3702.625-355.16Z" transform="translate(-297.602 -260.399)"/>
    </g>
  </g>
</svg>
