<svg xmlns="http://www.w3.org/2000/svg" width="142" height="140" viewBox="0 0 142 140">
  <g id="t5-i6" transform="translate(-543 -1603)">
    <rect id="Rectangle_5686" data-name="Rectangle 5686" width="142" height="140" transform="translate(543 1603)" fill="none"/>
    <g id="Group_54357" data-name="Group 54357" transform="translate(-3947.357 1700.893)">
      <path id="Path_101483" data-name="Path 101483" d="M4635.227-84.691v84H4499.895v-84a4.682,4.682,0,0,1,4.668-4.667h126A4.682,4.682,0,0,1,4635.227-84.691Z" transform="translate(-6.204 -6.201)" fill="#80ed99"/>
      <g id="Group_54356" data-name="Group 54356" transform="translate(4493.691 -95.559)">
        <path id="Path_101484" data-name="Path 101484" d="M4635.227,234.908v14a4.682,4.682,0,0,1-4.668,4.667h-126a4.682,4.682,0,0,1-4.668-4.667v-14Z" transform="translate(-4499.895 -146.241)" fill="#cfd8dc"/>
        <path id="Path_101485" data-name="Path 101485" d="M4920.422,351.306v2.334a2.332,2.332,0,0,1-2.332,2.333h-23.332a2.332,2.332,0,0,1-2.332-2.333v-2.334a14,14,0,0,1,10.5-13.533,13.407,13.407,0,0,1,3.5-.467A14.013,14.013,0,0,1,4920.422,351.306Z" transform="translate(-4785.092 -220.64)" fill="#cfd8dc"/>
        <path id="Path_101486" data-name="Path 101486" d="M4628.23-84.691v84H4499.895v-84a4.682,4.682,0,0,1,4.668-4.667h119A4.688,4.688,0,0,1,4628.23-84.691Z" transform="translate(-4499.895 89.358)" fill="#c7f9cc"/>
      </g>
      <path id="Path_101487" data-name="Path 101487" d="M4628.23,234.908v14a4.688,4.688,0,0,1-4.672,4.667h-119a4.682,4.682,0,0,1-4.668-4.667v-14Z" transform="translate(-6.204 -241.801)" fill="#f5f5f5"/>
      <path id="Path_101488" data-name="Path 101488" d="M4913.426,352.546v2.334a2.332,2.332,0,0,1-2.332,2.333h-16.336a2.332,2.332,0,0,1-2.332-2.333v-2.334a14,14,0,0,1,10.5-13.533,13.519,13.519,0,0,1,6.4,3.64A13.874,13.874,0,0,1,4913.426,352.546Z" transform="translate(-291.402 -317.439)" fill="#f5f5f5"/>
      <path id="Path_101489" data-name="Path 101489" d="M4551.09-38.158h14v14h-14Z" transform="translate(-43.399 -43.401)" fill="#ffc94a"/>
      <path id="Path_101490" data-name="Path 101490" d="M4551.09,13.041h14v14h-14Z" transform="translate(-43.399 -80.601)" fill="#fb6459"/>
      <path id="Path_101491" data-name="Path 101491" d="M4551.09,64.24h14v14h-14Z" transform="translate(-43.399 -117.8)" fill="#ffc94a"/>
      <path id="Path_101492" data-name="Path 101492" d="M4551.09,115.439h14v14h-14Z" transform="translate(-43.399 -154.999)" fill="#fb6459"/>
      <path id="Path_101493" data-name="Path 101493" d="M4892.426-38.158h14v14h-14Z" transform="translate(-291.402 -43.401)" fill="#fb6459"/>
      <path id="Path_101494" data-name="Path 101494" d="M4892.426,13.041h14v14h-14Z" transform="translate(-291.402 -80.601)" fill="#ffc94a"/>
      <path id="Path_101495" data-name="Path 101495" d="M4892.426,64.24h14v14h-14Z" transform="translate(-291.402 -117.8)" fill="#fb6459"/>
      <path id="Path_101496" data-name="Path 101496" d="M4892.426,115.439h14v14h-14Z" transform="translate(-291.402 -154.999)" fill="#ffc94a"/>
      <path id="Path_101497" data-name="Path 101497" d="M4602.293-38.158h79.336v56h-79.336Z" transform="translate(-80.602 -43.401)" fill="#f5f5f5"/>
      <path id="Path_101498" data-name="Path 101498" d="M4687.621,294.642h32.668v18.667h-32.668Z" transform="translate(-142.598 -285.201)" fill="#80ed99"/>
      <path id="Path_101499" data-name="Path 101499" d="M4654.289,354.373h37.332a9.331,9.331,0,0,1,9.332,9.333v4.667h-56v-4.667A9.331,9.331,0,0,1,4654.289,354.373Z" transform="translate(-111.6 -328.599)" fill="#f5f5f5"/>
      <path id="Path_101500" data-name="Path 101500" d="M4700.953-10.159a28,28,0,0,1-28,28,28,28,0,0,1-28-28,28,28,0,0,1,28-28A28,28,0,0,1,4700.953-10.159Z" transform="translate(-111.6 -43.401)" fill="#fb6459"/>
      <path id="Path_101501" data-name="Path 101501" d="M4721.754,27.343V44.47a2.68,2.68,0,0,0,4.1,2.272l13.7-8.563a2.677,2.677,0,0,0,0-4.545l-13.7-8.561a2.68,2.68,0,0,0-4.1,2.27Z" transform="translate(-167.397 -89.046)" fill="#cfd8dc"/>
      <path id="Path_101502" data-name="Path 101502" d="M4624.355-97.893h-126a7,7,0,0,0-7,7v98a7,7,0,0,0,7,7h44.332v9.333a11.675,11.675,0,0,0-11.664,11.666v4.666a2.332,2.332,0,0,0,2.332,2.334h56a2.335,2.335,0,0,0,2.336-2.334V35.107a11.678,11.678,0,0,0-11.668-11.666V14.108h44.332a7,7,0,0,0,7-7v-98A7,7,0,0,0,4624.355-97.893Zm-128.328,7a2.332,2.332,0,0,1,2.332-2.334h126a2.335,2.335,0,0,1,2.336,2.334V-9.227H4496.027Zm91,126V37.44h-51.34V35.107a7,7,0,0,1,7-7h37.332A7,7,0,0,1,4587.027,35.107Zm-11.668-11.666h-28V14.108h28Zm51.332-16.334a2.336,2.336,0,0,1-2.336,2.334h-126a2.333,2.333,0,0,1-2.332-2.334V-4.56h130.664Z" transform="translate(-0.002 0)"/>
      <path id="Path_101503" data-name="Path 101503" d="M4724.086,265.172h9.336a2.333,2.333,0,1,0,0-4.667h-9.336a2.333,2.333,0,0,0,0,4.667Z" transform="translate(-167.397 -260.399)"/>
      <path id="Path_101504" data-name="Path 101504" d="M4900.227,328.775a16.347,16.347,0,0,0-16.332,16.333v2.334a4.667,4.667,0,0,0,4.668,4.667h23.328a4.667,4.667,0,0,0,4.668-4.667v-2.334A16.347,16.347,0,0,0,4900.227,328.775Zm11.664,18.667h-23.328v-2.334a11.682,11.682,0,0,1,9.332-11.433v4.434a2.332,2.332,0,1,0,4.664,0v-4.434a11.682,11.682,0,0,1,9.332,11.433Z" transform="translate(-285.204 -310.001)"/>
      <path id="Path_101505" data-name="Path 101505" d="M4715.809,51.172a5.01,5.01,0,0,0,5.082-.133l13.7-8.567a5.011,5.011,0,0,0,0-8.5l-13.7-8.563a5.01,5.01,0,0,0-7.664,4.257V46.788A5,5,0,0,0,4715.809,51.172Zm2.082-21.511a.313.313,0,0,1,.18-.3.315.315,0,0,1,.352.01l13.7,8.563a.311.311,0,0,1,.16.292.316.316,0,0,1-.16.294l-13.7,8.563a.332.332,0,0,1-.352,0,.322.322,0,0,1-.18-.294Z" transform="translate(-161.203 -89.031)"/>
      <path id="Path_101506" data-name="Path 101506" d="M4652.227-63.76a2.335,2.335,0,0,0-2.336,2.334v4.667h-9.332v-4.667a2.332,2.332,0,0,0-2.332-2.334,2.332,2.332,0,0,0-2.332,2.334v4.667h-74.672v-4.667a2.332,2.332,0,0,0-2.332-2.334,2.332,2.332,0,0,0-2.332,2.334v4.667h-9.332v-4.667a2.335,2.335,0,0,0-2.336-2.334,2.332,2.332,0,0,0-2.332,2.334v70a2.334,2.334,0,0,0,4.668,0V3.907h9.332V8.574a2.332,2.332,0,1,0,4.664,0V3.907h74.672V8.574a2.332,2.332,0,1,0,4.664,0V3.907h9.332V8.574a2.334,2.334,0,0,0,4.668,0v-70A2.332,2.332,0,0,0,4652.227-63.76Zm-11.668,25.667h9.332v9.333h-9.332Zm0,14h9.332v9.333h-9.332Zm9.332-18.666h-9.332v-9.333h9.332Zm-93.332,14h-9.332v-9.333h9.332Zm-9.332,4.667h9.332v9.333h-9.332Zm9.332-28v9.333h-9.332v-9.333Zm-9.332,42h9.332V-.759h-9.332Zm14,9.334V-52.093h21.238a30.252,30.252,0,0,0-14.246,25.667A30.255,30.255,0,0,0,4582.461-.759Zm37.336-51.333a25.667,25.667,0,0,1,25.668,25.667A25.668,25.668,0,0,1,4598.559-.759a25.668,25.668,0,0,1-25.668-25.667A25.7,25.7,0,0,1,4598.559-52.093Zm30.332,25.667a30.311,30.311,0,0,0-14.234-25.667h21.238V-.759h-21.238A30.312,30.312,0,0,0,4628.891-26.426ZM4640.559-.759v-9.334h9.332V-.759Z" transform="translate(-37.202 -24.8)"/>
    </g>
  </g>
</svg>
