<svg xmlns="http://www.w3.org/2000/svg" width="142" height="140" viewBox="0 0 142 140">
  <g id="t5-i4" transform="translate(-543 -663)">
    <rect id="Rectangle_5674" data-name="Rectangle 5674" width="142" height="140" transform="translate(543 663)" fill="none"/>
    <g id="Group_54360" data-name="Group 54360" transform="translate(-3556.357 175.895)">
      <path id="Path_101545" data-name="Path 101545" d="M4244.843,680.572H4125.19a4.642,4.642,0,0,1-4.2-6.649c14.84-31.361,9.894-81.691,10.361-110.017h107.333c.467,28.326-4.48,78.656,10.361,110.017a4.642,4.642,0,0,1-4.2,6.649Z" transform="translate(-14.66 -55.801)" fill="#66bd7a"/>
      <path id="Path_101546" data-name="Path 101546" d="M4239.337,680.572H4125.19a4.642,4.642,0,0,1-4.2-6.649c14.84-31.361,9.894-81.691,10.361-110.017h101.826c.467,28.326-4.48,78.656,10.36,110.017a4.65,4.65,0,0,1-4.2,6.649Z" transform="translate(-14.66 -55.801)" fill="#80ed99"/>
      <path id="Path_101547" data-name="Path 101547" d="M4267.58,680.572h-95.246c-2.726,0-4.513-3.55-3.348-6.647,11.809-31.367,7.877-81.685,8.25-110.019h85.443c.373,28.334-3.559,78.652,8.25,110.019C4272.093,677.022,4270.306,680.572,4267.58,680.572Z" transform="translate(-49.6 -55.801)" fill="#c7f9cc"/>
      <path id="Path_101548" data-name="Path 101548" d="M4272.43,828.437h-5.273a4.667,4.667,0,0,0,0,9.333h42a4.667,4.667,0,0,0,0-9.333Z" transform="translate(-117.8 -247.999)" fill="#ffc94a"/>
      <path id="Path_101549" data-name="Path 101549" d="M4244.224,534.44a4.7,4.7,0,0,1-4.667,4.667h-126a4.681,4.681,0,0,1-4.667-4.667,4.7,4.7,0,0,1,4.667-4.667h126A4.68,4.68,0,0,1,4244.224,534.44Z" transform="translate(-6.201 -31.001)" fill="#cfd8dc"/>
      <path id="Path_101550" data-name="Path 101550" d="M4237.225,534.44a4.7,4.7,0,0,1-4.667,4.667h-119a4.681,4.681,0,0,1-4.667-4.667,4.7,4.7,0,0,1,4.667-4.667h119A4.68,4.68,0,0,1,4237.225,534.44Z" transform="translate(-6.201 -31.001)" fill="#f5f5f5"/>
      <path id="Path_101551" data-name="Path 101551" d="M4326.891,495.64h9.333a4.667,4.667,0,0,1,4.667,4.667v7h-18.667v-7A4.667,4.667,0,0,1,4326.891,495.64Z" transform="translate(-161.2 -6.201)" fill="#cfd8dc"/>
      <path id="Path_101552" data-name="Path 101552" d="M4337.023,609.706a11.667,11.667,0,1,1-11.667-11.667A11.667,11.667,0,0,1,4337.023,609.706Z" transform="translate(-154.999 -80.6)" fill="#ffaa89"/>
      <path id="Path_101553" data-name="Path 101553" d="M4330.756,760.172v10.01a63.375,63.375,0,0,0,.606,8.656" transform="translate(-167.399 -198.4)" fill="#84b5cb"/>
      <path id="Path_101554" data-name="Path 101554" d="M4380.347,760.172v10.01a63.375,63.375,0,0,1-.606,8.656" transform="translate(-202.989 -198.4)" fill="#84b5cb"/>
      <path id="Path_101555" data-name="Path 101555" d="M4329.29,724.5v14.677a64.579,64.579,0,0,1-1.237,12.53l-.35,1.773a4.6,4.6,0,0,1-3.733,3.617,4.33,4.33,0,0,1-.77.069,4.562,4.562,0,0,1-4.574-4.549,4.008,4.008,0,0,1,.094-.91c.256-1.284.466-2.59.63-3.874h-1.728a4.667,4.667,0,1,1-9.333,0h-1.728l.63,3.874a4.008,4.008,0,0,1,.094.91,4.562,4.562,0,0,1-4.574,4.549,4.33,4.33,0,0,1-.77-.069,4.6,4.6,0,0,1-3.733-3.617l-.35-1.773a64.579,64.579,0,0,1-1.237-12.53V724.5a7,7,0,0,1,7-7h18.667A7,7,0,0,1,4329.29,724.5Z" transform="translate(-142.6 -167.399)" fill="#fb6459"/>
      <path id="Path_101556" data-name="Path 101556" d="M4327.093,833.1v23.334a4.68,4.68,0,0,1-4.667,4.667h-.327a4.645,4.645,0,0,1-4.643-4.34L4316.08,837.7a4.33,4.33,0,0,0,.77.069,4.562,4.562,0,0,0,4.574-4.549,4.008,4.008,0,0,0-.094-.91l-.63-3.874h1.728A4.681,4.681,0,0,1,4327.093,833.1Z" transform="translate(-156.736 -247.999)" fill="#22577a"/>
      <path id="Path_101557" data-name="Path 101557" d="M4367.37,837.7l-1.377,19.064a4.645,4.645,0,0,1-4.643,4.34h-.327a4.68,4.68,0,0,1-4.667-4.667V833.1a4.681,4.681,0,0,1,4.667-4.667h1.728c-.164,1.284-.374,2.59-.63,3.874a4.008,4.008,0,0,0-.094.91,4.562,4.562,0,0,0,4.574,4.549A4.33,4.33,0,0,0,4367.37,837.7Z" transform="translate(-186 -247.999)" fill="#22577a"/>
      <path id="Path_101558" data-name="Path 101558" d="M4222.156,526.772a2.334,2.334,0,0,1-2.334-2.333v-35a2.334,2.334,0,1,1,4.667,0v35A2.334,2.334,0,0,1,4222.156,526.772Z" transform="translate(-86.799)" fill="#e6e7e8"/>
      <path id="Path_101559" data-name="Path 101559" d="M4478.156,543.105a2.334,2.334,0,0,1-2.334-2.334V489.439a2.334,2.334,0,1,1,4.667,0v51.333A2.334,2.334,0,0,1,4478.156,543.105Z" transform="translate(-272.799)" fill="#e6e7e8"/>
      <path id="Path_101560" data-name="Path 101560" d="M4208.267,623.886l1.594,3.227a1.169,1.169,0,0,0,.878.637l3.558.518a1.167,1.167,0,0,1,.648,1.99l-2.566,2.511a1.167,1.167,0,0,0-.335,1.032l.6,3.542a1.166,1.166,0,0,1-1.692,1.231l-3.183-1.675a1.165,1.165,0,0,0-1.087,0l-3.182,1.675a1.165,1.165,0,0,1-1.694-1.231l.608-3.545a1.162,1.162,0,0,0-.336-1.031l-2.567-2.511a1.167,1.167,0,0,1,.633-1.988l3.559-.518a1.168,1.168,0,0,0,.877-.637l1.594-3.227a1.166,1.166,0,0,1,2.1,0Z" transform="translate(-71.783 -98.903)" fill="#ffc94a"/>
      <path id="Path_101561" data-name="Path 101561" d="M4464.267,692.152l1.594,3.227a1.163,1.163,0,0,0,.878.637l3.558.518a1.167,1.167,0,0,1,.648,1.991l-2.566,2.51a1.166,1.166,0,0,0-.335,1.032l.6,3.542a1.166,1.166,0,0,1-1.692,1.232l-3.183-1.675a1.165,1.165,0,0,0-1.087,0l-3.182,1.675a1.165,1.165,0,0,1-1.694-1.232l.608-3.544a1.164,1.164,0,0,0-.336-1.032l-2.567-2.51a1.168,1.168,0,0,1,.633-1.989l3.559-.518a1.162,1.162,0,0,0,.877-.637l1.594-3.227a1.167,1.167,0,0,1,2.1,0Z" transform="translate(-257.783 -148.503)" fill="#ffc94a"/>
      <path id="Path_101562" data-name="Path 101562" d="M4233.356,496.438H4207.69v-7a2.334,2.334,0,1,0-4.667,0v7h-21v-2.333a7,7,0,0,0-7-7h-9.333a7,7,0,0,0-7,7v2.333h-21v-7a2.334,2.334,0,1,0-4.667,0v7h-25.666a7,7,0,1,0,0,14h6.983c-.035,5.283.069,11.2.191,17.48.526,27.32,1.253,64.745-10.318,89.21a6.986,6.986,0,0,0,6.317,9.977h119.652a6.986,6.986,0,0,0,6.317-9.977c-11.571-24.465-10.844-61.89-10.318-89.21.122-6.27.233-12.2.191-17.48h6.983a7,7,0,1,0,0-14Zm-70-2.333a2.334,2.334,0,0,1,2.334-2.334h9.333a2.334,2.334,0,0,1,2.334,2.334v2.333h-14Zm-2.333,7h42v4.667H4137.69V501.1Zm-56,2.334a2.334,2.334,0,0,1,2.334-2.334h25.666v4.667h-25.666A2.333,2.333,0,0,1,4105.023,503.439Zm116.494,24.387c-.569,29.333-1.276,65.843,10.761,91.3a2.316,2.316,0,0,1-2.1,3.315H4110.531a2.318,2.318,0,0,1-2.1-3.315c12.043-25.454,11.336-61.964,10.767-91.3-.122-6.235-.234-12.168-.2-17.388h14.027V523a3.526,3.526,0,0,0-.723.955l-1.32,2.677-2.952.43a3.5,3.5,0,0,0-1.94,5.969l2.135,2.081-.5,2.941a3.5,3.5,0,0,0,5.068,3.691l2.644-1.4,2.64,1.386a3.5,3.5,0,0,0,5.08-3.687l-.5-2.943,2.135-2.078a3.5,3.5,0,0,0-1.939-5.971l-2.952-.43-1.321-2.677a3.481,3.481,0,0,0-.887-1.089V510.438h65.337v30.333a2.327,2.327,0,0,0,.155.764,3.462,3.462,0,0,0-.878,1.082l-1.32,2.677-2.952.429a3.5,3.5,0,0,0-1.94,5.969l2.135,2.081-.5,2.94a3.5,3.5,0,0,0,5.068,3.691l2.644-1.4,2.64,1.386a3.5,3.5,0,0,0,5.08-3.687l-.5-2.941,2.135-2.08a3.5,3.5,0,0,0-1.939-5.971l-2.952-.429-1.321-2.677a3.454,3.454,0,0,0-1.017-1.2,2.248,2.248,0,0,0,.135-.638V510.438h14.028C4221.751,515.658,4221.639,521.591,4221.518,527.826Zm-83.568,7.467.207,1.215-1.082-.569a3.476,3.476,0,0,0-3.267,0l-1.094.574.207-1.208a3.488,3.488,0,0,0-1-3.1l-.882-.861,1.235-.177a3.5,3.5,0,0,0,2.62-1.913l.546-1.105.544,1.1a3.5,3.5,0,0,0,2.637,1.917l1.22.177-.884.861a3.5,3.5,0,0,0-1,3.09Zm70,18.666.207,1.216-1.082-.569a3.475,3.475,0,0,0-3.267,0l-1.094.575.207-1.209a3.486,3.486,0,0,0-1-3.1l-.882-.861,1.235-.177a3.5,3.5,0,0,0,2.62-1.914l.546-1.106.544,1.1a3.5,3.5,0,0,0,2.637,1.918l1.22.177-.884.861a3.5,3.5,0,0,0-1,3.089Zm25.407-48.188H4207.69V501.1h25.666a2.333,2.333,0,1,1,0,4.667Z"/>
      <path id="Path_101563" data-name="Path 101563" d="M4319.158,617.5a14,14,0,1,0-14-14A14,14,0,0,0,4319.158,617.5Zm0-23.334a9.334,9.334,0,1,1-9.333,9.334A9.334,9.334,0,0,1,4319.158,594.171Z" transform="translate(-148.801 -74.399)"/>
      <path id="Path_101564" data-name="Path 101564" d="M4302.959,739.306h-2.642c.2-2.1.308-4.2.308-6.319V718.305a9.333,9.333,0,0,0-9.333-9.333h-18.667a9.333,9.333,0,0,0-9.333,9.333v14.681c0,2.1.107,4.219.308,6.319h-2.642a6.983,6.983,0,0,0-2.333,13.57v19.1a2.333,2.333,0,1,0,4.667,0V753.305h5.488l1.213,16.814a7,7,0,0,0,6.972,6.519h.327a6.892,6.892,0,0,1,9.333,0h.327a7,7,0,0,0,6.969-6.5l1.215-16.828h5.488v18.667a2.333,2.333,0,1,0,4.667,0V752.883a6.643,6.643,0,0,0,2.583-1.615,6.855,6.855,0,0,0,2.083-4.963,7,7,0,0,0-7-7Zm-35-21a4.666,4.666,0,0,1,4.666-4.666h18.667a4.666,4.666,0,0,1,4.666,4.666v14.681a61.534,61.534,0,0,1-1.194,12.059l-.358,1.795a2.246,2.246,0,0,1-2.2,1.8,2.216,2.216,0,0,1-1.734-.821,2.244,2.244,0,0,1-.467-1.867,66.3,66.3,0,0,0,1.289-12.964V722.972a2.333,2.333,0,0,0-4.667,0v10.015a61.26,61.26,0,0,1-.336,6.354,6.145,6.145,0,0,1-8.66,0,61.26,61.26,0,0,1-.336-6.354V722.972a2.333,2.333,0,0,0-4.667,0v10.015a66.253,66.253,0,0,0,1.286,12.973,2.241,2.241,0,0,1-.467,1.867,2.218,2.218,0,0,1-1.741.821,2.246,2.246,0,0,1-2.2-1.8l-.357-1.8a61.526,61.526,0,0,1-1.191-12.065Zm-8.618,26.337a2.241,2.241,0,0,1,1.617-.67h3.268c.111.662.215,1.328.347,1.986l.357,1.8a7.033,7.033,0,0,0,.259.885h-4.231a2.333,2.333,0,0,1-2.333-2.334A2.28,2.28,0,0,1,4259.341,744.642Zm17.951,27.33h-.327a2.332,2.332,0,0,1-2.316-2.177l-1.207-16.722a6.876,6.876,0,0,0,5.045-8.025c-.054-.262-.089-.526-.137-.786a2.308,2.308,0,0,1,1.275,2.043v23.334A2.333,2.333,0,0,1,4277.292,771.972Zm9.66,0h-.327a2.333,2.333,0,0,1-2.333-2.333V746.3a2.311,2.311,0,0,1,1.275-2.049c-.048.262-.083.526-.137.787a6.872,6.872,0,0,0,5.045,8.029l-1.209,16.744A2.334,2.334,0,0,1,4286.952,771.972Zm17.624-24a2.239,2.239,0,0,1-1.617.67h-4.237a6.694,6.694,0,0,0,.261-.886l.357-1.792c.133-.66.233-1.326.347-1.988h3.272a2.333,2.333,0,0,1,2.333,2.333A2.28,2.28,0,0,1,4304.576,747.969Z" transform="translate(-111.601 -161.2)"/>
    </g>
  </g>
</svg>
