<svg xmlns="http://www.w3.org/2000/svg" xmlns:xlink="http://www.w3.org/1999/xlink" width="1320" height="506.835" viewBox="0 0 1320 506.835">
  <defs>
    <linearGradient id="linear-gradient" y1="0.5" x2="0.786" y2="0.5" gradientUnits="objectBoundingBox">
      <stop offset="0" stop-color="#fff"/>
      <stop offset="1" stop-color="#d2e6ee"/>
    </linearGradient>
    <clipPath id="clip-path">
      <path id="Rectangle_652" data-name="Rectangle 652" d="M20.787,0H1299.213C1310.693,0,1320,8.4,1320,18.772V488.063c0,10.367-9.307,18.772-20.787,18.772H20.787C9.307,506.835,0,498.431,0,488.063V18.772C0,8.4,9.307,0,20.787,0Z" transform="translate(0 0)" fill="url(#linear-gradient)" style="mix-blend-mode: multiply;isolation: isolate"/>
    </clipPath>
    <linearGradient id="linear-gradient-2" x1="0.5" y1="0.235" x2="0.5" y2="1" gradientUnits="objectBoundingBox">
      <stop offset="0" stop-color="#22577a"/>
      <stop offset="1" stop-color="#38a3a5"/>
    </linearGradient>
    <linearGradient id="linear-gradient-3" x1="0.479" y1="0.047" x2="0.873" y2="0.358" gradientUnits="objectBoundingBox">
      <stop offset="0" stop-color="#c7f9cc" stop-opacity="0"/>
      <stop offset="1" stop-color="#c7f9cc" stop-opacity="0.251"/>
    </linearGradient>
    <linearGradient id="linear-gradient-4" x1="0.733" y1="0.256" x2="0.873" y2="0.358" gradientUnits="objectBoundingBox">
      <stop offset="0" stop-color="#c7f9cc" stop-opacity="0"/>
      <stop offset="1" stop-color="#c7f9cc" stop-opacity="0.2"/>
    </linearGradient>
  </defs>
  <g id="fondo-banner-principal" clip-path="url(#clip-path)">
    <g id="Group_53334" data-name="Group 53334" transform="translate(-479.695 -89.101)">
      <g id="Background" transform="translate(0 0)">
        <g id="BG_Image" data-name="BG Image">
          <path id="BG_Image-2" data-name="BG Image" d="M0,0H2042.362V723.614H0Z" fill="url(#linear-gradient-2)"/>
        </g>
      </g>
    </g>
    <g id="Group_54154" data-name="Group 54154" transform="translate(12794.667 12286.223)">
      <path id="Path_101215" data-name="Path 101215" d="M331.134,15.364H745.989L414.855,560.778H0Z" transform="translate(-12135 -12330)" fill="url(#linear-gradient-3)"/>
      <path id="Path_101217" data-name="Path 101217" d="M331.134,15.364H745.989L414.855,560.778H0Z" transform="translate(-11977.989 -12330)" fill="url(#linear-gradient-4)"/>
    </g>
    <g id="Group_54155" data-name="Group 54155" transform="translate(12259.667 12314.636)">
      <path id="Path_101215-2" data-name="Path 101215" d="M331.134,15.364H745.989L414.855,560.778H0Z" transform="translate(-12135 -12330)" fill="url(#linear-gradient-3)"/>
      <path id="Path_101217-2" data-name="Path 101217" d="M331.134,15.364H745.989L414.855,560.778H0Z" transform="translate(-11977.989 -12330)" fill="url(#linear-gradient-4)"/>
    </g>
    <g id="Group_54156" data-name="Group 54156" transform="translate(11736.863 12276.058)">
      <path id="Path_101215-3" data-name="Path 101215" d="M221.344,15.364H498.652L277.308,379.943H0Z" transform="translate(-12135 -12330)" fill="url(#linear-gradient-3)"/>
      <path id="Path_101217-3" data-name="Path 101217" d="M221.344,15.364H498.652L277.308,379.943H0Z" transform="translate(-12030.047 -12330)" fill="url(#linear-gradient-4)"/>
    </g>
  </g>
</svg>
