<svg xmlns="http://www.w3.org/2000/svg" width="372" height="484" viewBox="0 0 372 484"><defs><style>.a,.q{fill:none;}.b,.c{fill:#def6e5;}.c,.e{opacity:0.7;}.c,.e,.o{isolation:isolate;}.d{fill:#92e3a9;}.e,.h{fill:#fff;}.f,.k{fill:#133347;}.g{fill:#80ed99;}.i{fill:#ffc94a;}.j{fill:#263238;}.k,.l{opacity:0.75;}.m{fill:#22577a;}.n{fill:#5a7e96;}.p{fill:#09161f;}.q{stroke:#263238;stroke-linecap:round;stroke-miterlimit:10;}.r{fill:#b8b8b8;}</style></defs><g transform="translate(-3456.627 2758.452)"><rect class="a" width="372" height="484" transform="translate(3456.627 -2758.452)"/><g transform="translate(3456.711 -2758.143)"><path class="b" d="M3476.486-2587.461c18.686,18.714,45.126,27.608,68.219,39.854,24.328,12.9,49.231,26.64,77.05,30.745,28.661,4.236,62.213-3.359,81.764-25.421,16.591-18.714,17.712-44.073,15.3-67.536-3.268-31.889-20.929-42.1-34.668-62.532-10.613-15.742-6.508-36.177-16.511-52.38-19.267-31.2-66.517-36.262-100.268-32.2q-2.692.319-5.363.746c-41.352,6.542-74.943,31.434-92.992,68.146a128.725,128.725,0,0,0-5.471,12.862C3452.909-2645.671,3452.892-2611.106,3476.486-2587.461Z" transform="translate(-3456.711 2758.143)"/><path class="c" d="M3476.486-2587.461c18.686,18.714,45.126,27.608,68.219,39.854,24.328,12.9,49.231,26.64,77.05,30.745,28.661,4.236,62.213-3.359,81.764-25.421,16.591-18.714,17.712-44.073,15.3-67.536-3.268-31.889-20.929-42.1-34.668-62.532-10.613-15.742-6.508-36.177-16.511-52.38-19.267-31.2-66.517-36.262-100.268-32.2q-2.692.319-5.363.746c-41.352,6.542-74.943,31.434-92.992,68.146a128.725,128.725,0,0,0-5.471,12.862C3452.909-2645.671,3452.892-2611.106,3476.486-2587.461Z" transform="translate(-3456.711 2758.143)"/></g><g transform="translate(3456.712 -2617.381)"><path class="d" d="M3818.877-2489.457a181.474,181.474,0,0,0-7.733-18.179c-25.51-51.889-72.99-87.072-131.437-96.319q-3.775-.6-7.581-1.054c-47.705-5.739-114.49,1.416-141.722,45.516-14.139,22.9-8.337,51.784-23.337,74.034-19.418,28.882-44.381,43.311-49,88.385-3.4,33.163-1.819,69.005,21.631,95.458,27.635,31.183,75.057,41.918,115.567,35.931,39.32-5.8,74.519-25.22,108.905-43.456,32.639-17.31,70.011-29.879,96.423-56.331C3833.942-2398.893,3833.917-2447.748,3818.877-2489.457Z" transform="translate(-3456.711 2606.718)"/><path class="e" d="M3818.877-2489.457a181.474,181.474,0,0,0-7.733-18.179c-25.51-51.889-72.99-87.072-131.437-96.319q-3.775-.6-7.581-1.054c-47.705-5.739-114.49,1.416-141.722,45.516-14.139,22.9-8.337,51.784-23.337,74.034-19.418,28.882-44.381,43.311-49,88.385-3.4,33.163-1.819,69.005,21.631,95.458,27.635,31.183,75.057,41.918,115.567,35.931,39.32-5.8,74.519-25.22,108.905-43.456,32.639-17.31,70.011-29.879,96.423-56.331C3833.942-2398.893,3833.917-2447.748,3818.877-2489.457Z" transform="translate(-3456.711 2606.718)"/></g><g transform="translate(3471.43 -2682.521)"><rect class="f" width="347.156" height="278.604"/><g transform="translate(5.279 4.147)"><rect class="g" width="10.878" height="10.167" transform="translate(0.465 0.465)"/><path class="g" d="M3490.032-2661.235h-11.808v-11.1h11.808Zm-10.878-.93h9.948v-9.237h-9.948Z" transform="translate(-3478.224 2672.331)"/></g><g transform="translate(20.374 13.534)"><path class="g" d="M3793.8-2661.3H3494.927a.465.465,0,0,1-.465-.465.465.465,0,0,1,.465-.465H3793.8a.464.464,0,0,1,.465.465A.465.465,0,0,1,3793.8-2661.3Z" transform="translate(-3494.463 2662.233)"/></g><g transform="translate(16.37 17.537)"><path class="g" d="M3490.621-2474.127a.465.465,0,0,1-.465-.465v-182.871a.465.465,0,0,1,.465-.465.464.464,0,0,1,.465.465v182.871A.464.464,0,0,1,3490.621-2474.127Z" transform="translate(-3490.156 2657.927)"/></g><g transform="translate(37.03 4.027)"><path class="g" d="M3512.846-2661.989a.464.464,0,0,1-.465-.465V-2672a.464.464,0,0,1,.465-.465.465.465,0,0,1,.465.465v9.541A.465.465,0,0,1,3512.846-2661.989Z" transform="translate(-3512.381 2672.46)"/></g><g transform="translate(59.745 4.027)"><path class="g" d="M3537.282-2661.989a.465.465,0,0,1-.465-.465V-2672a.465.465,0,0,1,.465-.465.464.464,0,0,1,.465.465v9.541A.464.464,0,0,1,3537.282-2661.989Z" transform="translate(-3536.817 2672.46)"/></g><g transform="translate(82.463 4.027)"><path class="g" d="M3561.72-2661.989a.465.465,0,0,1-.465-.465V-2672a.465.465,0,0,1,.465-.465.465.465,0,0,1,.465.465v9.541A.465.465,0,0,1,3561.72-2661.989Z" transform="translate(-3561.255 2672.46)"/></g><g transform="translate(105.178 4.027)"><path class="g" d="M3586.156-2661.989a.465.465,0,0,1-.465-.465V-2672a.465.465,0,0,1,.465-.465.464.464,0,0,1,.465.465v9.541A.464.464,0,0,1,3586.156-2661.989Z" transform="translate(-3585.691 2672.46)"/></g><g transform="translate(127.895 4.027)"><path class="g" d="M3610.594-2661.989a.465.465,0,0,1-.465-.465V-2672a.465.465,0,0,1,.465-.465.465.465,0,0,1,.465.465v9.541A.465.465,0,0,1,3610.594-2661.989Z" transform="translate(-3610.129 2672.46)"/></g><g transform="translate(150.611 4.027)"><path class="g" d="M3635.031-2661.989a.465.465,0,0,1-.465-.465V-2672a.465.465,0,0,1,.465-.465.464.464,0,0,1,.465.465v9.541A.464.464,0,0,1,3635.031-2661.989Z" transform="translate(-3634.566 2672.46)"/></g><g transform="translate(173.327 4.027)"><path class="g" d="M3659.468-2661.989a.465.465,0,0,1-.465-.465V-2672a.465.465,0,0,1,.465-.465.465.465,0,0,1,.465.465v9.541A.465.465,0,0,1,3659.468-2661.989Z" transform="translate(-3659.003 2672.46)"/></g><g transform="translate(196.043 4.027)"><path class="g" d="M3683.9-2661.989a.465.465,0,0,1-.465-.465V-2672a.465.465,0,0,1,.465-.465.464.464,0,0,1,.465.465v9.541A.464.464,0,0,1,3683.9-2661.989Z" transform="translate(-3683.44 2672.46)"/></g><g transform="translate(218.76 4.027)"><path class="g" d="M3708.343-2661.989a.465.465,0,0,1-.465-.465V-2672a.465.465,0,0,1,.465-.465.465.465,0,0,1,.465.465v9.541A.465.465,0,0,1,3708.343-2661.989Z" transform="translate(-3707.878 2672.46)"/></g><g transform="translate(241.476 4.027)"><path class="g" d="M3732.779-2661.989a.465.465,0,0,1-.465-.465V-2672a.465.465,0,0,1,.465-.465.464.464,0,0,1,.465.465v9.541A.464.464,0,0,1,3732.779-2661.989Z" transform="translate(-3732.314 2672.46)"/></g><g transform="translate(264.193 4.027)"><path class="g" d="M3757.217-2661.989a.465.465,0,0,1-.465-.465V-2672a.465.465,0,0,1,.465-.465.465.465,0,0,1,.465.465v9.541A.465.465,0,0,1,3757.217-2661.989Z" transform="translate(-3756.752 2672.46)"/></g><g transform="translate(286.908 4.027)"><path class="g" d="M3781.653-2661.989a.465.465,0,0,1-.465-.465V-2672a.465.465,0,0,1,.465-.465.464.464,0,0,1,.465.465v9.541A.464.464,0,0,1,3781.653-2661.989Z" transform="translate(-3781.188 2672.46)"/></g><g transform="translate(309.625 4.027)"><path class="g" d="M3806.091-2661.989a.465.465,0,0,1-.465-.465V-2672a.465.465,0,0,1,.465-.465.465.465,0,0,1,.465.465v9.541A.465.465,0,0,1,3806.091-2661.989Z" transform="translate(-3805.626 2672.46)"/></g><g transform="translate(6.085 35.11)"><path class="g" d="M3489.842-2638.092h-10.286a.464.464,0,0,1-.465-.465.464.464,0,0,1,.465-.465h10.286a.464.464,0,0,1,.465.465A.464.464,0,0,1,3489.842-2638.092Z" transform="translate(-3479.091 2639.022)"/></g><g transform="translate(6.085 57.826)"><path class="g" d="M3489.842-2613.656h-10.286a.464.464,0,0,1-.465-.465.464.464,0,0,1,.465-.465h10.286a.464.464,0,0,1,.465.465A.464.464,0,0,1,3489.842-2613.656Z" transform="translate(-3479.091 2614.585)"/></g><g transform="translate(6.085 80.543)"><path class="g" d="M3489.842-2589.219h-10.286a.464.464,0,0,1-.465-.465.464.464,0,0,1,.465-.465h10.286a.464.464,0,0,1,.465.465A.464.464,0,0,1,3489.842-2589.219Z" transform="translate(-3479.091 2590.148)"/></g><g transform="translate(6.085 103.259)"><path class="g" d="M3489.842-2564.781h-10.286a.464.464,0,0,1-.465-.465.464.464,0,0,1,.465-.465h10.286a.464.464,0,0,1,.465.465A.464.464,0,0,1,3489.842-2564.781Z" transform="translate(-3479.091 2565.711)"/></g><g transform="translate(6.085 125.975)"><path class="g" d="M3489.842-2540.344h-10.286a.464.464,0,0,1-.465-.465.464.464,0,0,1,.465-.465h10.286a.464.464,0,0,1,.465.465A.464.464,0,0,1,3489.842-2540.344Z" transform="translate(-3479.091 2541.274)"/></g><g transform="translate(6.085 148.691)"><path class="g" d="M3489.842-2515.907h-10.286a.464.464,0,0,1-.465-.465.464.464,0,0,1,.465-.465h10.286a.464.464,0,0,1,.465.465A.464.464,0,0,1,3489.842-2515.907Z" transform="translate(-3479.091 2516.837)"/></g><g transform="translate(6.085 171.407)"><path class="g" d="M3489.842-2491.47h-10.286a.464.464,0,0,1-.465-.465.464.464,0,0,1,.465-.465h10.286a.464.464,0,0,1,.465.465A.464.464,0,0,1,3489.842-2491.47Z" transform="translate(-3479.091 2492.4)"/></g><g transform="translate(6.085 194.123)"><path class="g" d="M3489.842-2467.033h-10.286a.464.464,0,0,1-.465-.465.464.464,0,0,1,.465-.465h10.286a.464.464,0,0,1,.465.465A.464.464,0,0,1,3489.842-2467.033Z" transform="translate(-3479.091 2467.963)"/></g></g><g transform="translate(3652.944 -2656.223)"><rect class="h" width="141.492" height="226.288" transform="translate(0.465 0.465)"/><path class="f" d="M3810.232-2421.285H3667.81V-2648.5h142.422Zm-141.492-.93H3809.3v-225.358H3668.74Z" transform="translate(-3667.81 2648.502)"/><g transform="translate(7.485 162.254)"><path class="h" d="M3719.757-2468.365s-19.434-1.277-27.714,3.823-11.794,14.975-12.429,24.217-3.188,30.9-3.188,30.9H3802.95s-1.594-26.445-8.281-38.232-23.9-22.288-26.446-23.256a32.723,32.723,0,0,0-17.2-2.228c-8.29,1.268-26.762,4.457-26.762,4.457" transform="translate(-3675.902 2473.921)"/><path class="f" d="M3803.4-2408.993H3675.862l.062-.519c.025-.217,2.56-21.757,3.186-30.881.765-11.14,5.376-20.1,12.65-24.58,8.311-5.119,27.189-3.943,27.989-3.891a.465.465,0,0,1,.433.495.463.463,0,0,1-.494.433c-.191-.013-19.381-1.208-27.439,3.756-7.017,4.321-11.467,13.015-12.21,23.852-.573,8.35-2.739,27.05-3.131,30.406h125.506c-.261-3.672-2.131-26.859-8.188-37.537-6.616-11.662-23.911-22.179-26.206-23.051a32.3,32.3,0,0,0-16.975-2.2c-8.183,1.252-26.563,4.423-26.748,4.455a.468.468,0,0,1-.537-.379.464.464,0,0,1,.379-.537c.184-.032,18.572-3.2,26.772-4.459a33.22,33.22,0,0,1,17.454,2.26c2.417.919,19.816,11.375,26.669,23.455,6.662,11.746,8.275,37.35,8.34,38.434Z" transform="translate(-3675.862 2473.957)"/></g><g transform="translate(68.804 15.35)"><path class="h" d="M3746.42-2625.117s7.672-9.121,29.274-5.521,24.473,38.875,20.873,46.075-12,9.842-12,9.842-12.721-27.363-27.843-35.283-14.393-12.473-14.393-12.473Z" transform="translate(-3741.862 2631.953)"/><path class="f" d="M3784.281-2574.192l-.171-.37c-.127-.271-12.83-27.311-27.637-35.067-15.242-7.984-14.668-12.758-14.636-12.958l.032-.2,4.208-2.716c.743-.839,8.683-9.122,29.659-5.625,7.149,1.192,13.064,6.017,17.107,13.955,6,11.782,6.617,27.764,4.1,32.787-3.646,7.293-11.926,9.966-12.277,10.076Zm-41.516-48.07c.112.891,1.339,5.105,14.14,11.81,14.293,7.487,26.208,31.641,27.867,35.117,1.662-.615,8.309-3.4,11.345-9.47,2.069-4.14,2.083-19.8-4.1-31.95-3.958-7.774-9.487-12.3-16.432-13.459-21.035-3.507-28.767,5.273-28.844,5.362l-.1.09Zm3.619-2.891h0Z" transform="translate(-3741.827 2631.989)"/></g><g transform="translate(68.804 15.35)"><path class="f" d="M3746.42-2625.117s7.672-9.121,29.274-5.521,24.473,38.875,20.873,46.075-12,9.842-12,9.842-12.721-27.363-27.843-35.283-14.393-12.473-14.393-12.473Z" transform="translate(-3741.862 2631.953)"/><path class="f" d="M3784.281-2574.192l-.171-.37c-.127-.271-12.83-27.311-27.637-35.067-15.242-7.984-14.668-12.758-14.636-12.958l.032-.2,4.208-2.716c.743-.839,8.683-9.122,29.659-5.625,7.149,1.192,13.064,6.017,17.107,13.955,6,11.782,6.617,27.764,4.1,32.787-3.646,7.293-11.926,9.966-12.277,10.076Zm-41.516-48.07c.112.891,1.339,5.105,14.14,11.81,14.293,7.487,26.208,31.641,27.867,35.117,1.662-.615,8.309-3.4,11.345-9.47,2.069-4.14,2.083-19.8-4.1-31.95-3.958-7.774-9.487-12.3-16.432-13.459-21.035-3.507-28.767,5.273-28.844,5.362l-.1.09Zm3.619-2.891h0Z" transform="translate(-3741.827 2631.989)"/></g><g transform="translate(10.92 20.782)"><path class="h" d="M3722.275-2453.588a28.87,28.87,0,0,0-2.571-10.2c-2.572-6.052-7.012-18.8-10.518-25.484s-6.318-18.165-6.318-18.165-7.715,1.046-12.13-2.88c-2.726-2.392-5.418-14.659-8.572-25.812s-2.572-23.9.317-27.079,1.277-9.241,1.277-12.43,2.228-7.963,10.192-22.287a75.239,75.239,0,0,1,18.165-21.979s5.417-5.418,21.987-5.735,33.131,12.1,42.372,22.939,7.964,36,4.14,45.879-26.128,36.637-28.357,43.332c-1.379,4.14-.317,8.529.695,11.272a9.9,9.9,0,0,0,2.932,4.157c2.3,1.947,7.1,6.112,15.49,13.879,12.747,11.8,18.859,19.579,18.859,19.579" transform="translate(-3679.592 2626.111)"/><path class="f" d="M3722.242-2453.159a.465.465,0,0,1-.465-.465,28.793,28.793,0,0,0-2.535-10.019c-.869-2.045-1.968-4.9-3.132-7.917-2.37-6.151-5.058-13.123-7.371-17.533-3.124-5.959-5.724-15.788-6.257-17.874-1.7.162-8.109.5-12.087-3.04-2.227-1.953-4.29-9.662-6.681-18.588-.658-2.456-1.333-4.977-2.03-7.443-3-10.6-2.8-23.979.421-27.519,2.058-2.265,1.667-6.2,1.352-9.366-.1-1.01-.2-1.964-.2-2.751,0-3.237,2.108-7.866,10.251-22.513a76.489,76.489,0,0,1,18.292-22.125c.178-.183,5.691-5.51,22.257-5.827,16.69-.3,33.474,12.244,42.736,23.1,9.456,11.088,8.106,36.31,4.219,46.348-2.047,5.288-9.121,15.068-15.963,24.526-5.842,8.077-11.36,15.705-12.386,18.786-1.317,3.949-.353,8.142.689,10.964a9.454,9.454,0,0,0,2.794,3.962c2.659,2.252,7.507,6.489,15.507,13.894,12.628,11.686,18.847,19.554,18.91,19.633a.467.467,0,0,1-.079.653.466.466,0,0,1-.653-.079c-.061-.077-6.24-7.9-18.809-19.525-7.988-7.393-12.824-11.62-15.474-13.865a10.367,10.367,0,0,1-3.067-4.352c-1.093-2.962-2.1-7.375-.7-11.581,1.07-3.216,6.629-10.9,12.515-19.036,6.489-8.971,13.845-19.141,15.85-24.317,3.716-9.6,5.025-34.753-4.062-45.409-9.127-10.7-25.577-23.1-42.009-22.776-16.134.308-21.615,5.547-21.669,5.6a75.652,75.652,0,0,0-18.087,21.875c-8.049,14.48-10.132,19.016-10.132,22.062,0,.741.093,1.672.191,2.659.333,3.346.747,7.512-1.589,10.084-2.677,2.947-3.369,15.488-.214,26.641.7,2.47,1.374,5,2.033,7.455,2.253,8.415,4.381,16.362,6.4,18.132,4.208,3.744,11.686,2.779,11.76,2.769l.416-.057.1.406c.028.115,2.839,11.5,6.277,18.059,2.34,4.459,5.036,11.458,7.416,17.632,1.16,3.012,2.256,5.857,3.119,7.887a29.115,29.115,0,0,1,2.61,10.383.466.466,0,0,1-.465.465Z" transform="translate(-3679.558 2626.146)"/></g><g transform="translate(82.482 168.623)"><path class="f" d="M3757-2464.709a.463.463,0,0,1-.191-.041.466.466,0,0,1-.232-.615c.2-.445.4-.925.6-1.438a.463.463,0,0,1,.6-.271.465.465,0,0,1,.271.6c-.2.533-.41,1.031-.619,1.494A.466.466,0,0,1,3757-2464.709Z" transform="translate(-3756.54 2467.105)"/></g><g transform="translate(53.782 172.163)"><path class="f" d="M3726.132-2424.486a.576.576,0,0,1-.079-.007.465.465,0,0,1-.38-.536,45.644,45.644,0,0,1,11.907-23.824,85.022,85.022,0,0,1,9.99-8.818c2.488-1.927,4.287-3.319,5.7-5.42a.465.465,0,0,1,.646-.125.464.464,0,0,1,.125.645c-1.5,2.224-3.346,3.656-5.9,5.636a84.178,84.178,0,0,0-9.886,8.726,44.7,44.7,0,0,0-11.663,23.336A.466.466,0,0,1,3726.132-2424.486Z" transform="translate(-3725.666 2463.297)"/></g><g transform="translate(26.959 195.703)"><path class="f" d="M3697.278-2434.859a.612.612,0,0,1-.072,0,.465.465,0,0,1-.389-.53c.113-.736.234-1.472.382-2.208a.464.464,0,0,1,.546-.364.464.464,0,0,1,.365.547c-.144.721-.263,1.443-.374,2.165A.465.465,0,0,1,3697.278-2434.859Z" transform="translate(-3696.811 2437.974)"/></g><g transform="translate(26.351 200.777)"><path class="f" d="M3698.858-2406.075a.465.465,0,0,1-.452-.358,83.848,83.848,0,0,1-2.009-25.653.464.464,0,0,1,.5-.428.464.464,0,0,1,.429.5,82.936,82.936,0,0,0,1.985,25.368.465.465,0,0,1-.345.56A.468.468,0,0,1,3698.858-2406.075Z" transform="translate(-3696.157 2432.515)"/></g><g transform="translate(33.593 135.067)"><path class="f" d="M3704.6-2498.7s1.345,5.383,3.326,10.93l1.131-1.055c3.823-3.505,19.441-12.738,19.441-12.738A71.152,71.152,0,0,1,3704.6-2498.7Z" transform="translate(-3703.994 2503.088)"/><path class="f" d="M3707.677-2487.065l-.238-.665c-1.966-5.5-3.326-10.919-3.34-10.974l-.152-.609.627.033a70.531,70.531,0,0,0,23.743-2.844l3.623-1.078-3.253,1.923c-.156.093-15.621,9.248-19.366,12.681Zm-2.519-11.257c.388,1.48,1.471,5.458,2.922,9.612l.612-.571c2.841-2.6,11.91-8.211,16.628-11.064A71.325,71.325,0,0,1,3705.158-2498.323Z" transform="translate(-3703.948 2503.203)"/></g><g transform="translate(41.044 63.673)"><path class="f" d="M3713.723-2576.3s5.392-.317,13.673,0c7.046.274,13.4,10.2,14.572,11.247.043,0-3.274-4.758-3.308-4.809-1.183-1.715-6.558-8.881-12.181-8.881-6.369,0-14.015-1.911-14.015.317S3713.723-2576.3,3713.723-2576.3Z" transform="translate(-3711.998 2579.97)"/><path class="f" d="M3742.07-2564.344l-.445-.4a14.358,14.358,0,0,1-1.2-1.415c-2.258-2.843-7.545-9.5-13.087-9.715-8.16-.312-13.574,0-13.627,0a1.452,1.452,0,0,1-1.033-.4,2.877,2.877,0,0,1-.72-2.189,1.225,1.225,0,0,1,.408-.929c.954-.865,3.329-.682,7.442-.284,2.09.2,4.457.431,6.63.431,5.994,0,11.518,7.565,12.563,9.082l.216.31c1.871,2.69,2.671,3.841,2.986,4.385l.033.031-.009.011c.208.369.173.437.113.551Zm-21.909-12.595c2.032,0,4.47.035,7.218.14,3.151.123,6.11,2.033,8.575,4.278-2.258-2.54-5.862-5.792-9.51-5.792-2.217,0-4.609-.231-6.718-.435-2.968-.287-6.036-.584-6.728.046a.294.294,0,0,0-.1.241,2.035,2.035,0,0,0,.4,1.49.554.554,0,0,0,.365.172C3713.729-2576.8,3716.151-2576.938,3720.16-2576.938Zm-6.473.6h0Z" transform="translate(-3711.963 2580.005)"/></g><g transform="translate(13.615 63.048)"><path class="f" d="M3697-2575.317a.7.7,0,0,0,.958-.218.7.7,0,0,0,.079-.562,5.212,5.212,0,0,0-4.106-3.969,13.379,13.379,0,0,0-7.646,1.277l-1.5,3.3s2.485-3.317,6-2.683A18.94,18.94,0,0,1,3697-2575.317Z" transform="translate(-3682.62 2580.643)"/><path class="f" d="M3682.456-2571.874l3.314-7.293.149-.074a13.794,13.794,0,0,1,7.912-1.322,5.683,5.683,0,0,1,4.5,4.327,1.144,1.144,0,0,1-.137.913,1.164,1.164,0,0,1-1.6.364l-.019-.013a18.423,18.423,0,0,0-6.063-2.784c-3.17-.569-5.492,2.481-5.515,2.511Zm14.639-3.867a.23.23,0,0,0,.31-.077.227.227,0,0,0,.025-.185,4.758,4.758,0,0,0-3.746-3.642,12.842,12.842,0,0,0-7.205,1.166l-.455,1a6.136,6.136,0,0,1,4.684-1.185A19.372,19.372,0,0,1,3697.1-2575.741Z" transform="translate(-3682.456 2580.677)"/></g><g transform="translate(19.081 71.441)"><path class="f" d="M3693.584-2544.592a.458.458,0,0,1-.2-.044c-.205-.1-5.052-2.4-5.052-6.473,0-3.368,2.839-5.69,6.432-8.63.744-.608,1.518-1.241,2.3-1.915,4.189-3.593,3.049-9.379,3.037-9.436a.463.463,0,0,1,.361-.549.466.466,0,0,1,.549.36c.054.258,1.272,6.375-3.342,10.332-.791.678-1.571,1.316-2.318,1.929-3.4,2.784-6.092,4.984-6.092,7.911,0,3.477,4.47,5.61,4.515,5.63a.467.467,0,0,1,.225.618A.466.466,0,0,1,3693.584-2544.592Z" transform="translate(-3688.337 2571.649)"/></g><g transform="translate(32.189 20.842)"><path class="f" d="M3742.3-2605.637c-1.363,1.714-5.777,2.717-.343,3.429s11.9,3.06,10.878,4.415-5.777.342-1.02,2.382,8.494,5.1,5.777,6.112-4.423-.333-1.02,6.121,8.151,8.838,3.737,8.838-5.1,4.757-2.383,6.789-1.021,4.081-.334,7.475-.343,5.778,3.429,7.141,5.1.677,5.434,6.455-8.494,10.192-8.152,13.252c.3,2.692-2.032,8.572,1.568,9.9,7.543-10.818,19.639-26.42,22.365-33.432,3.823-9.875,5.1-35.052-4.14-45.878s-25.811-23.265-42.372-22.938-21.987,5.735-21.987,5.735a66.8,66.8,0,0,0-10.69,10.87l.206.333s12.232-8.151,10.192-5.1-4.749,4.757,0,2.717,10.535-4.072,10.2-3.052-3.429,2.717,2.717,2.717S3743.654-2607.334,3742.3-2605.637Z" transform="translate(-3702.481 2626.047)"/><path class="f" d="M3760-2522.8l-.336-.125c-2.892-1.067-2.435-4.578-2.068-7.4a13.764,13.764,0,0,0,.2-2.885c-.17-1.528,1.432-3.158,3.286-5.044,2.364-2.4,5.044-5.13,4.865-8.233-.261-4.522-1-4.75-3.466-5.5-.494-.151-1.047-.32-1.663-.543-3.108-1.123-3.262-3-3.439-5.18a19.066,19.066,0,0,0-.287-2.306,6.5,6.5,0,0,1,.762-4.078c.662-1.483.927-2.235-.251-3.116a4.441,4.441,0,0,1-1.583-4.885,4.175,4.175,0,0,1,4.244-2.741c1.13,0,1.314-.168,1.331-.188a8.065,8.065,0,0,0-1.456-2.1,35.259,35.259,0,0,1-4.023-5.871c-1.754-3.328-2.2-4.654-1.824-5.46.286-.619.953-.766,1.724-.936a9.914,9.914,0,0,0,1.368-.376c.4-.15.609-.337.615-.558.021-.924-2.423-2.981-6.413-4.692-1.934-.829-2.418-1.178-2.356-1.7s.608-.613,1.364-.744c.612-.107,1.537-.267,1.825-.649.076-.76-4.782-2.917-10.567-3.675-2.1-.274-2.889-.589-3.029-1.2-.15-.654.552-1.111,1.439-1.689a7.239,7.239,0,0,0,1.628-1.286h0a.1.1,0,0,0,.012-.019h0s0-.089-.175-.285c-1.606-1.8-10.3-4.659-15.41-4.659-2.62,0-3.827-.287-4.165-.993-.3-.626.2-1.242.594-1.737.065-.082.135-.167.2-.25a50.514,50.514,0,0,0-9.361,3.276c-2.358,1.013-2.862,1.122-3.181.693s.026-.849.867-1.847a26.105,26.105,0,0,0,1.632-2.086,73.773,73.773,0,0,0-9.437,5.582l-.4.268-.629-1.02.2-.255a67.47,67.47,0,0,1,10.764-10.945c.192-.194,5.713-5.512,22.271-5.838,16.718-.321,33.463,12.24,42.735,23.1,9.458,11.082,8.109,36.306,4.22,46.348-2.047,5.266-9.11,15.03-15.939,24.474-2.335,3.228-4.541,6.278-6.478,9.055Zm-9.426-73.711c.274.146.7.351,1.376.64,3.5,1.5,7.019,3.807,6.976,5.568-.01.439-.231,1.038-1.219,1.406a10.909,10.909,0,0,1-1.492.414c-.553.122-.989.218-1.082.419-.266.573.824,2.779,1.8,4.635a34.518,34.518,0,0,0,3.925,5.722c1.233,1.526,1.911,2.366,1.566,3.092-.3.621-1.216.707-2.164.707a3.248,3.248,0,0,0-3.362,2.1,3.5,3.5,0,0,0,1.259,3.848c1.824,1.364,1.172,2.826.542,4.239a5.58,5.58,0,0,0-.7,3.516,20.194,20.194,0,0,1,.3,2.414c.176,2.158.282,3.462,2.829,4.382.6.217,1.138.381,1.618.528,2.841.868,3.837,1.418,4.122,6.337.2,3.514-2.754,6.522-5.129,8.939-1.617,1.646-3.147,3.2-3.025,4.289a14.312,14.312,0,0,1-.2,3.11c-.323,2.486-.689,5.287,1.145,6.262,1.887-2.7,4.017-5.643,6.266-8.754,6.48-8.958,13.823-19.111,15.828-24.266,3.717-9.6,5.028-34.759-4.061-45.408-9.14-10.708-25.646-23.1-42.01-22.776-16.188.318-21.615,5.546-21.669,5.6a66.933,66.933,0,0,0-9.606,9.521c8.592-5.615,9.25-4.96,9.5-4.7.409.409,0,1.016-.13,1.215a26.492,26.492,0,0,1-1.805,2.333l-.262.312c.346-.13.827-.324,1.5-.613,2.888-1.241,9.708-4.029,10.664-3.155a.627.627,0,0,1,.163.675,3.121,3.121,0,0,1-.573.892c-.162.2-.5.62-.479.756.009.016.263.461,3.326.461,5.546,0,15.353,3.228,16.4,5.4a.975.975,0,0,1-.1,1.077,7.83,7.83,0,0,1-1.847,1.484,7.262,7.262,0,0,0-.976.708,7.167,7.167,0,0,0,2.178.485c4.222.552,10.565,2.406,11.306,4.169a.963.963,0,0,1-.116.985,3.785,3.785,0,0,1-2.409,1.006Z" transform="translate(-3702.438 2626.082)"/></g><g transform="translate(62.096 133.434)"><path class="h" d="M3738.462-2504.46a14.729,14.729,0,0,1-3.351,1.1" transform="translate(-3734.646 2504.925)"/><path class="f" d="M3735.074-2502.933a.464.464,0,0,1-.454-.374.465.465,0,0,1,.365-.548,14.244,14.244,0,0,0,3.247-1.063.465.465,0,0,1,.617.225.464.464,0,0,1-.225.618,15.235,15.235,0,0,1-3.458,1.131A.432.432,0,0,1,3735.074-2502.933Z" transform="translate(-3734.61 2504.96)"/></g><g transform="translate(67.677 90.093)"><path class="h" d="M3760.315-2544.877s7.33-7.33,12.113-6.061,3.181,12.746-1.911,19.442-15.292,2.863-15.292,2.863-2.572,11.144-8.924,16.286a37.4,37.4,0,0,1-5.186,3.507" transform="translate(-3740.649 2551.549)"/><path class="f" d="M3741.079-2508.411a.464.464,0,0,1-.405-.238.464.464,0,0,1,.178-.632,36.983,36.983,0,0,0,5.122-3.463c6.15-4.979,8.736-15.92,8.762-16.03l.12-.517.5.186c.1.037,9.938,3.628,14.759-2.709,3.634-4.778,5.617-12.477,4.245-16.476a3.119,3.119,0,0,0-2.081-2.236c-4.484-1.19-11.594,5.869-11.665,5.94a.463.463,0,0,1-.657,0,.465.465,0,0,1,0-.657c.308-.307,7.571-7.5,12.56-6.181a4.039,4.039,0,0,1,2.723,2.832c1.485,4.324-.523,12.264-4.383,17.34-4.588,6.031-13.186,3.846-15.334,3.181-.583,2.254-3.251,11.425-8.961,16.049a37.922,37.922,0,0,1-5.252,3.55A.451.451,0,0,1,3741.079-2508.411Z" transform="translate(-3740.614 2551.584)"/></g><path class="i" d="M3768.108-2620.4s-3.6-4.286-8.64-4.561,0,3.6,2.64,5.28a23.045,23.045,0,0,1,3.36,2.4s-8.881.24-6,2.4,9.6,2.641,9.6,2.641-3.36,4.286,0,6,7.715.959,7.715.959-2.4,4.8.72,6a10.08,10.08,0,0,0,5.76.479s-3.121,6-1.44,8.4,3.36-1.2,3.36-1.2,2.632,10.287,5.032,8.64,2.4-7.2,2.4-7.2,7.2,11.281,8.64,7.441-2.16-9.6-2.16-9.6,10.8,3.6,12.961.481-4.561-5.281-4.561-5.281,5.281-1.2,6.721-3.6-4.286-4.561-4.286-4.561a11.646,11.646,0,0,0,3.84-6.24c.96-4.072-4.285-4.072-5.28-4.072s2.4-2.88.721-5.521-8.161-1.2-8.161-1.2,6-4.286.48-6.48a15.938,15.938,0,0,0-10.561-.24s3.84-9.361-.24-8.4-6,5.521-6,5.521,1.911-10.08-1.92-6.96-4.08,12.481-4.08,12.481-1.715-7.716-3.121-7.441-1.714,4.561-1.714,4.561-3.36-8.64-6.481-6.48.9,12.953.9,12.953Z" transform="translate(-3674.113 2647.866)"/><g transform="translate(97.586 25.534)"><path class="f" d="M3773.314-2613.065s.959-2.4,3.84,0a9.679,9.679,0,0,1,3.121,6.232s2.88-2.16,3.12.479a21.612,21.612,0,0,1-.479,5.761s3.36-1.92,5.031,0,1.2,7.2,1.2,7.2,5.521-6.24,5.76-4.08-1.44,4.561-1.44,4.561,4.285-4.561,5.52-5.041,3.841-1.714.96-9.12-11.281-13.193-16.287-13.433S3772.868-2619.546,3773.314-2613.065Z" transform="translate(-3772.824 2620.998)"/><path class="f" d="M3788.523-2592.061l.126-1.407c.125-1.415.176-5.4-1.088-6.854-1.4-1.609-4.422.081-4.451.1l-.91.517.225-1.021a21.11,21.11,0,0,0,.47-5.636c-.041-.445-.17-.728-.384-.824-.5-.224-1.562.369-1.993.692l-.662.494-.08-.821a9.194,9.194,0,0,0-2.971-5.932,2.84,2.84,0,0,0-2.25-.913,1.381,1.381,0,0,0-.847.745l-.758,1.81-.137-1.954a6.8,6.8,0,0,1,1.734-5.469c2.246-2.293,6.185-2.609,9.1-2.468,5.353.256,13.812,6.309,16.7,13.728,2.8,7.2.642,9-1.224,9.723-.827.323-3.722,3.192-5.352,4.926l-.719-.585c.017-.022,1.577-2.286,1.36-4.242a.28.28,0,0,0-.021-.091h-.007c-.493,0-2.771,2-4.923,4.43Zm-2.654-9.889a3.039,3.039,0,0,1,2.393,1.017c1.254,1.44,1.4,4.483,1.374,6.236,1.713-1.839,4.042-4.021,5.1-3.688a.887.887,0,0,1,.6.826,5.711,5.711,0,0,1-.264,2.266,18.614,18.614,0,0,1,3.714-3.128c.952-.37,3.481-1.354.7-8.519-2.717-6.986-10.906-12.9-15.876-13.136-2.716-.131-6.385.143-8.391,2.19a5.421,5.421,0,0,0-1.475,3.569,1.988,1.988,0,0,1,.584-.25,3.624,3.624,0,0,1,3.1,1.111,10.135,10.135,0,0,1,3.186,5.806,2.76,2.76,0,0,1,2.285-.387,1.764,1.764,0,0,1,.934,1.607,22.066,22.066,0,0,1-.308,4.991A6.56,6.56,0,0,1,3785.869-2601.95Z" transform="translate(-3772.789 2621.033)"/></g><g transform="translate(28.484 96.171)"><path class="f" d="M3699.986-2544.546s4.423,0,4.08,1.364S3699.986-2544.546,3699.986-2544.546Z" transform="translate(-3698.56 2545.011)"/><path class="f" d="M3703.423-2542.377c-1.208,0-3.187-1.367-3.82-1.828l-1.151-.84h1.426c.588,0,3.56.051,4.342,1.055a1,1,0,0,1,.188.887.921.921,0,0,1-.588.665A1.18,1.18,0,0,1,3703.423-2542.377Zm-1.787-1.624c.9.505,1.663.8,1.873.685l-.022-.1A3.5,3.5,0,0,0,3701.637-2544Z" transform="translate(-3698.452 2545.046)"/></g><g transform="translate(20.805 106.586)"><path class="f" d="M3707.812-2529.8a26.819,26.819,0,0,1-9.049-1.924c-.75-.259-1.48-.512-2.2-.734-3.629-1.117-5.559.18-5.638.235a.465.465,0,0,1-.647-.114.464.464,0,0,1,.109-.645c.094-.067,2.35-1.629,6.451-.365.73.225,1.471.482,2.231.744,3.229,1.115,6.884,2.381,11.447,1.658a.471.471,0,0,1,.532.387.466.466,0,0,1-.387.532A18.117,18.117,0,0,1,3707.812-2529.8Z" transform="translate(-3690.192 2533.841)"/></g><g transform="translate(23.882 113.624)"><path class="f" d="M3699.679-2523.106a7.825,7.825,0,0,1-6.077-2.409.466.466,0,0,1,.073-.654.465.465,0,0,1,.652.072h0c.1.122,2.488,2.967,7.9,1.766a.462.462,0,0,1,.554.353.464.464,0,0,1-.354.554A12.717,12.717,0,0,1,3699.679-2523.106Z" transform="translate(-3693.501 2526.271)"/></g><g transform="translate(45.586 75.383)"><path class="f" d="M3735.3-2561.422s-3.429-5.486-7.714-5.486-10.236,3.84-10.236,3.84a27.216,27.216,0,0,1,8.77-1.466h.531a2.5,2.5,0,0,0-.507,3.491,2.5,2.5,0,0,0,3.491.508,2.493,2.493,0,0,0,1-2.01,2.465,2.465,0,0,0-.395-1.338A18.638,18.638,0,0,1,3735.3-2561.422Z" transform="translate(-3716.885 2567.373)"/><path class="f" d="M3728.114-2559.61a3.073,3.073,0,0,1-.432-.031,2.94,2.94,0,0,1-1.946-1.159,2.938,2.938,0,0,1-.557-2.2,2.968,2.968,0,0,1,.392-1.1,26.625,26.625,0,0,0-8.106,1.435.468.468,0,0,1-.57-.237.466.466,0,0,1,.166-.594c.248-.16,6.115-3.914,10.488-3.914,4.493,0,7.965,5.471,8.11,5.7a.464.464,0,0,1-.073.582.465.465,0,0,1-.586.046,18.128,18.128,0,0,0-3.991-2.079,2.965,2.965,0,0,1,.057.574,2.969,2.969,0,0,1-1.191,2.383A2.932,2.932,0,0,1,3728.114-2559.61Zm-2.03-5.424h.532a.465.465,0,0,1,.442.319.466.466,0,0,1-.164.519,2.021,2.021,0,0,0-.794,1.335,2.016,2.016,0,0,0,.381,1.506,2.014,2.014,0,0,0,1.335.795,2.015,2.015,0,0,0,1.506-.381,2.044,2.044,0,0,0,.816-1.636,2.015,2.015,0,0,0-.32-1.088.464.464,0,0,1,.02-.532.469.469,0,0,1,.508-.163,19.11,19.11,0,0,1,3.057,1.247c-1.344-1.509-3.48-3.365-5.853-3.365a17.051,17.051,0,0,0-6.665,1.945A27.629,27.629,0,0,1,3726.083-2565.034Z" transform="translate(-3716.849 2567.408)"/></g><g transform="translate(16.569 73.169)"><path class="f" d="M3698.728-2564.881s-.361-4.02-4.021-4.389-8.573,4.389-8.573,4.389a12.273,12.273,0,0,1,7.715-1.971,2.271,2.271,0,0,0-.6,1.552,2.048,2.048,0,0,0,1.912,2.177,2.049,2.049,0,0,0,2.177-1.912,2.085,2.085,0,0,0,0-.265,2.49,2.49,0,0,0-.061-.514A11.127,11.127,0,0,1,3698.728-2564.881Z" transform="translate(-3685.67 2569.755)"/><path class="f" d="M3695.263-2562.69c-.055,0-.111,0-.167-.006a2.5,2.5,0,0,1-1.726-.85,2.494,2.494,0,0,1-.619-1.821,2.62,2.62,0,0,1,.233-1.095,11.858,11.858,0,0,0-6.63,1.934.466.466,0,0,1-.618-.1.465.465,0,0,1,.04-.624c.207-.2,5.112-4.9,8.941-4.518,4,.4,4.434,4.766,4.438,4.81a.466.466,0,0,1-.238.448.463.463,0,0,1-.507-.036q-.315-.24-.646-.456a2.5,2.5,0,0,1-.848,1.686A2.5,2.5,0,0,1,3695.263-2562.69Zm-2.416-4.7c.334,0,.67.013,1.006.04a.466.466,0,0,1,.4.294.466.466,0,0,1-.09.485,1.8,1.8,0,0,0-.478,1.234,1.6,1.6,0,0,0,.39,1.18,1.574,1.574,0,0,0,1.087.535,1.58,1.58,0,0,0,1.148-.39,1.572,1.572,0,0,0,.535-1.088,1.616,1.616,0,0,0,0-.206,2.124,2.124,0,0,0-.048-.44.465.465,0,0,1,.172-.473.462.462,0,0,1,.5-.038c.177.095.35.194.521.3a3.9,3.9,0,0,0-3.359-2.882c-1.689-.17-3.7.859-5.305,1.948A12.811,12.811,0,0,1,3692.847-2567.392Z" transform="translate(-3685.635 2569.79)"/></g><g transform="translate(48.047 73.446)"><path class="f" d="M3733.943-2565.407a.466.466,0,0,1-.369-.182c-4.554-5.954-13.295-1.136-13.384-1.087a.464.464,0,0,1-.632-.177.464.464,0,0,1,.177-.633c.094-.054,9.53-5.266,14.579,1.331a.465.465,0,0,1-.087.652A.466.466,0,0,1,3733.943-2565.407Z" transform="translate(-3719.497 2569.492)"/></g><g transform="translate(19.484 72.064)"><path class="f" d="M3699.265-2568.248a.459.459,0,0,1-.314-.122c-.151-.138-3.807-3.381-9.508-.527a.464.464,0,0,1-.624-.207.466.466,0,0,1,.208-.624c6.289-3.149,10.51.636,10.552.674a.464.464,0,0,1,.028.656A.463.463,0,0,1,3699.265-2568.248Z" transform="translate(-3688.771 2570.979)"/></g></g><g transform="translate(3502.349 -2656.223)"><rect class="h" width="141.492" height="226.288" transform="translate(0.464 0.465)"/><path class="j" d="M3648.228-2421.285H3505.806V-2648.5h142.422Zm-141.492-.93H3647.3v-225.358H3506.735Z" transform="translate(-3505.806 2648.502)"/><g transform="translate(7.502 162.253)"><path class="h" d="M3557.788-2468.365s-19.433-1.234-27.74,3.823-11.786,14.976-12.421,24.217-3.188,30.9-3.188,30.9h126.508s-1.6-26.445-8.29-38.232-23.89-22.288-26.445-23.256a32.7,32.7,0,0,0-17.2-2.228c-8.281,1.268-26.762,4.458-26.762,4.458" transform="translate(-3513.916 2473.923)"/><path class="k" d="M3641.4-2408.993H3513.876l.061-.519c.026-.217,2.56-21.757,3.187-30.881.769-11.2,5.378-20.157,12.644-24.581,8.335-5.075,27.212-3.94,28.01-3.89a.464.464,0,0,1,.434.494.451.451,0,0,1-.493.434c-.194-.012-19.384-1.167-27.469,3.757-7,4.265-11.45,12.958-12.2,23.851-.573,8.35-2.738,27.05-3.131,30.406H3640.41c-.261-3.672-2.131-26.859-8.2-37.537-6.638-11.686-23.917-22.183-26.207-23.051a32.251,32.251,0,0,0-16.974-2.2c-8.176,1.252-26.564,4.423-26.749,4.455a.469.469,0,0,1-.537-.379.465.465,0,0,1,.379-.537c.185-.032,18.582-3.2,26.771-4.459a33.177,33.177,0,0,1,17.455,2.26c2.412.915,19.794,11.35,26.67,23.455,6.672,11.745,8.283,37.35,8.348,38.434Z" transform="translate(-3513.876 2473.958)"/></g><g transform="translate(68.765 15.351)"><path class="h" d="M3584.4-2625.117s7.716-9.121,29.274-5.521,24.482,38.875,20.882,46.075-12,9.842-12,9.842-12.713-27.363-27.869-35.283-14.4-12.473-14.4-12.473Z" transform="translate(-3579.815 2631.952)"/><path class="k" d="M3622.274-2574.191l-.171-.37c-.127-.271-12.822-27.31-27.662-35.067-15.02-7.85-14.728-12.461-14.645-12.96l.033-.2,4.233-2.716c.745-.838,8.723-9.119,29.656-5.624,7.142,1.193,13.054,6.023,17.1,13.97,6,11.79,6.628,27.759,4.122,32.771-3.647,7.293-11.927,9.966-12.277,10.076Zm-41.552-48.068c.108.889,1.317,5.1,14.149,11.808,14.325,7.486,26.236,31.638,27.894,35.117,1.661-.615,8.309-3.4,11.345-9.47,2.064-4.13,2.067-19.781-4.119-31.934-3.963-7.783-9.488-12.317-16.424-13.475-21.053-3.517-28.767,5.273-28.842,5.362l-.1.091Zm3.648-2.893h0Z" transform="translate(-3579.78 2631.988)"/></g><g class="l" transform="translate(68.765 15.351)"><path class="f" d="M3584.4-2625.117s7.716-9.121,29.274-5.521,24.482,38.875,20.882,46.075-12,9.842-12,9.842-12.713-27.363-27.869-35.283-14.4-12.473-14.4-12.473Z" transform="translate(-3579.815 2631.952)"/><path class="f" d="M3622.274-2574.191l-.171-.37c-.127-.271-12.822-27.31-27.662-35.067-15.02-7.85-14.728-12.461-14.645-12.96l.033-.2,4.233-2.716c.745-.838,8.723-9.119,29.656-5.624,7.142,1.193,13.054,6.023,17.1,13.97,6,11.79,6.628,27.759,4.122,32.771-3.647,7.293-11.927,9.966-12.277,10.076Zm-41.552-48.068c.108.889,1.317,5.1,14.149,11.808,14.325,7.486,26.236,31.638,27.894,35.117,1.661-.615,8.309-3.4,11.345-9.47,2.064-4.13,2.067-19.781-4.119-31.934-3.963-7.783-9.488-12.317-16.424-13.475-21.053-3.517-28.767,5.273-28.842,5.362l-.1.091Zm3.648-2.893h0Z" transform="translate(-3579.78 2631.988)"/></g><g transform="translate(10.915 20.798)"><path class="h" d="M3560.305-2453.587a28.861,28.861,0,0,0-2.572-10.2c-2.571-6.052-7.012-18.8-10.517-25.484s-6.37-18.165-6.37-18.165-7.655,1.046-12.112-2.863c-2.717-2.392-5.409-14.658-8.573-25.811s-2.571-23.9.317-27.079,1.277-9.241,1.277-12.429,2.229-7.964,10.193-22.288a75.253,75.253,0,0,1,18.164-21.979s5.417-5.418,21.979-5.736,33.14,12.1,42.381,22.939,7.964,36,4.14,45.878-26.162,36.621-28.391,43.316c-1.38,4.14-.317,8.529.686,11.272a9.966,9.966,0,0,0,2.932,4.157c2.3,1.947,7.1,6.112,15.5,13.879,12.748,11.8,18.859,19.579,18.859,19.579" transform="translate(-3517.583 2626.093)"/><path class="k" d="M3560.271-2453.157a.465.465,0,0,1-.465-.465,28.786,28.786,0,0,0-2.535-10.019c-.869-2.046-1.969-4.9-3.133-7.921-2.37-6.149-5.056-13.12-7.369-17.53-3.124-5.96-5.766-15.791-6.307-17.874-1.693.163-8.053.5-12.07-3.02-2.216-1.95-4.275-9.628-6.66-18.52-.665-2.478-1.347-5.023-2.053-7.514-3.007-10.6-2.8-23.972.42-27.518,2.059-2.266,1.667-6.2,1.352-9.366-.1-1.01-.2-1.964-.2-2.75,0-3.236,2.108-7.865,10.251-22.513a76.479,76.479,0,0,1,18.292-22.125c.178-.184,5.691-5.51,22.25-5.829,16.76-.311,33.483,12.246,42.744,23.1,9.456,11.088,8.106,36.309,4.219,46.348-2.047,5.289-9.132,15.067-15.985,24.521-5.848,8.071-11.372,15.693-12.4,18.773-1.312,3.935-.354,8.136.68,10.965a9.533,9.533,0,0,0,2.794,3.962c2.658,2.252,7.506,6.489,15.516,13.893,12.628,11.686,18.847,19.554,18.909,19.633a.467.467,0,0,1-.079.653.467.467,0,0,1-.654-.079c-.061-.077-6.24-7.9-18.809-19.525-8-7.393-12.833-11.62-15.482-13.865a10.451,10.451,0,0,1-3.068-4.351c-1.087-2.972-2.088-7.391-.691-11.582,1.07-3.215,6.635-10.894,12.526-19.023,6.5-8.969,13.868-19.135,15.873-24.312,3.716-9.6,5.027-34.753-4.061-45.409-9.128-10.7-25.614-23.106-42.018-22.776-16.125.31-21.607,5.547-21.66,5.6a75.624,75.624,0,0,0-18.086,21.876c-8.051,14.481-10.134,19.017-10.134,22.062,0,.74.093,1.671.19,2.659.334,3.346.749,7.511-1.589,10.083-2.682,2.952-3.375,15.494-.213,26.64.707,2.5,1.391,5.044,2.056,7.527,2.248,8.381,4.371,16.3,6.375,18.063,4.248,3.725,11.669,2.761,11.743,2.751l.413-.057.1.4c.028.114,2.89,11.5,6.329,18.061,2.338,4.458,5.034,11.455,7.413,17.629,1.161,3.014,2.258,5.86,3.121,7.891a29.084,29.084,0,0,1,2.609,10.383.465.465,0,0,1-.465.465Z" transform="translate(-3517.548 2626.128)"/></g><g class="l" transform="translate(82.472 168.623)"><path class="f" d="M3594.991-2464.709a.47.47,0,0,1-.2-.045.467.467,0,0,1-.219-.621c.212-.439.414-.918.6-1.425a.463.463,0,0,1,.6-.275.464.464,0,0,1,.275.6c-.2.534-.41,1.041-.633,1.506A.468.468,0,0,1,3594.991-2464.709Z" transform="translate(-3594.526 2467.105)"/></g><g class="l" transform="translate(53.772 172.163)"><path class="f" d="M3564.118-2424.486a.576.576,0,0,1-.079-.007.465.465,0,0,1-.38-.536,45.606,45.606,0,0,1,11.917-23.824,84.961,84.961,0,0,1,9.986-8.817c2.49-1.927,4.288-3.321,5.7-5.421a.466.466,0,0,1,.646-.125.465.465,0,0,1,.126.645c-1.5,2.224-3.347,3.656-5.906,5.637a84.338,84.338,0,0,0-9.885,8.725,44.682,44.682,0,0,0-11.67,23.337A.466.466,0,0,1,3564.118-2424.486Z" transform="translate(-3563.652 2463.297)"/></g><g class="l" transform="translate(26.96 195.702)"><path class="f" d="M3535.274-2434.859a.544.544,0,0,1-.066,0,.465.465,0,0,1-.4-.525c.1-.736.232-1.471.372-2.208a.467.467,0,0,1,.543-.371.465.465,0,0,1,.37.543c-.135.722-.263,1.444-.365,2.165A.464.464,0,0,1,3535.274-2434.859Z" transform="translate(-3534.808 2437.975)"/></g><g class="l" transform="translate(26.361 200.777)"><path class="f" d="M3536.873-2406.075a.464.464,0,0,1-.452-.357,83.8,83.8,0,0,1-2.018-25.653.454.454,0,0,1,.5-.428.465.465,0,0,1,.428.5,82.93,82.93,0,0,0,1.994,25.368.464.464,0,0,1-.345.56A.461.461,0,0,1,3536.873-2406.075Z" transform="translate(-3534.164 2432.515)"/></g><g class="l" transform="translate(33.567 135.054)"><path class="f" d="M3542.565-2498.7s1.345,5.383,3.317,10.93l1.141-1.055c3.866-3.505,19.433-12.755,19.433-12.755A71.161,71.161,0,0,1,3542.565-2498.7Z" transform="translate(-3541.962 2503.102)"/><path class="f" d="M3545.635-2487.068l-.236-.664c-1.957-5.5-3.318-10.918-3.332-10.973l-.152-.608.627.032a70.564,70.564,0,0,0,23.735-2.862l3.6-1.074-3.229,1.919c-.155.093-15.571,9.266-19.358,12.7Zm-2.509-11.256c.388,1.48,1.47,5.46,2.915,9.616l.62-.574c2.873-2.606,11.931-8.225,16.634-11.082A71.345,71.345,0,0,1,3543.126-2498.325Z" transform="translate(-3541.916 2503.217)"/></g><g class="l" transform="translate(41.069 63.673)"><path class="f" d="M3551.694-2576.3s5.383-.317,13.716,0c7.038.274,13.39,10.2,14.572,11.247.052,0-3.266-4.758-3.3-4.809-1.192-1.715-6.557-8.881-12.181-8.881-6.368,0-14.015-1.911-14.015.317S3551.694-2576.3,3551.694-2576.3Z" transform="translate(-3550.021 2579.97)"/><path class="f" d="M3580.086-2564.346l-.445-.392a14.585,14.585,0,0,1-1.216-1.434c-2.258-2.837-7.546-9.481-13.068-9.7-8.215-.313-13.617,0-13.67,0a1.383,1.383,0,0,1-.983-.382,2.9,2.9,0,0,1-.717-2.208,1.225,1.225,0,0,1,.409-.929c.953-.865,3.329-.682,7.442-.284,2.09.2,4.458.431,6.629.431,5.953,0,11.509,7.564,12.562,9.08l.188.271c1.907,2.742,2.71,3.9,3.018,4.437l.021.019-.007.008c.208.37.173.439.111.556Zm-21.944-12.592c2.037,0,4.486.035,7.251.14,3.2.125,6.211,2.1,8.7,4.4-2.268-2.591-5.9-5.917-9.629-5.917-2.216,0-4.609-.231-6.718-.435-2.967-.287-6.036-.584-6.727.046a.294.294,0,0,0-.1.241,2.2,2.2,0,0,0,.4,1.506.489.489,0,0,0,.32.156C3551.706-2576.8,3554.123-2576.938,3558.142-2576.938Zm-6.483.6h0Z" transform="translate(-3549.986 2580.005)"/></g><g class="l" transform="translate(13.59 63.048)"><path class="f" d="M3534.991-2575.317a.694.694,0,0,0,.961-.2.7.7,0,0,0,.084-.58,5.238,5.238,0,0,0-4.106-3.969,13.377,13.377,0,0,0-7.647,1.277l-1.5,3.3s2.487-3.317,6-2.683A18.861,18.861,0,0,1,3534.991-2575.317Z" transform="translate(-3520.591 2580.643)"/><path class="f" d="M3520.425-2571.823l3.339-7.344.149-.074a13.8,13.8,0,0,1,7.912-1.322,5.715,5.715,0,0,1,4.5,4.326,1.134,1.134,0,0,1-.149.939,1.16,1.16,0,0,1-1.6.333l-.013-.008a18.313,18.313,0,0,0-6.053-2.784c-3.17-.572-5.491,2.48-5.513,2.511Zm14.659-3.915a.23.23,0,0,0,.313-.07.23.23,0,0,0,.029-.191,4.791,4.791,0,0,0-3.751-3.646,12.85,12.85,0,0,0-7.2,1.166l-.455,1a6.137,6.137,0,0,1,4.683-1.185A19.269,19.269,0,0,1,3535.084-2575.738Z" transform="translate(-3520.425 2580.677)"/></g><g class="l" transform="translate(19.082 71.441)"><path class="f" d="M3531.581-2544.592a.452.452,0,0,1-.2-.044c-.207-.1-5.052-2.4-5.052-6.473,0-3.369,2.84-5.691,6.434-8.632.743-.607,1.517-1.24,2.3-1.913,4.2-3.6,3.04-9.377,3.028-9.436a.466.466,0,0,1,.359-.55.464.464,0,0,1,.551.359c.054.258,1.281,6.375-3.333,10.332-.79.677-1.57,1.315-2.316,1.927-3.4,2.785-6.093,4.984-6.093,7.913,0,3.477,4.47,5.61,4.515,5.63a.467.467,0,0,1,.225.618A.466.466,0,0,1,3531.581-2544.592Z" transform="translate(-3526.333 2571.649)"/></g><g class="l" transform="translate(32.155 20.782)"><path class="f" d="M3580.293-2605.641c-1.364,1.714-5.778,2.717-.343,3.429s11.89,3.06,10.87,4.415-5.769.342-1.021,2.383,8.5,5.1,5.778,6.112-4.415-.333-1.021,6.12,8.161,8.838,3.747,8.838-5.1,4.758-2.383,6.789-1.021,4.081-.343,7.475-.335,5.778,3.428,7.141,5.092.677,5.435,6.455-8.5,10.192-8.152,13.252c.3,2.692-2.031,8.573,1.569,9.9,7.534-10.818,19.638-26.42,22.365-33.431,3.822-9.875,5.144-35.052-4.141-45.878s-25.871-23.324-42.406-23-21.979,5.735-21.979,5.735a66.417,66.417,0,0,0-10.69,10.869l.206.335s12.232-8.152,10.192-5.1-4.758,4.758,0,2.717,10.535-4.072,10.192-3.052-3.428,2.718,2.718,2.718S3581.638-2607.339,3580.293-2605.641Z" transform="translate(-3540.44 2626.111)"/><path class="f" d="M3597.991-2522.806l-.337-.125c-2.892-1.067-2.435-4.578-2.068-7.4a13.934,13.934,0,0,0,.2-2.885c-.171-1.527,1.432-3.156,3.287-5.042,2.366-2.406,5.047-5.131,4.864-8.234-.269-4.522-1.01-4.75-3.468-5.5-.493-.152-1.045-.321-1.661-.544-3.109-1.126-3.264-3.012-3.443-5.2a19.23,19.23,0,0,0-.282-2.291,6.52,6.52,0,0,1,.767-4.075c.665-1.485.932-2.238-.248-3.118a4.44,4.44,0,0,1-1.582-4.886,4.176,4.176,0,0,1,4.246-2.74c1.125,0,1.31-.168,1.327-.187a8.076,8.076,0,0,0-1.452-2.085A34.952,34.952,0,0,1,3594.1-2583c-1.752-3.332-2.195-4.659-1.822-5.461.287-.618.952-.765,1.723-.935a9.852,9.852,0,0,0,1.369-.376c.4-.149.611-.336.616-.556.023-.922-2.423-2.978-6.416-4.693-1.93-.829-2.413-1.179-2.352-1.7s.606-.613,1.362-.744c.612-.107,1.535-.267,1.822-.649.08-.761-4.771-2.917-10.558-3.675-2.1-.274-2.888-.589-3.029-1.2-.149-.653.552-1.111,1.44-1.689a7.234,7.234,0,0,0,1.628-1.286.167.167,0,0,0,.011-.017h0s0-.091-.177-.29c-1.624-1.82-10.346-4.718-15.449-4.718-2.623,0-3.832-.287-4.169-.993-.3-.627.2-1.244.6-1.74.065-.08.132-.164.193-.244a51.131,51.131,0,0,0-9.347,3.275c-2.363,1.013-2.866,1.122-3.185.692s.026-.847.866-1.843a25.983,25.983,0,0,0,1.638-2.09,73.682,73.682,0,0,0-9.438,5.583l-.4.267-.629-1.019.2-.255a66.942,66.942,0,0,1,10.765-10.946c.192-.194,5.729-5.512,22.262-5.838,16.626-.312,33.43,12.272,42.768,23.161,9.472,11.046,8.116,36.286,4.22,46.349-2.04,5.248-9.072,14.974-15.874,24.379-2.359,3.263-4.587,6.345-6.542,9.15Zm-9.425-73.711c.273.146.7.351,1.373.64,3.507,1.506,7.023,3.812,6.978,5.57-.01.438-.231,1.037-1.221,1.4a10.789,10.789,0,0,1-1.493.413c-.551.122-.986.217-1.079.418-.265.57.823,2.778,1.8,4.638a34.188,34.188,0,0,0,3.934,5.734c1.229,1.52,1.906,2.356,1.561,3.08-.3.62-1.213.706-2.159.706a3.249,3.249,0,0,0-3.364,2.1,3.5,3.5,0,0,0,1.258,3.848c1.826,1.365,1.172,2.828.539,4.243a5.608,5.608,0,0,0-.7,3.514,20.325,20.325,0,0,1,.3,2.4c.178,2.168.285,3.476,2.833,4.4.6.218,1.137.381,1.617.529,2.836.868,3.832,1.419,4.124,6.335.208,3.516-2.752,6.524-5.128,8.942-1.619,1.645-3.148,3.2-3.026,4.287a14.419,14.419,0,0,1-.2,3.108c-.325,2.487-.688,5.289,1.145,6.264,1.9-2.726,4.057-5.7,6.332-8.849,6.451-8.922,13.763-19.034,15.761-24.171,3.725-9.621,5.042-34.792-4.061-45.407-9.206-10.736-25.747-23.161-42.045-22.837-16.1.317-21.607,5.548-21.661,5.6a66.363,66.363,0,0,0-9.608,9.522c8.594-5.615,9.254-4.963,9.507-4.707.409.41,0,1.016-.13,1.216a26.367,26.367,0,0,1-1.81,2.336l-.259.308c.347-.13.829-.324,1.5-.612,2.89-1.24,9.713-4.026,10.658-3.155a.625.625,0,0,1,.157.679,3.158,3.158,0,0,1-.571.884c-.163.2-.5.622-.482.758.009.016.262.462,3.33.462,5.547,0,15.378,3.263,16.437,5.455a.972.972,0,0,1-.095,1.078h0a7.837,7.837,0,0,1-1.848,1.485,7.333,7.333,0,0,0-.977.708,7.177,7.177,0,0,0,2.178.485c4.218.552,10.556,2.4,11.3,4.169a.961.961,0,0,1-.116.985,3.782,3.782,0,0,1-2.406,1.006Zm-8.316-9.159h0Z" transform="translate(-3540.397 2626.146)"/></g><g transform="translate(62.062 133.435)"><path class="h" d="M3576.413-2504.46a14.553,14.553,0,0,1-3.343,1.1" transform="translate(-3572.604 2504.924)"/><path class="k" d="M3573.033-2502.933a.464.464,0,0,1-.455-.375.465.465,0,0,1,.365-.547,14.119,14.119,0,0,0,3.237-1.062.466.466,0,0,1,.618.223.465.465,0,0,1-.224.618,15.021,15.021,0,0,1-3.45,1.132A.428.428,0,0,1,3573.033-2502.933Z" transform="translate(-3572.57 2504.959)"/></g><g transform="translate(67.754 90.093)"><path class="h" d="M3598.352-2544.877s7.329-7.33,12.1-6.061,3.188,12.746-1.912,19.442-15.293,2.863-15.293,2.863-2.571,11.144-8.915,16.286a37.38,37.38,0,0,1-5.143,3.507" transform="translate(-3578.728 2551.549)"/><path class="k" d="M3579.157-2508.411a.465.465,0,0,1-.4-.236.464.464,0,0,1,.176-.633,37.008,37.008,0,0,0,5.079-3.463c6.145-4.98,8.731-15.921,8.756-16.031l.12-.517.5.187c.1.036,9.932,3.626,14.76-2.71,3.632-4.769,5.615-12.466,4.243-16.47a3.126,3.126,0,0,0-2.082-2.241c-4.464-1.183-11.585,5.869-11.656,5.94a.463.463,0,0,1-.657,0,.465.465,0,0,1,0-.657c.308-.307,7.583-7.5,12.551-6.181a4.046,4.046,0,0,1,2.724,2.837c1.483,4.331-.525,12.269-4.384,17.336-4.594,6.029-13.188,3.845-15.332,3.18-.585,2.255-3.25,11.425-8.954,16.049a37.834,37.834,0,0,1-5.208,3.549A.459.459,0,0,1,3579.157-2508.411Z" transform="translate(-3578.692 2551.584)"/></g><g transform="translate(83.202 8.395)"><path class="d" d="M3606.1-2620.4s-3.6-4.286-8.641-4.561,0,3.6,2.64,5.28a23.111,23.111,0,0,1,3.36,2.4s-8.881.24-6,2.4,9.6,2.641,9.6,2.641-3.361,4.286,0,6,7.714.959,7.714.959-2.392,4.8.72,6a10.081,10.081,0,0,0,5.761.479s-3.121,6-1.441,8.4,3.36-1.2,3.36-1.2,2.64,10.287,5.041,8.64,2.4-7.2,2.4-7.2,7.2,11.281,8.641,7.441-2.16-9.6-2.16-9.6,10.8,3.6,12.952.481-4.552-5.281-4.552-5.281,5.272-1.2,6.712-3.6-4.286-4.561-4.286-4.561a11.654,11.654,0,0,0,3.832-6.24c.96-4.072-4.286-4.072-5.271-4.072s2.4-2.88.719-5.521-8.161-1.2-8.161-1.2,6-4.286.48-6.48a15.938,15.938,0,0,0-10.561-.24s3.84-9.361-.24-8.4-6,5.521-6,5.521,1.919-10.08-1.92-6.96-4.081,12.481-4.081,12.481-1.714-7.716-3.12-7.441-1.671,4.561-1.671,4.561-3.361-8.64-6.481-6.48.96,12.961.96,12.961Z" transform="translate(-3595.311 2639.471)"/></g><g class="l" transform="translate(83.202 8.395)"><path class="i" d="M3606.1-2620.4s-3.6-4.286-8.641-4.561,0,3.6,2.64,5.28a23.111,23.111,0,0,1,3.36,2.4s-8.881.24-6,2.4,9.6,2.641,9.6,2.641-3.361,4.286,0,6,7.714.959,7.714.959-2.392,4.8.72,6a10.081,10.081,0,0,0,5.761.479s-3.121,6-1.441,8.4,3.36-1.2,3.36-1.2,2.64,10.287,5.041,8.64,2.4-7.2,2.4-7.2,7.2,11.281,8.641,7.441-2.16-9.6-2.16-9.6,10.8,3.6,12.952.481-4.552-5.281-4.552-5.281,5.272-1.2,6.712-3.6-4.286-4.561-4.286-4.561a11.654,11.654,0,0,0,3.832-6.24c.96-4.072-4.286-4.072-5.271-4.072s2.4-2.88.719-5.521-8.161-1.2-8.161-1.2,6-4.286.48-6.48a15.938,15.938,0,0,0-10.561-.24s3.84-9.361-.24-8.4-6,5.521-6,5.521,1.919-10.08-1.92-6.96-4.081,12.481-4.081,12.481-1.714-7.716-3.12-7.441-1.671,4.561-1.671,4.561-3.361-8.64-6.481-6.48.96,12.961.96,12.961Z" transform="translate(-3595.311 2639.471)"/></g><g class="l" transform="translate(97.584 25.543)"><path class="f" d="M3611.309-2613.064s.96-2.4,3.832,0a9.673,9.673,0,0,1,3.163,6.24s2.881-2.16,3.121.48a21.61,21.61,0,0,1-.481,5.76s3.36-1.919,5.041,0,1.2,7.2,1.2,7.2,5.52-6.24,5.761-4.08-1.441,4.561-1.441,4.561,4.286-4.561,5.521-5.04,3.84-1.715.96-9.121-11.281-13.193-16.287-13.432S3610.829-2619.545,3611.309-2613.064Z" transform="translate(-3610.817 2620.989)"/><path class="f" d="M3626.559-2592.049l.128-1.411c.127-1.414.182-5.4-1.087-6.852-1.415-1.616-4.429.08-4.46.1l-.911.52.226-1.023a21.167,21.167,0,0,0,.469-5.637c-.041-.444-.17-.728-.384-.823-.5-.226-1.56.368-1.993.692l-.659.492-.082-.818a9.193,9.193,0,0,0-3.011-5.941,2.821,2.821,0,0,0-2.253-.913,1.368,1.368,0,0,0-.838.739l-.746,1.868-.149-2.005a6.731,6.731,0,0,1,1.7-5.442c2.252-2.313,6.225-2.63,9.172-2.49,5.353.257,13.812,6.31,16.7,13.729,1.282,3.3,1.641,5.814,1.069,7.478a3.593,3.593,0,0,1-2.294,2.245c-.827.322-3.721,3.191-5.351,4.925l-.719-.584c.017-.023,1.577-2.287,1.36-4.243a.294.294,0,0,0-.02-.091h-.008c-.493,0-2.771,2-4.923,4.428Zm-2.657-9.892a3.05,3.05,0,0,1,2.4,1.016c1.26,1.44,1.406,4.482,1.377,6.235,1.713-1.838,4.042-4.022,5.1-3.686a.885.885,0,0,1,.6.826,5.719,5.719,0,0,1-.264,2.265,18.626,18.626,0,0,1,3.712-3.127,2.654,2.654,0,0,0,1.753-1.682c.5-1.45.143-3.751-1.057-6.838-2.717-6.986-10.906-12.9-15.876-13.137-2.742-.131-6.45.144-8.462,2.21a5.375,5.375,0,0,0-1.453,3.544,2,2,0,0,1,.588-.254,3.6,3.6,0,0,1,3.089,1.112,10.13,10.13,0,0,1,3.228,5.815,2.762,2.762,0,0,1,2.287-.387,1.762,1.762,0,0,1,.933,1.606,22.054,22.054,0,0,1-.308,4.992A6.556,6.556,0,0,1,3623.9-2601.941Z" transform="translate(-3610.782 2621.024)"/></g><g transform="translate(28.44 96.171)"><path class="j" d="M3537.935-2544.546s4.424,0,4.081,1.364S3537.935-2544.546,3537.935-2544.546Z" transform="translate(-3536.509 2545.011)"/><path class="k" d="M3541.372-2542.377c-1.208,0-3.187-1.367-3.819-1.828l-1.153-.84h1.427c.588,0,3.559.051,4.342,1.055a1,1,0,0,1,.19.886.922.922,0,0,1-.589.666A1.186,1.186,0,0,1,3541.372-2542.377Zm-1.787-1.624c.9.505,1.67.8,1.873.685l-.022-.1A3.494,3.494,0,0,0,3539.586-2544Z" transform="translate(-3536.401 2545.046)"/></g><g class="l" transform="translate(20.839 106.587)"><path class="f" d="M3545.81-2529.8a26.858,26.858,0,0,1-9.061-1.926c-.748-.258-1.478-.51-2.2-.731-3.627-1.117-5.514.177-5.592.233a.467.467,0,0,1-.648-.108.464.464,0,0,1,.1-.646c.092-.067,2.308-1.631,6.41-.368.729.224,1.469.48,2.227.742,3.232,1.117,6.9,2.384,11.459,1.66a.47.47,0,0,1,.532.387.465.465,0,0,1-.387.532A18.137,18.137,0,0,1,3545.81-2529.8Z" transform="translate(-3528.223 2533.84)"/></g><g class="l" transform="translate(23.873 113.624)"><path class="f" d="M3537.671-2523.106a7.825,7.825,0,0,1-6.081-2.409.465.465,0,0,1,.073-.654.465.465,0,0,1,.653.072c.1.123,2.495,2.967,7.912,1.766a.459.459,0,0,1,.554.353.464.464,0,0,1-.353.554A12.743,12.743,0,0,1,3537.671-2523.106Z" transform="translate(-3531.488 2526.271)"/></g><g class="l" transform="translate(42.53 75.383)"><path class="f" d="M3573.3-2561.422s-3.48-5.486-7.716-5.486-10.243,3.84-10.243,3.84a27.208,27.208,0,0,1,8.777-1.466h.532a2.5,2.5,0,0,0-.531,3.5,2.5,2.5,0,0,0,3.5.532,2.5,2.5,0,0,0,.615-3.38A18.632,18.632,0,0,1,3573.3-2561.422Z" transform="translate(-3551.824 2567.373)"/><path class="f" d="M3565.871-2559.585a2.929,2.929,0,0,1-.451-.034,2.946,2.946,0,0,1-1.945-1.174,2.946,2.946,0,0,1-.546-2.206,2.948,2.948,0,0,1,.4-1.1,26.626,26.626,0,0,0-8.107,1.435l-3.663,1.254,3.262-2.086c.251-.16,6.173-3.913,10.494-3.913,4.44,0,7.96,5.469,8.107,5.7l1.225,1.931-1.881-1.3a18.087,18.087,0,0,0-3.994-2.078,2.972,2.972,0,0,1-1.146,2.989A2.945,2.945,0,0,1,3565.871-2559.585Zm-2.024-5.449h1.949l-1.142.839a2.025,2.025,0,0,0-.806,1.336,2.022,2.022,0,0,0,.375,1.514,2.021,2.021,0,0,0,1.335.806,2.024,2.024,0,0,0,1.514-.374,2.04,2.04,0,0,0,.5-2.751l-.7-1.077,1.226.379a19.019,19.019,0,0,1,3.039,1.235c-1.354-1.507-3.49-3.353-5.826-3.353a17.128,17.128,0,0,0-6.635,1.937A27.682,27.682,0,0,1,3563.847-2565.034Z" transform="translate(-3551.558 2567.408)"/></g><g class="l" transform="translate(16.719 73.169)"><path class="f" d="M3536.732-2564.881s-.368-4.02-4.02-4.389-8.573,4.389-8.573,4.389a12.273,12.273,0,0,1,7.715-1.971,2.272,2.272,0,0,0-.6,1.552,2.049,2.049,0,0,0,1.912,2.177,2.049,2.049,0,0,0,2.177-1.912,2.179,2.179,0,0,0,0-.265,2.524,2.524,0,0,0-.061-.514A11.566,11.566,0,0,1,3536.732-2564.881Z" transform="translate(-3523.817 2569.756)"/><path class="f" d="M3533.278-2562.69c-.055,0-.111,0-.166-.006a2.5,2.5,0,0,1-1.726-.85,2.494,2.494,0,0,1-.619-1.821,2.627,2.627,0,0,1,.233-1.095,11.845,11.845,0,0,0-6.63,1.934l-.578-.722c.207-.2,5.109-4.906,8.941-4.518,3.988.4,4.433,4.765,4.438,4.809l.1,1.048-.84-.634q-.315-.238-.648-.455a2.492,2.492,0,0,1-.847,1.685A2.5,2.5,0,0,1,3533.278-2562.69Zm-2.417-4.7q.5,0,1.006.04l.952.077-.646.7a1.794,1.794,0,0,0-.478,1.234,1.6,1.6,0,0,0,.389,1.18,1.574,1.574,0,0,0,1.088.535,1.58,1.58,0,0,0,1.148-.39,1.571,1.571,0,0,0,.535-1.088,1.531,1.531,0,0,0,0-.206,2.193,2.193,0,0,0-.048-.44l-.227-1,.9.491c.175.095.347.194.518.3a3.906,3.906,0,0,0-3.358-2.883c-1.683-.172-3.689.858-5.3,1.947A12.784,12.784,0,0,1,3530.861-2567.392Z" transform="translate(-3523.792 2569.791)"/></g><g class="l" transform="translate(48.029 73.447)"><path class="f" d="M3571.92-2565.407a.466.466,0,0,1-.37-.182c-4.552-5.954-13.3-1.136-13.384-1.087a.465.465,0,0,1-.633-.177.463.463,0,0,1,.177-.633c.092-.054,9.529-5.265,14.579,1.331a.465.465,0,0,1-.087.652A.464.464,0,0,1,3571.92-2565.407Z" transform="translate(-3557.473 2569.491)"/></g><g class="l" transform="translate(19.483 72.063)"><path class="f" d="M3537.261-2568.248a.46.46,0,0,1-.314-.122c-.153-.138-3.8-3.381-9.509-.527a.465.465,0,0,1-.624-.207.466.466,0,0,1,.208-.624c6.294-3.151,10.511.636,10.554.674a.464.464,0,0,1,.027.656A.463.463,0,0,1,3537.261-2568.248Z" transform="translate(-3526.766 2570.98)"/></g></g><g transform="translate(3712.614 -2443.293)"><rect class="m" width="114.968" height="85.918" transform="translate(0.48 0.48)"/><path class="j" d="M3847.914-2332.577h-115.9v-86.848h115.9Zm-114.968-.93h114.038V-2418.5H3732.947Z" transform="translate(-3732.001 2419.441)"/><rect class="g" width="114.968" height="10.79" transform="translate(0.48 0.48)"/><path class="j" d="M3847.929-2407.691H3732v-11.751h115.929Zm-114.968-.961h114.007v-9.828H3732.961Z" transform="translate(-3732 2419.442)"/><g transform="translate(105.001 3.069)"><path class="j" d="M3845.42-2409.579a.467.467,0,0,1-.323-.129.464.464,0,0,1-.012-.657l5.407-5.633a.464.464,0,0,1,.657-.013.466.466,0,0,1,.013.657l-5.408,5.631A.461.461,0,0,1,3845.42-2409.579Z" transform="translate(-3844.955 2416.141)"/></g><g transform="translate(105.001 3.069)"><path class="j" d="M3850.827-2409.579a.464.464,0,0,1-.334-.143l-5.407-5.631a.465.465,0,0,1,.012-.657.465.465,0,0,1,.657.013l5.408,5.633a.465.465,0,0,1-.013.657A.466.466,0,0,1,3850.827-2409.579Z" transform="translate(-3844.955 2416.14)"/></g><g transform="translate(14.692 38.775)"><path class="n" d="M3814.063-2375.871h-65.328a.929.929,0,0,1-.93-.93.929.929,0,0,1,.93-.929h65.328a.929.929,0,0,1,.929.929A.929.929,0,0,1,3814.063-2375.871Z" transform="translate(-3747.805 2377.73)"/></g><g transform="translate(14.692 54.023)"><path class="n" d="M3814.063-2359.467h-65.328a.929.929,0,0,1-.93-.93.929.929,0,0,1,.93-.929h65.328a.929.929,0,0,1,.929.929A.929.929,0,0,1,3814.063-2359.467Z" transform="translate(-3747.805 2361.326)"/></g><g transform="translate(83.78 29.857)"><path class="n" d="M3844.154-2376.313h-16.622a5.411,5.411,0,0,1-5.4-5.405v-.2a5.41,5.41,0,0,1,5.4-5.4h16.622a5.411,5.411,0,0,1,5.406,5.4v.2A5.412,5.412,0,0,1,3844.154-2376.313Zm-16.622-9.151a3.549,3.549,0,0,0-3.545,3.545v.2a3.549,3.549,0,0,0,3.545,3.546h16.622a3.55,3.55,0,0,0,3.546-3.546v-.2a3.549,3.549,0,0,0-3.546-3.545Z" transform="translate(-3822.127 2387.323)"/></g><g transform="translate(83.78 44.873)"><path class="n" d="M3844.154-2360.16h-16.622a5.411,5.411,0,0,1-5.4-5.406v-.2a5.411,5.411,0,0,1,5.4-5.406h16.622a5.412,5.412,0,0,1,5.406,5.406v.2A5.412,5.412,0,0,1,3844.154-2360.16Zm-16.622-9.151a3.55,3.55,0,0,0-3.545,3.546v.2a3.55,3.55,0,0,0,3.545,3.547h16.622a3.55,3.55,0,0,0,3.546-3.547v-.2a3.55,3.55,0,0,0-3.546-3.546Z" transform="translate(-3822.127 2371.17)"/></g><path class="h" d="M3782.288-2376.309l-2.5,4.317a1.19,1.19,0,0,0,.443,1.624,1.2,1.2,0,0,0,.589.157h2.911a1.191,1.191,0,0,0,1.189-1.191,1.206,1.206,0,0,0-.157-.59Z" transform="translate(-3735.354 2416.405)"/><g transform="translate(14.692 68.856)"><path class="n" d="M3814.063-2343.511h-65.328a.929.929,0,0,1-.93-.93.929.929,0,0,1,.93-.929h65.328a.929.929,0,0,1,.929.929A.929.929,0,0,1,3814.063-2343.511Z" transform="translate(-3747.805 2345.37)"/></g><path class="h" d="M3783.621-2343.949l-2.5,4.309a1.19,1.19,0,0,0,.429,1.627,1.2,1.2,0,0,0,.6.162h2.92a1.19,1.19,0,0,0,1.194-1.186,1.18,1.18,0,0,0-.162-.6Z" transform="translate(-3735.448 2414.126)"/><path class="h" d="M3802.477-2360.407l-2.5,4.31a1.19,1.19,0,0,0,.43,1.627,1.184,1.184,0,0,0,.6.162h2.911a1.19,1.19,0,0,0,1.194-1.186,1.184,1.184,0,0,0-.162-.6Z" transform="translate(-3736.776 2415.285)"/><path class="h" d="M3834.126-2382.617c0-.708.348-1.165,1.056-1.165a1.018,1.018,0,0,1,1.065,1.165v2.4c0,.7-.349,1.165-1.065,1.165s-1.056-.466-1.056-1.165Zm.506,2.421c0,.425.175.674.55.674s.549-.249.549-.674v-2.446c0-.416-.175-.666-.549-.666s-.55.25-.55.666Z" transform="translate(-3739.192 2416.931)"/><path class="h" d="M3837.718-2381.108l-.267.458v1.548h-.515v-4.625h.515v2.237l1.232-2.237h.516l-1.165,2.1,1.206,2.5h-.523Z" transform="translate(-3739.39 2416.927)"/><path class="h" d="M3831.812-2366.857v.416h-.491v-.416c0-.417-.158-.666-.541-.666s-.541.249-.541.666v2.446c0,.416.175.673.541.673s.541-.257.541-.673v-.6h.491v.574c0,.7-.324,1.165-1.04,1.165s-1.04-.467-1.04-1.165v-2.421c0-.7.333-1.165,1.04-1.165S3831.812-2367.573,3831.812-2366.857Z" transform="translate(-3738.882 2415.821)"/><path class="h" d="M3832.993-2364.293l-.183.931h-.474l.881-4.626h.75l.89,4.626h-.474l-.183-.931Zm.058-.441h1.04l-.524-2.671Z" transform="translate(-3739.066 2415.818)"/><path class="h" d="M3835.931-2363.361h-.5v-4.626h.657l1.074,3.328v-3.328h.457v4.626h-.524l-1.182-3.743Z" transform="translate(-3739.284 2415.818)"/><path class="h" d="M3840.429-2366.857v.416h-.491v-.416c0-.417-.167-.666-.541-.666s-.541.249-.541.666v2.446c0,.416.166.673.541.673s.541-.257.541-.673v-.6h.491v.574c0,.7-.333,1.165-1.049,1.165s-1.039-.467-1.039-1.165v-2.421c0-.7.332-1.165,1.039-1.165S3840.429-2367.573,3840.429-2366.857Z" transform="translate(-3739.489 2415.821)"/><path class="h" d="M3842.735-2365.939v.466H3841.6v1.664h1.389v.466h-1.9v-4.626h1.9v.467H3841.6v1.58Z" transform="translate(-3739.682 2415.817)"/><path class="h" d="M3843.656-2363.361v-4.626h.516v4.16h1.323v.466Z" transform="translate(-3739.863 2415.818)"/><g class="o" transform="translate(6.227 33.114)"><path class="h" d="M3738.7-2376.68v-7.139h1.561c1.132,0,1.611.51,1.611,1.622v.438q0,1.178-.825,1.438v.01c.561.143.835.642.835,1.489v1.275a2.654,2.654,0,0,0,.1.867h-.806a3.186,3.186,0,0,1-.091-.867v-1.315c0-.765-.266-1.04-.949-1.04h-.642v3.223Zm.8-3.947h.642c.643,0,.939-.285.939-.979v-.51c0-.692-.235-.979-.837-.979h-.744Z" transform="translate(-3738.699 2383.819)"/></g><g class="o" transform="translate(6.146 48.669)"><path class="h" d="M3738.611-2361.508v-3.824c0-1.132.562-1.754,1.612-1.754s1.622.613,1.622,1.754v.582h-.756v-.633c0-.653-.285-.979-.846-.979s-.836.326-.836.979v3.937c0,.653.275.979.836.979s.846-.326.846-.979v-1.6h-.785v-.724h1.541v2.263c0,1.143-.562,1.764-1.622,1.764S3738.611-2360.365,3738.611-2361.508Z" transform="translate(-3738.611 2367.086)"/></g><g class="o" transform="translate(6.227 64.428)"><path class="h" d="M3738.7-2343v-7.138h1.591c1.132,0,1.612.51,1.612,1.622v.3c0,.765-.266,1.235-.8,1.428v.02c.6.174.907.673.907,1.5v.612a1.459,1.459,0,0,1-1.642,1.662Zm.8-4.089h.672c.643,0,.939-.285.939-.979v-.367c0-.693-.235-.979-.837-.979h-.774Zm0,3.365h.876c.581,0,.846-.275.846-.958v-.612c0-.775-.275-1.071-1.01-1.071h-.713Z" transform="translate(-3738.699 2350.133)"/></g><rect class="f" width="15.249" height="7.828" transform="translate(24.273 16.761)"/><path class="p" d="M3773.791-2393.154h-16.179v-8.759h16.179Zm-15.25-.93h14.32v-6.9h-14.32Z" transform="translate(-3733.804 2418.208)"/><rect class="f" width="15.249" height="7.828" transform="translate(50.852 16.761)"/><path class="p" d="M3802.381-2393.154H3786.2v-8.759h16.177Zm-15.248-.93h14.318v-6.9h-14.318Z" transform="translate(-3735.817 2418.208)"/><rect class="f" width="15.249" height="7.828" transform="translate(77.431 16.761)"/><path class="p" d="M3830.974-2393.154H3814.8v-8.759h16.177Zm-15.248-.93h14.318v-6.9h-14.318Z" transform="translate(-3737.831 2418.208)"/></g><g transform="translate(3573.948 -2743.284)"><rect class="m" width="136.283" height="69.259" transform="translate(0.538 0.538)"/><path class="p" d="M3720.12-2671.891H3582.908v-70.189H3720.12Zm-136.283-.929h135.353v-68.33H3583.838Z" transform="translate(-3582.835 2742.154)"/><rect class="g" width="136.283" height="12.797" transform="translate(0.538 0.538)"/><path class="p" d="M3720.188-2728.285H3582.829v-13.874h137.359Zm-136.283-1.077h135.206v-11.721H3583.906Z" transform="translate(-3582.829 2742.159)"/><line class="q" x1="6.408" y2="6.678" transform="translate(124.992 4.152)"/><line class="q" x2="6.408" y2="6.678" transform="translate(124.992 4.152)"/><g transform="translate(8.504 32.431)"><path class="n" d="M3679.406-2705.412h-86.5a.93.93,0,0,1-.93-.929.93.93,0,0,1,.93-.93h86.5a.929.929,0,0,1,.929.93A.929.929,0,0,1,3679.406-2705.412Z" transform="translate(-3591.977 2707.271)"/></g><g transform="translate(8.504 50.51)"><path class="n" d="M3679.406-2685.964h-86.5a.93.93,0,0,1-.93-.93.93.93,0,0,1,.93-.93h86.5a.929.929,0,0,1,.929.93A.929.929,0,0,1,3679.406-2685.964Z" transform="translate(-3591.977 2687.823)"/></g><g transform="translate(99.455 21.86)"><path class="n" d="M3716.492-2705.933h-21.171a5.51,5.51,0,0,1-5.5-5.5v-1.7a5.509,5.509,0,0,1,5.5-5.5h21.171a5.509,5.509,0,0,1,5.5,5.5v1.7A5.51,5.51,0,0,1,3716.492-2705.933Zm-21.171-10.851a3.648,3.648,0,0,0-3.644,3.644v1.7a3.648,3.648,0,0,0,3.644,3.644h21.171a3.648,3.648,0,0,0,3.643-3.644v-1.7a3.647,3.647,0,0,0-3.643-3.644Z" transform="translate(-3689.818 2718.643)"/></g><g transform="translate(99.455 39.659)"><path class="n" d="M3716.492-2686.786h-21.171a5.509,5.509,0,0,1-5.5-5.5v-1.7a5.51,5.51,0,0,1,5.5-5.5h21.171a5.509,5.509,0,0,1,5.5,5.5v1.7A5.509,5.509,0,0,1,3716.492-2686.786Zm-21.171-10.851a3.648,3.648,0,0,0-3.644,3.644v1.7a3.648,3.648,0,0,0,3.644,3.643h21.171a3.647,3.647,0,0,0,3.643-3.643v-1.7a3.648,3.648,0,0,0-3.643-3.644Z" transform="translate(-3689.818 2699.496)"/></g><path class="h" d="M3642.4-2705.77l-3.018,5.225a1.331,1.331,0,0,0,.479,1.822,1.331,1.331,0,0,0,.675.18h3.726a1.33,1.33,0,0,0,1.3-1.363,1.329,1.329,0,0,0-.181-.639Z" transform="translate(-3586.799 2739.596)"/><path class="h" d="M3666.339-2686.923l-3.019,5.235a1.333,1.333,0,0,0,.5,1.817,1.326,1.326,0,0,0,.66.176h3.726a1.323,1.323,0,0,0,1.337-1.307,1.324,1.324,0,0,0-.183-.686Z" transform="translate(-3588.485 2738.269)"/><path class="h" d="M3595.63-2718.595c1.09,0,1.518.522,1.518,1.555v.326c0,.745-.214,1.2-.819,1.388.68.2.932.736.932,1.509v.587a1.446,1.446,0,0,1-1.219,1.639,1.455,1.455,0,0,1-.412,0h-1.611v-7Zm-.2,2.971c.624,0,.931-.2.931-.931V-2717c0-.614-.205-.93-.773-.93h-.763v2.263Zm.232,3.325c.568,0,.829-.3.829-.931v-.624c0-.782-.308-1.043-.932-1.043h-.679v2.617Z" transform="translate(-3583.617 2740.5)"/><path class="h" d="M3599.795-2718.595c1.1,0,1.566.559,1.566,1.6v.569a1.315,1.315,0,0,1-.876,1.444,1.338,1.338,0,0,1,.931,1.462v1.09a1.749,1.749,0,0,0,.139.838h-.792a1.785,1.785,0,0,1-.13-.848v-1.1c0-.792-.373-1.043-1.024-1.043h-.55v2.989h-.782v-7Zm-.2,3.306c.624,0,1-.2,1-.931v-.67c0-.634-.232-.931-.811-.931h-.763v2.6Z" transform="translate(-3583.917 2740.5)"/><path class="h" d="M3603.258-2718.595v7h-.783v-7Z" transform="translate(-3584.213 2740.5)"/><path class="h" d="M3607.266-2716.9v.6h-.744v-.642c0-.625-.252-1.007-.82-1.007s-.82.382-.82,1.007v3.725c0,.634.261,1.007.82,1.007s.82-.373.82-1.007v-1.425h-.718v-.7h1.462v2.067c0,1.053-.5,1.761-1.583,1.761s-1.574-.708-1.574-1.761v-3.623c0-1.062.5-1.76,1.574-1.76S3607.266-2717.938,3607.266-2716.9Z" transform="translate(-3584.328 2740.504)"/><path class="h" d="M3609.079-2714.739v3.148h-.782v-7h.782v3.158h1.723v-3.158h.783v7h-.783v-3.148Z" transform="translate(-3584.623 2740.5)"/><path class="h" d="M3613.689-2711.591v-6.3H3612.4v-.708h3.353v.708h-1.3v6.3Z" transform="translate(-3584.911 2740.5)"/><path class="h" d="M3703.854-2713.249c0-.838.419-1.378,1.257-1.378a1.208,1.208,0,0,1,1.267,1.378v2.841a1.266,1.266,0,0,1-1.154,1.37,1.265,1.265,0,0,1-1.37-1.154,1.185,1.185,0,0,1,0-.216Zm.605,2.869c0,.5.214.791.652.791s.653-.288.653-.791v-2.9c0-.494-.205-.792-.653-.792s-.652.3-.652.792Z" transform="translate(-3591.351 2740.22)"/><path class="h" d="M3708.121-2711.465l-.326.54v1.863h-.605v-5.5h.605v2.646l1.463-2.646h.624l-1.388,2.505,1.434,2.99h-.633Z" transform="translate(-3591.587 2740.216)"/><path class="h" d="M3701.122-2694.593v.5h-.577v-.531c0-.494-.206-.791-.653-.791s-.643.3-.643.791v2.906c0,.494.2.792.643.792s.653-.3.653-.792v-.717h.577v.68c0,.829-.391,1.379-1.239,1.379s-1.229-.55-1.229-1.379v-2.841c0-.828.39-1.378,1.229-1.378S3701.122-2695.421,3701.122-2694.593Z" transform="translate(-3590.986 2738.906)"/><path class="h" d="M3702.512-2691.523l-.214,1.1h-.559l1.043-5.486h.931l1.024,5.486h-.605l-.215-1.1Zm.074-.531h1.221l-.624-3.167Z" transform="translate(-3591.203 2738.902)"/><path class="h" d="M3706.007-2690.425h-.55v-5.486h.772l1.276,3.968v-3.968h.54v5.486h-.642l-1.4-4.433Z" transform="translate(-3591.465 2738.902)"/><path class="h" d="M3711.332-2694.593v.5h-.578v-.531c0-.494-.2-.791-.642-.791s-.642.3-.642.791v2.906c0,.494.2.792.642.792s.642-.3.642-.792v-.717h.578v.68c0,.829-.392,1.379-1.239,1.379s-1.229-.55-1.229-1.379v-2.841c0-.828.39-1.378,1.229-1.378S3711.332-2695.421,3711.332-2694.593Z" transform="translate(-3591.705 2738.906)"/><path class="h" d="M3714.067-2693.479v.549h-1.342v1.956h1.649v.55h-2.254v-5.486h2.254v.56h-1.649v1.863Z" transform="translate(-3591.934 2738.902)"/><path class="h" d="M3715.156-2690.425v-5.486h.605v4.937h1.574v.55Z" transform="translate(-3592.148 2738.902)"/><path class="h" d="M3597.094-2695.973v.633h-.745v-.633c0-.634-.243-1.016-.82-1.016s-.838.354-.838,1.016v3.725c0,.634.261,1.016.82,1.016s.82-.382.82-1.016v-.93h.745v.875c0,1.063-.5,1.761-1.583,1.761s-1.574-.7-1.574-1.761v-3.669c0-1.062.5-1.76,1.574-1.76S3597.094-2697.026,3597.094-2695.973Z" transform="translate(-3583.61 2739.031)"/><path class="h" d="M3598.037-2695.973c0-1.072.531-1.76,1.6-1.76s1.611.689,1.611,1.76v3.632c0,1.063-.531,1.761-1.611,1.761s-1.6-.7-1.6-1.761Zm.772,3.66c0,.644.271,1.015.829,1.015s.829-.372.829-1.015v-3.66c0-.634-.261-1.016-.829-1.016s-.829.382-.829,1.016Z" transform="translate(-3583.9 2739.031)"/><path class="h" d="M3602.982-2690.649h-.708v-7h1l1.62,5.067v-5.067h.69v7h-.811l-1.789-5.663Z" transform="translate(-3584.198 2739.025)"/><path class="h" d="M3607.678-2690.647v-6.25h-1.295v-.718h3.353v.718h-1.295v6.287Z" transform="translate(-3584.488 2739.022)"/><path class="h" d="M3612.135-2697.654c1.1,0,1.565.568,1.565,1.6v.578a1.3,1.3,0,0,1-.875,1.434c.642.2.885.717.885,1.462v1.09a1.707,1.707,0,0,0,.139.839h-.792a1.76,1.76,0,0,1-.13-.848v-1.1c0-.792-.373-1.043-1.024-1.043h-.549v2.99h-.783v-7Zm-.2,3.307c.624,0,1-.2,1-.932v-.689c0-.634-.232-.931-.811-.931h-.763v2.589Z" transform="translate(-3584.783 2739.025)"/><path class="h" d="M3615.6-2692.056l-.269,1.407h-.727l1.341-7h1.136l1.341,7h-.783l-.27-1.407Zm.093-.671h1.566l-.792-4.042Z" transform="translate(-3585.066 2739.025)"/><path class="h" d="M3622.385-2695.973v.186h-.764v-.186c0-.634-.242-1.006-.8-1.006s-.8.372-.8,1c0,1.564,2.347,1.713,2.347,3.725,0,1.063-.512,1.751-1.584,1.751s-1.564-.689-1.564-1.751v-.4h.727v.409c0,.634.26,1.007.819,1.007s.82-.373.82-1.007c0-1.555-2.338-1.7-2.338-3.725,0-1.081.5-1.751,1.546-1.751A1.535,1.535,0,0,1,3622.385-2695.973Z" transform="translate(-3585.392 2739.03)"/><path class="h" d="M3624.36-2690.647v-6.25h-1.294v-.718h3.353v.718h-1.286v6.287Z" transform="translate(-3585.663 2739.022)"/></g><rect class="m" width="165.574" height="124.967" transform="translate(3467.263 -2416.823)"/><path class="p" d="M3634.065-2265.57h-166.5v-125.9h166.5Zm-165.573-.93h164.644v-124.038H3468.492Z" transform="translate(-0.764 -25.821)"/><rect class="g" width="165.574" height="15.547" transform="translate(3467.263 -2416.823)"/><path class="p" d="M3634.065-2374.989h-166.5v-16.478h166.5Zm-165.573-.93h164.644v-14.619H3468.492Z" transform="translate(-0.764 -25.821)"/><g transform="translate(3618.008 -2412.895)"><path class="j" d="M3630.692-2377.7a.463.463,0,0,1-.322-.129.465.465,0,0,1-.014-.657l7.782-8.111a.463.463,0,0,1,.656-.014.464.464,0,0,1,.014.657l-7.782,8.112A.459.459,0,0,1,3630.692-2377.7Z" transform="translate(-3630.227 2386.74)"/></g><g transform="translate(3618.008 -2412.894)"><path class="j" d="M3638.473-2377.7a.46.46,0,0,1-.335-.143l-7.782-8.112a.465.465,0,0,1,.014-.657.464.464,0,0,1,.656.014l7.782,8.111a.464.464,0,0,1-.014.657A.459.459,0,0,1,3638.473-2377.7Z" transform="translate(-3630.227 2386.74)"/></g><g transform="translate(3587.638 -2390.722)"><path class="n" d="M3630.089-2347.848h-26.371a6.167,6.167,0,0,1-6.16-6.16v-2.72a6.167,6.167,0,0,1,6.16-6.161h26.371a6.167,6.167,0,0,1,6.16,6.161v2.72A6.167,6.167,0,0,1,3630.089-2347.848Zm-26.371-13.181a4.306,4.306,0,0,0-4.3,4.3v2.72a4.306,4.306,0,0,0,4.3,4.3h26.371a4.306,4.306,0,0,0,4.3-4.3v-2.72a4.306,4.306,0,0,0-4.3-4.3Z" transform="translate(-3597.557 2362.888)"/></g><g transform="translate(3587.638 -2347.5)"><path class="n" d="M3630.089-2301.35h-26.371a6.167,6.167,0,0,1-6.16-6.16v-2.72a6.167,6.167,0,0,1,6.16-6.161h26.371a6.168,6.168,0,0,1,6.16,6.161v2.72A6.167,6.167,0,0,1,3630.089-2301.35Zm-26.371-13.183a4.306,4.306,0,0,0-4.3,4.3v2.72a4.306,4.306,0,0,0,4.3,4.3h26.371a4.306,4.306,0,0,0,4.3-4.3v-2.72a4.307,4.307,0,0,0-4.3-4.3Z" transform="translate(-3597.557 2316.392)"/></g><g transform="translate(3587.638 -2326.576)"><path class="n" d="M3630.089-2278.843h-26.371a6.167,6.167,0,0,1-6.16-6.16v-2.72a6.167,6.167,0,0,1,6.16-6.16h26.371a6.167,6.167,0,0,1,6.16,6.16v2.72A6.167,6.167,0,0,1,3630.089-2278.843Zm-26.371-13.181a4.305,4.305,0,0,0-4.3,4.3v2.72a4.306,4.306,0,0,0,4.3,4.3h26.371a4.306,4.306,0,0,0,4.3-4.3v-2.72a4.306,4.306,0,0,0-4.3-4.3Z" transform="translate(-3597.557 2293.883)"/></g><g transform="translate(3587.638 -2369.091)"><path class="n" d="M3630.089-2324.578h-26.371a6.167,6.167,0,0,1-6.16-6.16v-2.72a6.167,6.167,0,0,1,6.16-6.161h26.371a6.167,6.167,0,0,1,6.16,6.161v2.72A6.167,6.167,0,0,1,3630.089-2324.578Zm-26.371-13.181a4.306,4.306,0,0,0-4.3,4.3v2.72a4.306,4.306,0,0,0,4.3,4.3h26.371a4.306,4.306,0,0,0,4.3-4.3v-2.72a4.306,4.306,0,0,0-4.3-4.3Z" transform="translate(-3597.557 2339.618)"/></g><path class="h" d="M3583.5-2297.645l-3.017,5.223a1.15,1.15,0,0,0,.415,1.573,1.148,1.148,0,0,0,.583.157h4.024a1.151,1.151,0,0,0,1.154-1.147,1.154,1.154,0,0,0-.157-.583Z" transform="translate(-8.705 -32.428)"/><path class="p" d="M3585.468-2290.3h-4.028a1.8,1.8,0,0,1-.816-.219,1.6,1.6,0,0,1-.75-.985,1.6,1.6,0,0,1,.167-1.225l3.419-5.92,3.4,5.922a1.617,1.617,0,0,1,.219.817A1.617,1.617,0,0,1,3585.468-2290.3Zm-4.028-.93h4.026a.687.687,0,0,0,.688-.684.683.683,0,0,0-.094-.349l-2.6-4.524-2.614,4.524a.683.683,0,0,0-.072.521.678.678,0,0,0,.318.417A.767.767,0,0,0,3581.44-2291.227Z" transform="translate(-8.669 -32.358)"/><path class="n" d="M3533.684-2297.645l-3.017,5.231a1.151,1.151,0,0,0,.415,1.574,1.158,1.158,0,0,0,.583.157h4.024a1.15,1.15,0,0,0,1.207-1.092,1.147,1.147,0,0,0-.161-.646Z" transform="translate(-5.197 -32.428)"/><path class="p" d="M3535.712-2290.288l-.083,0h-4.006a1.611,1.611,0,0,1-.812-.22,1.618,1.618,0,0,1-.583-2.209l3.417-5.923,3.454,5.914a1.589,1.589,0,0,1,.223.906,1.61,1.61,0,0,1-.529,1.116A1.607,1.607,0,0,1,3535.712-2290.288Zm-4.085-.93h4.026a.707.707,0,0,0,.518-.177.681.681,0,0,0,.225-.474.673.673,0,0,0-.1-.385l-2.647-4.535-2.619,4.537a.688.688,0,0,0,.247.94A1.109,1.109,0,0,0,3531.627-2291.218Z" transform="translate(-5.162 -32.358)"/><path class="f" d="M3483.871-2297.645l-3.026,5.223a1.15,1.15,0,0,0,.415,1.573,1.148,1.148,0,0,0,.583.157h4.023a1.152,1.152,0,0,0,1.179-1.123,1.147,1.147,0,0,0-.157-.607Z" transform="translate(-1.688 -32.428)"/><path class="p" d="M3485.859-2290.3h-4.051a1.731,1.731,0,0,1-.817-.219,1.6,1.6,0,0,1-.749-.985,1.6,1.6,0,0,1,.167-1.225l3.427-5.917,3.419,5.917a1.615,1.615,0,0,1,.218.853A1.617,1.617,0,0,1,3485.859-2290.3Zm-4.052-.93h4.024a.672.672,0,0,0,.713-.669.681.681,0,0,0-.093-.363l-2.617-4.528-2.623,4.527a.683.683,0,0,0-.072.521.679.679,0,0,0,.319.417A.664.664,0,0,0,3481.807-2291.227Z" transform="translate(-1.653 -32.358)"/><path class="h" d="M3614.4-2356.552c0-1.014.508-1.674,1.529-1.674s1.529.66,1.529,1.674v3.452c0,1.014-.507,1.674-1.529,1.674s-1.529-.66-1.529-1.674Zm.733,3.493c0,.612.258.957.8.957s.8-.346.8-.957v-3.525c0-.6-.249-.966-.8-.966s-.8.363-.8.966Z" transform="translate(-11.104 -28.162)"/><path class="h" d="M3619.578-2354.383l-.387.66v2.238h-.74v-6.672h.74v3.219l1.771-3.219h.756l-1.69,3.042,1.762,3.63h-.8Z" transform="translate(-11.39 -28.167)"/><path class="h" d="M3611.073-2333.88v.6h-.7v-.636c0-.6-.242-.965-.805-.965s-.8.362-.8.965v3.525c0,.6.25.958.8.958s.805-.362.805-.958v-.869h.7v.8c0,1.006-.475,1.674-1.505,1.674s-1.5-.668-1.5-1.674v-3.428c0-1.006.475-1.674,1.5-1.674S3611.073-2334.885,3611.073-2333.88Z" transform="translate(-10.659 -29.759)"/><path class="h" d="M3612.769-2330.156l-.258,1.343h-.692l1.28-6.67h1.078l1.279,6.67h-.748l-.258-1.343Zm.1-.636h1.481l-.749-3.855Z" transform="translate(-10.923 -29.764)"/><path class="h" d="M3617.006-2328.813h-.668v-6.67h.95l1.536,4.828v-4.828h.66v6.67h-.8l-1.707-5.391Z" transform="translate(-11.241 -29.764)"/><path class="h" d="M3623.479-2333.88v.6h-.7v-.636c0-.6-.24-.965-.8-.965s-.805.362-.805.965v3.525c0,.6.242.958.805.958s.8-.362.8-.958v-.869h.7v.8c0,1.006-.474,1.674-1.5,1.674s-1.489-.668-1.489-1.674v-3.428c0-1.006.475-1.674,1.489-1.674S3623.479-2334.885,3623.479-2333.88Z" transform="translate(-11.533 -29.759)"/><path class="h" d="M3626.807-2332.531v.667H3625.2v2.374h2v.676h-2.744v-6.67h2.744v.676h-2v2.278Z" transform="translate(-11.812 -29.764)"/><path class="h" d="M3628.1-2328.813v-6.67h.8v5.995h1.908v.676Z" transform="translate(-12.069 -29.764)"/><rect class="f" width="78.719" height="10.293" transform="translate(3487.228 -2387.04)"/><path class="p" d="M3568.689-2348.205H3489.04v-11.222h79.649Zm-78.719-.929h77.79v-9.363h-77.79Z" transform="translate(-2.277 -28.078)"/><rect class="n" width="14.92" height="8.232" transform="translate(3494.688 -2320.159)"/><path class="p" d="M3512.914-2278.317h-15.849v-9.162h15.849Zm-14.92-.929h13.99v-7.3h-13.99Z" transform="translate(-2.842 -33.144)"/><rect class="m" width="14.92" height="8.232" transform="translate(3527.103 -2320.159)"/><path class="p" d="M3547.784-2278.317h-15.848v-9.162h15.848Zm-14.919-.929h13.99v-7.3h-13.99Z" transform="translate(-5.297 -33.144)"/><rect class="f" width="14.92" height="8.232" transform="translate(3561.063 -2320.159)"/><path class="p" d="M3584.318-2278.317h-15.85v-9.162h15.85Zm-14.92-.929h13.99v-7.3H3569.4Z" transform="translate(-7.87 -33.144)"/><rect class="f" width="99.304" height="38.072" transform="translate(3476.936 -2370.06)"/><path class="p" d="M3578.2-2302.16H3477.968v-39H3578.2Zm-99.3-.93h98.375v-37.142H3478.9Z" transform="translate(-1.497 -29.364)"/><rect class="n" width="99.304" height="5.657" transform="translate(3476.936 -2306.776)"/><path class="p" d="M3578.2-2266.5H3477.968v-6.587H3578.2Zm-99.3-.93h98.375v-4.728H3478.9Z" transform="translate(-1.497 -34.158)"/><rect class="r" width="2.631" height="21.551" transform="translate(3481.659 -2355.076)"/><rect class="r" width="2.631" height="15.773" transform="translate(3484.283 -2349.29)"/><rect class="r" width="2.631" height="12.618" transform="translate(3485.86 -2346.136)"/><rect class="r" width="2.631" height="14.195" transform="translate(3489.803 -2347.713)"/><rect class="r" width="2.631" height="9.464" transform="translate(3488.226 -2342.989)"/><rect class="r" width="2.631" height="8.933" transform="translate(3490.858 -2342.458)"/><rect class="r" width="2.631" height="5.786" transform="translate(3494.012 -2339.303)"/><rect class="r" width="2.631" height="3.155" transform="translate(3496.112 -2336.68)"/><rect class="r" width="2.631" height="3.155" transform="translate(3520.818 -2336.68)"/><rect class="r" width="2.631" height="3.155" transform="translate(3525.284 -2336.68)"/><rect class="r" width="2.631" height="8.409" transform="translate(3527.392 -2341.935)"/><rect class="r" width="2.631" height="1.577" transform="translate(3531.07 -2335.103)"/><rect class="r" width="2.631" height="5.255" transform="translate(3534.225 -2338.78)"/><rect class="r" width="2.631" height="8.933" transform="translate(3536.848 -2342.458)"/><rect class="r" width="2.631" height="7.886" transform="translate(3541.057 -2341.412)"/><rect class="r" width="2.631" height="4.732" transform="translate(3542.634 -2338.258)"/><rect class="r" width="2.631" height="5.786" transform="translate(3546.835 -2339.303)"/><rect class="r" width="2.631" height="4.732" transform="translate(3548.943 -2338.258)"/><rect class="r" width="2.631" height="11.564" transform="translate(3555.244 -2345.09)"/><rect class="r" width="2.631" height="5.255" transform="translate(3558.399 -2338.78)"/><rect class="r" width="2.631" height="2.631" transform="translate(3553.144 -2336.149)"/><rect class="r" width="2.631" height="24.705" transform="translate(3556.822 -2358.231)"/><rect class="r" width="2.631" height="15.242" transform="translate(3559.976 -2348.767)"/><rect class="r" width="2.631" height="4.209" transform="translate(3562.607 -2337.726)"/><rect class="r" width="2.631" height="5.786" transform="translate(3565.239 -2339.303)"/><rect class="r" width="2.631" height="1.054" transform="translate(3568.917 -2334.572)"/><rect class="r" width="2.631" height="4.732" transform="translate(3572.071 -2338.258)"/><rect class="r" width="2.631" height="5.786" transform="translate(3477.451 -2339.303)"/><rect class="r" width="2.631" height="2.631" transform="translate(3499.267 -2336.149)"/><rect class="r" width="2.631" height="5.52" transform="translate(3502.156 -2339.046)"/><rect class="r" width="2.631" height="2.631" transform="translate(3504.522 -2336.149)"/><rect class="r" width="2.631" height="2.631" transform="translate(3507.153 -2336.149)"/><rect class="r" width="2.631" height="2.631" transform="translate(3509.777 -2336.149)"/><rect class="r" width="2.631" height="2.631" transform="translate(3512.408 -2336.149)"/><rect class="r" width="2.631" height="2.631" transform="translate(3515.04 -2336.149)"/><rect class="r" width="2.631" height="5.255" transform="translate(3517.663 -2338.78)"/></g></svg>