<svg xmlns="http://www.w3.org/2000/svg" width="1030" height="400" viewBox="0 0 1030 400"><defs><style>.a,.aa,.v,.x,.z{fill:#fff;}.b{fill:#ebebeb;}.c{fill:#f0f0f0;}.d,.e{fill:#e0e0e0;}.e,.l,.z{opacity:0.2;}.aa,.e,.g,.l,.t,.v,.x,.z{isolation:isolate;}.f{fill:#c7ffd3;}.aa,.g{opacity:0.1;}.h{fill:#57cc99;}.i{fill:#f5f5f5;}.j,.t{opacity:0.15;}.k{opacity:0.4;}.m{fill:#407bff;}.n{fill:#ffc94a;}.o{fill:#263238;}.p{fill:#932a2a;}.q{fill:#b55b52;}.r{fill:#133347;}.s{fill:#419973;}.u{fill:#22577a;}.v,.w{opacity:0.8;}.x{opacity:0.9;}.y{fill:#c4972b;}.ab{fill:#ffde91;}.ac{fill:#e6e6e6;}.ad{fill:#b3b3b3;}.ae{fill:#80ed99;}.af{fill:#9f5b53;}.ag{fill:#892b29;}.ah{fill:#2e353a;}.ai{fill:none;stroke:#2e353a;stroke-linecap:round;stroke-linejoin:round;stroke-width:0.725px;}</style></defs><g transform="translate(-285 -641)"><rect class="a" width="1030" height="400" transform="translate(285 641)"/><g transform="translate(-2.254 -72.934)"><g transform="translate(-3685.103 2849)"><rect class="b" width="34.627" height="0.261" transform="translate(4410.097 -1764.884)"/><rect class="b" width="9.085" height="0.261" transform="translate(4311.56 -1762.04)"/><rect class="b" width="20.063" height="0.261" transform="translate(4388.989 -1774.586)"/><rect class="b" width="45.155" height="0.261" transform="translate(4029.204 -1772.83)"/><rect class="b" width="6.618" height="0.261" transform="translate(4083.674 -1772.83)"/><rect class="b" width="97.942" height="0.261" transform="translate(4111.808 -1768.418)"/><path class="b" d="M4220.163-1828.335h-201.9a5.97,5.97,0,0,1-5.959-5.97v-283.778a5.969,5.969,0,0,1,5.959-5.917h201.884a5.97,5.97,0,0,1,5.97,5.97h0v283.725A5.97,5.97,0,0,1,4220.163-1828.335Zm-201.9-295.456a5.708,5.708,0,0,0-5.7,5.708v283.778a5.709,5.709,0,0,0,5.7,5.709h201.884a5.719,5.719,0,0,0,5.709-5.709v-283.778a5.719,5.719,0,0,0-5.709-5.708Z"/><path class="b" d="M4466.206-1828.335H4264.321a5.979,5.979,0,0,1-5.969-5.97v-283.778a5.98,5.98,0,0,1,5.969-5.917h201.885a5.97,5.97,0,0,1,5.97,5.97v283.725A5.97,5.97,0,0,1,4466.206-1828.335Zm-201.885-295.456a5.719,5.719,0,0,0-5.708,5.708v283.778a5.72,5.72,0,0,0,5.708,5.709h201.885a5.719,5.719,0,0,0,5.708-5.709v-283.778a5.718,5.718,0,0,0-5.708-5.708Z"/><path class="b" d="M4712.26-1828.335H4510.365a5.971,5.971,0,0,1-5.96-5.97v-283.778a5.971,5.971,0,0,1,5.96-5.917h201.884a5.97,5.97,0,0,1,5.97,5.97h0v283.725A5.97,5.97,0,0,1,4712.26-1828.335Zm-201.895-295.456a5.708,5.708,0,0,0-5.7,5.708v283.778a5.709,5.709,0,0,0,5.7,5.709h201.884a5.72,5.72,0,0,0,5.709-5.709v-283.778a5.72,5.72,0,0,0-5.709-5.708Z"/><path class="b" d="M4958.3-1828.335H4756.418a5.981,5.981,0,0,1-5.97-5.97v-283.778a5.981,5.981,0,0,1,5.97-5.917H4958.3a5.97,5.97,0,0,1,5.97,5.97v283.725A5.97,5.97,0,0,1,4958.3-1828.335Zm-201.885-295.456a5.719,5.719,0,0,0-5.708,5.708v283.778a5.719,5.719,0,0,0,5.708,5.709H4958.3a5.72,5.72,0,0,0,5.708-5.709v-283.778a5.719,5.719,0,0,0-5.708-5.708Z"/><rect class="b" width="522.746" height="0.261" transform="translate(3974.357 -1781.706)"/><path class="c" d="M4287.513-1797.21h3.137c3.785,0,6.367-2.468,5.771-5.521L4269-1942.178c-.607-3.053-4.182-5.521-7.936-5.521H4043.088l29.545,150.489Z"/><path class="d" d="M4074.223-1797.21h0c-4.642,0-9-3.032-9.744-6.775l-26.9-136.96c-.742-3.743,2.426-6.775,7.078-6.775h0c4.642,0,9,3.032,9.734,6.775l26.911,136.96C4082.043-1800.242,4078.906-1797.21,4074.223-1797.21Z"/><path class="b" d="M4197.507-1797.21H4434v11.761a3.848,3.848,0,0,1-3.805,3.848H4197.507v-15.609Z"/><path class="d" d="M4073.679-1797.21h165.188v11.761a3.848,3.848,0,0,1-3.848,3.848H4077.484a3.848,3.848,0,0,1-3.8-3.848v-11.761Z"/><path class="e" d="M4343.416-1797.21c.084,2.7,2.812,4.872,6.179,4.872h25.572c3.367,0,6.1-2.175,6.179-4.872Z"/><path class="d" d="M4279.62-1809.045H4093.951l-25.092-127.686h185.669Z"/><rect class="b" width="34.627" height="0.261" transform="translate(4529.736 -1764.884)"/><rect class="b" width="9.085" height="0.261" transform="translate(4653.815 -1762.04)"/><rect class="b" width="20.063" height="0.261" transform="translate(4565.409 -1774.586)"/><rect class="b" width="45.155" height="0.261" transform="translate(4900.102 -1772.83)"/><rect class="b" width="6.618" height="0.261" transform="translate(4884.168 -1772.83)"/><rect class="b" width="97.942" height="0.261" transform="translate(4764.71 -1768.418)"/><rect class="b" width="522.746" height="0.261" transform="translate(4477.357 -1781.706)"/><path class="c" d="M4901.827-1797.21l29.546-150.489H4713.4c-3.753,0-7.329,2.468-7.935,5.521l-27.424,139.447c-.6,3.053,1.987,5.521,5.771,5.521h218.017Z"/><path class="d" d="M4893.16-1803.985l26.911-136.96c.732-3.743,5.091-6.775,9.733-6.775h0c4.653,0,7.821,3.032,7.078,6.775l-26.9,136.96c-.742,3.743-5.1,6.775-9.744,6.775h0C4895.554-1797.21,4892.418-1800.242,4893.16-1803.985Z"/><path class="b" d="M4776.953-1797.21v15.609H4544.269a3.848,3.848,0,0,1-3.806-3.848v-11.761h236.49Z"/><path class="d" d="M4900.781-1797.21v11.761a3.847,3.847,0,0,1-3.8,3.848H4739.441a3.847,3.847,0,0,1-3.847-3.848v-11.761h165.187Z"/><path class="e" d="M4593.114-1797.21c.084,2.7,2.812,4.872,6.179,4.872h25.573c3.366,0,6.095-2.175,6.179-4.872Z"/><path class="d" d="M4719.932-1936.731H4905.6l-25.092,127.686H4694.84Z"/><path class="d" d="M4163.7-1943.234a2.8,2.8,0,0,1-2.142,3.333,2.8,2.8,0,0,1-3.334-2.142,2.8,2.8,0,0,1,2.142-3.333,2.77,2.77,0,0,1,.6-.064A2.519,2.519,0,0,1,4163.7-1943.234Z"/><path class="c" d="M4332.362-1878.425a16.29,16.29,0,0,0-.257-4.829l4.521-3.288-2.209-4.8-5.445,1.284a16.531,16.531,0,0,0-7.809-5.535l-.59-5.561-5.266-.475-1.6,5.355a16.5,16.5,0,0,0-8.7,4.007l-5.137-2.273-3.056,4.315,3.852,4.059a16.393,16.393,0,0,0-.886,9.542l-4.52,3.287,2.209,4.8,5.445-1.285a16.5,16.5,0,0,0,7.821,5.535l.578,5.561,5.265.488,1.606-5.368a16.431,16.431,0,0,0,8.694-4.007l5.137,2.273,3.044-4.315-3.853-4.058A15.9,15.9,0,0,0,4332.362-1878.425Zm-17.273,7.4a8.567,8.567,0,0,1-7.746-9.315,8.567,8.567,0,0,1,9.315-7.745,8.565,8.565,0,0,1,7.745,9.315l0,.039A8.554,8.554,0,0,1,4315.089-1871.028Z"/><path class="c" d="M4352.91-1856.156a12.215,12.215,0,0,0-.526-3.583l3.133-2.749-2.029-3.4-3.955,1.284a12.374,12.374,0,0,0-6.19-3.583l-.822-4.1h-3.956l-.809,4.1a12.319,12.319,0,0,0-6.19,3.583l-3.969-1.284-1.964,3.429,3.133,2.748a12.411,12.411,0,0,0,0,7.154l-3.133,2.761,1.964,3.416,3.969-1.284a12.2,12.2,0,0,0,6.19,3.57l.809,4.1h3.956l.822-4.1a12.248,12.248,0,0,0,6.19-3.57l3.955,1.284,1.965-3.416-3.133-2.761A12.112,12.112,0,0,0,4352.91-1856.156Zm-12.3,6.64a6.421,6.421,0,0,1-6.421-6.422,6.421,6.421,0,0,1,6.421-6.421,6.421,6.421,0,0,1,6.421,6.421,6.42,6.42,0,0,1-6.421,6.422h0Z"/><path class="c" d="M4849.362-2100.425a16.289,16.289,0,0,0-.257-4.829l4.521-3.288-2.209-4.8-5.445,1.284a16.531,16.531,0,0,0-7.809-5.535l-.59-5.561-5.266-.475-1.6,5.355a16.5,16.5,0,0,0-8.7,4.007l-5.137-2.273-3.056,4.315,3.852,4.059a16.393,16.393,0,0,0-.886,9.542l-4.52,3.287,2.209,4.8,5.445-1.285a16.5,16.5,0,0,0,7.821,5.535l.578,5.561,5.265.488,1.606-5.368a16.433,16.433,0,0,0,8.694-4.007l5.137,2.273,3.044-4.315-3.853-4.058A15.9,15.9,0,0,0,4849.362-2100.425Zm-17.273,7.4a8.567,8.567,0,0,1-7.746-9.315,8.567,8.567,0,0,1,9.315-7.745,8.565,8.565,0,0,1,7.745,9.315l0,.039A8.554,8.554,0,0,1,4832.089-2093.028Z"/><path class="c" d="M4869.91-2078.156a12.215,12.215,0,0,0-.526-3.583l3.133-2.749-2.029-3.4-3.955,1.284a12.372,12.372,0,0,0-6.19-3.583l-.822-4.1h-3.956l-.809,4.1a12.319,12.319,0,0,0-6.19,3.583l-3.969-1.284-1.964,3.429,3.133,2.748a12.412,12.412,0,0,0,0,7.154l-3.133,2.761,1.964,3.416,3.969-1.284a12.2,12.2,0,0,0,6.19,3.57l.809,4.1h3.956l.822-4.1a12.249,12.249,0,0,0,6.19-3.57l3.955,1.284,1.965-3.416-3.133-2.761A12.111,12.111,0,0,0,4869.91-2078.156Zm-12.3,6.64a6.421,6.421,0,0,1-6.421-6.422,6.421,6.421,0,0,1,6.421-6.421,6.421,6.421,0,0,1,6.421,6.421,6.42,6.42,0,0,1-6.421,6.422h0Z"/><path class="d" d="M4406.355-2010.805h-35.547v-35.546h35.547Zm-34.5-1.045h33.456v-33.456h-33.456Z"/><path class="d" d="M4413.715-1984.207H4364.8v-12.724h48.919Zm-47.873-1.046h46.827v-10.632h-46.827Z"/><path class="d" d="M4365-1945.419H4345.35v-19.666H4365Zm-18.609-1.046h17.564v-17.575H4346.4Z"/><path class="d" d="M4387.776-1945.419h-19.655v-19.666h19.655Zm-18.61-1.046h17.565v-17.575h-17.565Z"/><path class="d" d="M4410.547-1945.419h-19.655v-19.666h19.655Zm-18.61-1.046H4409.5v-17.575h-17.564Z"/><path class="d" d="M4433.328-1945.419h-19.655v-19.666h19.655Zm-18.61-1.046h17.565v-17.575h-17.565Z"/><path class="d" d="M4424.023-1964.813h-1.045v-7.13H4355.23v7.13h-1.045v-8.176h69.839Z"/><rect class="d" width="1.045" height="12.264" transform="translate(4388.811 -1984.73)"/><rect class="d" width="1.045" height="15.275" transform="translate(4388.811 -2011.683)"/><rect class="d" width="1.045" height="7.914" transform="translate(4377.833 -1972.466)"/><rect class="d" width="1.045" height="7.914" transform="translate(4400.008 -1972.466)"/><path class="d" d="M4088.765-2026.079h-36.059v-12.713h36.059Zm-35.013-1.046h33.968v-10.622h-33.968Z"/><path class="d" d="M4095.2-2050.565h-48.918v-12.723H4095.2Zm-47.873-1.045h46.828v-10.633h-46.828Z"/><path class="d" d="M4057.787-1993.115h-19.655v-19.655h19.655Zm-18.609-1.045h17.564v-17.565h-17.564Z"/><path class="d" d="M4080.569-1993.115h-19.656v-19.655h19.656Zm-18.61-1.045h17.564v-17.565h-17.564Z"/><path class="d" d="M4103.34-1993.115h-19.656v-19.655h19.656Zm-18.61-1.045h17.564v-17.565H4084.73Z"/><path class="d" d="M4093.229-2011.15l-22.5-14.522-22.5,13.487-.533-.9,23.042-13.811,23.053,14.867Z"/><rect class="d" width="1.045" height="13.654" transform="translate(4070.218 -2026.288)"/><rect class="d" width="1.045" height="12.943" transform="translate(4070.218 -2050.052)"/><path class="d" d="M4527.765-1911.079h-36.059v-12.713h36.059Zm-35.013-1.046h33.968v-10.622h-33.968Z"/><path class="d" d="M4534.195-1935.565h-48.918v-12.723h48.918Zm-47.873-1.045h46.828v-10.633h-46.828Z"/><path class="d" d="M4496.787-1878.115h-19.655v-19.655h19.655Zm-18.609-1.045h17.564v-17.565h-17.564Z"/><path class="d" d="M4519.569-1878.115h-19.656v-19.655h19.656Zm-18.61-1.045h17.564v-17.565h-17.564Z"/><path class="d" d="M4542.34-1878.115h-19.656v-19.655h19.656Zm-18.61-1.045h17.564v-17.565H4523.73Z"/><path class="d" d="M4532.229-1896.15l-22.5-14.522-22.5,13.487-.533-.9,23.043-13.811,23.053,14.867Z"/><rect class="d" width="1.045" height="13.654" transform="translate(4509.218 -1911.288)"/><rect class="d" width="1.045" height="12.943" transform="translate(4509.218 -1935.052)"/><rect class="f" width="305.221" height="231.639" transform="translate(4078.708 -2113.869)"/><rect class="g" width="305.033" height="15.306" transform="translate(4078.896 -2113.869)"/><path class="a" d="M4091.86-2106.133a3.022,3.022,0,0,1-3.021,3.022,3.022,3.022,0,0,1-3.022-3.022,3.022,3.022,0,0,1,3.022-3.021h0A3.022,3.022,0,0,1,4091.86-2106.133Z"/><path class="a" d="M4102.409-2106.133a3.022,3.022,0,0,1-3.021,3.022,3.022,3.022,0,0,1-3.022-3.022,3.022,3.022,0,0,1,3.022-3.021h0A3.022,3.022,0,0,1,4102.409-2106.133Z"/><path class="a" d="M4112.948-2106.133a3.022,3.022,0,0,1-3.022,3.022,3.021,3.021,0,0,1-3.021-3.022,3.021,3.021,0,0,1,3.021-3.021h0A3.022,3.022,0,0,1,4112.948-2106.133Z"/><path class="h" d="M4360.875-2051.125H4357v-1.75h2.125V-2055h1.75Z"/><path class="h" d="M4351.07-2051.125h-5.93v-1.75h5.93Zm-11.86,0h-5.931v-1.75h5.931Zm-11.86,0h-5.931v-1.75h5.931Zm-11.861,0h-5.93v-1.75h5.93Zm-11.86,0H4297.7v-1.75h5.931Zm-11.861,0h-5.93v-1.75h5.93Zm-11.861,0h-5.929v-1.75h5.929Zm-11.86,0h-5.93v-1.75h5.93Zm-11.86,0h-5.93v-1.75h5.93Zm-11.861,0h-5.93v-1.75h5.93Zm-11.86,0h-5.931v-1.75h5.931Zm-11.861,0h-5.93v-1.75h5.93Zm-11.86,0h-5.931v-1.75h5.931Zm-11.86,0h-5.931v-1.75h5.931Zm-11.862,0h-5.929v-1.75h5.929Zm-11.86,0h-5.93v-1.75h5.93Zm-11.86,0h-5.93v-1.75h5.93Zm-11.861,0h-5.93v-1.75h5.93Zm-11.86,0h-5.931v-1.75h5.931Zm-11.86,0h-5.931v-1.75h5.931Zm-11.861,0h-5.93v-1.75h5.93Z"/><path class="h" d="M4102-2051.125h-3.875V-2055h1.75v2.125H4102Z"/><path class="h" d="M4099.875-2060.6h-1.75v-5.6h1.75Zm0-11.2h-1.75v-5.6h1.75Z"/><path class="h" d="M4099.875-2083h-1.75v-3.875H4102v1.75h-2.125Z"/><path class="h" d="M4351.069-2085.125h-5.93v-1.75h5.93Zm-11.86,0h-5.931v-1.75h5.931Zm-11.86,0h-5.931v-1.75h5.931Zm-11.861,0h-5.93v-1.75h5.93Zm-11.861,0h-5.93v-1.75h5.93Zm-11.86,0h-5.93v-1.75h5.93Zm-11.861,0h-5.929v-1.75h5.929Zm-11.86,0h-5.931v-1.75h5.931Zm-11.86,0h-5.931v-1.75h5.931Zm-11.861,0h-5.93v-1.75h5.93Zm-11.86,0h-5.931v-1.75h5.931Zm-11.861,0h-5.93v-1.75h5.93Zm-11.861,0h-5.93v-1.75h5.93Zm-11.86,0h-5.93v-1.75h5.93Zm-11.861,0h-5.929v-1.75h5.929Zm-11.86,0h-5.93v-1.75h5.93Zm-11.86,0h-5.931v-1.75h5.931Zm-11.861,0h-5.93v-1.75h5.93Zm-11.86,0h-5.931v-1.75h5.931Zm-11.86,0h-5.931v-1.75h5.931Zm-11.861,0h-5.93v-1.75h5.93Z"/><path class="h" d="M4360.875-2083h-1.75v-2.125H4357v-1.75h3.875Z"/><path class="h" d="M4360.875-2060.6h-1.75v-5.6h1.75Zm0-11.2h-1.75v-5.6h1.75Z"/><path class="h" d="M4219.875-1895.125H4216v-1.75h2.125V-1899h1.75Z"/><path class="h" d="M4210-1895.125h-6v-1.75h6Zm-12,0h-6v-1.75h6Zm-12,0h-6v-1.75h6Zm-12,0h-6v-1.75h6Zm-12,0h-6v-1.75h6Zm-12,0h-6v-1.75h6Zm-12,0h-6v-1.75h6Zm-12,0h-6v-1.75h6Zm-12,0h-6v-1.75h6Z"/><path class="h" d="M4102-1895.125h-3.875V-1899h1.75v2.125H4102Z"/><path class="h" d="M4099.875-1905h-1.75v-6h1.75Zm0-12h-1.75v-6h1.75Zm0-12h-1.75v-6h1.75Zm0-12h-1.75v-6h1.75Zm0-12h-1.75v-6h1.75Zm0-12h-1.75v-6h1.75Zm0-12h-1.75v-6h1.75Zm0-12h-1.75v-6h1.75Zm0-12h-1.75v-6h1.75Zm0-12h-1.75v-6h1.75Zm0-12h-1.75v-6h1.75Z"/><path class="h" d="M4099.875-2037h-1.75v-3.875H4102v1.75h-2.125Z"/><path class="h" d="M4210-2039.125h-6v-1.75h6Zm-12,0h-6v-1.75h6Zm-12,0h-6v-1.75h6Zm-12,0h-6v-1.75h6Zm-12,0h-6v-1.75h6Zm-12,0h-6v-1.75h6Zm-12,0h-6v-1.75h6Zm-12,0h-6v-1.75h6Zm-12,0h-6v-1.75h6Z"/><path class="h" d="M4219.875-2037h-1.75v-2.125H4216v-1.75h3.875Z"/><path class="h" d="M4219.875-1905h-1.75v-6h1.75Zm0-12h-1.75v-6h1.75Zm0-12h-1.75v-6h1.75Zm0-12h-1.75v-6h1.75Zm0-12h-1.75v-6h1.75Zm0-12h-1.75v-6h1.75Zm0-12h-1.75v-6h1.75Zm0-12h-1.75v-6h1.75Zm0-12h-1.75v-6h1.75Zm0-12h-1.75v-6h1.75Zm0-12h-1.75v-6h1.75Z"/><path class="h" d="M4360.875-1895.125H4357v-1.75h2.125V-1899h1.75Z"/><path class="h" d="M4351.238-1895.125h-5.761v-1.75h5.761Zm-11.523,0h-5.763v-1.75h5.763Zm-11.525,0h-5.761v-1.75h5.761Zm-11.523,0H4310.9v-1.75h5.762Zm-11.524,0h-5.762v-1.75h5.762Zm-11.524,0h-5.762v-1.75h5.762Zm-11.523,0h-5.762v-1.75h5.762Zm-11.525,0h-5.761v-1.75h5.761Zm-11.523,0h-5.762v-1.75h5.762Zm-11.524,0h-5.762v-1.75h5.762Z"/><path class="h" d="M4236-1895.125h-3.875V-1899h1.75v2.125H4236Z"/><path class="h" d="M4233.875-1905h-1.75v-6h1.75Zm0-12h-1.75v-6h1.75Zm0-12h-1.75v-6h1.75Zm0-12h-1.75v-6h1.75Zm0-12h-1.75v-6h1.75Zm0-12h-1.75v-6h1.75Zm0-12h-1.75v-6h1.75Zm0-12h-1.75v-6h1.75Zm0-12h-1.75v-6h1.75Zm0-12h-1.75v-6h1.75Zm0-12h-1.75v-6h1.75Z"/><path class="h" d="M4233.875-2037h-1.75v-3.875H4236v1.75h-2.125Z"/><path class="h" d="M4351.238-2039.125h-5.762v-1.75h5.762Zm-11.524,0h-5.762v-1.75h5.762Zm-11.524,0h-5.761v-1.75h5.761Zm-11.524,0H4310.9v-1.75h5.762Zm-11.523,0h-5.762v-1.75h5.762Zm-11.524,0h-5.762v-1.75h5.762Zm-11.524,0h-5.762v-1.75h5.762Zm-11.524,0h-5.761v-1.75h5.761Zm-11.523,0h-5.763v-1.75h5.763Zm-11.525,0h-5.761v-1.75h5.761Z"/><path class="h" d="M4360.875-2037h-1.75v-2.125H4357v-1.75h3.875Z"/><path class="h" d="M4360.875-1905h-1.75v-6h1.75Zm0-12h-1.75v-6h1.75Zm0-12h-1.75v-6h1.75Zm0-12h-1.75v-6h1.75Zm0-12h-1.75v-6h1.75Zm0-12h-1.75v-6h1.75Zm0-12h-1.75v-6h1.75Zm0-12h-1.75v-6h1.75Zm0-12h-1.75v-6h1.75Zm0-12h-1.75v-6h1.75Zm0-12h-1.75v-6h1.75Z"/><rect class="f" width="305.221" height="231.639" transform="translate(4546.708 -2113.869)"/><rect class="g" width="305.033" height="15.306" transform="translate(4546.708 -2113.869)"/><path class="a" d="M4537.86-2106.133a3.022,3.022,0,0,1-3.021,3.022,3.022,3.022,0,0,1-3.022-3.022,3.022,3.022,0,0,1,3.022-3.021h0A3.022,3.022,0,0,1,4537.86-2106.133Z" transform="translate(22.477)"/><path class="a" d="M4548.409-2106.133a3.022,3.022,0,0,1-3.021,3.022,3.022,3.022,0,0,1-3.022-3.022,3.022,3.022,0,0,1,3.022-3.021h0A3.022,3.022,0,0,1,4548.409-2106.133Z" transform="translate(22.477)"/><path class="a" d="M4558.948-2106.133a3.022,3.022,0,0,1-3.022,3.022,3.021,3.021,0,0,1-3.021-3.022,3.021,3.021,0,0,1,3.021-3.021h0A3.022,3.022,0,0,1,4558.948-2106.133Z" transform="translate(22.477)"/><path class="h" d="M4828.875-2051.125H4825v-1.75h2.125V-2055h1.75Z"/><path class="h" d="M4819.07-2051.125h-5.93v-1.75h5.93Zm-11.86,0h-5.931v-1.75h5.931Zm-11.86,0h-5.931v-1.75h5.931Zm-11.861,0h-5.93v-1.75h5.93Zm-11.86,0H4765.7v-1.75h5.931Zm-11.861,0h-5.93v-1.75h5.93Zm-11.861,0h-5.929v-1.75h5.929Zm-11.86,0h-5.93v-1.75h5.93Zm-11.86,0h-5.93v-1.75h5.93Zm-11.861,0h-5.93v-1.75h5.93Zm-11.86,0h-5.931v-1.75h5.931Zm-11.861,0h-5.93v-1.75h5.93Zm-11.86,0h-5.931v-1.75h5.931Zm-11.86,0h-5.931v-1.75h5.931Zm-11.862,0h-5.929v-1.75h5.929Zm-11.86,0h-5.93v-1.75h5.93Zm-11.86,0h-5.93v-1.75h5.93Zm-11.861,0h-5.93v-1.75h5.93Zm-11.86,0h-5.931v-1.75h5.931Zm-11.86,0h-5.931v-1.75h5.931Zm-11.861,0h-5.93v-1.75h5.93Z"/><path class="h" d="M4570-2051.125h-3.875V-2055h1.75v2.125H4570Z"/><path class="h" d="M4567.875-2060.6h-1.75v-5.6h1.75Zm0-11.2h-1.75v-5.6h1.75Z"/><path class="h" d="M4567.875-2083h-1.75v-3.875H4570v1.75h-2.125Z"/><path class="h" d="M4819.069-2085.125h-5.93v-1.75h5.93Zm-11.86,0h-5.931v-1.75h5.931Zm-11.86,0h-5.931v-1.75h5.931Zm-11.861,0h-5.93v-1.75h5.93Zm-11.861,0h-5.93v-1.75h5.93Zm-11.86,0h-5.93v-1.75h5.93Zm-11.861,0h-5.929v-1.75h5.929Zm-11.86,0h-5.931v-1.75h5.931Zm-11.86,0h-5.931v-1.75h5.931Zm-11.861,0h-5.93v-1.75h5.93Zm-11.86,0h-5.931v-1.75h5.931Zm-11.861,0h-5.93v-1.75h5.93Zm-11.861,0h-5.93v-1.75h5.93Zm-11.86,0h-5.93v-1.75h5.93Zm-11.861,0h-5.929v-1.75h5.929Zm-11.86,0h-5.93v-1.75h5.93Zm-11.86,0h-5.931v-1.75h5.931Zm-11.861,0h-5.93v-1.75h5.93Zm-11.86,0h-5.931v-1.75h5.931Zm-11.86,0h-5.931v-1.75h5.931Zm-11.861,0h-5.93v-1.75h5.93Z"/><path class="h" d="M4828.875-2083h-1.75v-2.125H4825v-1.75h3.875Z"/><path class="h" d="M4828.875-2060.6h-1.75v-5.6h1.75Zm0-11.2h-1.75v-5.6h1.75Z"/><path class="h" d="M4687.875-1895.125H4684v-1.75h2.125V-1899h1.75Z"/><path class="h" d="M4678-1895.125h-6v-1.75h6Zm-12,0h-6v-1.75h6Zm-12,0h-6v-1.75h6Zm-12,0h-6v-1.75h6Zm-12,0h-6v-1.75h6Zm-12,0h-6v-1.75h6Zm-12,0h-6v-1.75h6Zm-12,0h-6v-1.75h6Zm-12,0h-6v-1.75h6Z"/><path class="h" d="M4570-1895.125h-3.875V-1899h1.75v2.125H4570Z"/><path class="h" d="M4567.875-1905h-1.75v-6h1.75Zm0-12h-1.75v-6h1.75Zm0-12h-1.75v-6h1.75Zm0-12h-1.75v-6h1.75Zm0-12h-1.75v-6h1.75Zm0-12h-1.75v-6h1.75Zm0-12h-1.75v-6h1.75Zm0-12h-1.75v-6h1.75Zm0-12h-1.75v-6h1.75Zm0-12h-1.75v-6h1.75Zm0-12h-1.75v-6h1.75Z"/><path class="h" d="M4567.875-2037h-1.75v-3.875H4570v1.75h-2.125Z"/><path class="h" d="M4678-2039.125h-6v-1.75h6Zm-12,0h-6v-1.75h6Zm-12,0h-6v-1.75h6Zm-12,0h-6v-1.75h6Zm-12,0h-6v-1.75h6Zm-12,0h-6v-1.75h6Zm-12,0h-6v-1.75h6Zm-12,0h-6v-1.75h6Zm-12,0h-6v-1.75h6Z"/><path class="h" d="M4687.875-2037h-1.75v-2.125H4684v-1.75h3.875Z"/><path class="h" d="M4687.875-1905h-1.75v-6h1.75Zm0-12h-1.75v-6h1.75Zm0-12h-1.75v-6h1.75Zm0-12h-1.75v-6h1.75Zm0-12h-1.75v-6h1.75Zm0-12h-1.75v-6h1.75Zm0-12h-1.75v-6h1.75Zm0-12h-1.75v-6h1.75Zm0-12h-1.75v-6h1.75Zm0-12h-1.75v-6h1.75Zm0-12h-1.75v-6h1.75Z"/><path class="h" d="M4828.875-1895.125H4825v-1.75h2.125V-1899h1.75Z"/><path class="h" d="M4819.238-1895.125h-5.761v-1.75h5.761Zm-11.523,0h-5.763v-1.75h5.763Zm-11.525,0h-5.761v-1.75h5.761Zm-11.523,0H4778.9v-1.75h5.762Zm-11.524,0h-5.762v-1.75h5.762Zm-11.524,0h-5.762v-1.75h5.762Zm-11.523,0h-5.762v-1.75h5.762Zm-11.525,0h-5.761v-1.75h5.761Zm-11.523,0h-5.762v-1.75h5.762Zm-11.524,0h-5.762v-1.75h5.762Z"/><path class="h" d="M4704-1895.125h-3.875V-1899h1.75v2.125H4704Z"/><path class="h" d="M4701.875-1905h-1.75v-6h1.75Zm0-12h-1.75v-6h1.75Zm0-12h-1.75v-6h1.75Zm0-12h-1.75v-6h1.75Zm0-12h-1.75v-6h1.75Zm0-12h-1.75v-6h1.75Zm0-12h-1.75v-6h1.75Zm0-12h-1.75v-6h1.75Zm0-12h-1.75v-6h1.75Zm0-12h-1.75v-6h1.75Zm0-12h-1.75v-6h1.75Z"/><path class="h" d="M4701.875-2037h-1.75v-3.875H4704v1.75h-2.125Z"/><path class="h" d="M4819.238-2039.125h-5.762v-1.75h5.762Zm-11.524,0h-5.762v-1.75h5.762Zm-11.524,0h-5.761v-1.75h5.761Zm-11.524,0H4778.9v-1.75h5.762Zm-11.523,0h-5.762v-1.75h5.762Zm-11.524,0h-5.762v-1.75h5.762Zm-11.524,0h-5.762v-1.75h5.762Zm-11.524,0h-5.761v-1.75h5.761Zm-11.523,0h-5.763v-1.75h5.763Zm-11.525,0h-5.761v-1.75h5.761Z"/><path class="h" d="M4828.875-2037h-1.75v-2.125H4825v-1.75h3.875Z"/><path class="h" d="M4828.875-1905h-1.75v-6h1.75Zm0-12h-1.75v-6h1.75Zm0-12h-1.75v-6h1.75Zm0-12h-1.75v-6h1.75Zm0-12h-1.75v-6h1.75Zm0-12h-1.75v-6h1.75Zm0-12h-1.75v-6h1.75Zm0-12h-1.75v-6h1.75Zm0-12h-1.75v-6h1.75Zm0-12h-1.75v-6h1.75Zm0-12h-1.75v-6h1.75Z"/><ellipse class="i" cx="137.49" cy="11.835" rx="137.49" ry="11.835" transform="translate(3975.02 -1758.736)"/><ellipse class="i" cx="111.49" cy="11.835" rx="111.49" ry="11.835" transform="translate(4321.02 -1758.736)"/><ellipse class="i" cx="126" cy="11.835" rx="126" ry="11.835" transform="translate(4729 -1758.736)"/><g class="j"><path d="M4074.167-1918.471h97.36a6.917,6.917,0,0,0,7.1-6.727v-76.9a6.917,6.917,0,0,0-7.1-6.727h-97.36a6.928,6.928,0,0,0-7.1,6.727v76.888A6.929,6.929,0,0,0,4074.167-1918.471Z"/><g class="k"><path class="l" d="M4074.167-1918.471h97.36a6.917,6.917,0,0,0,7.1-6.727v-76.9a6.917,6.917,0,0,0-7.1-6.727h-97.36a6.928,6.928,0,0,0-7.1,6.727v76.888A6.929,6.929,0,0,0,4074.167-1918.471Z"/></g></g><path class="a" d="M4071.391-1921.628h97.36a6.929,6.929,0,0,0,7.1-6.727v-76.9a6.929,6.929,0,0,0-7.1-6.727h-97.36a6.929,6.929,0,0,0-7.1,6.727v76.888A6.929,6.929,0,0,0,4071.391-1921.628Z"/><path class="m" d="M4071.222-2007.945a2.59,2.59,0,0,0-2.657,2.521h0v77.225a2.591,2.591,0,0,0,2.656,2.523h97.7a2.59,2.59,0,0,0,2.657-2.521v-77.227a2.589,2.589,0,0,0-2.655-2.522h-97.7Z"/><path class="h" d="M4071.222-2007.945a2.59,2.59,0,0,0-2.657,2.521h0v77.225a2.591,2.591,0,0,0,2.656,2.523h97.7a2.59,2.59,0,0,0,2.657-2.521v-77.227a2.589,2.589,0,0,0-2.655-2.522h-97.7Z"/><path class="n" d="M4095.45-1969.344l-26.907,39.33v1.816a2.59,2.59,0,0,0,2.655,2.523h54.086Z"/><path class="m" d="M4171.576-1936.27l-27.737-45.765-34.161,56.36h59.241a2.59,2.59,0,0,0,2.657-2.521v-8.074Z"/><path class="n" d="M4171.576-1936.27l-27.737-45.765-34.161,56.36h59.241a2.59,2.59,0,0,0,2.657-2.521v-8.074Z"/><path class="f" d="M4127.022-1988.628a6.963,6.963,0,0,1-6.583,7.323,6.962,6.962,0,0,1-7.322-6.583,6.962,6.962,0,0,1,6.582-7.322c.124-.007.248-.01.372-.01a6.725,6.725,0,0,1,6.948,6.5Z"/><path class="o" d="M4104.363-2014.19c.415-.078.864.359.987,1s-.09,1.222-.516,1.3-.852-.37-.986-1.009S4103.949-2014.123,4104.363-2014.19Z"/><path class="p" d="M4105.193-2005.793a3.719,3.719,0,0,0,2.915-1.188,22.92,22.92,0,0,1-4.126-4.821Z"/><path class="o" d="M4101.079-2016.029a2.992,2.992,0,0,1,2.545-1.121h.123a.393.393,0,0,0,.453-.32.393.393,0,0,0-.321-.453.363.363,0,0,0-.132,0,3.768,3.768,0,0,0-3.218,1.255.486.486,0,0,0-.1.247.392.392,0,0,0,.381.392A.38.38,0,0,0,4101.079-2016.029Z"/><path class="q" d="M4098.444-1994.458c-1.121,4.575-1.189,10.259,3.8,11.817,0,0,6.244,5.225-5.774,5.225-10.92,0-12.535-5.965-12.535-5.965,4.115-3.924,3.364-12.063,2.242-17.938Z"/><path class="m" d="M4079.53-1984.39s1.985-5.236,4.664-6.783,14.014.751,15.763,1.547,3.364,4.989,3.364,4.989Z"/><path class="r" d="M4079.53-1984.39s1.985-5.236,4.664-6.783,14.014.751,15.763,1.547,3.364,4.989,3.364,4.989Z"/><path class="h" d="M4096.706-1749.375a.179.179,0,0,1-.146-.168.168.168,0,0,1,.079-.191c.157-.067,2.971-1.659,4.294-1.3a.947.947,0,0,1,.616.437.7.7,0,0,1,0,.83c-.336.47-1.289.616-2.365.616A15.248,15.248,0,0,1,4096.706-1749.375Zm3.756-1.357a8.5,8.5,0,0,0-3.151,1.032c1.492.2,3.521.191,3.891-.325.09-.079.134-.18,0-.415a.5.5,0,0,0-.37-.269,1,1,0,0,0-.37,0Z"/><path class="h" d="M4096.628-1749.42a.253.253,0,0,1-.079-.168c0-.1.179-2.242,1.256-3.106a1.377,1.377,0,0,1,1.121-.325c.516.056.706.325.706.538.146.931-1.771,2.635-2.747,3.084h-.078A.191.191,0,0,1,4096.628-1749.42Zm2.119-3.229a.977.977,0,0,0-.673.269,4.574,4.574,0,0,0-1.121,2.489c1-.6,2.242-1.973,2.242-2.511,0,0,0-.224-.37-.224h-.112Z"/><path class="q" d="M4088.723-1768.2h8.039l-.807,18.6h-8.027Z"/><path class="r" d="M4097.85-1749.891c5.426,3.364,7.108,3.5,13.4,4.877,1.368.292.46,3.633-2.836,3.633-5.46,0-6.021-.258-10.673-.258-3.981,0-8.555.191-11.728.235a1.275,1.275,0,0,1-.291,0,1.121,1.121,0,0,1-.867-1.327c0-.021.009-.042.015-.063l1.569-7.142a.707.707,0,0,1,.7-.549h8.779A3.765,3.765,0,0,1,4097.85-1749.891Z"/><path class="r" d="M4107.615-1984.513a234.96,234.96,0,0,0-24.015-.55q-3.15.213-6.256.617a7.757,7.757,0,0,0-6.775,8.63q.019.171.048.339c4.765,28.567,1.6,56.585.942,62.213l42.962-.236c4.485-35.349,4.059-53.344,2.332-62A11.4,11.4,0,0,0,4107.615-1984.513Z"/><path class="l" d="M4088.712-1768.188l-.4,9.586h8.039l.415-9.586Z"/><path class="q" d="M4082.176-2014.907a10.9,10.9,0,0,1,12.747-8.645c8.275,1.559,11.683,12.927,11.436,20.282-.235,8.162-9.193,13.689-16.346,8.879-4.743-3.217-5.606-7.848-7.624-15.527A10.872,10.872,0,0,1,4082.176-2014.907Z"/><path class="h" d="M4071.592-1913.5s-6.794,15.977-13.173,42.828c-8.308,35-28.332,106.509-28.332,106.509l14.172,3.106s29.228-83.246,36.908-108.337a294.073,294.073,0,0,1,18.163-44.128Z"/><path class="s" d="M4090.136-1894.552c-12.646,34.374-15.315,44.689-15.517,45.361,1.536-20.92,7.849-44.274,15.517-45.361C4090.674-1894.642,4089.62-1894.72,4090.136-1894.552Z"/><path class="h" d="M4086.257-1913.5s.5,18.847-.1,46.147c-.538,25.035,0,106.89,0,106.89h13.667s10.46-83.5,13.229-108.964a294.476,294.476,0,0,0,1.525-44.073Z"/><path class="s" d="M4084.194-1765.273l.449,5.034H4101.2s.83-5.606.762-5.606Z"/><path class="h" d="M4029.7-1749.476a.192.192,0,0,1-.157.146.168.168,0,0,1-.19-.09c-.079-.146-1.66-2.971-1.279-4.294a1.008,1.008,0,0,1,.438-.6.729.729,0,0,1,.841,0c.459.347.594,1.3.594,2.377A15.23,15.23,0,0,1,4029.7-1749.476Zm-1.312-3.756a8.673,8.673,0,0,0,.976,3.151c.224-1.491.224-3.521-.292-3.891-.067-.089-.179-.134-.415,0a.509.509,0,0,0-.269.37,1.047,1.047,0,0,0,0,.37Z"/><path class="h" d="M4029.684-1749.4a.192.192,0,0,1-.18.067c-.078,0-2.242-.191-3.083-1.267a1.36,1.36,0,0,1-.314-1.065c0-.516.314-.706.539-.706.908-.135,2.623,1.793,3.06,2.769v.067A.188.188,0,0,1,4029.684-1749.4Zm-3.24-2.108a1.114,1.114,0,0,0,.269.661,4.486,4.486,0,0,0,2.478,1.121c-.595-1-1.951-2.309-2.5-2.242,0,0-.213,0-.213.359v.123Z"/><path class="q" d="M4033.2-1764.9l7.825.594-3.61,15.393-7.848-.561Z"/><path class="l" d="M4033.294-1765.329l-1.581,6.772,7.837.561,1.592-6.794Z"/><path class="r" d="M4027.688-1750.507c-2.119,2.5-3.24,3.789-9.384,5.729-1.345.415-.134,3.655,3.151,3.363,5.437-.482,2.433-.471,7.063-.874,3.969-.359,8.543-.572,11.693-.8a1.011,1.011,0,0,0,.314-.056,1.123,1.123,0,0,0,.793-1.374c-.009-.032-.019-.064-.03-.095l-2.243-6.985a.694.694,0,0,0-.728-.482l-8.745.774A2.721,2.721,0,0,0,4027.688-1750.507Z"/><path class="s" d="M4028.4-1766.775l-.079,5.067,17.042,1.828s1.457-5.527,1.4-5.527Z"/><path class="q" d="M4146.126-1923.938l4.575-3.7c.549,0,4.406,2.6,5.841,3.688,2.533,1.9,4.4,0,6.457,2.938.953,1.345-5.5,3.845-6.726,4.338h0C4151.766-1914.98,4146.126-1923.938,4146.126-1923.938Z"/><path class="r" d="M4150.712-1927.649l-.135.247a6.826,6.826,0,0,1-4.484,3.453h0l-13.454-7.848c-3.05-1.984-9.317-6.121-10.191-7.96-3.027-2.915-17.031-17.008-20.181-31.392a10.235,10.235,0,0,1,5.068-11.312c3.049-1.525,5.874-.774,8.038,2.477,3.442,9.339,14.429,32.514,14.429,32.514Z"/><path class="q" d="M4059.764-1985.141c-.314-.179.168-10.785.168-10.785l6.178,5.818-1.659,5.471S4064-1982.775,4059.764-1985.141Z"/><path class="q" d="M4059.932-1995.926l2.669-2.826a2.242,2.242,0,0,1,3.168-.138,2.231,2.231,0,0,1,.419.519l1.772,2.927a2.242,2.242,0,0,1,0,2.376l-1.884,2.96S4060.65-1991.543,4059.932-1995.926Z"/><path class="r" d="M4067.523-1952.045a11.952,11.952,0,0,1-2.142,3.151,8.369,8.369,0,0,1-2.321,1.5h0a7.788,7.788,0,0,1-1.356.392,3.506,3.506,0,0,1-2.164-.437,5.864,5.864,0,0,1-3.038-5.875c.437-4.1,1.222-13.005,1.816-29.811a2.051,2.051,0,0,1,2.006-2.1h.079l4,.156a2.242,2.242,0,0,1,2.242,2.243l.157,4.989Z"/><path class="r" d="M4057.242-1954.814l9.451-23.028.673-1.626a7.68,7.68,0,0,1,7.063-4.7l5.023.135s-7.075,22.972-11.929,31.986a11.952,11.952,0,0,1-2.142,3.151,8.369,8.369,0,0,1-2.321,1.5h0a7.788,7.788,0,0,1-1.356.392,3.5,3.5,0,0,1-2.142-.4,5.124,5.124,0,0,1-2.578-5.382Z"/><path class="r" d="M4082.624-2010.064a8.443,8.443,0,0,1-7.287-9.059,23.546,23.546,0,0,1,9.9-7.489,24.5,24.5,0,0,1,13.33-.83,18.7,18.7,0,0,1,2.3,5.494,6.492,6.492,0,0,1-.808,5.6C4096.246-2011.32,4088.869-2009.223,4082.624-2010.064Z"/><path class="o" d="M4078.846-2009.885l7.848,12.591,8.7.1,3.947-9.81,1.054-9.485s-20.8,6.592-23.2,3.363S4078.846-2009.885,4078.846-2009.885Z"/><path class="r" d="M4078.846-2009.885l7.848,12.591,8.7.1,3.947-9.81,1.054-9.485s-20.8,6.592-23.2,3.363S4078.846-2009.885,4078.846-2009.885Z"/><path class="q" d="M4099.711-2013.327c2.242.7,3.453,4.093,3.531,6.245.079,2.366-1.524,3.846-3.565,2.242a9.037,9.037,0,0,1-3.117-4.877C4096.022-2012.049,4097.468-2014.022,4099.711-2013.327Z"/><rect class="t" width="138.052" height="98.051" rx="4.355" transform="translate(4721.044 -2006.675)"/><rect class="a" width="138.051" height="98.051" rx="4.355" transform="translate(4723.729 -2009)"/><rect class="m" width="131.484" height="91.495" rx="1.083" transform="translate(4727.013 -2005.716)"/><rect class="u" width="131.484" height="91.495" rx="1.083" transform="translate(4727.013 -2005.716)"/><path class="n" d="M4809.739-1959.981a16.93,16.93,0,0,1-16.918,16.943,16.931,16.931,0,0,1-16.943-16.919A16.93,16.93,0,0,1,4792.8-1976.9h.012A16.929,16.929,0,0,1,4809.739-1959.981Z"/><path class="u" d="M4801.613-1959.981l-13.337,8.638v-17.264Z"/><rect class="v" width="108.39" height="0.916" transform="translate(4733.426 -1928.356)"/><path class="n" d="M4775-1927.9a1.19,1.19,0,0,1-1.19,1.19h-41.334a1.189,1.189,0,0,1-1.189-1.19h0a1.189,1.189,0,0,1,1.189-1.19h41.3a1.19,1.19,0,0,1,1.19,1.19Z"/><g class="w"><path class="a" d="M4852.915-1927.918h1.223v1.056h1.035v-1.7h-2.258Z"/><path class="a" d="M4846.6-1926.862v-1.056h1.223v-.648h-2.258v1.7Z"/><path class="a" d="M4847.824-1923.2H4846.6v-1.056h-1.035v1.694h2.258Z"/><path class="a" d="M4854.138-1924.259v1.056h-1.223v.638h2.258v-1.694Z"/></g><g class="w"><path class="x" d="M4790.167-1918.183l3.986-2.57-3.986-2.582Z"/><path class="x" d="M4794.153-1923.061v4.6h1.071v-4.6Z"/></g><g class="w"><rect class="x" width="1.392" height="4.604" transform="translate(4799.341 -1923.061)"/><rect class="x" width="1.392" height="4.604" transform="translate(4801.815 -1923.061)"/></g><path class="v" d="M4786.277-1920.753l-3.986,2.57v-5.152Z"/><path class="q" d="M4876.188-1954.327l7.1,17.773a1.946,1.946,0,0,1-.749,2.647,1.977,1.977,0,0,1-.359.155l-20.3,9.9,3.272,4.182s20.576-5.687,24.82-10.81c3.074-3.712-5.572-26.713-5.572-26.713Z"/><path class="q" d="M4861.875-1923.83l-1.317.084a9.1,9.1,0,0,0-6.409,3.241l-1.349,1.61a1.245,1.245,0,0,0-.161,1.752,1.37,1.37,0,0,0,.161.161c.816.69.575.9,1.182,1.4.334.282.449.073.867-.073l4.789-.659a20.674,20.674,0,0,0,5.509-3.325Z"/><path class="n" d="M4870.626-1956.721a93.63,93.63,0,0,1,8.615,10.988l8.8-3.335-1.8-9.41h0c-.419-2.885-3.283-7-5.636-7.841C4873.951-1968.671,4870.417-1961.363,4870.626-1956.721Z"/><path class="o" d="M4837.745-1988.086a2.753,2.753,0,0,1,2.52,0h0l.094.063a.367.367,0,0,0,.47-.188.356.356,0,0,0-.188-.46,3.42,3.42,0,0,0-3.136-.1.343.343,0,0,0-.178.167.356.356,0,0,0,.177.471h0A.345.345,0,0,0,4837.745-1988.086Z"/><path class="p" d="M4838.655-1985.692a22.713,22.713,0,0,1-1.4,4.579,1.778,1.778,0,0,0,1.819.419Z"/><path class="q" d="M4859.815-1979.9c-.083,5.228.617,14.8,4.81,17.564,0,0-.471,5.437-9.953,7.152-10.455,1.882-5.907-4.276-5.907-4.276,5.447-2.4,4.537-6.587,2.812-10.372Z"/><path class="o" d="M4838.121-1987.4c-.46,0-.784.638-.721,1.338s.481,1.244.941,1.213.784-.638.721-1.349S4838.581-1987.438,4838.121-1987.4Z"/><path class="o" d="M4837.62-1986.7a.918.918,0,0,1-.711-.606,2.085,2.085,0,0,0,.972.115A.876.876,0,0,0,4837.62-1986.7Z"/><path class="q" d="M4862.826-1991.379c.2,8.677.46,12.347-3.523,17.135-6,7.214-16.728,5.562-19.467-2.833-2.5-7.6-3.356-18.767,4.83-22.907,5.813-2.979,13.874-2.415,16.854,3.388A11.8,11.8,0,0,1,4862.826-1991.379Z"/><path class="r" d="M4873.02-1970.689c-.889-2.875.68-5.625.575-8.521a11.293,11.293,0,0,0-3.628-7.946c-1.61-1.495-3.523-2.446-4.61-4.453-.868-1.6-1.548-3.294-2.4-4.914a10.276,10.276,0,0,0-8.939-5.991c-11.573-.376-14.333,3.973-14.563,8.615a13.809,13.809,0,0,0,2.247,7.214c2.269,3.22,1.537,9.263-.261,12.734a5.553,5.553,0,0,0,1.5,5.4c2.426,2.206,11.689-3.879,19.98-3.7S4873.02-1970.689,4873.02-1970.689Z"/><path class="q" d="M4845.032-1984.95a8.584,8.584,0,0,1-.972,4.737c-1.046,1.871-2.467,1.327-2.969-.555-.46-1.651-.46-4.631.941-5.917S4844.844-1986.988,4845.032-1984.95Z"/><path class="r" d="M4834.128-1995.687a3.221,3.221,0,0,0,2.017,3.848,5.29,5.29,0,0,0,6.119,4.3,5.312,5.312,0,0,0,.541-.123c-1.422-.4-1.808-2.332-1.3-3.722.941-2.551,4.663-5.656,1.119-7.8C4839.92-2000.789,4834.87-1998.677,4834.128-1995.687Z"/><path class="n" d="M4838.184-1950.448c2.028,7.726,4.778,21.317,7.319,44.13l29.388-3.471c-1.641-13.09.9-22.938,4.653-47.047a7.539,7.539,0,0,0-6.27-8.622l-.17-.024a39.648,39.648,0,0,0-6.169-.335,108.658,108.658,0,0,0-16.058,1.349,51.03,51.03,0,0,0-5.562,1.348A10.455,10.455,0,0,0,4838.184-1950.448Z"/><path class="l" d="M4847.228-1951.954l-5.04,21.266-4.4-21.266C4839.052-1952.017,4847.228-1951.954,4847.228-1951.954Z"/><path class="q" d="M4835.7-1957.087l9.5,1.673s-4.3,19.425-8.28,26.7c-3.785,6.931-26.221,16.947-26.221,16.947l-1.139-4,17.512-14.355a10.209,10.209,0,0,0,3.439-5.5Z"/><path class="q" d="M4809.559-1915.769l3.136,2.216-5.886,5.228c-1.934,1.892-6.357,1.62-9.274,1.808a1.418,1.418,0,0,1-1.045-.3l-1.14-.878c-.982-.774-1.233-2.771,0-3.011l6.942-.774C4803.568-1912.7,4809.559-1915.769,4809.559-1915.769Z"/><path class="n" d="M4832.779-1955.216c-.889,6.116-1.307,12.023-1.307,12.023l10.455,2.321s7.758-11.761,5.228-16.372c-1.945-4.015-6.535-6.482-10.738-3.847A8.259,8.259,0,0,0,4832.779-1955.216Z"/><path class="q" d="M4931.066-1864.1l2.572,7.235-15.818,8.468-4.036-7.214Z"/><path class="r" d="M4930.229-1855.6l-3.993-5.635a.615.615,0,0,1,.073-.805l6.576-7.162a1.255,1.255,0,0,1,1.756.125.78.78,0,0,1,.084.115c1.715,2.468,2.415,3.743,4.642,6.827,1.359,1.882,6.4,7.037,7.747,9.964s-1.485,4.412-2.311,3.314c-2.624-3.554-8.018-5.823-12.242-5.781A6.64,6.64,0,0,1,4930.229-1855.6Z"/><path class="l" d="M4908.891-1853.353l4.182,7.611,10.162-5.562-3.335-7.318Z"/><path class="m" d="M4830.04-1852.266c6.377,2.467,13.591.93,20.115-1.046,10.382-3.209,20.994-6.691,29.744-13.068,5.991-4.37,7.768-9.41,6.524-11.5a118.656,118.656,0,0,0-23.241-1.474c-7.674.408-15.452,2.457-21.537,7.078s-10.79,18.819-10.507,18.369Z"/><path class="y" d="M4830.04-1852.266c6.377,2.467,13.591.93,20.115-1.046,10.382-3.209,20.994-6.691,29.744-13.068,5.991-4.37,7.768-9.41,6.524-11.5a118.656,118.656,0,0,0-23.241-1.474c-7.674.408-15.452,2.457-21.537,7.078s-10.79,18.819-10.507,18.369Z"/><path class="r" d="M4851.692-1909.13s-5.834,82.719,21.485,89.661c17.1,4.067,47.81-27.476,47.81-27.476l-4.767-10.224s-26.733,10.664-31.815,8.175c-12.295-24.266,3.5-45.594-9.859-62.071Z"/><path class="n" d="M4932.414-1855.037a.177.177,0,0,0-.188-.052.167.167,0,0,0-.125.157c0,.282-.251,3.084.533,3.67a.626.626,0,0,0,.617.083,1.045,1.045,0,0,0,.711-.721v-.094C4934.108-1852.883,4933.063-1854.263,4932.414-1855.037Zm0,.607c.889,1.045,1.3,1.965,1.182,2.436a.7.7,0,0,1-.481.47.27.27,0,0,1-.282,0c-.429-.313-.481-1.8-.419-2.917Z"/><path class="n" d="M4932.477-1854.9a.19.19,0,0,0-.083-.157.161.161,0,0,0-.178,0c-.084,0-2.028,1.046-2.29,2.175a.951.951,0,0,0,.115.805.648.648,0,0,0,.742.3c.753-.251,1.485-1.9,1.631-2.843A1.409,1.409,0,0,0,4932.477-1854.9Zm-2.237,2.175a.117.117,0,0,0,0-.052c.157-.67,1.171-1.391,1.8-1.778-.178.92-.868,2.279-1.38,2.436a.35.35,0,0,1-.324-.167.553.553,0,0,1-.1-.439Z"/><path class="q" d="M4873.491-1751.732l-7.528,1.391-3.889-17.4,7.527-1.391Z"/><path class="n" d="M4863.036-1748.909a.206.206,0,0,0,.135-.167.219.219,0,0,0-.125-.178c-.355-.136-3.586-1.338-4.454-.711a.586.586,0,0,0-.251.513,1.045,1.045,0,0,0,.419.846,2.943,2.943,0,0,0,1.913.251A14.3,14.3,0,0,0,4863.036-1748.909Zm-3.9-.868a9.924,9.924,0,0,1,3.293.691c-1.662.47-2.927.543-3.429.188a.682.682,0,0,1-.272-.565.232.232,0,0,1,.094-.209.793.793,0,0,1,.335-.1Z"/><path class="n" d="M4863.1-1748.961a.2.2,0,0,0,0-.188,5.161,5.161,0,0,0-1.484-2.8,1.288,1.288,0,0,0-1.046-.167c-.5.115-.585.386-.617.585-.052.889,1.935,2.321,2.9,2.624h.063A.177.177,0,0,0,4863.1-1748.961Zm-2.3-2.823a.943.943,0,0,1,.669.115,4.075,4.075,0,0,1,1.234,2.237c-1.045-.428-2.363-1.578-2.331-2.09,0,0,0-.178.334-.251h.1Z"/><path class="r" d="M4866.088-1753.436l6.89-.292a.6.6,0,0,1,.638.491l2.457,9.409a1.256,1.256,0,0,1-1.046,1.412h-.146c-3,.094-4.454,0-8.249.188-2.321.115-9.409,1.568-12.546,1.108s-2.906-3.638-1.537-3.732c4.4-.293,9.232-3.586,11.5-7.151C4864.363-1752.317,4865.607-1753.425,4866.088-1753.436Z"/><path class="l" d="M4862.074-1767.738l2.007,8.97,7.527-1.38-2-8.97Z"/><path class="l" d="M4870.333-1892.936l-13.037,14.093,5.781,38.307Z"/><path class="r" d="M4844.53-1908.137s-7.841,20.4-8.531,39.572c-1.171,32.734,7.705,62.091,10.842,72.515,6.419,21.276,13.058,32.013,13.058,32.013l12.473-1.485s-16.132-92.913-8.364-103.869c16.289-22.928,2.206-40.984,2.206-40.984Z"/><path class="n" d="M4873.6-1928.838c11.5,15.818,11.5,37.784,13.195,51.741-2.091,3-15.317,6.545-18.987,6.43a45.7,45.7,0,0,0-37.637,18.317c-3.294-11.281,12.546-71.166,12.546-71.166C4846.308-1924.593,4871.368-1931.891,4873.6-1928.838Z"/><path class="q" d="M4866.716-1958.059l-11.982,1.338a3.137,3.137,0,0,1-3.251-2.091,8.451,8.451,0,0,0-1.349-2.028,8.243,8.243,0,0,0-3.784-2.771,57.344,57.344,0,0,1,10.967-2.739c5.593-.575,7.663.543,7.663.543,2.813.785,3.816,1.893,4.381,3.931a3.053,3.053,0,0,1-2.173,3.731A3.161,3.161,0,0,1,4866.716-1958.059Z"/><path class="h" d="M4173.5-1779.356s10.11-9.535,9.942-15.8-6.272,8.416-6.461,5.332,6.984-11.95,7.319-18-7.319,10.863-7.664,8.019,6.932-15.421,6.869-19.864-6.409,11.155-7.318,8.364,5.29-13.027,3.7-20.711-4.966,12.483-5.479,9.921,3.775-15.682.743-20.91-2.185,14.209-3.22,11.95-1.663-13.424-5.531-17.229,1.045,11.249-.167,12-6.7-10.455-8.187-8.312,7.831,14.156,7.925,17.031-7.527-4.8-8.207-1.683,10.6,8.019,11.177,11-9.41-2.353-9.347.721,9.482,4.715,10.047,8.207-9.242-2.519-8.709,1.568,7.141,3.294,7.894,7.319-6.817-.565-6.524,3.272,7.841,4.266,8.635,7.193-7.224-1.369-6.994,1.736S4171.925-1784.678,4173.5-1779.356Z"/><path class="s" d="M4172.667-1765.8a120.327,120.327,0,0,0,2.091-21.4c.377-15.609-1.578-31.365-6.785-46.106-.376-1.046-2.091-.69-1.746.4a128.174,128.174,0,0,1,6.744,45.646,118.287,118.287,0,0,1-2.091,20.91c-.23,1.119,1.474,1.662,1.714.533Z"/><path class="h" d="M4176.463-1776.136s-7.037-13.455-4.789-22.572,3.889,12.107,4.935,7.026-3.293-14.951.742-22.28.3,13.759,2.99,9.127-.439-16.445,3.294-20.909,1.192,9.712,2.99,7.475,1.348-12.713,4.182-15.108.3,10.016,1.8,7.632,4.935-13.309,9.723-14.636-3.136,6.733,0,5.98,10.309-2.394,10.915.9-15.107,6.837-16.9,10.831,7.172-3.136,8.813-.146-13.748,7.172-14.95,11.657,12.713-3.732,12.41.9-16,5.531-16.728,9.566,12.849-4.485,12.4-.449-14.051,7.182-14.95,11.5,10.026-4.035,10.319-.6S4176.463-1776.136,4176.463-1776.136Z"/><path class="z" d="M4176.463-1776.136s-7.037-13.455-4.789-22.572,3.889,12.107,4.935,7.026-3.293-14.951.742-22.28.3,13.759,2.99,9.127-.439-16.445,3.294-20.909,1.192,9.712,2.99,7.475,1.348-12.713,4.182-15.108.3,10.016,1.8,7.632,4.935-13.309,9.723-14.636-3.136,6.733,0,5.98,10.309-2.394,10.915.9-15.107,6.837-16.9,10.831,7.172-3.136,8.813-.146-13.748,7.172-14.95,11.657,12.713-3.732,12.41.9-16,5.531-16.728,9.566,12.849-4.485,12.4-.449-14.051,7.182-14.95,11.5,10.026-4.035,10.319-.6S4176.463-1776.136,4176.463-1776.136Z"/><path class="h" d="M4166.52-1776.533s6.806-12.128,4.778-18.045-3.513,9.921-4.579,7.015,3.136-13.487,1.578-19.352-3.69,12.546-4.924,9.942,2.007-16.79.638-20.972-2.781,12.546-4.5,10.2,1.15-14.01-2.666-20.91-1.045,13.393-2.258,11.1-1.046-16.111-5.562-20.22,2.174,14.219.5,12.368-5.594-12.3-10.455-14.783,4.339,10.455,3.429,11.5-9.514-7.957-10.3-5.479,11.709,11.156,12.65,13.874-8.615-2.332-8.364.847,12.546,4.485,13.947,7.161-9.65.565-8.688,3.482,10.455,1.662,12.034,4.83-9.577.355-7.841,4.1,7.8,1.046,9.723,4.632-6.671,1.505-5.228,5.081,8.761,1.715,10.392,4.276-7.318.847-6.157,3.743S4163.425-1781.144,4166.52-1776.533Z"/><path class="aa" d="M4166.52-1776.533s6.806-12.128,4.778-18.045-3.513,9.921-4.579,7.015,3.136-13.487,1.578-19.352-3.69,12.546-4.924,9.942,2.007-16.79.638-20.972-2.781,12.546-4.5,10.2,1.15-14.01-2.666-20.91-1.045,13.393-2.258,11.1-1.046-16.111-5.562-20.22,2.174,14.219.5,12.368-5.594-12.3-10.455-14.783,4.339,10.455,3.429,11.5-9.514-7.957-10.3-5.479,11.709,11.156,12.65,13.874-8.615-2.332-8.364.847,12.546,4.485,13.947,7.161-9.65.565-8.688,3.482,10.455,1.662,12.034,4.83-9.577.355-7.841,4.1,7.8,1.046,9.723,4.632-6.671,1.505-5.228,5.081,8.761,1.715,10.392,4.276-7.318.847-6.157,3.743S4163.425-1781.144,4166.52-1776.533Z"/><path class="s" d="M4169.782-1763.339a120.6,120.6,0,0,0-4.37-21.056,129.575,129.575,0,0,0-20.251-41.977c-.69-.909-2.248,0-1.558.91a128.063,128.063,0,0,1,20.084,41.537,118.222,118.222,0,0,1,4.3,20.586c.115,1.139,1.913,1.15,1.8,0Z"/><path class="s" d="M4176.159-1765.064a129.231,129.231,0,0,1,2.185-18.6c2.154-11.856,5.594-23.963,12.222-34.146a37.011,37.011,0,0,1,15.055-13.759c1.046-.491.136-2.039-.909-1.558-11.312,5.322-18.1,16.645-22.4,27.925a130.3,130.3,0,0,0-7.381,32.829c-.261,2.425-.491,4.861-.575,7.318a.9.9,0,0,0,1.8,0Z"/><path class="r" d="M4190.807-1774.787h-37.073l4.182,18.819v4.255a5.321,5.321,0,0,0,5.321,5.321H4181.3a5.321,5.321,0,0,0,5.322-5.321v-4.255Z"/><path class="h" d="M4777.5-1779.356s10.11-9.535,9.942-15.8-6.272,8.416-6.461,5.332,6.984-11.95,7.319-18-7.319,10.863-7.664,8.019,6.932-15.421,6.869-19.864-6.409,11.155-7.318,8.364,5.29-13.027,3.7-20.711-4.966,12.483-5.479,9.921,3.775-15.682.743-20.91-2.185,14.209-3.22,11.95-1.663-13.424-5.531-17.229,1.045,11.249-.167,12-6.7-10.455-8.187-8.312,7.831,14.156,7.925,17.031-7.527-4.8-8.207-1.683,10.6,8.019,11.177,11-9.41-2.353-9.347.721,9.482,4.715,10.047,8.207-9.242-2.519-8.709,1.568,7.141,3.294,7.894,7.319-6.817-.565-6.524,3.272,7.841,4.266,8.635,7.193-7.224-1.369-6.994,1.736S4775.925-1784.678,4777.5-1779.356Z"/><path class="s" d="M4776.667-1765.8a120.327,120.327,0,0,0,2.091-21.4c.377-15.609-1.578-31.365-6.785-46.106-.376-1.046-2.091-.69-1.746.4a128.174,128.174,0,0,1,6.744,45.646,118.287,118.287,0,0,1-2.091,20.91c-.23,1.119,1.474,1.662,1.714.533Z"/><path class="h" d="M4780.463-1776.136s-7.037-13.455-4.789-22.572,3.889,12.107,4.935,7.026-3.293-14.951.742-22.28.3,13.759,2.99,9.127-.439-16.445,3.294-20.909,1.192,9.712,2.99,7.475,1.348-12.713,4.182-15.108.3,10.016,1.8,7.632,4.935-13.309,9.723-14.636-3.136,6.733,0,5.98,10.309-2.394,10.915.9-15.107,6.837-16.9,10.831,7.172-3.136,8.813-.146-13.748,7.172-14.95,11.657,12.713-3.732,12.41.9-16,5.531-16.728,9.566,12.849-4.485,12.4-.449-14.051,7.182-14.95,11.5,10.026-4.035,10.319-.6S4780.463-1776.136,4780.463-1776.136Z"/><path class="z" d="M4780.463-1776.136s-7.037-13.455-4.789-22.572,3.889,12.107,4.935,7.026-3.293-14.951.742-22.28.3,13.759,2.99,9.127-.439-16.445,3.294-20.909,1.192,9.712,2.99,7.475,1.348-12.713,4.182-15.108.3,10.016,1.8,7.632,4.935-13.309,9.723-14.636-3.136,6.733,0,5.98,10.309-2.394,10.915.9-15.107,6.837-16.9,10.831,7.172-3.136,8.813-.146-13.748,7.172-14.95,11.657,12.713-3.732,12.41.9-16,5.531-16.728,9.566,12.849-4.485,12.4-.449-14.051,7.182-14.95,11.5,10.026-4.035,10.319-.6S4780.463-1776.136,4780.463-1776.136Z"/><path class="h" d="M4770.52-1776.533s6.806-12.128,4.778-18.045-3.513,9.921-4.579,7.015,3.136-13.487,1.578-19.352-3.69,12.546-4.924,9.942,2.007-16.79.638-20.972-2.781,12.546-4.5,10.2,1.15-14.01-2.666-20.91-1.045,13.393-2.258,11.1-1.046-16.111-5.562-20.22,2.174,14.219.5,12.368-5.594-12.3-10.455-14.783,4.339,10.455,3.429,11.5-9.514-7.957-10.3-5.479,11.709,11.156,12.65,13.874-8.615-2.332-8.364.847,12.546,4.485,13.947,7.161-9.65.565-8.688,3.482,10.455,1.662,12.034,4.83-9.577.355-7.841,4.1,7.8,1.046,9.723,4.632-6.671,1.505-5.228,5.081,8.761,1.715,10.392,4.276-7.318.847-6.157,3.743S4767.425-1781.144,4770.52-1776.533Z"/><path class="aa" d="M4770.52-1776.533s6.806-12.128,4.778-18.045-3.513,9.921-4.579,7.015,3.136-13.487,1.578-19.352-3.69,12.546-4.924,9.942,2.007-16.79.638-20.972-2.781,12.546-4.5,10.2,1.15-14.01-2.666-20.91-1.045,13.393-2.258,11.1-1.046-16.111-5.562-20.22,2.174,14.219.5,12.368-5.594-12.3-10.455-14.783,4.339,10.455,3.429,11.5-9.514-7.957-10.3-5.479,11.709,11.156,12.65,13.874-8.615-2.332-8.364.847,12.546,4.485,13.947,7.161-9.65.565-8.688,3.482,10.455,1.662,12.034,4.83-9.577.355-7.841,4.1,7.8,1.046,9.723,4.632-6.671,1.505-5.228,5.081,8.761,1.715,10.392,4.276-7.318.847-6.157,3.743S4767.425-1781.144,4770.52-1776.533Z"/><path class="s" d="M4773.782-1763.339a120.6,120.6,0,0,0-4.37-21.056,129.575,129.575,0,0,0-20.251-41.977c-.69-.909-2.248,0-1.558.91a128.063,128.063,0,0,1,20.084,41.537,118.222,118.222,0,0,1,4.3,20.586c.115,1.139,1.913,1.15,1.8,0Z"/><path class="s" d="M4780.159-1765.064a129.231,129.231,0,0,1,2.185-18.6c2.154-11.856,5.594-23.963,12.222-34.146a37.011,37.011,0,0,1,15.055-13.759c1.046-.491.136-2.039-.909-1.558-11.312,5.322-18.1,16.645-22.4,27.925a130.3,130.3,0,0,0-7.381,32.829c-.261,2.425-.491,4.861-.575,7.318a.9.9,0,0,0,1.8,0Z"/><path class="r" d="M4794.807-1774.787h-37.073l4.182,18.819v4.255a5.321,5.321,0,0,0,5.321,5.321H4785.3a5.321,5.321,0,0,0,5.322-5.321v-4.255Z"/><path class="l" d="M4315.162-1935.23l.117,64.61a1.511,1.511,0,0,1-1.5,1.513l-59.742.107a1.5,1.5,0,0,1-1.5-1.5h0l-.16-84.046a1.5,1.5,0,0,1,1.5-1.5h0l40.254-.075Z"/><path class="ab" d="M4319.5-1939.674l.117,64.611a1.5,1.5,0,0,1-1.5,1.5h0l-59.742.106a1.514,1.514,0,0,1-1.513-1.5l-.149-84.035a1.513,1.513,0,0,1,1.5-1.513l40.254-.074Z"/><path class="m" d="M4298.5-1960.621v19.488a1.5,1.5,0,0,0,1.5,1.5l.076,0h19.434Z"/><path class="v" d="M4298.5-1960.621v19.488a1.5,1.5,0,0,0,1.5,1.5l.076,0h19.434Z"/><path class="l" d="M4322.067-1955.357v73.6l-53.6.1a1.5,1.5,0,0,1-1.5-1.5h0l-.16-84.046a1.492,1.492,0,0,1,1.481-1.5h.021l40.3-.075Z"/><path class="ab" d="M4333.883-1952.31,4334-1887.7a1.513,1.513,0,0,1-1.5,1.513l-59.742.106a1.513,1.513,0,0,1-1.513-1.5l-.149-84.045a1.5,1.5,0,0,1,1.5-1.5h0l40.265-.1Z"/><path class="n" d="M4312.861-1973.226v19.488a1.5,1.5,0,0,0,1.5,1.5H4333.8Z"/><rect class="r" width="9.323" height="1.065" transform="translate(4280.758 -1940.451)"/><rect class="r" width="20.191" height="1.065" transform="translate(4294.652 -1940.451)"/><rect class="r" width="5.786" height="1.065" transform="translate(4320.255 -1940.451)"/><rect class="r" width="23.281" height="1.065" transform="translate(4278.979 -1932.396)"/><rect class="r" width="16.643" height="1.065" transform="translate(4309.376 -1932.396)"/><rect class="r" width="8.257" height="1.065" transform="translate(4278.979 -1924.341)"/><rect class="r" width="26.147" height="1.065" transform="translate(4291.743 -1924.341)"/><rect class="r" width="3.346" height="1.065" transform="translate(4322.695 -1924.341)"/><rect class="r" width="23.281" height="1.065" transform="translate(4278.979 -1916.286)"/><rect class="r" width="17.889" height="1.065" transform="translate(4308.13 -1916.286)"/><rect class="r" width="9.323" height="1.065" transform="translate(4280.758 -1908.231)"/><rect class="r" width="20.191" height="1.065" transform="translate(4294.652 -1908.231)"/><rect class="r" width="5.786" height="1.065" transform="translate(4320.255 -1908.231)"/><rect class="r" width="23.281" height="1.065" transform="translate(4278.979 -1900.176)"/><rect class="r" width="16.067" height="1.065" transform="translate(4309.376 -1900.165)"/><path class="l" d="M4870.009-2071.191l.087,47.988a1.124,1.124,0,0,1-1.116,1.124l-44.372.079a1.116,1.116,0,0,1-1.116-1.116h0l-.119-62.423a1.116,1.116,0,0,1,1.116-1.116h0l29.9-.055Z"/><path class="ab" d="M4873.229-2074.491l.088,47.988a1.116,1.116,0,0,1-1.116,1.116h0l-44.372.079a1.123,1.123,0,0,1-1.124-1.116l-.111-62.415a1.124,1.124,0,0,1,1.116-1.124l29.9-.055Z"/><path class="m" d="M4857.632-2090.05v14.474a1.116,1.116,0,0,0,1.114,1.118l.057,0h14.434Z"/><path class="v" d="M4857.632-2090.05v14.474a1.116,1.116,0,0,0,1.114,1.118l.057,0h14.434Z"/><path class="l" d="M4875.137-2086.14v54.667l-39.814.072a1.116,1.116,0,0,1-1.116-1.116h0l-.119-62.423a1.109,1.109,0,0,1,1.1-1.116h.016l29.93-.056Z"/><path class="ab" d="M4883.913-2083.877l.087,47.988a1.123,1.123,0,0,1-1.116,1.124l-44.372.079a1.124,1.124,0,0,1-1.124-1.115l-.11-62.424a1.115,1.115,0,0,1,1.115-1.115h0l29.906-.072Z"/><path class="n" d="M4868.3-2099.412v14.475a1.116,1.116,0,0,0,1.116,1.115h14.435Z"/><rect class="r" width="6.924" height="0.791" transform="translate(4844.456 -2075.069)"/><rect class="r" width="14.996" height="0.791" transform="translate(4854.775 -2075.069)"/><rect class="r" width="4.297" height="0.791" transform="translate(4873.792 -2075.069)"/><rect class="r" width="17.291" height="0.791" transform="translate(4843.134 -2069.086)"/><rect class="r" width="12.361" height="0.791" transform="translate(4865.711 -2069.086)"/><rect class="r" width="6.133" height="0.791" transform="translate(4843.134 -2063.104)"/><rect class="r" width="19.42" height="0.791" transform="translate(4852.614 -2063.104)"/><rect class="r" width="2.485" height="0.791" transform="translate(4875.604 -2063.104)"/><rect class="r" width="17.291" height="0.791" transform="translate(4843.134 -2057.121)"/><rect class="r" width="13.287" height="0.791" transform="translate(4864.786 -2057.121)"/><rect class="r" width="6.924" height="0.791" transform="translate(4844.456 -2051.138)"/><rect class="r" width="14.996" height="0.791" transform="translate(4854.775 -2051.138)"/><rect class="r" width="4.297" height="0.791" transform="translate(4873.792 -2051.138)"/><rect class="r" width="17.291" height="0.791" transform="translate(4843.134 -2045.155)"/><rect class="r" width="11.934" height="0.791" transform="translate(4865.711 -2045.147)"/><g class="j"><path d="M4668.676-1910.135v-129.837a7.1,7.1,0,0,0-7.277-6.9H4561.57a7.092,7.092,0,0,0-7.276,6.9v129.849a7.092,7.092,0,0,0,7.276,6.9H4661.4A7.1,7.1,0,0,0,4668.676-1910.135Z"/><g class="k"><path class="l" d="M4668.676-1910.135v-129.837a7.1,7.1,0,0,0-7.277-6.9H4561.57a7.092,7.092,0,0,0-7.276,6.9v129.849a7.092,7.092,0,0,0,7.276,6.9H4661.4A7.1,7.1,0,0,0,4668.676-1910.135Z"/></g></g><path class="a" d="M4671-1912.849v-129.838a7.1,7.1,0,0,0-7.277-6.9h-99.829a7.1,7.1,0,0,0-7.276,6.9v129.849a7.1,7.1,0,0,0,7.276,6.9h99.829A7.1,7.1,0,0,0,4671-1912.849Z"/><path class="m" d="M4563.722-2045.446h0a2.656,2.656,0,0,0-2.723,2.587v79.184a2.655,2.655,0,0,0,2.724,2.585H4663.9a2.656,2.656,0,0,0,2.723-2.587v-79.184a2.656,2.656,0,0,0-2.724-2.585Z"/><path class="h" d="M4563.722-2045.446h0a2.656,2.656,0,0,0-2.723,2.587v79.184a2.655,2.655,0,0,0,2.724,2.585H4663.9a2.656,2.656,0,0,0,2.723-2.587v-79.184a2.656,2.656,0,0,0-2.724-2.585Z"/><path class="n" d="M4608.463-1961.09h55.457a2.566,2.566,0,0,0,2.723-2.368v-1.7l-27.59-36.922Z"/><path class="n" d="M4561-1963.458h0a2.566,2.566,0,0,0,2.725,2.367h60.743L4589.438-2014,4561-1971.036Z"/><path class="f" d="M4606.684-2025.736a6.9,6.9,0,0,1,7.125-6.662c.127,0,.254,0,.381.01a7.139,7.139,0,0,1,6.749,7.508,7.138,7.138,0,0,1-7.508,6.749,7.139,7.139,0,0,1-6.75-7.508Z"/><rect class="r" width="102" height="2" transform="translate(4561 -1956)"/><rect class="r" width="102" height="2" transform="translate(4561 -1950)"/><rect class="r" width="102" height="2" transform="translate(4561 -1944)"/><rect class="r" width="63" height="2" transform="translate(4561 -1938)"/><rect class="r" width="102" height="2" transform="translate(4561 -1932)"/><rect class="r" width="102" height="2" transform="translate(4561 -1926)"/><rect class="r" width="102" height="2" transform="translate(4561 -1920)"/><rect class="r" width="35" height="2" transform="translate(4561 -1914)"/><path class="ab" d="M4448.741-2059.207l1.137,1.752,2.781-.587,12.184-2.539,2.77-.587.353-2.049a17.1,17.1,0,0,0,4.256-15.2,17.1,17.1,0,0,0-20.247-13.227,17.1,17.1,0,0,0-13.227,20.247A17.044,17.044,0,0,0,4448.741-2059.207Z"/><path class="r" d="M4454.4-2057.837a.291.291,0,0,1-.3-.2c-.024-.078-2.514-7.817-7.008-10.657a.294.294,0,0,1-.13-.3.292.292,0,0,1,.226-.233l3.232-.674.453-3.7a.289.289,0,0,1,.224-.248.288.288,0,0,1,.309.127l3.536,5.535.524-5.434a.291.291,0,0,1,.229-.256.3.3,0,0,1,.314.143l2.677,4.818,1.02-6.5a.29.29,0,0,1,.231-.241.286.286,0,0,1,.305.138l1.9,3.21,3.232-.674a.289.289,0,0,1,.3.123.291.291,0,0,1,0,.325c-3,4.393-2.165,12.473-2.156,12.554a.291.291,0,0,1-.257.32h-.006a.291.291,0,0,1-.315-.258c-.035-.325-.8-7.718,1.885-12.356l-2.767.577a.294.294,0,0,1-.309-.136l-1.6-2.694-1.026,6.537a.291.291,0,0,1-.236.241.289.289,0,0,1-.3-.145l-2.634-4.74-.514,5.343a.293.293,0,0,1-.222.254.293.293,0,0,1-.313-.126l-3.555-5.564-.38,3.1a.288.288,0,0,1-.228.249l-2.77.578c4.3,3.188,6.582,10.269,6.681,10.582a.29.29,0,0,1-.189.364A.281.281,0,0,1,4454.4-2057.837Z"/><path class="r" d="M4459.921-2053.678c3.882-.8,7.34.3,7.851,2.481s-2.316,4.6-6.2,5.419-7.4-.3-7.851-2.48S4456.039-2052.875,4459.921-2053.678Z"/><path class="ac" d="M4451.56-2049.23l-2.2-8.108-.008-.035a.569.569,0,0,1,.447-.67l17.655-3.694.016,0a.582.582,0,0,1,.668.478l1.224,8.312a2.988,2.988,0,0,1-2.357,3.373l-11.931,2.492A2.985,2.985,0,0,1,4451.56-2049.23Z"/><path class="ad" d="M4469.108-2059.771a.755.755,0,0,0-.866-.625l-18.63,3.887a.755.755,0,0,0-.558.852.755.755,0,0,0,.866.625l18.629-3.887A.755.755,0,0,0,4469.108-2059.771Z"/><path class="ad" d="M4450.536-2053a.743.743,0,0,0-.564.888l0,.021a.743.743,0,0,0,.887.564l18.229-3.8.066-.014a.755.755,0,0,0,.545-.919.755.755,0,0,0-.918-.545l-18.229,3.8Z"/><path class="ad" d="M4451.056-2048.6a.767.767,0,0,0,.893.585l17.541-3.661a.767.767,0,0,0,.584-.9.755.755,0,0,0-.892-.585l-17.542,3.661A.779.779,0,0,0,4451.056-2048.6Z"/><path class="n" d="M4446.809-2117.951l3.8-.049,2.191,18.327Z"/><path class="n" d="M4423.02-2106.568l1.4-1.9,15.119,17.191Z"/><path class="n" d="M4416.623-2077.218l.416-1.74,16.337.985Z"/><path class="n" d="M4482.043-2110.064l-1.926-1.962-11.528,15.568Z"/><path class="n" d="M4494.2-2085.82l.369-2.389-17.163,5.808Z"/><path class="r" d="M4438.265-1993.685c1.7-1.885,5.886-5.214,1.1-9.073s-2.921-11.222,2.2-11.078.331-3.186.54-9.073,7.716-6.614,12.027-3.626,7.716-4.719,13.228-3.374,3.55,6.174,4.795,11.244,9.337.9,11.839,6.615-1.752,5.379-1.355,11.574,5.456,7.32,4.971,12.071-10.638,5.247-9.921,12.225-3.539,12.523-9.238,9.635-4.574,6.129-12.126,4.145-8.686-7.419-8.818-12.777-5.325-1.3-8.764-3.582S4432.83-1987.622,4438.265-1993.685Z"/><path class="m" d="M4433.977-1934.423l2.712-47.192,41.14,1.356-7.606,48.978Z"/><path class="ae" d="M4433.977-1934.423l2.712-47.192,41.14,1.356-7.606,48.978Z"/><path class="af" d="M4437.879-1924.005s-11.222,59.824-14.22,84.385c-3.914,32.045-19.909,78.928-19.909,78.928l6.394,1.654s22.554-39.839,26.952-75.677c17.925-36.642,19.369-81.717,19.369-81.717Z"/><path class="r" d="M4391.845-1746.185a9.2,9.2,0,0,1,3.307-.837h0s3.935-2.315,7.837-11.311h4.41a3.616,3.616,0,0,1,3.373,2.4,2.323,2.323,0,0,1,.121.606,25.3,25.3,0,0,1-.33,3.164,87.389,87.389,0,0,1-2.569,10.318l-.738-.188,1.344-6.548c.452-2.2-1.885-.077-2.965,2.205s-2.745,4.5-7.584,3.384C4392.341-1744.366,4390.059-1745.17,4391.845-1746.185Z"/><path class="af" d="M4449.542-1924.964s1.389,60.861,3.538,85.509c2.8,32.167-3.152,81.343-3.152,81.343l6.614.287s13.834-43.643,10.726-79.624c9.921-39.541,2.039-83.977,2.039-83.977Z"/><path class="r" d="M4439.643-1744.189a9.417,9.417,0,0,1,3.186-1.18h0s3.659-2.734,6.559-12.126l4.409-.5a3.618,3.618,0,0,1,3.616,2.028,2.234,2.234,0,0,1,.187.6,25.511,25.511,0,0,1,0,3.175,88.656,88.656,0,0,1-1.433,10.527l-.761-.1.629-6.614c.209-2.26-1.885.132-2.712,2.48s-2.205,4.762-7.176,4.189C4440.348-1742.426,4438-1742.988,4439.643-1744.189Z"/><path class="af" d="M4452.628-1975.232c8.422-1.1,10.958-4.674,10.958-4.674-5.347-5.038-.9-13.779-.9-13.779l-10.142,1.9a30.834,30.834,0,0,1,.4,4.266c.077,6.151-2.712,6.217-2.712,6.217C4448.451-1977.977,4452.628-1975.232,4452.628-1975.232Z"/><path class="l" d="M4452.54-1991.789a30.834,30.834,0,0,1,.4,4.266c6.846,0,9.745-6.162,9.745-6.162Z"/><path class="af" d="M4458.14-2020.153c-8.819-.485-11.905,4.079-13.052,13.129-1.433,11.31.651,19.512,11.807,17.693C4472.041-1991.8,4472.78-2019.348,4458.14-2020.153Z"/><path class="ag" d="M4450.81-2007.2a18.483,18.483,0,0,1-2.767,3.516,2.447,2.447,0,0,0,2.271,1.1Z"/><path class="ah" d="M4456.244-2007.63c0,.728.3,1.345.772,1.378s.926-.518.981-1.235-.287-1.345-.772-1.378S4456.31-2008.347,4456.244-2007.63Z"/><path class="ah" d="M4457.424-2008.821l-1.522-.738S4456.575-2008.17,4457.424-2008.821Z"/><path class="ah" d="M4447.271-2008.479c-.055.717.287,1.334.772,1.378s.915-.518.97-1.246-.287-1.333-.772-1.378S4447.326-2009.206,4447.271-2008.479Z"/><path class="ah" d="M4448.44-2009.669l-1.522-.739S4447.6-2009.03,4448.44-2009.669Z"/><path class="ai" d="M4456.729-2013.836a4.618,4.618,0,0,1,3.638,1.8"/><path class="ai" d="M4450.269-2014.652a4.091,4.091,0,0,0-3.461.97"/><path class="r" d="M4466.959-2004.764s-3.726-7.474-2.789-13.03c0,0-17.075-8.091-18.916,9.591,0,0-.838-15.841,14.33-15.356s13.9,22.642,5.711,28.826C4465.295-1994.7,4469.263-2000.1,4466.959-2004.764Z"/><path class="af" d="M4465.427-2002.989a3.857,3.857,0,0,1,4.338-3.309l.016,0c2.712.441,3.7,6.118-3.164,7.1C4465.636-1999.043,4465.14-2000.024,4465.427-2002.989Z"/><path class="ai" d="M4455.627-2002.162s-.662,3.307-5.115,3.307"/><path class="h" d="M4434.043-1933.993l-21.551,126.6s52.141,6.217,69.823,2.579c0,0,4.332-90.6-14.121-126.352Z"/><path class="af" d="M4403.75-1760.692s-5.512,11.454-8.631,13.67c0,0,4.222,2.513,8.631-3.087,5.688-7.253,7.077-5.236,7.077-5.236a20.722,20.722,0,0,0-.683-3.693C4409.284-1761.375,4403.75-1760.692,4403.75-1760.692Z"/><path class="af" d="M4450.589-1760.78s-1.554,4.233-3.616,8.9a20.23,20.23,0,0,1-4.144,6.515s3.593,1.169,5.511-1.1,5.27-10.406,9-9.469a8.755,8.755,0,0,0-.838-1.9C4455.969-1758.74,4450.589-1760.78,4450.589-1760.78Z"/><path class="r" d="M4433.977-1934.423l-1.014,6.769,38.009,2.69-.6-7.32Z"/><path class="a" d="M4452.474-1933.651c-.408-.441-10.351-1.235-11.167-.43,0,0-1.025,6.724-.617,7.353s10,.705,10.891.771S4452.86-1933.21,4452.474-1933.651Zm-1.786,6.934c-.727,0-8.609-.11-8.94-.629s.507-6.04.507-6.04c.673-.662,8.819,0,9.172.352s-.055,6.372-.761,6.317Z"/><path class="a" d="M4450.457-1931.138l-1.962-.132a.706.706,0,0,0-.761.606h0a.717.717,0,0,0,.584.828.519.519,0,0,0,.088.01l1.974.11a.728.728,0,0,0,.693-.76.729.729,0,0,0-.605-.684Z"/><path class="af" d="M4477.828-1980.259c6.912,4.5,2.106,40.666-27.316,68.346l-3.252-4.056s19.082-26.38,21.331-37.359C4473.65-1978.054,4477.828-1980.259,4477.828-1980.259Z"/><path class="af" d="M4436.688-1981.614c-3.307-.893-9.568,18.872-9.568,36.995,0,10.2,2.987,29.84,2.987,29.84l5.2-3.307s-1.708-28.363-1.333-30.976,4.244-19.721,4.244-19.721a31.982,31.982,0,0,0,1.2-7.474A7.175,7.175,0,0,0,4436.688-1981.614Z"/><rect class="m" width="66.097" height="96.809" transform="translate(4396.589 -1845.899) rotate(-87.7)"/><rect class="a" width="66.097" height="96.809" transform="translate(4396.589 -1845.899) rotate(-87.7)"/><path class="r" d="M4493.585-1841.728l-97.283-3.907.011-.275,2.664-66.319,97.282,3.907-.011.275Zm-96.71-4.435,96.18,3.863,2.631-65.494-96.179-3.863Z"/><rect class="r" width="1.973" height="1.973" transform="translate(4398.209 -1910.99) rotate(-87.7)"/><rect class="r" width="1.973" height="1.973" transform="translate(4395.539 -1844.943) rotate(-87.7)"/><rect class="r" width="1.973" height="1.973" transform="translate(4492.268 -1841.053) rotate(-87.7)"/><rect class="r" width="1.973" height="1.973" transform="translate(4494.949 -1907.111) rotate(-87.7)"/><path class="h" d="M4487.981-1898.662l-55.426-2.2a.828.828,0,0,1-.8-.858v-.013h0a.838.838,0,0,1,.86-.8l55.426,2.2a.826.826,0,0,1,.805.848v.012h0a.838.838,0,0,1-.859.816Z"/><path class="h" d="M4487.749-1892.577l-55.437-2.2a.827.827,0,0,1-.794-.859h0a.828.828,0,0,1,.848-.806h.023l55.427,2.205a.837.837,0,0,1,.793.871h0A.838.838,0,0,1,4487.749-1892.577Z"/><path class="h" d="M4487.485-1886.5l-55.426-2.2a.838.838,0,0,1-.805-.87h0a.826.826,0,0,1,.858-.794h.013l55.426,2.205a.849.849,0,0,1,.805.871h0A.839.839,0,0,1,4487.485-1886.5Z"/><path class="h" d="M4487.231-1880.418l-55.426-2.205a.849.849,0,0,1-.805-.871h0a.838.838,0,0,1,.87-.8h0l55.427,2.2a.848.848,0,0,1,.8.871h0a.838.838,0,0,1-.869.805Z"/><path class="h" d="M4486.978-1874.333l-80.99-3.307a.838.838,0,0,1-.8-.87h0a.838.838,0,0,1,.87-.805h0l80.99,3.307a.838.838,0,0,1,.805.87h0A.85.85,0,0,1,4486.978-1874.333Z"/><path class="h" d="M4486.724-1868.259l-80.99-3.307a.838.838,0,0,1-.8-.87h0a.836.836,0,0,1,.87-.794l81,3.307a.827.827,0,0,1,.794.859h0a.828.828,0,0,1-.847.806Z"/><path class="h" d="M4486.482-1862.174l-81-3.307a.85.85,0,0,1-.805-.871h0a.849.849,0,0,1,.871-.8l81,3.307a.85.85,0,0,1,.805.871h0A.85.85,0,0,1,4486.482-1862.174Z"/><path class="h" d="M4486.228-1856.1l-81-3.307a.828.828,0,0,1-.794-.859h0a.827.827,0,0,1,.848-.805h.012l81,3.307a.849.849,0,0,1,.805.871h0A.839.839,0,0,1,4486.228-1856.1Z"/><path class="h" d="M4485.975-1850.015l-80.99-3.307a.838.838,0,0,1-.8-.87h0a.849.849,0,0,1,.871-.805l80.99,3.307a.839.839,0,0,1,.805.87h0a.839.839,0,0,1-.87.8Z"/><path class="h" d="M4414.9-1898.552l-4.586-.187.066-1.676,11.079.463-.077,1.665-4.586-.188-.485,11.729-1.9-.077Z"/><path class="h" d="M4425.333-1882.984l-20.188-.832.01-.275.822-19.914,20.188.832-.011.276Zm-19.616-1.36,19.088.787.787-19.088-19.088-.786Z"/><path class="af" d="M4448.153-1917.182s-3.307,1.521-3.748,2.4-4.123,10.693-3.825,11.983,6.272,2.888,7.132,2.568,4.266-11.618,4.255-13.041S4448.153-1917.182,4448.153-1917.182Z"/><path class="af" d="M4431.937-1920.335s-2.932,2.095-3.241,3.054-2.094,11.255-1.565,12.468,6.691,1.7,7.485,1.223,2.061-12.2,1.786-13.6S4431.937-1920.335,4431.937-1920.335Z"/><path class="h" d="M4461.723-1983.477s-5.005,5.511-8.654,7.231c0,0-2.039-4.476-1.1-7.231,0,0-6.338,3.6-5.71,8.245s6.349.673,6.349.673,4.862,4.409,8.819,1.929,3.076-8.07,3.076-8.07Z"/><path class="h" d="M4452.684-1969.61a.849.849,0,0,1-.849.838.849.849,0,0,1-.747-.94.849.849,0,0,1,.747-.747.849.849,0,0,1,.849.849Z"/><path class="h" d="M4451.052-1959.424a.849.849,0,0,1-.849.849.849.849,0,0,1-.849-.849.849.849,0,0,1,.849-.849.837.837,0,0,1,.849.827Z"/></g></g></g></svg>