<?xml version="1.0" encoding="utf-8"?>
<!-- Generator: Adobe Illustrator 25.3.1, SVG Export Plug-In . SVG Version: 6.00 Build 0)  -->
<svg version="1.1" id="Layer_1" xmlns="http://www.w3.org/2000/svg" xmlns:xlink="http://www.w3.org/1999/xlink" x="0px" y="0px"
	 viewBox="0 0 286 161" style="enable-background:new 0 0 286 161;" xml:space="preserve">
<style type="text/css">
	.st0{fill:#E2FBE5;}
	.st1{fill:#231F20;}
</style>
<g transform="translate(4285 6334)">
	<path class="st0" d="M-4007.4-6173h-269.2c-4.6,0-8.4-3.8-8.4-8.4v-71.7c0-4.6,3.8-8.4,8.4-8.4h269.2c4.6,0,8.4,3.8,8.4,8.4v71.7
		C-3999-6176.8-4002.8-6173-4007.4-6173z"/>
	<path class="st1" d="M-4076.2-6293c-6.4-13.1-16.5-24-29-31.3c-12.5-7.2-26.9-10.5-41.3-9.5c1.1,1.9,1.8,4.1,3.5,5.4
		c3.5,0.6,7.2,0.4,10.7,0.9c14.5,2,27.9,8.8,38.1,19.4c-1.5,2.8-3.1,5.6-4.8,8.3c-9.9-10.6-23.8-17.9-38.5-18.5
		c1.3,2.2,2,5.5,4.9,6.2c4.1,1.2,8.4,2,12.2,3.9c7,3.2,13.2,7.9,18.2,13.7c-5.2,9.3-10.4,18.5-16,27.6c-12.9-21.7-25.4-43.7-38-65.5
		c-23.6,4.4-44,21.8-52.7,44.1c-7.4,18.6-6.8,39.5,1.8,57.6c5,10.6,12.4,19.8,21.6,26.9c13.3,10.2,29.6,15.4,46.3,14.7
		c-1.1-1.9-2.2-3.8-3.4-5.7c-17.7-0.4-34.5-7.7-46.9-20.4c1.4-3,3-5.8,5-8.5c9.4,10.2,22.1,17.5,36.1,18.8c-1.2-2.1-2.1-4.5-3.9-6.1
		c-2-0.9-4.1-1.6-6.2-2.2c-9-3.1-16.9-8.7-22.9-16.1c4.8-8.5,9.5-16.9,14.6-25.2c12.6,21.4,24.9,42.9,37.3,64.5
		c25.8-4,48.2-23.1,56.5-47.7C-4066.7-6255.9-4067.9-6275.7-4076.2-6293z M-4159.2-6325.7c8,13.6,16,27.3,23.7,41.1
		c-22.8,0.1-45.5,0.1-68.3,0C-4196.7-6304.5-4179.4-6320.1-4159.2-6325.7L-4159.2-6325.7z M-4193.7-6220.1
		c-9.4-11.9-14.5-26.7-14.4-41.8c0.2-5.7,0.9-11.3,2.2-16.8c15.3-0.3,30.7-0.2,46.1,0c-1.7,3.1-3.4,6.2-5.2,9.3
		C-4174.7-6253.1-4184-6236.5-4193.7-6220.1L-4193.7-6220.1z M-4158.3-6251.9c-1.5-2.9-3.6-5.5-4.6-8.6c0.3-2.4,2-4.3,3.1-6.4
		c2.4-3.8,4.2-8,7-11.6c2.3-0.9,4.8-0.5,7.2-0.6c4.4,0.2,8.8-0.3,13.3,0.3c1.3,1,2,2.6,2.9,4c2,3.8,4.3,7.5,6.5,11.2
		c0.6,1.2,1.7,2.7,0.8,4.1c-1.8,3.7-4.2,7-6.1,10.6c-1.3,2.1-2.2,4.5-4.1,6.1c-4.7,0.6-9.4,0.1-14.1,0.3c-2.1-0.1-4.4,0.3-6.4-0.6
		C-4155.1-6245.7-4156.5-6249-4158.3-6251.9z M-4126.3-6196.6c-5.6-9.5-11.1-19.2-16.7-28.8c-2.2-3.7-4.4-7.3-6.2-11.2
		c23.2-0.1,46.4,0,69.6-0.1C-4087.6-6216.9-4105.5-6201.3-4126.3-6196.6L-4126.3-6196.6z M-4074.9-6257.2c-0.4,4.9-1.2,9.7-2.4,14.4
		c-6,0.5-12.1,0.2-18.1,0.2c-9.9,0-19.7,0.2-29.5-0.1c7.9-14.4,16.4-28.5,24.5-42.8c3.6-6,6.7-12.3,10.7-18
		C-4079.2-6290.4-4073.9-6273.9-4074.9-6257.2L-4074.9-6257.2z"/>
</g>
</svg>
