<svg xmlns="http://www.w3.org/2000/svg" width="100" height="100" viewBox="0 0 100 100">
  <g id="t1-i3" transform="translate(-414 -1962)">
    <rect id="Rectangle_5570" data-name="Rectangle 5570" width="100" height="100" transform="translate(414 1962)" fill="none"/>
    <g id="Page-1" transform="translate(-2557.357 1658.893)">
      <g id="_032---Designing" data-name="032---Designing" transform="translate(2971.357 303.107)">
        <path id="Shape" d="M2989.89,388.44v61.667a10,10,0,0,0-10,10V398.44A10,10,0,0,1,2989.89,388.44Z" transform="translate(-2978.223 -371.773)" fill="#66bd7a"/>
        <path id="Shape-2" data-name="Shape" d="M3433.624,398.44v61.667a10,10,0,0,0-10-10V388.44A10,10,0,0,1,3433.624,398.44Z" transform="translate(-3335.291 -371.773)" fill="#66bd7a"/>
        <path id="Shape-3" data-name="Shape" d="M3423.624,388.44v1.352a10,10,0,0,1,5,8.648v53.018a10,10,0,0,1,5,8.648V398.44A10,10,0,0,0,3423.624,388.44Z" transform="translate(-3335.291 -371.773)" fill="#80ed99"/>
        <path id="Shape-4" data-name="Shape" d="M3076.557,508.174a10,10,0,0,1-10,10H2989.89a10,10,0,1,1,0-20v-50h76.667v50A10,10,0,0,1,3076.557,508.174Z" transform="translate(-2978.223 -419.841)" fill="#c7f9cc"/>
        <path id="Shape-5" data-name="Shape" d="M3403.024,498.174v-50h-5v50a10,10,0,1,1,0,20h5a10,10,0,1,0,0-20Z" transform="translate(-3314.69 -419.841)" fill="#80ed99"/>
        <path id="Shape-6" data-name="Shape" d="M3208.221,695.64l-3.867,7.067a2.666,2.666,0,0,1-4.533,0l-3.867-7.067Z" transform="translate(-3152.087 -618.973)" fill="#22577a"/>
        <path id="Shape-7" data-name="Shape" d="M3186.485,627.374a8.719,8.719,0,0,1-.767,1.983l-6.2,11.35h-12.267l-6.2-11.35a8.719,8.719,0,0,1-.767-1.983Z" transform="translate(-3123.385 -564.041)" fill="#f5f5f5"/>
        <path id="Shape-8" data-name="Shape" d="M3240.126,627.374a8.707,8.707,0,0,1-.767,1.983l-6.2,11.35h5l6.2-11.35a8.707,8.707,0,0,0,.767-1.983Z" transform="translate(-3182.027 -564.041)" fill="#cfd8dc"/>
        <path id="Shape-9" data-name="Shape" d="M3172.423,431.107V469.44h-13.1a8.271,8.271,0,0,1-.233-1.917V431.107Z" transform="translate(-3122.423 -406.107)" fill="#ffc94a"/>
        <path id="Shape-10" data-name="Shape" d="M3240.69,431.107v36.417a8.271,8.271,0,0,1-.233,1.917h-13.1V431.107Z" transform="translate(-3177.357 -406.107)" fill="#ffc94a"/>
        <path id="Shape-11" data-name="Shape" d="M3269.063,431.107v36.417a8.271,8.271,0,0,1-.233,1.917h5a8.271,8.271,0,0,0,.233-1.917V431.107Z" transform="translate(-3210.729 -406.107)" fill="#d9ab3e"/>
        <path id="Rectangle-path" d="M3159.09,379.907h26.667v10H3159.09Z" transform="translate(-3122.423 -364.907)" fill="#f5f5f5"/>
        <path id="Rectangle-path-2" data-name="Rectangle-path" d="M3270.024,379.907h5v10h-5Z" transform="translate(-3211.69 -364.907)" fill="#cfd8dc"/>
        <path id="Shape-12" data-name="Shape" d="M3185.757,317.023v7.95H3159.09v-7.95a5.349,5.349,0,0,1,5.333-5.383h16a5.348,5.348,0,0,1,5.333,5.383Z" transform="translate(-3122.423 -309.973)" fill="#fb6459"/>
        <path id="Shape-13" data-name="Shape" d="M3247.717,311.64h-5a5.348,5.348,0,0,1,5.333,5.383v7.95h5v-7.95a5.348,5.348,0,0,0-5.333-5.383Z" transform="translate(-3189.717 -309.973)" fill="#cf5249"/>
        <path id="Shape-14" data-name="Shape" d="M3059.69,318.107a1.667,1.667,0,0,0-1.667,1.667v10h-21.667V310.15a7.03,7.03,0,0,0-7-7.043h-16a7.03,7.03,0,0,0-7,7.043v19.623H2984.69v-10a1.667,1.667,0,0,0-1.667-1.667,11.68,11.68,0,0,0-11.667,11.667V391.44a11.68,11.68,0,0,0,11.667,11.667h76.667a11.68,11.68,0,0,0,11.667-11.667V329.774A11.68,11.68,0,0,0,3059.69,318.107Zm-33.192,60h-10.281l-5.47-10h21.22Zm-1.823,3.333-2.473,4.525a.984.984,0,0,1-.845.475.946.946,0,0,1-.8-.4l-2.518-4.6Zm8.348-55H3009.69v-6.667h23.333Zm-13.333,3.333v35h-9.985c0-.083-.015-.167-.015-.248V329.774Zm13.333,34.752c0,.083-.011.167-.015.248h-9.985v-35h10Zm-19.667-58.085h16a3.693,3.693,0,0,1,3.667,3.71v6.29H3009.69v-6.29a3.693,3.693,0,0,1,3.667-3.71Zm-38.667,23.333a8.347,8.347,0,0,1,6.667-8.167V379.89a11.65,11.65,0,0,0-6.667,3.39Zm85,70h-76.667a8.333,8.333,0,0,1,0-16.667,1.667,1.667,0,0,0,1.667-1.667V333.107h21.667v31.418a9.81,9.81,0,0,0,1.2,4.693l10.123,18.5a4.322,4.322,0,0,0,7.4-.078l10.076-18.422a9.787,9.787,0,0,0,1.2-4.693V333.107h21.667V381.44a1.666,1.666,0,0,0,1.667,1.667,8.333,8.333,0,1,1,0,16.667Zm8.333-16.5a11.651,11.651,0,0,0-6.667-3.39V321.607a8.347,8.347,0,0,1,6.667,8.167Z" transform="translate(-2971.357 -303.107)"/>
      </g>
    </g>
  </g>
</svg>
