<svg xmlns="http://www.w3.org/2000/svg" width="100" height="100.008" viewBox="0 0 100 100.008">
  <g id="t1-i2" transform="translate(-414 -1382.992)">
    <rect id="Rectangle_5565" data-name="Rectangle 5565" width="100" height="100" transform="translate(414 1383)" fill="none"/>
    <g id="Page-1" transform="translate(-4333.377 920.882)">
      <g id="_012---Hold-Pencil" data-name="012---Hold-Pencil" transform="translate(4747.377 462.11)">
        <path id="Shape" d="M4929.711,476.436V488.3a5.726,5.726,0,0,1-1.717,3.967,5.834,5.834,0,0,1-8.234,0,5.724,5.724,0,0,1-1.717-3.967V476.436a5.73,5.73,0,0,1,1.717-4.1,5.834,5.834,0,0,1,9.951,4.1Z" transform="translate(-4884.707 -468.969)" fill="#ffaa89"/>
        <path id="Shape-2" data-name="Shape" d="M4937.61,470.638a5.807,5.807,0,0,0-2.5.582,5.791,5.791,0,0,1,3.333,5.219v11.868a5.724,5.724,0,0,1-1.717,3.967,5.814,5.814,0,0,1-1.617,1.117,5.819,5.819,0,0,0,8.334-5.084V476.439A5.822,5.822,0,0,0,4937.61,470.638Z" transform="translate(-4898.44 -468.972)" fill="#ff6a48"/>
        <path id="Shape-3" data-name="Shape" d="M4869.978,493.37v8.667a5.5,5.5,0,0,1-1.716,4,5.917,5.917,0,0,1-8.234,0,5.5,5.5,0,0,1-1.717-4V493.37a5.5,5.5,0,0,1,1.717-4,5.864,5.864,0,0,1,4.117-1.667,5.753,5.753,0,0,1,5.833,5.667Z" transform="translate(-4836.642 -482.703)" fill="#ffaa89"/>
        <path id="Shape-4" data-name="Shape" d="M4877.877,487.7a5.89,5.89,0,0,0-2.5.568,5.643,5.643,0,0,1,3.333,5.1v8.667a5.5,5.5,0,0,1-1.717,4,5.776,5.776,0,0,1-1.617,1.1,5.863,5.863,0,0,0,6.617-1.1,5.5,5.5,0,0,0,1.717-4V493.37A5.753,5.753,0,0,0,4877.877,487.7Z" transform="translate(-4850.375 -482.703)" fill="#ff6a48"/>
        <path id="Shape-5" data-name="Shape" d="M4989.444,493.37v8.667a5.766,5.766,0,0,1-5.834,5.667,5.863,5.863,0,0,1-4.117-1.667,5.5,5.5,0,0,1-1.717-4V493.37a5.5,5.5,0,0,1,1.717-4,5.863,5.863,0,0,1,4.117-1.667A5.754,5.754,0,0,1,4989.444,493.37Z" transform="translate(-4932.772 -482.703)" fill="#ffaa89"/>
        <path id="Shape-6" data-name="Shape" d="M4997.343,487.7a5.89,5.89,0,0,0-2.5.568,5.643,5.643,0,0,1,3.333,5.1v8.667a5.635,5.635,0,0,1-3.333,5.1,5.893,5.893,0,0,0,2.5.572,5.766,5.766,0,0,0,5.834-5.667V493.37A5.754,5.754,0,0,0,4997.343,487.7Z" transform="translate(-4946.505 -482.703)" fill="#ff6a48"/>
        <path id="Shape-7" data-name="Shape" d="M4856.916,564.195v19.619a17.54,17.54,0,0,1-10.184,16.1l-3.15,1.383v11.6h-38.337v-6.267a6.636,6.636,0,0,0-1.15-3.75c-.833-1.234-2-2.967-3.034-4.55a14.979,14.979,0,0,1-2.483-8.251V571.229h46.671v-7.034a5.834,5.834,0,1,1,11.667,0Z" transform="translate(-4788.576 -539.56)" fill="#ffaa89"/>
        <path id="Shape-8" data-name="Shape" d="M5015.878,557.081a5.6,5.6,0,0,0-2.5.617,6.1,6.1,0,0,1,3.333,5.469v19.617a17.541,17.541,0,0,1-10.184,16.1l-3.15,1.383v11.6h5v-11.6l3.15-1.383a17.541,17.541,0,0,0,10.184-16.1V563.165A5.972,5.972,0,0,0,5015.878,557.081Z" transform="translate(-4953.372 -538.53)" fill="#ff6a48"/>
        <path id="Shape-9" data-name="Shape" d="M4810.244,510.777v5a5.861,5.861,0,0,1-5.834,5.834,5.467,5.467,0,0,1-2.5-.583,5.8,5.8,0,0,1-3.333-5.25v-5a5.467,5.467,0,0,1,.583-2.5,5.834,5.834,0,0,1,11.084,2.5Z" transform="translate(-4788.575 -496.61)" fill="#ffaa89"/>
        <path id="Shape-10" data-name="Shape" d="M4822.2,506.488a5.782,5.782,0,0,0-6.632-1.139,5.805,5.805,0,0,1,3.349,5.256v5a5.774,5.774,0,0,1-1.667,4.067,5.671,5.671,0,0,1-1.667,1.185,5.473,5.473,0,0,0,2.5.582,5.861,5.861,0,0,0,5.834-5.834v-5A5.765,5.765,0,0,0,4822.2,506.488Z" transform="translate(-4802.247 -496.438)" fill="#ff6a48"/>
        <path id="Shape-11" data-name="Shape" d="M4908.116,521.838v20h-10v-7.034a5.834,5.834,0,0,0-11.668,0v7.034h-36.67v-8.434a5.776,5.776,0,0,0,1.667-4.067v.167a5.5,5.5,0,0,0,1.717,4,5.917,5.917,0,0,0,8.234,0,5.5,5.5,0,0,0,1.717-4,5.724,5.724,0,0,0,1.717,3.967,5.834,5.834,0,0,0,8.234,0,5.726,5.726,0,0,0,1.717-3.967,5.5,5.5,0,0,0,1.717,4,5.863,5.863,0,0,0,4.117,1.667,5.766,5.766,0,0,0,5.834-5.667v-7.667Z" transform="translate(-4829.775 -510.171)" fill="#ffc94a"/>
        <path id="Rectangle-path" d="M5122.843,521.838h5v20h-5Z" transform="translate(-5049.503 -510.171)" fill="#d9ab3e"/>
        <path id="Shape-12" data-name="Shape" d="M5160.11,526.638v10.4l-8.551,4.267a4.9,4.9,0,0,1-2.233.533h-.883v-20h.883a4.9,4.9,0,0,1,2.233.533Z" transform="translate(-5070.103 -510.171)" fill="#cfd8dc"/>
        <path id="Shape-13" data-name="Shape" d="M5151.56,522.371a4.9,4.9,0,0,0-2.233-.533h-.883v1.474l6.667,3.333v10.4l-6.667,3.334v1.46h.883a4.9,4.9,0,0,0,2.233-.533l8.551-4.267v-10.4Z" transform="translate(-5070.103 -510.171)" fill="#fff"/>
        <path id="Shape-14" data-name="Shape" d="M5215.594,553.166l-7.417,3.717V546.5l7.417,3.7a1.667,1.667,0,0,1,0,2.967Z" transform="translate(-5118.168 -530.015)" fill="#80ed99"/>
        <path id="Shape-15" data-name="Shape" d="M4767.578,534.589v7.251h-6.667a5,5,0,0,1-5-5v-10a5,5,0,0,1,5-5h3.917a5.467,5.467,0,0,0-.583,2.5v5A5.8,5.8,0,0,0,4767.578,534.589Z" transform="translate(-4754.243 -510.171)" fill="#fb6459"/>
        <path id="Shape-16" data-name="Shape" d="M4822.311,581.059v8.434h-6.667v-7.251a5.466,5.466,0,0,0,2.5.583A5.736,5.736,0,0,0,4822.311,581.059Z" transform="translate(-4802.309 -557.825)" fill="#f5f5f5"/>
        <path id="Shape-17" data-name="Shape" d="M4860.647,840.9v20a1.667,1.667,0,0,1-1.667,1.667H4817.31a1.667,1.667,0,0,1-1.667-1.667v-20a3.344,3.344,0,0,1,3.333-3.334h38.337A3.344,3.344,0,0,1,4860.647,840.9Z" transform="translate(-4802.309 -764.232)" fill="#80ed99"/>
        <path id="Shape-18" data-name="Shape" d="M5008.377,837.571h-5a3.344,3.344,0,0,1,3.333,3.334v20a1.667,1.667,0,0,1-1.667,1.667h5a1.667,1.667,0,0,0,1.667-1.667v-20A3.344,3.344,0,0,0,5008.377,837.571Z" transform="translate(-4953.372 -764.232)" fill="#66bd7a"/>
        <path id="Shape-19" data-name="Shape" d="M4754.044,495.445h1.667V512.63a16.592,16.592,0,0,0,2.755,9.167c1.037,1.592,2.21,3.334,3.052,4.581a4.97,4.97,0,0,1,.86,2.8v4.907a5,5,0,0,0-3.333,4.694v20a3.334,3.334,0,0,0,3.333,3.334h41.671a3.333,3.333,0,0,0,3.333-3.334v-20a5,5,0,0,0-3.333-4.694v-9.141l2.167-.948a19.216,19.216,0,0,0,11.167-17.643V495.445h9.219a6.692,6.692,0,0,0,2.985-.7l15.953-7.984a3.333,3.333,0,0,0,.008-5.952l-15.961-7.989a6.692,6.692,0,0,0-2.985-.7h-20.957a7.421,7.421,0,0,0-7.431-6.667,7.468,7.468,0,0,1-11.668-3.333,9.827,9.827,0,0,1-13.736,3.626,6.631,6.631,0,0,1-10.789,3.131,7.429,7.429,0,0,0-5.042,3.243h-2.937a6.667,6.667,0,0,0-6.667,6.667v10a6.667,6.667,0,0,0,6.667,6.667Zm9.167-6.667a7.409,7.409,0,0,0,2.5-.46v3.794h-3.334v-3.419A7.248,7.248,0,0,0,4763.211,488.778Zm17.523-2.807a7.421,7.421,0,0,0,11.625,0,7.551,7.551,0,0,0,10.022,1.565v4.575h-33.336V486a7.509,7.509,0,0,0,11.689-.025Zm-18.357,72.813v-20a1.667,1.667,0,0,1,1.667-1.667h38.337a1.667,1.667,0,0,1,1.667,1.667v20Zm51.672-52.428a15.879,15.879,0,0,1-9.186,14.591l-8.776,3.847a1.667,1.667,0,1,0,1.333,3.054l3.293-1.445v7.379h-35v-4.6a8.29,8.29,0,0,0-1.435-4.682c-.833-1.228-1.992-2.954-3.024-4.537a13.271,13.271,0,0,1-2.208-7.332V495.445h43.337v1.1a2.822,2.822,0,0,1-1.982,2.792,16.742,16.742,0,0,0-12.558,12.345,1.667,1.667,0,1,0,3.244.775,13.308,13.308,0,0,1,10.176-9.9,6.155,6.155,0,0,0,4.454-6.012v-9.8a4.167,4.167,0,0,1,8.334,0Zm-4.167-27.363a7.292,7.292,0,0,0-4.167,1.314v-4.864h18.335v16.668h-6.667V486.75A7.641,7.641,0,0,0,4809.883,478.994Zm29.169,7.284v-5l5,2.5Zm-3.333-6.667v8.334l-7.624,3.815a3.432,3.432,0,0,1-.71.257V475.539a3.434,3.434,0,0,1,.71.257Zm-37.5-10.834a4.092,4.092,0,0,1,4.167,4v8.667a4.167,4.167,0,1,1-8.334,0v-8.667A4.093,4.093,0,0,1,4798.215,468.776Zm-15.835.8a4.167,4.167,0,1,1,8.334,0v11.738a4.167,4.167,0,1,1-8.334,0Zm-11.668,3.2a4.167,4.167,0,0,1,8.334,0v8.667a4.167,4.167,0,0,1-8.334,0Zm-11.667,3.5a4.167,4.167,0,0,1,8.334,0v5a4.167,4.167,0,0,1-8.334,0Zm-8.334,2.5a3.334,3.334,0,0,1,3.333-3.334h1.752a7.232,7.232,0,0,0-.085.833v5a7.5,7.5,0,0,0,3.333,6.231v4.6h-5a3.334,3.334,0,0,1-3.333-3.334Z" transform="translate(-4747.377 -462.11)"/>
      </g>
    </g>
  </g>
</svg>
