<svg xmlns="http://www.w3.org/2000/svg" width="100" height="100" viewBox="0 0 100 100">
  <g id="t1-i2-1" transform="translate(-1059 -1675)">
    <rect id="Rectangle_5568" data-name="Rectangle 5568" width="100" height="100" transform="translate(1159 1775) rotate(180)" fill="none"/>
    <g id="Page-1" transform="translate(-2376.75 1811.994)">
      <g id="_033---Idea" data-name="033---Idea" transform="translate(3444.75 -136.994)">
        <path id="Shape" d="M3687.69,196.806v17.867a1.666,1.666,0,0,1-1.05,1.55l-32.283,12.917V195.806l5.95,10.4a1.653,1.653,0,0,0,2.05.733c6.233-2.5,14.533-5.817,25.333-10.133Z" transform="translate(-3613.418 -130.806)" fill="#80ed99"/>
        <path id="Shape-2" data-name="Shape" d="M3682.69,202.926v15.867a1.666,1.666,0,0,1-1.05,1.55l-27.283,10.917v2l32.283-12.917a1.666,1.666,0,0,0,1.05-1.55V200.926Z" transform="translate(-3613.418 -134.926)" fill="#66bd7a"/>
        <path id="Shape-3" data-name="Shape" d="M3517.023,195.806v33.333l-32.283-12.917a1.667,1.667,0,0,1-1.05-1.55V196.806c10.8,4.317,19.1,7.633,25.333,10.133a1.653,1.653,0,0,0,2.05-.733Z" transform="translate(-3476.084 -130.806)" fill="#80ed99"/>
        <path id="Shape-4" data-name="Shape" d="M3692.573,139.922c-1.683.667-3.317,1.333-4.884,1.95-10.8,4.317-19.1,7.633-25.333,10.133a1.653,1.653,0,0,1-2.05-.733l-5.95-10.4,33.333-13.333,5.717,10a1.685,1.685,0,0,1-.833,2.383Z" transform="translate(-3613.418 -75.872)" fill="#c7f9cc"/>
        <path id="Shape-5" data-name="Shape" d="M3717.063,137.539l-5.717-10-4.07,1.629,4.787,8.371a1.686,1.686,0,0,1-.833,2.383c-1.684.667-3.317,1.333-4.883,1.95-9.293,3.715-16.725,6.685-22.592,9.035l.208.365a1.653,1.653,0,0,0,2.05.733c6.233-2.5,14.533-5.817,25.333-10.133,1.567-.617,3.2-1.283,4.884-1.95a1.686,1.686,0,0,0,.833-2.383Z" transform="translate(-3637.073 -75.872)" fill="#66bd7a"/>
        <path id="Shape-6" data-name="Shape" d="M3550.356,89.223l-33.333,13.333L3483.69,89.223l23.25-9.3a6.167,6.167,0,0,1,.083.967v3.333a3.343,3.343,0,0,0,3.333,3.333v1.667a5,5,0,0,0,5,5h3.333a5,5,0,0,0,5-5V87.556a3.344,3.344,0,0,0,3.333-3.333V80.89a6.137,6.137,0,0,1,.083-.967Z" transform="translate(-3476.084 -37.556)" fill="#66bd7a"/>
        <path id="Shape-7" data-name="Shape" d="M3492.585,140.872l-5.95,10.4a1.654,1.654,0,0,1-2.05.733c-6.233-2.5-14.533-5.817-25.333-10.133-1.567-.617-3.2-1.283-4.884-1.95a1.685,1.685,0,0,1-.833-2.383l5.717-10Z" transform="translate(-3451.647 -75.872)" fill="#c7f9cc"/>
        <path id="Shape-8" data-name="Shape" d="M3591.957-108.461c0,12.667-9.033,14.8-9.917,20.7a6.137,6.137,0,0,0-.083.967h-20a6.167,6.167,0,0,0-.083-.967c-.883-5.9-9.917-8.033-9.917-20.7a20,20,0,0,1,20-20A20,20,0,0,1,3591.957-108.461Z" transform="translate(-3531.018 130.128)" fill="#ffc94a"/>
        <path id="Shape-9" data-name="Shape" d="M3644.057-128.461a19.931,19.931,0,0,0-2.5.167,19.983,19.983,0,0,1,17.5,19.833c0,12.667-9.033,14.8-9.917,20.7a6.167,6.167,0,0,0-.083.967h5a6.2,6.2,0,0,1,.083-.967c.884-5.9,9.917-8.033,9.917-20.7A20,20,0,0,0,3644.057-128.461Z" transform="translate(-3603.118 130.128)" fill="#d9ab3e"/>
        <path id="Shape-10" data-name="Shape" d="M3623.157,84.873v3.333a3.343,3.343,0,0,1-3.333,3.333H3606.49a3.343,3.343,0,0,1-3.333-3.333V84.873Z" transform="translate(-3572.218 -41.54)" fill="#9e9e9e"/>
        <path id="Shape-11" data-name="Shape" d="M3666.223,84.873v3.333a3.343,3.343,0,0,1-3.333,3.333h5a3.343,3.343,0,0,0,3.333-3.333V84.873Z" transform="translate(-3620.284 -41.54)" fill="#707070"/>
        <path id="Shape-12" data-name="Shape" d="M3633.556,119.006v1.667a5,5,0,0,1-5,5h-3.333a5,5,0,0,1-5-5v-1.667Z" transform="translate(-3585.951 -69.006)" fill="#7f8e94"/>
        <path id="Shape-13" data-name="Shape" d="M3584.257-87.16a1.667,1.667,0,0,1-1.381-.736,1.667,1.667,0,0,1-.163-1.556,15.071,15.071,0,0,1,8.27-8.27,1.666,1.666,0,0,1,1.658.225,1.667,1.667,0,0,1,.627,1.551,1.666,1.666,0,0,1-1.035,1.314,11.724,11.724,0,0,0-6.43,6.43A1.667,1.667,0,0,1,3584.257-87.16Z" transform="translate(-3555.669 105.494)" fill="#f5f5f5"/>
        <g id="Group_54355" data-name="Group 54355">
          <path id="Shape-14" data-name="Shape" d="M3520.469-86.161a1.667,1.667,0,0,0-.833-.722l-21.85-8.74a15.805,15.805,0,0,1,2.861-3.833c2.992-3.3,6.708-7.422,6.708-15.872a21.667,21.667,0,0,0-21.667-21.667,21.667,21.667,0,0,0-21.667,21.667c0,8.45,3.717,12.573,6.7,15.887a15.806,15.806,0,0,1,2.862,3.833l-21.85,8.732a1.667,1.667,0,0,0-.833.722l-5.72,10a3.351,3.351,0,0,0-.243,2.754,3.35,3.35,0,0,0,1.91,2l3.833,1.533v16.745a3.316,3.316,0,0,0,2.095,3.095l32.285,12.915a1.684,1.684,0,0,0,1.24,0l32.292-12.915a3.317,3.317,0,0,0,2.1-3.095V-69.864l3.85-1.538a3.348,3.348,0,0,0,1.9-2.005,3.349,3.349,0,0,0-.253-2.753Zm-34.78,12.372-28.845-11.538,17.178-6.871v1.871a5,5,0,0,0,3.333,4.693v.307a6.667,6.667,0,0,0,6.667,6.667h3.333a6.666,6.666,0,0,0,4.714-1.953,6.666,6.666,0,0,0,1.952-4.714v-.307a5,5,0,0,0,3.333-4.693V-92.2l17.178,6.871Zm8.333-18.205v1.667a1.667,1.667,0,0,1-1.667,1.667h-13.333a1.667,1.667,0,0,1-1.667-1.667v-1.667Zm-3.333,6.667a3.333,3.333,0,0,1-3.333,3.333h-3.333a3.333,3.333,0,0,1-3.333-3.333Zm-23.333-30a18.333,18.333,0,0,1,18.333-18.333,18.333,18.333,0,0,1,18.333,18.333c0,7.167-3.1,10.617-5.845,13.655a14.21,14.21,0,0,0-3.963,6.345h-6.858v-8.333h3.333a1.667,1.667,0,0,0,1.667-1.667v-1.667a1.667,1.667,0,0,0-1.667-1.667,1.667,1.667,0,0,0-1.667,1.667h-6.667a1.667,1.667,0,0,0-1.667-1.667,1.667,1.667,0,0,0-1.667,1.667v1.667a1.667,1.667,0,0,0,1.667,1.667h3.333v8.333h-6.858a14.21,14.21,0,0,0-3.963-6.345C3470.46-104.711,3467.355-108.161,3467.355-115.327Zm-14.273,32.087,30.212,12.08-4.985,8.75c-5.27-2.113-12.01-4.807-20.483-8.193l-9.74-3.89Zm.94,14.71,2.567,1.025c8.472,3.387,15.21,6.079,20.5,8.2a3.37,3.37,0,0,0,1.223.232,3.309,3.309,0,0,0,2.877-1.69l2.833-4.958v24.6l-30-12Zm63.333,15.408-30,12v-24.6l2.833,4.953a3.315,3.315,0,0,0,4.12,1.457c5.27-2.113,12.008-4.805,20.48-8.192l2.567-1.025Zm-3.8-17.478-20.467,8.18-5-8.737,30.207-12.083,5,8.748Z" transform="translate(-3444.75 136.994)"/>
          <path id="Shape-15" data-name="Shape" d="M3492.223-32.927a1.667,1.667,0,0,0,1.667,1.667h3.333a1.667,1.667,0,0,0,1.667-1.667,1.667,1.667,0,0,0-1.667-1.667h-3.333A1.667,1.667,0,0,0,3492.223-32.927Z" transform="translate(-3482.951 54.594)"/>
          <path id="Shape-16" data-name="Shape" d="M3782.357-32.927a1.667,1.667,0,0,0,1.667,1.667h3.333a1.667,1.667,0,0,0,1.667-1.667,1.667,1.667,0,0,0-1.667-1.667h-3.333A1.667,1.667,0,0,0,3782.357-32.927Z" transform="translate(-3716.418 54.594)"/>
          <path id="Shape-17" data-name="Shape" d="M3767.741-111.193l-2.887,1.667a1.667,1.667,0,0,0-.843,1.445,1.667,1.667,0,0,0,.837,1.449,1.667,1.667,0,0,0,1.673-.007l2.887-1.667a1.666,1.666,0,0,0,.843-1.445,1.667,1.667,0,0,0-.836-1.449A1.666,1.666,0,0,0,3767.741-111.193Z" transform="translate(-3701.656 116.417)"/>
          <path id="Shape-18" data-name="Shape" d="M3516.487-106.64a1.667,1.667,0,0,0,1.673.007,1.667,1.667,0,0,0,.836-1.449,1.667,1.667,0,0,0-.843-1.445l-2.886-1.667a1.666,1.666,0,0,0-1.673-.007,1.666,1.666,0,0,0-.836,1.449,1.666,1.666,0,0,0,.843,1.445Z" transform="translate(-3499.474 116.417)"/>
        </g>
      </g>
    </g>
  </g>
</svg>
