<svg xmlns="http://www.w3.org/2000/svg" width="400" height="195" viewBox="0 0 400 195">
  <g id="t2-i2" transform="translate(-810 -512)">
    <g id="Image_Place_Holder" data-name="Image Place Holder" transform="translate(810 577)">
      <rect id="Image_Place_Holder-2" data-name="Image Place Holder" width="400" height="130" rx="10" fill="#e2fbe5"/>
    </g>
    <g id="Group_54175" data-name="Group 54175" transform="translate(646.874 499.876)">
      <path id="Path_101257" data-name="Path 101257" d="M358.435,12.3a72.444,72.444,0,0,1,65.134,31.52,72.7,72.7,0,0,1,4.077,74.884A72.523,72.523,0,1,1,358.435,12.3" transform="translate(0 0)" fill="#23bfc8"/>
      <path id="Path_101258" data-name="Path 101258" d="M464.231,258.839a7.346,7.346,0,0,0,1.948,4.861,8.524,8.524,0,0,0,.373-5.438c-.221-.6-.722-1.382-1.463-1.215a2.035,2.035,0,0,0-.857,1.792m-68.938-17.758c2.67-2.227,5.919-4.016,9.473-4.073a8.727,8.727,0,0,1,7.334,3.251,8.156,8.156,0,0,1-.387,10.568,10.526,10.526,0,0,1-5.282,2.878c-.7.206-1.426-.574-.945-1.215a24.436,24.436,0,0,0,2.429-2.57,7.392,7.392,0,0,0,1.388-4.809c-.056-1.811-.167-3.9-1.64-5.178a3.685,3.685,0,0,0-3.659-.547,14.084,14.084,0,0,0-5.775,3.975,35.4,35.4,0,0,0-6.553,10.308,29.9,29.9,0,0,0-2.558,11.833,14.371,14.371,0,0,0,3,8.888,8.156,8.156,0,0,0,5.773,3,14,14,0,0,0,7.825-2.144,18.616,18.616,0,0,0,5.527-4.337,12.068,12.068,0,0,1,9.744-12.305,8.336,8.336,0,0,1,6.162,1.182,3.626,3.626,0,0,1,.907,4.68,3.754,3.754,0,0,1-4.535,1.007c-.318-.166-.7-.5-.583-.9.335-.393.887-.489,1.267-.828a1.631,1.631,0,0,0-.189-2.291,3.481,3.481,0,0,0-2.6-.6,5.422,5.422,0,0,0-3.677,2.248,11.449,11.449,0,0,0-2.248,6.574,5.831,5.831,0,0,0,1.059,3.59,1.993,1.993,0,0,0,2.443.668,6.036,6.036,0,0,0,2.545-2.876c.481-.951.543-2.092,1.236-2.939a3.512,3.512,0,0,1,3.184-1.521,1.046,1.046,0,0,1,.818,1.19c-.137,1.55-.678,3.038-.812,4.591a1.148,1.148,0,0,0,1.043,1.18,3.131,3.131,0,0,0,1.2-.391,19.814,19.814,0,0,0,3.86-2.616.95.95,0,0,0,.406-.624c.535-2.795,1.086-5.588,1.623-8.383a3.107,3.107,0,0,1,1.332-2.2,4.575,4.575,0,0,1,2.812-.506c.747.183.9,1.057.753,1.7q-.384,1.963-.889,3.9a19.71,19.71,0,0,1,5.931-5,6.689,6.689,0,0,1,3.6-.943,1.764,1.764,0,0,1,1.592,1.577,10.115,10.115,0,0,1-.889,4,76.608,76.608,0,0,0-2.091,7.871,1.336,1.336,0,0,0,.524,1.484,2.283,2.283,0,0,0,1.827-.054,12.738,12.738,0,0,0,5.444-4.191,27.594,27.594,0,0,1,.481-7.024,5.054,5.054,0,0,1,3.1-3.494c.618-.241,1.521-.343,1.935.3.339.524.071,1.157-.1,1.692a21.079,21.079,0,0,0-1.051,10.655,5.454,5.454,0,0,0,.626,2.225,24.537,24.537,0,0,0,5.413-6.277,6.4,6.4,0,0,1-2.4-3.115,9.127,9.127,0,0,1,.015-5.842,5.422,5.422,0,0,1,3.532-3.513,3.893,3.893,0,0,1,3.767.837,4.442,4.442,0,0,1,1.269,3.224,13.637,13.637,0,0,1-1.759,6.137,4.674,4.674,0,0,0,3.808-1.244c.541-.572,1.153-1.072,1.679-1.657a11.006,11.006,0,0,1,8.01-3.6,7.034,7.034,0,0,1,4.849,1.542,3.443,3.443,0,0,1-.062,5.076,3.962,3.962,0,0,1-3.946.366c-.318-.158-.708-.533-.545-.912.47-.456,1.276-.518,1.571-1.172a1.807,1.807,0,0,0-1.059-2.285,4.629,4.629,0,0,0-4.553.824,9.594,9.594,0,0,0-3.192,5.686,7.989,7.989,0,0,0,.589,5.273,2.119,2.119,0,0,0,2.381,1.159,5.578,5.578,0,0,0,2.814-2.83c.545-.974.593-2.171,1.313-3.051a3.53,3.53,0,0,1,3.147-1.575,1.11,1.11,0,0,1,.878,1.207c-.219,2.106-1.109,4.106-1.082,6.241a6.006,6.006,0,0,0,1.91,4.37.864.864,0,0,1,.108,1.357c-.637.539-1.455.05-2.073-.256a7.137,7.137,0,0,1-4.031-5.042,5.983,5.983,0,0,1-4.437,2.356,6.333,6.333,0,0,1-5.779-4.655,8.881,8.881,0,0,1,.235-5.032,6.839,6.839,0,0,1-4.474,1.013,30.7,30.7,0,0,1-6.847,7.309,6.769,6.769,0,0,1-3.313,1.365,1.429,1.429,0,0,1-1.44-.708,11.688,11.688,0,0,1-1.049-4.029,16.37,16.37,0,0,1-7.723,4.585,4,4,0,0,1-3.706-.787,4.747,4.747,0,0,1-1.134-3.7,30.752,30.752,0,0,1,2.169-8.139c.119-.474.535-1.136-.021-1.484a5.543,5.543,0,0,0-2.456,1.54,19.935,19.935,0,0,0-4.025,5.151,17.36,17.36,0,0,0-1.242,4.381,4.1,4.1,0,0,1-3.311,3.176,1.162,1.162,0,0,1-1.4-.9,10.184,10.184,0,0,1,.345-2.381A21,21,0,0,1,426,276.63a3.519,3.519,0,0,1-3.425-.639,3.829,3.829,0,0,1-.914-1.58,5.791,5.791,0,0,1-4.431,2.408,6.171,6.171,0,0,1-5.378-3.563,24.786,24.786,0,0,1-9.631,6.77,14.108,14.108,0,0,1-9.1.62,13.343,13.343,0,0,1-6.822-4.839,17.535,17.535,0,0,1-2.886-10.7,32.979,32.979,0,0,1,4.447-15.034,32.294,32.294,0,0,1,7.429-8.99" transform="translate(-73.075 -178.071)" fill="#fff"/>
    </g>
  </g>
</svg>
