<svg xmlns="http://www.w3.org/2000/svg" xmlns:xlink="http://www.w3.org/1999/xlink" width="505" height="141" viewBox="0 0 505 141">
  <defs>
    <clipPath id="clip-path">
      <rect id="Rectangle_5385" data-name="Rectangle 5385" width="505" height="141" transform="translate(285 2775)" fill="#7f7f7f"/>
    </clipPath>
  </defs>
  <g id="t2-i7" transform="translate(-810 -1944)">
    <g id="Mask_Group_44" data-name="Mask Group 44" transform="translate(525 -831)" clip-path="url(#clip-path)">
      <rect id="Rectangle_5383" data-name="Rectangle 5383" width="545" height="173" transform="translate(265 2753)" fill="#fff"/>
    </g>
    <path id="Path_101230" data-name="Path 101230" d="M298.6,46.206a8.732,8.732,0,0,0-4.614,2.4,11.481,11.481,0,0,0-2.9,8.7,10.928,10.928,0,0,0,2.981,7.382,9.226,9.226,0,0,0,9.439,1.966,9.063,9.063,0,0,0,5.241-4.947,13.24,13.24,0,0,0-.143-10.554,9,9,0,0,0-3.8-4.024,9.491,9.491,0,0,0-6.2-.925m-4.486-8.866a17.365,17.365,0,0,1,11.3,1.109,11.447,11.447,0,0,1,4.514,3.869c-.01-1.537,0-3.074,0-4.614q4.938,0,9.877,0c-.012,12.573.027,25.146-.019,37.719-3.391-.027-6.78,0-10.171-.012,0-1.49-.006-2.977,0-4.465a12,12,0,0,1-8.6,5.232,17.453,17.453,0,0,1-11.774-2.549,17.243,17.243,0,0,1-6.046-6.964,24.332,24.332,0,0,1-2.044-13.279,20.083,20.083,0,0,1,4.6-11.15,15.606,15.606,0,0,1,8.352-4.9m-54.043,8.894a8.77,8.77,0,0,0-5.406,3.445A12.116,12.116,0,0,0,232.7,58.1a10.426,10.426,0,0,0,3.226,6.8,9.212,9.212,0,0,0,8.346,2.013,8.641,8.641,0,0,0,5.292-3.772,12.772,12.772,0,0,0,1.641-8.326,10.163,10.163,0,0,0-3.519-6.838,9.255,9.255,0,0,0-7.612-1.744m-4.626-6.946a16.263,16.263,0,0,1,10.98-2.259,15.857,15.857,0,0,1,10.041,5.042,19.849,19.849,0,0,1,4.7,10.934,24.6,24.6,0,0,1-1.9,13.463,17.076,17.076,0,0,1-7.39,7.9,18.062,18.062,0,0,1-11.5,1.7,12.394,12.394,0,0,1-7.622-4.221c-.006,6.054.025,12.106-.017,18.157H222.575q-.025-26.147-.006-52.293c3.29,0,6.581.006,9.871-.006.012,1.533.014,3.066,0,4.6a10.4,10.4,0,0,1,3.008-3.01m-76.7,2.959a12.309,12.309,0,0,1,9.486-5.454A14.384,14.384,0,0,1,177.6,39a12.208,12.208,0,0,1,4.287,5.458,19.353,19.353,0,0,1,1.318,7.264q-.006,11.846,0,23.694-5.121,0-10.241,0,0-11.12,0-22.241a7.867,7.867,0,0,0-1.891-5.323,6.762,6.762,0,0,0-4.947-1.874,6.693,6.693,0,0,0-4.788,1.775,7.608,7.608,0,0,0-2.164,4.227,25.135,25.135,0,0,0-.176,4.1q0,9.667,0,19.337c-3.4-.008-6.8.021-10.2-.017.023-12.563,0-25.128.01-37.69q4.965,0,9.931,0v4.541m168.948.149a14.069,14.069,0,0,1,9.95-5.69,16.7,16.7,0,0,1,11.077,2.323,11.94,11.94,0,0,1,5.3,9.538q-4.416,0-8.83,0a4.687,4.687,0,0,0-3-3.792,6.275,6.275,0,0,0-5.994.745,3.263,3.263,0,0,0-.443,4.562c1.134,1.217,2.882,1.355,4.413,1.692,2.727.6,5.555.943,8.106,2.154a12.012,12.012,0,0,1,5.7,5.086A11.421,11.421,0,0,1,352.9,71.088a13.98,13.98,0,0,1-9.232,5.226,21.684,21.684,0,0,1-10.3-.859,13.332,13.332,0,0,1-7.221-6.017,14.541,14.541,0,0,1-1.759-5.712q4.547-.006,9.1,0a6.134,6.134,0,0,0,2.206,3.6,7.911,7.911,0,0,0,5.832,1.3,4.755,4.755,0,0,0,3.511-2.086,3.071,3.071,0,0,0-.379-3.6,7.221,7.221,0,0,0-4.039-1.763c-3.41-.811-7.041-1.227-10.039-3.19a10.451,10.451,0,0,1-4.308-5.22A11.485,11.485,0,0,1,327.689,42.4m-136.874-.352A14.272,14.272,0,0,1,201.3,36.631a16.485,16.485,0,0,1,10.254,2.379,11.905,11.905,0,0,1,5.33,9.563c-2.942-.01-5.884,0-8.824-.008a4.838,4.838,0,0,0-1.976-3.267,6.889,6.889,0,0,0-4.773-.828,4.3,4.3,0,0,0-2.934,1.874,3.2,3.2,0,0,0,.153,3.627,4.174,4.174,0,0,0,1.932,1.223c3.627.993,7.5,1.19,10.926,2.849a11.7,11.7,0,0,1,5.774,5.621,11.475,11.475,0,0,1-.828,10.606,13.084,13.084,0,0,1-7.38,5.485,21.682,21.682,0,0,1-9.9.459,14.5,14.5,0,0,1-8.528-4.624,14.1,14.1,0,0,1-3.267-7.854c3.031-.027,6.064-.008,9.1-.01a6.062,6.062,0,0,0,1.972,3.4,7.712,7.712,0,0,0,6.046,1.5,4.849,4.849,0,0,0,3.41-1.912,3.089,3.089,0,0,0-.381-3.912c-1.19-1.148-2.89-1.4-4.436-1.742-2.971-.7-6.083-1.1-8.774-2.634a10.5,10.5,0,0,1-5.39-6.794,11.47,11.47,0,0,1,2.009-9.586M0,33.374c2.688-.145,5.373.085,8.063.037,5.261.006,10.523,0,15.782.006q0,10.5,0,20.994,13.913.006,27.828,0,0-10.5,0-21,11.9-.006,23.791,0,.006,21.026,0,42.052-37.707,0-75.414,0,0-19.738,0-39.472A24.379,24.379,0,0,0,0,33.474v-.1M359.843,21.106c3.418,0,6.838-.01,10.256,0-.147,6.552-.025,13.111-.062,19.666,2.752-3.048,7.055-4.217,11.05-4.02a13.372,13.372,0,0,1,8.952,3.542,15.044,15.044,0,0,1,4.148,10.4q.012,12.358,0,24.714-5.124.019-10.243,0c-.019-6.242.091-12.482.052-18.726-.048-2.323.24-4.763-.7-6.96a5.89,5.89,0,0,0-3.815-3.426,7.992,7.992,0,0,0-5.539.352,6.917,6.917,0,0,0-3.478,4.227,10.9,10.9,0,0,0-.437,3.753q.006,10.393,0,20.785c-3.41.006-6.819-.01-10.229.008-.029-11.069,0-22.136-.014-33.2.108-7.037.029-14.075.052-21.112m-93.774,0c3.416.006,6.832-.01,10.248.008q-.019,27.152-.006,54.3c-3.213.006-6.426-.01-9.637.008-.209-.048-.712.124-.6-.279q-.012-27.019,0-54.039m-166.916,0c3.534-.006,7.066,0,10.6,0q.022,17.171.006,34.347A11.288,11.288,0,0,0,128.88,63.1a11.341,11.341,0,0,0,2.965-7.866q0-17.063,0-34.126c3.538,0,7.074-.012,10.612.006q-.019,16.756,0,33.509a22.837,22.837,0,0,1-3.054,12.13,19.761,19.761,0,0,1-9.186,8.017A24.466,24.466,0,0,1,117.2,76.4,20.481,20.481,0,0,1,99.151,55.457q.009-17.174,0-34.351M23.843,0h27.8a19.476,19.476,0,0,1,.081,2.692V21.155H23.793q0-9.137,0-18.271c-.006-.96-.017-1.924.05-2.884" transform="translate(865 1970)"/>
  </g>
</svg>
