<svg xmlns="http://www.w3.org/2000/svg" xmlns:xlink="http://www.w3.org/1999/xlink" width="400" height="141" viewBox="0 0 400 141">
  <defs>
    <clipPath id="clip-path">
      <rect id="Rectangle_5611" data-name="Rectangle 5611" width="400" height="141" transform="translate(285 2775)" fill="#7f7f7f"/>
    </clipPath>
  </defs>
  <g id="t3-i3" transform="translate(-600 -1294)">
    <g id="Mask_Group_52" data-name="Mask Group 52" transform="translate(315 -1481)" clip-path="url(#clip-path)">
      <rect id="Rectangle_5610" data-name="Rectangle 5610" width="426.931" height="159" transform="translate(274.703 2767)" fill="#1f67cd"/>
    </g>
    <path id="Path_101292" data-name="Path 101292" d="M169.058,272.62c1.106-.017,2.217-.075,3.321.013.052.073.156.219.206.292.2,1.454.017,2.934.194,4.39.142,1.038.031,2.094.2,3.13a9.174,9.174,0,0,1,.075,1.588q-2.21.006-4.419,0c-.071-1.738.229-3.461.19-5.2a34.654,34.654,0,0,0,.231-4.211m-7.38-.9c.083-.042.25-.125.333-.165,1.027.1,2.015.454,3.048.538-.108,1.438-.45,2.844-.59,4.28-.4,1.607-.442,3.276-.817,4.884a38.041,38.041,0,0,1-4.069-.779c-.033-.081-.1-.242-.133-.321.69-2.825,1.594-5.6,2.227-8.437m14.938.373a28.267,28.267,0,0,0,3.3-.65c.708,3,1.529,5.966,2.334,8.939-1.392.352-2.8.671-4.215.9-.636-2.719-.879-5.509-1.4-8.247a3.494,3.494,0,0,1-.01-.944m7.251-1.89c.963-.483,1.975-.854,2.938-1.338,1.456,2.7,2.869,5.422,4.2,8.187a29.6,29.6,0,0,1-3.988,1.7c-1.144-2.759-2.082-5.6-3.167-8.378l.017-.167M150.7,277.044c1.334-2.763,2.7-5.515,4.159-8.216a27.65,27.65,0,0,0,3.011,1.352c-.986,2.886-2.165,5.709-3.2,8.581a19.254,19.254,0,0,1-3.969-1.717m39.684-10.25c.85-.661,1.734-1.277,2.623-1.884,1.99,2.152,3.655,4.59,5.645,6.745.163.127.206.45,0,.556-1.088.7-2.107,1.5-3.157,2.25a4.582,4.582,0,0,1-.725-.844c-1.477-2.265-2.907-4.559-4.386-6.824m-43.993.7c.8-.852,1.423-1.846,2.242-2.673.786.788,1.794,1.286,2.64,2-1.175,1.965-2.471,3.853-3.736,5.759a8.721,8.721,0,0,1-1.354,1.892c-1.123-.844-2.282-1.634-3.413-2.463,1.177-1.531,2.457-2.978,3.621-4.515m49.812-5.413a17.442,17.442,0,0,1,2.236-2.467c2.244,2.025,4.728,3.765,7,5.757a27.81,27.81,0,0,1-2.857,3.188c-2.055-1.836-3.9-3.892-5.888-5.8-.158-.223-.511-.385-.492-.681m-57.168.952c1.4-1.163,2.813-2.3,4.194-3.48a20.683,20.683,0,0,0,2.425,2.555c-2.136,1.838-4.067,3.892-6.066,5.874a8.137,8.137,0,0,1-.683.571c-.783-1.165-1.965-1.99-2.7-3.182a35.091,35.091,0,0,1,2.834-2.338m63.385-9.624c2.2.934,4.259,2.18,6.407,3.23a15.224,15.224,0,0,1,1.8.977c-.8,1.154-1.254,2.552-2.209,3.6-1.3-.64-2.421-1.59-3.655-2.342-1.315-.846-2.673-1.629-3.93-2.555v-.263c.552-.865,1.111-1.729,1.581-2.644m-71.384,4.211c2.634-1.529,5.415-2.784,8.087-4.242.711.873,1.123,1.944,1.757,2.873-2.538,1.713-5.155,3.317-7.712,5-.8-1.159-1.434-2.417-2.132-3.636m1.975-10.243a32.787,32.787,0,0,1,3.557-.842c.325,1.048.686,2.086,1,3.136-2.9,1.059-5.778,2.188-8.681,3.238-.333-1.406-1.127-2.728-1.144-4.188,1.779-.35,3.5-.948,5.265-1.344m72.1-.95c2.973.669,5.874,1.627,8.851,2.277a15.356,15.356,0,0,1-1.3,4.211c-2.859-1.052-5.688-2.179-8.533-3.269.248-1.1.708-2.132.986-3.219m1.1-7.047c.046-.4.51-.3.786-.321,2.873-.013,5.724.363,8.593.438-.225,1.417-.129,2.863-.467,4.263a12.206,12.206,0,0,1-2.882-.281c-2.082-.4-4.2-.592-6.27-1.017.206-1.017.092-2.061.24-3.082m-73.318-.2a14.582,14.582,0,0,1,2.45-.079,20.9,20.9,0,0,1,.252,3.38c-1.69.09-3.323.583-5.007.725a22.215,22.215,0,0,1-4.047.556,6.291,6.291,0,0,0-.533-2.4,9.084,9.084,0,0,1-.033-1.844c1.252-.092,2.517.042,3.761-.148,1.048-.144,2.111-.029,3.157-.185m-6.351-8.864a5.484,5.484,0,0,1,1.267.023c2.6.456,5.218.771,7.808,1.269.094,1.14-.273,2.244-.267,3.382-1.752.1-3.484-.248-5.236-.21a40.388,40.388,0,0,0-4.14-.2c.029-.756-.206-1.592.235-2.269a10.659,10.659,0,0,0,.333-1.994m83.193.669c1.792-.146,3.532-.694,5.332-.758a37.632,37.632,0,0,1,.5,4.351c-.852.052-1.709.012-2.553.138-1.106.146-2.23.038-3.334.2a21.623,21.623,0,0,1-3.265.06c-.31-.16-.246-.565-.279-.85a15.213,15.213,0,0,0-.2-2.5c1.261-.246,2.536-.388,3.794-.644m106.828-2.109c1.861-.008,3.732-.1,5.59.046-.021,6.457,0,12.915-.008,19.372a14.958,14.958,0,0,1-.083,4.026c-1.834.027-3.667.038-5.5-.006q-.081-11.717,0-23.437m-23.141,0c5.932-.029,11.869-.048,17.8.008-.625,1.165-1.177,2.365-1.765,3.548q-2.8,5.216-5.578,10.445c-.7,1.058-1.223,2.223-1.875,3.313a3.742,3.742,0,0,0-.4.99c2.915.079,5.832,0,8.747.04.288.008.733.048.675.461.031,1.542.019,3.086-.006,4.63q-9.139.069-18.282.006a38.943,38.943,0,0,1,2.055-4.2c2.438-4.494,4.772-9.047,7.259-13.511.069-.2.127-.408.175-.615-2.938-.052-5.874.013-8.81-.035q-.063-2.541,0-5.08m-15.984,5.67a6.763,6.763,0,0,0-1.827,4.524,31.537,31.537,0,0,0,3.48-.346c1.727-.35,3.607-.708,4.911-1.992a2.205,2.205,0,0,0-.554-3.186,4.779,4.779,0,0,0-2.68-.586,4.968,4.968,0,0,0-3.33,1.586m-4.874-2.365a10.252,10.252,0,0,1,8.206-3.974,9.911,9.911,0,0,1,5.726,1.411c3.246,1.642,4.08,6.393,1.927,9.224-1.548,2.309-4.278,3.442-6.9,4.015a19.041,19.041,0,0,1-5.559.513c-.348.861.2,1.686.65,2.388a4.453,4.453,0,0,0,2.2,1.932,6.717,6.717,0,0,0,5.995-.979c.444-.327.89-.65,1.352-.948a20.081,20.081,0,0,1,3.013,2.982,9.272,9.272,0,0,1-5.845,3.936,14.017,14.017,0,0,1-4.6.285,9.688,9.688,0,0,1-6.7-4.244,16.4,16.4,0,0,1-2.215-8.343,13.749,13.749,0,0,1,2.74-8.2m-21.478-1.165c1.423-1.054,2.982-1.9,4.486-2.834a6.812,6.812,0,0,1,2.694,3.042.5.5,0,0,0,.829.19,12.773,12.773,0,0,1,5.263-3.128,4.88,4.88,0,0,1,1.634-.06,21.222,21.222,0,0,1,.658,3,17.668,17.668,0,0,1,.36,2.784c-2.457,0-4.565,1.6-6.132,3.353-.556.511-.433,1.3-.452,1.973-.044,4.328.021,8.658-.029,12.985-1.817.05-3.638.085-5.451-.015-.331-.275-.244-.767-.292-1.148-.04-3.938-.027-7.878.01-11.819a9.131,9.131,0,0,0-.773-4.553,17.382,17.382,0,0,0-2.807-3.767m-67.949-3.38a13.8,13.8,0,0,1,2.911,6.443,19.339,19.339,0,0,1,.215,4.822,14.525,14.525,0,0,1-3.134,7.551c-.027-6.272-.044-12.546.008-18.816m-25.294.861a2.372,2.372,0,0,1,.731-.848c.015,6.255-.021,12.51.015,18.763-4.161-4.93-4.234-12.6-.746-17.915m18.374-3.746a9.724,9.724,0,0,1,.1-2.257,13.561,13.561,0,0,1,2.884,1.492c.371.258.288.773.321,1.167.029,7.926,0,15.85.017,23.775a2.2,2.2,0,0,1-.181,1.1,13.886,13.886,0,0,1-3.042,1.544,4.278,4.278,0,0,1-.106-.777q.016-13.024,0-26.046m-13.75-.79a12.041,12.041,0,0,1,2.919-1.461c.315,1.488.017,3.03.144,4.538q.031,12.221-.013,24.444a9.169,9.169,0,0,1-2.925-1.284c-.431-.16-.427-.673-.433-1.056q.009-12.1.008-24.2c.021-.338-.044-.783.3-.986m72.383,2.984c-.048,3.6-.054,7.2.008,10.8a9.256,9.256,0,0,0,5.876-1.142,4.86,4.86,0,0,0,2.136-3.5,5.681,5.681,0,0,0-1.986-4.928c-1.679-1.373-3.988-1.3-6.034-1.221m-5.909-5.272a50.007,50.007,0,0,1,5.361-.146,21.522,21.522,0,0,1,5.255.317,12.036,12.036,0,0,1,4,1.586,13.3,13.3,0,0,1,2.823,2.161,10.534,10.534,0,0,1,2.423,5.14,9.493,9.493,0,0,1-2.413,8.18,13.079,13.079,0,0,1-10.216,4.032c-.448,0-.894.017-1.34.048-.083,3.107.04,6.218-.054,9.324-1.821.029-3.642.044-5.461,0-.381.046-.442-.419-.433-.69,0-9.1.015-18.2-.021-27.3a21.811,21.811,0,0,1,.079-2.661m-59.672-.048a18.819,18.819,0,0,1,3.2-.01c.1,8.822.015,17.649.042,26.473-.021,1.456.046,2.915-.04,4.369a14.92,14.92,0,0,1-3.2-.025c-.123-3.18-.017-6.37-.052-9.554V224.116a22.731,22.731,0,0,1,.052-2.5m34.945,2.73c2.828-1.042,5.632-2.144,8.437-3.248a18.662,18.662,0,0,1,1.3,4.259q-4.451,1.056-8.851,2.317a24.061,24.061,0,0,1-.888-3.328m-75.333-3.132c2.961.883,5.747,2.261,8.691,3.2-.3,1.1-.765,2.138-1.025,3.244-2.95-.688-5.824-1.69-8.791-2.3a2.6,2.6,0,0,1,.1-.967c.348-1.059.667-2.127,1.029-3.18m189.472-3a3.587,3.587,0,0,1,4.469,3.986,4.405,4.405,0,0,1-1.607,2.127,3.585,3.585,0,0,1-2.709.452,3.415,3.415,0,0,1-.154-6.566m-150.224.181a18.851,18.851,0,0,0-15.767,22.454,18.844,18.844,0,0,0,12.283,13.969,21.106,21.106,0,0,0,8.614.906,19.208,19.208,0,0,0,13.915-9.354,17.084,17.084,0,0,0,2.242-7.3,18,18,0,0,0-2.282-11.325,19.279,19.279,0,0,0-9.174-8.124,19.652,19.652,0,0,0-9.831-1.225m-.2-2.471a21.245,21.245,0,0,1,13.967,2.888,23.524,23.524,0,0,1,7.247,7.335,21.56,21.56,0,0,1,.148,21.52,23.008,23.008,0,0,1-9.522,8.785,20.518,20.518,0,0,1-8.393,1.9,20.9,20.9,0,0,1-9.745-2,22.531,22.531,0,0,1-8.906-7.953,19.871,19.871,0,0,1-3.165-10.527,20.951,20.951,0,0,1,18.37-21.947m32.922,1.919c2.461-1.788,5.078-3.344,7.61-5.026a29,29,0,0,1,2.125,3.6,11.507,11.507,0,0,1-2.165,1.219c-1.74.9-3.465,1.819-5.205,2.715-.252.09-.49.319-.771.256-.6-.883-1.084-1.834-1.594-2.765m-69.82-1.386a41.59,41.59,0,0,1,2.184-3.692c2.5,1.775,5.167,3.3,7.67,5.059-.636.929-1.092,1.963-1.667,2.928-2.069-.986-4.065-2.123-6.134-3.117a8.791,8.791,0,0,1-2.052-1.177m36.058-3.288a22.513,22.513,0,0,0-13.206,6.789,22.983,22.983,0,0,0-6.745,12.417,35.292,35.292,0,0,0-.408,4.453,27.436,27.436,0,0,0,.711,6.186,22.986,22.986,0,0,0,6.443,11.1,22.566,22.566,0,0,0,8.743,5.632,24.7,24.7,0,0,0,20.257-1.819,25.707,25.707,0,0,0,8.453-8.22,23.053,23.053,0,0,0,3.392-10.8,28.513,28.513,0,0,0-.135-5.4,22.888,22.888,0,0,0-3.751-9.887,25.516,25.516,0,0,0-9.4-8.31,23.855,23.855,0,0,0-8.4-2.307,34.607,34.607,0,0,0-5.951.167m.606-2.571a26.655,26.655,0,0,1,15.686,2.986A27.576,27.576,0,0,1,195.9,228.317a27.892,27.892,0,0,1-.873,19.67,26.091,26.091,0,0,1-5.547,7.778,25.337,25.337,0,0,1-14.773,7.518,27.038,27.038,0,0,1-13.715-1.519,25.84,25.84,0,0,1-9.029-6.153,24.736,24.736,0,0,1-7.055-12.6,28.707,28.707,0,0,1-.117-11.5,26.965,26.965,0,0,1,22.9-20.92m-28.771-5.061a34.653,34.653,0,0,1,2.661,2.532c1.294,1.327,2.64,2.607,3.9,3.961-.788.769-1.481,1.623-2.221,2.436-2.3-1.975-4.732-3.794-7.049-5.747.7-1.225,1.94-2,2.7-3.182m57.195,6.447c2.054-2.3,4.424-4.3,6.507-6.58,1.088.975,1.857,2.232,2.853,3.29-1.344,1.142-2.736,2.225-4.084,3.361a22.845,22.845,0,0,0-3.019,2.607,19.283,19.283,0,0,0-2.257-2.678m-28.4-4.178c-1.034.19-2.084.271-3.1.523a28.75,28.75,0,0,0-9.118,3.655,29.339,29.339,0,0,0-12.142,14.721,29.977,29.977,0,0,0-1.561,14.492,29.13,29.13,0,0,0,11.716,19.53,28.738,28.738,0,0,0,17.865,5.618,24.793,24.793,0,0,0,5.511-.606,29.438,29.438,0,0,0,23.231-29.749,29.527,29.527,0,0,0-11.143-21.979,29.179,29.179,0,0,0-13.038-5.909,35.208,35.208,0,0,0-8.218-.3m-.231-2.4a44.966,44.966,0,0,1,5.559-.106,33.952,33.952,0,0,1,9.806,2.359,32.165,32.165,0,0,1,14.213,11.614,27.247,27.247,0,0,1,2.344,4.144,33.174,33.174,0,0,1,2.823,8.845c.171,1.727.371,3.457.413,5.195a44.691,44.691,0,0,1-.756,6.093,32.3,32.3,0,0,1-8.272,15.488,31.963,31.963,0,0,1-20.993,9.745,35.31,35.31,0,0,1-5.653-.2,31.948,31.948,0,0,1-27.561-26.934,33.193,33.193,0,0,1-.315-3.58c-.142-1.392.154-2.773.115-4.165a33.235,33.235,0,0,1,1.538-7.043,37.758,37.758,0,0,1,3.1-6.505,31.334,31.334,0,0,1,16.7-13.369,31.752,31.752,0,0,1,6.941-1.581m22.91,1.867c1.594-2.6,3.265-5.147,4.93-7.7,1.275.713,2.352,1.719,3.58,2.5-1.209,1.619-2.6,3.09-3.8,4.709-.731.761-1.319,1.644-2.082,2.375-.894-.6-1.775-1.225-2.623-1.89m-44.307-7.614c.229-.25.381.146.5.294,1.546,2.457,3.13,4.886,4.717,7.316-.844.717-1.838,1.231-2.665,1.971-1.309-1.377-2.4-2.95-3.615-4.4-.794-.883-1.5-1.844-2.238-2.769,1.083-.825,2.234-1.559,3.3-2.407m40.952-4.353a41.578,41.578,0,0,1,3.865,1.632,2.813,2.813,0,0,1-.371,1.088c-.877,1.636-1.659,3.319-2.557,4.942A11,11,0,0,1,186.8,205.2c-.963-.467-1.992-.8-2.919-1.336l-.083-.156c1.052-2.809,2.175-5.593,3.244-8.4M150.7,197.024a27.144,27.144,0,0,1,3.809-1.713l.231.215q1.6,4.079,3.125,8.2l-.065.15c-.946.481-1.954.838-2.9,1.321-1.417-2.713-2.867-5.413-4.2-8.168m27.321-4.232a24.531,24.531,0,0,1,4.211.9c-.75,2.986-1.575,5.949-2.317,8.935-1.094-.25-2.194-.473-3.3-.661a8.843,8.843,0,0,1,.256-2.075c.154-1.59.546-3.146.688-4.738a18.977,18.977,0,0,1,.463-2.361m-18.6.906c1.192-.354,2.425-.531,3.621-.865.438-.175.654.269.681.629.5,2.715.879,5.449,1.363,8.168.108.456-.523.388-.8.463a19.309,19.309,0,0,1-2.471.388l-.2-.308c-.654-2.844-1.6-5.62-2.2-8.474m9.231-1.663c1.465,0,2.93,0,4.394,0q-.138,2.594-.344,5.188c-.029,1.181-.008,2.365-.077,3.544-.019.273-.054.731-.442.681-1.048.054-2.1.012-3.142,0a30.134,30.134,0,0,0-.119-3.246c-.206-1.377-.046-2.78-.21-4.161a13.5,13.5,0,0,1-.06-2.011" transform="translate(576.067 1127.965)" fill="#fefffe"/>
  </g>
</svg>
