<svg xmlns="http://www.w3.org/2000/svg" xmlns:xlink="http://www.w3.org/1999/xlink" width="400" height="141" viewBox="0 0 400 141">
  <defs>
    <clipPath id="clip-path">
      <rect id="Rectangle_5607" data-name="Rectangle 5607" width="400" height="141" transform="translate(285 2775)" fill="#23bfc8"/>
    </clipPath>
  </defs>
  <g id="t3-i2" transform="translate(-180 -1294)">
    <g id="Mask_Group_51" data-name="Mask Group 51" transform="translate(-105 -1481)" clip-path="url(#clip-path)">
      <rect id="Rectangle_5606" data-name="Rectangle 5606" width="426.931" height="159" transform="translate(274.703 2767)" fill="#23bfc8"/>
    </g>
    <path id="Path_101258" data-name="Path 101258" d="M539,279.05a14.141,14.141,0,0,0,3.75,9.359c1.138-3.325,1.875-7.047.717-10.468-.425-1.158-1.39-2.66-2.817-2.34-1.254.641-1.562,2.167-1.651,3.449M406.291,244.864c5.14-4.287,11.394-7.732,18.237-7.84a16.8,16.8,0,0,1,14.118,6.258c4.639,5.761,4.6,15.036-.745,20.344a20.265,20.265,0,0,1-10.168,5.541c-1.35.4-2.744-1.106-1.819-2.34,1.51-1.687,3.405-3.037,4.675-4.948a14.231,14.231,0,0,0,2.672-9.259c-.108-3.485-.321-7.508-3.157-9.968-1.887-1.771-4.7-1.8-7.043-1.054-4.383,1.35-7.989,4.4-11.118,7.652a68.15,68.15,0,0,0-12.616,19.843c-3.009,7.2-5.028,14.936-4.924,22.78.12,6.094,1.843,12.351,5.777,17.111a15.7,15.7,0,0,0,11.113,5.769c5.316.341,10.525-1.482,15.064-4.126A35.84,35.84,0,0,0,437,302.278c-.653-11,7.772-21.975,18.758-23.689,4.018-.517,8.525-.281,11.863,2.275a6.98,6.98,0,0,1,1.747,9.01c-1.923,2.668-5.845,3.289-8.73,1.939-.613-.32-1.346-.965-1.122-1.735.645-.757,1.707-.941,2.44-1.594a3.14,3.14,0,0,0-.365-4.411,6.7,6.7,0,0,0-5-1.158,10.439,10.439,0,0,0-7.079,4.327,22.04,22.04,0,0,0-4.327,12.656,11.225,11.225,0,0,0,2.039,6.911,3.836,3.836,0,0,0,4.7,1.286,11.619,11.619,0,0,0,4.9-5.537c.925-1.831,1.046-4.026,2.38-5.657,1.434-1.819,3.714-3.345,6.13-2.929a2.014,2.014,0,0,1,1.574,2.292c-.264,2.985-1.306,5.849-1.562,8.838a2.209,2.209,0,0,0,2.007,2.272,6.028,6.028,0,0,0,2.3-.753,38.146,38.146,0,0,0,7.432-5.036,1.828,1.828,0,0,0,.781-1.2c1.03-5.381,2.091-10.757,3.125-16.137a5.981,5.981,0,0,1,2.564-4.239,8.808,8.808,0,0,1,5.412-.974c1.438.353,1.731,2.035,1.45,3.281q-.739,3.78-1.711,7.512a37.943,37.943,0,0,1,11.418-9.619c2.139-1.074,4.487-2.063,6.935-1.815a3.4,3.4,0,0,1,3.065,3.037c.228,2.684-.881,5.208-1.711,7.7a147.472,147.472,0,0,0-4.026,15.152,2.572,2.572,0,0,0,1.01,2.856,4.395,4.395,0,0,0,3.518-.1,24.523,24.523,0,0,0,10.48-8.069,53.123,53.123,0,0,1,.925-13.521,9.73,9.73,0,0,1,5.97-6.727c1.19-.465,2.929-.661,3.726.581.653,1.01.136,2.228-.184,3.257-2.256,6.55-3.3,13.641-2.023,20.512.272,1.45.328,3.029,1.206,4.283,4.307-3.2,7.46-7.672,10.42-12.083a12.317,12.317,0,0,1-4.623-6,17.571,17.571,0,0,1,.028-11.246,10.437,10.437,0,0,1,6.8-6.763,7.494,7.494,0,0,1,7.251,1.61,8.551,8.551,0,0,1,2.444,6.206c.1,4.183-1.6,8.121-3.385,11.815a9,9,0,0,0,7.332-2.4c1.042-1.1,2.219-2.063,3.233-3.189a21.188,21.188,0,0,1,15.42-6.935c3.289-.008,6.843.665,9.335,2.969,2.676,2.468,2.933,7.5-.12,9.771a7.628,7.628,0,0,1-7.6.705c-.613-.3-1.362-1.026-1.05-1.755.906-.877,2.456-1,3.025-2.256a3.478,3.478,0,0,0-2.039-4.4,8.912,8.912,0,0,0-8.766,1.586,18.469,18.469,0,0,0-6.146,10.945c-.6,3.377-.569,7.083,1.134,10.152.853,1.582,2.752,2.824,4.583,2.231,2.508-.9,4.211-3.173,5.417-5.449,1.05-1.875,1.142-4.179,2.528-5.873,1.41-1.823,3.646-3.405,6.057-3.033A2.138,2.138,0,0,1,582,296.289c-.421,4.054-2.135,7.9-2.083,12.015a11.562,11.562,0,0,0,3.678,8.413,1.664,1.664,0,0,1,.208,2.612c-1.226,1.038-2.8.1-3.99-.493a13.739,13.739,0,0,1-7.76-9.707c-2.115,2.532-5.144,4.535-8.541,4.535-5.172-.04-9.768-4.078-11.126-8.962a17.1,17.1,0,0,1,.453-9.687,13.166,13.166,0,0,1-8.614,1.951c-3.758,5.22-7.9,10.312-13.181,14.07a13.031,13.031,0,0,1-6.378,2.628,2.752,2.752,0,0,1-2.772-1.362,22.5,22.5,0,0,1-2.019-7.756A31.514,31.514,0,0,1,505,313.372a7.7,7.7,0,0,1-7.135-1.514c-1.871-1.831-2.324-4.623-2.183-7.131.473-5.425,2.26-10.609,4.175-15.669.228-.913,1.03-2.187-.04-2.857-1.895.316-3.309,1.779-4.727,2.965a38.378,38.378,0,0,0-7.748,9.916c-1.434,2.6-1.691,5.6-2.392,8.433a7.9,7.9,0,0,1-6.374,6.114,2.237,2.237,0,0,1-2.7-1.739,19.6,19.6,0,0,1,.665-4.583,40.424,40.424,0,0,1-11.13,5.993,6.774,6.774,0,0,1-6.594-1.23,7.372,7.372,0,0,1-1.759-3.041,11.148,11.148,0,0,1-8.529,4.635c-4.439.052-8.433-2.977-10.352-6.859a47.716,47.716,0,0,1-18.541,13.033c-5.533,2.091-11.779,2.985-17.516,1.194a25.686,25.686,0,0,1-13.133-9.315c-4.211-5.945-5.789-13.409-5.557-20.6a63.488,63.488,0,0,1,8.561-28.942,62.169,62.169,0,0,1,14.3-17.307" transform="translate(-104.405 1085.008)" fill="#fff"/>
  </g>
</svg>
