<svg xmlns="http://www.w3.org/2000/svg" width="81" height="81" viewBox="0 0 81 81">
  <g id="t4-i6" transform="translate(-5115.163 476.971)">
    <circle id="Ellipse_4175" data-name="Ellipse 4175" cx="40.5" cy="40.5" r="40.5" transform="translate(5115.163 -476.971)" fill="#ffc94a"/>
    <rect id="Rectangle_6240" data-name="Rectangle 6240" width="5.264" height="13.293" transform="translate(5152.816 -416.93)" fill="#f5f5f5"/>
    <rect id="Rectangle_6241" data-name="Rectangle 6241" width="2.821" height="13.293" transform="translate(5152.816 -416.93)" fill="#cfd8dc"/>
    <path id="Path_103143" data-name="Path 103143" d="M5278.308-3.693v-6.815a1.937,1.937,0,0,1,1.937-1.937H5307.7a1.937,1.937,0,0,1,1.937,1.937v6.815a.866.866,0,0,1-.866.866h-29.6A.865.865,0,0,1,5278.308-3.693Z" transform="translate(-138.523 -394.201)" fill="#f5f5f5"/>
    <path id="Path_103144" data-name="Path 103144" d="M5286.222-12.445h-6a1.938,1.938,0,0,0-1.914,1.936v6.815a.865.865,0,0,0,.866.866h5.111v-7.681A1.938,1.938,0,0,1,5286.222-12.445Z" transform="translate(-138.523 -394.201)" fill="#cfd8dc"/>
    <path id="Path_103145" data-name="Path 103145" d="M5307.072-193.793a12.461,12.461,0,0,1-8.406-3.257,12.468,12.468,0,0,1-4.028-7.986l-.133-1.329h26.438l-.133,1.329a12.468,12.468,0,0,1-4.028,7.986,12.461,12.461,0,0,1-8.406,3.257Z" transform="translate(-152.275 -229.548)" fill="#80ed99"/>
    <path id="Path_103146" data-name="Path 103146" d="M5299.848-206.369h-4.838a.3.3,0,0,0-.3.327l.1,1c.016.158.036.315.058.472.009.071.021.142.031.212s.021.125.032.187q.051.3.116.588h0a12.484,12.484,0,0,0,3.79,6.526,12.461,12.461,0,0,0,8.406,3.257h1.323a.3.3,0,0,0,.088-.58,12.47,12.47,0,0,1-4.651-2.677,12.522,12.522,0,0,1-2.527-3.195,2.238,2.238,0,0,1,1.948-3.331h17.078a.3.3,0,0,0,.292-.236,12.315,12.315,0,0,0,.188-1.224l.1-1a.3.3,0,0,0-.3-.327h-20.942Z" transform="translate(-152.452 -229.544)" fill="#57cc99"/>
    <path id="Path_103147" data-name="Path 103147" d="M5371.245-179.575a1.841,1.841,0,0,1-1.839-1.839,1.842,1.842,0,0,1,1.839-1.839,1.841,1.841,0,0,1,1.839,1.839A1.841,1.841,0,0,1,5371.245-179.575Z" transform="translate(-215.872 -249.171)" fill="#fb6459"/>
    <path id="Path_103148" data-name="Path 103148" d="M5294.973-351.352v-9.733a13.163,13.163,0,0,1,13.148-13.148,13.163,13.163,0,0,1,13.148,13.148v9.733Z" transform="translate(-152.673 -87.014)" fill="#c7f9cc"/>
    <path id="Path_103149" data-name="Path 103149" d="M5307.873-374.221l-.153,0a13.433,13.433,0,0,0-12.747,13.328v9.54a.007.007,0,0,0,.007.007h5.152a.007.007,0,0,0,.007-.007v-9.726a13.167,13.167,0,0,1,7.965-12.083A.555.555,0,0,0,5307.873-374.221Z" transform="translate(-152.672 -87.025)" fill="#80ed99"/>
    <path id="Path_103150" data-name="Path 103150" d="M5280.517-230.214a2.211,2.211,0,0,1-2.208-2.208,2.211,2.211,0,0,1,2.208-2.208h26.91a2.211,2.211,0,0,1,2.208,2.208,2.211,2.211,0,0,1-2.208,2.208Z" transform="translate(-138.523 -205.548)" fill="#ff9750"/>
    <path id="Path_103151" data-name="Path 103151" d="M5283.475-232.423a2.211,2.211,0,0,1,2.208-2.208h-5.167a2.211,2.211,0,0,0-2.208,2.208,2.211,2.211,0,0,0,2.208,2.208h5.167A2.211,2.211,0,0,1,5283.475-232.423Z" transform="translate(-138.523 -205.548)" fill="#f97923"/>
    <g id="Group_54826" data-name="Group 54826" transform="translate(5149.375 -455.305)">
      <path id="Path_103152" data-name="Path 103152" d="M5394.263-332.444l-1.573,1.573a.491.491,0,0,1-.695,0l-1.573-1.573a.492.492,0,0,1,0-.7l1.573-1.573a.491.491,0,0,1,.695,0l1.573,1.573A.492.492,0,0,1,5394.263-332.444Z" transform="translate(-5382.969 334.856)" fill="#80ed99"/>
      <path id="Path_103153" data-name="Path 103153" d="M5422.763-303.944l-1.573,1.573a.492.492,0,0,1-.7,0l-1.573-1.573a.492.492,0,0,1,0-.7l1.573-1.573a.492.492,0,0,1,.7,0l1.573,1.573A.492.492,0,0,1,5422.763-303.944Z" transform="translate(-5407.168 310.657)" fill="#80ed99"/>
      <path id="Path_103154" data-name="Path 103154" d="M5392.1-273.283l-1.573,1.573a.491.491,0,0,1-.695,0l-1.573-1.573a.492.492,0,0,1,0-.7l1.573-1.573a.491.491,0,0,1,.695,0l1.573,1.573A.492.492,0,0,1,5392.1-273.283Z" transform="translate(-5381.135 284.624)" fill="#80ed99"/>
      <path id="Path_103155" data-name="Path 103155" d="M5345.739-313.58l-1.452,1.452a.577.577,0,0,1-.816,0l-1.453-1.452a.578.578,0,0,1,0-.816l1.453-1.452a.577.577,0,0,1,.816,0l1.452,1.452A.578.578,0,0,1,5345.739-313.58Z" transform="translate(-5341.849 318.861)" fill="#80ed99"/>
    </g>
    <path id="Path_103156" data-name="Path 103156" d="M5429.845-396.373a1.133,1.133,0,0,0,1.133,1.133,1.133,1.133,0,0,0,1.133-1.133,12.534,12.534,0,0,0-12.52-12.52,1.133,1.133,0,0,0-1.133,1.133,1.133,1.133,0,0,0,1.133,1.133A10.266,10.266,0,0,1,5429.845-396.373Z" transform="translate(-257.522 -57.585)" fill="#143145"/>
    <path id="Path_103157" data-name="Path 103157" d="M5419.591-453.715a1.133,1.133,0,0,0-1.133,1.133,1.133,1.133,0,0,0,1.133,1.133,17.038,17.038,0,0,1,17.019,17.019,1.133,1.133,0,0,0,1.133,1.133,1.133,1.133,0,0,0,1.133-1.133A19.307,19.307,0,0,0,5419.591-453.715Z" transform="translate(-257.522 -19.528)" fill="#143145"/>
    <path id="Path_103158" data-name="Path 103158" d="M5260.206-317.172h-8.4v-6.472a2.994,2.994,0,0,0-2.994-2.994h-10.037v-8.352a20.492,20.492,0,0,0,16.77-20.125v-1.79a1.133,1.133,0,0,0-1.133-1.133H5251.6a3.279,3.279,0,0,0-2.312-2.045v-2.941a1.133,1.133,0,0,0-1.133-1.133h0a1.133,1.133,0,0,0-1.132,1.133v2.853h-23.88v-6.716a12.1,12.1,0,0,1,11.94-12.087,11.958,11.958,0,0,1,11.7,9.578,1.132,1.132,0,0,0,1.109.912h0a1.132,1.132,0,0,0,1.113-1.348,14.23,14.23,0,0,0-13.858-11.406,14.386,14.386,0,0,0-14.276,14.384v6.773a3.278,3.278,0,0,0-2.312,2.045h-2.809a1.133,1.133,0,0,0-1.133,1.133v1.79a20.492,20.492,0,0,0,16.77,20.125v8.352h-10.037a2.994,2.994,0,0,0-2.994,2.994v6.473h-8.229a1.164,1.164,0,0,0-1.18,1.1,1.133,1.133,0,0,0,1.132,1.168h50.167a1.133,1.133,0,0,0,1.132-1.168A1.165,1.165,0,0,0,5260.206-317.172Zm-38.577-40.733h26.91a1,1,0,0,1,1,1,1,1,0,0,1-1,1h-26.91a1,1,0,0,1-1-1A1,1,0,0,1,5221.629-357.905Zm25.338,4.265a11.3,11.3,0,0,1-11.232,10.156h-1.3A11.3,11.3,0,0,1,5223.2-353.64Zm-30.077-1.476v-.657h1.675a3.278,3.278,0,0,0,2.353,2.054,13.572,13.572,0,0,0,13.513,12.5h1.3a13.572,13.572,0,0,0,13.513-12.5,3.278,3.278,0,0,0,2.353-2.054h1.676v.657a18.214,18.214,0,0,1-18.194,18.193A18.214,18.214,0,0,1,5216.891-355.116Zm19.617,20.459v8.018h-2.848v-8.018Zm13.031,17.484h-28.91v-6.472a.729.729,0,0,1,.729-.728h27.453a.729.729,0,0,1,.729.728v6.472Z" transform="translate(-79.636 -81.065)" fill="#143145"/>
  </g>
</svg>
