<svg xmlns="http://www.w3.org/2000/svg" xmlns:xlink="http://www.w3.org/1999/xlink" width="505" height="141" viewBox="0 0 505 141">
  <defs>
    <clipPath id="clip-path">
      <rect id="Rectangle_5639" data-name="Rectangle 5639" width="505" height="141" transform="translate(285 2775)" fill="#7f7f7f"/>
    </clipPath>
  </defs>
  <g id="t4-i2" transform="translate(-284 -1027)">
    <g id="Mask_Group_58" data-name="Mask Group 58" transform="translate(-1 -1748)" clip-path="url(#clip-path)">
      <rect id="Rectangle_5638" data-name="Rectangle 5638" width="539" height="159" transform="translate(272 2767)" fill="#fff"/>
    </g>
    <g id="Group_54211" data-name="Group 54211" transform="translate(167.42 835.526)">
      <path id="Path_101311" data-name="Path 101311" d="M1201.62,243.349q10.711-.006,21.422,0-.005,1.62,0,3.247-.005,1.529.008,3.066a11.242,11.242,0,0,1-1.486,6.5,11.053,11.053,0,0,1-5.591,4.545,12.061,12.061,0,0,1-6.129.335,10.916,10.916,0,0,1-7.3-5.941,12.024,12.024,0,0,1-.929-5.444c.007-1.016.011-2.035.011-3.051q-.011-1.625-.008-3.251m1.708-11.11a10.964,10.964,0,0,1,13.71-3.717,10.4,10.4,0,0,1,5.933,8.179,41.163,41.163,0,0,1,.015,4.962c-7.118-.056-14.233-.011-21.351-.019-.064-3.187-.275-6.678,1.693-9.406" transform="translate(-656.215 0)" fill="#647e61"/>
      <path id="Path_101312" data-name="Path 101312" d="M449.443,265.49c2.592.008,5.184,0,7.78,0q-.011,10.079,0,20.155a9.04,9.04,0,0,0,3,7.039,8.719,8.719,0,0,0,9.41,1.275,8.94,8.94,0,0,0,4.951-7.957c.026-6.84,0-13.68.011-20.52,2.6.023,5.192-.015,7.788.023q-.011,10.062,0,20.128a18.088,18.088,0,0,1-1.923,8.582,16.01,16.01,0,0,1-11.987,8.153,16.882,16.882,0,0,1-15.561-5.756,16.2,16.2,0,0,1-3.465-10.245q-.006-10.44,0-20.881m-181.016,0c9.59.015,19.184-.011,28.774.011-5.85,9.515-11.6,19.094-17.442,28.609q8.488-.011,16.976,0c-.026,2.423,0,4.846-.019,7.273-9.925-.038-19.85,0-29.775-.015,5.824-9.519,11.547-19.1,17.371-28.612-5.29.019-10.583-.019-15.873.019-.015-2.427,0-4.857-.011-7.284m-32.856.008q14.385-.017,28.77,0c-5.862,9.507-11.573,19.109-17.457,28.6,5.662.034,11.325.015,16.991.011-.008,2.427,0,4.853-.008,7.28q-14.887-.045-29.771,0,8.657-14.317,17.337-28.624c-5.282.011-10.565-.007-15.847.011-.008-2.423.015-4.846-.015-7.269m-40.516-.008c2.6.011,5.192-.011,7.788.015,0,6.829-.011,13.657.008,20.49a8.648,8.648,0,0,0,13.616,7.25,9.176,9.176,0,0,0,3.736-7.637q.006-10.062,0-20.125c2.573.026,5.147,0,7.72.015-.038,7.088,0,14.176-.023,21.261a15.515,15.515,0,0,1-4.978,11.5c-5.937,5.493-15.884,5.715-22.137.628a15.7,15.7,0,0,1-5.726-12.164c-.019-7.077,0-14.158-.008-21.234m224.911,6.64a11.381,11.381,0,0,0-9.018,8.939,11.724,11.724,0,0,0,5.643,12.754,11.877,11.877,0,0,0,15.079-3.153,11.693,11.693,0,0,0-11.7-18.541m-1.035-7.28a22.039,22.039,0,0,1,13.533,2.246,18.938,18.938,0,0,1,4.063,29.956c-7.495,7.393-20.952,7.385-28.436-.023a18.909,18.909,0,0,1,10.839-32.179m-24.557.553a8.328,8.328,0,0,1,7.577.286c-.929,2.562-1.859,5.128-2.746,7.705a5.237,5.237,0,0,0-6.569.369,5.123,5.123,0,0,0-1.682,3.935c0,7.976-.023,15.956.011,23.932-2.607.1-5.215.015-7.822.049q.011-18.053,0-36.111c2.434.011,4.868,0,7.3,0,0,1.358-.015,2.716,0,4.075a9.209,9.209,0,0,1,3.92-4.244M354.5,272.123a11.227,11.227,0,0,0-5.034,2.506,11.876,11.876,0,0,0-2.826,14.316c2.291,4.82,8.292,7.63,13.4,5.768a11.771,11.771,0,0,0,7.562-14.033c-1.287-5.655-7.352-9.831-13.1-8.555m-8.853-2.013a14.654,14.654,0,0,1,11.392-5.459,18.066,18.066,0,0,1,10.832,3.006,19.3,19.3,0,0,1,8.217,16.468c-.256,8.894-7.419,17.231-16.359,18.27-5.162.82-11.024-.854-14.086-5.309-.011,5.651.011,11.3-.011,16.953-2.551-.03-5.1-.026-7.649,0q-.006-24.239.011-48.477c2.547.026,5.094.011,7.641.008.008,1.516,0,3.029.011,4.545m-40.93-1.095a13.978,13.978,0,0,1,8.371-4.206,22.314,22.314,0,0,1,9.165.722,28.4,28.4,0,0,1,7.916,4.052c-1.426,1.844-2.927,3.619-4.361,5.455-2.543-2.111-5.613-3.853-8.992-3.973-2.284-.143-4.838.372-6.419,2.152a3.347,3.347,0,0,0,.41,4.88c1.877,1.264,4.229,1.328,6.373,1.817,3.732.809,7.818,1.012,11.016,3.333,2.739,1.934,3.766,5.61,3.179,8.808a11.735,11.735,0,0,1-4.974,7.732,16.586,16.586,0,0,1-8.51,2.713,24.168,24.168,0,0,1-17.792-6.272c1.783-1.761,3.522-3.563,5.286-5.339,3.141,3.213,7.566,5.523,12.156,5.2a7.244,7.244,0,0,0,5.711-2.837,3.317,3.317,0,0,0-.5-4.184,7.2,7.2,0,0,0-3.7-1.618c-4.029-.775-8.183-1.3-11.938-3.051a8.671,8.671,0,0,1-4.733-4.654,10.746,10.746,0,0,1,2.34-10.726m-139.378,3.341a11.146,11.146,0,0,0-3.484,1.682c-4.4,3.175-5.64,9.5-3.653,14.395a10.818,10.818,0,0,0,8.093,6.644,11.056,11.056,0,0,0,11.419-4.782c3.168-4.962,2.329-12.337-2.4-16.035a11.318,11.318,0,0,0-9.97-1.9M149.58,254.91c2.577.026,5.158-.026,7.735.03-.019,5.053.008,10.109-.015,15.162,1.953-2.852,5.26-4.451,8.567-5.136a18.765,18.765,0,0,1,16.419,5.015,19.921,19.921,0,0,1,.625,26.6,18.859,18.859,0,0,1-14.718,5.963,15.041,15.041,0,0,1-10.933-5.312c.06,1.452.06,2.9.049,4.357-2.573.03-5.151,0-7.728.019q.017-23.347,0-46.694m343.54,1.279c2.57-.711,5.136-1.441,7.709-2.16.041,3.89-.011,7.78.026,11.671,2.028-.1,4.06-.041,6.091-.056.026,2.442,0,4.887.015,7.333q-3.07-.017-6.136-.008c.049,4.97-.011,9.944.03,14.914.019,2.024.5,4.285,2.212,5.568,1.614,1.148,3.409,2.013,5.105,3.029-1.189,2-2.257,4.067-3.439,6.069-3.142-1.539-6.415-3.089-8.826-5.689a11.741,11.741,0,0,1-2.78-7.848c-.026-5.357.023-10.711-.023-16.069-1.437.034-2.874.026-4.3.026.011-2.438-.019-4.876.019-7.314,1.426-.019,2.859-.038,4.293.053.023-3.172,0-6.347.008-9.519" transform="translate(0 -16.565)" fill="#333"/>
      <path id="Path_101313" data-name="Path 101313" d="M1148.66,293.852A35.482,35.482,0,0,1,1161.82,296a19.344,19.344,0,0,1,10.207,8.586,32.685,32.685,0,0,1,3.657,16.321,33.237,33.237,0,0,1-14.38-2.581,19.048,19.048,0,0,1-8.665-7.5c-3.059-5.068-4.078-11.129-3.98-16.976m41.758,6.795c5.3-5.271,13.164-6.87,20.4-6.795.15,6.915-1.3,14.319-5.948,19.673-5.214,5.835-13.51,7.543-21.024,7.382-.105-7.167,1.49-14.91,6.573-20.26m-.391-19.3q-.011-1.535-.007-3.066,2.946-.006,5.9,0c-.045,3.341.3,6.806-.914,10a16.581,16.581,0,0,1-12.051,10.534c.007,5.03-.015,10.064.011,15.1.2,2.314.117,4.639.147,6.96-2.114.087-4.225.03-6.332.045q.045-10.982.03-21.964a16.513,16.513,0,0,1-13.01-11c-1.087-3.108-.76-6.437-.809-9.662q2.8-.023,5.613,0c0,1.016,0,2.035-.011,3.051l-2.551.023a14.831,14.831,0,0,0,1.561,7.7,13.726,13.726,0,0,0,9.191,6.8c.008-1.05.019-2.1.026-3.142a12.06,12.06,0,0,0,6.129-.335c0,1.095,0,2.19.011,3.288a13.753,13.753,0,0,0,8.6-7.107,15.055,15.055,0,0,0,1.306-7.212c-.952-.008-1.9-.008-2.844-.011" transform="translate(-623.191 -31.691)" fill="#7bb53b"/>
    </g>
  </g>
</svg>
