<svg xmlns="http://www.w3.org/2000/svg" width="142" height="140" viewBox="0 0 142 140">
  <g id="t5-i2" transform="translate(-543 -1168)">
    <rect id="Rectangle_5657" data-name="Rectangle 5657" width="142" height="140" transform="translate(543 1168)" fill="none"/>
    <g id="Group_54361" data-name="Group 54361" transform="translate(-3382.292 1229.68)">
      <path id="Path_101565" data-name="Path 101565" d="M4123.971,54.105a14.025,14.025,0,0,1-14.014,14.013H4051.6a13.975,13.975,0,0,1-10.8-5.106l-.42-.56a13.935,13.935,0,0,1-2.775-8.37V-25.263h-14.012a14,14,0,0,1-14-14,14,14,0,0,1,14-14h72.374a13.989,13.989,0,0,1,13.989,13.989v79.37A14.025,14.025,0,0,1,4123.971,54.105Z" transform="translate(-60.115 -6.072)" fill="#80ed99"/>
      <path id="Path_101566" data-name="Path 101566" d="M4117.116,54.105A14.025,14.025,0,0,1,4103.1,68.119H4051.6a13.975,13.975,0,0,1-10.8-5.106l-.42-.56a13.935,13.935,0,0,1-2.775-8.37V-25.263h-14.012a14,14,0,0,1-14-14,14,14,0,0,1,14-14h65.519a13.989,13.989,0,0,1,13.99,13.989v79.37A14.024,14.024,0,0,1,4117.116,54.105Z" transform="translate(-60.115 -6.072)" fill="#c7f9cc"/>
      <path id="Path_101567" data-name="Path 101567" d="M4037.638-39.277v14.013h-14.012a14,14,0,0,1-13.99-14.006,14,14,0,0,1,14-14A14,14,0,0,1,4037.638-39.277Z" transform="translate(-60.146 -6.072)" fill="#80ed99"/>
      <path id="Path_101568" data-name="Path 101568" d="M4232.885,296.172a14.025,14.025,0,0,1-14.013,14.013h-58.36a14.013,14.013,0,0,0,0-28.026h58.36A14.024,14.024,0,0,1,4232.885,296.172Z" transform="translate(-169.029 -248.139)" fill="#80ed99"/>
      <path id="Path_101569" data-name="Path 101569" d="M4225.983,296.172a14.025,14.025,0,0,1-14.013,14.013h-51.459a14.013,14.013,0,0,0,0-28.026h51.459A14.024,14.024,0,0,1,4225.983,296.172Z" transform="translate(-169.029 -248.139)" fill="#f4f4f4"/>
      <path id="Path_101570" data-name="Path 101570" d="M4008.917,135.019h-.014a2.457,2.457,0,0,0-3.278,1.165l-11.98,25.065h-.14l11.98-25.065a2.459,2.459,0,0,0-1.166-3.28h-.014a2.453,2.453,0,0,0-2.612.313l-31.148,25.3a3.032,3.032,0,0,0-.821,1.044l-3.658,7.655a3.017,3.017,0,0,0-.266,1.732l1.8,12.58a3.022,3.022,0,0,1-.264,1.732l-2.215,4.63,25.606,12.172,2.212-4.631a3.035,3.035,0,0,1,1.183-1.3l10.918-6.5a3.03,3.03,0,0,0,1.183-1.293l3.654-7.667a3.051,3.051,0,0,0,.3-1.292l.136-40.151A2.456,2.456,0,0,0,4008.917,135.019ZM3995.6,170.959a5.829,5.829,0,1,1,.239-4.46A5.827,5.827,0,0,1,3995.6,170.959Z" transform="translate(-28.026 -140.252)" fill="#ffc94a"/>
      <path id="Path_101571" data-name="Path 101571" d="M3977.131,348.071l-1.958,4.127-29.123-13.92,1.983-4.127a3.479,3.479,0,0,1,4.663-1.632l22.78,10.888a3.483,3.483,0,0,1,1.656,4.664Z" transform="translate(-14.258 -284.229)" fill="#80ed99"/>
      <path id="Path_101572" data-name="Path 101572" d="M3966.965,368.038l-2.845,5.923a3.5,3.5,0,0,1-4.663,1.655l-22.8-10.888a3.528,3.528,0,0,1-1.633-4.687l2.821-5.923Z" transform="translate(-6.051 -300.069)" fill="#fb6459"/>
      <path id="Path_101573" data-name="Path 101573" d="M3929.607,200.894l22.8,10.892a5.829,5.829,0,0,0,7.772-2.749l2.833-5.929,1.966-4.116a5.8,5.8,0,0,0,.14-4.663l1.926-4.019a.594.594,0,0,1,.232-.278l10.94-6.51a5.3,5.3,0,0,0,2.082-2.285l3.668-7.695a5.353,5.353,0,0,0,.524-2.266l.14-40.161a4.781,4.781,0,0,0-2.711-4.334,1.781,1.781,0,0,0-.249-.1,4.716,4.716,0,0,0-2.439-.326,4.738,4.738,0,0,0-1.914-1.7,2.354,2.354,0,0,0-.233-.093,4.849,4.849,0,0,0-4.9.7l-31.193,25.373a5.5,5.5,0,0,0-1.4,1.807l-3.677,7.695a5.315,5.315,0,0,0-.445,3.049l1.788,12.5a.744.744,0,0,1-.069.483l-1.806,3.81c-.132.037-.266.051-.4.1a5.8,5.8,0,0,0-3.321,2.98l-1.967,4.12-2.838,5.939A5.843,5.843,0,0,0,3929.607,200.894Zm26.348,6.134a1.166,1.166,0,0,1-.665.6,1.136,1.136,0,0,1-.888-.049l-22.783-10.891a1.167,1.167,0,0,1-.55-1.562l1.831-3.831,24.9,11.892Zm-20.08-21.957a1.164,1.164,0,0,1,.664-.6,1.223,1.223,0,0,1,.39-.065,1.143,1.143,0,0,1,.5.114l22.791,10.894a1.168,1.168,0,0,1,.553,1.563l-.963,2.012-24.89-11.9Zm26.442-26.245a3.5,3.5,0,1,1-3.168,1.991A3.5,3.5,0,0,1,3962.317,158.826Zm-22.173,3.265,3.667-7.664a.834.834,0,0,1,.177-.233l31.244-25.35a1.693,1.693,0,0,0,.178.079l-12.2,25.324a8.161,8.161,0,1,0,4.4,1.91l12.255-25.163.13.058-.17,40.23a.73.73,0,0,1-.075.278l-3.663,7.671a.615.615,0,0,1-.252.284l-10.934,6.5a5.228,5.228,0,0,0-2.079,2.3l-1.236,2.578-21.379-10.217,1.179-2.481a5.4,5.4,0,0,0,.5-3.12l-1.8-12.591a.662.662,0,0,1,.056-.39Z" transform="translate(0 -134.137)"/>
      <path id="Path_101574" data-name="Path 101574" d="M4106.232,31.88V-45.341a16.356,16.356,0,0,0-16.338-16.339h-72.367a16.338,16.338,0,0,0-16.338,16.339A16.338,16.338,0,0,0,4017.528-29H4029.2V-17.33A2.332,2.332,0,0,0,4031.537-15a2.332,2.332,0,0,0,2.332-2.332V-45.341a16.282,16.282,0,0,0-4.932-11.675h60.958a11.688,11.688,0,0,1,11.675,11.675V31.7H4045.54a2.332,2.332,0,0,0,0,4.664,11.674,11.674,0,1,1-9.006,19.089,2.332,2.332,0,1,0-3.58,2.987,16.378,16.378,0,0,0,12.591,5.927h58.361a16.322,16.322,0,0,0,2.333-32.492ZM4029.2-45.341v11.674h-11.677a11.674,11.674,0,0,1-11.672-11.676,11.675,11.675,0,0,1,11.675-11.673A11.674,11.674,0,0,1,4029.2-45.341Zm74.7,105.049h-46.953a16.283,16.283,0,0,0,0-23.349H4103.9a11.674,11.674,0,0,1,0,23.349Z" transform="translate(-54.051)"/>
      <path id="Path_101575" data-name="Path 101575" d="M4270.1,43.63a2.332,2.332,0,1,0,0-4.664h-23.342a2.332,2.332,0,1,0,0,4.664Z" transform="translate(-229.585 -72.633)"/>
      <path id="Path_101576" data-name="Path 101576" d="M4152.156,74.85a2.331,2.331,0,0,0,2.332,2.331h49.023a2.331,2.331,0,1,0,0-4.663h-49.023A2.332,2.332,0,0,0,4152.156,74.85Z" transform="translate(-162.999 -96.847)"/>
      <path id="Path_101577" data-name="Path 101577" d="M4154.488,110.73h49.023a2.332,2.332,0,1,0,0-4.664h-49.023a2.332,2.332,0,1,0,0,4.664Z" transform="translate(-162.999 -121.057)"/>
      <path id="Path_101578" data-name="Path 101578" d="M4154.488,144.274h49.023a2.331,2.331,0,1,0,0-4.663h-49.023a2.331,2.331,0,1,0,0,4.663Z" transform="translate(-162.999 -145.266)"/>
      <path id="Path_101579" data-name="Path 101579" d="M4154.488,177.834h49.023a2.331,2.331,0,1,0,0-4.663h-49.023a2.331,2.331,0,1,0,0,4.663Z" transform="translate(-162.999 -169.485)"/>
      <path id="Path_101580" data-name="Path 101580" d="M4154.488,211.344h25.68a2.331,2.331,0,1,0,0-4.663h-25.68a2.331,2.331,0,1,0,0,4.663Z" transform="translate(-162.999 -193.668)"/>
    </g>
  </g>
</svg>
