<svg xmlns="http://www.w3.org/2000/svg" width="142" height="140" viewBox="0 0 142 140">
  <g id="t5-i3" transform="translate(-543 -193)">
    <rect id="Rectangle_5657" data-name="Rectangle 5657" width="142" height="140" transform="translate(543 193)" fill="none"/>
    <g id="Group_54362" data-name="Group 54362" transform="translate(-3008.167 -290.577)">
      <path id="Path_101581" data-name="Path 101581" d="M3598.234,492.2a32.616,32.616,0,0,0-23.308,55.452,31.7,31.7,0,0,0,9.335,6.668,32.673,32.673,0,0,0,27.976,0,32.076,32.076,0,0,0,9.333-6.668,32.616,32.616,0,0,0-23.336-55.452Z" transform="translate(-6.087 -6.221)" fill="#f5f5f5"/>
      <path id="Path_101582" data-name="Path 101582" d="M3766.591,718.377h9.334v34.976h-9.334Z" transform="translate(-151.135 -169.448)" fill="#cfd8dc"/>
      <path id="Path_101583" data-name="Path 101583" d="M3804.794,693.225h51.312a4.66,4.66,0,0,1,4.667,4.666v39.645a4.66,4.66,0,0,1-4.667,4.667h-51.312a4.66,4.66,0,0,1-4.668-4.667V697.891A4.66,4.66,0,0,1,3804.794,693.225Z" transform="translate(-175.336 -151.297)" fill="#cfd8dc"/>
      <path id="Path_101584" data-name="Path 101584" d="M3804.794,693.225H3849.1a4.659,4.659,0,0,1,4.667,4.666v39.645a4.659,4.659,0,0,1-4.667,4.667h-44.311a4.66,4.66,0,0,1-4.668-4.667V697.891A4.66,4.66,0,0,1,3804.794,693.225Z" transform="translate(-175.336 -151.297)" fill="#f5f5f5"/>
      <path id="Path_101585" data-name="Path 101585" d="M3833.666,726.76h41.978v30.31h-41.978Z" transform="translate(-199.541 -175.498)" fill="#c7f9cc"/>
      <path id="Path_101586" data-name="Path 101586" d="M3923.95,805.475h-23.308l11.668-11.641Z" transform="translate(-247.876 -223.903)" fill="#80ed99"/>
      <path id="Path_101587" data-name="Path 101587" d="M3859.308,786.375l-7,7h-18.642l16.308-16.307Z" transform="translate(-199.541 -211.804)" fill="#66bd7a"/>
      <path id="Path_101588" data-name="Path 101588" d="M3935.129,731.427a4.667,4.667,0,1,1-4.667-4.667A4.667,4.667,0,0,1,3935.129,731.427Z" transform="translate(-266.028 -175.498)" fill="#ffc94a"/>
      <path id="Path_101589" data-name="Path 101589" d="M3608.336,698.192v59.119h-4.667a4.66,4.66,0,0,1-4.668-4.667V691.525A32.588,32.588,0,0,0,3608.336,698.192Z" transform="translate(-30.19 -150.07)" fill="#22577a"/>
      <path id="Path_101590" data-name="Path 101590" d="M3742.387,691.525v61.119a4.66,4.66,0,0,1-4.667,4.667h-4.668V698.192A31.824,31.824,0,0,0,3742.387,691.525Z" transform="translate(-126.931 -150.07)" fill="#22577a"/>
      <path id="Path_101591" data-name="Path 101591" d="M3645.72,549.044a23.308,23.308,0,1,1-23.309-23.308A23.31,23.31,0,0,1,3645.72,549.044Z" transform="translate(-30.264 -30.425)" fill="#80ed99"/>
      <path id="Path_101592" data-name="Path 101592" d="M3616.361,568.634A25.642,25.642,0,1,1,3642,542.992,25.633,25.633,0,0,1,3616.361,568.634Zm0-46.617a20.975,20.975,0,1,0,20.975,20.975A20.974,20.974,0,0,0,3616.361,522.017Z" transform="translate(-24.214 -24.372)" fill="#5e5f62"/>
      <path id="Path_101593" data-name="Path 101593" d="M3664.26,585.277a11.687,11.687,0,0,1-4.667,9.335h-14a11.667,11.667,0,0,1,0-18.669h14A11.842,11.842,0,0,1,3664.26,585.277Z" transform="translate(-60.444 -66.658)" fill="#c7f9cc"/>
      <path id="Path_101594" data-name="Path 101594" d="M3683.8,580.609a4.667,4.667,0,1,1-4.667-4.667A4.667,4.667,0,0,1,3683.8,580.609Z" transform="translate(-84.648 -66.658)" fill="#fff"/>
      <path id="Path_101595" data-name="Path 101595" d="M3717.335,547.072a4.667,4.667,0,1,1-4.667-4.668A4.667,4.667,0,0,1,3717.335,547.072Z" transform="translate(-108.852 -42.454)" fill="#fb6459"/>
      <path id="Path_101596" data-name="Path 101596" d="M3869.566,753.353h-41.95a2.347,2.347,0,0,1-2.333-2.333V720.71a2.347,2.347,0,0,1,2.333-2.333h41.95a2.347,2.347,0,0,1,2.333,2.333v30.31A2.312,2.312,0,0,1,3869.566,753.353Zm-39.617-4.667h37.311V723.045h-37.311Z" transform="translate(-193.491 -169.448)" fill="#fec108"/>
      <path id="Path_101597" data-name="Path 101597" d="M3869.566,718.377h-41.95a2.347,2.347,0,0,0-2.333,2.333v30.31a2.347,2.347,0,0,0,2.333,2.333h41.95a2.347,2.347,0,0,0,2.333-2.333V720.71A2.33,2.33,0,0,0,3869.566,718.377Zm-9.307,7a2.334,2.334,0,1,1-2.333-2.333A2.347,2.347,0,0,1,3860.259,725.378Zm-8.918-2.333a6.663,6.663,0,0,0-.417,2.333,7,7,0,0,0,14,0,7.372,7.372,0,0,0-.417-2.333h2.75v22.364l-7.7-7.7a2.332,2.332,0,0,0-3.306,0l-3.029,3.029-7.667-7.668a2.331,2.331,0,0,0-3.307,0l-12.334,12.336V723.045Zm-18.113,25.641,10.7-10.7,6.028,6.029-4.666,4.667Zm24.7-6.028,6.028,6.028H3851.9Z" transform="translate(-193.491 -169.448)"/>
      <path id="Path_101598" data-name="Path 101598" d="M3616.361,568.634a25.642,25.642,0,1,0-25.641-25.642A25.634,25.634,0,0,0,3616.361,568.634Zm9.335-25.642a9.3,9.3,0,0,1-3.25,7h-12.169a9.165,9.165,0,0,1,0-14h1.861a6.67,6.67,0,0,0-.417,2.333,6.974,6.974,0,0,0,13.613,2.167A10.893,10.893,0,0,1,3625.7,542.992Zm-4.667-4.668a2.334,2.334,0,1,1-2.333-2.333A2.348,2.348,0,0,1,3621.029,538.324Zm4.667-9.334a2.334,2.334,0,1,1,2.333,2.333A2.312,2.312,0,0,1,3625.7,528.99Zm-9.335-6.974a20.98,20.98,0,0,1,7.5,1.389,6.8,6.8,0,0,0-2.389,7.918h-12.085a1.248,1.248,0,0,0-.278.055c-.167.028-.306.056-.472.084a3.141,3.141,0,0,0-.445.194,1.6,1.6,0,0,0-.222.112,14.016,14.016,0,0,0,0,22.391c.112.056.194.112.306.167a.871.871,0,0,0,.278.139,1.994,1.994,0,0,0,.805.167h14a2.24,2.24,0,0,0,.834-.167,2.848,2.848,0,0,0,.278-.139,2.811,2.811,0,0,0,.3-.167,13.916,13.916,0,0,0,3.667-18.224,6.93,6.93,0,0,0,5.834-3.862,20.989,20.989,0,1,1-17.919-10.057Z" transform="translate(-24.214 -24.372)"/>
      <path id="Path_101599" data-name="Path 101599" d="M3660.443,715.48V781.6a7.008,7.008,0,0,1-7,7h-14a7.008,7.008,0,0,1-7-7V715.48A32.725,32.725,0,0,0,3660.443,715.48Z" transform="translate(-54.321 -167.357)" fill="#2c719e"/>
      <path id="Path_101600" data-name="Path 101600" d="M3664.694,751.912a7,7,0,1,0,7,7A7.007,7.007,0,0,0,3664.694,751.912Zm0,9.335a2.334,2.334,0,1,1,2.334-2.333A2.348,2.348,0,0,1,3664.694,761.247Z" transform="translate(-72.547 -193.649)"/>
      <path id="Path_101601" data-name="Path 101601" d="M3680.742,539.594h-51.285a7.007,7.007,0,0,0-7,7h-4.668v-4.278a34.971,34.971,0,1,0-51.283,0v60.257a7.007,7.007,0,0,0,7,7h2.333v4.666a9.337,9.337,0,0,0,9.335,9.335h14a9.337,9.337,0,0,0,9.335-9.335v-4.666h2.333a7.007,7.007,0,0,0,7-7V586.239h4.612a7.007,7.007,0,0,0,7,7h51.312a7.007,7.007,0,0,0,7-7V546.595A7.049,7.049,0,0,0,3680.742,539.594Zm-88.6-51.284a30.309,30.309,0,1,1-30.309,30.309A30.31,30.31,0,0,1,3592.147,488.31Zm-18.669,116.6a2.348,2.348,0,0,1-2.333-2.334V546.539a37.056,37.056,0,0,0,4.667,3v55.368Zm30.337,9.307a4.66,4.66,0,0,1-4.667,4.667h-4.667v-9.335a2.334,2.334,0,0,0-4.668,0v9.335h-4.667a4.66,4.66,0,0,1-4.668-4.667V551.568a34.277,34.277,0,0,0,23.309,0v62.647Zm9.307-11.641a2.347,2.347,0,0,1-2.333,2.334h-2.333V549.54a34.266,34.266,0,0,0,4.667-3Zm4.667-21v-30.31h4.668v30.31Zm65.286,4.667a2.348,2.348,0,0,1-2.333,2.333h-51.285a2.348,2.348,0,0,1-2.333-2.333V546.595a2.348,2.348,0,0,1,2.333-2.333h51.312a2.348,2.348,0,0,1,2.334,2.333v39.645Z"/>
      <path id="Path_101602" data-name="Path 101602" d="M3679.129,821.222a2.334,2.334,0,1,1-2.334-2.333A2.334,2.334,0,0,1,3679.129,821.222Z" transform="translate(-84.648 -241.985)"/>
    </g>
  </g>
</svg>
